<svg xmlns="http://www.w3.org/2000/svg" xmlns:xlink="http://www.w3.org/1999/xlink" width="96" height="96" viewBox="0 0 96 96">
  <defs>
    <clipPath id="clip-path">
      <rect id="Rectángulo_454682" data-name="Rectángulo 454682" width="96" height="96" fill="#feea89"/>
    </clipPath>
    <clipPath id="clip-path-2">
      <rect id="Rectángulo_455933" data-name="Rectángulo 455933" width="60" height="60" transform="translate(8605 -9827)" fill="#fff" stroke="#707070" stroke-width="1"/>
    </clipPath>
    <clipPath id="clip-path-3">
      <rect id="Rectángulo_455934" data-name="Rectángulo 455934" width="54.363" height="53.739" fill="#fff"/>
    </clipPath>
  </defs>
  <g id="Grupo_1204863" data-name="Grupo 1204863" transform="translate(-7896.162 9844.69)">
    <g id="Grupo_1204859" data-name="Grupo 1204859">
      <g id="Grupo_1204373" data-name="Grupo 1204373" transform="translate(7164.416 -18462.689)">
        <g id="Grupo_1203592" data-name="Grupo 1203592" transform="translate(731.746 8618)">
          <g id="Grupo_1203487" data-name="Grupo 1203487">
            <g id="Grupo_1203486" data-name="Grupo 1203486" clip-path="url(#clip-path)">
              <path id="Trazado_1256437" data-name="Trazado 1256437" d="M2.058,84.327a47.583,47.583,0,0,0,1.836,6.227L23,71.45a25.883,25.883,0,0,1,4.958-13.021Z" transform="translate(-0.911 -25.866)" fill="#feea89"/>
              <path id="Trazado_1256438" data-name="Trazado 1256438" d="M90.555,3.894a47.583,47.583,0,0,0-6.227-1.836l-25.9,25.9A25.886,25.886,0,0,1,71.451,23Z" transform="translate(-25.866 -0.911)" fill="#feea89"/>
              <path id="Trazado_1256439" data-name="Trazado 1256439" d="M117.575,12.855a48.029,48.029,0,0,0-5.022-3.041L95.523,26.843a25.831,25.831,0,0,1,6.031,2.032Z" transform="translate(-42.287 -4.345)" fill="#feea89"/>
              <path id="Trazado_1256440" data-name="Trazado 1256440" d="M9.814,112.552a47.933,47.933,0,0,0,3.041,5.022l16.021-16.021a25.831,25.831,0,0,1-2.032-6.031Z" transform="translate(-4.345 -42.287)" fill="#feea89"/>
              <path id="Trazado_1256441" data-name="Trazado 1256441" d="M4.273,34.929,34.929,4.273A48.116,48.116,0,0,0,4.273,34.929" transform="translate(-1.892 -1.892)" fill="#feea89"/>
              <path id="Trazado_1256442" data-name="Trazado 1256442" d="M48,0q-2.406,0-4.752.234L.234,43.248Q0,45.593,0,48q0,1.726.123,3.422l51.3-51.3C50.292.043,49.151,0,48,0" transform="translate(0 0)" fill="#feea89"/>
              <path id="Trazado_1256443" data-name="Trazado 1256443" d="M143.483,112.406l-31.076,31.076a48.112,48.112,0,0,0,31.076-31.076" transform="translate(-49.761 -49.761)" fill="#feea89"/>
              <path id="Trazado_1256444" data-name="Trazado 1256444" d="M131.113,79.625,79.625,131.113q1.795.134,3.624.135c1.524,0,3.03-.074,4.517-.213l43.27-43.27c.139-1.487.213-2.993.213-4.516q0-1.829-.135-3.624" transform="translate(-35.249 -35.249)" fill="#feea89"/>
              <path id="Trazado_1256445" data-name="Trazado 1256445" d="M119.266,41.241l15.585-15.585a48.285,48.285,0,0,0-4.038-4.025L115.222,37.222a26.166,26.166,0,0,1,4.044,4.019" transform="translate(-51.007 -9.575)" fill="#feea89"/>
              <path id="Trazado_1256446" data-name="Trazado 1256446" d="M37.222,115.222,21.63,130.814a48.369,48.369,0,0,0,4.025,4.038l15.585-15.585a26.166,26.166,0,0,1-4.019-4.044" transform="translate(-9.575 -51.007)" fill="#feea89"/>
              <path id="Trazado_1256447" data-name="Trazado 1256447" d="M74.932,129.121,55.9,148.149a47.687,47.687,0,0,0,6.207,1.857l25.333-25.333a25.88,25.88,0,0,1-12.512,4.448" transform="translate(-24.748 -55.191)" fill="#feea89"/>
              <path id="Trazado_1256448" data-name="Trazado 1256448" d="M150.006,62.11a47.591,47.591,0,0,0-1.857-6.206L129.121,74.931a25.87,25.87,0,0,1-4.448,12.512Z" transform="translate(-55.191 -24.748)" fill="#feea89"/>
              <path id="Trazado_1256449" data-name="Trazado 1256449" d="M147.17,41.946a48.074,48.074,0,0,0-3.054-5.009l-16,16a25.825,25.825,0,0,1,2.064,6Z" transform="translate(-56.713 -16.352)" fill="#feea89"/>
              <path id="Trazado_1256450" data-name="Trazado 1256450" d="M36.937,144.115a47.933,47.933,0,0,0,5.009,3.055l16.995-17a25.812,25.812,0,0,1-6-2.064Z" transform="translate(-16.352 -56.713)" fill="#feea89"/>
            </g>
          </g>
        </g>
        <g id="Grupo_154427" data-name="Grupo 154427" transform="translate(736.746 8623)">
          <path id="Elipse_5729" data-name="Elipse 5729" d="M43,0A43,43,0,1,1,0,43,43,43,0,0,1,43,0Z" transform="translate(-0.162 0)" fill="#302c9e"/>
        </g>
      </g>
      <g id="Enmascarar_grupo_1119213" data-name="Enmascarar grupo 1119213" transform="translate(-691)" clip-path="url(#clip-path-2)">
        <g id="Grupo_1204838" data-name="Grupo 1204838" transform="translate(8608 -9824.199)">
          <g id="Grupo_1204837" data-name="Grupo 1204837" transform="translate(0 0)" clip-path="url(#clip-path-3)">
            <path id="Trazado_1260411" data-name="Trazado 1260411" d="M43.635,27.52A15.267,15.267,0,0,0,28.143,12.3,15.243,15.243,0,1,0,43.635,27.52m-4.467,6.951a29.336,29.336,0,0,0-3.421-1.033,25.458,25.458,0,0,0,.57-4.7h4.846a13.343,13.343,0,0,1-2,5.73M15.122,28.647h4.847a33.536,33.536,0,0,0,.57,4.7c-1.141.283-2.281.658-3.422,1.034a12.554,12.554,0,0,1-2-5.732m2-8.08A29.224,29.224,0,0,0,20.539,21.6a25.468,25.468,0,0,0-.57,4.7H15.122a13.376,13.376,0,0,1,2-5.731M29.378,40.109v-5.26c1.141,0,2.281.188,3.422.281-.666,1.879-1.807,4.135-3.422,4.979m-5.893-4.885a21.122,21.122,0,0,1,3.422-.282V40.2c-1.616-.94-2.757-3.2-3.422-4.98M27,14.837V20.1c-1.141,0-2.281-.188-3.422-.281.57-1.786,1.711-4.04,3.422-4.979m0,7.609V26.3H22.345a28.472,28.472,0,0,1,.57-4.228c1.33.188,2.661.283,4.087.376m0,6.2V32.5c-1.426.093-2.757.188-4.087.375a30.251,30.251,0,0,1-.57-4.228Zm2.376,3.946V28.741h4.656a28.263,28.263,0,0,1-.569,4.228,20.694,20.694,0,0,0-4.087-.377m0-6.295V22.446c1.425-.093,2.756-.188,4.087-.376a29.992,29.992,0,0,1,.569,4.228Zm0-6.2v-5.26c1.711.845,2.851,3.1,3.422,4.885a21.182,21.182,0,0,1-3.422.376m4.087-4.416a11.916,11.916,0,0,1,4.182,2.913,19.129,19.129,0,0,1-2.471.752,21.694,21.694,0,0,0-1.711-3.665m-10.645,0a16.2,16.2,0,0,0-1.711,3.665,19.084,19.084,0,0,1-2.471-.752,13.946,13.946,0,0,1,4.182-2.913M21.2,35.693a14.262,14.262,0,0,0,1.711,3.664,11.932,11.932,0,0,1-4.182-2.912,18.8,18.8,0,0,1,2.471-.753m12.261,3.664a16.216,16.216,0,0,0,1.711-3.664,18.84,18.84,0,0,1,2.471.753,15.869,15.869,0,0,1-4.182,2.912M36.317,26.3a33.694,33.694,0,0,0-.57-4.7c1.14-.282,2.28-.657,3.421-1.033a12.214,12.214,0,0,1,2,5.826H36.317Z" transform="translate(-0.771 -0.744)" fill="#fff"/>
            <path id="Trazado_1260412" data-name="Trazado 1260412" d="M53.413,23.206l-6.653-1.5a18.519,18.519,0,0,0-2.091-4.885l3.612-5.731a1.283,1.283,0,0,0-.19-1.5L44.574,6.107a1.3,1.3,0,0,0-1.52-.188l-5.8,3.664a18.969,18.969,0,0,0-4.941-2.067L30.793.94A1.125,1.125,0,0,0,29.653,0H24.71A1.125,1.125,0,0,0,23.57.94L22.05,7.516a18.962,18.962,0,0,0-4.942,2.067l-5.8-3.664a1.32,1.32,0,0,0-1.521.188L6.273,9.583a1.265,1.265,0,0,0-.191,1.5l3.612,5.731A18.547,18.547,0,0,0,7.6,21.7l-6.653,1.5A1.12,1.12,0,0,0,0,24.333v4.885a1.12,1.12,0,0,0,.951,1.127L7.6,31.85a18.547,18.547,0,0,0,2.09,4.885L6.082,42.466a1.282,1.282,0,0,0,.191,1.5l3.516,3.476a1.3,1.3,0,0,0,1.521.188l5.8-3.57A18.962,18.962,0,0,0,22.05,46.13L23.19,51.3H7.7a1.221,1.221,0,1,0,0,2.443H48.091a1.221,1.221,0,1,0,0-2.443H31.363L32.5,46.13a18.969,18.969,0,0,0,4.941-2.067l5.8,3.57a1.32,1.32,0,0,0,1.521-.188l3.517-3.476a1.265,1.265,0,0,0,.19-1.5l-3.8-5.731a18.519,18.519,0,0,0,2.091-4.885l6.653-1.5a1.12,1.12,0,0,0,.95-1.127V24.333a1.12,1.12,0,0,0-.95-1.127m-1.426,5.073-6.463,1.409a1.116,1.116,0,0,0-.855.846,18.99,18.99,0,0,1-2.281,5.543.978.978,0,0,0,0,1.221L45.9,42.842,43.719,45l-5.608-3.476a1.007,1.007,0,0,0-1.235,0,15.306,15.306,0,0,1-5.608,2.255,1.116,1.116,0,0,0-.855.846l-1.425,6.389H25.946L24.52,44.627a1.117,1.117,0,0,0-.856-.846,19.466,19.466,0,0,1-5.607-2.255,1.008,1.008,0,0,0-1.235,0L11.215,45,9.029,42.842,12.545,37.3a.978.978,0,0,0,0-1.221,14.935,14.935,0,0,1-2.281-5.543,1.118,1.118,0,0,0-.855-.846L2.757,28.279V25.273l6.463-1.409a1.117,1.117,0,0,0,.855-.846,18.99,18.99,0,0,1,2.281-5.543.98.98,0,0,0,0-1.221L8.839,10.71,11.024,8.55l5.608,3.476a1.008,1.008,0,0,0,1.235,0,19.673,19.673,0,0,1,5.607-2.349,1.115,1.115,0,0,0,.855-.846l1.426-6.389H28.8l1.425,6.389a1.119,1.119,0,0,0,.856.846,17.33,17.33,0,0,1,5.608,2.349,1.007,1.007,0,0,0,1.235,0L43.529,8.55l2.185,2.161L42.2,16.254a.978.978,0,0,0,0,1.221,14.935,14.935,0,0,1,2.281,5.543,1.116,1.116,0,0,0,.855.846L51.8,25.273v3.006Z" transform="translate(0 0)" fill="#fff"/>
            <path id="Trazado_1260413" data-name="Trazado 1260413" d="M53.995,54.676a1.391,1.391,0,0,0-.381.846,1.236,1.236,0,0,0,2.471,0,1.014,1.014,0,0,0-.38-.846,1.215,1.215,0,0,0-1.711,0" transform="translate(-3.243 -3.286)" fill="#fff"/>
            <path id="Trazado_1260414" data-name="Trazado 1260414" d="M3.416,54.676a1.182,1.182,0,0,0,0,1.692,1.215,1.215,0,0,0,1.711,0,1.182,1.182,0,0,0,0-1.692,1.215,1.215,0,0,0-1.711,0" transform="translate(-0.185 -3.286)" fill="#fff"/>
          </g>
        </g>
      </g>
    </g>
  </g>
</svg>
