<svg xmlns="http://www.w3.org/2000/svg" xmlns:xlink="http://www.w3.org/1999/xlink" width="96" height="96" viewBox="0 0 96 96">
  <defs>
    <clipPath id="clip-path">
      <rect id="Rectángulo_454682" data-name="Rectángulo 454682" width="96" height="96" fill="#feea89"/>
    </clipPath>
    <clipPath id="clip-path-2">
      <rect id="Rectángulo_455936" data-name="Rectángulo 455936" width="60" height="60" transform="translate(8605 -9827)" fill="#fff" stroke="#707070" stroke-width="1"/>
    </clipPath>
    <clipPath id="clip-path-3">
      <rect id="Rectángulo_455947" data-name="Rectángulo 455947" width="55.96" height="56.2" transform="translate(0 0)" fill="#fff"/>
    </clipPath>
  </defs>
  <g id="Grupo_1204864" data-name="Grupo 1204864" transform="translate(-1198.711 -1855.311)">
    <g id="Grupo_1204265" data-name="Grupo 1204265" transform="translate(466.965 -6762.689)">
      <g id="Grupo_1203592" data-name="Grupo 1203592" transform="translate(731.746 8618)">
        <g id="Grupo_1203487" data-name="Grupo 1203487">
          <g id="Grupo_1203486" data-name="Grupo 1203486" clip-path="url(#clip-path)">
            <path id="Trazado_1256437" data-name="Trazado 1256437" d="M2.058,84.327a47.583,47.583,0,0,0,1.836,6.227L23,71.45a25.883,25.883,0,0,1,4.958-13.021Z" transform="translate(-0.911 -25.866)" fill="#feea89"/>
            <path id="Trazado_1256438" data-name="Trazado 1256438" d="M90.555,3.894a47.583,47.583,0,0,0-6.227-1.836l-25.9,25.9A25.886,25.886,0,0,1,71.451,23Z" transform="translate(-25.866 -0.911)" fill="#feea89"/>
            <path id="Trazado_1256439" data-name="Trazado 1256439" d="M117.575,12.855a48.029,48.029,0,0,0-5.022-3.041L95.523,26.843a25.831,25.831,0,0,1,6.031,2.032Z" transform="translate(-42.287 -4.345)" fill="#feea89"/>
            <path id="Trazado_1256440" data-name="Trazado 1256440" d="M9.814,112.552a47.933,47.933,0,0,0,3.041,5.022l16.021-16.021a25.831,25.831,0,0,1-2.032-6.031Z" transform="translate(-4.345 -42.287)" fill="#feea89"/>
            <path id="Trazado_1256441" data-name="Trazado 1256441" d="M4.273,34.929,34.929,4.273A48.116,48.116,0,0,0,4.273,34.929" transform="translate(-1.892 -1.892)" fill="#feea89"/>
            <path id="Trazado_1256442" data-name="Trazado 1256442" d="M48,0q-2.406,0-4.752.234L.234,43.248Q0,45.593,0,48q0,1.726.123,3.422l51.3-51.3C50.292.043,49.151,0,48,0" transform="translate(0 0)" fill="#feea89"/>
            <path id="Trazado_1256443" data-name="Trazado 1256443" d="M143.483,112.406l-31.076,31.076a48.112,48.112,0,0,0,31.076-31.076" transform="translate(-49.761 -49.761)" fill="#feea89"/>
            <path id="Trazado_1256444" data-name="Trazado 1256444" d="M131.113,79.625,79.625,131.113q1.795.134,3.624.135c1.524,0,3.03-.074,4.517-.213l43.27-43.27c.139-1.487.213-2.993.213-4.516q0-1.829-.135-3.624" transform="translate(-35.249 -35.249)" fill="#feea89"/>
            <path id="Trazado_1256445" data-name="Trazado 1256445" d="M119.266,41.241l15.585-15.585a48.285,48.285,0,0,0-4.038-4.025L115.222,37.222a26.166,26.166,0,0,1,4.044,4.019" transform="translate(-51.007 -9.575)" fill="#feea89"/>
            <path id="Trazado_1256446" data-name="Trazado 1256446" d="M37.222,115.222,21.63,130.814a48.369,48.369,0,0,0,4.025,4.038l15.585-15.585a26.166,26.166,0,0,1-4.019-4.044" transform="translate(-9.575 -51.007)" fill="#feea89"/>
            <path id="Trazado_1256447" data-name="Trazado 1256447" d="M74.932,129.121,55.9,148.149a47.687,47.687,0,0,0,6.207,1.857l25.333-25.333a25.88,25.88,0,0,1-12.512,4.448" transform="translate(-24.748 -55.191)" fill="#feea89"/>
            <path id="Trazado_1256448" data-name="Trazado 1256448" d="M150.006,62.11a47.591,47.591,0,0,0-1.857-6.206L129.121,74.931a25.87,25.87,0,0,1-4.448,12.512Z" transform="translate(-55.191 -24.748)" fill="#feea89"/>
            <path id="Trazado_1256449" data-name="Trazado 1256449" d="M147.17,41.946a48.074,48.074,0,0,0-3.054-5.009l-16,16a25.825,25.825,0,0,1,2.064,6Z" transform="translate(-56.713 -16.352)" fill="#feea89"/>
            <path id="Trazado_1256450" data-name="Trazado 1256450" d="M36.937,144.115a47.933,47.933,0,0,0,5.009,3.055l16.995-17a25.812,25.812,0,0,1-6-2.064Z" transform="translate(-16.352 -56.713)" fill="#feea89"/>
          </g>
        </g>
      </g>
      <g id="Grupo_154427" data-name="Grupo 154427" transform="translate(736.746 8623)">
        <path id="Elipse_5729" data-name="Elipse 5729" d="M43,0A43,43,0,1,1,0,43,43,43,0,0,1,43,0Z" transform="translate(0 0)" fill="#302c9e"/>
      </g>
    </g>
    <g id="Enmascarar_grupo_1119214" data-name="Enmascarar grupo 1119214" transform="translate(-7388.289 11700)" clip-path="url(#clip-path-2)">
      <g id="Grupo_1204846" data-name="Grupo 1204846" transform="translate(8607.02 -9825.1)">
        <g id="Grupo_1204845" data-name="Grupo 1204845" clip-path="url(#clip-path-3)">
          <path id="Trazado_1260427" data-name="Trazado 1260427" d="M51.692,0H11.432A4.936,4.936,0,0,0,6.475,4.9V47H1.315A1.317,1.317,0,0,0,0,48.2c0,5,3.338,8,7.688,8h30.55A8.369,8.369,0,0,0,43.4,54a8.214,8.214,0,0,0,2.428-5.7V9.4h5.362a4.634,4.634,0,0,0,4.754-4.6A4.294,4.294,0,0,0,51.692,0M7.789,53.8a4.788,4.788,0,0,1-5.057-4.3H29.437a8.371,8.371,0,0,0,1.923,4.3Zm8.8-14.4a6.98,6.98,0,1,1,6.98,6.9,6.954,6.954,0,0,1-6.98-6.9M38.238,53.8H36.923c-2.428-.3-5.057-1.8-5.057-5.5a1.249,1.249,0,0,0-1.316-1.2H28.932a9.251,9.251,0,0,0,3.945-7.6A9.51,9.51,0,1,0,17.8,47.1H8.9V4.9A2.447,2.447,0,0,1,11.33,2.5H45.522a7.816,7.816,0,0,0-2.327,5.6V48.2c.2,3.8-2.63,5.3-4.957,5.6M51.389,6.9h-5.26a5.792,5.792,0,0,1,5.26-4.4h.1a2.039,2.039,0,0,1,2.024,2.2,2.015,2.015,0,0,1-2.125,2.2" fill="#fff"/>
          <path id="Trazado_1260428" data-name="Trazado 1260428" d="M13.757,8.4h6.677a1.3,1.3,0,1,0,0-2.6H13.757a1.3,1.3,0,1,0,0,2.6" fill="#fff"/>
          <path id="Trazado_1260429" data-name="Trazado 1260429" d="M24.379,8.4h2.63a1.3,1.3,0,1,0,0-2.6h-2.63a1.3,1.3,0,1,0,0,2.6" fill="#fff"/>
          <path id="Trazado_1260430" data-name="Trazado 1260430" d="M30.955,8.4h7.992a1.3,1.3,0,1,0,0-2.6H30.955A1.332,1.332,0,0,0,29.64,7.1a1.407,1.407,0,0,0,1.315,1.3" fill="#fff"/>
          <path id="Trazado_1260431" data-name="Trazado 1260431" d="M13.757,12.4H27.009a1.3,1.3,0,1,0,0-2.6H13.757a1.3,1.3,0,1,0,0,2.6" fill="#fff"/>
          <path id="Trazado_1260432" data-name="Trazado 1260432" d="M39.351,17.5H13.758a1.3,1.3,0,1,0,0,2.6H39.351a1.331,1.331,0,0,0,1.315-1.3,1.492,1.492,0,0,0-1.315-1.3" fill="#fff"/>
          <path id="Trazado_1260433" data-name="Trazado 1260433" d="M39.351,21.3H13.758a1.3,1.3,0,1,0,0,2.6H39.351a1.332,1.332,0,0,0,1.315-1.3,1.4,1.4,0,0,0-1.315-1.3" fill="#fff"/>
          <path id="Trazado_1260434" data-name="Trazado 1260434" d="M39.351,25H13.758a1.3,1.3,0,1,0,0,2.6H39.351a1.331,1.331,0,0,0,1.315-1.3A1.492,1.492,0,0,0,39.351,25" fill="#fff"/>
          <path id="Trazado_1260435" data-name="Trazado 1260435" d="M30.955,12.4h7.992a1.3,1.3,0,1,0,0-2.6H30.955a1.3,1.3,0,1,0,0,2.6" fill="#fff"/>
          <path id="Trazado_1260436" data-name="Trazado 1260436" d="M13.757,16.3h6.677a1.3,1.3,0,1,0,0-2.6H13.757a1.3,1.3,0,1,0,0,2.6" fill="#fff"/>
          <path id="Trazado_1260437" data-name="Trazado 1260437" d="M27.009,13.8h-2.63a1.3,1.3,0,1,0,0,2.6h2.63a1.3,1.3,0,1,0,0-2.6" fill="#fff"/>
          <path id="Trazado_1260438" data-name="Trazado 1260438" d="M30.955,16.3h7.992a1.3,1.3,0,1,0,0-2.6H30.955A1.331,1.331,0,0,0,29.64,15a1.406,1.406,0,0,0,1.315,1.3" fill="#fff"/>
          <path id="Trazado_1260439" data-name="Trazado 1260439" d="M24.177,38.6c-1.011-.4-1.517-.7-1.517-1.1,0-.3.3-.7,1.113-.7a4.843,4.843,0,0,1,1.821.4l.4-1.4a3.747,3.747,0,0,0-1.821-.4V34.3H22.862v1.2c-1.315.3-2.124,1.1-2.124,2.2,0,1.2.91,1.8,2.225,2.3.911.3,1.315.6,1.315,1.1s-.5.8-1.214.8a5.452,5.452,0,0,1-2.023-.5l-.4,1.4a4.144,4.144,0,0,0,2.124.5v1.1h1.113V43.2A2.3,2.3,0,0,0,26.1,40.9c.1-1.1-.4-1.8-1.922-2.3" fill="#fff"/>
          <rect id="Rectángulo_455941" data-name="Rectángulo 455941" width="2.529" height="2.5" transform="translate(35.507 43.8)" fill="#fff"/>
          <rect id="Rectángulo_455942" data-name="Rectángulo 455942" width="2.529" height="2.5" transform="translate(38.036 41.3)" fill="#fff"/>
          <rect id="Rectángulo_455943" data-name="Rectángulo 455943" width="2.529" height="2.5" transform="translate(35.507 38.8)" fill="#fff"/>
          <rect id="Rectángulo_455944" data-name="Rectángulo 455944" width="2.529" height="2.5" transform="translate(38.036 36.3)" fill="#fff"/>
          <rect id="Rectángulo_455945" data-name="Rectángulo 455945" width="2.529" height="2.5" transform="translate(35.507 33.8)" fill="#fff"/>
          <rect id="Rectángulo_455946" data-name="Rectángulo 455946" width="2.529" height="2.5" transform="translate(38.036 31.3)" fill="#fff"/>
        </g>
      </g>
    </g>
  </g>
</svg>
