<svg xmlns="http://www.w3.org/2000/svg" xmlns:xlink="http://www.w3.org/1999/xlink" width="96" height="96" viewBox="0 0 96 96">
  <defs>
    <clipPath id="clip-path">
      <rect id="Rectángulo_454682" data-name="Rectángulo 454682" width="96" height="96" fill="#feea89"/>
    </clipPath>
    <clipPath id="clip-path-2">
      <rect id="Rectángulo_455925" data-name="Rectángulo 455925" width="60" height="60" transform="translate(8605 -9827)" fill="#fff" stroke="#707070" stroke-width="1"/>
    </clipPath>
    <clipPath id="clip-path-3">
      <rect id="Rectángulo_455924" data-name="Rectángulo 455924" width="57.338" height="42.121" fill="#fff"/>
    </clipPath>
  </defs>
  <g id="Grupo_1204860" data-name="Grupo 1204860" transform="translate(-8594 9844.69)">
    <g id="Grupo_1204376" data-name="Grupo 1204376" transform="translate(7862.254 -18462.689)">
      <g id="Grupo_1203592" data-name="Grupo 1203592" transform="translate(731.746 8618)">
        <g id="Grupo_1203487" data-name="Grupo 1203487">
          <g id="Grupo_1203486" data-name="Grupo 1203486" clip-path="url(#clip-path)">
            <path id="Trazado_1256437" data-name="Trazado 1256437" d="M2.058,84.327a47.583,47.583,0,0,0,1.836,6.227L23,71.45a25.883,25.883,0,0,1,4.958-13.021Z" transform="translate(-0.911 -25.866)" fill="#feea89"/>
            <path id="Trazado_1256438" data-name="Trazado 1256438" d="M90.555,3.894a47.583,47.583,0,0,0-6.227-1.836l-25.9,25.9A25.886,25.886,0,0,1,71.451,23Z" transform="translate(-25.866 -0.911)" fill="#feea89"/>
            <path id="Trazado_1256439" data-name="Trazado 1256439" d="M117.575,12.855a48.029,48.029,0,0,0-5.022-3.041L95.523,26.843a25.831,25.831,0,0,1,6.031,2.032Z" transform="translate(-42.287 -4.345)" fill="#feea89"/>
            <path id="Trazado_1256440" data-name="Trazado 1256440" d="M9.814,112.552a47.933,47.933,0,0,0,3.041,5.022l16.021-16.021a25.831,25.831,0,0,1-2.032-6.031Z" transform="translate(-4.345 -42.287)" fill="#feea89"/>
            <path id="Trazado_1256441" data-name="Trazado 1256441" d="M4.273,34.929,34.929,4.273A48.116,48.116,0,0,0,4.273,34.929" transform="translate(-1.892 -1.892)" fill="#feea89"/>
            <path id="Trazado_1256442" data-name="Trazado 1256442" d="M48,0q-2.406,0-4.752.234L.234,43.248Q0,45.593,0,48q0,1.726.123,3.422l51.3-51.3C50.292.043,49.151,0,48,0" transform="translate(0 0)" fill="#feea89"/>
            <path id="Trazado_1256443" data-name="Trazado 1256443" d="M143.483,112.406l-31.076,31.076a48.112,48.112,0,0,0,31.076-31.076" transform="translate(-49.761 -49.761)" fill="#feea89"/>
            <path id="Trazado_1256444" data-name="Trazado 1256444" d="M131.113,79.625,79.625,131.113q1.795.134,3.624.135c1.524,0,3.03-.074,4.517-.213l43.27-43.27c.139-1.487.213-2.993.213-4.516q0-1.829-.135-3.624" transform="translate(-35.249 -35.249)" fill="#feea89"/>
            <path id="Trazado_1256445" data-name="Trazado 1256445" d="M119.266,41.241l15.585-15.585a48.285,48.285,0,0,0-4.038-4.025L115.222,37.222a26.166,26.166,0,0,1,4.044,4.019" transform="translate(-51.007 -9.575)" fill="#feea89"/>
            <path id="Trazado_1256446" data-name="Trazado 1256446" d="M37.222,115.222,21.63,130.814a48.369,48.369,0,0,0,4.025,4.038l15.585-15.585a26.166,26.166,0,0,1-4.019-4.044" transform="translate(-9.575 -51.007)" fill="#feea89"/>
            <path id="Trazado_1256447" data-name="Trazado 1256447" d="M74.932,129.121,55.9,148.149a47.687,47.687,0,0,0,6.207,1.857l25.333-25.333a25.88,25.88,0,0,1-12.512,4.448" transform="translate(-24.748 -55.191)" fill="#feea89"/>
            <path id="Trazado_1256448" data-name="Trazado 1256448" d="M150.006,62.11a47.591,47.591,0,0,0-1.857-6.206L129.121,74.931a25.87,25.87,0,0,1-4.448,12.512Z" transform="translate(-55.191 -24.748)" fill="#feea89"/>
            <path id="Trazado_1256449" data-name="Trazado 1256449" d="M147.17,41.946a48.074,48.074,0,0,0-3.054-5.009l-16,16a25.825,25.825,0,0,1,2.064,6Z" transform="translate(-56.713 -16.352)" fill="#feea89"/>
            <path id="Trazado_1256450" data-name="Trazado 1256450" d="M36.937,144.115a47.933,47.933,0,0,0,5.009,3.055l16.995-17a25.812,25.812,0,0,1-6-2.064Z" transform="translate(-16.352 -56.713)" fill="#feea89"/>
          </g>
        </g>
      </g>
      <g id="Grupo_154427" data-name="Grupo 154427" transform="translate(736.746 8623)">
        <path id="Elipse_5729" data-name="Elipse 5729" d="M43,0A43,43,0,1,1,0,43,43,43,0,0,1,43,0Z" transform="translate(0 0)" fill="#302c9e"/>
      </g>
    </g>
    <g id="Enmascarar_grupo_1119210" data-name="Enmascarar grupo 1119210" transform="translate(7)" clip-path="url(#clip-path-2)">
      <g id="Grupo_1204832" data-name="Grupo 1204832" transform="translate(8606 -9818)">
        <g id="Grupo_1204831" data-name="Grupo 1204831" transform="translate(0 0)" clip-path="url(#clip-path-3)">
          <path id="Trazado_1260372" data-name="Trazado 1260372" d="M44.532,40.038H10.792a1.225,1.225,0,0,1-1.214-1.214v-12.9a1.292,1.292,0,0,1,.992-1.214l10.587-2.426a1.2,1.2,0,0,1,1.323.551l2.757,4.851,1.984-1.213a1.406,1.406,0,0,1,1.323,0l1.875,1.213,3.97-4.961a1.263,1.263,0,0,1,1.323-.442l9.371,3.087a1.291,1.291,0,0,1,.883,1.214V38.714a1.44,1.44,0,0,1-1.434,1.323M12,37.5H43.319V27.578l-7.607-2.536-4.191,5.183a1.116,1.116,0,0,1-1.654.22l-2.1-1.434-2.426,1.544a1.07,1.07,0,0,1-.992.11,1.986,1.986,0,0,1-.772-.551l-2.866-5.183L12,26.916Z" transform="translate(0.897 2.083)" fill="#fff"/>
          <path id="Trazado_1260373" data-name="Trazado 1260373" d="M36.991,39.317H17.143A1.223,1.223,0,0,1,15.931,38.1V31.157a1.213,1.213,0,0,1,2.426,0v5.734h17.31V31.157a1.213,1.213,0,0,1,2.426,0V38.1a1.072,1.072,0,0,1-1.1,1.213" transform="translate(1.492 2.804)" fill="#fff"/>
          <path id="Trazado_1260374" data-name="Trazado 1260374" d="M27.107,21.967c-2.757,0-5.292-1.764-7.056-5.072a19.322,19.322,0,0,1-2.206-8.27,11.966,11.966,0,0,1,.11-1.985,1.233,1.233,0,0,1,2.427.442,6.231,6.231,0,0,0-.112,1.543,16.074,16.074,0,0,0,1.876,7.057c.992,1.764,2.535,3.859,4.85,3.859a5.413,5.413,0,0,0,3.861-2.1,13.309,13.309,0,0,0,2.756-9.262,1.233,1.233,0,1,1,2.426-.441A15.539,15.539,0,0,1,32.732,19.1a7.269,7.269,0,0,1-5.625,2.868" transform="translate(1.671 0.527)" fill="#fff"/>
          <path id="Trazado_1260375" data-name="Trazado 1260375" d="M35.2,9.7a.826.826,0,0,1-.55-.109L32,8.27a3.372,3.372,0,0,1-2.1.662H20.753a4.271,4.271,0,0,1-4.52-4.19V1.213A1.224,1.224,0,0,1,17.446,0H29.574a3.163,3.163,0,0,1,2.647,1.875l.11.11V2.1L35.749,4.19a1.356,1.356,0,0,1,.551,1.1V8.381a1.356,1.356,0,0,1-.551,1.1.838.838,0,0,1-.551.22M18.769,2.536V4.742A1.778,1.778,0,0,0,20.753,6.4h9.153c.551,0,.662-.221.662-.33a1.243,1.243,0,0,1,1.654-.442l1.544.772V5.954L30.678,4.08a1.617,1.617,0,0,1-.551-.662v-.11l-.112-.11a3.377,3.377,0,0,0-.441-.662Z" transform="translate(1.52 0)" fill="#fff"/>
          <path id="Trazado_1260376" data-name="Trazado 1260376" d="M23.892,30.853H23.56a1.986,1.986,0,0,1-.772-.551L19.37,24.347a1.357,1.357,0,0,1,.22-1.543L21.8,20.6a1.11,1.11,0,0,1,.992-.331,1.124,1.124,0,0,1,.883.551L27.86,27.1a1.635,1.635,0,0,1,.221.992c-.11.331-.221.662-.551.772l-3.087,1.875a.826.826,0,0,1-.551.11m-1.875-6.947,2.315,3.969.771-.441-2.646-3.969Z" transform="translate(1.8 1.895)" fill="#fff"/>
          <path id="Trazado_1260377" data-name="Trazado 1260377" d="M29.075,30.85a1.558,1.558,0,0,1-.662-.22l-2.756-1.764a1.519,1.519,0,0,1-.552-.883,1.635,1.635,0,0,1,.221-.992l5.182-6.285a1.362,1.362,0,0,1,.883-.441,1.785,1.785,0,0,1,.993.33L34.7,22.913a1.329,1.329,0,0,1,.112,1.654L30.067,30.41a1.072,1.072,0,0,1-.992.441m-.883-3.307.662.441L32.162,23.9l-.551-.551Z" transform="translate(2.351 1.898)" fill="#fff"/>
          <path id="Trazado_1260378" data-name="Trazado 1260378" d="M26.881,17.122a4.457,4.457,0,0,1-3.087-1.1l1.654-1.875a2.588,2.588,0,0,0,3.2-.11,1.269,1.269,0,1,1,1.434,2.094,5.639,5.639,0,0,1-3.2.993" transform="translate(2.228 1.292)" fill="#fff"/>
          <path id="Trazado_1260379" data-name="Trazado 1260379" d="M18.635,22.385H1.214A1.224,1.224,0,0,1,0,21.172V14.666a1.291,1.291,0,0,1,.883-1.213L6.727,11.8a1.359,1.359,0,0,1,1.1.22l2.2,1.655L12.24,12.02a1.359,1.359,0,0,1,1.1-.22l5.843,1.654a1.2,1.2,0,0,1,.883,1.213v6.506a1.633,1.633,0,0,1-1.434,1.213M2.427,19.849h15v-4.3l-4.3-1.213L10.7,16.1a1.329,1.329,0,0,1-1.545,0L6.727,14.336l-4.3,1.213Z" transform="translate(0 1.101)" fill="#fff"/>
          <path id="Trazado_1260380" data-name="Trazado 1260380" d="M14.815,21.994H4.34a1.25,1.25,0,0,1-.883-.331,1.249,1.249,0,0,1-.331-.881V17.253a1.213,1.213,0,0,1,2.426,0v2.2H13.6V17.143a1.212,1.212,0,1,1,2.425,0v3.528a1.256,1.256,0,0,1-.33.883,1.006,1.006,0,0,1-.881.441" transform="translate(0.293 1.492)" fill="#fff"/>
          <path id="Trazado_1260381" data-name="Trazado 1260381" d="M9.647,12.841A5.513,5.513,0,1,1,15.16,7.328a5.529,5.529,0,0,1-5.513,5.513m0-8.49a2.977,2.977,0,1,0,2.978,2.977A2.965,2.965,0,0,0,9.647,4.351" transform="translate(0.387 0.17)" fill="#fff"/>
          <path id="Trazado_1260382" data-name="Trazado 1260382" d="M52.713,22.385H35.292a1.224,1.224,0,0,1-1.214-1.213V14.666a1.291,1.291,0,0,1,.883-1.213L40.805,11.8a1.356,1.356,0,0,1,1.1.22l2.206,1.544,2.206-1.544a1.281,1.281,0,0,1,1.1-.22l5.844,1.654a1.2,1.2,0,0,1,.883,1.213v6.506a1.435,1.435,0,0,1-1.434,1.213M36.5,19.849h15v-4.3l-4.3-1.213L44.774,16.1a1.161,1.161,0,0,1-1.434,0l-2.426-1.764-4.3,1.213Z" transform="translate(3.191 1.101)" fill="#fff"/>
          <path id="Trazado_1260383" data-name="Trazado 1260383" d="M48.992,21.994H38.517a1.137,1.137,0,0,1-1.212-1.213V17.253a1.212,1.212,0,1,1,2.425,0v2.2h7.939V17.143a1.213,1.213,0,0,1,2.427,0v3.528a1.252,1.252,0,0,1-.331.883,1.116,1.116,0,0,1-.772.441" transform="translate(3.494 1.492)" fill="#fff"/>
          <path id="Trazado_1260384" data-name="Trazado 1260384" d="M43.826,12.841a5.513,5.513,0,1,1,0-11.026,5.459,5.459,0,0,1,5.512,5.513,5.678,5.678,0,0,1-5.512,5.513m0-8.49A2.977,2.977,0,1,0,46.8,7.328a2.964,2.964,0,0,0-2.977-2.977" transform="translate(3.588 0.17)" fill="#fff"/>
        </g>
      </g>
    </g>
  </g>
</svg>
