<svg xmlns="http://www.w3.org/2000/svg" xmlns:xlink="http://www.w3.org/1999/xlink" width="96" height="96" viewBox="0 0 96 96">
  <defs>
    <clipPath id="clip-path">
      <rect id="Rectángulo_454682" data-name="Rectángulo 454682" width="96" height="96" fill="#feea89"/>
    </clipPath>
    <clipPath id="clip-path-2">
      <rect id="Rectángulo_455930" data-name="Rectángulo 455930" width="60" height="60" transform="translate(8605 -9827)" fill="#fff" stroke="#707070" stroke-width="1"/>
    </clipPath>
    <clipPath id="clip-path-3">
      <rect id="Rectángulo_455931" data-name="Rectángulo 455931" width="51.5" height="52.1" fill="#fff"/>
    </clipPath>
  </defs>
  <g id="Grupo_1204862" data-name="Grupo 1204862" transform="translate(-8131 9844.999)">
    <g id="Grupo_1204374" data-name="Grupo 1204374" transform="translate(7399.254 -18463)">
      <g id="Grupo_1203592" data-name="Grupo 1203592" transform="translate(731.746 8618)">
        <g id="Grupo_1203487" data-name="Grupo 1203487">
          <g id="Grupo_1203486" data-name="Grupo 1203486" clip-path="url(#clip-path)">
            <path id="Trazado_1256437" data-name="Trazado 1256437" d="M2.058,84.327a47.583,47.583,0,0,0,1.836,6.227L23,71.45a25.883,25.883,0,0,1,4.958-13.021Z" transform="translate(-0.911 -25.866)" fill="#feea89"/>
            <path id="Trazado_1256438" data-name="Trazado 1256438" d="M90.555,3.894a47.583,47.583,0,0,0-6.227-1.836l-25.9,25.9A25.886,25.886,0,0,1,71.451,23Z" transform="translate(-25.866 -0.911)" fill="#feea89"/>
            <path id="Trazado_1256439" data-name="Trazado 1256439" d="M117.575,12.855a48.029,48.029,0,0,0-5.022-3.041L95.523,26.843a25.831,25.831,0,0,1,6.031,2.032Z" transform="translate(-42.287 -4.345)" fill="#feea89"/>
            <path id="Trazado_1256440" data-name="Trazado 1256440" d="M9.814,112.552a47.933,47.933,0,0,0,3.041,5.022l16.021-16.021a25.831,25.831,0,0,1-2.032-6.031Z" transform="translate(-4.345 -42.287)" fill="#feea89"/>
            <path id="Trazado_1256441" data-name="Trazado 1256441" d="M4.273,34.929,34.929,4.273A48.116,48.116,0,0,0,4.273,34.929" transform="translate(-1.892 -1.892)" fill="#feea89"/>
            <path id="Trazado_1256442" data-name="Trazado 1256442" d="M48,0q-2.406,0-4.752.234L.234,43.248Q0,45.593,0,48q0,1.726.123,3.422l51.3-51.3C50.292.043,49.151,0,48,0" transform="translate(0 0)" fill="#feea89"/>
            <path id="Trazado_1256443" data-name="Trazado 1256443" d="M143.483,112.406l-31.076,31.076a48.112,48.112,0,0,0,31.076-31.076" transform="translate(-49.761 -49.761)" fill="#feea89"/>
            <path id="Trazado_1256444" data-name="Trazado 1256444" d="M131.113,79.625,79.625,131.113q1.795.134,3.624.135c1.524,0,3.03-.074,4.517-.213l43.27-43.27c.139-1.487.213-2.993.213-4.516q0-1.829-.135-3.624" transform="translate(-35.249 -35.249)" fill="#feea89"/>
            <path id="Trazado_1256445" data-name="Trazado 1256445" d="M119.266,41.241l15.585-15.585a48.285,48.285,0,0,0-4.038-4.025L115.222,37.222a26.166,26.166,0,0,1,4.044,4.019" transform="translate(-51.007 -9.575)" fill="#feea89"/>
            <path id="Trazado_1256446" data-name="Trazado 1256446" d="M37.222,115.222,21.63,130.814a48.369,48.369,0,0,0,4.025,4.038l15.585-15.585a26.166,26.166,0,0,1-4.019-4.044" transform="translate(-9.575 -51.007)" fill="#feea89"/>
            <path id="Trazado_1256447" data-name="Trazado 1256447" d="M74.932,129.121,55.9,148.149a47.687,47.687,0,0,0,6.207,1.857l25.333-25.333a25.88,25.88,0,0,1-12.512,4.448" transform="translate(-24.748 -55.191)" fill="#feea89"/>
            <path id="Trazado_1256448" data-name="Trazado 1256448" d="M150.006,62.11a47.591,47.591,0,0,0-1.857-6.206L129.121,74.931a25.87,25.87,0,0,1-4.448,12.512Z" transform="translate(-55.191 -24.748)" fill="#feea89"/>
            <path id="Trazado_1256449" data-name="Trazado 1256449" d="M147.17,41.946a48.074,48.074,0,0,0-3.054-5.009l-16,16a25.825,25.825,0,0,1,2.064,6Z" transform="translate(-56.713 -16.352)" fill="#feea89"/>
            <path id="Trazado_1256450" data-name="Trazado 1256450" d="M36.937,144.115a47.933,47.933,0,0,0,5.009,3.055l16.995-17a25.812,25.812,0,0,1-6-2.064Z" transform="translate(-16.352 -56.713)" fill="#feea89"/>
          </g>
        </g>
      </g>
      <g id="Grupo_154427" data-name="Grupo 154427" transform="translate(736.746 8623)">
        <path id="Elipse_5729" data-name="Elipse 5729" d="M43,0A43,43,0,1,1,0,43,43,43,0,0,1,43,0Z" transform="translate(0 0)" fill="#302c9e"/>
      </g>
    </g>
    <g id="Enmascarar_grupo_1119212" data-name="Enmascarar grupo 1119212" transform="translate(-456)" clip-path="url(#clip-path-2)">
      <g id="Grupo_1204836" data-name="Grupo 1204836" transform="translate(8608 -9823)">
        <g id="Grupo_1204835" data-name="Grupo 1204835" transform="translate(0 0)" clip-path="url(#clip-path-3)">
          <path id="Trazado_1260402" data-name="Trazado 1260402" d="M53.775,40.112a4.883,4.883,0,0,0-4.365-4.833V28.807a1.118,1.118,0,0,0-1.4-1.035l-20.6,6.386H22.089a1.148,1.148,0,0,0-1.135,1.121V36.4h-.524a3.8,3.8,0,1,0,0,7.594h.524v1.122a1.149,1.149,0,0,0,1.135,1.122h.349l4.1,9.06a.944.944,0,0,0,.96.6h4.365a1.086,1.086,0,0,0,.96-1.553l-3.317-7.68c19.552,6.04,18.418,5.781,18.767,5.781a1.15,1.15,0,0,0,1.135-1.122V44.858a4.738,4.738,0,0,0,4.365-4.746m-30.552-3.8h3.317v7.593H23.224Zm-2.793,5.435a1.647,1.647,0,0,1-1.658-1.639,1.6,1.6,0,0,1,1.658-1.639h.524v3.278Zm7.857,11.822-3.4-7.593H26.89l3.4,7.593Zm18.941-3.625-3.317-1.035V35.279a1.148,1.148,0,0,0-1.135-1.121,1.075,1.075,0,0,0-1.048,1.121V48.309L28.636,44.254V36.142L47.229,30.36ZM49.411,42.7V37.436a2.782,2.782,0,0,1,2.182,2.676A2.687,2.687,0,0,1,49.411,42.7" transform="translate(-2.275 -3.803)" fill="#fff"/>
          <path id="Trazado_1260403" data-name="Trazado 1260403" d="M35.081,38.978H32.9a1.122,1.122,0,1,0,0,2.244h2.182a1.122,1.122,0,1,0,0-2.244" transform="translate(-4.355 -5.344)" fill="#fff"/>
          <path id="Trazado_1260404" data-name="Trazado 1260404" d="M35.081,42.678H32.9a1.122,1.122,0,1,0,0,2.244h2.182a1.122,1.122,0,1,0,0-2.244" transform="translate(-4.355 -5.852)" fill="#fff"/>
          <path id="Trazado_1260405" data-name="Trazado 1260405" d="M4.539,17.412v6.472a1.116,1.116,0,0,0,1.4,1.035l18.418-5.781-3.4,7.507a1.086,1.086,0,0,0,.96,1.553h4.365a1.074,1.074,0,0,0,.96-.6l4.1-9.06h.349a1.148,1.148,0,0,0,1.134-1.122V16.29h.524a3.8,3.8,0,1,0,0-7.593H32.82V7.575a1.149,1.149,0,0,0-1.134-1.122H26.361L5.761.068A1.04,1.04,0,0,0,4.365,1.1V7.575A4.882,4.882,0,0,0,0,12.407a5.209,5.209,0,0,0,4.539,5M25.662,26.04H23.655l3.4-7.593h2.008Zm7.769-15.1a1.649,1.649,0,0,1,1.659,1.64,1.6,1.6,0,0,1-1.659,1.639h-.523V10.94Zm-2.705,5.436H27.409V8.783h3.317Zm-24-13.634L25.314,8.524v8.111L12.22,20.691V7.747a1.135,1.135,0,0,0-2.269,0v13.72L6.634,22.5c.087-5.092.087-16.568.087-19.761M4.539,9.9v5.265a2.783,2.783,0,0,1-2.182-2.676A2.686,2.686,0,0,1,4.539,9.9" transform="translate(0 0)" fill="#fff"/>
          <path id="Trazado_1260406" data-name="Trazado 1260406" d="M24.1,13.622H26.28a1.122,1.122,0,1,0,0-2.244H24.1a1.122,1.122,0,1,0,0,2.244" transform="translate(-3.148 -1.56)" fill="#fff"/>
          <path id="Trazado_1260407" data-name="Trazado 1260407" d="M24.1,17.322H26.28a1.122,1.122,0,1,0,0-2.244H24.1a1.122,1.122,0,1,0,0,2.244" transform="translate(-3.148 -2.067)" fill="#fff"/>
          <path id="Trazado_1260408" data-name="Trazado 1260408" d="M4.733,47.678a3.3,3.3,0,0,0-3.317,3.279A3.225,3.225,0,0,0,4.733,54.15,3.3,3.3,0,0,0,8.05,50.871a3.224,3.224,0,0,0-3.317-3.193m0,4.314a1.122,1.122,0,1,1,1.135-1.122,1.149,1.149,0,0,1-1.135,1.122" transform="translate(-0.194 -6.537)" fill="#fff"/>
          <path id="Trazado_1260409" data-name="Trazado 1260409" d="M10.5,31.478A2.675,2.675,0,1,0,13.2,34.153,2.7,2.7,0,0,0,10.5,31.478m0,3.193a.518.518,0,1,1,.524-.518.5.5,0,0,1-.524.518" transform="translate(-1.068 -4.316)" fill="#fff"/>
          <path id="Trazado_1260410" data-name="Trazado 1260410" d="M50.779,16.471a3.8,3.8,0,1,0-3.841-3.8,3.853,3.853,0,0,0,3.841,3.8m0-5.35a1.648,1.648,0,0,1,1.658,1.639,1.528,1.528,0,0,1-1.658,1.553,1.6,1.6,0,0,1-1.658-1.639,1.576,1.576,0,0,1,1.658-1.553" transform="translate(-6.436 -1.217)" fill="#fff"/>
        </g>
      </g>
    </g>
  </g>
</svg>
