<svg xmlns="http://www.w3.org/2000/svg" xmlns:xlink="http://www.w3.org/1999/xlink" width="169" height="111" viewBox="0 0 169 111">
  <defs>
    <clipPath id="clip-path">
      <rect id="Rect치ngulo_455976" data-name="Rect치ngulo 455976" width="96.001" height="95.973" fill="none"/>
    </clipPath>
  </defs>
  <g id="Grupo_1204409" data-name="Grupo 1204409" transform="translate(-1121.422 -1019)">
    <rect id="Rect치ngulo_455283" data-name="Rect치ngulo 455283" width="169" height="111" rx="19" transform="translate(1121.422 1019)" fill="#cad6fe"/>
    <g id="Grupo_1204856" data-name="Grupo 1204856" transform="translate(1160.921 1024.687)">
      <g id="Grupo_1204855" data-name="Grupo 1204855" clip-path="url(#clip-path)">
        <path id="Trazado_1260508" data-name="Trazado 1260508" d="M142.28,153.224c-1.579,1.546.691,3.434-.055,5.3a20.967,20.967,0,0,1-3.329,3.54c-1.929,1.212-3.229-.411-4.947-.012-1.744.405-1.362,2.627-2.933,3.4-.993.485-3.961.476-5.092.273-2.347-.421-1.957-2.758-3.138-3.453-1.578-.929-3.144.694-5.047.1a22.723,22.723,0,0,1-3.557-3.308c-1.338-2.033.477-2.963.227-4.6-.311-2.038-3.11-1.646-3.674-3.491a19.214,19.214,0,0,1-.057-5.031c.4-2.208,2.515-1.693,3.352-2.965,1.125-1.709-.694-2.925-.279-4.657.228-.953,3.287-4.084,4.209-4.329,1.6-.424,2.867.852,3.919.637,1.992-.407,1.64-3.254,3.49-3.666a25.825,25.825,0,0,1,5.377,0c1.609.359,1.507,2.348,2.568,3.2,1.58,1.268,2.947-.673,4.84-.17.854.227,3.654,3.07,4.024,3.946.825,1.954-1,2.891-.268,4.662.574,1.382,2.3,1.252,3.052,2.168.736.9.759,5.334.332,6.394-.554,1.373-2.336,1.406-3.013,2.069m-6.669-15.735a5.87,5.87,0,0,1-4.943-1.788c-.381-.5-.68-1.808-1.284-2.013a9.033,9.033,0,0,0-2.655,0c-.587.2-.968,1.627-1.407,2.164a5.491,5.491,0,0,1-4.619,1.571c-.885-.138-1.252-.827-2.274-.227a13.882,13.882,0,0,0-1.709,1.835c-.138.7.763,1.914.773,2.708a6.718,6.718,0,0,1-1.952,3.837c-.428.328-2.074.921-2.137,1.021a15.939,15.939,0,0,0,0,3.209,13.946,13.946,0,0,1,2.578,1.4,6.888,6.888,0,0,1,1.444,3.923c-.113.824-1.008,1.805-.52,2.551,2.018,3.082,3.08.954,5.313,1.29a5.587,5.587,0,0,1,3.5,2.139c.169.28.383,1.47.595,1.6a22.466,22.466,0,0,0,3.342.057c.242-.059.827-1.759,1.162-2.193a6.38,6.38,0,0,1,3.565-1.677c1.125-.035,2.1.909,3.143.424a13.742,13.742,0,0,0,1.875-1.959c.1-.522-.79-1.885-.782-2.715A7.849,7.849,0,0,1,140.3,151.1c.47-.41,2.376-1.132,2.461-1.446a18.735,18.735,0,0,0-.049-3.058,13.946,13.946,0,0,1-2.578-1.4,10.745,10.745,0,0,1-1.45-2.969c-.191-1.162,1.038-2.479.648-3.352a13.751,13.751,0,0,0-1.993-1.893c-.887-.239-1.335.439-1.726.509" transform="translate(-80.173 -94.877)" fill="#060707"/>
        <path id="Trazado_1260509" data-name="Trazado 1260509" d="M256.176,200.576c6.218.4,13.638-.759,19.715-.065a3.678,3.678,0,0,1,3.434,3.434c-.41,6.121.545,12.932.011,18.967-.178,2.011-1.065,3.368-3.164,3.7-6.278-.456-13.345.585-19.525.007a3.691,3.691,0,0,1-3.421-3.447c-.681-5.955.508-13.141,0-19.231a4.018,4.018,0,0,1,2.949-3.369m.54,2.738a1.124,1.124,0,0,0-.755,1.168c.572,5.653-.718,12.675,0,18.157.146,1.114.483,1.14,1.508,1.24,5.637.548,12.15-.452,17.885,0,1.114-.146,1.14-.483,1.24-1.508.548-5.637-.452-12.15,0-17.885a1.313,1.313,0,0,0-.261-.838c-.682-.874-17.273-.174-19.614-.33" transform="translate(-183.502 -145.262)" fill="#020303"/>
        <path id="Trazado_1260510" data-name="Trazado 1260510" d="M134.691.111c20.285-2.173,21.882,28.161,2.384,29.038-18.193.818-20.456-27.1-2.384-29.038m.545,2.744c-15.013,1.722-13.217,25.177,3.191,23.244,14.339-1.688,12.09-25-3.191-23.244" transform="translate(-88.65 0)" fill="#040606"/>
        <path id="Trazado_1260511" data-name="Trazado 1260511" d="M37.348,108.436c-1.469-1.181-.079-5.633.4-7.272a39.381,39.381,0,0,1,2.3-5.938c.466-.953,3.5-5.468,3.472-5.805-.047-.636-5.136-3.739-.551-5.558,1.508-.6,11.952-2.886,13.392-2.842,1.674.051,2.4,1.005,2.341,2.621a95.423,95.423,0,0,1-1.732,12.574c-.319,1.41-.842,2.5-2.527,2.431C53,98.584,52.43,97.086,51.932,97c-1.14-.206-3.447,6-3.809,7.125-.409,1.274-.716,4.766-1.852,5.291-1.025.474-8.13-.338-8.924-.977M55.675,84.067l-10.987,2.2c4.05,3.321.974,4.816-.871,8.055-1.963,3.445-3.784,7.727-4.036,11.686a16.51,16.51,0,0,0,4.894.573,23.957,23.957,0,0,1,1.888-6.49c.6-1.383,2.823-5.868,4.153-6.284,2.112-.661,2.037.66,3.585,1.248Z" transform="translate(-26.612 -58.761)" fill="#050605"/>
        <path id="Trazado_1260512" data-name="Trazado 1260512" d="M129.392,282.509h4.258a35.358,35.358,0,0,0,4.591-1.178c1.61-.462,3.4-1.956,4.957-.751a36.2,36.2,0,0,1,3.512,7.566c-.013,2.1-4.375,3.283-6.113,3.783a45.558,45.558,0,0,1-13.4,1.572c.162,2.47-1.206,5.5-3.986,3.569-3.041-2.115-5.916-6.769-9.194-8.925-1.176-1.424-1.6-2.5-.109-3.951l12.9-6.074c2.924-.135,2.709,2.144,2.585,4.389m-3.023-.823-9.89,4.537,7.56,7.822c.6.08.336-.062.4-.414.213-1.179.144-2.576,1.643-3.032,1.59-.484,4.892.008,6.757-.112,3.625-.232,7.117-1.424,10.549-2.5.361-.413-1.653-4.508-2.087-4.634a40.843,40.843,0,0,1-9.3,2.173c-3.322.227-6.346.518-5.63-3.841" transform="translate(-81.92 -201.71)" fill="#050605"/>
        <path id="Trazado_1260513" data-name="Trazado 1260513" d="M25.769,213.474c1.741-.607,4.369,4.244,4.607,5.419a3.788,3.788,0,0,1-3.635,4.757c-7.391.7-15.855-.541-23.362-.01C0,223.012-.687,220.529.62,217.583c2.917-6.573,8.42-13.365,11.593-19.971a3.858,3.858,0,0,1,5.868-.138c2.371,2.64,4.1,8.131,6.467,11.042.419,1.319-.355,1.437-.428,1.935-1.112.483-1.505.182-2.2-.689l-5.9-10.3a1.306,1.306,0,0,0-1.334-.235c-1.084.367-9.836,17.639-11.591,19.732-.694.957-.413,1.868.821,1.947l23.044-.057c1.99-.684-1.466-4.2-1.689-5.382-.208-1.1.587-1.577.5-1.991" transform="translate(0 -142.29)" fill="#030505"/>
        <path id="Trazado_1260514" data-name="Trazado 1260514" d="M243.6,90.134c1.6-1.222,2.2,1.47,2.92,1.612s2.338-1.761,4.2-.625c1.2.731.933,2.223.777,3.476a87.337,87.337,0,0,1-2.533,11.2c-.582,1.87-1.382,3.025-3.551,2.162-3.038-2.593-8.761-4.783-11.492-7.384A2.423,2.423,0,0,1,233.7,97.2c.3-.586,2.623-.841,2.471-1.421-.358-1.36-4.023-5.263-5.2-6.339-1.89-1.726-4.833-2.389-3.305-5.5a57.879,57.879,0,0,1,3.4-5.256c1.917-1.841,4.494.576,6.078,1.838.69.549,4.6,4.292,4.771,4.861.218.74-.214,1.1-.229,1.449-1.758,1.654-3.321-1.416-4.666-2.614a40.932,40.932,0,0,0-3.992-3.141,22.886,22.886,0,0,0-2.5,3.83c-.205.826,2.249,2.241,2.917,2.882,1.539,1.476,5.789,6.333,5.983,8.311a2.38,2.38,0,0,1-.277,1.248c-.055.824-2.413,1.125-2.137,1.706.222.466,7.666,5.144,8.647,5.645.266.136.209.449.559-.005l2.329-10.443c-.327-.323-2.48,1.346-3.99.007a13.459,13.459,0,0,1-1.457-2.406c-.235-1.131.48-1.4.5-1.723" transform="translate(-164.809 -56.588)" fill="#050605"/>
        <path id="Trazado_1260515" data-name="Trazado 1260515" d="M31.31,218.259c-.107.731,1.524,2.44,1.648,3.022.088.414-.706.89-.5,1.991.223,1.182,3.679,4.7,1.689,5.382l-23.044.057c-1.233-.078-1.515-.99-.82-1.947,1.755-2.093,10.507-19.365,11.591-19.732a1.306,1.306,0,0,1,1.334.235l5.9,10.3c.691.871,1.084,1.172,2.2.689m-3.383,6.78a2.628,2.628,0,0,0,.506-2.669,61.083,61.083,0,0,0-3.6-6.287c-1.78-2.637-3.35-2.324-5.007.169a55.522,55.522,0,0,0-3.413,5.925c-.446,1.333-.261,2.834,1.23,3.282,1.371.412,7,.4,8.592.225a3.572,3.572,0,0,0,1.693-.645" transform="translate(-7.189 -150.098)" fill="#5dd2e4"/>
        <path id="Trazado_1260516" data-name="Trazado 1260516" d="M250.318,94.919c-.043,1,1.971,2.627,1.923,3.3-.023.318-.738.592-.5,1.723a13.459,13.459,0,0,0,1.457,2.406c1.51,1.339,3.663-.329,3.99-.007l-2.329,10.443c-.351.454-.293.142-.559.005-.981-.5-8.425-5.179-8.647-5.645-.277-.582,2.082-.882,2.137-1.706a2.38,2.38,0,0,0,.277-1.247c-.194-1.978-4.443-6.834-5.983-8.311-.668-.641-3.122-2.056-2.917-2.882a22.885,22.885,0,0,1,2.5-3.83,40.936,40.936,0,0,1,3.992,3.141c1.345,1.2,2.908,4.268,4.666,2.614" transform="translate(-173.452 -64.669)" fill="#ebcc30"/>
        <path id="Trazado_1260517" data-name="Trazado 1260517" d="M142.956,144.819c.793.041,1.176,1.048,1.515,1.644a14.707,14.707,0,0,1,1.424,11.049c-1.443,5.94-6.875,10.175-12.83,10.934a5.587,5.587,0,0,0-3.5-2.139c-2.233-.337-3.3,1.792-5.313-1.29-.488-.746.407-1.727.52-2.551a6.888,6.888,0,0,0-1.443-3.923,13.979,13.979,0,0,0-2.578-1.4,15.916,15.916,0,0,1,0-3.209c.063-.1,1.709-.693,2.137-1.021a6.719,6.719,0,0,0,1.952-3.837c-.01-.794-.912-2-.773-2.708a13.844,13.844,0,0,1,1.709-1.835c1.022-.6,1.39.089,2.274.227a5.49,5.49,0,0,0,4.619-1.571c.439-.537.821-1.966,1.407-2.164a9.016,9.016,0,0,1,2.655,0c.6.2.9,1.515,1.284,2.012a5.87,5.87,0,0,0,4.943,1.788m-9.138,3.637a7.937,7.937,0,0,0-5.011,4.055c-3.018,6.858,4.953,13.283,10.828,8.9a7.257,7.257,0,0,0-5.817-12.96" transform="translate(-87.518 -102.206)" fill="#effeff"/>
        <path id="Trazado_1260518" data-name="Trazado 1260518" d="M175.689,153.634c.391-.069.839-.748,1.726-.509a13.752,13.752,0,0,1,1.993,1.893c.39.873-.839,2.19-.648,3.352a10.746,10.746,0,0,0,1.45,2.969,13.947,13.947,0,0,0,2.578,1.4,18.738,18.738,0,0,1,.049,3.058c-.085.314-1.991,1.036-2.461,1.446A7.849,7.849,0,0,0,178.7,170.8c-.009.83.884,2.193.782,2.715a13.74,13.74,0,0,1-1.875,1.959c-1.048.484-2.018-.459-3.143-.424a6.38,6.38,0,0,0-3.565,1.677c-.335.434-.92,2.134-1.162,2.193a22.468,22.468,0,0,1-3.342-.057c-.212-.132-.426-1.323-.595-1.6,5.955-.758,11.387-4.993,12.83-10.933a14.707,14.707,0,0,0-1.424-11.049c-.34-.6-.722-1.6-1.516-1.644" transform="translate(-120.25 -111.022)" fill="#c1fbff"/>
        <path id="Trazado_1260519" data-name="Trazado 1260519" d="M263.917,211c2.341.156,18.932-.544,19.614.33a1.313,1.313,0,0,1,.261.838c-.448,5.735.551,12.248,0,17.885-.1,1.024-.125,1.362-1.24,1.508-5.735-.448-12.248.551-17.885,0-1.024-.1-1.362-.125-1.508-1.24-.718-5.482.572-12.5,0-18.157a1.124,1.124,0,0,1,.755-1.168m16.214,3.593a3.838,3.838,0,0,0-1.7-.634,67.251,67.251,0,0,0-9.635-.007c-1.625.147-2.416.659-2.6,2.344-.194,1.745-.243,9.124.138,10.59a2.008,2.008,0,0,0,1.925,1.646,70.487,70.487,0,0,0,10.183.008c1.109-.1,1.787-.292,2.14-1.432.411-1.329.377-9.132.19-10.812a3.838,3.838,0,0,0-.634-1.7" transform="translate(-190.703 -152.947)" fill="#5dd2e4"/>
        <path id="Trazado_1260520" data-name="Trazado 1260520" d="M142.486,10.144c15.281-1.753,17.53,21.556,3.191,23.244-16.407,1.932-18.2-21.522-3.191-23.244m-2.961,5.967c-1.237-.11-2.207,2.9-2.472,3.022-.545.246-1.383-.271-1.8,1.086-1.258,4.107,2.6,9.425,6.672,10.113,10.886,1.839,14.669-13.089,4.818-16.631-2.366-.851-7.657-1.163-7.218,2.41" transform="translate(-95.9 -7.289)" fill="#5dd2e4"/>
        <path id="Trazado_1260521" data-name="Trazado 1260521" d="M63.831,92.115,62.457,103.1c-1.549-.588-1.473-1.908-3.585-1.248-1.33.416-3.555,4.9-4.153,6.284a23.957,23.957,0,0,0-1.888,6.49,16.51,16.51,0,0,1-4.894-.573c.252-3.959,2.073-8.241,4.036-11.686,1.846-3.238,4.922-4.734.871-8.055Z" transform="translate(-34.767 -66.809)" fill="#ebcc30"/>
        <path id="Trazado_1260522" data-name="Trazado 1260522" d="M135.685,291.115c-.716,4.36,2.308,4.068,5.63,3.841a40.841,40.841,0,0,0,9.3-2.173c.434.126,2.447,4.22,2.087,4.634-3.432,1.076-6.924,2.268-10.549,2.5-1.865.12-5.167-.372-6.757.112-1.5.456-1.43,1.853-1.643,3.032-.063.352.2.493-.4.414l-7.56-7.822Z" transform="translate(-91.236 -211.139)" fill="#ebcc30"/>
        <path id="Trazado_1260523" data-name="Trazado 1260523" d="M44.522,244.279a3.569,3.569,0,0,1-1.693.645c-1.595.179-7.221.187-8.592-.225-1.491-.447-1.676-1.948-1.23-3.282a55.462,55.462,0,0,1,3.413-5.925c1.657-2.494,3.227-2.806,5.007-.169a61.086,61.086,0,0,1,3.6,6.287,2.628,2.628,0,0,1-.506,2.669m-2.661-2.11a19.48,19.48,0,0,0-2.885-5.214c-1.026,1.608-2.489,3.367-2.885,5.214Z" transform="translate(-23.785 -169.337)" fill="#030606"/>
        <path id="Trazado_1260524" data-name="Trazado 1260524" d="M153.564,168.014a7.257,7.257,0,0,1,5.817,12.96c-5.875,4.379-13.846-2.046-10.828-8.9a7.937,7.937,0,0,1,5.011-4.055m4.921,4.151c-4.059-4.414-10.648,1.838-6.495,6.083,4.025,4.114,10.25-2,6.495-6.083" transform="translate(-107.263 -121.765)" fill="#060707"/>
        <path id="Trazado_1260525" data-name="Trazado 1260525" d="M288.323,222.252a3.838,3.838,0,0,1,.634,1.7c.187,1.681.221,9.483-.19,10.813-.353,1.14-1.03,1.333-2.14,1.432a70.491,70.491,0,0,1-10.183-.008,2.008,2.008,0,0,1-1.925-1.646c-.38-1.466-.332-8.845-.138-10.59.187-1.685.978-2.2,2.6-2.344a67.259,67.259,0,0,1,9.635.007,3.838,3.838,0,0,1,1.7.634M286.2,233.438v-8.654a2.756,2.756,0,0,0-.412-.412h-8.242a2.755,2.755,0,0,0-.412.412v8.242a2.756,2.756,0,0,0,.412.412Z" transform="translate(-198.896 -160.607)" fill="#020707"/>
        <path id="Trazado_1260526" data-name="Trazado 1260526" d="M144.411,27.308c1.335.6.684,2.219.848,3.411a5.916,5.916,0,1,0,6.353-6.649c-1.439-.142-2.532.751-3.5.74-.51-.005-.931-.5-1.23-.524-.439-3.573,4.852-3.261,7.218-2.41,9.852,3.541,6.068,18.47-4.818,16.631-4.072-.688-7.93-6.005-6.672-10.113.415-1.357,1.254-.84,1.8-1.086" transform="translate(-103.258 -15.464)" fill="#030606"/>
      </g>
    </g>
  </g>
</svg>
