<svg xmlns="http://www.w3.org/2000/svg" xmlns:xlink="http://www.w3.org/1999/xlink" width="188" height="127.05" viewBox="0 0 188 127.05">
  <defs>
    <clipPath id="clip-path">
      <rect id="Rectángulo_455923" data-name="Rectángulo 455923" width="100.231" height="100.107" fill="none"/>
    </clipPath>
  </defs>
  <g id="Grupo_1204968" data-name="Grupo 1204968" transform="translate(-289.711 -8868)">
    <g id="Grupo_1204518" data-name="Grupo 1204518" transform="translate(289.711 8868)">
      <rect id="Rectángulo_455283" data-name="Rectángulo 455283" width="188" height="127.05" rx="19" fill="#c1fbff"/>
    </g>
    <g id="Grupo_1204830" data-name="Grupo 1204830" transform="translate(330.654 8881.129)">
      <g id="Grupo_1204829" data-name="Grupo 1204829" clip-path="url(#clip-path)">
        <path id="Trazado_1260358" data-name="Trazado 1260358" d="M23.435,7.391C19.134,3.843,16.373-1.875,9.765.6,7.757,1.359,1.492,7.628.741,9.629a7.727,7.727,0,0,0,1.288,8L20.986,36.608c-1.068.27-4.281-.251-4.281,1.528v5.048c-1.586.742-2.914-2.608-4.194-3a1.912,1.912,0,0,0-1.943.381,85.881,85.881,0,0,0-6.957,7.117c-.7,2.306,2.553,3.267,3.157,4.673.139.323-.232.6-.158.922H1.562c-.617,0-1.3,1.005-1.392,1.668A74.814,74.814,0,0,0,.192,65.355a3,3,0,0,0,1.064,1.383H6.151c.418,0,.516.764.307,1.223-.589,1.293-4.285,2.77-2.464,4.914,1.8,1.162,5.852,6.693,7.5,7.205,1.429.443,3.373-2.393,4.446-3.246l.761.458v14.99c0,3.631,4.319,8.067,8.094,7.814l67.922-.017a8.4,8.4,0,0,0,7.495-7.495l.016-90.56-.391-1.6-1.6-.391L25.1.035c-.6-.215-1.668,1.021-1.668,1.392Z" transform="translate(0 0)" fill="#fff"/>
        <path id="Trazado_1260359" data-name="Trazado 1260359" d="M23.435,7.391V1.426c0-.371,1.065-1.607,1.668-1.392l73.141,0,1.6.391.391,1.6-.016,90.56a8.4,8.4,0,0,1-7.495,7.495L24.8,100.1c-3.774.253-8.094-4.183-8.094-7.814V77.293l-.761-.458c-1.073.852-3.017,3.688-4.446,3.246-1.653-.512-5.705-6.043-7.5-7.205-1.821-2.144,1.875-3.621,2.464-4.914.209-.459.111-1.223-.307-1.223H1.256A3,3,0,0,1,.192,65.355,74.815,74.815,0,0,1,.171,54.946c.09-.662.774-1.668,1.392-1.668H6.61c-.074-.326.3-.6.158-.922-.6-1.406-3.859-2.367-3.157-4.673a85.88,85.88,0,0,1,6.957-7.117,1.912,1.912,0,0,1,1.943-.381c1.28.391,2.607,3.74,4.194,3V38.136c0-1.779,3.213-1.258,4.281-1.528L2.028,17.632a7.727,7.727,0,0,1-1.288-8c.751-2,7.016-8.271,9.024-9.024,6.608-2.479,9.369,3.238,13.67,6.787M11.728,3.486c-1.668.3-6.982,5.476-7.687,7a4.24,4.24,0,0,0,1.192,5.468L16.085,5.1a4.067,4.067,0,0,0-4.357-1.611m85.126-.072H26.8v7.495L40.373,24.2c.463-.328.641-.769,1.269-.892a50.4,50.4,0,0,1,7.272.059c1.7.486,1.219,3.3.37,3.3H42.707l1.984,3.064.615.3,20.433.063c1.923.553.917,3.3.065,3.3H46.378l.8,3.384,19.016.185c1.339.682.513,3.162-.7,3.162H48.214l1.53,6.73H73.6V11.215a3.515,3.515,0,0,1,.612-.917,1.416,1.416,0,0,1,.746-.172,95.379,95.379,0,0,1,13.8,0c.521.067.928.115,1.211.624l.166,31.067c.215.6-1.021,1.668-1.392,1.668H76.97v5.353c0,.513-1.672,1.311-2.288,1.383-7.875.934-17.6-.685-25.671-.039C41.644,47.818,33.1,47.262,26.8,42.571V80.2H51.885V74.539a1.783,1.783,0,0,1,1.071-1.071h7.189V66.586c0-.206-1.493-.945-1.807-1.252-.507-.5-.949-1.736-1.456-1.909l-3.467-.051v5.965a2.309,2.309,0,0,1-1.676.771c-5.11.6-11.308-.469-16.541.01-1.264-.166-1.57-.8-1.686-1.985a89.016,89.016,0,0,1,.013-12.873c.187-1.579.79-1.859,2.286-2a109.166,109.166,0,0,1,15.622.007c.51.06,1.982.6,1.982,1.077v5.659l3.788.019c1.954-4.524,7.276-4.27,9.57-.07l3.467.051V54.655c0-.765,1.288-1.3,1.983-1.382a108.744,108.744,0,0,1,15.92,0c1.436.166,1.864.6,2,1.978a94.591,94.591,0,0,1-.005,12.879c-.142,1.71-.292,1.846-1.988,1.988-5.372.449-11.575-.229-16.986-.171a7.917,7.917,0,0,1-.924-.912V63.374l-3.61.064c.1,1.569-3.12,2.773-3.12,3v7.036H70.7a4.69,4.69,0,0,1,1.071.765V79.74l.459.459H85.994c.388,0,.726.957.78,1.361.478,3.55-1.113,10.894,1.391,13.6a5.082,5.082,0,0,0,7.626-.269,7.206,7.206,0,0,0,1.063-2ZM18.387,7.4,7.534,18.251,8.6,19.316,19.452,8.462Zm3.365,3.364-1.677,1.677L37.2,28.976c.382-.522,1.445-1,1.092-1.7ZM86.759,13.51H76.97V40.124h9.789ZM17.512,15.061c-.51.586-2.581,1.991-2.2,2.729L31.848,34.306l2.595-2.595Zm-4.937,4.878L10.9,21.616,28.021,38.154c.382-.523,1.445-1,1.092-1.7Zm17.59,21.1a19.376,19.376,0,0,0,7.427,2.4l5.983-5.983a19.375,19.375,0,0,0-2.4-7.427Zm-6.73-.913H20.07v4.742a12.865,12.865,0,0,1-4.436,2.273c-1.177.005-2.732-2.327-3.671-3.033L7.529,48.538,10.6,51.913c-.547,1.606-1.1,3.518-2.3,4.73H3.551v6.73H7.986c.859,0,2.58,3.97,2.569,4.749-.017,1.214-2.3,2.7-3.022,3.663L11.7,75.894c.72.125,2.262-2.555,3.339-2.735a14.927,14.927,0,0,1,4.406,1.394c1.313.9.211,3.924.759,5.359l3.231.286v-6.73c-17.507-.811-17.584-26.171,0-26.614Zm22.636,5.811-1.226-4.587-3.36,3.213ZM23.436,50.218c-12.787-.006-13.179,19.136-.457,19.888.637.038.392,0,.458-.452.125-.874-.071-1.99-.016-2.9-8.816-.794-8.706-12.4-.025-13.514Zm0,6.426c-4.3.727-4.457,6.237,0,6.73Zm26.614,0H36.9v10.1H50.049Zm36.71,0H73.6v10.1H86.759ZM63.13,62.994c1.468-1.468-.938-4.154-2.513-2.36-1.478,1.684,1.144,3.728,2.513,2.36M68.4,76.834H55.25V80.2H68.4Zm15.3,6.73H20.07v8.719a8.359,8.359,0,0,0,1.529,3.06,15.73,15.73,0,0,0,2.3,1.376H85.229a12.383,12.383,0,0,1-1.53-2.906Z" transform="translate(0 0)" fill="#12263f"/>
        <path id="Trazado_1260360" data-name="Trazado 1260360" d="M157.66,11.162v89.48a7.205,7.205,0,0,1-1.063,2,5.082,5.082,0,0,1-7.626.269c-2.5-2.7-.913-10.048-1.391-13.6-.054-.4-.392-1.361-.78-1.361H133.034l-.459-.459V81.981a4.681,4.681,0,0,0-1.071-.765h-7.189V74.18c0-.222,3.216-1.426,3.121-3l3.609-.064V76.78a7.893,7.893,0,0,0,.924.912c5.41-.058,11.614.621,16.986.171,1.7-.142,1.846-.277,1.988-1.988A94.592,94.592,0,0,0,150.948,63c-.135-1.375-.563-1.811-2-1.977a108.7,108.7,0,0,0-15.92,0c-.7.083-1.983.617-1.983,1.382v5.353l-3.467-.051c-2.294-4.2-7.616-4.454-9.57.07l-3.788-.019V62.1c0-.474-1.471-1.017-1.981-1.078a109.216,109.216,0,0,0-15.623-.007c-1.5.138-2.1.418-2.286,2a88.972,88.972,0,0,0-.013,12.873c.116,1.189.422,1.819,1.686,1.985,5.234-.479,11.432.587,16.541-.009a2.309,2.309,0,0,0,1.676-.771V71.121l3.467.05c.508.173.949,1.414,1.456,1.909.314.307,1.807,1.047,1.807,1.252v6.883h-7.189a1.783,1.783,0,0,0-1.071,1.071v5.659H87.606V50.319c6.3,4.69,14.844,5.246,22.211,7.615,8.072-.646,17.8.973,25.671.039.615-.073,2.287-.87,2.287-1.383V51.237h11.778c.371,0,1.607-1.065,1.392-1.668L150.779,18.5c-.283-.51-.69-.557-1.211-.624a95.379,95.379,0,0,0-13.8,0,1.42,1.42,0,0,0-.746.172,3.51,3.51,0,0,0-.612.917V54.6H110.549l-1.53-6.73H126.3c1.208,0,2.034-2.48.7-3.162l-19.016-.184-.8-3.384H126.61c.852,0,1.858-2.748-.065-3.3l-20.433-.063-.615-.3-1.984-3.064h6.577c.848,0,1.325-2.814-.37-3.3a50.4,50.4,0,0,0-7.272-.06c-.628.124-.807.564-1.269.892L87.606,18.657V11.162Z" transform="translate(-60.806 -7.747)" fill="#fff7d9"/>
        <path id="Trazado_1260361" data-name="Trazado 1260361" d="M129.236,273.162V283.41a12.383,12.383,0,0,0,1.53,2.906H69.43a15.73,15.73,0,0,1-2.3-1.376,8.359,8.359,0,0,1-1.529-3.06v-8.719Z" transform="translate(-45.536 -189.598)" fill="#feea89"/>
        <rect id="Rectángulo_455918" data-name="Rectángulo 455918" width="9.789" height="26.614" transform="translate(76.97 13.51)" fill="#5dd2e4"/>
        <path id="Trazado_1260362" data-name="Trazado 1260362" d="M31.49,131.162v6.73c-17.584.444-17.507,25.8,0,26.614v6.73l-3.232-.286c-.548-1.435.554-4.46-.759-5.359a14.926,14.926,0,0,0-4.406-1.394c-1.077.18-2.619,2.861-3.339,2.735l-4.166-4.108c.724-.963,3.005-2.449,3.022-3.663.011-.779-1.71-4.749-2.569-4.749H11.606v-6.73h4.742c1.206-1.212,1.757-3.124,2.3-4.73l-3.067-3.375,4.435-4.432c.939.705,2.494,3.038,3.671,3.033a12.865,12.865,0,0,0,4.436-2.273v-4.742Z" transform="translate(-8.056 -91.038)" fill="#cad6fe"/>
        <rect id="Rectángulo_455919" data-name="Rectángulo 455919" width="13.154" height="10.095" transform="translate(36.895 56.643)" fill="#9db7fe"/>
        <rect id="Rectángulo_455920" data-name="Rectángulo 455920" width="13.154" height="10.095" transform="translate(73.604 56.643)" fill="#c1fbff"/>
        <path id="Trazado_1260363" data-name="Trazado 1260363" d="M98.606,109.17l11.008-11.008a19.376,19.376,0,0,1,2.4,7.427l-5.983,5.983a19.376,19.376,0,0,1-7.427-2.4" transform="translate(-68.441 -68.133)" fill="#fff"/>
        <path id="Trazado_1260364" data-name="Trazado 1260364" d="M52.143,49.234l16.931,16.65-2.595,2.595L49.941,51.962c-.379-.737,1.691-2.143,2.2-2.728" transform="translate(-34.632 -34.173)" fill="#ebcc30"/>
        <path id="Trazado_1260365" data-name="Trazado 1260365" d="M54.383,164.158l-.041,3.02c-8.681,1.109-8.791,12.72.025,13.514-.054.913.142,2.028.016,2.9-.065.456.18.489-.457.452-12.722-.752-12.33-19.894.457-19.888" transform="translate(-30.947 -113.94)" fill="#b0c7fc"/>
        <path id="Trazado_1260366" data-name="Trazado 1260366" d="M19.718,11.167a4.067,4.067,0,0,1,4.357,1.611L13.223,23.632a4.24,4.24,0,0,1-1.192-5.468c.7-1.52,6.018-6.7,7.687-7" transform="translate(-7.99 -7.681)" fill="#9b165d"/>
        <path id="Trazado_1260367" data-name="Trazado 1260367" d="M67.3,35.18,83.839,51.7c.354.7-.709,1.176-1.092,1.7L65.624,36.857Z" transform="translate(-45.549 -24.418)" fill="#ebcc30"/>
        <path id="Trazado_1260368" data-name="Trazado 1260368" d="M37.3,65.18,53.839,81.7c.354.7-.709,1.176-1.092,1.7L35.624,66.857Z" transform="translate(-24.726 -45.241)" fill="#ebcc30"/>
        <rect id="Rectángulo_455921" data-name="Rectángulo 455921" width="13.154" height="3.365" transform="translate(55.25 76.834)" fill="#ebcc30"/>
        <rect id="Rectángulo_455922" data-name="Rectángulo 455922" width="15.35" height="1.506" transform="translate(7.533 18.251) rotate(-45)" fill="#fff"/>
        <path id="Trazado_1260369" data-name="Trazado 1260369" d="M69.152,185.162v6.73c-4.457-.493-4.3-6,0-6.73" transform="translate(-45.718 -128.519)" fill="#fff"/>
        <path id="Trazado_1260370" data-name="Trazado 1260370" d="M140.2,139.751l-4.586-1.374,3.36-3.213Z" transform="translate(-94.126 -93.816)" fill="#12263f"/>
        <path id="Trazado_1260371" data-name="Trazado 1260371" d="M199.668,199.213c-1.369,1.369-3.992-.676-2.513-2.36,1.575-1.794,3.981.891,2.513,2.36" transform="translate(-136.538 -136.22)" fill="#fff"/>
      </g>
    </g>
  </g>
</svg>
