<svg xmlns="http://www.w3.org/2000/svg" xmlns:xlink="http://www.w3.org/1999/xlink" width="78" height="78" viewBox="0 0 78 78">
  <defs>
    <clipPath id="clip-path">
      <rect id="Rect치ngulo_455634" data-name="Rect치ngulo 455634" width="78" height="78" transform="translate(291.711 1714)" fill="#fff" stroke="#707070" stroke-width="1"/>
    </clipPath>
    <clipPath id="clip-path-2">
      <rect id="Rect치ngulo_455633" data-name="Rect치ngulo 455633" width="62.421" height="72.526" fill="none"/>
    </clipPath>
  </defs>
  <g id="Enmascarar_grupo_1119203" data-name="Enmascarar grupo 1119203" transform="translate(-291.711 -1714)" clip-path="url(#clip-path)">
    <g id="Grupo_1204593" data-name="Grupo 1204593" transform="translate(299.711 1717)">
      <g id="Grupo_1204592" data-name="Grupo 1204592" clip-path="url(#clip-path-2)">
        <path id="Trazado_1259199" data-name="Trazado 1259199" d="M29.76,45.208c0-6.983-2.791-12.647-6.234-12.647s-6.234,5.664-6.234,12.647,2.791,12.649,6.234,12.649,6.234-5.663,6.234-12.649" transform="translate(7.79 14.67)" fill="#a8a6a1"/>
        <path id="Trazado_1259200" data-name="Trazado 1259200" d="M44,26.943a17.1,17.1,0,0,0-34.2,0c0,5.851,4.735,11.507,7.425,16.236,5.544,9.748,4.788,19.747,9.676,19.747s4.133-10,9.676-19.747C39.266,38.45,44,32.795,44,26.943" transform="translate(4.415 4.435)" fill="#fff7d9"/>
        <path id="Trazado_1259201" data-name="Trazado 1259201" d="M22.588,57.276a.668.668,0,1,1-1.324.177L16.895,24.806a.668.668,0,0,1,1.324-.178Z" transform="translate(7.609 10.835)" fill="#9db7fe"/>
        <path id="Trazado_1259202" data-name="Trazado 1259202" d="M22.36,57.276a.668.668,0,1,0,1.324.177l4.37-32.647a.668.668,0,0,0-1.324-.178Z" transform="translate(10.071 10.835)" fill="#9db7fe"/>
        <path id="Trazado_1259203" data-name="Trazado 1259203" d="M28.8,29.945a3.267,3.267,0,0,1-.69-.074,3.226,3.226,0,0,1-1.369-.663,3.237,3.237,0,0,1-1.691.48,3.076,3.076,0,0,1-.689-.075,3.171,3.171,0,0,1-1.121-.479,3.226,3.226,0,0,1-4.265-.019,3.686,3.686,0,0,1-1.442.293,3.777,3.777,0,0,1-.785-.084A3.7,3.7,0,0,1,14.5,23.582a3.664,3.664,0,0,1-.2-2.216,3.717,3.717,0,0,1,3.612-2.916h.042a3.727,3.727,0,0,1,3.378-2.2,3.694,3.694,0,0,1,2.337.831,3.707,3.707,0,0,1,2.015-.6,3.667,3.667,0,0,1,.786.086,3.707,3.707,0,0,1,2.367,1.684,3.69,3.69,0,0,1,1.021-.147,3.564,3.564,0,0,1,.785.086,3.7,3.7,0,0,1,2.916,3.592,3.7,3.7,0,0,1,2.483,4.31,3.695,3.695,0,0,1-4.4,2.83l-.4-.088A3.245,3.245,0,0,1,28.8,29.945" transform="translate(6.23 7.322)" fill="#fff"/>
        <path id="Trazado_1259204" data-name="Trazado 1259204" d="M14.851,21.284a2.873,2.873,0,0,1,3.417-2.2,2.873,2.873,0,0,1,5.084-1.143,2.868,2.868,0,0,1,4.816,1.118,2.87,2.87,0,0,1,4.241,3.1l-.007.025a3.3,3.3,0,0,1,.376.054,2.874,2.874,0,1,1-1.218,5.618l-.928-.2a2.41,2.41,0,0,1-4.072.176,2.411,2.411,0,0,1-3.651-.122,2.408,2.408,0,0,1-4.018.119,2.872,2.872,0,0,1-3.658-4.394,2.862,2.862,0,0,1-.381-2.147" transform="translate(6.487 7.578)" fill="#5dd2e4"/>
        <path id="Trazado_1259205" data-name="Trazado 1259205" d="M16.17,22.516a.229.229,0,0,1,.27-.174,1.753,1.753,0,1,0,.744-3.426.229.229,0,0,1-.173-.271.225.225,0,0,1,.27-.173,2.208,2.208,0,0,1-.938,4.315.229.229,0,0,1-.173-.271m8.882-2.047a2.21,2.21,0,0,0,2.627-1.688.227.227,0,0,0-.444-.1,1.753,1.753,0,0,1-2.086,1.342.228.228,0,0,0-.27.174.225.225,0,0,0,.173.27m-7.012,7.705a.227.227,0,0,0,.162-.418,1.757,1.757,0,0,1-.634-2.4.227.227,0,1,0-.392-.228,2.211,2.211,0,0,0,.8,3.019.213.213,0,0,0,.067.026m7.672.049a.222.222,0,0,0,.062,0,.225.225,0,0,0,.212-.239,1.759,1.759,0,0,1,1.641-1.862.227.227,0,1,0-.029-.453,2.211,2.211,0,0,0-2.064,2.341.227.227,0,0,0,.178.209M30,27.9a.257.257,0,0,0,.088,0,.228.228,0,0,0,.184-.263,1.754,1.754,0,0,1,1.436-2.021.227.227,0,1,0-.077-.448,2.21,2.21,0,0,0-1.806,2.546A.225.225,0,0,0,30,27.9m-8.79-7.788a.2.2,0,0,0,.11,0,2.209,2.209,0,0,0,1.5-2.736.224.224,0,0,0-.28-.154.228.228,0,0,0-.155.28,1.754,1.754,0,0,1-1.2,2.173.225.225,0,0,0-.152.28.221.221,0,0,0,.17.16m3,4.225a.227.227,0,1,0,.1-.444,1.754,1.754,0,0,1,.744-3.428.225.225,0,0,0,.27-.173.229.229,0,0,0-.173-.271,2.208,2.208,0,0,0-.938,4.315m-2.1,3.693a.227.227,0,0,0,.142-.428,1.754,1.754,0,0,1-.876-2.321.227.227,0,0,0-.115-.3.225.225,0,0,0-.3.113,2.212,2.212,0,0,0,1.1,2.921.217.217,0,0,0,.046.015m-.989-2.621a.226.226,0,0,0,.255-.128,2.21,2.21,0,0,0-1.105-2.92.224.224,0,0,0-.3.112.227.227,0,0,0,.112.3,1.751,1.751,0,0,1,.878,2.321.226.226,0,0,0,.115.3.233.233,0,0,0,.045.015m8.3-1.923.046.009a2.208,2.208,0,0,0,2.591-1.742.234.234,0,0,0-.18-.267.226.226,0,0,0-.265.178A1.754,1.754,0,1,1,28.174,21a.239.239,0,0,0-.18-.265.229.229,0,0,0-.267.18,2.206,2.206,0,0,0,1.7,2.579" transform="translate(7.283 7.755)" fill="#fff"/>
        <path id="Trazado_1259206" data-name="Trazado 1259206" d="M31.848,48.294a4.3,4.3,0,0,1-4.237,4.365H20.429a4.3,4.3,0,0,1-4.238-4.365V40.816a4.3,4.3,0,0,1,4.238-4.366h7.182a4.3,4.3,0,0,1,4.237,4.366Z" transform="translate(7.294 16.422)" fill="#6d6e71"/>
        <path id="Trazado_1259207" data-name="Trazado 1259207" d="M33,37.816a1.6,1.6,0,0,1-1.5,1.69H17.082a1.7,1.7,0,0,1,0-3.38H31.506a1.6,1.6,0,0,1,1.5,1.69" transform="translate(7.021 16.276)" fill="#a8a6a1"/>
        <path id="Trazado_1259208" data-name="Trazado 1259208" d="M33,41.13a1.605,1.605,0,0,1-1.5,1.693H17.082a1.7,1.7,0,0,1,0-3.38H31.506A1.6,1.6,0,0,1,33,41.13" transform="translate(7.021 17.77)" fill="#a8a6a1"/>
        <path id="Trazado_1259209" data-name="Trazado 1259209" d="M33,44.448a1.6,1.6,0,0,1-1.5,1.69H17.082a1.7,1.7,0,0,1,0-3.38H31.506a1.6,1.6,0,0,1,1.5,1.69" transform="translate(7.021 19.264)" fill="#a8a6a1"/>
        <path id="Trazado_1259210" data-name="Trazado 1259210" d="M31.473,18.226c.766-1.218-.308-3.272-2.4-4.591s-4.408-1.4-5.177-.18.308,3.274,2.4,4.591,4.408,1.4,5.175.18" transform="translate(10.655 5.673)" fill="#fff"/>
        <path id="Trazado_1259211" data-name="Trazado 1259211" d="M27.75,37.542c0-.434-.677-.786-1.519-.791s-1.524.345-1.524.776.679.788,1.519.791,1.525-.344,1.525-.776" transform="translate(11.131 16.557)" fill="#fff"/>
        <path id="Trazado_1259212" data-name="Trazado 1259212" d="M27.75,40.856c0-.432-.677-.786-1.519-.789s-1.524.342-1.524.776.679.785,1.519.791,1.525-.345,1.525-.777" transform="translate(11.131 18.051)" fill="#fff"/>
        <path id="Trazado_1259213" data-name="Trazado 1259213" d="M27.75,44.172c0-.432-.677-.785-1.519-.789s-1.524.344-1.524.777.679.785,1.519.788,1.525-.342,1.525-.776" transform="translate(11.131 19.545)" fill="#fff"/>
        <path id="Trazado_1259214" data-name="Trazado 1259214" d="M22.688,6.208a.894.894,0,1,1-1.787,0V.894a.894.894,0,1,1,1.787,0Z" transform="translate(9.416)" fill="#fff"/>
        <path id="Trazado_1259215" data-name="Trazado 1259215" d="M31.187,8.744a.894.894,0,1,1-1.548-.894l2.657-4.6a.893.893,0,1,1,1.546.894Z" transform="translate(13.299 1.261)" fill="#fff"/>
        <path id="Trazado_1259216" data-name="Trazado 1259216" d="M37.168,14.777a.893.893,0,0,1-.894-1.546l4.6-2.659a.894.894,0,0,1,.895,1.548Z" transform="translate(16.141 4.708)" fill="#fff"/>
        <path id="Trazado_1259217" data-name="Trazado 1259217" d="M4.139,33.844A.893.893,0,1,1,3.247,32.3l4.6-2.657a.893.893,0,0,1,.892,1.548Z" transform="translate(1.261 13.3)" fill="#fff"/>
        <path id="Trazado_1259218" data-name="Trazado 1259218" d="M39.032,22.689a.894.894,0,1,1,0-1.787h5.315a.894.894,0,0,1,0,1.787Z" transform="translate(17.182 9.417)" fill="#fff"/>
        <path id="Trazado_1259219" data-name="Trazado 1259219" d="M.892,22.689a.894.894,0,0,1,0-1.787H6.207a.894.894,0,0,1,0,1.787Z" transform="translate(0 9.417)" fill="#fff"/>
        <path id="Trazado_1259220" data-name="Trazado 1259220" d="M36.275,31.188a.894.894,0,1,1,.894-1.548l4.6,2.657a.893.893,0,1,1-.895,1.546Z" transform="translate(16.141 13.3)" fill="#fff"/>
        <path id="Trazado_1259221" data-name="Trazado 1259221" d="M3.246,12.119a.893.893,0,1,1,.892-1.546l4.6,2.657a.893.893,0,1,1-.894,1.546Z" transform="translate(1.261 4.709)" fill="#fff"/>
        <path id="Trazado_1259222" data-name="Trazado 1259222" d="M10.569,4.143a.894.894,0,1,1,1.548-.894l2.657,4.6a.894.894,0,0,1-1.549.894Z" transform="translate(4.708 1.262)" fill="#fff"/>
      </g>
    </g>
  </g>
</svg>
