<svg xmlns="http://www.w3.org/2000/svg" xmlns:xlink="http://www.w3.org/1999/xlink" width="78" height="78" viewBox="0 0 78 78">
  <defs>
    <clipPath id="clip-path">
      <rect id="Rect치ngulo_455616" data-name="Rect치ngulo 455616" width="78" height="78" transform="translate(291.711 1714)" fill="#fff" stroke="#707070" stroke-width="1"/>
    </clipPath>
    <clipPath id="clip-path-2">
      <rect id="Rect치ngulo_455612" data-name="Rect치ngulo 455612" width="70.001" height="70.001" fill="none"/>
    </clipPath>
  </defs>
  <g id="Enmascarar_grupo_1119199" data-name="Enmascarar grupo 1119199" transform="translate(-291.711 -1714)" clip-path="url(#clip-path)">
    <g id="Grupo_1204576" data-name="Grupo 1204576" transform="translate(295.711 1718)">
      <g id="Grupo_1204576-2" data-name="Grupo 1204576" transform="translate(0 0)" clip-path="url(#clip-path-2)">
        <path id="Trazado_1259142" data-name="Trazado 1259142" d="M68.914,30.307H63.07a27.293,27.293,0,0,0-1.411-5.277l.722-.417-6.3-4.058.791,4.743L43.83,24.9l-.4,9.487-7.115-.4L37.9,41.109l-6.72-1.581-4.743,6.324L30,35.97l4.348,1.581-1.581-6.324,4.743-.4-.791-11.858,8.7-1.186-2.767-7.115,13.2-3.986a1.043,1.043,0,0,0-.223-.2l-6.243-3.6a1.1,1.1,0,0,0-1.493.4L44.974,8.338A28.4,28.4,0,0,0,39.7,6.929V1.091A1.091,1.091,0,0,0,38.607,0H31.4a1.093,1.093,0,0,0-1.1,1.091V6.929a28.4,28.4,0,0,0-5.279,1.409L22.114,3.285a1.1,1.1,0,0,0-1.494-.4l-6.243,3.6a1.088,1.088,0,0,0-.4,1.488L16.9,13.036A28.9,28.9,0,0,0,13.032,16.9L7.985,13.98a1.1,1.1,0,0,0-1.494.4l-3.6,6.244a1.085,1.085,0,0,0,.4,1.49L8.343,25.03a27.293,27.293,0,0,0-1.411,5.277H1.1A1.093,1.093,0,0,0,0,31.4V38.6a1.093,1.093,0,0,0,1.1,1.089H6.932a28.066,28.066,0,0,0,1.4,5.278L3.287,47.888a1.088,1.088,0,0,0-.4,1.493l3.6,6.241a1.1,1.1,0,0,0,1.494.4l5.047-2.92A29.038,29.038,0,0,0,16.9,56.965L13.979,62.02a1.089,1.089,0,0,0,.4,1.489l6.243,3.6a1.094,1.094,0,0,0,1.494-.4l2.913-5.053a28.394,28.394,0,0,0,5.279,1.406V68.91A1.091,1.091,0,0,0,31.4,70h7.205A1.089,1.089,0,0,0,39.7,68.91V63.069a28.394,28.394,0,0,0,5.279-1.406l2.914,5.053a1.1,1.1,0,0,0,1.493.4l6.243-3.6a1.093,1.093,0,0,0,.4-1.492L53.1,56.965A28.531,28.531,0,0,0,56.97,53.1l5.047,2.92a1.109,1.109,0,0,0,1.5-.4l3.595-6.241a1.085,1.085,0,0,0-.4-1.49l-5.056-2.918a27.362,27.362,0,0,0,1.411-5.278h5.844A1.092,1.092,0,0,0,70,38.6V31.4a1.09,1.09,0,0,0-1.088-1.092" transform="translate(0 0)" fill="#302c9e"/>
        <path id="Trazado_1259143" data-name="Trazado 1259143" d="M47.9,29.374l-.4,9.487-7.115-.4,1.581,7.115L35.256,44l-4.743,6.324,3.557-9.882,4.348,1.581L36.837,35.7l4.743-.4L40.79,23.445l8.446-1.152a19.616,19.616,0,1,0,7.034,7.335Z" transform="translate(-4.075 -4.077)" fill="#fff"/>
        <path id="Trazado_1259144" data-name="Trazado 1259144" d="M33.281,49.971,35.9,42.683l4.348,1.581-1.581-6.324,4.743-.4-.47-7.06A11.15,11.15,0,0,0,32.426,49.205a11.38,11.38,0,0,0,.855.766" transform="translate(-6.107 -6.318)" fill="#302c9e"/>
        <path id="Trazado_1259145" data-name="Trazado 1259145" d="M50.608,42.414l-7.115-.4,1.581,7.115-6.72-1.581-3.161,4.215A11.153,11.153,0,0,0,50.858,36.427Z" transform="translate(-7.371 -7.63)" fill="#302c9e"/>
      </g>
    </g>
  </g>
</svg>
