<svg xmlns="http://www.w3.org/2000/svg" xmlns:xlink="http://www.w3.org/1999/xlink" width="70" height="70" viewBox="0 0 70 70">
  <defs>
    <clipPath id="clip-path">
      <rect id="Rectángulo_455652" data-name="Rectángulo 455652" width="37.841" height="40.784" fill="#302c9e"/>
    </clipPath>
  </defs>
  <g id="Grupo_1204268" data-name="Grupo 1204268" transform="translate(-269 -957.971)">
    <circle id="Elipse_5614" data-name="Elipse 5614" cx="35" cy="35" r="35" transform="translate(269 957.971)" fill="#fff"/>
    <g id="Grupo_1204618" data-name="Grupo 1204618" transform="translate(285 972.971)">
      <g id="Grupo_1204617" data-name="Grupo 1204617" clip-path="url(#clip-path)">
        <path id="Trazado_1259291" data-name="Trazado 1259291" d="M216.686,115.8h-8.978V90.726c0-.55,1.054-.856,1.5-.9a43.294,43.294,0,0,1,5.868-.006,2.89,2.89,0,0,1,1.059.258,2.189,2.189,0,0,1,.553.764Z" transform="translate(-182.844 -78.987)" fill="#302c9e"/>
        <path id="Trazado_1259292" data-name="Trazado 1259292" d="M37.806,168.86h-9.1V151.2a1.329,1.329,0,0,1,1.251-1.143c2.159-.2,4.629.154,6.822.012.354-.05,1.024.791,1.024,1.011Z" transform="translate(-25.272 -132.042)" fill="#302c9e"/>
        <path id="Trazado_1259293" data-name="Trazado 1259293" d="M129.909,185.606h-8.978V169.864c0-.275.725-.758,1.025-.77,2.116.134,4.5-.205,6.581-.012a1.558,1.558,0,0,1,.836.241,2.91,2.91,0,0,1,.536.781Z" transform="translate(-106.455 -148.788)" fill="#302c9e"/>
        <path id="Trazado_1259294" data-name="Trazado 1259294" d="M37.542,320.479a1.3,1.3,0,0,1-.857,2.121L.849,322.518a1.241,1.241,0,0,1,0-2.355l36.136-.024a4.845,4.845,0,0,1,.556.341" transform="translate(0 -281.816)" fill="#302c9e"/>
        <path id="Trazado_1259295" data-name="Trazado 1259295" d="M84.351,4.5A38.907,38.907,0,0,1,68.1,13.679a16.589,16.589,0,0,1-4.367.725,1.248,1.248,0,0,1-.317-2.3c1.722-.4,3.465-.671,5.162-1.182A34.3,34.3,0,0,0,82.556,2.582H80.461A1.278,1.278,0,0,1,80.3.147a35,35,0,0,1,5.43-.082,1.161,1.161,0,0,1,1.137,1.018c.2,1.736-.11,3.916-.056,5.695a1.259,1.259,0,0,1-2.1.3,3.6,3.6,0,0,1-.356-.721Z" transform="translate(-55.271 0)" fill="#302c9e"/>
      </g>
    </g>
  </g>
</svg>
