<svg xmlns="http://www.w3.org/2000/svg" xmlns:xlink="http://www.w3.org/1999/xlink" width="96" height="96" viewBox="0 0 96 96">
  <defs>
    <clipPath id="clip-path">
      <rect id="Rectángulo_454682" data-name="Rectángulo 454682" width="96" height="96" fill="#feea89"/>
    </clipPath>
    <clipPath id="clip-path-2">
      <rect id="Rectángulo_455279" data-name="Rectángulo 455279" width="58" height="58" transform="translate(2.838 13.689)" fill="#fff" stroke="#707070" stroke-width="1"/>
    </clipPath>
    <clipPath id="clip-path-3">
      <rect id="Rectángulo_455643" data-name="Rectángulo 455643" width="51.784" height="52.858" fill="#fff"/>
    </clipPath>
  </defs>
  <g id="Grupo_1204605" data-name="Grupo 1204605" transform="translate(-731.746 -8618)">
    <g id="Grupo_1203592" data-name="Grupo 1203592" transform="translate(731.746 8618)">
      <g id="Grupo_1203487" data-name="Grupo 1203487">
        <g id="Grupo_1203486" data-name="Grupo 1203486" clip-path="url(#clip-path)">
          <path id="Trazado_1256437" data-name="Trazado 1256437" d="M2.058,84.327a47.583,47.583,0,0,0,1.836,6.227L23,71.45a25.883,25.883,0,0,1,4.958-13.021Z" transform="translate(-0.911 -25.866)" fill="#feea89"/>
          <path id="Trazado_1256438" data-name="Trazado 1256438" d="M90.555,3.894a47.583,47.583,0,0,0-6.227-1.836l-25.9,25.9A25.886,25.886,0,0,1,71.451,23Z" transform="translate(-25.866 -0.911)" fill="#feea89"/>
          <path id="Trazado_1256439" data-name="Trazado 1256439" d="M117.575,12.855a48.029,48.029,0,0,0-5.022-3.041L95.523,26.843a25.831,25.831,0,0,1,6.031,2.032Z" transform="translate(-42.287 -4.345)" fill="#feea89"/>
          <path id="Trazado_1256440" data-name="Trazado 1256440" d="M9.814,112.552a47.933,47.933,0,0,0,3.041,5.022l16.021-16.021a25.831,25.831,0,0,1-2.032-6.031Z" transform="translate(-4.345 -42.287)" fill="#feea89"/>
          <path id="Trazado_1256441" data-name="Trazado 1256441" d="M4.273,34.929,34.929,4.273A48.116,48.116,0,0,0,4.273,34.929" transform="translate(-1.892 -1.892)" fill="#feea89"/>
          <path id="Trazado_1256442" data-name="Trazado 1256442" d="M48,0q-2.406,0-4.752.234L.234,43.248Q0,45.593,0,48q0,1.726.123,3.422l51.3-51.3C50.292.043,49.151,0,48,0" transform="translate(0 0)" fill="#feea89"/>
          <path id="Trazado_1256443" data-name="Trazado 1256443" d="M143.483,112.406l-31.076,31.076a48.112,48.112,0,0,0,31.076-31.076" transform="translate(-49.761 -49.761)" fill="#feea89"/>
          <path id="Trazado_1256444" data-name="Trazado 1256444" d="M131.113,79.625,79.625,131.113q1.795.134,3.624.135c1.524,0,3.03-.074,4.517-.213l43.27-43.27c.139-1.487.213-2.993.213-4.516q0-1.829-.135-3.624" transform="translate(-35.249 -35.249)" fill="#feea89"/>
          <path id="Trazado_1256445" data-name="Trazado 1256445" d="M119.266,41.241l15.585-15.585a48.285,48.285,0,0,0-4.038-4.025L115.222,37.222a26.166,26.166,0,0,1,4.044,4.019" transform="translate(-51.007 -9.575)" fill="#feea89"/>
          <path id="Trazado_1256446" data-name="Trazado 1256446" d="M37.222,115.222,21.63,130.814a48.369,48.369,0,0,0,4.025,4.038l15.585-15.585a26.166,26.166,0,0,1-4.019-4.044" transform="translate(-9.575 -51.007)" fill="#feea89"/>
          <path id="Trazado_1256447" data-name="Trazado 1256447" d="M74.932,129.121,55.9,148.149a47.687,47.687,0,0,0,6.207,1.857l25.333-25.333a25.88,25.88,0,0,1-12.512,4.448" transform="translate(-24.748 -55.191)" fill="#feea89"/>
          <path id="Trazado_1256448" data-name="Trazado 1256448" d="M150.006,62.11a47.591,47.591,0,0,0-1.857-6.206L129.121,74.931a25.87,25.87,0,0,1-4.448,12.512Z" transform="translate(-55.191 -24.748)" fill="#feea89"/>
          <path id="Trazado_1256449" data-name="Trazado 1256449" d="M147.17,41.946a48.074,48.074,0,0,0-3.054-5.009l-16,16a25.825,25.825,0,0,1,2.064,6Z" transform="translate(-56.713 -16.352)" fill="#feea89"/>
          <path id="Trazado_1256450" data-name="Trazado 1256450" d="M36.937,144.115a47.933,47.933,0,0,0,5.009,3.055l16.995-17a25.812,25.812,0,0,1-6-2.064Z" transform="translate(-16.352 -56.713)" fill="#feea89"/>
        </g>
      </g>
    </g>
    <g id="Grupo_154427" data-name="Grupo 154427" transform="translate(736.746 8623)">
      <path id="Elipse_5729" data-name="Elipse 5729" d="M43,0A43,43,0,1,1,0,43,43,43,0,0,1,43,0Z" transform="translate(-0.162 0)" fill="#302c9e"/>
      <g id="Grupo_1119166" data-name="Grupo 1119166" transform="translate(10)" clip-path="url(#clip-path-2)">
        <g id="Grupo_1204604" data-name="Grupo 1204604" transform="translate(6.505 16.831)">
          <g id="Grupo_1204603" data-name="Grupo 1204603" clip-path="url(#clip-path-3)">
            <path id="Trazado_1259252" data-name="Trazado 1259252" d="M.491,31.317a1.418,1.418,0,0,1-.409-.984A25.476,25.476,0,0,1,.364,24,9.2,9.2,0,0,1,7.07,16.953c.14-.182-.907-1.858-1.052-2.337A7.6,7.6,0,0,1,8.251,6.5c4.587-3.606,10.536.269,10.191,6.325l2.6-1.079c-4.223-5.726.8-13.8,7.192-11.268,4.128,1.636,5.211,7.582,2.555,11.267l2.6.9a7.068,7.068,0,0,1,2.776-6.357C41.264,2.649,47.571,8,45.774,14.4c-.274.976-.844,1.645-1.182,2.552,3.42.591,6.3,3.965,6.94,7.68.191,1.117.444,5.4.025,6.213a.831.831,0,0,1-.418.436l-13.942.03-1.7.992c.86.554.477,1.469.672,2.126.108.361,1.262.805,1.426,2.014a11.245,11.245,0,0,0,.036,1.4c.075.24.44.346.6.592a3.322,3.322,0,0,1-.138,3.748c-.542.727-6.357,4.369-7.364,4.787-1.052.436-4.942.663-5.279,1.706-.19.59.022,1.146-.571,1.792a32.3,32.3,0,0,1-3.429,2.224c-2.947,1.092-3.354-3.427-4.907-5.187L3.4,47.308a3.444,3.444,0,0,1-.394-.641V31.317ZM29.1,3.374c-4.423-4.638-10.782,2.712-6.528,7.3,4.482,4.838,10.846-2.776,6.528-7.3M11.416,7.128c-5.814.845-4.889,10.554.927,10.19,6.158-.386,5.476-11.119-.927-10.19m27.613,0c-5.612.81-5,10.469.926,10.188,6.162-.292,5.537-11.122-.926-10.188m-5.053,8.633a6.879,6.879,0,0,0-5.533-2.2c-.5.075-.985.432-1.489.508-1.885.281-3.219-.652-4.857-.52a6.742,6.742,0,0,0-5.118,3.405c3.326.616,6.1,3.74,6.843,7.34l4.108.033c.764-3.617,3.4-6.687,6.753-7.372.106-.125-.588-1.061-.707-1.192m-11.8,13.761V24.944c0-2.074-2.6-4.941-4.275-5.688-2.995-1.335-3.524.1-6.041.045-1.733-.038-2.229-.952-4.342-.5-2.42.512-5.646,3.656-5.646,6.507v4.219H3.009V26.739A4.421,4.421,0,0,1,3.5,26.2l16.971-.093c.973.2.369,2.464.639,3.243Zm17.867,0h9.665l.244-.269V25.662c0-2.849-2.941-6.2-5.393-6.785-2.3-.552-3,.429-4.921.428-1.735,0-2.426-1-4.51-.512-2.47.581-5.643,3.76-5.643,6.69V28.8a1.7,1.7,0,0,0,.93-.14c2.568-1.091,5.591-4.053,8.219-5.278,3.039-1.417,5.25,2.856,2.789,5.058-.419.375-1.083.531-1.38,1.078M34.4,35.944c-.6-.648.554-2.074-.36-2.565-.5-.268-1.862.027-1.218-1.521.381-.917,6.652-4.124,7.711-5.12.421-1.7-.405-1.9-1.625-1.258-2.713,1.418-5.4,3.71-8.111,5.217-2.071.692-3.091-1.775-4.746,1.218-1.541,2.788-1.921,6.24-5.018,7.762l3.58,7c.189.132,1.784-.787,2.272-.918.774-.208,1.613-.146,2.322-.306,1.149-.259,5.913-3.246,7-4.117.473-.381,1.119-1.013.611-1.695-.314-.422-1.262-.121-1.45-.728-.32-1.033.39-1.258.465-1.774.152-1.04-.837-.873-1.43-1.2M27.7,26.29H23.963v4.578c0,.841-2.548.1-2.924.718v5.655c2.936-2.239,2.63-8.352,6.638-9Zm-8.446,1.8H4.8V45.5h10.72l-1.245-2.3c-1.951-.279-4.412.278-6.3-.042-.872-.148-.945-.918-.583-1.7.546-.613,5.327-.09,6.393-.257.38-1.078,1.16-1.466,1.895-2.162H7.638c-.414,0-.876-1.715.5-1.964a50.009,50.009,0,0,1,7.939,0c.639.11.895.553.905,1.245a3.173,3.173,0,0,1,2.272-.718ZM18.908,39.6c-.155-.1-.314.008-.46.074a24.27,24.27,0,0,0-2.571,1.641c-.085.082-.274.044-.2.314l4.952,9.26a24.189,24.189,0,0,0,2.852-1.706c.092-.107.182-.184.163-.352Z" transform="translate(0 0)" fill="#fff"/>
            <path id="Trazado_1259253" data-name="Trazado 1259253" d="M44.695,184.442h8.771a2.628,2.628,0,0,1,.545.668c.289,1.166-.956,1.257-1.675,1.314a41.149,41.149,0,0,1-7.115-.051c-1.042-.2-1.306-1.158-.526-1.932" transform="translate(-37.056 -151.329)" fill="#fff"/>
          </g>
        </g>
      </g>
    </g>
  </g>
</svg>
