<svg xmlns="http://www.w3.org/2000/svg" xmlns:xlink="http://www.w3.org/1999/xlink" width="96" height="96" viewBox="0 0 96 96">
  <defs>
    <clipPath id="clip-path">
      <rect id="Rectángulo_454682" data-name="Rectángulo 454682" width="96" height="96" fill="#feea89"/>
    </clipPath>
    <clipPath id="clip-path-2">
      <rect id="Rectángulo_455649" data-name="Rectángulo 455649" width="53.024" height="52.971" fill="#fff"/>
    </clipPath>
  </defs>
  <g id="Grupo_1204608" data-name="Grupo 1204608" transform="translate(-731.746 -8618)">
    <g id="Grupo_1203592" data-name="Grupo 1203592" transform="translate(731.746 8618)">
      <g id="Grupo_1203487" data-name="Grupo 1203487">
        <g id="Grupo_1203486" data-name="Grupo 1203486" clip-path="url(#clip-path)">
          <path id="Trazado_1256437" data-name="Trazado 1256437" d="M2.058,84.327a47.583,47.583,0,0,0,1.836,6.227L23,71.45a25.883,25.883,0,0,1,4.958-13.021Z" transform="translate(-0.911 -25.866)" fill="#feea89"/>
          <path id="Trazado_1256438" data-name="Trazado 1256438" d="M90.555,3.894a47.583,47.583,0,0,0-6.227-1.836l-25.9,25.9A25.886,25.886,0,0,1,71.451,23Z" transform="translate(-25.866 -0.911)" fill="#feea89"/>
          <path id="Trazado_1256439" data-name="Trazado 1256439" d="M117.575,12.855a48.029,48.029,0,0,0-5.022-3.041L95.523,26.843a25.831,25.831,0,0,1,6.031,2.032Z" transform="translate(-42.287 -4.345)" fill="#feea89"/>
          <path id="Trazado_1256440" data-name="Trazado 1256440" d="M9.814,112.552a47.933,47.933,0,0,0,3.041,5.022l16.021-16.021a25.831,25.831,0,0,1-2.032-6.031Z" transform="translate(-4.345 -42.287)" fill="#feea89"/>
          <path id="Trazado_1256441" data-name="Trazado 1256441" d="M4.273,34.929,34.929,4.273A48.116,48.116,0,0,0,4.273,34.929" transform="translate(-1.892 -1.892)" fill="#feea89"/>
          <path id="Trazado_1256442" data-name="Trazado 1256442" d="M48,0q-2.406,0-4.752.234L.234,43.248Q0,45.593,0,48q0,1.726.123,3.422l51.3-51.3C50.292.043,49.151,0,48,0" transform="translate(0 0)" fill="#feea89"/>
          <path id="Trazado_1256443" data-name="Trazado 1256443" d="M143.483,112.406l-31.076,31.076a48.112,48.112,0,0,0,31.076-31.076" transform="translate(-49.761 -49.761)" fill="#feea89"/>
          <path id="Trazado_1256444" data-name="Trazado 1256444" d="M131.113,79.625,79.625,131.113q1.795.134,3.624.135c1.524,0,3.03-.074,4.517-.213l43.27-43.27c.139-1.487.213-2.993.213-4.516q0-1.829-.135-3.624" transform="translate(-35.249 -35.249)" fill="#feea89"/>
          <path id="Trazado_1256445" data-name="Trazado 1256445" d="M119.266,41.241l15.585-15.585a48.285,48.285,0,0,0-4.038-4.025L115.222,37.222a26.166,26.166,0,0,1,4.044,4.019" transform="translate(-51.007 -9.575)" fill="#feea89"/>
          <path id="Trazado_1256446" data-name="Trazado 1256446" d="M37.222,115.222,21.63,130.814a48.369,48.369,0,0,0,4.025,4.038l15.585-15.585a26.166,26.166,0,0,1-4.019-4.044" transform="translate(-9.575 -51.007)" fill="#feea89"/>
          <path id="Trazado_1256447" data-name="Trazado 1256447" d="M74.932,129.121,55.9,148.149a47.687,47.687,0,0,0,6.207,1.857l25.333-25.333a25.88,25.88,0,0,1-12.512,4.448" transform="translate(-24.748 -55.191)" fill="#feea89"/>
          <path id="Trazado_1256448" data-name="Trazado 1256448" d="M150.006,62.11a47.591,47.591,0,0,0-1.857-6.206L129.121,74.931a25.87,25.87,0,0,1-4.448,12.512Z" transform="translate(-55.191 -24.748)" fill="#feea89"/>
          <path id="Trazado_1256449" data-name="Trazado 1256449" d="M147.17,41.946a48.074,48.074,0,0,0-3.054-5.009l-16,16a25.825,25.825,0,0,1,2.064,6Z" transform="translate(-56.713 -16.352)" fill="#feea89"/>
          <path id="Trazado_1256450" data-name="Trazado 1256450" d="M36.937,144.115a47.933,47.933,0,0,0,5.009,3.055l16.995-17a25.812,25.812,0,0,1-6-2.064Z" transform="translate(-16.352 -56.713)" fill="#feea89"/>
        </g>
      </g>
    </g>
    <g id="Grupo_154427" data-name="Grupo 154427" transform="translate(736.908 8623)">
      <path id="Elipse_5729" data-name="Elipse 5729" d="M43,0A43,43,0,1,1,0,43,43,43,0,0,1,43,0Z" transform="translate(-0.162 0)" fill="#302c9e"/>
      <g id="Grupo_1119166" data-name="Grupo 1119166" transform="translate(10)">
        <g id="Grupo_1204610" data-name="Grupo 1204610" transform="translate(5.326 16.204)">
          <g id="Grupo_1204609" data-name="Grupo 1204609" clip-path="url(#clip-path-2)">
            <path id="Trazado_1259262" data-name="Trazado 1259262" d="M58.65,180.4v1.78H51.775c-.053,0-.25.246-.312.336L48.135,202.4h21.6c.409,0,.613-.765.687-1.093.786-3.515,1.22-7.683,1.8-11.3a5.578,5.578,0,0,0,.02-.87l1.773.17L72,202.237a2.56,2.56,0,0,1-1.611,1.786l-34.8.159c-2.443-.216-2.787-2.395-2.509-4.464a.851.851,0,0,1,.647-.809L47,198.836,49.637,182.3a3.421,3.421,0,0,1,1.814-1.907ZM46.679,200.617H34.869c.039.538-.219,1.555.437,1.747l10.946.01.242-.244Z" transform="translate(-27.662 -151.211)" fill="#fff"/>
            <path id="Trazado_1259263" data-name="Trazado 1259263" d="M15.606,95.947c-4-2.229-9.067-1.676-11.93,2.058A8.8,8.8,0,1,0,18.286,99.03L9.318,107.7a1.144,1.144,0,0,1-.559.069c-.784-.082-3.34-3.056-3.967-3.779l1.2-1.233,2.912,2.906,9.135-8.991c1.091-.361,2.127,1.87,2.464,2.734,4.568,11.724-11.275,20.1-18.378,10.29-6.936-9.582,4.489-21.487,14.3-15.113Z" transform="translate(0 -77.773)" fill="#fff"/>
            <path id="Trazado_1259264" data-name="Trazado 1259264" d="M116.629,5.4a3.1,3.1,0,0,1,1.785,1.774c.266.992-.6,4.9-.973,5.994a2.592,2.592,0,0,1-1.542,1.694c-1.026.4-6.232.381-7.5.227a3.532,3.532,0,0,1-1.635-.63c-.773-.6-.966-1.8-1.86-2.1-.085.9.365,2.206-.69,2.627a31.519,31.519,0,0,1-5.529.113c-.739-.117-.846-.53-.907-1.2a60.591,60.591,0,0,1,0-8.266c.071-.781.214-1.11,1.056-1.209a33.088,33.088,0,0,1,5.17.013c.9.141.767.836.924.935a4.395,4.395,0,0,0,1.157.028c.307-.073,2.822-4.753,3.583-5.189a4.56,4.56,0,0,1,3.643.419c1.7,1.381.547,2.886.557,4.435,0,.188.011.211.177.331.766.106,1.88-.146,2.588,0M104.9,10.58c1.883-.392,2.009,1.945,3.35,2.717l6.727,0a1.243,1.243,0,0,0,.527-.282,15.26,15.26,0,0,0,.966-3.564c.077-.422.549-2.267-.164-2.267h-3.559a1.7,1.7,0,0,1-.889-.892c-.143-1.485,2.117-5.323-1.375-4.284L107.25,6.863c-.611.48-1.624.282-2.35.319Zm-1.78-4.368H99.562V13.33h3.559Z" transform="translate(-81.839 0)" fill="#fff"/>
            <path id="Trazado_1259265" data-name="Trazado 1259265" d="M199.86,102.771v1.78h-1.619c-.436.445,1.124,3.918,1.7,4.373.416.33.7-.712,1.113-.64l1.233,1.2-.795.83c-.121.67,3.75,2.224,4.518,2V110.7h1.781v1.619a8.46,8.46,0,0,0,4.615-1.779l-.721-.914,1.2-1.35,1.049.805a11.358,11.358,0,0,0,1.782-4.528l-1.627-.072-.154-1.616,1.714-.25a9.811,9.811,0,0,0-1.714-4.534l-1.049.8c-.96-1.034-1.734-1.063-.4-2.259a10.165,10.165,0,0,0-4.691-1.783v1.619h-1.781V94.844l-2.167.466-.745-1.6a10.626,10.626,0,0,1,14.4,8.979c.809,10.353-12.134,15.574-18.767,7.6-1.187-1.426-2.781-4.952-2.419-6.795a1.586,1.586,0,0,1,.562-.731Z" transform="translate(-164.503 -77.956)" fill="#fff"/>
            <path id="Trazado_1259266" data-name="Trazado 1259266" d="M227.528,21.807l-1.449.591a25.37,25.37,0,0,0-14.24-12.306l-.129-.292.462-1.408a26.549,26.549,0,0,1,13.4,9.818c.335.469,2.215,3.248,1.96,3.6" transform="translate(-177.461 -7.034)" fill="#fff"/>
            <path id="Trazado_1259267" data-name="Trazado 1259267" d="M188.445,229.33c3.894-.664,5.888,4.45,2.581,6.463a3.54,3.54,0,0,1-4.877-4.877,4.2,4.2,0,0,1,2.3-1.587m.324,1.778c-2.169.375-1.529,3.59.433,3.512a1.774,1.774,0,1,0-.433-3.512" transform="translate(-155.558 -192.181)" fill="#fff"/>
            <path id="Trazado_1259268" data-name="Trazado 1259268" d="M18.494,33c-.281-.393,1.949-3.634,2.352-4.176,1.569-2.106,5.489-6.014,7.876-7.011.839-.35,1.03.726,1.336,1.334A25.194,25.194,0,0,0,19.943,33.591Z" transform="translate(-15.481 -18.228)" fill="#fff"/>
            <path id="Trazado_1259269" data-name="Trazado 1259269" d="M14.321,222.431a23.891,23.891,0,0,0,6.639,9.3l-1.18,1.193a24.9,24.9,0,0,1-7.23-10.008Z" transform="translate(-10.52 -186.447)" fill="#fff"/>
            <path id="Trazado_1259270" data-name="Trazado 1259270" d="M241.9,125.4v5.581c-.966.968-2.4,2.93-3.471,3.65-.591.4-1.206-.491-1.481-.988l3.172-3.308V125.4Z" transform="translate(-198.612 -105.109)" fill="#fff"/>
            <rect id="Rectángulo_455645" data-name="Rectángulo 455645" width="6.148" height="1.78" transform="translate(29.209 21.257)" fill="#fff"/>
            <rect id="Rectángulo_455646" data-name="Rectángulo 455646" width="5.177" height="1.78" transform="translate(32.768 17.698)" fill="#fff"/>
            <rect id="Rectángulo_455647" data-name="Rectángulo 455647" width="1.781" height="1.781" transform="translate(29.208 17.697)" fill="#fff"/>
            <rect id="Rectángulo_455648" data-name="Rectángulo 455648" width="1.781" height="1.781" transform="translate(25.649 21.256)" fill="#fff"/>
          </g>
        </g>
      </g>
    </g>
  </g>
</svg>
