<svg xmlns="http://www.w3.org/2000/svg" xmlns:xlink="http://www.w3.org/1999/xlink" width="84" height="91" viewBox="0 0 84 91">
  <defs>
    <clipPath id="clip-path">
      <rect id="Rect치ngulo_455580" data-name="Rect치ngulo 455580" width="58.174" height="65.899" fill="#0d5365"/>
    </clipPath>
  </defs>
  <g id="Grupo_1204839" data-name="Grupo 1204839" transform="translate(-289.711 -1156)">
    <rect id="Rect치ngulo_455579" data-name="Rect치ngulo 455579" width="84" height="91" rx="12" transform="translate(289.711 1156)" fill="#feea89"/>
    <g id="Grupo_1204529" data-name="Grupo 1204529" transform="translate(302.711 1169)">
      <g id="Grupo_1204528" data-name="Grupo 1204528" clip-path="url(#clip-path)">
        <path id="Trazado_1258841" data-name="Trazado 1258841" d="M1.923,19.322a1.034,1.034,0,0,1-1.89-.384L.112,8.607,8.557,0,41.77.077a1.276,1.276,0,0,1,.319.487V3.881H45.4c.473,0,.622.659.663,1.039a40.829,40.829,0,0,1,0,6.062c-.247,1.267-1.891.665-1.891.193v-5.4c-.677.085-1.584-.255-2.084.284V27.942h2.084V14.775c0-.739,1.682-1.095,1.889.005l0,13.6a9.129,9.129,0,0,1,3.982,14.428c-.847,1.019-2.118,1.58-2.682,2.813-.52,1.137-.713,3.1.135,4.1.773.917,4.635-.149,4.635.86v3.505h3.505a1.446,1.446,0,0,1,.483.653c.857,1.847,1.26,4.341,2.055,6.265-.145,1.085-1.151,1.106-2.066,1.038-.13.818.348,3.526-.421,3.854l-25.216-.05a1.278,1.278,0,0,1-.319-.487V62.046H21.532c-.7,0-.99-1.456-.285-1.8l7.076-.085.693-2.093H6.091v2.084H17.932c.421,0,1.293,1.677-.565,1.9-3.732.444-8.307-.341-12.133,0-.413.091-1.228-.5-1.228-.856V58.067H.881c-.428,0-.994-.949-.861-1.412V23.1c.193-1.48,1.9-1.072,1.9-.559v33.44H29.679l.947-1.895h3.505V50.773a2.174,2.174,0,0,1,.379-.568.621.621,0,0,1,.283-.1c.982-.188,2.933.255,3.76-.029.317-.109.542-.756.639-1.066,1.264-4.043-2.707-5.015-4.148-8.058a9.021,9.021,0,0,1,5.15-12.444V1.8H10.07V9.091a1.85,1.85,0,0,1-.853.853H1.923ZM7.985,3.5,3.628,7.859H7.985ZM45.31,50.11c-.033-.905-.408-1.62-.392-2.56C45,42.557,50.711,42,50.212,36.4c-.786-8.813-14.073-8.275-14.19.555-.059,4.444,3.677,5.155,4.886,8.373a6.975,6.975,0,0,1,.045,4.786ZM50.236,52H36.026c.085.677-.255,1.584.284,2.084H50.236Zm-19.7,8.147h25.2l-1.252-4.18-22.5.038Zm23.683,1.895H32.047V64.13H54.215Z" transform="translate(0)" fill="#0d5365"/>
        <path id="Trazado_1258842" data-name="Trazado 1258842" d="M71.621,150.318c11.859-1.11,13.27,16.836,1.838,17.941-12.059,1.165-13.606-16.839-1.838-17.941m5.846,3.989C71,147.85,60.989,157.477,67.3,164.185c6.4,6.8,16.8-3.246,10.162-9.878" transform="translate(-51.518 -121.798)" fill="#0d5365"/>
        <path id="Trazado_1258843" data-name="Trazado 1258843" d="M43.629,62.461l23.46-.048c1.787-.141,2.256,1.875.375,2.095H43.775c-1.486-.114-1.492-1.636-.146-2.047" transform="translate(-34.561 -50.582)" fill="#0d5365"/>
        <path id="Trazado_1258844" data-name="Trazado 1258844" d="M68.457,84.684c.44.434.133,1.241-.331,1.565l-24.35.1c-1.024-.013-1.53-.995-.768-1.723l24.463-.183a1.728,1.728,0,0,1,.987.243" transform="translate(-34.562 -68.443)" fill="#0d5365"/>
        <path id="Trazado_1258845" data-name="Trazado 1258845" d="M43.123,105.541l12.652-.031c.955.179,1.121,1.721-.37,1.893-3.745.432-8.292-.325-12.125-.007a.963.963,0,0,1-.157-1.854" transform="translate(-34.437 -85.52)" fill="#0d5365"/>
        <path id="Trazado_1258846" data-name="Trazado 1258846" d="M96.025,181.648a1.137,1.137,0,0,0-1.608,0l-3.146,3.146-1.483-1.78a1.137,1.137,0,0,0-1.747,1.455l2.264,2.717a1.213,1.213,0,0,0,1.737.052l3.983-3.983a1.137,1.137,0,0,0,0-1.608" transform="translate(-71.147 -146.962)" fill="#0d5365"/>
      </g>
    </g>
  </g>
</svg>
