<svg xmlns="http://www.w3.org/2000/svg" xmlns:xlink="http://www.w3.org/1999/xlink" width="396" height="519" viewBox="0 0 396 519">
  <defs>
    <clipPath id="clip-path">
      <rect id="Rectángulo_454894" data-name="Rectángulo 454894" width="325.125" height="308.075" fill="none"/>
    </clipPath>
    <radialGradient id="radial-gradient" cx="0.5" cy="0.5" r="0.5" gradientUnits="objectBoundingBox">
      <stop offset="0" stop-color="#fff7d9"/>
      <stop offset="0.745" stop-color="#f4df7a"/>
      <stop offset="1" stop-color="#ebcc30"/>
    </radialGradient>
    <clipPath id="clip-path-2">
      <rect id="Rectángulo_454898" data-name="Rectángulo 454898" width="33.805" height="39.3" fill="#0d5365"/>
    </clipPath>
    <clipPath id="clip-path-3">
      <rect id="Rectángulo_454899" data-name="Rectángulo 454899" width="40.409" height="40.274" fill="#0d5365"/>
    </clipPath>
    <clipPath id="clip-path-4">
      <rect id="Rectángulo_454900" data-name="Rectángulo 454900" width="38.556" height="41.521" fill="#0d5365"/>
    </clipPath>
    <clipPath id="clip-path-5">
      <rect id="Rectángulo_454905" data-name="Rectángulo 454905" width="136.377" height="184.85" fill="none"/>
    </clipPath>
    <clipPath id="clip-path-6">
      <rect id="Rectángulo_454906" data-name="Rectángulo 454906" width="145.066" height="190.993" fill="none"/>
    </clipPath>
    <clipPath id="clip-path-7">
      <rect id="Rectángulo_454972" data-name="Rectángulo 454972" width="396" height="519" transform="translate(-8831 -5820)" fill="#fff" stroke="#707070" stroke-width="1"/>
    </clipPath>
    <clipPath id="clip-path-8">
      <rect id="Rectángulo_454970" data-name="Rectángulo 454970" width="88.924" height="119.919" fill="#c1fbff"/>
    </clipPath>
    <clipPath id="clip-path-9">
      <rect id="Rectángulo_454971" data-name="Rectángulo 454971" width="81.46" height="204.252" fill="#5dd2e4"/>
    </clipPath>
  </defs>
  <g id="Grupo_1204984" data-name="Grupo 1204984" transform="translate(8868 7809.708)">
    <g id="Grupo_1204979" data-name="Grupo 1204979">
      <g id="Grupo_1203779" data-name="Grupo 1203779" transform="translate(-9157.711 -12115.708)">
        <g id="Grupo_1203778" data-name="Grupo 1203778" transform="translate(289.711 4306)">
          <rect id="Rectángulo_454907" data-name="Rectángulo 454907" width="396" height="519" fill="#effeff"/>
          <g id="Grupo_1203775" data-name="Grupo 1203775" transform="translate(18.69 14.72)">
            <g id="Grupo_1203759" data-name="Grupo 1203759" transform="translate(15.59)">
              <g id="Grupo_1203758" data-name="Grupo 1203758" clip-path="url(#clip-path)">
                <path id="Trazado_1257133" data-name="Trazado 1257133" d="M285.747,208.589a39.766,39.766,0,0,0-17,3.55,24.341,24.341,0,0,1-23.551-1.693l-10.253-6.784a28.861,28.861,0,0,1-12.723-26.244q.16-2.235.161-4.511A62.3,62.3,0,0,0,180.9,114.191a13.932,13.932,0,0,1-9.194-13.163V88.39A15.646,15.646,0,0,1,179.6,74.715a39.9,39.9,0,1,0-40.542-.911A19.8,19.8,0,0,1,148.487,90.6v10.429a13.932,13.932,0,0,1-9.194,13.163,62.347,62.347,0,0,0-41.048,66.035,23.778,23.778,0,0,1-10.472,22.621l-11.826,7.824A20.066,20.066,0,0,1,56.514,212.2,39.908,39.908,0,1,0,79.774,250q.06-1.563,0-3.1a19.03,19.03,0,0,1,8.567-16.582l11.134-7.367a21.445,21.445,0,0,1,24.365.593,62.284,62.284,0,0,0,76.366-2.992,14.107,14.107,0,0,1,16.853-.878l20.121,13.314a18.338,18.338,0,0,1,8.142,15.4v.1a39.9,39.9,0,1,0,40.426-39.9" transform="translate(0 0)" fill="#0d5365"/>
                <path id="Trazado_1257134" data-name="Trazado 1257134" d="M81.6,465.791a36.079,36.079,0,1,1-36.079-36.079A36.079,36.079,0,0,1,81.6,465.791" transform="translate(-4.777 -217.315)" fill="#33c7ca"/>
                <path id="Trazado_1257135" data-name="Trazado 1257135" d="M324.166,43.617A36.027,36.027,0,1,1,288.138,7.59a36.027,36.027,0,0,1,36.027,36.027" transform="translate(-127.498 -3.838)" fill="#33c7ca"/>
                <path id="Trazado_1257136" data-name="Trazado 1257136" d="M576.16,465.281a36.247,36.247,0,1,1-36.247-36.247,36.247,36.247,0,0,1,36.247,36.247" transform="translate(-254.715 -216.972)" fill="#33c7ca"/>
                <path id="Trazado_1257137" data-name="Trazado 1257137" d="M323.258,293.052a56.018,56.018,0,1,1-56.018-56.018,56.018,56.018,0,0,1,56.018,56.018" transform="translate(-106.82 -119.873)" fill="url(#radial-gradient)"/>
                <path id="Trazado_1257138" data-name="Trazado 1257138" d="M412.157,71.43a44.629,44.629,0,0,1-.274,4.918c51.7,17.059,88.969,65.263,88.969,122.07a127.187,127.187,0,0,1-5.782,38.015,44.09,44.09,0,0,1,11.286,1.832A141.615,141.615,0,0,0,411.333,62.913a44.367,44.367,0,0,1,.824,8.517" transform="translate(-208.02 -31.817)" fill="#cad6fe"/>
                <path id="Trazado_1257139" data-name="Trazado 1257139" d="M320.3,538.485a131.516,131.516,0,0,1-165.059-.048,44.152,44.152,0,0,1-6.462,10.411,141.449,141.449,0,0,0,177.893.123,44.159,44.159,0,0,1-6.372-10.486" transform="translate(-75.243 -272.3)" fill="#9db7fe"/>
                <path id="Trazado_1257140" data-name="Trazado 1257140" d="M59.522,237.809a127.2,127.2,0,0,1-5.652-37.585c0-54.981,34.914-101.9,84.033-120.326a44.635,44.635,0,0,1,.013-13.415A141.633,141.633,0,0,0,48.254,239.7a44.07,44.07,0,0,1,11.268-1.889" transform="translate(-21.577 -33.622)" fill="#9db7fe"/>
              </g>
            </g>
            <path id="Trazado_1260782" data-name="Trazado 1260782" d="M5.645,15.117h4.977V17H3.3V5.625H5.645Zm5.82-2.422a5.013,5.013,0,0,1,.484-2.242A3.546,3.546,0,0,1,13.344,8.93a4.069,4.069,0,0,1,2.113-.539A3.849,3.849,0,0,1,18.25,9.438a4.2,4.2,0,0,1,1.207,2.844l.016.578a4.418,4.418,0,0,1-1.086,3.121,3.775,3.775,0,0,1-2.914,1.176,3.793,3.793,0,0,1-2.918-1.172,4.5,4.5,0,0,1-1.09-3.187Zm2.258.16a3.16,3.16,0,0,0,.453,1.843,1.628,1.628,0,0,0,2.578.008,3.457,3.457,0,0,0,.461-2.015,3.128,3.128,0,0,0-.461-1.831,1.5,1.5,0,0,0-1.3-.649,1.474,1.474,0,0,0-1.281.646A3.516,3.516,0,0,0,13.723,12.856Zm6.813-.145a4.954,4.954,0,0,1,.926-3.133,3,3,0,0,1,2.5-1.187,2.631,2.631,0,0,1,2.164.953l.094-.8h2.047v8.172a3.613,3.613,0,0,1-.5,1.93A3.236,3.236,0,0,1,26.34,19.9a4.985,4.985,0,0,1-2.141.43,4.635,4.635,0,0,1-1.812-.371A3.217,3.217,0,0,1,21.051,19l1-1.375a2.645,2.645,0,0,0,2.047.945,1.936,1.936,0,0,0,1.4-.48,1.8,1.8,0,0,0,.5-1.363v-.453a2.612,2.612,0,0,1-2.055.883,2.992,2.992,0,0,1-2.465-1.191,4.953,4.953,0,0,1-.941-3.16Zm2.258.168a3.085,3.085,0,0,0,.461,1.8,1.466,1.466,0,0,0,1.266.653A1.568,1.568,0,0,0,26,14.561V11a1.564,1.564,0,0,0-1.461-.775,1.476,1.476,0,0,0-1.277.665A3.477,3.477,0,0,0,22.793,12.879Zm11.953-2.215a6.134,6.134,0,0,0-.812-.062,1.654,1.654,0,0,0-1.68.867V17H30V8.547h2.133l.063,1.008a2.092,2.092,0,0,1,1.883-1.164,2.366,2.366,0,0,1,.7.1ZM35.2,12.7a5.013,5.013,0,0,1,.484-2.242A3.546,3.546,0,0,1,37.078,8.93a4.069,4.069,0,0,1,2.113-.539,3.849,3.849,0,0,1,2.793,1.047,4.2,4.2,0,0,1,1.207,2.844l.016.578a4.418,4.418,0,0,1-1.086,3.121,4.209,4.209,0,0,1-5.832,0A4.5,4.5,0,0,1,35.2,12.8Zm2.258.16A3.16,3.16,0,0,0,37.91,14.7a1.628,1.628,0,0,0,2.578.008,3.457,3.457,0,0,0,.461-2.015,3.128,3.128,0,0,0-.461-1.831,1.5,1.5,0,0,0-1.3-.649,1.474,1.474,0,0,0-1.281.646A3.516,3.516,0,0,0,37.457,12.856Zm10.773-.145a5.094,5.094,0,0,1,.887-3.148,2.877,2.877,0,0,1,2.426-1.172,2.589,2.589,0,0,1,2.039.922V5h2.266V17H53.809l-.109-.9a2.657,2.657,0,0,1-2.172,1.055,2.869,2.869,0,0,1-2.395-1.176A5.258,5.258,0,0,1,48.23,12.711Zm2.258.168A3.337,3.337,0,0,0,50.9,14.7a1.349,1.349,0,0,0,1.2.634,1.511,1.511,0,0,0,1.477-.884V11.111a1.489,1.489,0,0,0-1.461-.884Q50.488,10.227,50.488,12.879Zm11,4.277a4.15,4.15,0,0,1-3.027-1.141,4.054,4.054,0,0,1-1.168-3.039v-.219a5.106,5.106,0,0,1,.492-2.277A3.612,3.612,0,0,1,59.18,8.934a3.914,3.914,0,0,1,2.059-.543,3.508,3.508,0,0,1,2.73,1.094,4.444,4.444,0,0,1,1,3.1v.922H59.582a2.1,2.1,0,0,0,.66,1.328,2,2,0,0,0,1.395.5,2.437,2.437,0,0,0,2.039-.945l1.109,1.242a3.389,3.389,0,0,1-1.375,1.121A4.511,4.511,0,0,1,61.488,17.156Zm-.258-6.945a1.411,1.411,0,0,0-1.09.455,2.357,2.357,0,0,0-.535,1.3h3.141v-.181a1.681,1.681,0,0,0-.406-1.165A1.456,1.456,0,0,0,61.23,10.211ZM72.613,17H70.348V5h2.266Zm1.508-4.3a5.013,5.013,0,0,1,.484-2.242A3.546,3.546,0,0,1,76,8.93a4.069,4.069,0,0,1,2.113-.539,3.849,3.849,0,0,1,2.793,1.047,4.2,4.2,0,0,1,1.207,2.844l.016.578a4.418,4.418,0,0,1-1.086,3.121,4.209,4.209,0,0,1-5.832,0,4.5,4.5,0,0,1-1.09-3.187Zm2.258.16a3.16,3.16,0,0,0,.453,1.843,1.628,1.628,0,0,0,2.578.008,3.457,3.457,0,0,0,.461-2.015,3.128,3.128,0,0,0-.461-1.831,1.5,1.5,0,0,0-1.3-.649,1.474,1.474,0,0,0-1.281.646A3.516,3.516,0,0,0,76.379,12.856ZM88.1,14.664a.727.727,0,0,0-.41-.652,4.659,4.659,0,0,0-1.316-.426q-3.016-.633-3.016-2.562a2.323,2.323,0,0,1,.934-1.879,3.766,3.766,0,0,1,2.441-.754,4.053,4.053,0,0,1,2.574.758,2.388,2.388,0,0,1,.965,1.969H88.012a1.092,1.092,0,0,0-.312-.8A1.322,1.322,0,0,0,86.723,10a1.351,1.351,0,0,0-.883.258.814.814,0,0,0-.312.656.7.7,0,0,0,.355.605,3.657,3.657,0,0,0,1.2.4A9.8,9.8,0,0,1,88.5,12.3a2.336,2.336,0,0,1,1.789,2.273,2.2,2.2,0,0,1-.992,1.871,4.28,4.28,0,0,1-2.562.715,4.47,4.47,0,0,1-1.887-.379,3.166,3.166,0,0,1-1.293-1.039,2.414,2.414,0,0,1-.469-1.426H85.23a1.179,1.179,0,0,0,.445.922,1.766,1.766,0,0,0,1.109.32,1.635,1.635,0,0,0,.98-.246A.766.766,0,0,0,88.1,14.664ZM14.223,32.7a5.013,5.013,0,0,1,.484-2.242A3.546,3.546,0,0,1,16.1,28.93a4.069,4.069,0,0,1,2.113-.539,3.849,3.849,0,0,1,2.793,1.047,4.2,4.2,0,0,1,1.207,2.844l.016.578a4.418,4.418,0,0,1-1.086,3.121,3.775,3.775,0,0,1-2.914,1.176,3.793,3.793,0,0,1-2.918-1.172,4.5,4.5,0,0,1-1.09-3.187Zm2.258.16a3.16,3.16,0,0,0,.453,1.843,1.628,1.628,0,0,0,2.578.008,3.457,3.457,0,0,0,.461-2.015,3.128,3.128,0,0,0-.461-1.831,1.5,1.5,0,0,0-1.3-.649,1.474,1.474,0,0,0-1.281.646A3.516,3.516,0,0,0,16.48,32.856Zm14.758,0a5.119,5.119,0,0,1-.867,3.168,2.872,2.872,0,0,1-2.422,1.137,2.639,2.639,0,0,1-2.2-1.055l-.1.9H23.621V25h2.258v4.3a2.571,2.571,0,0,1,2.055-.914,2.9,2.9,0,0,1,2.426,1.137,5.126,5.126,0,0,1,.879,3.2Zm-2.258-.164a3.363,3.363,0,0,0-.406-1.871,1.374,1.374,0,0,0-1.211-.59,1.489,1.489,0,0,0-1.484.883v3.336a1.509,1.509,0,0,0,1.5.891,1.394,1.394,0,0,0,1.438-1.078A5.562,5.562,0,0,0,28.98,32.688Zm6.039-4.141v8.914a3.024,3.024,0,0,1-.742,2.176,2.821,2.821,0,0,1-2.141.777,4.591,4.591,0,0,1-1.117-.133V38.492a4.238,4.238,0,0,0,.711.07q1.023,0,1.023-1.086v-8.93Zm-2.445-2.187a1.112,1.112,0,0,1,.34-.836,1.47,1.47,0,0,1,1.852,0,1.2,1.2,0,0,1-.008,1.68,1.448,1.448,0,0,1-1.836,0A1.108,1.108,0,0,1,32.574,26.359Zm8.1,10.8a4.15,4.15,0,0,1-3.027-1.141,4.054,4.054,0,0,1-1.168-3.039v-.219a5.106,5.106,0,0,1,.492-2.277,3.612,3.612,0,0,1,1.395-1.547,3.914,3.914,0,0,1,2.059-.543,3.508,3.508,0,0,1,2.73,1.094,4.444,4.444,0,0,1,1,3.1v.922H38.77a2.1,2.1,0,0,0,.66,1.328,2,2,0,0,0,1.395.5,2.437,2.437,0,0,0,2.039-.945l1.109,1.242A3.389,3.389,0,0,1,42.6,36.754,4.511,4.511,0,0,1,40.676,37.156Zm-.258-6.945a1.411,1.411,0,0,0-1.09.455,2.357,2.357,0,0,0-.535,1.3h3.141v-.181a1.681,1.681,0,0,0-.406-1.165A1.456,1.456,0,0,0,40.418,30.211Zm7.719-3.742v2.078h1.445V30.2H48.137v4.219a1.007,1.007,0,0,0,.18.672.9.9,0,0,0,.688.2,3.6,3.6,0,0,0,.664-.055v1.711a4.648,4.648,0,0,1-1.367.2,2.156,2.156,0,0,1-2.422-2.4V30.2H44.645V28.547h1.234V26.469ZM53.223,37H50.957V28.547h2.266Zm-2.4-10.641a1.112,1.112,0,0,1,.34-.836,1.465,1.465,0,0,1,1.848,0,1.193,1.193,0,0,1,0,1.68,1.448,1.448,0,0,1-1.836,0A1.108,1.108,0,0,1,50.824,26.359Zm7.422,7.883,1.57-5.7h2.359L59.324,37H57.168l-2.852-8.453h2.359ZM62.7,32.7a5.013,5.013,0,0,1,.484-2.242,3.546,3.546,0,0,1,1.395-1.523,4.069,4.069,0,0,1,2.113-.539,3.849,3.849,0,0,1,2.793,1.047,4.2,4.2,0,0,1,1.207,2.844l.016.578a4.418,4.418,0,0,1-1.086,3.121,4.209,4.209,0,0,1-5.832,0A4.5,4.5,0,0,1,62.7,32.8Zm2.258.16A3.16,3.16,0,0,0,65.41,34.7a1.628,1.628,0,0,0,2.578.008,3.457,3.457,0,0,0,.461-2.015,3.128,3.128,0,0,0-.461-1.831,1.5,1.5,0,0,0-1.3-.649,1.474,1.474,0,0,0-1.281.646A3.516,3.516,0,0,0,64.957,32.856Zm11.719,1.808a.727.727,0,0,0-.41-.652,4.659,4.659,0,0,0-1.316-.426q-3.016-.633-3.016-2.562a2.323,2.323,0,0,1,.934-1.879,3.766,3.766,0,0,1,2.441-.754,4.053,4.053,0,0,1,2.574.758,2.388,2.388,0,0,1,.965,1.969H76.59a1.092,1.092,0,0,0-.312-.8A1.322,1.322,0,0,0,75.3,30a1.351,1.351,0,0,0-.883.258.814.814,0,0,0-.312.656.7.7,0,0,0,.355.605,3.657,3.657,0,0,0,1.2.4,9.8,9.8,0,0,1,1.422.379,2.336,2.336,0,0,1,1.789,2.273,2.2,2.2,0,0,1-.992,1.871,4.28,4.28,0,0,1-2.562.715,4.47,4.47,0,0,1-1.887-.379,3.166,3.166,0,0,1-1.293-1.039,2.414,2.414,0,0,1-.469-1.426h2.141a1.179,1.179,0,0,0,.445.922,1.766,1.766,0,0,0,1.109.32,1.635,1.635,0,0,0,.98-.246A.766.766,0,0,0,76.676,34.664ZM6.586,57.156a4.15,4.15,0,0,1-3.027-1.141,4.054,4.054,0,0,1-1.168-3.039v-.219a5.106,5.106,0,0,1,.492-2.277,3.612,3.612,0,0,1,1.395-1.547,3.914,3.914,0,0,1,2.059-.543,3.508,3.508,0,0,1,2.73,1.094,4.444,4.444,0,0,1,1,3.1v.922H4.68a2.1,2.1,0,0,0,.66,1.328,2,2,0,0,0,1.395.5,2.437,2.437,0,0,0,2.039-.945l1.109,1.242a3.389,3.389,0,0,1-1.375,1.121A4.511,4.511,0,0,1,6.586,57.156Zm-.258-6.945a1.411,1.411,0,0,0-1.09.455,2.357,2.357,0,0,0-.535,1.3H7.844v-.181a1.681,1.681,0,0,0-.406-1.165A1.456,1.456,0,0,0,6.328,50.211Zm9.594,4.453a.727.727,0,0,0-.41-.652,4.659,4.659,0,0,0-1.316-.426q-3.016-.633-3.016-2.562a2.323,2.323,0,0,1,.934-1.879,3.766,3.766,0,0,1,2.441-.754,4.053,4.053,0,0,1,2.574.758,2.388,2.388,0,0,1,.965,1.969H15.836a1.092,1.092,0,0,0-.312-.8A1.322,1.322,0,0,0,14.547,50a1.351,1.351,0,0,0-.883.258.814.814,0,0,0-.312.656.7.7,0,0,0,.355.605,3.657,3.657,0,0,0,1.2.4,9.8,9.8,0,0,1,1.422.379,2.336,2.336,0,0,1,1.789,2.273,2.2,2.2,0,0,1-.992,1.871,4.28,4.28,0,0,1-2.563.715,4.47,4.47,0,0,1-1.887-.379,3.166,3.166,0,0,1-1.293-1.039,2.414,2.414,0,0,1-.469-1.426h2.141a1.179,1.179,0,0,0,.445.922,1.766,1.766,0,0,0,1.109.32,1.635,1.635,0,0,0,.98-.246A.766.766,0,0,0,15.922,54.664Zm6.352-8.2v2.078h1.445V50.2H22.273v4.219a1.007,1.007,0,0,0,.18.672.9.9,0,0,0,.688.2,3.6,3.6,0,0,0,.664-.055v1.711a4.648,4.648,0,0,1-1.367.2,2.156,2.156,0,0,1-2.422-2.4V50.2H18.781V48.547h1.234V46.469Zm7.453,4.2a6.134,6.134,0,0,0-.812-.062,1.654,1.654,0,0,0-1.68.867V57H24.977V48.547h2.133l.063,1.008a2.092,2.092,0,0,1,1.883-1.164,2.366,2.366,0,0,1,.7.1ZM35.477,57a2.507,2.507,0,0,1-.227-.758,2.732,2.732,0,0,1-2.133.914,3,3,0,0,1-2.059-.719,2.312,2.312,0,0,1-.816-1.812,2.389,2.389,0,0,1,1-2.062,4.915,4.915,0,0,1,2.879-.727h1.039v-.484a1.393,1.393,0,0,0-.3-.937,1.183,1.183,0,0,0-.949-.352,1.345,1.345,0,0,0-.895.273.929.929,0,0,0-.324.75H30.43a2.268,2.268,0,0,1,.453-1.359,3,3,0,0,1,1.281-.98,4.669,4.669,0,0,1,1.859-.355,3.689,3.689,0,0,1,2.48.785,2.747,2.747,0,0,1,.918,2.207v3.664a4.041,4.041,0,0,0,.336,1.82V57Zm-1.867-1.57a1.945,1.945,0,0,0,.922-.223,1.462,1.462,0,0,0,.625-.6V53.156h-.844q-1.7,0-1.8,1.172l-.008.133a.9.9,0,0,0,.3.7A1.153,1.153,0,0,0,33.609,55.43Zm8.25-8.961v2.078H43.3V50.2H41.859v4.219a1.007,1.007,0,0,0,.18.672.9.9,0,0,0,.688.2,3.6,3.6,0,0,0,.664-.055v1.711a4.648,4.648,0,0,1-1.367.2,2.156,2.156,0,0,1-2.422-2.4V50.2H38.367V48.547H39.6V46.469Zm6.594,10.688a4.15,4.15,0,0,1-3.027-1.141,4.054,4.054,0,0,1-1.168-3.039v-.219a5.106,5.106,0,0,1,.492-2.277,3.612,3.612,0,0,1,1.395-1.547,3.914,3.914,0,0,1,2.059-.543,3.508,3.508,0,0,1,2.73,1.094,4.444,4.444,0,0,1,1,3.1v.922H46.547a2.1,2.1,0,0,0,.66,1.328,2,2,0,0,0,1.395.5,2.437,2.437,0,0,0,2.039-.945l1.109,1.242a3.389,3.389,0,0,1-1.375,1.121A4.511,4.511,0,0,1,48.453,57.156ZM48.2,50.211a1.411,1.411,0,0,0-1.09.455,2.357,2.357,0,0,0-.535,1.3h3.141v-.181a1.681,1.681,0,0,0-.406-1.165A1.456,1.456,0,0,0,48.2,50.211ZM48.4,45h2.461L48.7,47.422H46.859Zm4.484,7.711a4.954,4.954,0,0,1,.926-3.133,3,3,0,0,1,2.5-1.187,2.631,2.631,0,0,1,2.164.953l.094-.8h2.047v8.172a3.613,3.613,0,0,1-.5,1.93,3.236,3.236,0,0,1-1.418,1.25,4.985,4.985,0,0,1-2.141.43,4.635,4.635,0,0,1-1.812-.371A3.217,3.217,0,0,1,53.4,59l1-1.375a2.645,2.645,0,0,0,2.047.945,1.936,1.936,0,0,0,1.4-.48,1.8,1.8,0,0,0,.5-1.363v-.453a2.612,2.612,0,0,1-2.055.883,2.992,2.992,0,0,1-2.465-1.191,4.953,4.953,0,0,1-.941-3.16Zm2.258.168a3.085,3.085,0,0,0,.461,1.8,1.466,1.466,0,0,0,1.266.653,1.568,1.568,0,0,0,1.477-.775V51a1.564,1.564,0,0,0-1.461-.775,1.476,1.476,0,0,0-1.277.665A3.477,3.477,0,0,0,55.141,52.879ZM64.727,57H62.461V48.547h2.266Zm-2.4-10.641a1.112,1.112,0,0,1,.34-.836,1.465,1.465,0,0,1,1.848,0,1.193,1.193,0,0,1,0,1.68,1.448,1.448,0,0,1-1.836,0A1.108,1.108,0,0,1,62.328,46.359ZM70.1,55.336a1.481,1.481,0,0,0,1.016-.344,1.2,1.2,0,0,0,.406-.914h2.117a2.9,2.9,0,0,1-.469,1.574,3.093,3.093,0,0,1-1.262,1.109,3.949,3.949,0,0,1-1.77.395A3.67,3.67,0,0,1,67.281,56a4.56,4.56,0,0,1-1.047-3.184v-.148a4.508,4.508,0,0,1,1.039-3.117,3.627,3.627,0,0,1,2.852-1.164,3.555,3.555,0,0,1,2.543.9,3.2,3.2,0,0,1,.973,2.4H71.523a1.551,1.551,0,0,0-.406-1.072,1.51,1.51,0,0,0-2.223.163,3.333,3.333,0,0,0-.4,1.866v.235a3.375,3.375,0,0,0,.4,1.878A1.377,1.377,0,0,0,70.1,55.336ZM74.578,52.7a5.013,5.013,0,0,1,.484-2.242,3.546,3.546,0,0,1,1.395-1.523,4.069,4.069,0,0,1,2.113-.539,3.849,3.849,0,0,1,2.793,1.047,4.2,4.2,0,0,1,1.207,2.844l.016.578A4.418,4.418,0,0,1,81.5,55.98a4.209,4.209,0,0,1-5.832,0,4.5,4.5,0,0,1-1.09-3.187Zm2.258.16a3.16,3.16,0,0,0,.453,1.843,1.628,1.628,0,0,0,2.578.008,3.457,3.457,0,0,0,.461-2.015,3.128,3.128,0,0,0-.461-1.831,1.5,1.5,0,0,0-1.3-.649,1.474,1.474,0,0,0-1.281.646A3.516,3.516,0,0,0,76.836,52.856Zm11.719,1.808a.727.727,0,0,0-.41-.652,4.659,4.659,0,0,0-1.316-.426q-3.016-.633-3.016-2.562a2.323,2.323,0,0,1,.934-1.879,3.766,3.766,0,0,1,2.441-.754,4.053,4.053,0,0,1,2.574.758,2.388,2.388,0,0,1,.965,1.969H88.469a1.092,1.092,0,0,0-.312-.8A1.322,1.322,0,0,0,87.18,50a1.351,1.351,0,0,0-.883.258.814.814,0,0,0-.312.656.7.7,0,0,0,.355.605,3.657,3.657,0,0,0,1.2.4,9.8,9.8,0,0,1,1.422.379A2.336,2.336,0,0,1,90.75,54.57a2.2,2.2,0,0,1-.992,1.871,4.28,4.28,0,0,1-2.562.715,4.47,4.47,0,0,1-1.887-.379,3.166,3.166,0,0,1-1.293-1.039,2.414,2.414,0,0,1-.469-1.426h2.141a1.179,1.179,0,0,0,.445.922,1.766,1.766,0,0,0,1.109.32,1.635,1.635,0,0,0,.98-.246A.766.766,0,0,0,88.555,54.664Z" transform="translate(129.19 145.019)" fill="#12263f"/>
            <path id="Trazado_1260783" data-name="Trazado 1260783" d="M12.379,0h94.526a12.379,12.379,0,0,1,0,24.759H12.379A12.379,12.379,0,0,1,12.379,0Z" transform="translate(116.979 59.447)" fill="#ebcc30"/>
            <path id="Trazado_1260784" data-name="Trazado 1260784" d="M22.261,0H94.719a22.261,22.261,0,0,1,0,44.521H22.261A22.261,22.261,0,0,1,22.261,0Z" transform="translate(0 263.554)" fill="#ebcc30"/>
            <path id="Trazado_1260785" data-name="Trazado 1260785" d="M20.89,12.836H19.023V17H16.68V5.625h4.227a4.778,4.778,0,0,1,3.109.9,3.1,3.1,0,0,1,1.094,2.539,3.5,3.5,0,0,1-.5,1.941,3.437,3.437,0,0,1-1.527,1.238l2.461,4.648V17H23.023Zm-1.867-1.9h1.891a1.936,1.936,0,0,0,1.367-.449,1.606,1.606,0,0,0,.484-1.238,1.719,1.719,0,0,0-.457-1.266,1.9,1.9,0,0,0-1.4-.461H19.023ZM29.125,17H26.859V8.547h2.266Zm-2.4-10.641a1.112,1.112,0,0,1,.34-.836,1.465,1.465,0,0,1,1.848,0,1.105,1.105,0,0,1,.344.836,1.108,1.108,0,0,1-.348.844,1.448,1.448,0,0,1-1.836,0A1.108,1.108,0,0,1,26.726,6.359Zm8.148,10.8a4.15,4.15,0,0,1-3.027-1.141,4.054,4.054,0,0,1-1.168-3.039v-.219a5.106,5.106,0,0,1,.492-2.277,3.612,3.612,0,0,1,1.395-1.547,3.914,3.914,0,0,1,2.059-.543,3.508,3.508,0,0,1,2.73,1.094,4.444,4.444,0,0,1,1,3.1v.922H32.969a2.1,2.1,0,0,0,.66,1.328,2,2,0,0,0,1.395.5,2.437,2.437,0,0,0,2.039-.945l1.109,1.242A3.389,3.389,0,0,1,36.8,16.754,4.511,4.511,0,0,1,34.875,17.156Zm-.258-6.945a1.411,1.411,0,0,0-1.09.455,2.357,2.357,0,0,0-.535,1.3h3.141v-.181a1.681,1.681,0,0,0-.406-1.165A1.456,1.456,0,0,0,34.617,10.211Zm9.594,4.453a.727.727,0,0,0-.41-.652,4.659,4.659,0,0,0-1.316-.426q-3.016-.633-3.016-2.562A2.323,2.323,0,0,1,40.4,9.145a3.766,3.766,0,0,1,2.441-.754,4.053,4.053,0,0,1,2.574.758,2.388,2.388,0,0,1,.965,1.969H44.125a1.092,1.092,0,0,0-.312-.8A1.322,1.322,0,0,0,42.836,10a1.351,1.351,0,0,0-.883.258.814.814,0,0,0-.312.656A.7.7,0,0,0,42,11.52a3.657,3.657,0,0,0,1.2.4,9.8,9.8,0,0,1,1.422.379,2.336,2.336,0,0,1,1.789,2.273,2.2,2.2,0,0,1-.992,1.871,4.28,4.28,0,0,1-2.562.715,4.47,4.47,0,0,1-1.887-.379,3.166,3.166,0,0,1-1.293-1.039,2.414,2.414,0,0,1-.469-1.426h2.141a1.179,1.179,0,0,0,.445.922,1.766,1.766,0,0,0,1.109.32,1.635,1.635,0,0,0,.98-.246A.766.766,0,0,0,44.211,14.664Zm3.32-1.953a4.954,4.954,0,0,1,.926-3.133,3,3,0,0,1,2.5-1.187,2.631,2.631,0,0,1,2.164.953l.094-.8h2.047v8.172a3.613,3.613,0,0,1-.5,1.93,3.236,3.236,0,0,1-1.418,1.25,4.985,4.985,0,0,1-2.141.43,4.635,4.635,0,0,1-1.812-.371A3.217,3.217,0,0,1,48.047,19l1-1.375a2.645,2.645,0,0,0,2.047.945,1.936,1.936,0,0,0,1.4-.48,1.8,1.8,0,0,0,.5-1.363v-.453a2.612,2.612,0,0,1-2.055.883,2.992,2.992,0,0,1-2.465-1.191,4.953,4.953,0,0,1-.941-3.16Zm2.258.168a3.085,3.085,0,0,0,.461,1.8,1.466,1.466,0,0,0,1.266.653,1.568,1.568,0,0,0,1.477-.775V11a1.564,1.564,0,0,0-1.461-.775,1.476,1.476,0,0,0-1.277.665A3.477,3.477,0,0,0,49.789,12.879ZM56.64,12.7a5.013,5.013,0,0,1,.484-2.242A3.546,3.546,0,0,1,58.519,8.93a4.069,4.069,0,0,1,2.113-.539,3.849,3.849,0,0,1,2.793,1.047,4.2,4.2,0,0,1,1.207,2.844l.016.578a4.418,4.418,0,0,1-1.086,3.121,4.209,4.209,0,0,1-5.832,0A4.5,4.5,0,0,1,56.64,12.8Zm2.258.16a3.16,3.16,0,0,0,.453,1.843,1.628,1.628,0,0,0,2.578.008,3.457,3.457,0,0,0,.461-2.015,3.128,3.128,0,0,0-.461-1.831,1.5,1.5,0,0,0-1.3-.649,1.474,1.474,0,0,0-1.281.646A3.516,3.516,0,0,0,58.9,12.856Zm11.719,1.808a.727.727,0,0,0-.41-.652,4.659,4.659,0,0,0-1.316-.426q-3.016-.633-3.016-2.562a2.323,2.323,0,0,1,.934-1.879,3.766,3.766,0,0,1,2.441-.754,4.053,4.053,0,0,1,2.574.758,2.388,2.388,0,0,1,.965,1.969H70.531a1.092,1.092,0,0,0-.312-.8A1.322,1.322,0,0,0,69.242,10a1.351,1.351,0,0,0-.883.258.814.814,0,0,0-.312.656.7.7,0,0,0,.355.605,3.657,3.657,0,0,0,1.2.4,9.8,9.8,0,0,1,1.422.379,2.336,2.336,0,0,1,1.789,2.273,2.2,2.2,0,0,1-.992,1.871,4.28,4.28,0,0,1-2.562.715,4.47,4.47,0,0,1-1.887-.379,3.166,3.166,0,0,1-1.293-1.039,2.414,2.414,0,0,1-.469-1.426H67.75a1.179,1.179,0,0,0,.445.922,1.766,1.766,0,0,0,1.109.32,1.635,1.635,0,0,0,.98-.246A.766.766,0,0,0,70.617,14.664Z" transform="translate(131.886 63.567)" fill="#12263f"/>
            <path id="Trazado_1260786" data-name="Trazado 1260786" d="M12.379,0h109.77a12.379,12.379,0,0,1,0,24.759H12.379A12.379,12.379,0,0,1,12.379,0Z" transform="translate(228.782 267.687)" fill="#ebcc30"/>
            <path id="Trazado_1260787" data-name="Trazado 1260787" d="M15.041,11.57a6.867,6.867,0,0,1-.594,2.945,4.472,4.472,0,0,1-1.7,1.953,4.7,4.7,0,0,1-2.535.688,4.732,4.732,0,0,1-2.523-.68,4.515,4.515,0,0,1-1.719-1.941,6.67,6.67,0,0,1-.617-2.9V11.07a6.831,6.831,0,0,1,.605-2.957A4.508,4.508,0,0,1,7.67,6.152,4.706,4.706,0,0,1,10.2,5.469a4.706,4.706,0,0,1,2.527.684,4.508,4.508,0,0,1,1.711,1.961,6.811,6.811,0,0,1,.605,2.949Zm-2.375-.516a4.787,4.787,0,0,0-.641-2.719,2.088,2.088,0,0,0-1.828-.93,2.088,2.088,0,0,0-1.82.918,4.732,4.732,0,0,0-.648,2.691v.555a4.847,4.847,0,0,0,.641,2.7,2.082,2.082,0,0,0,1.844.961,2.064,2.064,0,0,0,1.813-.926,4.819,4.819,0,0,0,.641-2.7Zm11.539,1.8a5.07,5.07,0,0,1-.887,3.129,2.843,2.843,0,0,1-2.395,1.176,2.633,2.633,0,0,1-2.07-.891V20.25H16.6V8.547h2.094l.078.828a2.654,2.654,0,0,1,2.141-.984,2.862,2.862,0,0,1,2.43,1.156,5.207,5.207,0,0,1,.867,3.188Zm-2.258-.164a3.327,3.327,0,0,0-.418-1.82,1.361,1.361,0,0,0-1.215-.641,1.478,1.478,0,0,0-1.461.813V14.5a1.5,1.5,0,0,0,1.477.836Q21.947,15.336,21.947,12.688Zm3.3.008a5.013,5.013,0,0,1,.484-2.242A3.546,3.546,0,0,1,27.131,8.93a4.069,4.069,0,0,1,2.113-.539,3.849,3.849,0,0,1,2.793,1.047,4.2,4.2,0,0,1,1.207,2.844l.016.578a4.418,4.418,0,0,1-1.086,3.121,3.775,3.775,0,0,1-2.914,1.176,3.793,3.793,0,0,1-2.918-1.172,4.5,4.5,0,0,1-1.09-3.187Zm2.258.16a3.16,3.16,0,0,0,.453,1.843,1.628,1.628,0,0,0,2.578.008A3.457,3.457,0,0,0,31,12.691a3.128,3.128,0,0,0-.461-1.831,1.5,1.5,0,0,0-1.3-.649,1.474,1.474,0,0,0-1.281.646A3.516,3.516,0,0,0,27.51,12.856ZM39.4,10.664a6.134,6.134,0,0,0-.812-.062,1.654,1.654,0,0,0-1.68.867V17H34.65V8.547h2.133l.063,1.008a2.092,2.092,0,0,1,1.883-1.164,2.366,2.366,0,0,1,.7.1Zm4.18-4.2V8.547h1.445V10.2H43.58v4.219a1.007,1.007,0,0,0,.18.672.9.9,0,0,0,.688.2,3.6,3.6,0,0,0,.664-.055v1.711a4.648,4.648,0,0,1-1.367.2,2.156,2.156,0,0,1-2.422-2.4V10.2H40.088V8.547h1.234V6.469Zm7.766,9.672a2.831,2.831,0,0,1-2.312,1.016,2.67,2.67,0,0,1-2.074-.781,3.335,3.335,0,0,1-.73-2.289V8.547h2.258v5.467q0,1.322,1.2,1.322a1.63,1.63,0,0,0,1.578-.8V8.547h2.266V17H51.408Zm5.969-7.594.07.977a2.951,2.951,0,0,1,2.43-1.133,2.453,2.453,0,0,1,2,.789,3.682,3.682,0,0,1,.672,2.359V17H60.228V11.594a1.465,1.465,0,0,0-.312-1.043,1.4,1.4,0,0,0-1.039-.324,1.553,1.553,0,0,0-1.43.813V17H55.189V8.547ZM66.58,17H64.314V8.547H66.58Zm-2.4-10.641a1.112,1.112,0,0,1,.34-.836,1.465,1.465,0,0,1,1.848,0,1.105,1.105,0,0,1,.344.836,1.108,1.108,0,0,1-.348.844,1.448,1.448,0,0,1-1.836,0A1.108,1.108,0,0,1,64.181,6.359Zm3.906,6.352a5.094,5.094,0,0,1,.887-3.148A2.877,2.877,0,0,1,71.4,8.391a2.589,2.589,0,0,1,2.039.922V5H75.7V17H73.666l-.109-.9a2.657,2.657,0,0,1-2.172,1.055A2.869,2.869,0,0,1,68.99,15.98,5.258,5.258,0,0,1,68.088,12.711Zm2.258.168A3.337,3.337,0,0,0,70.76,14.7a1.349,1.349,0,0,0,1.2.634,1.511,1.511,0,0,0,1.477-.884V11.111a1.489,1.489,0,0,0-1.461-.884Q70.346,10.227,70.346,12.879ZM82.353,17a2.507,2.507,0,0,1-.227-.758,2.732,2.732,0,0,1-2.133.914,3,3,0,0,1-2.059-.719,2.312,2.312,0,0,1-.816-1.812,2.389,2.389,0,0,1,1-2.062,4.915,4.915,0,0,1,2.879-.727h1.039v-.484a1.393,1.393,0,0,0-.3-.937,1.183,1.183,0,0,0-.949-.352,1.345,1.345,0,0,0-.895.273.929.929,0,0,0-.324.75H77.306a2.268,2.268,0,0,1,.453-1.359,3,3,0,0,1,1.281-.98A4.669,4.669,0,0,1,80.9,8.391a3.689,3.689,0,0,1,2.48.785,2.747,2.747,0,0,1,.918,2.207v3.664a4.041,4.041,0,0,0,.336,1.82V17Zm-1.867-1.57a1.945,1.945,0,0,0,.922-.223,1.462,1.462,0,0,0,.625-.6V13.156h-.844q-1.7,0-1.8,1.172l-.008.133a.9.9,0,0,0,.3.7A1.153,1.153,0,0,0,80.486,15.43Zm5.2-2.719a5.094,5.094,0,0,1,.887-3.148,2.877,2.877,0,0,1,2.426-1.172,2.589,2.589,0,0,1,2.039.922V5H93.3V17H91.26l-.109-.9a2.657,2.657,0,0,1-2.172,1.055,2.869,2.869,0,0,1-2.395-1.176A5.258,5.258,0,0,1,85.681,12.711Zm2.258.168a3.337,3.337,0,0,0,.414,1.823,1.349,1.349,0,0,0,1.2.634,1.511,1.511,0,0,0,1.477-.884V11.111a1.489,1.489,0,0,0-1.461-.884Q87.939,10.227,87.939,12.879Zm11,4.277a4.15,4.15,0,0,1-3.027-1.141,4.054,4.054,0,0,1-1.168-3.039v-.219a5.106,5.106,0,0,1,.492-2.277,3.612,3.612,0,0,1,1.395-1.547,3.914,3.914,0,0,1,2.059-.543,3.508,3.508,0,0,1,2.73,1.094,4.444,4.444,0,0,1,1,3.1v.922H97.033a2.1,2.1,0,0,0,.66,1.328,2,2,0,0,0,1.395.5,2.437,2.437,0,0,0,2.039-.945l1.109,1.242a3.389,3.389,0,0,1-1.375,1.121A4.511,4.511,0,0,1,98.939,17.156Zm-.258-6.945a1.411,1.411,0,0,0-1.09.455,2.357,2.357,0,0,0-.535,1.3H100.2v-.181a1.681,1.681,0,0,0-.406-1.165A1.456,1.456,0,0,0,98.681,10.211Zm9.594,4.453a.727.727,0,0,0-.41-.652,4.659,4.659,0,0,0-1.316-.426q-3.016-.633-3.016-2.562a2.323,2.323,0,0,1,.934-1.879,3.766,3.766,0,0,1,2.441-.754,4.053,4.053,0,0,1,2.574.758,2.388,2.388,0,0,1,.965,1.969h-2.258a1.092,1.092,0,0,0-.312-.8A1.322,1.322,0,0,0,106.9,10a1.351,1.351,0,0,0-.883.258.814.814,0,0,0-.312.656.7.7,0,0,0,.355.605,3.657,3.657,0,0,0,1.2.4,9.8,9.8,0,0,1,1.422.379,2.336,2.336,0,0,1,1.789,2.273,2.2,2.2,0,0,1-.992,1.871,4.28,4.28,0,0,1-2.562.715,4.47,4.47,0,0,1-1.887-.379,3.166,3.166,0,0,1-1.293-1.039,2.414,2.414,0,0,1-.469-1.426h2.141a1.179,1.179,0,0,0,.445.922,1.766,1.766,0,0,0,1.109.32,1.635,1.635,0,0,0,.98-.246A.766.766,0,0,0,108.275,14.664Z" transform="translate(239.03 270.875)" fill="#12263f"/>
            <path id="Trazado_1260788" data-name="Trazado 1260788" d="M23.049,12.992V17H20.706V5.625h4.438a5.134,5.134,0,0,1,2.254.469,3.454,3.454,0,0,1,1.5,1.332,3.714,3.714,0,0,1,.523,1.965,3.266,3.266,0,0,1-1.145,2.637,4.767,4.767,0,0,1-3.168.965Zm0-1.9h2.094a2.059,2.059,0,0,0,1.418-.437,1.591,1.591,0,0,0,.488-1.25,1.876,1.876,0,0,0-.492-1.352A1.839,1.839,0,0,0,25.2,7.523H23.049ZM35.69,17a2.507,2.507,0,0,1-.227-.758,2.732,2.732,0,0,1-2.133.914,3,3,0,0,1-2.059-.719,2.312,2.312,0,0,1-.816-1.812,2.389,2.389,0,0,1,1-2.062,4.915,4.915,0,0,1,2.879-.727H35.37v-.484a1.393,1.393,0,0,0-.3-.937,1.183,1.183,0,0,0-.949-.352,1.345,1.345,0,0,0-.895.273.929.929,0,0,0-.324.75H30.643A2.268,2.268,0,0,1,31.1,9.727a3,3,0,0,1,1.281-.98,4.669,4.669,0,0,1,1.859-.355,3.689,3.689,0,0,1,2.48.785,2.747,2.747,0,0,1,.918,2.207v3.664a4.041,4.041,0,0,0,.336,1.82V17Zm-1.867-1.57a1.945,1.945,0,0,0,.922-.223,1.462,1.462,0,0,0,.625-.6V13.156h-.844q-1.7,0-1.8,1.172l-.008.133a.9.9,0,0,0,.3.7A1.153,1.153,0,0,0,33.823,15.43Zm10.3-4.766a6.134,6.134,0,0,0-.812-.062,1.654,1.654,0,0,0-1.68.867V17H39.37V8.547H41.5l.063,1.008a2.092,2.092,0,0,1,1.883-1.164,2.366,2.366,0,0,1,.7.1Zm4.18-4.2V8.547h1.445V10.2H48.3v4.219a1.007,1.007,0,0,0,.18.672.9.9,0,0,0,.688.2,3.6,3.6,0,0,0,.664-.055v1.711a4.648,4.648,0,0,1-1.367.2,2.156,2.156,0,0,1-2.422-2.4V10.2H44.807V8.547h1.234V6.469Zm6.594,10.688a4.15,4.15,0,0,1-3.027-1.141A4.054,4.054,0,0,1,50.7,12.977v-.219a5.106,5.106,0,0,1,.492-2.277,3.612,3.612,0,0,1,1.395-1.547,3.914,3.914,0,0,1,2.059-.543,3.508,3.508,0,0,1,2.73,1.094,4.444,4.444,0,0,1,1,3.1v.922H52.987a2.1,2.1,0,0,0,.66,1.328,2,2,0,0,0,1.395.5,2.437,2.437,0,0,0,2.039-.945l1.109,1.242a3.389,3.389,0,0,1-1.375,1.121A4.511,4.511,0,0,1,54.893,17.156Zm-.258-6.945a1.411,1.411,0,0,0-1.09.455,2.357,2.357,0,0,0-.535,1.3h3.141v-.181a1.681,1.681,0,0,0-.406-1.165A1.456,1.456,0,0,0,54.635,10.211Zm9.594,4.453a.727.727,0,0,0-.41-.652,4.659,4.659,0,0,0-1.316-.426q-3.016-.633-3.016-2.562a2.323,2.323,0,0,1,.934-1.879,3.766,3.766,0,0,1,2.441-.754,4.053,4.053,0,0,1,2.574.758,2.388,2.388,0,0,1,.965,1.969H64.143a1.092,1.092,0,0,0-.313-.8A1.322,1.322,0,0,0,62.854,10a1.351,1.351,0,0,0-.883.258.814.814,0,0,0-.312.656.7.7,0,0,0,.355.605,3.657,3.657,0,0,0,1.2.4,9.8,9.8,0,0,1,1.422.379,2.336,2.336,0,0,1,1.789,2.273,2.205,2.205,0,0,1-.992,1.871,4.28,4.28,0,0,1-2.563.715,4.47,4.47,0,0,1-1.887-.379,3.166,3.166,0,0,1-1.293-1.039,2.414,2.414,0,0,1-.469-1.426h2.141a1.179,1.179,0,0,0,.445.922,1.766,1.766,0,0,0,1.109.32,1.635,1.635,0,0,0,.98-.246A.766.766,0,0,0,64.229,14.664Z" transform="translate(17.64 263.554)" fill="#12263f"/>
            <g id="Grupo_1203761" data-name="Grupo 1203761" transform="translate(160.078 14.511)">
              <g id="Grupo_1203760" data-name="Grupo 1203760" clip-path="url(#clip-path-2)">
                <path id="Trazado_1257141" data-name="Trazado 1257141" d="M16.433,0l4.077.092c4.717.846,12.712.634,13.189,7,.339,4.519-.262,9.458-.007,14.022-1.184,6.895-5.967,12.537-11.763,16.146-4.312,2.685-5.623,2.731-9.96.051C6.12,33.7,1.231,27.954.12,21c.3-4.528-.392-9.553.007-14.021C.735.158,11.483.682,16.433,0m-.257,1.415A47.493,47.493,0,0,0,7.3,2.572c-2.665.618-5.371,1.182-5.759,4.4C1.968,13.4.308,20.258,3.23,26.245a25.231,25.231,0,0,0,8.377,9.114c3.021,2.069,4.6,3.465,8.153,1.537,6.047-3.282,11.571-9.107,12.516-16.165-.278-4.409.377-9.282.007-13.636-.3-3.573-3.386-4.115-6.305-4.756a39.78,39.78,0,0,0-9.8-.925" transform="translate(0)" fill="#0d5365"/>
                <path id="Trazado_1257142" data-name="Trazado 1257142" d="M40.784,32.707l2.025-.043c3.8.551,11.423.3,11.9,5.466.33,3.589-.257,7.679-.007,11.322-1.03,5.465-5.164,10.3-9.945,12.949-2.83,1.569-3.85,1.488-6.635-.1-3.964-2.254-7.8-6.321-9.233-10.7-1.3-3.958-.172-9.281-.551-13.466.517-5.2,8.64-4.9,12.448-5.429m-.257,1.415a34.616,34.616,0,0,0-7.074,1.029c-1.808.475-3.46.956-3.7,3.115.34,4.713-.883,9.976,1.046,14.385a19.3,19.3,0,0,0,7.581,8.11c2.016,1.252,2.75,1.907,5.092.74a19.514,19.514,0,0,0,9.3-10.245c1.273-3.731.108-9.135.513-13.122-.322-2.455-2.856-2.909-4.887-3.344a31.407,31.407,0,0,0-7.873-.668" transform="translate(-24.609 -28.463)" fill="#0d5365"/>
                <path id="Trazado_1257143" data-name="Trazado 1257143" d="M109.316,73.527a3.1,3.1,0,0,1,3.89,2.736,53.672,53.672,0,0,1-.906,8.608,2.35,2.35,0,0,1-4.535.049c-.646-2.326-.329-5.592-.859-8.018a3.091,3.091,0,0,1,2.41-3.375m.518,1.281a1.866,1.866,0,0,0-1.523,1.971A62.874,62.874,0,0,0,109,83.813c.22,1.425,1.137,2.067,1.994.652.031-2.5.842-5.371.808-7.82a1.8,1.8,0,0,0-1.968-1.838" transform="translate(-93.148 -64.016)" fill="#0d5365"/>
                <path id="Trazado_1257144" data-name="Trazado 1257144" d="M110.584,186.479c5.33-.9,4.31,7.412-.349,5.689-2.76-1.02-2.353-5.233.349-5.689m1.791,4.042a1.586,1.586,0,0,0-1.744-2.579c-2.2.979-.009,4.252,1.744,2.579" transform="translate(-94.416 -162.436)" fill="#0d5365"/>
              </g>
            </g>
            <g id="Grupo_1203763" data-name="Grupo 1203763" transform="translate(281.279 223.28)">
              <g id="Grupo_1203762" data-name="Grupo 1203762" clip-path="url(#clip-path-3)">
                <path id="Trazado_1257145" data-name="Trazado 1257145" d="M192.046,76.162a1.116,1.116,0,0,1-.6.147,70.51,70.51,0,0,1-9.321,0,.924.924,0,0,1-.686-.234L181.4,64.651a5.508,5.508,0,0,1,1.023-2.425l7.754-7.764c.3-1.755-.512-3.9.917-5.29a9.953,9.953,0,0,1,1.426-.873c.018-1.79-.229-3.636,1.546-4.661a8.881,8.881,0,0,0,.885-.379c.15-.156.124-.472.24-.68a2.958,2.958,0,0,1,5.608.921c-.327,4.765.487,10.232,0,14.916a5.532,5.532,0,0,1-.787,2.2L192.25,71.48c-.246.756.18,4.3-.2,4.681m-1.007-1.007V71.189c2.76-4.111,5.964-7.974,8.451-12.24.393-4.963.057-10.013.175-15.007a1.788,1.788,0,0,0-3.54-.428c-.307,3.973.314,8.35-.024,12.276a2.95,2.95,0,0,1-.646,1.653c-2.144,2.848-6,5.512-8.321,8.345l-.522.283a.7.7,0,0,1-.285-1.2l8.414-8.483a1.768,1.768,0,0,0-2.518-2.289c-2.607,2.87-6.157,5.579-8.6,8.529a5.248,5.248,0,0,0-1.091,2.128v10.4Zm3.908-30.576a1.579,1.579,0,0,0-1.142,1.214l.006,6.934,1.136.473Zm-2.414,8.161v-3.1a2.174,2.174,0,0,0-1.149,1.322V53.2Z" transform="translate(-160.547 -36.189)" fill="#0d5365"/>
                <path id="Trazado_1257146" data-name="Trazado 1257146" d="M8.909,76.181c-.383-.383.042-3.925-.2-4.681C6.386,67.843,3.152,64.315.948,60.636a5.6,5.6,0,0,1-.787-2.2c-.489-4.684.326-10.151,0-14.916A2.959,2.959,0,0,1,5.767,42.6c.116.208.09.524.24.68a8.881,8.881,0,0,0,.885.379c1.776,1.025,1.528,2.871,1.546,4.661a9.952,9.952,0,0,1,1.426.873c1.429,1.389.614,3.535.917,5.29l7.754,7.764a5.506,5.506,0,0,1,1.023,2.425l-.042,11.424a.925.925,0,0,1-.686.234,70.514,70.514,0,0,1-9.321,0,1.116,1.116,0,0,1-.6-.147m9.513-1.007v-10.4a5.247,5.247,0,0,0-1.091-2.128c-2.441-2.95-5.991-5.659-8.6-8.529A1.768,1.768,0,0,0,6.215,56.4l8.414,8.483a.7.7,0,0,1-.285,1.2l-.522-.283c-2.319-2.833-6.177-5.5-8.321-8.345a2.949,2.949,0,0,1-.646-1.653c-.337-3.925.283-8.3-.024-12.276a1.788,1.788,0,0,0-3.54.428c.278,4.558-.354,9.523,0,14.032a4.329,4.329,0,0,0,.646,2L9.917,71.208v3.966ZM6.009,44.6v8.621l1.136-.473.006-6.934A1.579,1.579,0,0,0,6.009,44.6m3.563,8.621V50.978a2.174,2.174,0,0,0-1.149-1.322v3.1Z" transform="translate(0 -36.209)" fill="#0d5365"/>
                <path id="Trazado_1257147" data-name="Trazado 1257147" d="M107.523,9.012a25.915,25.915,0,0,1,2.172,2.138.777.777,0,0,1-.044.757c-.329.414-5.521.75-6.38,1.091l-2.843,5.548a.579.579,0,0,1-1,0L96.583,13c-1.866-.459-3.828-.481-5.706-.846-.665-.129-1.005-.324-.668-1.068l4.654-4.539c.735-.4,1.309.219.809.923-.129.182-.4.285-.575.459-1.057,1.069-2.149,2.107-3.158,3.221l5.468.8,2.52,4.834,2.521-4.834,5.468-.8-3.856-3.9c-.224-.716.95-5.255.752-5.524l-4.4,2.324h-.972l-4.4-2.324c-.151.2.462,2.456.45,2.926A.6.6,0,0,1,94.461,5c-.434-.437-.568-3.624-.879-4.4A.641.641,0,0,1,94.189,0l5.738,2.884L105.666,0a.642.642,0,0,1,.607.608L105.2,6.727a26.764,26.764,0,0,0,2.32,2.284" transform="translate(-79.723 0.001)" fill="#0d5365"/>
              </g>
            </g>
            <g id="Grupo_1203765" data-name="Grupo 1203765" transform="translate(36.639 219.782)">
              <g id="Grupo_1203764" data-name="Grupo 1203764" transform="translate(0 0)" clip-path="url(#clip-path-4)">
                <path id="Trazado_1257148" data-name="Trazado 1257148" d="M58.036,35.182a.791.791,0,0,1-.745,1.284L43.175,28.39,29.059,36.466a.776.776,0,0,1-.677-1.329L42.428,27.06l.065-16.109a.9.9,0,0,1,.682-.82.891.891,0,0,1,.682.82l.065,16.108Z" transform="translate(-23.914 -8.614)" fill="#0d5365"/>
                <path id="Trazado_1257149" data-name="Trazado 1257149" d="M4.461,49.381c.271-.022.951.453,1.317.571a5.294,5.294,0,0,0,2.513.255c1.506-.2,1.891-1.37,3.329-.257A9.534,9.534,0,0,1,14.8,55.007c.618,2.55.636,3-1.652,4.249a11.46,11.46,0,0,1-9.5.764c-.7-.244-3.506-1.564-3.63-2.211a9.9,9.9,0,0,1,2.171-6.667c.379-.456,1.721-1.715,2.273-1.761M1.384,57.26a10.464,10.464,0,0,0,9.968,1.248c.574-.229,2.286-.993,2.309-1.6.055-1.441-1.594-5.357-3.019-5.847a14.147,14.147,0,0,0-1.633.458,7.26,7.26,0,0,1-4.553-.5A8.464,8.464,0,0,0,1.384,57.26" transform="translate(0 -41.985)" fill="#0d5365"/>
                <path id="Trazado_1257150" data-name="Trazado 1257150" d="M160.594,49.6c.432,0,1.482.657,2.164.766a5.087,5.087,0,0,0,2.52-.19c1.408-.44,1.169-1.051,2.65.111a9.953,9.953,0,0,1,3.205,6.08c.175,1.738.112,1.854-1.284,2.723a11.633,11.633,0,0,1-11.827.354c-2.331-1.27-2.276-1.794-1.623-4.37.366-1.445,2.546-5.465,4.194-5.474m9.192,7.848a8.464,8.464,0,0,0-3.072-6.236,7.26,7.26,0,0,1-4.553.5,8.965,8.965,0,0,0-1.633-.458,7.886,7.886,0,0,0-2.971,6.188,10.408,10.408,0,0,0,12.229.007" transform="translate(-132.648 -42.17)" fill="#0d5365"/>
                <path id="Trazado_1257151" data-name="Trazado 1257151" d="M93.016,210.977a12.9,12.9,0,0,1-1.651,1.117,11.727,11.727,0,0,1-11.528-.055c-1.225-.692-1.837-.949-1.749-2.44a9.82,9.82,0,0,1,3.543-6.79c1.453-1.031,1.652.026,3,.237a8.168,8.168,0,0,0,1.762.037c1.606-.177,1.8-1.407,3.44-.147a9.477,9.477,0,0,1,2.915,4.423c.233.775.753,3,.263,3.617m-10.362-7.092c-1.542.7-3.5,4.648-3.042,6.133.121.391,1.775,1.2,2.22,1.373a10.362,10.362,0,0,0,9.028-.7c.864-.546.95-.551.814-1.655a7.942,7.942,0,0,0-2.876-5.073l-.236-.063a6.643,6.643,0,0,1-5.908-.015" transform="translate(-66.388 -172.061)" fill="#0d5365"/>
                <path id="Trazado_1257152" data-name="Trazado 1257152" d="M110.975,152.242c4.246-.524,4.724,6.036.538,6.243-3.844.19-4.38-5.769-.538-6.243m1.63,4.253c1.348-1.415-.676-3.838-2.332-2.407-1.632,1.41.692,4.128,2.332,2.407" transform="translate(-92.122 -129.418)" fill="#0d5365"/>
                <path id="Trazado_1257153" data-name="Trazado 1257153" d="M32.251.111A3.122,3.122,0,0,1,35.324,5.13a3.139,3.139,0,0,1-4.9-.122,3.15,3.15,0,0,1,1.823-4.9m-.509,4.256A1.679,1.679,0,0,0,34.15,2.034c-1.374-1.591-4.087.72-2.408,2.333" transform="translate(-25.384 -0.051)" fill="#0d5365"/>
                <path id="Trazado_1257154" data-name="Trazado 1257154" d="M188.859.061c4.286-.731,4.913,5.45,1.277,6.068-4.4.748-5.041-5.426-1.277-6.068m1.786,4.256c1.679-1.613-1.034-3.924-2.408-2.333a1.679,1.679,0,0,0,2.408,2.333" transform="translate(-158.481 -0.001)" fill="#0d5365"/>
              </g>
            </g>
          </g>
          <g id="Grupo_1203777" data-name="Grupo 1203777" transform="translate(221.912 334.143)">
            <g id="Grupo_1203768" data-name="Grupo 1203768" clip-path="url(#clip-path-5)">
              <path id="Trazado_1257157" data-name="Trazado 1257157" d="M213.379,59.66H169.948a4.412,4.412,0,0,1-4.412-4.412V29.555a4.412,4.412,0,0,1,4.412-4.412h43.431a4.412,4.412,0,0,1,4.412,4.412V55.248a4.412,4.412,0,0,1-4.412,4.412" transform="translate(-92.506 -14.051)" fill="#a4b1e3"/>
              <path id="Trazado_1257158" data-name="Trazado 1257158" d="M221.341,51.7H177.91a4.412,4.412,0,0,1-4.412-4.412V21.593a4.412,4.412,0,0,1,4.412-4.412h43.431a4.412,4.412,0,0,1,4.412,4.412V47.286a4.412,4.412,0,0,1-4.412,4.412" transform="translate(-96.956 -9.601)" fill="#fff"/>
              <line id="Línea_3362" data-name="Línea 3362" x2="13.465" transform="translate(83.217 17.416)" fill="none" stroke="#a4b1e3" stroke-linecap="round" stroke-linejoin="round" stroke-width="2"/>
              <line id="Línea_3363" data-name="Línea 3363" x2="35.223" transform="translate(83.217 22.618)" fill="none" stroke="#a4b1e3" stroke-linecap="round" stroke-linejoin="round" stroke-width="2"/>
              <line id="Línea_3364" data-name="Línea 3364" x2="35.223" transform="translate(83.217 26.929)" fill="none" stroke="#a4b1e3" stroke-linecap="round" stroke-linejoin="round" stroke-width="2"/>
              <line id="Línea_3365" data-name="Línea 3365" x2="18.383" transform="translate(83.217 31.24)" fill="none" stroke="#a4b1e3" stroke-linecap="round" stroke-linejoin="round" stroke-width="2"/>
              <path id="Trazado_1257159" data-name="Trazado 1257159" d="M289.922,7.58A7.58,7.58,0,1,1,282.342,0a7.579,7.579,0,0,1,7.58,7.58" transform="translate(-153.545)" fill="#8ebbca"/>
              <path id="Trazado_1257160" data-name="Trazado 1257160" d="M287.875,16.339a.444.444,0,0,1-.332-.15l-2-2.29a.441.441,0,0,1,.664-.581l1.665,1.9,4.258-5.043a.441.441,0,1,1,.674.569l-4.589,5.435a.44.44,0,0,1-.333.157Z" transform="translate(-159.507 -5.6)" fill="#fff"/>
              <path id="Trazado_1257161" data-name="Trazado 1257161" d="M49.259,193.849H4.412A4.412,4.412,0,0,1,0,189.438V182.37a4.412,4.412,0,0,1,4.412-4.412H49.259a4.412,4.412,0,0,1,4.412,4.412v7.068a4.412,4.412,0,0,1-4.412,4.412" transform="translate(0 -99.448)" fill="#a4b1e3"/>
              <path id="Trazado_1257162" data-name="Trazado 1257162" d="M57.591,185.516H12.744A4.412,4.412,0,0,1,8.332,181.1v-7.068a4.412,4.412,0,0,1,4.412-4.412H57.591A4.412,4.412,0,0,1,62,174.037V181.1a4.412,4.412,0,0,1-4.412,4.412" transform="translate(-4.656 -94.792)" fill="#c3cdef"/>
              <rect id="Rectángulo_454902" data-name="Rectángulo 454902" width="8.823" height="22.602" transform="translate(17.155 60.713)" fill="#a4b1e3"/>
              <rect id="Rectángulo_454903" data-name="Rectángulo 454903" width="8.823" height="27.314" transform="translate(28.306 56.001)" fill="#6e7dd0"/>
              <rect id="Rectángulo_454904" data-name="Rectángulo 454904" width="8.823" height="32.365" transform="translate(40.559 50.95)" fill="none" stroke="#fff" stroke-linecap="round" stroke-linejoin="round" stroke-width="2"/>
              <line id="Línea_3366" data-name="Línea 3366" x2="39.089" transform="translate(10.293 83.315)" fill="none" stroke="#fff" stroke-linecap="round" stroke-linejoin="round" stroke-width="2"/>
              <path id="Trazado_1257163" data-name="Trazado 1257163" d="M55.273,88.168,44.269,86l1.4,3.748L10.36,102.915l1.311,3.517L46.978,93.265l1.4,3.748Z" transform="translate(-5.789 -48.059)" fill="#8ebbca"/>
              <path id="Trazado_1257164" data-name="Trazado 1257164" d="M71.92,12.808a8.527,8.527,0,0,0-.331-2.333L73.7,9.257,71.6,5.621,69.488,6.841a8.562,8.562,0,0,0-4.04-2.332V2.069h-4.2v2.44a8.558,8.558,0,0,0-4.04,2.332L55.1,5.621,53,9.257l2.111,1.219a8.382,8.382,0,0,0,0,4.667L53,16.36,55.1,20l2.112-1.219a8.561,8.561,0,0,0,4.04,2.332v2.44h4.2v-2.44a8.565,8.565,0,0,0,4.04-2.332L71.6,20l2.1-3.635-2.111-1.219a8.529,8.529,0,0,0,.331-2.333m-8.571,4.372a4.373,4.373,0,1,1,4.373-4.372,4.377,4.377,0,0,1-4.373,4.372" transform="translate(-29.618 -1.156)" fill="#a4b1e3"/>
              <path id="Trazado_1257165" data-name="Trazado 1257165" d="M115.059,39.838a5.161,5.161,0,0,0,.334-1.387l1.46-.216-.371-2.514-1.461.216a5.184,5.184,0,0,0-1.755-2.213l.544-1.374-2.363-.935-.544,1.373a5.184,5.184,0,0,0-2.794.412l-.917-1.157L105.2,33.622l.917,1.156a5.073,5.073,0,0,0-1.04,2.627l-1.46.216.371,2.515,1.461-.216a5.185,5.185,0,0,0,1.755,2.213l-.544,1.373,2.363.936.544-1.373a5.183,5.183,0,0,0,2.794-.412l.918,1.157,1.992-1.579-.917-1.156a5.172,5.172,0,0,0,.706-1.24m-5.8.551A2.648,2.648,0,1,1,112.7,38.9a2.651,2.651,0,0,1-3.436,1.487" transform="translate(-57.903 -17.555)" fill="#6e7dd0"/>
              <path id="Trazado_1257166" data-name="Trazado 1257166" d="M195.533,141.1c-11.176-2.794-7.353-9.191-8.015-17.059S180.9,114.927,176.2,115c-2.812.044-8.274-.489-12.216-.926l-4.622-.544s-.809-3.971-6.176-2.573-7.353,16.911,5.662,18.455h6.176l-.295-4.38a30.176,30.176,0,0,0,8.015,5.556c-.147,3.676,3.456,6.544,3.456,6.544s-16.176,1.25-20.221,1.765-13.161,1.912-15.367,11.985,8.088,14.191,8.088,14.191l21.544,1.1s30.808,4.191,34.779-4.559,1.691-17.72-9.485-20.514" transform="translate(-78.403 -61.839)" fill="#24110d"/>
              <path id="Trazado_1257167" data-name="Trazado 1257167" d="M176.745,208.3,162.855,202c-.974-2.917-4.5-8.889-16.918-7.09a15.413,15.413,0,0,0-10.311,6.757c-3.561,1.036-9.514,2.709-13.145,3.408-5.441,1.048-8.251,7.628-8.251,7.628s-21.013,34.558-20.572,45.157,21.617,6.9,21.617,6.9c-2.5,7.206-9.412,28.823-9.412,28.823h74.9l-7.991-38.529s9.706-29.117,10.588-36.911-6.618-9.853-6.618-9.853" transform="translate(-52.335 -108.739)" fill="#83aec3"/>
              <path id="Trazado_1257168" data-name="Trazado 1257168" d="M186.559,188.735l-2.132-9.853L197.147,173l5.771,12.2a4.411,4.411,0,0,1,.266,3.054l-5.156,18.791H179.5Z" transform="translate(-100.31 -96.678)" fill="#bc7560"/>
              <path id="Trazado_1257169" data-name="Trazado 1257169" d="M199.307,177.277l-8.64,4,1.693,7.821s7.381-2.672,6.947-11.816" transform="translate(-106.55 -99.068)" fill="#9d5742"/>
              <path id="Trazado_1257170" data-name="Trazado 1257170" d="M194.256,147.728s-3.6-2.868-3.456-6.544c0,0-9.01-3.966-12.242-11.566-.012.008-.026.014-.038.022s-6.323,10-5.882,18.97,5.147,15.147,13.382,9.706a25.533,25.533,0,0,0,8.462-10.287l-.227-.3" transform="translate(-96.464 -72.434)" fill="#bc7560"/>
              <path id="Trazado_1257171" data-name="Trazado 1257171" d="M182.835,129.617c-.012.008-.026.014-.037.022a44.331,44.331,0,0,0-2.528,4.8c2.823,2.691,7.975,6.481,14.807,6.74,0,0-9.01-3.966-12.242-11.566" transform="translate(-100.74 -72.434)" fill="#9d5742"/>
              <path id="Trazado_1257172" data-name="Trazado 1257172" d="M223.31,165.484c-1.55,1.841-4.023,2.309-5.523,1.046s-1.46-3.78.09-5.621,4.023-2.309,5.523-1.046,1.46,3.78-.09,5.621" transform="translate(-121.091 -88.94)" fill="#bc7560"/>
              <path id="Trazado_1257173" data-name="Trazado 1257173" d="M166.926,250.167s-7.72,16.838-8.6,24.485-1.324,50-1.324,50h25.9s-7.37-47.205-4.87-54.411,7.426-20.073,7.426-20.073Z" transform="translate(-87.736 -139.801)" fill="#fff"/>
              <path id="Trazado_1257174" data-name="Trazado 1257174" d="M157,388.264h25.9S181.08,376.61,179.556,364H157.373c-.248,12.338-.373,24.264-.373,24.264" transform="translate(-87.736 -203.414)" fill="#6e7dd0"/>
              <path id="Trazado_1257175" data-name="Trazado 1257175" d="M142.667,322.717l14.559-2.647,30.147,3.676s8.828,1.582,12.794-10.735l-20.735-14.728-35.146,1.934Z" transform="translate(-79.727 -166.69)" fill="#83aec3"/>
              <path id="Trazado_1257176" data-name="Trazado 1257176" d="M206.642,306.839,216.752,302l.772-3.559s-5.3-1.59-9.862.461c0,0-1.673,5.89-1.02,7.941" transform="translate(-115.393 -166.447)" fill="#bc7560"/>
              <path id="Trazado_1257177" data-name="Trazado 1257177" d="M142.667,341.373l14.559-2.647,30.147,3.676s8.828,1.582,12.794-10.735" transform="translate(-79.727 -185.346)" fill="none" stroke="#6e7dd0" stroke-linecap="round" stroke-linejoin="round" stroke-width="1"/>
              <path id="Trazado_1257178" data-name="Trazado 1257178" d="M117,309.627s4.509-8.106,19.239-7.759" transform="translate(-65.383 -168.687)" fill="none" stroke="#6e7dd0" stroke-linecap="round" stroke-linejoin="round" stroke-width="1"/>
              <path id="Trazado_1257179" data-name="Trazado 1257179" d="M151.419,252.25l-5.32,8.721a13.236,13.236,0,0,0-1.739,9.168l.76,4.353" transform="translate(-80.563 -140.965)" fill="none" stroke="#6e7dd0" stroke-linecap="round" stroke-linejoin="round" stroke-width="1"/>
              <path id="Trazado_1257180" data-name="Trazado 1257180" d="M175.667,320.573l15-4.254s-2.941-11.761,0-17.135" transform="translate(-98.168 -167.193)" fill="none" stroke="#6e7dd0" stroke-linecap="round" stroke-linejoin="round" stroke-width="1"/>
              <path id="Trazado_1257181" data-name="Trazado 1257181" d="M225.541,370.5h24.491l1.211,5.837-9.175,3.427L225.541,376.9Z" transform="translate(-126.039 -207.047)" fill="none" stroke="#6e7dd0" stroke-linecap="round" stroke-linejoin="round" stroke-width="1"/>
              <line id="Línea_3367" data-name="Línea 3367" y1="25.704" x2="7.026" transform="translate(100.473 113.086)" fill="none" stroke="#6e7dd0" stroke-linecap="round" stroke-linejoin="round" stroke-width="1"/>
              <line id="Línea_3368" data-name="Línea 3368" y1="3.382" x2="3.235" transform="translate(97.793 71.91)" fill="none" stroke="#9d5742" stroke-linecap="round" stroke-linejoin="round" stroke-width="1"/>
              <line id="Línea_3369" data-name="Línea 3369" x2="1.618" y2="1.066" transform="translate(99.41 73.602)" fill="none" stroke="#9d5742" stroke-linecap="round" stroke-linejoin="round" stroke-width="1"/>
              <line id="Línea_3370" data-name="Línea 3370" x1="1.214" y1="3.728" transform="translate(80.881 53.455)" fill="none" stroke="#9d5742" stroke-linecap="round" stroke-linejoin="round" stroke-width="1"/>
              <path id="Trazado_1257182" data-name="Trazado 1257182" d="M250.028,171.025a16.559,16.559,0,0,0,8.149,7.342" transform="translate(-139.723 -95.574)" fill="none" stroke="#9d5742" stroke-linecap="round" stroke-linejoin="round" stroke-width="1"/>
              <path id="Trazado_1257183" data-name="Trazado 1257183" d="M179.343,155.833s-4.283,7.5-3.6,8.309,3.6.644,3.6.644" transform="translate(-98.168 -87.084)" fill="none" stroke="#9d5742" stroke-linecap="round" stroke-linejoin="round" stroke-width="1"/>
              <path id="Trazado_1257184" data-name="Trazado 1257184" d="M184.625,180.572a3.011,3.011,0,0,0,3.805-1.226" transform="translate(-103.174 -100.224)" fill="none" stroke="#9d5742" stroke-linecap="round" stroke-linejoin="round" stroke-width="1"/>
              <path id="Trazado_1257185" data-name="Trazado 1257185" d="M178.46,155.813a.682.682,0,1,1-.322-1.024.771.771,0,0,1,.322,1.024" transform="translate(-98.998 -86.481)" fill="#24110d"/>
              <path id="Trazado_1257186" data-name="Trazado 1257186" d="M194.288,157.621a.682.682,0,1,1-.438-.981.772.772,0,0,1,.438.981" transform="translate(-107.838 -87.527)" fill="#24110d"/>
              <path id="Trazado_1257187" data-name="Trazado 1257187" d="M172.933,152.349c0,2.264-1.382,4.1-3.086,4.1s-3.086-1.835-3.086-4.1,1.382-4.1,3.086-4.1S172.933,150.085,172.933,152.349Z" transform="translate(-93.191 -82.847)" fill="none" stroke="#fff" stroke-linecap="round" stroke-linejoin="round" stroke-width="1"/>
              <ellipse id="Elipse_13674" data-name="Elipse 13674" cx="3.813" cy="4.262" rx="3.813" ry="4.262" transform="translate(82.384 65.79)" fill="none" stroke="#fff" stroke-linecap="round" stroke-linejoin="round" stroke-width="1"/>
              <path id="Trazado_1257188" data-name="Trazado 1257188" d="M180.75,157.1a2.055,2.055,0,0,1,2.642.312" transform="translate(-101.009 -87.602)" fill="none" stroke="#fff" stroke-linecap="round" stroke-linejoin="round" stroke-width="1"/>
              <line id="Línea_3371" data-name="Línea 3371" x2="7.783" y2="0.811" transform="translate(90.01 70.052)" fill="none" stroke="#fff" stroke-linecap="round" stroke-linejoin="round" stroke-width="1"/>
            </g>
          </g>
          <g id="Grupo_1203776" data-name="Grupo 1203776" transform="translate(43.223 328)">
            <g id="Grupo_1203773" data-name="Grupo 1203773" clip-path="url(#clip-path-6)">
              <path id="Trazado_1257189" data-name="Trazado 1257189" d="M45.138,98.523H16.344a4.064,4.064,0,0,1-4.064-4.064V78.2a4.064,4.064,0,0,1,4.064-4.064H45.138A4.064,4.064,0,0,1,49.2,78.2V94.459a4.064,4.064,0,0,1-4.064,4.064" transform="translate(-7.29 -44.008)" fill="#a4b1e3"/>
              <path id="Trazado_1257190" data-name="Trazado 1257190" d="M51.281,92.381H22.487a4.064,4.064,0,0,1-4.064-4.064V72.056a4.064,4.064,0,0,1,4.064-4.064H51.281a4.064,4.064,0,0,1,4.064,4.064V88.317a4.064,4.064,0,0,1-4.064,4.064" transform="translate(-10.936 -40.362)" fill="#fff"/>
              <line id="Línea_3372" data-name="Línea 3372" x2="8.84" transform="translate(13.415 33.558)" fill="none" stroke="#a4b1e3" stroke-linecap="round" stroke-linejoin="round" stroke-width="2"/>
              <line id="Línea_3373" data-name="Línea 3373" x2="18.806" transform="translate(13.415 37.867)" fill="none" stroke="#a4b1e3" stroke-linecap="round" stroke-linejoin="round" stroke-width="2"/>
              <line id="Línea_3374" data-name="Línea 3374" x2="18.806" transform="translate(13.415 41.696)" fill="none" stroke="#a4b1e3" stroke-linecap="round" stroke-linejoin="round" stroke-width="2"/>
              <line id="Línea_3375" data-name="Línea 3375" x2="6.968" transform="translate(13.415 45.525)" fill="none" stroke="#a4b1e3" stroke-linecap="round" stroke-linejoin="round" stroke-width="2"/>
              <path id="Trazado_1257191" data-name="Trazado 1257191" d="M148.139,27.993A20.287,20.287,0,1,1,168.426,48.28a20.287,20.287,0,0,1-20.287-20.287" transform="translate(-87.94 -4.575)" fill="#c3cdef"/>
              <path id="Trazado_1257192" data-name="Trazado 1257192" d="M181.536,70.733,168.426,55.256,148.21,53.631c-.043.537-.071,1.077-.071,1.625a20.282,20.282,0,0,0,33.4,15.477" transform="translate(-87.94 -31.837)" fill="#6e7dd0"/>
              <path id="Trazado_1257193" data-name="Trazado 1257193" d="M179.089,77.916a20.2,20.2,0,0,0,13.109-4.81L179.089,57.629,166.1,73.211a20.2,20.2,0,0,0,12.988,4.7" transform="translate(-98.603 -34.21)" fill="#a4b1e3"/>
              <path id="Trazado_1257194" data-name="Trazado 1257194" d="M141.373,22.159h0l23.037,1.851L162.218,1a23.115,23.115,0,0,0-20.845,21.159" transform="translate(-83.923 -0.594)" fill="#8ebbca"/>
              <line id="Línea_3376" data-name="Línea 3376" x2="10.973" transform="translate(46.476 0.406)" fill="none" stroke="#a4b1e3" stroke-linecap="round" stroke-linejoin="round" stroke-width="2"/>
              <line id="Línea_3377" data-name="Línea 3377" x2="10.973" transform="translate(46.476 3.767)" fill="none" stroke="#a4b1e3" stroke-linecap="round" stroke-linejoin="round" stroke-width="2"/>
              <line id="Línea_3378" data-name="Línea 3378" x2="7.448" transform="translate(46.476 7.127)" fill="none" stroke="#a4b1e3" stroke-linecap="round" stroke-linejoin="round" stroke-width="2"/>
              <line id="Línea_3379" data-name="Línea 3379" x2="10.974" transform="translate(109.404 14.417)" fill="none" stroke="#a4b1e3" stroke-linecap="round" stroke-linejoin="round" stroke-width="2"/>
              <line id="Línea_3380" data-name="Línea 3380" x2="10.974" transform="translate(109.404 17.777)" fill="none" stroke="#a4b1e3" stroke-linecap="round" stroke-linejoin="round" stroke-width="2"/>
              <line id="Línea_3381" data-name="Línea 3381" x2="7.448" transform="translate(109.404 21.138)" fill="none" stroke="#a4b1e3" stroke-linecap="round" stroke-linejoin="round" stroke-width="2"/>
              <path id="Trazado_1257195" data-name="Trazado 1257195" d="M149.775,9.27H154l3.874,5.2" transform="translate(-88.911 -5.503)" fill="none" stroke="#6e7dd0" stroke-linecap="round" stroke-linejoin="round" stroke-width="2"/>
              <path id="Trazado_1257196" data-name="Trazado 1257196" d="M250.025,42.958H245.8l-3.874,5.2" transform="translate(-143.612 -25.502)" fill="none" stroke="#6e7dd0" stroke-linecap="round" stroke-linejoin="round" stroke-width="2"/>
              <path id="Trazado_1257197" data-name="Trazado 1257197" d="M204.554,168.657a8.892,8.892,0,0,0-.345-2.431l2.2-1.27-2.187-3.787-2.2,1.27a8.922,8.922,0,0,0-4.21-2.429v-2.542h-4.373v2.542a8.921,8.921,0,0,0-4.209,2.429l-2.2-1.27-2.187,3.787,2.2,1.27a8.738,8.738,0,0,0,0,4.862l-2.2,1.269,2.187,3.787,2.2-1.27a8.921,8.921,0,0,0,4.209,2.429v2.542h4.373V177.3a8.922,8.922,0,0,0,4.21-2.429l2.2,1.27,2.187-3.787-2.2-1.269a8.9,8.9,0,0,0,.345-2.431m-8.93,4.556a4.556,4.556,0,1,1,4.556-4.556,4.561,4.561,0,0,1-4.556,4.556" transform="translate(-109.727 -93.478)" fill="#a4b1e3"/>
              <path id="Trazado_1257198" data-name="Trazado 1257198" d="M285.709,150.849l-25.16,13.767L236.968,132.66l25.159-13.768Z" transform="translate(-140.671 -70.578)" fill="#a4b1e3"/>
              <path id="Trazado_1257199" data-name="Trazado 1257199" d="M285.738,144.424,260.55,160.8l-23.582-31.956,25.188-16.379Z" transform="translate(-140.672 -66.764)" fill="#fff"/>
              <path id="Trazado_1257200" data-name="Trazado 1257200" d="M255.132,206.311l2.036-5.785s-1.7-6.982-.833-9.362,3.222-7.951,3.044-10.954c0,0,1.7-1.439,2.623,1.278s.615,7.45.615,7.45,3.56,1.254,3.816,4.655l2.936,4.392L267.121,210.4Z" transform="translate(-151.454 -106.752)" fill="#bc7560"/>
              <path id="Trazado_1257201" data-name="Trazado 1257201" d="M33.373,195.522l-17.525,6.447A12.311,12.311,0,0,0,12.4,203.9a24.45,24.45,0,0,0-8.262,12.951c-2.709,10.295-12.733,61.5,13.545,70.3,0,0-5.147,10.159-5.553,19.912H88.122L83.11,267.643s3.928,6.638,13.41,5.689,14.633-26.916,16.119-34.948c1.358-7.343,5.689-21.673,5.689-21.673l-13-7.073L90.831,231.748,80.671,214.139s-5.147-10.295-12.055-12.191-13.047-3.657-13.047-3.657Z" transform="translate(0 -116.068)" fill="#3c497a"/>
              <path id="Trazado_1257202" data-name="Trazado 1257202" d="M144.1,209.506l10.7,13.643a2.033,2.033,0,0,1,.178,2.219l-3.535,6.477,5.617,3.618a2.031,2.031,0,0,1,.925,1.868l-2.284,29.011" transform="translate(-85.543 -124.369)" fill="none" stroke="#6e7dd0" stroke-linecap="round" stroke-linejoin="round" stroke-width="1"/>
              <path id="Trazado_1257203" data-name="Trazado 1257203" d="M70.354,206.75l-4.027,13.732a2.843,2.843,0,0,0,.779,2.943l7.407,6.868-4.888,5.123a2.845,2.845,0,0,0-.467,3.274l4.129,7.958" transform="translate(-39.296 -122.733)" fill="none" stroke="#6e7dd0" stroke-linecap="round" stroke-linejoin="round" stroke-width="1"/>
              <path id="Trazado_1257204" data-name="Trazado 1257204" d="M104.321,198.29l-22.2-2.768s4.788,14.778,9.06,35.237l3.881-4.836c4.219,7.795,12.646,10.972,12.646,10.972L95.98,259.531l0-.006a231.917,231.917,0,0,1,1.737,24.915H119.4c-1.57-11.522-9.539-68.79-15.075-86.15" transform="translate(-48.753 -116.068)" fill="#d7dbfb"/>
              <path id="Trazado_1257205" data-name="Trazado 1257205" d="M117.848,436.548l25.6-.406c-.382-2.8-1.836-14.824-2.849-21.809H118.166c.427,5.1-.375,17.147-.318,22.215" transform="translate(-69.956 -245.961)" fill="#283359"/>
              <path id="Trazado_1257206" data-name="Trazado 1257206" d="M126.616,277.83s-.367-10.41-10.778-13.351l-1.868,2.379a23.459,23.459,0,0,0,12.646,10.972" transform="translate(-67.656 -157.003)" fill="#18203c"/>
              <path id="Trazado_1257207" data-name="Trazado 1257207" d="M113.969,248.276l5.219-6.644s3.656-7.013,6.907-6.962,4.216-1.879,4.978-1.422.559,2.235-.61,3.1c0,0,10.576-2.933,11.591-1.818,1.49,1.635-7.951,5.35-7.951,5.35s1.625,2.438-.339,4.24c0,0,.2,2.489-1.473,3.708a3.572,3.572,0,0,1-1.625,3.251c-1.829,1.067-7.416,4.006-7.416,4.006l-.856,1.971a23.6,23.6,0,0,1-8.426-8.778" transform="translate(-67.656 -138.421)" fill="#bc7560"/>
              <path id="Trazado_1257208" data-name="Trazado 1257208" d="M134.282,125.875s3.708,6.3-1.778,10.464l-2.378-8.8Z" transform="translate(-77.247 -74.723)" fill="#24110d"/>
              <path id="Trazado_1257209" data-name="Trazado 1257209" d="M83.848,188.75,80.781,191.5a2.759,2.759,0,0,0-.587,3.37c1.529,2.818,4.748,7.983,9.055,10.747l7.117-5.44,7.2,3.437s1.4-6.637-.585-9.346l-4.036-5.215Z" transform="translate(-47.408 -112.048)" fill="#fff"/>
              <path id="Trazado_1257210" data-name="Trazado 1257210" d="M89.668,172.026l.479-11.4,14.375.559.356,15.036-2.692,7.264s-7.1-3.785-11.113-7.832a4.858,4.858,0,0,1-1.4-3.626" transform="translate(-53.227 -95.352)" fill="#bc7560"/>
              <path id="Trazado_1257211" data-name="Trazado 1257211" d="M115.354,234.142l2.55-3.245a27.774,27.774,0,0,1,2.524-3.874l-1.086-5.33.4-3.566a1.635,1.635,0,0,0-.4-1.263,4.98,4.98,0,0,0-4.338-1.741,3.375,3.375,0,0,0-3.16,2.717,1.63,1.63,0,0,0,.176,1.186l2.171,3.75Z" transform="translate(-66.371 -127.687)" fill="#6e7dd0"/>
              <path id="Trazado_1257212" data-name="Trazado 1257212" d="M117.685,232.049s2.506-2.032,5.147-1.084" transform="translate(-69.861 -136.958)" fill="none" stroke="#a4b1e3" stroke-linecap="round" stroke-linejoin="round" stroke-width="1"/>
              <path id="Trazado_1257213" data-name="Trazado 1257213" d="M134.329,299.116,127.6,312.108,130,334.423l3.444,4.806a2.684,2.684,0,0,0,4.483-.183l2.774-4.623Z" transform="translate(-75.744 -177.565)" fill="#6e7dd0"/>
              <path id="Trazado_1257214" data-name="Trazado 1257214" d="M105.213,144.294l-3.136-14.549c-2,1.105-4.533.7-7.836-.182a14.334,14.334,0,0,0-7.213-.2,6.67,6.67,0,0,1,1.321,6.1,10.588,10.588,0,0,1-3.622,4.794h0a5.348,5.348,0,0,0-.059-.577c-.006-.038-.013-.076-.019-.114a5.613,5.613,0,0,0-.131-.581c-.037-.128-.079-.253-.124-.375-.015-.04-.03-.078-.046-.117-.032-.082-.065-.164-.1-.243-.02-.044-.04-.087-.061-.13-.035-.073-.072-.145-.11-.215-.022-.041-.044-.083-.068-.124-.041-.073-.085-.143-.13-.213-.022-.034-.042-.069-.065-.1-.065-.1-.132-.19-.2-.28-.027-.034-.055-.066-.082-.1-.046-.056-.093-.111-.141-.164s-.074-.078-.112-.117-.082-.083-.124-.122-.085-.078-.128-.115-.078-.066-.118-.1-.093-.075-.141-.11-.07-.048-.105-.072a3.518,3.518,0,0,0-.37-.222l-.028-.015c-.061-.03-.123-.056-.184-.083l-.091-.038c-.061-.024-.121-.044-.183-.064l-.094-.028c-.063-.017-.125-.033-.188-.046l-.086-.015c-.067-.011-.133-.023-.2-.029a2.423,2.423,0,0,0-.9.08c-1.671.481-2.507,2.674-1.866,4.9s2.514,3.637,4.186,3.155a2.417,2.417,0,0,0,.525-.225,23.681,23.681,0,0,0,1.668,4.554c2.032,3.556,12.242,5.537,17.017,3.5s3.353-7.416,3.353-7.416" transform="translate(-46.452 -76.583)" fill="#bc7560"/>
              <path id="Trazado_1257215" data-name="Trazado 1257215" d="M107.065,129.564a14.334,14.334,0,0,0-7.213-.2,7.339,7.339,0,0,1,1.2,2.09,29,29,0,0,1,6.474.2,9.037,9.037,0,0,0,7.379-1.9c-2,1.105-4.533.7-7.836-.182" transform="translate(-59.275 -76.583)" fill="#9d5742"/>
              <path id="Trazado_1257216" data-name="Trazado 1257216" d="M93.984,98.887c-9.753-1.067-14.985,9.3-14.985,9.3s-1.524-.3-3.657,1.372,0,5.943,0,5.943l1.808,2.88a2.441,2.441,0,0,1,.893-.481c1.672-.482,3.546.931,4.186,3.155a5.469,5.469,0,0,1,.209,1.272,10.588,10.588,0,0,0,3.622-4.794,6.67,6.67,0,0,0-1.321-6.1,14.334,14.334,0,0,1,7.213.2c4.165,1.118,7.111,1.473,9.3-1s2.489-10.679-7.264-11.746" transform="translate(-44.162 -58.657)" fill="#24110d"/>
              <line id="Línea_3382" data-name="Línea 3382" x1="3.099" y1="2.873" transform="translate(33.668 61.311)" fill="none" stroke="#9d5742" stroke-linecap="round" stroke-linejoin="round" stroke-width="1"/>
              <line id="Línea_3383" data-name="Línea 3383" x1="1.092" y2="0.73" transform="translate(34.125 62.936)" fill="none" stroke="#9d5742" stroke-linecap="round" stroke-linejoin="round" stroke-width="1"/>
              <path id="Trazado_1257217" data-name="Trazado 1257217" d="M111.564,183.846s-7.737.229-10.439-2.032c0,0,1.89,3.53,10.439,3.987Z" transform="translate(-60.031 -107.931)" fill="#9d5742"/>
              <path id="Trazado_1257218" data-name="Trazado 1257218" d="M249.674,244.769s8.179,6.474,14.861,8.092" transform="translate(-148.214 -145.303)" fill="none" stroke="#6e7dd0" stroke-linecap="round" stroke-linejoin="round" stroke-width="1"/>
              <line id="Línea_3384" data-name="Línea 3384" x1="7.721" y1="30.749" transform="translate(75.389 120.827)" fill="none" stroke="#6e7dd0" stroke-linecap="round" stroke-linejoin="round" stroke-width="1"/>
              <path id="Trazado_1257219" data-name="Trazado 1257219" d="M216.312,284.667s-5.554,6.908-4.876,15.171" transform="translate(-125.481 -168.987)" fill="none" stroke="#6e7dd0" stroke-linecap="round" stroke-linejoin="round" stroke-width="1"/>
              <path id="Trazado_1257220" data-name="Trazado 1257220" d="M43.185,313.7a28.971,28.971,0,0,1,10.7-17.474,69.991,69.991,0,0,0,14.183-13.992" transform="translate(-25.636 -167.544)" fill="none" stroke="#6e7dd0" stroke-linecap="round" stroke-linejoin="round" stroke-width="1"/>
              <path id="Trazado_1257221" data-name="Trazado 1257221" d="M71.185,377.936a102.7,102.7,0,0,0,18.3-24.916" transform="translate(-42.258 -209.564)" fill="none" stroke="#6e7dd0" stroke-linecap="round" stroke-linejoin="round" stroke-width="1"/>
              <line id="Línea_3385" data-name="Línea 3385" x1="1.314" y1="11.738" transform="translate(23.645 119.879)" fill="none" stroke="#6e7dd0" stroke-linecap="round" stroke-linejoin="round" stroke-width="1"/>
              <path id="Trazado_1257222" data-name="Trazado 1257222" d="M98.615,289.514s6.858,9.017,14.179,12.261" transform="translate(-58.541 -171.865)" fill="none" stroke="#6e7dd0" stroke-linecap="round" stroke-linejoin="round" stroke-width="1"/>
              <line id="Línea_3386" data-name="Línea 3386" x1="3.212" y2="1.214" transform="translate(59.597 97.925)" fill="none" stroke="#9d5742" stroke-linecap="round" stroke-linejoin="round" stroke-width="1"/>
              <line id="Línea_3387" data-name="Línea 3387" x1="4.132" y2="1.478" transform="translate(62.317 101.457)" fill="none" stroke="#9d5742" stroke-linecap="round" stroke-linejoin="round" stroke-width="1"/>
              <line id="Línea_3388" data-name="Línea 3388" x1="4.04" y2="0.998" transform="translate(62.07 105.697)" fill="none" stroke="#9d5742" stroke-linecap="round" stroke-linejoin="round" stroke-width="1"/>
              <line id="Línea_3389" data-name="Línea 3389" x1="2.825" y2="1.012" transform="translate(61.812 109.405)" fill="none" stroke="#9d5742" stroke-linecap="round" stroke-linejoin="round" stroke-width="1"/>
              <line id="Línea_3390" data-name="Línea 3390" x1="0.506" y2="9.245" transform="translate(61.812 102.168)" fill="none" stroke="#9d5742" stroke-linecap="round" stroke-linejoin="round" stroke-width="1"/>
              <line id="Línea_3391" data-name="Línea 3391" x1="0.316" y2="3.652" transform="translate(114.662 86.84)" fill="none" stroke="#9d5742" stroke-linecap="round" stroke-linejoin="round" stroke-width="1"/>
              <path id="Trazado_1257223" data-name="Trazado 1257223" d="M128.094,142.833A16.36,16.36,0,0,0,129.2,146.9c.813,1.761,2.148,2.574,1.4,3.793s-3.217,1.152-3.217,1.152" transform="translate(-75.621 -84.79)" fill="none" stroke="#9d5742" stroke-linecap="round" stroke-linejoin="round" stroke-width="1"/>
              <path id="Trazado_1257224" data-name="Trazado 1257224" d="M115.258,166.167l5.133,1.151a2.786,2.786,0,0,1-3.508,1.964c-2.187-.406-1.625-3.116-1.625-3.116" transform="translate(-68.382 -98.642)" fill="#fff"/>
              <path id="Trazado_1257225" data-name="Trazado 1257225" d="M118.154,144.945a.628.628,0,1,1-.61-.779.71.71,0,0,1,.61.779" transform="translate(-69.416 -85.582)" fill="#24110d"/>
              <path id="Trazado_1257226" data-name="Trazado 1257226" d="M134.06,144.237a.628.628,0,1,1-.61-.779.71.71,0,0,1,.61.779" transform="translate(-78.859 -85.161)" fill="#24110d"/>
              <path id="Trazado_1257227" data-name="Trazado 1257227" d="M109.544,138.069a2.622,2.622,0,0,1,.878-1.063,3.492,3.492,0,0,1,1.189-.585,3.315,3.315,0,0,1,1.34-.1,2.377,2.377,0,0,1,1.288.532l.017.014a.038.038,0,0,1,0,.053.038.038,0,0,1-.03.013,7.234,7.234,0,0,0-1.213.028,7.05,7.05,0,0,0-1.187.244,9.09,9.09,0,0,0-1.149.4,11.192,11.192,0,0,0-1.092.537.038.038,0,0,1-.052-.014.038.038,0,0,1,0-.034Z" transform="translate(-65.021 -80.907)" fill="#24110d"/>
              <path id="Trazado_1257228" data-name="Trazado 1257228" d="M130.07,137.007a1.663,1.663,0,0,1,.821-.644,1.99,1.99,0,0,1,.949-.13,1.956,1.956,0,0,1,.923.329,1.506,1.506,0,0,1,.643.843l.009.028a.035.035,0,0,1-.024.044.037.037,0,0,1-.025,0,4.946,4.946,0,0,0-.782-.294,4.469,4.469,0,0,0-.822-.141,5.87,5.87,0,0,0-.837-.031,8.331,8.331,0,0,0-.836.077.036.036,0,0,1-.041-.03.034.034,0,0,1,.006-.025Z" transform="translate(-77.201 -80.866)" fill="#24110d"/>
            </g>
          </g>
        </g>
      </g>
      <g id="Enmascarar_grupo_1119165" data-name="Enmascarar grupo 1119165" transform="translate(-37 -1989.708)" clip-path="url(#clip-path-7)">
        <g id="Grupo_1203835" data-name="Grupo 1203835" transform="translate(-8491.209 -5863.372)">
          <g id="Grupo_1203834" data-name="Grupo 1203834" clip-path="url(#clip-path-8)">
            <path id="Trazado_1257619" data-name="Trazado 1257619" d="M70.9,0H65.933L0,88.915v6.7a32.562,32.562,0,0,0,.431,5.275L74.81.581A13.627,13.627,0,0,0,70.9,0" fill="#c1fbff"/>
            <path id="Trazado_1257620" data-name="Trazado 1257620" d="M47.318,0,0,63.811V76.362L56.626,0Z" transform="translate(0 0)" fill="#c1fbff"/>
            <path id="Trazado_1257621" data-name="Trazado 1257621" d="M18.025,0C8.07,0,0,10.883,0,24.308v1.847L19.4,0Z" transform="translate(0)" fill="#c1fbff"/>
            <path id="Trazado_1257622" data-name="Trazado 1257622" d="M28.7,0,0,38.707V51.259L38.011,0Z" transform="translate(0 0)" fill="#c1fbff"/>
            <path id="Trazado_1257623" data-name="Trazado 1257623" d="M83.845,5.862,5.863,111.025a22.249,22.249,0,0,0,4.7,6.21L88.45,12.2a22.655,22.655,0,0,0-4.605-6.342" transform="translate(-2.58 -1.435)" fill="#c1fbff"/>
            <path id="Trazado_1257624" data-name="Trazado 1257624" d="M125.959,150.55c9.955,0,18.025-10.883,18.025-24.308v-1.1l-18.838,25.4Z" transform="translate(-55.06 -30.631)" fill="#c1fbff"/>
            <path id="Trazado_1257625" data-name="Trazado 1257625" d="M129.359,91.905,91.905,142.414h9.308l28.146-37.957Z" transform="translate(-40.435 -22.495)" fill="#c1fbff"/>
            <path id="Trazado_1257626" data-name="Trazado 1257626" d="M114.735,58.666,58.666,134.278h9.308l46.761-63.06Z" transform="translate(-25.811 -14.359)" fill="#c1fbff"/>
            <path id="Trazado_1257627" data-name="Trazado 1257627" d="M100.373,30.677a32.691,32.691,0,0,0-.334-4.655L26.022,125.838a13.61,13.61,0,0,0,3.452.45H35l65.377-88.164Z" transform="translate(-11.449 -6.369)" fill="#c1fbff"/>
          </g>
        </g>
        <g id="Grupo_1203837" data-name="Grupo 1203837" transform="translate(-8871.73 -5407.185)">
          <g id="Grupo_1203836" data-name="Grupo 1203836" clip-path="url(#clip-path-9)">
            <path id="Trazado_1257628" data-name="Trazado 1257628" d="M78.178,5.334,0,110.761v8.451L80.6,10.525a18.315,18.315,0,0,0-2.417-5.191" transform="translate(0 0.046)" fill="#5dd2e4"/>
            <path id="Trazado_1257629" data-name="Trazado 1257629" d="M81.459,34.463,0,144.316v8.451L81.459,42.914Z" transform="translate(0 0.298)" fill="#5dd2e4"/>
            <path id="Trazado_1257630" data-name="Trazado 1257630" d="M69.618.018,0,93.9v8.452L74.6,1.753A9.917,9.917,0,0,0,69.618.018" transform="translate(0 0)" fill="#5dd2e4"/>
            <path id="Trazado_1257631" data-name="Trazado 1257631" d="M57.1,0,0,77v8.451L63.365,0Z" transform="translate(0)" fill="#5dd2e4"/>
            <path id="Trazado_1257632" data-name="Trazado 1257632" d="M81.459,17.7,0,127.557v8.451L81.459,26.156Z" transform="translate(0 0.153)" fill="#5dd2e4"/>
            <path id="Trazado_1257633" data-name="Trazado 1257633" d="M19.495,0,0,26.29v8.451L25.762,0Z" transform="translate(0)" fill="#5dd2e4"/>
            <path id="Trazado_1257634" data-name="Trazado 1257634" d="M12.385,0C5.545,0,0,7.477,0,16.7v1.137L13.228,0Z" transform="translate(0)" fill="#5dd2e4"/>
            <path id="Trazado_1257635" data-name="Trazado 1257635" d="M32.029,0,0,43.193v8.451L38.3,0Z" transform="translate(0)" fill="#5dd2e4"/>
            <path id="Trazado_1257636" data-name="Trazado 1257636" d="M44.563,0,0,60.1v8.451L50.83,0Z" transform="translate(0)" fill="#5dd2e4"/>
            <path id="Trazado_1257637" data-name="Trazado 1257637" d="M87.636,118.1,24.5,203.233h6.268l56.864-76.685Z" transform="translate(-6.177 1.02)" fill="#5dd2e4"/>
            <path id="Trazado_1257638" data-name="Trazado 1257638" d="M91.86,134.855l-50.6,68.232h6.267l44.33-59.781Z" transform="translate(-10.401 1.165)" fill="#5dd2e4"/>
            <path id="Trazado_1257639" data-name="Trazado 1257639" d="M96.085,151.614,58.023,202.942H64.29l31.795-42.877Z" transform="translate(-14.625 1.31)" fill="#5dd2e4"/>
            <path id="Trazado_1257640" data-name="Trazado 1257640" d="M92.149,202.653c6.84,0,12.384-7.477,12.384-16.7v-.822L91.539,202.653Z" transform="translate(-23.073 1.599)" fill="#5dd2e4"/>
            <path id="Trazado_1257641" data-name="Trazado 1257641" d="M100.309,168.372,74.781,202.8h6.267l19.261-25.975Z" transform="translate(-18.849 1.455)" fill="#5dd2e4"/>
            <path id="Trazado_1257642" data-name="Trazado 1257642" d="M81.459,67.821,0,177.674v8.451L81.459,76.272Z" transform="translate(0 0.586)" fill="#5dd2e4"/>
            <path id="Trazado_1257643" data-name="Trazado 1257643" d="M81.459,51.062,0,160.915v8.451L81.459,59.514Z" transform="translate(0 0.441)" fill="#5dd2e4"/>
            <path id="Trazado_1257644" data-name="Trazado 1257644" d="M81.773,84.579,1.245,193.176A18.12,18.12,0,0,0,3.71,198.3L81.773,93.03Z" transform="translate(-0.314 0.731)" fill="#5dd2e4"/>
            <path id="Trazado_1257645" data-name="Trazado 1257645" d="M83.824,101.338,9.38,201.73a9.826,9.826,0,0,0,5.054,1.636l69.39-93.577Z" transform="translate(-2.364 0.875)" fill="#5dd2e4"/>
          </g>
        </g>
      </g>
    </g>
  </g>
</svg>
