<svg xmlns="http://www.w3.org/2000/svg" xmlns:xlink="http://www.w3.org/1999/xlink" width="1019.711" height="485.971" viewBox="0 0 1019.711 485.971">
  <defs>
    <clipPath id="clip-path">
      <path id="Trazado_608976" data-name="Trazado 608976" d="M15.84,0h988.031c8.748,0,15.84,7.535,15.84,16.83V469.141c0,9.3-7.092,16.83-15.84,16.83H15.84c-8.748,0-15.84-7.535-15.84-16.83V16.83C0,7.535,7.092,0,15.84,0Z" transform="translate(0 0)" fill="#fff0ee"/>
    </clipPath>
    <clipPath id="clip-path-2">
      <rect id="Rectángulo_454553" data-name="Rectángulo 454553" width="81.46" height="204.252" fill="#5dd2e4"/>
    </clipPath>
    <clipPath id="clip-path-3">
      <rect id="Rectángulo_454554" data-name="Rectángulo 454554" width="119.02" height="160.505" fill="#c1fbff"/>
    </clipPath>
    <clipPath id="clip-path-4">
      <rect id="Rectángulo_454894" data-name="Rectángulo 454894" width="472.837" height="448.041" fill="none"/>
    </clipPath>
    <radialGradient id="radial-gradient" cx="0.5" cy="0.5" r="0.5" gradientUnits="objectBoundingBox">
      <stop offset="0" stop-color="#fff7d9"/>
      <stop offset="0.745" stop-color="#f4df7a"/>
      <stop offset="1" stop-color="#ebcc30"/>
    </radialGradient>
    <clipPath id="clip-path-5">
      <rect id="Rectángulo_454898" data-name="Rectángulo 454898" width="49.163" height="57.156" fill="#0d5365"/>
    </clipPath>
    <clipPath id="clip-path-6">
      <rect id="Rectángulo_454899" data-name="Rectángulo 454899" width="58.767" height="58.572" fill="#0d5365"/>
    </clipPath>
    <clipPath id="clip-path-7">
      <rect id="Rectángulo_454900" data-name="Rectángulo 454900" width="56.073" height="60.385" fill="#0d5365"/>
    </clipPath>
    <clipPath id="clip-path-8">
      <rect id="Rectángulo_454901" data-name="Rectángulo 454901" width="57.046" height="66.168" fill="#0d5365"/>
    </clipPath>
    <clipPath id="clip-path-9">
      <rect id="Rectángulo_454905" data-name="Rectángulo 454905" width="267.458" height="362.523" fill="none"/>
    </clipPath>
    <clipPath id="clip-path-10">
      <rect id="Rectángulo_454906" data-name="Rectángulo 454906" width="312.667" height="411.656" fill="none"/>
    </clipPath>
  </defs>
  <g id="Grupo_1204983" data-name="Grupo 1204983" transform="translate(-290 -3879.362)">
    <g id="Grupo_1204856" data-name="Grupo 1204856" transform="translate(0 108)">
      <g id="Enmascarar_grupo_1098656" data-name="Enmascarar grupo 1098656" transform="translate(290 3771.362)" clip-path="url(#clip-path)">
        <path id="Trazado_874294" data-name="Trazado 874294" d="M0,0H1039.511V509.113H0Z" transform="translate(-8.91 -12.623)" fill="#effeff"/>
        <g id="Grupo_1203347" data-name="Grupo 1203347" transform="translate(-35.929 349.173)">
          <g id="Grupo_1203346" data-name="Grupo 1203346" clip-path="url(#clip-path-2)">
            <path id="Trazado_1256038" data-name="Trazado 1256038" d="M78.178,5.334,0,110.761v8.451L80.6,10.525a18.315,18.315,0,0,0-2.417-5.191" transform="translate(0 0.046)" fill="#5dd2e4"/>
            <path id="Trazado_1256039" data-name="Trazado 1256039" d="M81.459,34.463,0,144.316v8.451L81.459,42.914Z" transform="translate(0 0.298)" fill="#5dd2e4"/>
            <path id="Trazado_1256040" data-name="Trazado 1256040" d="M69.618.018,0,93.9v8.452L74.6,1.753A9.917,9.917,0,0,0,69.618.018" transform="translate(0 0)" fill="#5dd2e4"/>
            <path id="Trazado_1256041" data-name="Trazado 1256041" d="M57.1,0,0,77v8.451L63.365,0Z" transform="translate(0)" fill="#5dd2e4"/>
            <path id="Trazado_1256042" data-name="Trazado 1256042" d="M81.459,17.7,0,127.557v8.451L81.459,26.156Z" transform="translate(0 0.153)" fill="#5dd2e4"/>
            <path id="Trazado_1256043" data-name="Trazado 1256043" d="M19.495,0,0,26.29v8.451L25.762,0Z" transform="translate(0)" fill="#5dd2e4"/>
            <path id="Trazado_1256044" data-name="Trazado 1256044" d="M12.385,0C5.545,0,0,7.477,0,16.7v1.137L13.228,0Z" transform="translate(0)" fill="#5dd2e4"/>
            <path id="Trazado_1256045" data-name="Trazado 1256045" d="M32.029,0,0,43.193v8.451L38.3,0Z" transform="translate(0)" fill="#5dd2e4"/>
            <path id="Trazado_1256046" data-name="Trazado 1256046" d="M44.563,0,0,60.1v8.451L50.83,0Z" transform="translate(0)" fill="#5dd2e4"/>
            <path id="Trazado_1256047" data-name="Trazado 1256047" d="M87.636,118.1,24.5,203.233h6.268l56.864-76.685Z" transform="translate(-6.177 1.02)" fill="#5dd2e4"/>
            <path id="Trazado_1256048" data-name="Trazado 1256048" d="M91.86,134.855l-50.6,68.232h6.267l44.33-59.781Z" transform="translate(-10.401 1.165)" fill="#5dd2e4"/>
            <path id="Trazado_1256049" data-name="Trazado 1256049" d="M96.085,151.614,58.023,202.942H64.29l31.795-42.877Z" transform="translate(-14.625 1.31)" fill="#5dd2e4"/>
            <path id="Trazado_1256050" data-name="Trazado 1256050" d="M92.149,202.653c6.84,0,12.384-7.477,12.384-16.7v-.822L91.539,202.653Z" transform="translate(-23.073 1.599)" fill="#5dd2e4"/>
            <path id="Trazado_1256051" data-name="Trazado 1256051" d="M100.309,168.372,74.781,202.8h6.267l19.261-25.975Z" transform="translate(-18.849 1.455)" fill="#5dd2e4"/>
            <path id="Trazado_1256052" data-name="Trazado 1256052" d="M81.459,67.821,0,177.674v8.451L81.459,76.272Z" transform="translate(0 0.586)" fill="#5dd2e4"/>
            <path id="Trazado_1256053" data-name="Trazado 1256053" d="M81.459,51.062,0,160.915v8.451L81.459,59.514Z" transform="translate(0 0.441)" fill="#5dd2e4"/>
            <path id="Trazado_1256054" data-name="Trazado 1256054" d="M81.773,84.579,1.245,193.176A18.12,18.12,0,0,0,3.71,198.3L81.773,93.03Z" transform="translate(-0.314 0.731)" fill="#5dd2e4"/>
            <path id="Trazado_1256055" data-name="Trazado 1256055" d="M83.824,101.338,9.38,201.73a9.826,9.826,0,0,0,5.054,1.636l69.39-93.577Z" transform="translate(-2.364 0.875)" fill="#5dd2e4"/>
          </g>
        </g>
        <g id="Grupo_1203351" data-name="Grupo 1203351" transform="translate(940.426 -35.503)">
          <g id="Grupo_1203348" data-name="Grupo 1203348" clip-path="url(#clip-path-3)">
            <path id="Trazado_1256056" data-name="Trazado 1256056" d="M94.895,0H88.248L0,119.008v8.963a43.582,43.582,0,0,0,.576,7.06L100.129.777A18.239,18.239,0,0,0,94.895,0" fill="#c1fbff"/>
            <path id="Trazado_1256057" data-name="Trazado 1256057" d="M63.333,0,0,85.408v16.8L75.791,0Z" transform="translate(0 0)" fill="#c1fbff"/>
            <path id="Trazado_1256058" data-name="Trazado 1256058" d="M24.126,0C10.8,0,0,14.566,0,32.535v2.473L25.96,0Z" transform="translate(0)" fill="#c1fbff"/>
            <path id="Trazado_1256059" data-name="Trazado 1256059" d="M38.417,0,0,51.807v16.8L50.875,0Z" transform="translate(0 0)" fill="#c1fbff"/>
            <path id="Trazado_1256060" data-name="Trazado 1256060" d="M110.238,5.862,5.863,146.617a29.78,29.78,0,0,0,6.294,8.312L116.4,14.35a30.322,30.322,0,0,0-6.164-8.488" transform="translate(-1.468 0.064)" fill="#c1fbff"/>
            <path id="Trazado_1256061" data-name="Trazado 1256061" d="M126.234,159.148c13.324,0,24.125-14.566,24.125-32.535v-1.468l-25.214,34Z" transform="translate(-31.339 1.357)" fill="#c1fbff"/>
            <path id="Trazado_1256062" data-name="Trazado 1256062" d="M142.035,91.905l-50.13,67.6h12.458l37.672-50.8Z" transform="translate(-23.015 0.997)" fill="#c1fbff"/>
            <path id="Trazado_1256063" data-name="Trazado 1256063" d="M133.712,58.666l-75.045,101.2H71.124l62.587-84.4Z" transform="translate(-14.691 0.636)" fill="#c1fbff"/>
            <path id="Trazado_1256064" data-name="Trazado 1256064" d="M125.536,32.252a43.756,43.756,0,0,0-.447-6.23L26.022,159.62a18.217,18.217,0,0,0,4.62.6h7.391l87.5-118Z" transform="translate(-6.517 0.282)" fill="#c1fbff"/>
          </g>
        </g>
      </g>
      <g id="Grupo_1203772" data-name="Grupo 1203772" transform="translate(551.856 3782.002)">
        <g id="Grupo_1203759" data-name="Grupo 1203759" transform="translate(12.493)">
          <g id="Grupo_1203758" data-name="Grupo 1203758" clip-path="url(#clip-path-4)">
            <path id="Trazado_1257133" data-name="Trazado 1257133" d="M415.57,303.357a57.832,57.832,0,0,0-24.727,5.163,35.4,35.4,0,0,1-34.251-2.462l-14.912-9.867a41.973,41.973,0,0,1-18.5-38.168q.233-3.25.234-6.56a90.605,90.605,0,0,0-60.318-85.392,20.261,20.261,0,0,1-13.371-19.143V128.547A22.754,22.754,0,0,1,261.2,108.661a58.033,58.033,0,1,0-58.961-1.325,28.8,28.8,0,0,1,13.713,24.425v15.167a20.261,20.261,0,0,1-13.37,19.143,90.673,90.673,0,0,0-59.7,96.036,34.581,34.581,0,0,1-15.23,32.9l-17.2,11.379a29.183,29.183,0,0,1-28.263,2.221,58.039,58.039,0,1,0,33.828,54.977q.087-2.273,0-4.507a27.676,27.676,0,0,1,12.46-24.116l16.192-10.714a31.189,31.189,0,0,1,35.435.863,90.581,90.581,0,0,0,111.061-4.352,20.515,20.515,0,0,1,24.51-1.277l29.262,19.363a26.67,26.67,0,0,1,11.841,22.4v.14a58.031,58.031,0,1,0,58.793-58.025" transform="translate(0 0)" fill="#0d5365"/>
            <path id="Trazado_1257134" data-name="Trazado 1257134" d="M114.387,482.183a52.471,52.471,0,1,1-52.471-52.471,52.471,52.471,0,0,1,52.471,52.471" transform="translate(-2.656 -120.818)" fill="#33c7ca"/>
            <path id="Trazado_1257135" data-name="Trazado 1257135" d="M356.9,59.986a52.4,52.4,0,1,1-52.4-52.4,52.4,52.4,0,0,1,52.4,52.4" transform="translate(-70.884 -2.134)" fill="#33c7ca"/>
            <path id="Trazado_1257136" data-name="Trazado 1257136" d="M609.1,481.749a52.715,52.715,0,1,1-52.715-52.715A52.714,52.714,0,0,1,609.1,481.749" transform="translate(-141.611 -120.627)" fill="#33c7ca"/>
            <path id="Trazado_1257137" data-name="Trazado 1257137" d="M374.159,318.5a81.469,81.469,0,1,1-81.468-81.468A81.468,81.468,0,0,1,374.159,318.5" transform="translate(-59.387 -66.645)" fill="url(#radial-gradient)"/>
            <path id="Trazado_1257138" data-name="Trazado 1257138" d="M412.531,75.3a64.91,64.91,0,0,1-.4,7.152c75.19,24.81,129.39,94.914,129.39,177.53a184.971,184.971,0,0,1-8.409,55.287,64.12,64.12,0,0,1,16.414,2.664,205.787,205.787,0,0,0,8.288-57.951c0-93.027-61.745-171.621-146.484-197.069a64.523,64.523,0,0,1,1.2,12.387" transform="translate(-115.651 -17.689)" fill="#cad6fe"/>
            <path id="Trazado_1257139" data-name="Trazado 1257139" d="M398.23,538.507a191.268,191.268,0,0,1-240.049-.07,64.21,64.21,0,0,1-9.4,15.142,205.712,205.712,0,0,0,258.714.178,64.223,64.223,0,0,1-9.267-15.25" transform="translate(-41.832 -151.387)" fill="#9db7fe"/>
            <path id="Trazado_1257140" data-name="Trazado 1257140" d="M67.18,315.647a184.983,184.983,0,0,1-8.22-54.661c0-79.96,50.776-148.195,122.211-174.993a64.915,64.915,0,0,1,.019-19.51C100.572,94.342,42.666,170.9,42.666,260.986a205.819,205.819,0,0,0,8.127,57.408,64.092,64.092,0,0,1,16.387-2.747" transform="translate(-11.996 -18.692)" fill="#9db7fe"/>
          </g>
        </g>
        <path id="Trazado_1260775" data-name="Trazado 1260775" d="M14.419,16.882h5.6V19H11.782V6.2h2.637Zm6.548-2.725a5.64,5.64,0,0,1,.545-2.522,3.989,3.989,0,0,1,1.569-1.714,4.577,4.577,0,0,1,2.377-.606A4.33,4.33,0,0,1,28.6,10.492a4.727,4.727,0,0,1,1.358,3.2l.018.65a4.97,4.97,0,0,1-1.222,3.511,4.247,4.247,0,0,1-3.278,1.323,4.268,4.268,0,0,1-3.283-1.318,5.058,5.058,0,0,1-1.226-3.586Zm2.54.18a3.555,3.555,0,0,0,.51,2.073,1.831,1.831,0,0,0,2.9.009,3.89,3.89,0,0,0,.519-2.267,3.519,3.519,0,0,0-.519-2.06,1.686,1.686,0,0,0-1.459-.731,1.658,1.658,0,0,0-1.441.726A3.955,3.955,0,0,0,23.507,14.338Zm7.664-.163a5.573,5.573,0,0,1,1.042-3.524,3.375,3.375,0,0,1,2.808-1.336,2.96,2.96,0,0,1,2.435,1.072l.105-.9h2.3v9.193a4.064,4.064,0,0,1-.567,2.171,3.641,3.641,0,0,1-1.6,1.406,5.608,5.608,0,0,1-2.408.483,5.215,5.215,0,0,1-2.039-.417,3.619,3.619,0,0,1-1.5-1.077L32.876,19.7a2.975,2.975,0,0,0,2.3,1.063,2.178,2.178,0,0,0,1.573-.541,2.027,2.027,0,0,0,.563-1.534v-.51A2.938,2.938,0,0,1,35,19.176a3.366,3.366,0,0,1-2.773-1.34,5.572,5.572,0,0,1-1.059-3.555Zm2.54.189a3.47,3.47,0,0,0,.519,2.029,1.65,1.65,0,0,0,1.424.735,1.764,1.764,0,0,0,1.661-.871V12.251a1.76,1.76,0,0,0-1.644-.871,1.66,1.66,0,0,0-1.437.748A3.911,3.911,0,0,0,33.711,14.364Zm13.447-2.492a6.9,6.9,0,0,0-.914-.07,1.86,1.86,0,0,0-1.89.976V19h-2.54V9.49h2.4l.07,1.134A2.354,2.354,0,0,1,46.4,9.314a2.662,2.662,0,0,1,.791.114Zm.51,2.285a5.64,5.64,0,0,1,.545-2.522,3.989,3.989,0,0,1,1.569-1.714,4.577,4.577,0,0,1,2.377-.606A4.33,4.33,0,0,1,55.3,10.492a4.727,4.727,0,0,1,1.358,3.2l.018.65a4.97,4.97,0,0,1-1.222,3.511,4.735,4.735,0,0,1-6.561,0,5.058,5.058,0,0,1-1.226-3.586Zm2.54.18a3.555,3.555,0,0,0,.51,2.073,1.831,1.831,0,0,0,2.9.009,3.89,3.89,0,0,0,.519-2.267,3.519,3.519,0,0,0-.519-2.06,1.686,1.686,0,0,0-1.459-.731,1.658,1.658,0,0,0-1.441.726A3.955,3.955,0,0,0,50.208,14.338Zm12.12-.163a5.731,5.731,0,0,1,1-3.542,3.237,3.237,0,0,1,2.729-1.318,2.913,2.913,0,0,1,2.294,1.037V5.5H70.9V19H68.6l-.123-1.011a2.989,2.989,0,0,1-2.443,1.187,3.228,3.228,0,0,1-2.694-1.323A5.916,5.916,0,0,1,62.328,14.175Zm2.54.189a3.754,3.754,0,0,0,.466,2.051,1.517,1.517,0,0,0,1.354.713,1.7,1.7,0,0,0,1.661-.995V12.375a1.675,1.675,0,0,0-1.644-.995Q64.868,11.38,64.868,14.364Zm12.375,4.812a4.668,4.668,0,0,1-3.406-1.283,4.561,4.561,0,0,1-1.314-3.419v-.246a5.745,5.745,0,0,1,.554-2.562,4.064,4.064,0,0,1,1.569-1.74,4.4,4.4,0,0,1,2.316-.611,3.947,3.947,0,0,1,3.072,1.23,5,5,0,0,1,1.121,3.489v1.037H75.1a2.36,2.36,0,0,0,.743,1.494,2.245,2.245,0,0,0,1.569.563A2.742,2.742,0,0,0,79.7,16.064l1.248,1.4a3.813,3.813,0,0,1-1.547,1.261A5.075,5.075,0,0,1,77.243,19.176Zm-.29-7.813a1.587,1.587,0,0,0-1.226.512,2.651,2.651,0,0,0-.6,1.466h3.533v-.2a1.891,1.891,0,0,0-.457-1.311A1.638,1.638,0,0,0,76.953,11.362ZM89.759,19H87.21V5.5h2.549Zm1.7-4.843A5.64,5.64,0,0,1,92,11.635a3.989,3.989,0,0,1,1.569-1.714,4.577,4.577,0,0,1,2.377-.606,4.33,4.33,0,0,1,3.142,1.178,4.727,4.727,0,0,1,1.358,3.2l.018.65a4.97,4.97,0,0,1-1.222,3.511,4.735,4.735,0,0,1-6.561,0,5.058,5.058,0,0,1-1.226-3.586Zm2.54.18a3.555,3.555,0,0,0,.51,2.073,1.831,1.831,0,0,0,2.9.009,3.89,3.89,0,0,0,.519-2.267,3.519,3.519,0,0,0-.519-2.06,1.686,1.686,0,0,0-1.459-.731,1.658,1.658,0,0,0-1.441.726A3.955,3.955,0,0,0,94,14.338Zm13.184,2.035a.818.818,0,0,0-.461-.734,5.241,5.241,0,0,0-1.481-.479q-3.393-.712-3.393-2.883a2.613,2.613,0,0,1,1.05-2.114,4.237,4.237,0,0,1,2.747-.848,4.56,4.56,0,0,1,2.9.853,2.687,2.687,0,0,1,1.085,2.215h-2.54a1.229,1.229,0,0,0-.352-.9,1.488,1.488,0,0,0-1.1-.356,1.52,1.52,0,0,0-.993.29.916.916,0,0,0-.352.738.783.783,0,0,0,.4.681,4.114,4.114,0,0,0,1.349.448,11.019,11.019,0,0,1,1.6.426,2.628,2.628,0,0,1,2.013,2.558,2.481,2.481,0,0,1-1.116,2.1,4.815,4.815,0,0,1-2.883.8,5.029,5.029,0,0,1-2.123-.426,3.561,3.561,0,0,1-1.455-1.169,2.716,2.716,0,0,1-.527-1.6h2.408a1.326,1.326,0,0,0,.5,1.037,1.987,1.987,0,0,0,1.248.36,1.839,1.839,0,0,0,1.1-.277A.861.861,0,0,0,107.179,16.372ZM24.069,34.157a5.64,5.64,0,0,1,.545-2.522,3.989,3.989,0,0,1,1.569-1.714,4.577,4.577,0,0,1,2.377-.606A4.33,4.33,0,0,1,31.7,30.492a4.727,4.727,0,0,1,1.358,3.2l.018.65a4.97,4.97,0,0,1-1.222,3.511,4.247,4.247,0,0,1-3.278,1.323A4.268,4.268,0,0,1,25.3,37.857a5.058,5.058,0,0,1-1.226-3.586Zm2.54.18a3.555,3.555,0,0,0,.51,2.073,1.831,1.831,0,0,0,2.9.009,3.89,3.89,0,0,0,.519-2.267,3.519,3.519,0,0,0-.519-2.06,1.686,1.686,0,0,0-1.459-.731,1.658,1.658,0,0,0-1.441.726A3.955,3.955,0,0,0,26.61,34.338Zm16.6,0a5.758,5.758,0,0,1-.976,3.564,3.231,3.231,0,0,1-2.725,1.279,2.969,2.969,0,0,1-2.47-1.187L36.928,39H34.643V25.5h2.54v4.843a2.893,2.893,0,0,1,2.312-1.028,3.258,3.258,0,0,1,2.729,1.279,5.767,5.767,0,0,1,.989,3.6Zm-2.54-.185a3.783,3.783,0,0,0-.457-2.1,1.545,1.545,0,0,0-1.362-.664,1.676,1.676,0,0,0-1.67.993v3.753a1.7,1.7,0,0,0,1.688,1,1.568,1.568,0,0,0,1.617-1.213A6.257,6.257,0,0,0,40.672,34.148Zm6.794-4.658V39.519a3.4,3.4,0,0,1-.835,2.448,3.174,3.174,0,0,1-2.408.875,5.165,5.165,0,0,1-1.257-.149V40.679a4.768,4.768,0,0,0,.8.079q1.151,0,1.151-1.222V29.49Zm-2.751-2.461a1.251,1.251,0,0,1,.382-.94,1.654,1.654,0,0,1,2.083,0,1.348,1.348,0,0,1-.009,1.89,1.629,1.629,0,0,1-2.065,0A1.247,1.247,0,0,1,44.715,27.029Zm9.114,12.146a4.668,4.668,0,0,1-3.406-1.283,4.561,4.561,0,0,1-1.314-3.419v-.246a5.745,5.745,0,0,1,.554-2.562,4.064,4.064,0,0,1,1.569-1.74,4.4,4.4,0,0,1,2.316-.611,3.947,3.947,0,0,1,3.072,1.23,5,5,0,0,1,1.121,3.489v1.037H51.685a2.36,2.36,0,0,0,.743,1.494A2.245,2.245,0,0,0,54,37.128a2.742,2.742,0,0,0,2.294-1.063l1.248,1.4a3.813,3.813,0,0,1-1.547,1.261A5.075,5.075,0,0,1,53.829,39.176Zm-.29-7.813a1.587,1.587,0,0,0-1.226.512,2.651,2.651,0,0,0-.6,1.466h3.533v-.2a1.891,1.891,0,0,0-.457-1.311A1.638,1.638,0,0,0,53.539,31.362Zm8.684-4.21V29.49h1.626v1.863H62.223V36.1a1.133,1.133,0,0,0,.2.756,1.015,1.015,0,0,0,.773.229,4.051,4.051,0,0,0,.747-.062v1.925a5.229,5.229,0,0,1-1.538.229,2.425,2.425,0,0,1-2.725-2.7V31.354H58.294V29.49h1.389V27.152ZM67.944,39H65.4V29.49h2.549Zm-2.7-11.971a1.251,1.251,0,0,1,.382-.94,1.648,1.648,0,0,1,2.079,0,1.342,1.342,0,0,1,0,1.89,1.629,1.629,0,0,1-2.065,0A1.247,1.247,0,0,1,65.246,27.029ZM73.6,35.9l1.767-6.407h2.654L74.809,39H72.383l-3.208-9.51h2.654Zm5.01-1.74a5.64,5.64,0,0,1,.545-2.522,3.989,3.989,0,0,1,1.569-1.714,4.577,4.577,0,0,1,2.377-.606,4.33,4.33,0,0,1,3.142,1.178,4.727,4.727,0,0,1,1.358,3.2l.018.65a4.97,4.97,0,0,1-1.222,3.511,4.735,4.735,0,0,1-6.561,0,5.058,5.058,0,0,1-1.226-3.586Zm2.54.18a3.555,3.555,0,0,0,.51,2.073,1.831,1.831,0,0,0,2.9.009,3.89,3.89,0,0,0,.519-2.267,3.519,3.519,0,0,0-.519-2.06,1.686,1.686,0,0,0-1.459-.731,1.658,1.658,0,0,0-1.441.726A3.955,3.955,0,0,0,81.146,34.338Zm13.184,2.035a.818.818,0,0,0-.461-.734,5.241,5.241,0,0,0-1.481-.479q-3.393-.712-3.393-2.883a2.613,2.613,0,0,1,1.05-2.114,4.237,4.237,0,0,1,2.747-.848,4.56,4.56,0,0,1,2.9.853,2.687,2.687,0,0,1,1.085,2.215h-2.54a1.229,1.229,0,0,0-.352-.9,1.488,1.488,0,0,0-1.1-.356,1.52,1.52,0,0,0-.993.29.916.916,0,0,0-.352.738.783.783,0,0,0,.4.681,4.114,4.114,0,0,0,1.349.448,11.019,11.019,0,0,1,1.6.426A2.628,2.628,0,0,1,96.8,36.267a2.481,2.481,0,0,1-1.116,2.1,4.815,4.815,0,0,1-2.883.8,5.029,5.029,0,0,1-2.123-.426,3.561,3.561,0,0,1-1.455-1.169,2.716,2.716,0,0,1-.527-1.6H91.1a1.326,1.326,0,0,0,.5,1.037,1.987,1.987,0,0,0,1.248.36,1.839,1.839,0,0,0,1.1-.277A.861.861,0,0,0,94.329,36.372Zm-78.851,22.8a4.668,4.668,0,0,1-3.406-1.283,4.561,4.561,0,0,1-1.314-3.419v-.246a5.745,5.745,0,0,1,.554-2.562,4.064,4.064,0,0,1,1.569-1.74,4.4,4.4,0,0,1,2.316-.611,3.947,3.947,0,0,1,3.072,1.23,5,5,0,0,1,1.121,3.489v1.037H13.334a2.36,2.36,0,0,0,.743,1.494,2.245,2.245,0,0,0,1.569.563,2.742,2.742,0,0,0,2.294-1.063l1.248,1.4a3.813,3.813,0,0,1-1.547,1.261A5.075,5.075,0,0,1,15.478,59.176Zm-.29-7.813a1.587,1.587,0,0,0-1.226.512,2.651,2.651,0,0,0-.6,1.466h3.533v-.2a1.891,1.891,0,0,0-.457-1.311A1.638,1.638,0,0,0,15.188,51.362Zm10.793,5.01a.818.818,0,0,0-.461-.734,5.241,5.241,0,0,0-1.481-.479q-3.393-.712-3.393-2.883a2.613,2.613,0,0,1,1.05-2.114,4.237,4.237,0,0,1,2.747-.848,4.56,4.56,0,0,1,2.9.853,2.687,2.687,0,0,1,1.085,2.215h-2.54a1.229,1.229,0,0,0-.352-.9,1.488,1.488,0,0,0-1.1-.356,1.52,1.52,0,0,0-.993.29.916.916,0,0,0-.352.738.783.783,0,0,0,.4.681,4.114,4.114,0,0,0,1.349.448,11.019,11.019,0,0,1,1.6.426,2.628,2.628,0,0,1,2.013,2.558,2.481,2.481,0,0,1-1.116,2.1,4.815,4.815,0,0,1-2.883.8,5.029,5.029,0,0,1-2.123-.426,3.561,3.561,0,0,1-1.455-1.169,2.716,2.716,0,0,1-.527-1.6h2.408a1.326,1.326,0,0,0,.5,1.037,1.987,1.987,0,0,0,1.248.36,1.839,1.839,0,0,0,1.1-.277A.861.861,0,0,0,25.981,56.372Zm7.146-9.22V49.49h1.626v1.863H33.127V56.1a1.133,1.133,0,0,0,.2.756,1.015,1.015,0,0,0,.773.229,4.051,4.051,0,0,0,.747-.062v1.925a5.229,5.229,0,0,1-1.538.229,2.425,2.425,0,0,1-2.725-2.7V51.354H29.2V49.49h1.389V47.152Zm8.385,4.72a6.9,6.9,0,0,0-.914-.07,1.86,1.86,0,0,0-1.89.976V59h-2.54V49.49h2.4l.07,1.134a2.354,2.354,0,0,1,2.118-1.31,2.662,2.662,0,0,1,.791.114ZM47.98,59a2.821,2.821,0,0,1-.255-.853,3.073,3.073,0,0,1-2.4,1.028,3.376,3.376,0,0,1-2.316-.809,2.6,2.6,0,0,1-.918-2.039,2.687,2.687,0,0,1,1.121-2.32,5.529,5.529,0,0,1,3.239-.817H47.62v-.545a1.567,1.567,0,0,0-.338-1.055,1.331,1.331,0,0,0-1.068-.4,1.513,1.513,0,0,0-1.006.308,1.045,1.045,0,0,0-.365.844H42.3a2.551,2.551,0,0,1,.51-1.529,3.37,3.37,0,0,1,1.441-1.1,5.253,5.253,0,0,1,2.092-.4,4.15,4.15,0,0,1,2.791.883,3.09,3.09,0,0,1,1.033,2.483V56.8a4.546,4.546,0,0,0,.378,2.048V59Zm-2.1-1.767a2.188,2.188,0,0,0,1.037-.25,1.645,1.645,0,0,0,.7-.672V54.676h-.949q-1.907,0-2.03,1.318l-.009.149a1.017,1.017,0,0,0,.334.782A1.3,1.3,0,0,0,45.88,57.233Zm9.281-10.081V49.49h1.626v1.863H55.161V56.1a1.133,1.133,0,0,0,.2.756,1.015,1.015,0,0,0,.773.229,4.051,4.051,0,0,0,.747-.062v1.925a5.229,5.229,0,0,1-1.538.229,2.425,2.425,0,0,1-2.725-2.7V51.354H51.232V49.49h1.389V47.152Zm7.418,12.023a4.668,4.668,0,0,1-3.406-1.283,4.561,4.561,0,0,1-1.314-3.419v-.246a5.745,5.745,0,0,1,.554-2.562,4.064,4.064,0,0,1,1.569-1.74,4.4,4.4,0,0,1,2.316-.611,3.947,3.947,0,0,1,3.072,1.23,5,5,0,0,1,1.121,3.489v1.037H60.434a2.36,2.36,0,0,0,.743,1.494,2.245,2.245,0,0,0,1.569.563,2.742,2.742,0,0,0,2.294-1.063l1.248,1.4a3.813,3.813,0,0,1-1.547,1.261A5.075,5.075,0,0,1,62.579,59.176Zm-.29-7.813a1.587,1.587,0,0,0-1.226.512,2.651,2.651,0,0,0-.6,1.466h3.533v-.2a1.891,1.891,0,0,0-.457-1.311A1.638,1.638,0,0,0,62.289,51.362Zm.229-5.862h2.769l-2.435,2.725H60.786Zm5.045,8.675A5.573,5.573,0,0,1,68.6,50.65a3.375,3.375,0,0,1,2.808-1.336,2.96,2.96,0,0,1,2.435,1.072l.105-.9h2.3v9.193a4.064,4.064,0,0,1-.567,2.171,3.641,3.641,0,0,1-1.6,1.406,5.608,5.608,0,0,1-2.408.483,5.215,5.215,0,0,1-2.039-.417,3.619,3.619,0,0,1-1.5-1.077L69.267,59.7a2.975,2.975,0,0,0,2.3,1.063,2.178,2.178,0,0,0,1.573-.541,2.027,2.027,0,0,0,.563-1.534v-.51a2.938,2.938,0,0,1-2.312.993,3.366,3.366,0,0,1-2.773-1.34,5.572,5.572,0,0,1-1.059-3.555Zm2.54.189a3.47,3.47,0,0,0,.519,2.029,1.65,1.65,0,0,0,1.424.735,1.764,1.764,0,0,0,1.661-.871V52.251a1.76,1.76,0,0,0-1.644-.871,1.66,1.66,0,0,0-1.437.748A3.911,3.911,0,0,0,70.1,54.364ZM80.886,59H78.338V49.49h2.549Zm-2.7-11.971a1.251,1.251,0,0,1,.382-.94,1.648,1.648,0,0,1,2.079,0,1.342,1.342,0,0,1,0,1.89,1.629,1.629,0,0,1-2.065,0A1.247,1.247,0,0,1,78.188,47.029Zm8.745,10.1a1.666,1.666,0,0,0,1.143-.387,1.355,1.355,0,0,0,.457-1.028h2.382a3.258,3.258,0,0,1-.527,1.771,3.48,3.48,0,0,1-1.419,1.248,4.442,4.442,0,0,1-1.991.444,4.129,4.129,0,0,1-3.217-1.3A5.13,5.13,0,0,1,82.583,54.3v-.167a5.071,5.071,0,0,1,1.169-3.507,4.08,4.08,0,0,1,3.208-1.31A4,4,0,0,1,89.82,50.33a3.594,3.594,0,0,1,1.094,2.7H88.533a1.745,1.745,0,0,0-.457-1.206,1.7,1.7,0,0,0-2.5.183,3.749,3.749,0,0,0-.453,2.1v.264a3.8,3.8,0,0,0,.448,2.113A1.549,1.549,0,0,0,86.933,57.128Zm5.036-2.971a5.64,5.64,0,0,1,.545-2.522,3.989,3.989,0,0,1,1.569-1.714,4.577,4.577,0,0,1,2.377-.606A4.33,4.33,0,0,1,99.6,50.492a4.727,4.727,0,0,1,1.358,3.2l.018.65a4.97,4.97,0,0,1-1.222,3.511,4.735,4.735,0,0,1-6.561,0,5.058,5.058,0,0,1-1.226-3.586Zm2.54.18a3.555,3.555,0,0,0,.51,2.073,1.831,1.831,0,0,0,2.9.009,3.89,3.89,0,0,0,.519-2.267,3.519,3.519,0,0,0-.519-2.06,1.686,1.686,0,0,0-1.459-.731,1.658,1.658,0,0,0-1.441.726A3.955,3.955,0,0,0,94.509,54.338Zm13.184,2.035a.818.818,0,0,0-.461-.734,5.241,5.241,0,0,0-1.481-.479q-3.393-.712-3.393-2.883a2.613,2.613,0,0,1,1.05-2.114,4.237,4.237,0,0,1,2.747-.848,4.56,4.56,0,0,1,2.9.853,2.687,2.687,0,0,1,1.085,2.215H107.6a1.229,1.229,0,0,0-.352-.9,1.488,1.488,0,0,0-1.1-.356,1.52,1.52,0,0,0-.993.29.916.916,0,0,0-.352.738.783.783,0,0,0,.4.681,4.114,4.114,0,0,0,1.349.448,11.019,11.019,0,0,1,1.6.426,2.628,2.628,0,0,1,2.013,2.558,2.481,2.481,0,0,1-1.116,2.1,4.815,4.815,0,0,1-2.883.8,5.029,5.029,0,0,1-2.123-.426,3.561,3.561,0,0,1-1.455-1.169,2.716,2.716,0,0,1-.527-1.6h2.408a1.326,1.326,0,0,0,.5,1.037,1.987,1.987,0,0,0,1.248.36,1.839,1.839,0,0,0,1.1-.277A.861.861,0,0,0,107.693,56.372Z" transform="translate(187.884 255.457)" fill="#12263f"/>
        <path id="Trazado_1260776" data-name="Trazado 1260776" d="M18,0h91.4a18,18,0,1,1,0,36.007H18A18,18,0,0,1,18,0Z" transform="translate(184.652 86.455)" fill="#ebcc30"/>
        <path id="Trazado_1260777" data-name="Trazado 1260777" d="M21.471,0h89.7a21.471,21.471,0,0,1,0,42.941h-89.7A21.471,21.471,0,0,1,21.471,0Z" transform="translate(0 383.293)" fill="#ebcc30"/>
        <path id="Trazado_1260778" data-name="Trazado 1260778" d="M10.5,14.315H8.4V19H5.762V6.2h4.755a5.375,5.375,0,0,1,3.5,1.011,3.488,3.488,0,0,1,1.23,2.856,3.937,3.937,0,0,1-.567,2.184,3.866,3.866,0,0,1-1.718,1.393l2.769,5.229V19H12.9ZM8.4,12.18h2.127a2.178,2.178,0,0,0,1.538-.505,1.806,1.806,0,0,0,.545-1.393,1.933,1.933,0,0,0-.514-1.424,2.137,2.137,0,0,0-1.578-.519H8.4ZM19.763,19H17.214V9.49h2.549Zm-2.7-11.971a1.251,1.251,0,0,1,.382-.94,1.648,1.648,0,0,1,2.079,0,1.244,1.244,0,0,1,.387.94,1.247,1.247,0,0,1-.391.949,1.629,1.629,0,0,1-2.065,0A1.247,1.247,0,0,1,17.065,7.029Zm9.167,12.146a4.668,4.668,0,0,1-3.406-1.283,4.561,4.561,0,0,1-1.314-3.419v-.246a5.745,5.745,0,0,1,.554-2.562,4.064,4.064,0,0,1,1.569-1.74,4.4,4.4,0,0,1,2.316-.611,3.947,3.947,0,0,1,3.072,1.23,5,5,0,0,1,1.121,3.489v1.037H24.087a2.36,2.36,0,0,0,.743,1.494,2.245,2.245,0,0,0,1.569.563,2.742,2.742,0,0,0,2.294-1.063l1.248,1.4a3.813,3.813,0,0,1-1.547,1.261A5.075,5.075,0,0,1,26.232,19.176Zm-.29-7.813a1.587,1.587,0,0,0-1.226.512,2.651,2.651,0,0,0-.6,1.466h3.533v-.2a1.891,1.891,0,0,0-.457-1.311A1.638,1.638,0,0,0,25.942,11.362Zm10.793,5.01a.818.818,0,0,0-.461-.734,5.241,5.241,0,0,0-1.481-.479Q31.4,14.447,31.4,12.276a2.613,2.613,0,0,1,1.05-2.114A4.237,4.237,0,0,1,35.2,9.314a4.56,4.56,0,0,1,2.9.853,2.687,2.687,0,0,1,1.085,2.215h-2.54a1.229,1.229,0,0,0-.352-.9,1.488,1.488,0,0,0-1.1-.356,1.52,1.52,0,0,0-.993.29.916.916,0,0,0-.352.738.783.783,0,0,0,.4.681,4.114,4.114,0,0,0,1.349.448,11.019,11.019,0,0,1,1.6.426A2.628,2.628,0,0,1,39.2,16.267a2.481,2.481,0,0,1-1.116,2.1,4.815,4.815,0,0,1-2.883.8,5.029,5.029,0,0,1-2.123-.426,3.561,3.561,0,0,1-1.455-1.169,2.716,2.716,0,0,1-.527-1.6h2.408a1.326,1.326,0,0,0,.5,1.037,1.987,1.987,0,0,0,1.248.36,1.839,1.839,0,0,0,1.1-.277A.861.861,0,0,0,36.735,16.372Zm3.735-2.2a5.573,5.573,0,0,1,1.042-3.524A3.375,3.375,0,0,1,44.32,9.314a2.96,2.96,0,0,1,2.435,1.072l.105-.9h2.3v9.193a4.064,4.064,0,0,1-.567,2.171A3.641,3.641,0,0,1,47,22.261a5.608,5.608,0,0,1-2.408.483,5.215,5.215,0,0,1-2.039-.417,3.619,3.619,0,0,1-1.5-1.077L42.175,19.7a2.975,2.975,0,0,0,2.3,1.063,2.178,2.178,0,0,0,1.573-.541,2.027,2.027,0,0,0,.563-1.534v-.51a2.938,2.938,0,0,1-2.312.993,3.366,3.366,0,0,1-2.773-1.34A5.572,5.572,0,0,1,40.47,14.28Zm2.54.189a3.47,3.47,0,0,0,.519,2.029,1.65,1.65,0,0,0,1.424.735,1.764,1.764,0,0,0,1.661-.871V12.251a1.76,1.76,0,0,0-1.644-.871,1.66,1.66,0,0,0-1.437.748A3.911,3.911,0,0,0,43.01,14.364Zm7.708-.207a5.64,5.64,0,0,1,.545-2.522,3.989,3.989,0,0,1,1.569-1.714,4.577,4.577,0,0,1,2.377-.606,4.33,4.33,0,0,1,3.142,1.178,4.727,4.727,0,0,1,1.358,3.2l.018.65a4.97,4.97,0,0,1-1.222,3.511,4.735,4.735,0,0,1-6.561,0,5.058,5.058,0,0,1-1.226-3.586Zm2.54.18a3.555,3.555,0,0,0,.51,2.073,1.831,1.831,0,0,0,2.9.009,3.89,3.89,0,0,0,.519-2.267,3.519,3.519,0,0,0-.519-2.06,1.686,1.686,0,0,0-1.459-.731,1.658,1.658,0,0,0-1.441.726A3.955,3.955,0,0,0,53.258,14.338Z" transform="translate(215.889 92.447)" fill="#12263f"/>
        <path id="Trazado_1260779" data-name="Trazado 1260779" d="M18,0H114.64a18,18,0,1,1,0,36.007H18A18,18,0,0,1,18,0Z" transform="translate(364.689 389.304)" fill="#ebcc30"/>
        <path id="Trazado_1260780" data-name="Trazado 1260780" d="M15.832,12.892a7.725,7.725,0,0,1-.668,3.313,5.03,5.03,0,0,1-1.912,2.2,5.288,5.288,0,0,1-2.852.773,5.324,5.324,0,0,1-2.839-.765,5.08,5.08,0,0,1-1.934-2.184,7.5,7.5,0,0,1-.694-3.265v-.633A7.685,7.685,0,0,1,5.615,9,5.072,5.072,0,0,1,7.539,6.8a5.3,5.3,0,0,1,2.843-.769,5.3,5.3,0,0,1,2.843.769A5.072,5.072,0,0,1,15.151,9a7.663,7.663,0,0,1,.681,3.318Zm-2.672-.58a5.385,5.385,0,0,0-.721-3.059,2.349,2.349,0,0,0-2.057-1.046A2.349,2.349,0,0,0,8.335,9.24a5.324,5.324,0,0,0-.729,3.028v.624a5.453,5.453,0,0,0,.721,3.041A2.342,2.342,0,0,0,10.4,17.014a2.321,2.321,0,0,0,2.039-1.042,5.421,5.421,0,0,0,.721-3.037Zm12.981,2.021a5.7,5.7,0,0,1-1,3.52,3.2,3.2,0,0,1-2.694,1.323,2.963,2.963,0,0,1-2.329-1v4.482h-2.54V9.49h2.355l.088.932a2.985,2.985,0,0,1,2.408-1.107,3.22,3.22,0,0,1,2.733,1.3,5.858,5.858,0,0,1,.976,3.586Zm-2.54-.185a3.743,3.743,0,0,0-.47-2.048,1.532,1.532,0,0,0-1.367-.721,1.663,1.663,0,0,0-1.644.914v3.894a1.692,1.692,0,0,0,1.661.94Q23.6,17.128,23.6,14.148Zm3.718.009a5.64,5.64,0,0,1,.545-2.522,3.989,3.989,0,0,1,1.569-1.714,4.577,4.577,0,0,1,2.377-.606,4.33,4.33,0,0,1,3.142,1.178,4.727,4.727,0,0,1,1.358,3.2l.018.65a4.97,4.97,0,0,1-1.222,3.511,4.247,4.247,0,0,1-3.278,1.323,4.268,4.268,0,0,1-3.283-1.318,5.058,5.058,0,0,1-1.226-3.586Zm2.54.18a3.555,3.555,0,0,0,.51,2.073,1.831,1.831,0,0,0,2.9.009,3.89,3.89,0,0,0,.519-2.267,3.519,3.519,0,0,0-.519-2.06,1.686,1.686,0,0,0-1.459-.731,1.658,1.658,0,0,0-1.441.726A3.955,3.955,0,0,0,29.859,14.338Zm13.377-2.465a6.9,6.9,0,0,0-.914-.07,1.86,1.86,0,0,0-1.89.976V19h-2.54V9.49h2.4l.07,1.134a2.354,2.354,0,0,1,2.118-1.31,2.662,2.662,0,0,1,.791.114Zm4.7-4.72V9.49h1.626v1.863H47.938V16.1a1.133,1.133,0,0,0,.2.756,1.015,1.015,0,0,0,.773.229,4.051,4.051,0,0,0,.747-.062v1.925a5.229,5.229,0,0,1-1.538.229,2.425,2.425,0,0,1-2.725-2.7V11.354H44.01V9.49H45.4V7.152Zm8.736,10.881a3.185,3.185,0,0,1-2.6,1.143A3,3,0,0,1,51.74,18.3a3.752,3.752,0,0,1-.822-2.575V9.49h2.54v6.151q0,1.487,1.354,1.487a1.834,1.834,0,0,0,1.775-.9V9.49h2.549V19H56.745ZM63.39,9.49l.079,1.1A3.32,3.32,0,0,1,66.2,9.314a2.759,2.759,0,0,1,2.25.888,4.142,4.142,0,0,1,.756,2.654V19h-2.54V12.918a1.648,1.648,0,0,0-.352-1.173,1.574,1.574,0,0,0-1.169-.365,1.747,1.747,0,0,0-1.608.914V19H61V9.49ZM73.813,19H71.265V9.49h2.549Zm-2.7-11.971a1.251,1.251,0,0,1,.382-.94,1.648,1.648,0,0,1,2.079,0,1.244,1.244,0,0,1,.387.94,1.247,1.247,0,0,1-.391.949,1.629,1.629,0,0,1-2.065,0A1.247,1.247,0,0,1,71.115,7.029Zm4.395,7.146a5.731,5.731,0,0,1,1-3.542,3.237,3.237,0,0,1,2.729-1.318,2.913,2.913,0,0,1,2.294,1.037V5.5h2.549V19H81.785l-.123-1.011a2.989,2.989,0,0,1-2.443,1.187,3.228,3.228,0,0,1-2.694-1.323A5.916,5.916,0,0,1,75.51,14.175Zm2.54.189a3.754,3.754,0,0,0,.466,2.051,1.517,1.517,0,0,0,1.354.713,1.7,1.7,0,0,0,1.661-.995V12.375a1.675,1.675,0,0,0-1.644-.995Q78.05,11.38,78.05,14.364ZM91.558,19a2.821,2.821,0,0,1-.255-.853,3.073,3.073,0,0,1-2.4,1.028,3.376,3.376,0,0,1-2.316-.809,2.6,2.6,0,0,1-.918-2.039,2.687,2.687,0,0,1,1.121-2.32,5.529,5.529,0,0,1,3.239-.817H91.2v-.545a1.567,1.567,0,0,0-.338-1.055,1.331,1.331,0,0,0-1.068-.4,1.513,1.513,0,0,0-1.006.308,1.045,1.045,0,0,0-.365.844h-2.54a2.551,2.551,0,0,1,.51-1.529,3.37,3.37,0,0,1,1.441-1.1,5.253,5.253,0,0,1,2.092-.4,4.15,4.15,0,0,1,2.791.883,3.09,3.09,0,0,1,1.033,2.483V16.8a4.546,4.546,0,0,0,.378,2.048V19Zm-2.1-1.767a2.188,2.188,0,0,0,1.037-.25,1.645,1.645,0,0,0,.7-.672V14.676h-.949q-1.907,0-2.03,1.318l-.009.149a1.017,1.017,0,0,0,.334.782A1.3,1.3,0,0,0,89.458,17.233ZM95.3,14.175a5.731,5.731,0,0,1,1-3.542,3.237,3.237,0,0,1,2.729-1.318,2.913,2.913,0,0,1,2.294,1.037V5.5h2.549V19h-2.294l-.123-1.011a2.989,2.989,0,0,1-2.443,1.187,3.228,3.228,0,0,1-2.694-1.323A5.916,5.916,0,0,1,95.3,14.175Zm2.54.189a3.754,3.754,0,0,0,.466,2.051,1.517,1.517,0,0,0,1.354.713,1.7,1.7,0,0,0,1.661-.995V12.375a1.675,1.675,0,0,0-1.644-.995Q97.843,11.38,97.843,14.364Zm12.375,4.812a4.668,4.668,0,0,1-3.406-1.283,4.561,4.561,0,0,1-1.314-3.419v-.246a5.745,5.745,0,0,1,.554-2.562,4.064,4.064,0,0,1,1.569-1.74,4.4,4.4,0,0,1,2.316-.611,3.947,3.947,0,0,1,3.072,1.23,5,5,0,0,1,1.121,3.489v1.037h-6.056a2.36,2.36,0,0,0,.743,1.494,2.245,2.245,0,0,0,1.569.563,2.742,2.742,0,0,0,2.294-1.063l1.248,1.4a3.813,3.813,0,0,1-1.547,1.261A5.075,5.075,0,0,1,110.218,19.176Zm-.29-7.813a1.587,1.587,0,0,0-1.226.512,2.651,2.651,0,0,0-.6,1.466h3.533v-.2a1.891,1.891,0,0,0-.457-1.311A1.638,1.638,0,0,0,109.928,11.362Zm10.793,5.01a.818.818,0,0,0-.461-.734,5.241,5.241,0,0,0-1.481-.479q-3.393-.712-3.393-2.883a2.613,2.613,0,0,1,1.05-2.114,4.237,4.237,0,0,1,2.747-.848,4.56,4.56,0,0,1,2.9.853,2.687,2.687,0,0,1,1.085,2.215h-2.54a1.229,1.229,0,0,0-.352-.9,1.488,1.488,0,0,0-1.1-.356,1.52,1.52,0,0,0-.993.29.916.916,0,0,0-.352.738.783.783,0,0,0,.4.681,4.114,4.114,0,0,0,1.349.448,11.019,11.019,0,0,1,1.6.426,2.628,2.628,0,0,1,2.013,2.558,2.481,2.481,0,0,1-1.116,2.1,4.815,4.815,0,0,1-2.883.8,5.029,5.029,0,0,1-2.123-.426,3.561,3.561,0,0,1-1.455-1.169,2.716,2.716,0,0,1-.527-1.6H117.5a1.326,1.326,0,0,0,.5,1.037,1.987,1.987,0,0,0,1.248.36,1.839,1.839,0,0,0,1.1-.277A.861.861,0,0,0,120.721,16.372Z" transform="translate(364.072 395.295)" fill="#12263f"/>
        <path id="Trazado_1260781" data-name="Trazado 1260781" d="M30.99,14.491V19H28.353V6.2h4.992a5.776,5.776,0,0,1,2.536.527,3.886,3.886,0,0,1,1.683,1.5,4.178,4.178,0,0,1,.589,2.21,3.674,3.674,0,0,1-1.288,2.966A5.363,5.363,0,0,1,33.3,14.491Zm0-2.136h2.355a2.316,2.316,0,0,0,1.6-.492,1.79,1.79,0,0,0,.549-1.406,2.111,2.111,0,0,0-.554-1.521,2.068,2.068,0,0,0-1.529-.6H30.99ZM45.21,19a2.821,2.821,0,0,1-.255-.853,3.073,3.073,0,0,1-2.4,1.028,3.376,3.376,0,0,1-2.316-.809,2.6,2.6,0,0,1-.918-2.039,2.687,2.687,0,0,1,1.121-2.32,5.529,5.529,0,0,1,3.239-.817H44.85v-.545a1.567,1.567,0,0,0-.338-1.055,1.331,1.331,0,0,0-1.068-.4,1.513,1.513,0,0,0-1.006.308,1.045,1.045,0,0,0-.365.844h-2.54a2.551,2.551,0,0,1,.51-1.529,3.37,3.37,0,0,1,1.441-1.1,5.253,5.253,0,0,1,2.092-.4,4.15,4.15,0,0,1,2.791.883A3.09,3.09,0,0,1,47.4,12.681V16.8a4.546,4.546,0,0,0,.378,2.048V19Zm-2.1-1.767a2.188,2.188,0,0,0,1.037-.25,1.645,1.645,0,0,0,.7-.672V14.676H43.9q-1.907,0-2.03,1.318l-.009.149a1.017,1.017,0,0,0,.334.782A1.3,1.3,0,0,0,43.11,17.233Zm11.584-5.361a6.9,6.9,0,0,0-.914-.07,1.86,1.86,0,0,0-1.89.976V19H49.35V9.49h2.4l.07,1.134a2.354,2.354,0,0,1,2.118-1.31,2.662,2.662,0,0,1,.791.114Zm4.7-4.72V9.49h1.626v1.863H59.4V16.1a1.133,1.133,0,0,0,.2.756,1.015,1.015,0,0,0,.773.229,4.051,4.051,0,0,0,.747-.062v1.925a5.229,5.229,0,0,1-1.538.229,2.425,2.425,0,0,1-2.725-2.7V11.354H55.467V9.49h1.389V7.152Zm7.418,12.023a4.668,4.668,0,0,1-3.406-1.283,4.561,4.561,0,0,1-1.314-3.419v-.246a5.745,5.745,0,0,1,.554-2.562,4.064,4.064,0,0,1,1.569-1.74,4.4,4.4,0,0,1,2.316-.611,3.947,3.947,0,0,1,3.072,1.23,5,5,0,0,1,1.121,3.489v1.037H64.669a2.36,2.36,0,0,0,.743,1.494,2.245,2.245,0,0,0,1.569.563,2.742,2.742,0,0,0,2.294-1.063l1.248,1.4a3.813,3.813,0,0,1-1.547,1.261A5.075,5.075,0,0,1,66.814,19.176Zm-.29-7.813a1.587,1.587,0,0,0-1.226.512,2.651,2.651,0,0,0-.6,1.466h3.533v-.2a1.891,1.891,0,0,0-.457-1.311A1.638,1.638,0,0,0,66.524,11.362Zm10.793,5.01a.818.818,0,0,0-.461-.734,5.241,5.241,0,0,0-1.481-.479q-3.393-.712-3.393-2.883a2.613,2.613,0,0,1,1.05-2.114,4.237,4.237,0,0,1,2.747-.848,4.56,4.56,0,0,1,2.9.853,2.687,2.687,0,0,1,1.085,2.215H77.22a1.229,1.229,0,0,0-.352-.9,1.488,1.488,0,0,0-1.1-.356,1.52,1.52,0,0,0-.993.29.916.916,0,0,0-.352.738.783.783,0,0,0,.4.681,4.114,4.114,0,0,0,1.349.448,11.019,11.019,0,0,1,1.6.426,2.628,2.628,0,0,1,2.013,2.558,2.481,2.481,0,0,1-1.116,2.1,4.815,4.815,0,0,1-2.883.8,5.029,5.029,0,0,1-2.123-.426,3.561,3.561,0,0,1-1.455-1.169,2.716,2.716,0,0,1-.527-1.6h2.408a1.326,1.326,0,0,0,.5,1.037,1.987,1.987,0,0,0,1.248.36,1.839,1.839,0,0,0,1.1-.277A.861.861,0,0,0,77.317,16.372Z" transform="translate(12.494 383.293)" fill="#12263f"/>
        <g id="Grupo_1203761" data-name="Grupo 1203761" transform="translate(222.625 21.103)">
          <g id="Grupo_1203760" data-name="Grupo 1203760" clip-path="url(#clip-path-5)">
            <path id="Trazado_1257141" data-name="Trazado 1257141" d="M23.9,0l5.929.134c6.86,1.231,18.487.923,19.181,10.185.492,6.572-.38,13.755-.01,20.392C47.276,40.739,40.32,48.944,31.89,54.193c-6.272,3.9-8.178,3.971-14.484.074C8.9,49.01,1.79,40.655.175,30.534c.442-6.586-.57-13.893.01-20.392C1.068.23,16.7.992,23.9,0m-.374,2.058A69.071,69.071,0,0,0,10.617,3.74c-3.875.9-7.811,1.719-8.376,6.4C2.863,19.491.447,29.462,4.7,38.169c2.582,5.29,7.373,9.959,12.183,13.255,4.393,3.009,6.693,5.039,11.858,2.235,8.795-4.774,16.828-13.244,18.2-23.51-.4-6.413.548-13.5.01-19.831-.442-5.2-4.925-5.984-9.17-6.916A57.853,57.853,0,0,0,23.524,2.058" transform="translate(0)" fill="#0d5365"/>
            <path id="Trazado_1257142" data-name="Trazado 1257142" d="M46.483,32.727l2.945-.063c5.52.8,16.612.441,17.3,7.949.48,5.22-.373,11.168-.01,16.467-1.5,7.948-7.51,14.978-14.463,18.832-4.116,2.281-5.6,2.164-9.65-.14C36.843,72.493,31.27,66.579,29.18,60.207c-1.887-5.756-.25-13.5-.8-19.584.752-7.56,12.566-7.125,18.1-7.9m-.374,2.058a50.342,50.342,0,0,0-10.288,1.5c-2.63.691-5.032,1.39-5.383,4.53.494,6.855-1.284,14.509,1.521,20.92,2.151,4.918,6.532,9,11.025,11.795,2.931,1.821,4,2.774,7.4,1.077,5.77-2.874,11.435-8.756,13.532-14.9,1.851-5.427.157-13.285.746-19.083-.469-3.571-4.154-4.231-7.107-4.864a45.675,45.675,0,0,0-11.45-.972" transform="translate(-22.959 -26.554)" fill="#0d5365"/>
            <path id="Trazado_1257143" data-name="Trazado 1257143" d="M110.415,73.554c2.812-.48,5.4.992,5.657,3.978a78.057,78.057,0,0,1-1.318,12.519,3.418,3.418,0,0,1-6.6.071c-.939-3.383-.479-8.133-1.25-11.661a4.5,4.5,0,0,1,3.505-4.908m.754,1.863a2.714,2.714,0,0,0-2.215,2.867,91.437,91.437,0,0,0,1,10.231c.321,2.073,1.654,3.006,2.9.948.045-3.633,1.225-7.811,1.175-11.372a2.614,2.614,0,0,0-2.862-2.673" transform="translate(-86.902 -59.724)" fill="#0d5365"/>
            <path id="Trazado_1257144" data-name="Trazado 1257144" d="M111.6,186.511c7.751-1.309,6.269,10.779-.507,8.274-4.014-1.484-3.422-7.611.507-8.274m2.6,5.878a2.306,2.306,0,0,0-2.536-3.751c-3.2,1.424-.013,6.184,2.536,3.751" transform="translate(-88.085 -151.543)" fill="#0d5365"/>
          </g>
        </g>
        <g id="Grupo_1203763" data-name="Grupo 1203763" transform="translate(398.89 324.722)">
          <g id="Grupo_1203762" data-name="Grupo 1203762" clip-path="url(#clip-path-6)">
            <path id="Trazado_1257145" data-name="Trazado 1257145" d="M196.884,92.187a1.622,1.622,0,0,1-.873.214,102.544,102.544,0,0,1-13.555,0,1.344,1.344,0,0,1-1-.34L181.4,75.447a8.01,8.01,0,0,1,1.488-3.527l11.277-11.291c.44-2.553-.745-5.673,1.333-7.694a14.475,14.475,0,0,1,2.074-1.269c.026-2.6-.334-5.288,2.249-6.779a12.914,12.914,0,0,0,1.287-.552c.217-.227.18-.686.348-.989,2.188-3.934,7.34-2.895,8.156,1.339-.476,6.93.709,14.881,0,21.693a8.044,8.044,0,0,1-1.145,3.2l-11.282,15.8c-.358,1.1.261,6.25-.3,6.808m-1.465-1.465V84.955c4.013-5.978,8.674-11.6,12.29-17.8.571-7.218.083-14.563.254-21.825a2.6,2.6,0,0,0-5.149-.622c-.446,5.779.457,12.144-.034,17.853a4.289,4.289,0,0,1-.94,2.4c-3.118,4.143-8.73,8.017-12.1,12.137l-.76.412a1.011,1.011,0,0,1-.414-1.752L200.8,63.423a2.571,2.571,0,0,0-3.663-3.328c-3.792,4.174-8.955,8.113-12.5,12.4a7.633,7.633,0,0,0-1.586,3.095V90.722ZM201.1,46.255a2.3,2.3,0,0,0-1.661,1.766l.009,10.084,1.652.687Zm-3.511,11.869V53.611a3.162,3.162,0,0,0-1.672,1.922v3.26Z" transform="translate(-151.074 -34.054)" fill="#0d5365"/>
            <path id="Trazado_1257146" data-name="Trazado 1257146" d="M12.957,92.205c-.558-.558.061-5.708-.3-6.808C9.287,80.079,4.584,74.948,1.378,69.6A8.141,8.141,0,0,1,.233,66.4c-.711-6.811.474-14.763,0-21.693a4.3,4.3,0,0,1,8.156-1.339c.168.3.131.762.348.989a12.915,12.915,0,0,0,1.287.552c2.582,1.49,2.222,4.176,2.249,6.779a14.473,14.473,0,0,1,2.074,1.269c2.078,2.021.893,5.141,1.333,7.694L26.956,71.938a8.008,8.008,0,0,1,1.487,3.527l-.061,16.614a1.345,1.345,0,0,1-1,.34,102.548,102.548,0,0,1-13.556,0,1.622,1.622,0,0,1-.873-.214M26.793,90.74V75.612a7.631,7.631,0,0,0-1.586-3.095c-3.55-4.29-8.712-8.229-12.5-12.4a2.571,2.571,0,0,0-3.663,3.328L21.276,75.779a1.011,1.011,0,0,1-.414,1.752l-.76-.412C16.73,73,11.119,69.125,8,64.982a4.289,4.289,0,0,1-.94-2.4C6.57,56.87,7.473,50.5,7.027,44.725a2.6,2.6,0,0,0-5.149.622c.4,6.629-.515,13.849,0,20.407a6.3,6.3,0,0,0,.94,2.905l11.6,16.313V90.74ZM8.738,46.273V58.811l1.652-.687L10.4,48.039a2.3,2.3,0,0,0-1.661-1.766m5.182,12.538v-3.26a3.162,3.162,0,0,0-1.672-1.922v4.514Z" transform="translate(0 -34.072)" fill="#0d5365"/>
            <path id="Trazado_1257147" data-name="Trazado 1257147" d="M115.449,13.106a37.689,37.689,0,0,1,3.159,3.109,1.13,1.13,0,0,1-.064,1.1c-.479.6-8.03,1.091-9.278,1.587l-4.135,8.068a.843.843,0,0,1-1.459,0L99.539,18.9c-2.714-.668-5.567-.7-8.3-1.231-.968-.188-1.462-.472-.972-1.553l6.769-6.6c1.07-.584,1.9.318,1.176,1.343-.188.265-.587.414-.837.667-1.537,1.554-3.126,3.064-4.593,4.684l7.953,1.16L104.4,24.4l3.666-7.03,7.953-1.16-5.608-5.673C110.086,9.5,111.794,2.9,111.506,2.5l-6.4,3.38H103.7L97.3,2.5c-.219.3.671,3.572.654,4.256a.87.87,0,0,1-1.5.517c-.631-.636-.826-5.27-1.278-6.394A.933.933,0,0,1,96.057,0L104.4,4.193,112.748,0a.934.934,0,0,1,.883.884l-1.555,8.9a38.926,38.926,0,0,0,3.374,3.322" transform="translate(-75.019 0.001)" fill="#0d5365"/>
          </g>
        </g>
        <g id="Grupo_1203765" data-name="Grupo 1203765" transform="translate(40.196 319.634)">
          <g id="Grupo_1203764" data-name="Grupo 1203764" transform="translate(0 0)" clip-path="url(#clip-path-7)">
            <path id="Trazado_1257148" data-name="Trazado 1257148" d="M71.625,46.563a1.15,1.15,0,0,1-1.084,1.867L50.012,36.686,29.483,48.43A1.129,1.129,0,0,1,28.5,46.5L48.926,34.751l.094-23.427a1.315,1.315,0,0,1,.992-1.193A1.3,1.3,0,0,1,51,11.324L51.1,34.75Z" transform="translate(-22 -7.925)" fill="#0d5365"/>
            <path id="Trazado_1257149" data-name="Trazado 1257149" d="M6.487,49.381c.394-.033,1.384.658,1.916.83a7.7,7.7,0,0,0,3.655.371c2.191-.3,2.75-1.993,4.842-.374a13.865,13.865,0,0,1,4.623,7.355c.9,3.709.925,4.356-2.4,6.18A16.666,16.666,0,0,1,5.3,64.854C4.286,64.5.2,62.58.024,61.639a14.4,14.4,0,0,1,3.157-9.7c.551-.663,2.5-2.495,3.305-2.562M2.012,60.84a15.219,15.219,0,0,0,14.5,1.816c.834-.332,3.325-1.445,3.358-2.321.08-2.1-2.319-7.791-4.39-8.5A20.572,20.572,0,0,0,13.1,52.5a10.559,10.559,0,0,1-6.621-.726A12.309,12.309,0,0,0,2.012,60.84" transform="translate(0 -38.625)" fill="#0d5365"/>
            <path id="Trazado_1257150" data-name="Trazado 1257150" d="M162.676,49.6c.628,0,2.155.956,3.148,1.114a7.4,7.4,0,0,0,3.665-.277c2.048-.639,1.7-1.529,3.854.162A14.475,14.475,0,0,1,178,59.438c.254,2.527.163,2.7-1.867,3.96a16.918,16.918,0,0,1-17.2.516c-3.39-1.848-3.309-2.609-2.36-6.355.532-2.1,3.7-7.947,6.1-7.961M176.045,61.01a12.309,12.309,0,0,0-4.468-9.069,10.559,10.559,0,0,1-6.621.726A13.037,13.037,0,0,0,162.581,52a11.468,11.468,0,0,0-4.321,9,15.137,15.137,0,0,0,17.785.011" transform="translate(-122.033 -38.795)" fill="#0d5365"/>
            <path id="Trazado_1257151" data-name="Trazado 1257151" d="M99.8,214.89a18.761,18.761,0,0,1-2.4,1.625,17.055,17.055,0,0,1-16.765-.08c-1.782-1.007-2.671-1.38-2.543-3.548.2-3.462,2.3-7.847,5.152-9.875,2.113-1.5,2.4.038,4.37.345a11.878,11.878,0,0,0,2.562.054c2.336-.258,2.621-2.046,5-.214a13.783,13.783,0,0,1,4.239,6.433c.339,1.127,1.094,4.37.383,5.26m-15.07-10.313c-2.243,1.012-5.093,6.76-4.424,8.92.176.569,2.581,1.741,3.229,2a15.07,15.07,0,0,0,13.129-1.019c1.257-.794,1.382-.8,1.184-2.406a11.55,11.55,0,0,0-4.183-7.377l-.343-.092a9.66,9.66,0,0,1-8.592-.022" transform="translate(-61.075 -158.292)" fill="#0d5365"/>
            <path id="Trazado_1257152" data-name="Trazado 1257152" d="M112.168,152.255c6.175-.762,6.871,8.779.783,9.08-5.59.276-6.369-8.39-.783-9.08m2.371,6.186c1.961-2.058-.982-5.582-3.391-3.5-2.373,2.05,1.007,6,3.391,3.5" transform="translate(-84.751 -119.062)" fill="#0d5365"/>
            <path id="Trazado_1257153" data-name="Trazado 1257153" d="M33.34.135a4.541,4.541,0,0,1,4.469,7.3,4.564,4.564,0,0,1-7.119-.178C28.87,4.724,30.148.679,33.34.135m-.74,6.19c2.234,2.147,5.519-1.058,3.5-3.393-2-2.313-5.944,1.047-3.5,3.393" transform="translate(-23.353 -0.047)" fill="#0d5365"/>
            <path id="Trazado_1257154" data-name="Trazado 1257154" d="M189.979.088c6.233-1.063,7.145,7.926,1.858,8.825-6.4,1.087-7.331-7.892-1.858-8.825m2.6,6.19c2.441-2.346-1.5-5.707-3.5-3.393-2.017,2.335,1.268,5.54,3.5,3.393" transform="translate(-145.8 -0.001)" fill="#0d5365"/>
          </g>
        </g>
        <g id="Grupo_1203767" data-name="Grupo 1203767" transform="translate(215.89 183.967)">
          <g id="Grupo_1203766" data-name="Grupo 1203766" transform="translate(0 0)" clip-path="url(#clip-path-8)">
            <path id="Trazado_1257155" data-name="Trazado 1257155" d="M52.7,65.936a1.124,1.124,0,0,1-.656.231c-1.194-.075-5.851-4.16-7.461-4.611l-7.14,4.534a.852.852,0,0,1-1.205-.8c-.429-3.576.348-8.005.007-11.677l-1.434-1.9A25.4,25.4,0,0,1,2.3,23.286c.422-2.767,1.62-5.253,2.534-7.86L.224,10.565A.933.933,0,0,1,.447,9.157c1.38-.972,4.286-1.447,5.817-2.432C7.126,5.832,8.577.609,9.224.179A1.184,1.184,0,0,1,9.8,0c.71.061,4.459,4.571,5.456,5.189,19.4-10.346,42.041,7.442,36.521,28.685a12.7,12.7,0,0,1,4.347,15.06,21.58,21.58,0,0,1-3.166,4.681c-.248,3.646.312,7.673,0,11.271a1.922,1.922,0,0,1-.258,1.048M10.982,3.327c-.322-.334-.519-.973-1.088-.921l-1.773,4.7,7.4,7.37,1.1-5.443c-1.9-1.881-3.788-3.785-5.64-5.707m39.35,29.661C54.953,13.639,34.274-2.894,16.535,6.53c.5.643,1.727,1.385,1.806,2.231.085.906-1.187,4.926-1,5.112,1.189-.551,2.264-1.345,3.484-1.846,12.287-5.044,24.637,5.015,23.046,18.016-.042.343-.375,1.356-.368,1.44.038.457.809.05,1.1.076a17.071,17.071,0,0,1,5.736,1.43m-36.216-17.1L6.877,8.334l-4.429,1.72a1.526,1.526,0,0,0,.5,1.006c1.568,1.967,4.044,3.647,5.592,5.7ZM33.16,33.32c-6.09,6.212-16.585-.249-13.618-8.689.324-.922.995-1.5,1.193-2.366L16.028,17.5C5.612,29.058,17.779,47.09,32.32,41.634a13.18,13.18,0,0,1,9.364-9.751c4.408-14.474-13-25.712-24.333-15.668l4.711,4.854a8.28,8.28,0,0,1,13.389,7.4A8.561,8.561,0,0,1,33.16,33.32M13.712,17.5,8.375,18.614l-2.3-1.721c-9.037,18.322,7.893,38.888,27.562,33.4a16.585,16.585,0,0,1-1.61-6.637C17.858,47.623,5.579,32.961,12.4,19.7c.184-.358,1.463-2.029,1.314-2.2m12.834,3.478c-.555.059-3.312.787-3.166,1.439.1.455,3.905,3.7,4.428,4.428.433.489.169,1.5-.508,1.516-.891.018-4.274-4.115-5.236-4.82-2.978,3.363-.731,9.669,3.67,10.411,10.547,1.777,10.526-14,.812-12.973m16.3,12.474c-12.931,1.548-11.62,22.388,2.567,21.48,14.045-.9,12.956-23.339-2.567-21.48m8.495,21.271a20.625,20.625,0,0,1-3.778,1.554,14.725,14.725,0,0,1-6.241-.086,22.887,22.887,0,0,1-3.461-1.468v8.853c.312.07.473-.072.717-.188,1.053-.5,5.209-3.807,5.819-3.827l6.944,4.015Z" transform="translate(0 0)" fill="#0d5365"/>
            <path id="Trazado_1257156" data-name="Trazado 1257156" d="M193.591,186.321c1.3.326,3.18.319,4.4.735,2.251.771-2.406,3.618-2.587,4.688-.074.963.874,4.186.386,4.794-.865,1.076-3.777-1.5-4.948-1.5-1.388,0-3.331,2.15-4.9,1.755-.583-.367.324-4.246.342-5.062-.136-.593-2.808-2.765-3.084-3.363-.936-2.026,3.791-1.412,4.837-2.2.724-.546,1.82-4.242,2.806-4.242.83,0,2.26,3.645,2.755,4.394m2.375,2.051-3.41-.715-1.72-2.9-1.721,2.9-3.611.717c1.025,1.519,2.494,1.664,2.412,3.718-.03.754-.3,1.745-.4,2.516l3.319-1.419,3.319,1.419c-.159-1.067-.668-2.634-.36-3.68.131-.445,2.494-2.244,2.171-2.555" transform="translate(-146.237 -145.323)" fill="#0d5365"/>
          </g>
        </g>
      </g>
      <g id="Grupo_1203769" data-name="Grupo 1203769" transform="translate(1029.378 3894.81)">
        <g id="Grupo_1203768" data-name="Grupo 1203768" transform="translate(0)" clip-path="url(#clip-path-9)">
          <path id="Trazado_1257157" data-name="Trazado 1257157" d="M259.364,92.836H174.188a8.652,8.652,0,0,1-8.652-8.652V33.8a8.652,8.652,0,0,1,8.652-8.652h85.176a8.652,8.652,0,0,1,8.652,8.652V84.184a8.652,8.652,0,0,1-8.652,8.652" transform="translate(-22.312 -3.389)" fill="#a4b1e3"/>
          <path id="Trazado_1257158" data-name="Trazado 1257158" d="M267.326,84.874H182.15a8.652,8.652,0,0,1-8.652-8.652V25.833a8.652,8.652,0,0,1,8.652-8.652h85.176a8.652,8.652,0,0,1,8.652,8.652V76.222a8.652,8.652,0,0,1-8.652,8.652" transform="translate(-23.386 -2.316)" fill="#fff"/>
          <line id="Línea_3362" data-name="Línea 3362" x2="26.408" transform="translate(163.202 34.155)" fill="none" stroke="#a4b1e3" stroke-linecap="round" stroke-linejoin="round" stroke-width="2"/>
          <line id="Línea_3363" data-name="Línea 3363" x2="69.078" transform="translate(163.202 44.358)" fill="none" stroke="#a4b1e3" stroke-linecap="round" stroke-linejoin="round" stroke-width="2"/>
          <line id="Línea_3364" data-name="Línea 3364" x2="69.078" transform="translate(163.202 52.813)" fill="none" stroke="#a4b1e3" stroke-linecap="round" stroke-linejoin="round" stroke-width="2"/>
          <line id="Línea_3365" data-name="Línea 3365" x2="36.052" transform="translate(163.202 61.268)" fill="none" stroke="#a4b1e3" stroke-linecap="round" stroke-linejoin="round" stroke-width="2"/>
          <path id="Trazado_1257159" data-name="Trazado 1257159" d="M304.493,14.865A14.866,14.866,0,1,1,289.628,0a14.864,14.864,0,0,1,14.865,14.865" transform="translate(-37.035)" fill="#8ebbca"/>
          <path id="Trazado_1257160" data-name="Trazado 1257160" d="M290.224,22.411a.871.871,0,0,1-.652-.3l-3.929-4.49a.866.866,0,0,1,1.3-1.14l3.265,3.733,8.351-9.889a.865.865,0,1,1,1.321,1.116l-9,10.659a.863.863,0,0,1-.653.307Z" transform="translate(-38.473 -1.351)" fill="#fff"/>
          <path id="Trazado_1257161" data-name="Trazado 1257161" d="M96.606,209.124H8.652A8.652,8.652,0,0,1,0,200.472V186.61a8.652,8.652,0,0,1,8.652-8.652H96.606a8.652,8.652,0,0,1,8.652,8.652v13.862a8.652,8.652,0,0,1-8.652,8.652" transform="translate(0 -23.987)" fill="#a4b1e3"/>
          <path id="Trazado_1257162" data-name="Trazado 1257162" d="M104.938,200.791H16.984a8.652,8.652,0,0,1-8.652-8.652V178.277a8.652,8.652,0,0,1,8.652-8.652h87.954a8.652,8.652,0,0,1,8.652,8.652v13.862a8.652,8.652,0,0,1-8.652,8.652" transform="translate(-1.123 -22.864)" fill="#c3cdef"/>
          <rect id="Rectángulo_454902" data-name="Rectángulo 454902" width="17.302" height="44.326" transform="translate(33.645 119.069)" fill="#a4b1e3"/>
          <rect id="Rectángulo_454903" data-name="Rectángulo 454903" width="17.302" height="53.567" transform="translate(55.513 109.828)" fill="#6e7dd0"/>
          <rect id="Rectángulo_454904" data-name="Rectángulo 454904" width="17.302" height="63.473" transform="translate(79.544 99.922)" fill="none" stroke="#fff" stroke-linecap="round" stroke-linejoin="round" stroke-width="2"/>
          <line id="Línea_3366" data-name="Línea 3366" x2="76.66" transform="translate(20.186 163.395)" fill="none" stroke="#fff" stroke-linecap="round" stroke-linejoin="round" stroke-width="2"/>
          <path id="Trazado_1257163" data-name="Trazado 1257163" d="M98.443,90.252,76.862,86,79.6,93.351,10.36,119.173l2.571,6.9,69.244-25.822,2.741,7.35Z" transform="translate(-1.396 -11.592)" fill="#8ebbca"/>
          <path id="Trazado_1257164" data-name="Trazado 1257164" d="M90.105,23.131a16.723,16.723,0,0,0-.65-4.576l4.139-2.39L89.479,9.036l-4.143,2.391a16.791,16.791,0,0,0-7.924-4.574V2.069H69.181V6.854a16.784,16.784,0,0,0-7.923,4.574L57.116,9.036,53,16.165l4.139,2.39a16.439,16.439,0,0,0,0,9.152L53,30.1l4.116,7.129,4.143-2.391a16.79,16.79,0,0,0,7.923,4.573v4.785h8.232V39.407a16.8,16.8,0,0,0,7.924-4.573l4.143,2.391L93.595,30.1l-4.139-2.39a16.727,16.727,0,0,0,.65-4.576M73.3,31.706a8.576,8.576,0,1,1,8.576-8.575A8.585,8.585,0,0,1,73.3,31.706" transform="translate(-7.144 -0.279)" fill="#a4b1e3"/>
          <path id="Trazado_1257165" data-name="Trazado 1257165" d="M126.058,47.935a10.121,10.121,0,0,0,.654-2.721l2.863-.423-.728-4.931-2.866.423a10.166,10.166,0,0,0-3.442-4.341l1.067-2.694-4.635-1.834L117.9,34.107a10.167,10.167,0,0,0-5.479.809l-1.8-2.269-3.906,3.1,1.8,2.268a9.948,9.948,0,0,0-2.04,5.152l-2.863.423.729,4.932,2.865-.423a10.169,10.169,0,0,0,3.442,4.34l-1.067,2.693,4.635,1.835,1.067-2.693a10.166,10.166,0,0,0,5.479-.809l1.8,2.269,3.906-3.1-1.8-2.268a10.144,10.144,0,0,0,1.385-2.431m-11.374,1.082a5.192,5.192,0,1,1,6.739-2.917,5.2,5.2,0,0,1-6.739,2.917" transform="translate(-13.966 -4.234)" fill="#6e7dd0"/>
          <path id="Trazado_1257166" data-name="Trazado 1257166" d="M248.624,170.365c-21.918-5.479-14.42-18.025-15.718-33.455s-12.978-17.88-22.206-17.737c-5.515.087-16.227-.96-23.959-1.816l-9.064-1.068s-1.586-7.787-12.113-5.047-14.42,33.166,11.1,36.194H188.78l-.578-8.589a59.181,59.181,0,0,0,15.719,10.9c-.288,7.21,6.778,12.834,6.778,12.834s-31.725,2.451-39.656,3.461-25.812,3.749-30.138,23.505,15.862,27.83,15.862,27.83l42.252,2.163s60.42,8.219,68.207-8.94,3.316-34.753-18.6-40.232" transform="translate(-18.911 -14.916)" fill="#24110d"/>
          <path id="Trazado_1257167" data-name="Trazado 1257167" d="M256.613,221.477l-27.24-12.339c-1.91-5.721-8.823-17.433-33.18-13.906-9.65,1.4-16.142,7.5-20.221,13.252-6.983,2.032-18.658,5.312-25.78,6.684-10.671,2.056-16.181,14.96-16.181,14.96S92.8,297.9,93.665,318.69s42.4,13.534,42.4,13.534c-4.9,14.132-18.458,56.527-18.458,56.527H264.5L248.826,313.19s19.035-57.1,20.765-72.39-12.978-19.323-12.978-19.323" transform="translate(-12.623 -26.228)" fill="#83aec3"/>
          <path id="Trazado_1257168" data-name="Trazado 1257168" d="M193.343,203.859l-4.182-19.323L214.108,173l11.319,23.924a8.651,8.651,0,0,1,.523,5.989l-10.111,36.853H179.5Z" transform="translate(-24.195 -23.318)" fill="#bc7560"/>
          <path id="Trazado_1257169" data-name="Trazado 1257169" d="M207.611,177.277l-16.944,7.835,3.32,15.338s14.476-5.24,13.625-23.173" transform="translate(-25.7 -23.895)" fill="#9d5742"/>
          <path id="Trazado_1257170" data-name="Trazado 1257170" d="M215.056,165.134s-7.066-5.624-6.777-12.834c0,0-17.67-7.777-24.008-22.682-.023.016-.051.027-.074.042,0,0-12.4,19.612-11.536,37.2S182.755,196.57,198.9,185.9c7.537-4.979,13-12.711,16.6-20.175-.286-.378-.445-.59-.445-.59" transform="translate(-23.267 -17.471)" fill="#bc7560"/>
          <path id="Trazado_1257171" data-name="Trazado 1257171" d="M185.3,129.617c-.023.016-.051.027-.074.042a86.936,86.936,0,0,0-4.959,9.421c5.536,5.277,15.64,12.71,29.04,13.219,0,0-17.67-7.777-24.008-22.682" transform="translate(-24.298 -17.471)" fill="#9d5742"/>
          <path id="Trazado_1257172" data-name="Trazado 1257172" d="M229.676,171.569c-3.04,3.611-7.89,4.529-10.832,2.051s-2.864-7.413.176-11.024,7.89-4.529,10.832-2.051,2.864,7.413-.176,11.024" transform="translate(-29.207 -21.452)" fill="#bc7560"/>
          <path id="Trazado_1257173" data-name="Trazado 1257173" d="M176.467,250.167S161.326,283.19,159.6,298.186s-2.6,98.057-2.6,98.057h50.792s-14.453-92.578-9.55-106.709,14.564-39.367,14.564-39.367Z" transform="translate(-21.162 -33.72)" fill="#fff"/>
          <path id="Trazado_1257174" data-name="Trazado 1257174" d="M157,411.587h50.792s-3.567-22.855-6.557-47.587h-43.5c-.487,24.2-.731,47.587-.731,47.587" transform="translate(-21.162 -49.063)" fill="#6e7dd0"/>
          <path id="Trazado_1257175" data-name="Trazado 1257175" d="M142.667,346.2l28.552-5.191,59.122,7.21s17.314,3.1,25.091-21.053l-40.665-28.883-68.928,3.792Z" transform="translate(-19.23 -40.205)" fill="#83aec3"/>
          <path id="Trazado_1257176" data-name="Trazado 1257176" d="M206.787,315.479l19.828-9.5,1.514-6.98s-10.4-3.119-19.342.9c0,0-3.28,11.551-2,15.574" transform="translate(-27.833 -40.147)" fill="#bc7560"/>
          <path id="Trazado_1257177" data-name="Trazado 1257177" d="M142.667,350.7l28.552-5.191,59.122,7.21s17.314,3.1,25.091-21.053" transform="translate(-19.23 -44.705)" fill="none" stroke="#6e7dd0" stroke-linecap="round" stroke-linejoin="round" stroke-width="1"/>
          <path id="Trazado_1257178" data-name="Trazado 1257178" d="M117,317.1s8.842-15.9,37.732-15.216" transform="translate(-15.77 -40.687)" fill="none" stroke="#6e7dd0" stroke-linecap="round" stroke-linejoin="round" stroke-width="1"/>
          <path id="Trazado_1257179" data-name="Trazado 1257179" d="M158.393,252.25l-10.433,17.1a25.958,25.958,0,0,0-3.41,17.981l1.49,8.537" transform="translate(-19.432 -34)" fill="none" stroke="#6e7dd0" stroke-linecap="round" stroke-linejoin="round" stroke-width="1"/>
          <path id="Trazado_1257180" data-name="Trazado 1257180" d="M175.667,341.132l29.417-8.343s-5.768-23.066,0-33.606" transform="translate(-23.678 -40.327)" fill="none" stroke="#6e7dd0" stroke-linecap="round" stroke-linejoin="round" stroke-width="1"/>
          <path id="Trazado_1257181" data-name="Trazado 1257181" d="M225.541,370.5h48.03l2.374,11.448-17.995,6.722-32.41-5.624Z" transform="translate(-30.4 -49.939)" fill="none" stroke="#6e7dd0" stroke-linecap="round" stroke-linejoin="round" stroke-width="1"/>
          <line id="Línea_3367" data-name="Línea 3367" y1="50.41" x2="13.778" transform="translate(197.045 221.782)" fill="none" stroke="#6e7dd0" stroke-linecap="round" stroke-linejoin="round" stroke-width="1"/>
          <line id="Línea_3368" data-name="Línea 3368" y1="6.634" x2="6.345" transform="translate(191.789 141.029)" fill="none" stroke="#9d5742" stroke-linecap="round" stroke-linejoin="round" stroke-width="1"/>
          <line id="Línea_3369" data-name="Línea 3369" x2="3.173" y2="2.091" transform="translate(194.961 144.346)" fill="none" stroke="#9d5742" stroke-linecap="round" stroke-linejoin="round" stroke-width="1"/>
          <line id="Línea_3370" data-name="Línea 3370" x1="2.381" y1="7.312" transform="translate(158.622 104.835)" fill="none" stroke="#9d5742" stroke-linecap="round" stroke-linejoin="round" stroke-width="1"/>
          <path id="Trazado_1257182" data-name="Trazado 1257182" d="M250.028,171.025a32.476,32.476,0,0,0,15.982,14.4" transform="translate(-33.701 -23.052)" fill="none" stroke="#9d5742" stroke-linecap="round" stroke-linejoin="round" stroke-width="1"/>
          <path id="Trazado_1257183" data-name="Trazado 1257183" d="M182.877,155.833s-8.4,14.709-7.066,16.295,7.066,1.262,7.066,1.262" transform="translate(-23.678 -21.005)" fill="none" stroke="#9d5742" stroke-linecap="round" stroke-linejoin="round" stroke-width="1"/>
          <path id="Trazado_1257184" data-name="Trazado 1257184" d="M184.625,181.75a5.905,5.905,0,0,0,7.462-2.4" transform="translate(-24.885 -24.174)" fill="none" stroke="#9d5742" stroke-linecap="round" stroke-linejoin="round" stroke-width="1"/>
          <path id="Trazado_1257185" data-name="Trazado 1257185" d="M179.716,156.83a1.337,1.337,0,1,1-.631-2.009,1.512,1.512,0,0,1,.631,2.009" transform="translate(-23.878 -20.859)" fill="#24110d"/>
          <path id="Trazado_1257186" data-name="Trazado 1257186" d="M195.554,158.579a1.337,1.337,0,1,1-.858-1.923,1.513,1.513,0,0,1,.858,1.923" transform="translate(-26.01 -21.111)" fill="#24110d"/>
          <path id="Trazado_1257187" data-name="Trazado 1257187" d="M178.864,156.29c0,4.44-2.71,8.04-6.051,8.04s-6.052-3.6-6.052-8.04,2.71-8.04,6.052-8.04S178.864,151.849,178.864,156.29Z" transform="translate(-22.478 -19.982)" fill="none" stroke="#fff" stroke-linecap="round" stroke-linejoin="round" stroke-width="1"/>
          <ellipse id="Elipse_13674" data-name="Elipse 13674" cx="7.478" cy="8.359" rx="7.478" ry="8.359" transform="translate(161.569 129.025)" fill="none" stroke="#fff" stroke-linecap="round" stroke-linejoin="round" stroke-width="1"/>
          <path id="Trazado_1257188" data-name="Trazado 1257188" d="M180.75,157.436a4.031,4.031,0,0,1,5.182.613" transform="translate(-24.363 -21.129)" fill="none" stroke="#fff" stroke-linecap="round" stroke-linejoin="round" stroke-width="1"/>
          <line id="Línea_3371" data-name="Línea 3371" x2="15.264" y2="1.591" transform="translate(176.525 137.384)" fill="none" stroke="#fff" stroke-linecap="round" stroke-linejoin="round" stroke-width="1"/>
        </g>
      </g>
      <g id="Grupo_1203774" data-name="Grupo 1203774" transform="translate(306.289 3845.677)">
        <g id="Grupo_1203773" data-name="Grupo 1203773" clip-path="url(#clip-path-10)">
          <path id="Trazado_1257189" data-name="Trazado 1257189" d="M83.1,126.7H21.039a8.759,8.759,0,0,1-8.759-8.759V82.893a8.759,8.759,0,0,1,8.759-8.759H83.1a8.758,8.758,0,0,1,8.759,8.759v35.049A8.758,8.758,0,0,1,83.1,126.7" transform="translate(-1.524 -9.203)" fill="#a4b1e3"/>
          <path id="Trazado_1257190" data-name="Trazado 1257190" d="M89.244,120.558H27.182a8.759,8.759,0,0,1-8.759-8.759V76.751a8.759,8.759,0,0,1,8.759-8.759H89.244A8.758,8.758,0,0,1,98,76.751V111.8a8.758,8.758,0,0,1-8.759,8.759" transform="translate(-2.287 -8.44)" fill="#fff"/>
          <line id="Línea_3372" data-name="Línea 3372" x2="19.054" transform="translate(28.913 72.329)" fill="none" stroke="#a4b1e3" stroke-linecap="round" stroke-linejoin="round" stroke-width="2"/>
          <line id="Línea_3373" data-name="Línea 3373" x2="40.533" transform="translate(28.913 81.616)" fill="none" stroke="#a4b1e3" stroke-linecap="round" stroke-linejoin="round" stroke-width="2"/>
          <line id="Línea_3374" data-name="Línea 3374" x2="40.533" transform="translate(28.913 89.87)" fill="none" stroke="#a4b1e3" stroke-linecap="round" stroke-linejoin="round" stroke-width="2"/>
          <line id="Línea_3375" data-name="Línea 3375" x2="15.018" transform="translate(28.913 98.123)" fill="none" stroke="#a4b1e3" stroke-linecap="round" stroke-linejoin="round" stroke-width="2"/>
          <path id="Trazado_1257191" data-name="Trazado 1257191" d="M148.139,51.432a43.726,43.726,0,1,1,43.726,43.726,43.725,43.725,0,0,1-43.726-43.726" transform="translate(-18.389 -0.957)" fill="#c3cdef"/>
          <path id="Trazado_1257192" data-name="Trazado 1257192" d="M220.12,90.492,191.865,57.134l-43.573-3.5c-.092,1.157-.152,2.322-.152,3.5A43.715,43.715,0,0,0,220.12,90.492" transform="translate(-18.389 -6.658)" fill="#6e7dd0"/>
          <path id="Trazado_1257193" data-name="Trazado 1257193" d="M194.094,101.355A43.541,43.541,0,0,0,222.35,90.987L194.094,57.629,166.1,91.214a43.543,43.543,0,0,0,27.993,10.141" transform="translate(-20.619 -7.154)" fill="#a4b1e3"/>
          <path id="Trazado_1257194" data-name="Trazado 1257194" d="M141.373,46.605h0l49.652,3.99L186.3,1a49.821,49.821,0,0,0-44.928,45.605" transform="translate(-17.549 -0.124)" fill="#8ebbca"/>
          <line id="Línea_3376" data-name="Línea 3376" x2="23.651" transform="translate(100.172 0.876)" fill="none" stroke="#a4b1e3" stroke-linecap="round" stroke-linejoin="round" stroke-width="2"/>
          <line id="Línea_3377" data-name="Línea 3377" x2="23.651" transform="translate(100.172 8.119)" fill="none" stroke="#a4b1e3" stroke-linecap="round" stroke-linejoin="round" stroke-width="2"/>
          <line id="Línea_3378" data-name="Línea 3378" x2="16.054" transform="translate(100.172 15.362)" fill="none" stroke="#a4b1e3" stroke-linecap="round" stroke-linejoin="round" stroke-width="2"/>
          <line id="Línea_3379" data-name="Línea 3379" x2="23.652" transform="translate(235.803 31.073)" fill="none" stroke="#a4b1e3" stroke-linecap="round" stroke-linejoin="round" stroke-width="2"/>
          <line id="Línea_3380" data-name="Línea 3380" x2="23.652" transform="translate(235.803 38.316)" fill="none" stroke="#a4b1e3" stroke-linecap="round" stroke-linejoin="round" stroke-width="2"/>
          <line id="Línea_3381" data-name="Línea 3381" x2="16.054" transform="translate(235.803 45.559)" fill="none" stroke="#a4b1e3" stroke-linecap="round" stroke-linejoin="round" stroke-width="2"/>
          <path id="Trazado_1257195" data-name="Trazado 1257195" d="M149.775,9.27h9.117l8.35,11.207" transform="translate(-18.592 -1.151)" fill="none" stroke="#6e7dd0" stroke-linecap="round" stroke-linejoin="round" stroke-width="2"/>
          <path id="Trazado_1257196" data-name="Trazado 1257196" d="M259.388,42.958h-9.117l-8.35,11.207" transform="translate(-30.031 -5.333)" fill="none" stroke="#6e7dd0" stroke-linecap="round" stroke-linejoin="round" stroke-width="2"/>
          <path id="Trazado_1257197" data-name="Trazado 1257197" d="M227.329,181.584a19.165,19.165,0,0,0-.744-5.239l4.74-2.737-4.714-8.163-4.743,2.738a19.229,19.229,0,0,0-9.073-5.236v-5.479H203.37v5.479a19.226,19.226,0,0,0-9.072,5.236l-4.743-2.738-4.714,8.163,4.74,2.737a18.834,18.834,0,0,0,0,10.48l-4.74,2.736,4.714,8.163,4.743-2.738a19.227,19.227,0,0,0,9.072,5.236V205.7H212.8v-5.479a19.229,19.229,0,0,0,9.073-5.236l4.743,2.738,4.714-8.163-4.74-2.736a19.172,19.172,0,0,0,.744-5.24M208.083,191.4a9.819,9.819,0,1,1,9.82-9.819,9.83,9.83,0,0,1-9.82,9.819" transform="translate(-22.945 -19.547)" fill="#a4b1e3"/>
          <path id="Trazado_1257198" data-name="Trazado 1257198" d="M342.022,187.77l-54.227,29.673-50.826-68.876L291.2,118.893Z" transform="translate(-29.416 -14.759)" fill="#a4b1e3"/>
          <path id="Trazado_1257199" data-name="Trazado 1257199" d="M342.083,181.345l-54.289,35.3-50.826-68.876,54.289-35.3Z" transform="translate(-29.416 -13.961)" fill="#fff"/>
          <path id="Trazado_1257200" data-name="Trazado 1257200" d="M255.132,236.906l4.388-12.469s-3.665-15.049-1.8-20.179,6.944-17.138,6.562-23.609c0,0,3.659-3.1,5.653,2.755s1.325,16.056,1.325,16.056,7.673,2.7,8.225,10.034l6.327,9.465-4.845,26.768Z" transform="translate(-31.671 -22.323)" fill="#bc7560"/>
          <path id="Trazado_1257201" data-name="Trazado 1257201" d="M71.93,195.522l-37.773,13.9a26.535,26.535,0,0,0-7.429,4.155A52.7,52.7,0,0,0,8.921,241.486c-5.839,22.189-27.443,132.548,29.2,151.525,0,0-11.094,21.9-11.97,42.917H189.933l-10.8-84.959s8.467,14.306,28.9,12.262,31.54-58.013,34.743-75.324c2.928-15.826,12.262-46.712,12.262-46.712L227.011,225.95,195.771,273.6l-21.9-37.954s-11.094-22.189-25.983-26.276-28.121-7.883-28.121-7.883Z" transform="translate(0 -24.271)" fill="#3c497a"/>
          <path id="Trazado_1257202" data-name="Trazado 1257202" d="M144.1,209.506l23.072,29.406a4.381,4.381,0,0,1,.385,4.783l-7.619,13.96,12.107,7.8a4.377,4.377,0,0,1,1.994,4.025l-4.923,62.53" transform="translate(-17.888 -26.007)" fill="none" stroke="#6e7dd0" stroke-linecap="round" stroke-linejoin="round" stroke-width="1"/>
          <path id="Trazado_1257203" data-name="Trazado 1257203" d="M75.16,206.75l-8.679,29.6a6.128,6.128,0,0,0,1.678,6.343l15.965,14.8L73.589,268.533a6.131,6.131,0,0,0-1.006,7.056l8.9,17.152" transform="translate(-8.217 -25.665)" fill="none" stroke="#6e7dd0" stroke-linecap="round" stroke-linejoin="round" stroke-width="1"/>
          <path id="Trazado_1257204" data-name="Trazado 1257204" d="M129.964,201.488l-47.838-5.965s10.32,31.851,19.527,75.948l8.365-10.424c9.093,16.8,27.257,23.648,27.257,23.648l-25.287,48.788,0-.013a499.866,499.866,0,0,1,3.744,53.7h46.729C159.072,362.337,141.9,238.9,129.964,201.488" transform="translate(-10.195 -24.271)" fill="#d7dbfb"/>
          <path id="Trazado_1257205" data-name="Trazado 1257205" d="M117.851,462.214l55.179-.876c-.823-6.042-3.958-31.951-6.14-47.005H118.537c.92,11-.809,36.958-.686,47.881" transform="translate(-14.629 -51.433)" fill="#283359"/>
          <path id="Trazado_1257206" data-name="Trazado 1257206" d="M141.227,293.255s-.792-22.437-23.23-28.776l-4.027,5.127a50.563,50.563,0,0,0,27.257,23.648" transform="translate(-14.148 -32.831)" fill="#18203c"/>
          <path id="Trazado_1257207" data-name="Trazado 1257207" d="M113.969,265.721l11.25-14.32s7.88-15.116,14.887-15.006,9.087-4.051,10.729-3.066,1.2,4.817-1.314,6.678c0,0,22.794-6.322,24.982-3.919,3.212,3.524-17.136,11.532-17.136,11.532s3.5,5.255-.73,9.139c0,0,.438,5.365-3.175,7.992,0,0,.438,4.708-3.5,7.007s-15.985,8.635-15.985,8.635l-1.845,4.249a50.855,50.855,0,0,1-18.161-18.92" transform="translate(-14.148 -28.946)" fill="#bc7560"/>
          <path id="Trazado_1257208" data-name="Trazado 1257208" d="M139.083,125.875s7.992,13.576-3.832,22.554l-5.125-18.966Z" transform="translate(-16.153 -15.626)" fill="#24110d"/>
          <path id="Trazado_1257209" data-name="Trazado 1257209" d="M88.453,188.75l-6.609,5.931a5.947,5.947,0,0,0-1.265,7.264c3.3,6.073,10.234,17.205,19.516,23.164l15.34-11.725,15.51,7.408s3.027-14.305-1.26-20.145l-8.7-11.24Z" transform="translate(-9.914 -23.431)" fill="#fff"/>
          <path id="Trazado_1257210" data-name="Trazado 1257210" d="M89.673,185.2,90.7,160.625l30.984,1.2.766,32.407-5.8,15.656s-15.3-8.157-23.951-16.88a10.471,10.471,0,0,1-3.028-7.814" transform="translate(-11.13 -19.939)" fill="#bc7560"/>
          <path id="Trazado_1257211" data-name="Trazado 1257211" d="M119.456,256.15l5.5-6.995a59.862,59.862,0,0,1,5.44-8.35l-2.341-11.489.868-7.687a3.524,3.524,0,0,0-.861-2.721,10.734,10.734,0,0,0-9.35-3.752,7.275,7.275,0,0,0-6.811,5.857,3.514,3.514,0,0,0,.38,2.556l4.679,8.083Z" transform="translate(-13.879 -26.701)" fill="#6e7dd0"/>
          <path id="Trazado_1257212" data-name="Trazado 1257212" d="M117.685,233.592s5.4-4.379,11.095-2.336" transform="translate(-14.609 -28.64)" fill="none" stroke="#a4b1e3" stroke-linecap="round" stroke-linejoin="round" stroke-width="1"/>
          <path id="Trazado_1257213" data-name="Trazado 1257213" d="M142.109,299.116l-14.514,28,5.189,48.1,7.423,10.359a5.785,5.785,0,0,0,9.663-.394l5.979-9.965Z" transform="translate(-15.839 -37.131)" fill="#6e7dd0"/>
          <path id="Trazado_1257214" data-name="Trazado 1257214" d="M136.365,161.955,129.607,130.6c-4.306,2.382-9.769,1.518-16.89-.392a30.894,30.894,0,0,0-15.547-.438s5.255,5.912,2.847,13.138c-1.7,5.108-5.64,8.675-7.807,10.333h0a11.523,11.523,0,0,0-.128-1.243c-.013-.081-.027-.163-.041-.245a12.1,12.1,0,0,0-.282-1.252c-.079-.277-.17-.546-.266-.809-.032-.086-.066-.168-.1-.251-.069-.178-.141-.353-.218-.524-.042-.095-.086-.187-.131-.279-.075-.158-.154-.312-.236-.464-.048-.089-.1-.18-.146-.267-.089-.157-.184-.308-.28-.459-.046-.073-.091-.148-.139-.219-.14-.208-.286-.409-.437-.6-.058-.074-.119-.142-.178-.214-.1-.12-.2-.24-.3-.354-.079-.087-.16-.169-.242-.252s-.176-.178-.266-.263-.182-.168-.275-.249-.169-.142-.254-.21c-.1-.081-.2-.162-.3-.236-.074-.054-.151-.1-.227-.155a7.576,7.576,0,0,0-.8-.479l-.06-.033c-.131-.066-.265-.122-.4-.179-.066-.028-.131-.057-.2-.082-.131-.051-.262-.1-.394-.137-.067-.021-.136-.042-.2-.06-.135-.038-.27-.072-.4-.1-.061-.012-.123-.022-.185-.032-.144-.025-.287-.049-.432-.062a5.223,5.223,0,0,0-1.951.173c-3.6,1.037-5.4,5.764-4.023,10.558s5.419,7.839,9.022,6.8a5.21,5.21,0,0,0,1.131-.485,51.037,51.037,0,0,0,3.6,9.816c4.379,7.664,26.385,11.934,36.677,7.554s7.226-15.985,7.226-15.985" transform="translate(-9.714 -16.014)" fill="#bc7560"/>
          <path id="Trazado_1257215" data-name="Trazado 1257215" d="M115.4,130.205a30.894,30.894,0,0,0-15.547-.438,15.818,15.818,0,0,1,2.578,4.505,62.514,62.514,0,0,1,13.954.421c10.291,1.423,15.9-4.1,15.9-4.1-4.306,2.382-9.769,1.518-16.89-.392" transform="translate(-12.395 -16.014)" fill="#9d5742"/>
          <path id="Trazado_1257216" data-name="Trazado 1257216" d="M116.618,98.976c-21.021-2.3-32.3,20.035-32.3,20.035s-3.284-.657-7.883,2.956,0,12.81,0,12.81l3.9,6.206a5.261,5.261,0,0,1,1.924-1.036c3.6-1.038,7.643,2.007,9.022,6.8a11.787,11.787,0,0,1,.451,2.741c2.167-1.657,6.1-5.225,7.807-10.333,2.409-7.226-2.847-13.138-2.847-13.138a30.894,30.894,0,0,1,15.547.438c8.978,2.409,15.328,3.175,20.035-2.163s5.365-23.018-15.656-25.317" transform="translate(-9.235 -12.266)" fill="#24110d"/>
          <line id="Línea_3382" data-name="Línea 3382" x1="6.678" y1="6.193" transform="translate(72.567 132.146)" fill="none" stroke="#9d5742" stroke-linecap="round" stroke-linejoin="round" stroke-width="1"/>
          <line id="Línea_3383" data-name="Línea 3383" x1="2.354" y2="1.574" transform="translate(73.552 135.65)" fill="none" stroke="#9d5742" stroke-linecap="round" stroke-linejoin="round" stroke-width="1"/>
          <path id="Trazado_1257217" data-name="Trazado 1257217" d="M123.625,186.193s-16.676.494-22.5-4.379c0,0,4.074,7.608,22.5,8.593Z" transform="translate(-12.553 -22.57)" fill="#9d5742"/>
          <path id="Trazado_1257218" data-name="Trazado 1257218" d="M249.674,244.769S267.3,258.722,281.7,262.211" transform="translate(-30.993 -30.385)" fill="none" stroke="#6e7dd0" stroke-linecap="round" stroke-linejoin="round" stroke-width="1"/>
          <line id="Línea_3384" data-name="Línea 3384" x1="16.641" y1="66.274" transform="translate(162.489 260.423)" fill="none" stroke="#6e7dd0" stroke-linecap="round" stroke-linejoin="round" stroke-width="1"/>
          <path id="Trazado_1257219" data-name="Trazado 1257219" d="M222.012,284.667s-11.97,14.89-10.51,32.7" transform="translate(-26.24 -35.337)" fill="none" stroke="#6e7dd0" stroke-linecap="round" stroke-linejoin="round" stroke-width="1"/>
          <path id="Trazado_1257220" data-name="Trazado 1257220" d="M43.185,350.055s3.212-22.772,23.064-37.662,30.569-30.158,30.569-30.158" transform="translate(-5.361 -35.035)" fill="none" stroke="#6e7dd0" stroke-linecap="round" stroke-linejoin="round" stroke-width="1"/>
          <path id="Trazado_1257221" data-name="Trazado 1257221" d="M71.185,406.722a221.359,221.359,0,0,0,39.439-53.7" transform="translate(-8.837 -43.822)" fill="none" stroke="#6e7dd0" stroke-linecap="round" stroke-linejoin="round" stroke-width="1"/>
          <line id="Línea_3385" data-name="Línea 3385" x1="2.832" y1="25.3" transform="translate(50.963 258.38)" fill="none" stroke="#6e7dd0" stroke-linecap="round" stroke-linejoin="round" stroke-width="1"/>
          <path id="Trazado_1257222" data-name="Trazado 1257222" d="M98.615,289.514s14.782,19.434,30.56,26.426" transform="translate(-12.242 -35.939)" fill="none" stroke="#6e7dd0" stroke-linecap="round" stroke-linejoin="round" stroke-width="1"/>
          <line id="Línea_3386" data-name="Línea 3386" x1="6.922" y2="2.616" transform="translate(128.452 211.062)" fill="none" stroke="#9d5742" stroke-linecap="round" stroke-linejoin="round" stroke-width="1"/>
          <line id="Línea_3387" data-name="Línea 3387" x1="8.905" y2="3.185" transform="translate(134.315 218.674)" fill="none" stroke="#9d5742" stroke-linecap="round" stroke-linejoin="round" stroke-width="1"/>
          <line id="Línea_3388" data-name="Línea 3388" x1="8.708" y2="2.151" transform="translate(133.782 227.813)" fill="none" stroke="#9d5742" stroke-linecap="round" stroke-linejoin="round" stroke-width="1"/>
          <line id="Línea_3389" data-name="Línea 3389" x1="6.089" y2="2.182" transform="translate(133.226 235.805)" fill="none" stroke="#9d5742" stroke-linecap="round" stroke-linejoin="round" stroke-width="1"/>
          <line id="Línea_3390" data-name="Línea 3390" x1="1.09" y2="19.926" transform="translate(133.226 220.207)" fill="none" stroke="#9d5742" stroke-linecap="round" stroke-linejoin="round" stroke-width="1"/>
          <line id="Línea_3391" data-name="Línea 3391" x1="0.681" y2="7.871" transform="translate(247.137 187.171)" fill="none" stroke="#9d5742" stroke-linecap="round" stroke-linejoin="round" stroke-width="1"/>
          <path id="Trazado_1257223" data-name="Trazado 1257223" d="M128.91,142.833a35.262,35.262,0,0,0,2.388,8.759c1.752,3.8,4.629,5.547,3.023,8.174s-6.934,2.482-6.934,2.482" transform="translate(-15.813 -17.731)" fill="none" stroke="#9d5742" stroke-linecap="round" stroke-linejoin="round" stroke-width="1"/>
          <path id="Trazado_1257224" data-name="Trazado 1257224" d="M115.332,166.167l11.064,2.481s-1.205,5.415-7.56,4.234c-4.714-.876-3.5-6.715-3.5-6.715" transform="translate(-14.3 -20.627)" fill="#fff"/>
          <path id="Trazado_1257225" data-name="Trazado 1257225" d="M119.563,145.845a1.354,1.354,0,1,1-1.314-1.679,1.53,1.53,0,0,1,1.314,1.679" transform="translate(-14.516 -17.896)" fill="#24110d"/>
          <path id="Trazado_1257226" data-name="Trazado 1257226" d="M135.469,145.137a1.354,1.354,0,1,1-1.314-1.679,1.531,1.531,0,0,1,1.314,1.679" transform="translate(-16.49 -17.808)" fill="#24110d"/>
          <path id="Trazado_1257227" data-name="Trazado 1257227" d="M109.557,140.123a5.651,5.651,0,0,1,1.892-2.29,7.527,7.527,0,0,1,2.562-1.26,7.145,7.145,0,0,1,2.889-.222,5.123,5.123,0,0,1,2.776,1.147l.036.031a.082.082,0,0,1,.01.115.081.081,0,0,1-.066.029,15.589,15.589,0,0,0-2.614.061,15.186,15.186,0,0,0-2.559.526,19.587,19.587,0,0,0-2.476.853,24.12,24.12,0,0,0-2.353,1.158.081.081,0,0,1-.111-.03.082.082,0,0,1,0-.073Z" transform="translate(-13.597 -16.919)" fill="#24110d"/>
          <path id="Trazado_1257228" data-name="Trazado 1257228" d="M130.1,137.913a3.584,3.584,0,0,1,1.77-1.388,4.29,4.29,0,0,1,2.046-.281,4.215,4.215,0,0,1,1.989.709,3.246,3.246,0,0,1,1.386,1.817l.018.061a.075.075,0,0,1-.051.095.079.079,0,0,1-.053,0,10.662,10.662,0,0,0-1.686-.633,9.633,9.633,0,0,0-1.773-.3,12.654,12.654,0,0,0-1.8-.067,17.954,17.954,0,0,0-1.8.166.078.078,0,0,1-.088-.064.074.074,0,0,1,.012-.053Z" transform="translate(-16.144 -16.91)" fill="#24110d"/>
        </g>
      </g>
    </g>
  </g>
</svg>
