<svg xmlns="http://www.w3.org/2000/svg" xmlns:xlink="http://www.w3.org/1999/xlink" width="1019.711" height="485.971" viewBox="0 0 1019.711 485.971">
  <defs>
    <clipPath id="clip-path">
      <path id="Trazado_608976" data-name="Trazado 608976" d="M15.84,0h988.031c8.748,0,15.84,7.535,15.84,16.83V469.141c0,9.3-7.092,16.83-15.84,16.83H15.84c-8.748,0-15.84-7.535-15.84-16.83V16.83C0,7.535,7.092,0,15.84,0Z" transform="translate(0 0)" fill="#fff0ee"/>
    </clipPath>
    <clipPath id="clip-path-2">
      <rect id="Rectángulo_454553" data-name="Rectángulo 454553" width="81.46" height="204.252" fill="#5dd2e4"/>
    </clipPath>
    <clipPath id="clip-path-3">
      <rect id="Rectángulo_454554" data-name="Rectángulo 454554" width="119.02" height="160.505" fill="#c1fbff"/>
    </clipPath>
    <clipPath id="clip-path-4">
      <rect id="Rectángulo_454956" data-name="Rectángulo 454956" width="334.15" height="478.758" fill="none"/>
    </clipPath>
    <clipPath id="clip-path-5">
      <rect id="Rectángulo_454946" data-name="Rectángulo 454946" width="455.507" height="457.651" fill="none"/>
    </clipPath>
    <clipPath id="clip-path-6">
      <rect id="Rectángulo_454957" data-name="Rectángulo 454957" width="61.399" height="61.715" fill="#12263f"/>
    </clipPath>
    <clipPath id="clip-path-7">
      <rect id="Rectángulo_454958" data-name="Rectángulo 454958" width="63.244" height="64.287" fill="#fff"/>
    </clipPath>
    <clipPath id="clip-path-8">
      <rect id="Rectángulo_454965" data-name="Rectángulo 454965" width="66.981" height="67.787" fill="#fff"/>
    </clipPath>
    <clipPath id="clip-path-9">
      <rect id="Rectángulo_454966" data-name="Rectángulo 454966" width="60.849" height="61.012" fill="#12263f"/>
    </clipPath>
  </defs>
  <g id="Grupo_1204980" data-name="Grupo 1204980" transform="translate(-290.145 -5985.787)">
    <g id="Grupo_1204842" data-name="Grupo 1204842">
      <g id="Grupo_1203808" data-name="Grupo 1203808" transform="translate(0.145 2214.425)">
        <g id="Enmascarar_grupo_1098656" data-name="Enmascarar grupo 1098656" transform="translate(290 3771.362)" clip-path="url(#clip-path)">
          <path id="Trazado_874294" data-name="Trazado 874294" d="M0,0H1039.511V509.113H0Z" transform="translate(-8.91 -12.623)" fill="#effeff"/>
          <g id="Grupo_1203347" data-name="Grupo 1203347" transform="translate(-35.929 349.173)">
            <g id="Grupo_1203346" data-name="Grupo 1203346" clip-path="url(#clip-path-2)">
              <path id="Trazado_1256038" data-name="Trazado 1256038" d="M78.178,5.334,0,110.761v8.451L80.6,10.525a18.315,18.315,0,0,0-2.417-5.191" transform="translate(0 0.046)" fill="#5dd2e4"/>
              <path id="Trazado_1256039" data-name="Trazado 1256039" d="M81.459,34.463,0,144.316v8.451L81.459,42.914Z" transform="translate(0 0.298)" fill="#5dd2e4"/>
              <path id="Trazado_1256040" data-name="Trazado 1256040" d="M69.618.018,0,93.9v8.452L74.6,1.753A9.917,9.917,0,0,0,69.618.018" transform="translate(0 0)" fill="#5dd2e4"/>
              <path id="Trazado_1256041" data-name="Trazado 1256041" d="M57.1,0,0,77v8.451L63.365,0Z" transform="translate(0)" fill="#5dd2e4"/>
              <path id="Trazado_1256042" data-name="Trazado 1256042" d="M81.459,17.7,0,127.557v8.451L81.459,26.156Z" transform="translate(0 0.153)" fill="#5dd2e4"/>
              <path id="Trazado_1256043" data-name="Trazado 1256043" d="M19.495,0,0,26.29v8.451L25.762,0Z" transform="translate(0)" fill="#5dd2e4"/>
              <path id="Trazado_1256044" data-name="Trazado 1256044" d="M12.385,0C5.545,0,0,7.477,0,16.7v1.137L13.228,0Z" transform="translate(0)" fill="#5dd2e4"/>
              <path id="Trazado_1256045" data-name="Trazado 1256045" d="M32.029,0,0,43.193v8.451L38.3,0Z" transform="translate(0)" fill="#5dd2e4"/>
              <path id="Trazado_1256046" data-name="Trazado 1256046" d="M44.563,0,0,60.1v8.451L50.83,0Z" transform="translate(0)" fill="#5dd2e4"/>
              <path id="Trazado_1256047" data-name="Trazado 1256047" d="M87.636,118.1,24.5,203.233h6.268l56.864-76.685Z" transform="translate(-6.177 1.02)" fill="#5dd2e4"/>
              <path id="Trazado_1256048" data-name="Trazado 1256048" d="M91.86,134.855l-50.6,68.232h6.267l44.33-59.781Z" transform="translate(-10.401 1.165)" fill="#5dd2e4"/>
              <path id="Trazado_1256049" data-name="Trazado 1256049" d="M96.085,151.614,58.023,202.942H64.29l31.795-42.877Z" transform="translate(-14.625 1.31)" fill="#5dd2e4"/>
              <path id="Trazado_1256050" data-name="Trazado 1256050" d="M92.149,202.653c6.84,0,12.384-7.477,12.384-16.7v-.822L91.539,202.653Z" transform="translate(-23.073 1.599)" fill="#5dd2e4"/>
              <path id="Trazado_1256051" data-name="Trazado 1256051" d="M100.309,168.372,74.781,202.8h6.267l19.261-25.975Z" transform="translate(-18.849 1.455)" fill="#5dd2e4"/>
              <path id="Trazado_1256052" data-name="Trazado 1256052" d="M81.459,67.821,0,177.674v8.451L81.459,76.272Z" transform="translate(0 0.586)" fill="#5dd2e4"/>
              <path id="Trazado_1256053" data-name="Trazado 1256053" d="M81.459,51.062,0,160.915v8.451L81.459,59.514Z" transform="translate(0 0.441)" fill="#5dd2e4"/>
              <path id="Trazado_1256054" data-name="Trazado 1256054" d="M81.773,84.579,1.245,193.176A18.12,18.12,0,0,0,3.71,198.3L81.773,93.03Z" transform="translate(-0.314 0.731)" fill="#5dd2e4"/>
              <path id="Trazado_1256055" data-name="Trazado 1256055" d="M83.824,101.338,9.38,201.73a9.826,9.826,0,0,0,5.054,1.636l69.39-93.577Z" transform="translate(-2.364 0.875)" fill="#5dd2e4"/>
            </g>
          </g>
          <g id="Grupo_1203351" data-name="Grupo 1203351" transform="translate(940.426 -35.503)">
            <g id="Grupo_1203348" data-name="Grupo 1203348" clip-path="url(#clip-path-3)">
              <path id="Trazado_1256056" data-name="Trazado 1256056" d="M94.895,0H88.248L0,119.008v8.963a43.582,43.582,0,0,0,.576,7.06L100.129.777A18.239,18.239,0,0,0,94.895,0" fill="#c1fbff"/>
              <path id="Trazado_1256057" data-name="Trazado 1256057" d="M63.333,0,0,85.408v16.8L75.791,0Z" transform="translate(0 0)" fill="#c1fbff"/>
              <path id="Trazado_1256058" data-name="Trazado 1256058" d="M24.126,0C10.8,0,0,14.566,0,32.535v2.473L25.96,0Z" transform="translate(0)" fill="#c1fbff"/>
              <path id="Trazado_1256059" data-name="Trazado 1256059" d="M38.417,0,0,51.807v16.8L50.875,0Z" transform="translate(0 0)" fill="#c1fbff"/>
              <path id="Trazado_1256060" data-name="Trazado 1256060" d="M110.238,5.862,5.863,146.617a29.78,29.78,0,0,0,6.294,8.312L116.4,14.35a30.322,30.322,0,0,0-6.164-8.488" transform="translate(-1.468 0.064)" fill="#c1fbff"/>
              <path id="Trazado_1256061" data-name="Trazado 1256061" d="M126.234,159.148c13.324,0,24.125-14.566,24.125-32.535v-1.468l-25.214,34Z" transform="translate(-31.339 1.357)" fill="#c1fbff"/>
              <path id="Trazado_1256062" data-name="Trazado 1256062" d="M142.035,91.905l-50.13,67.6h12.458l37.672-50.8Z" transform="translate(-23.015 0.997)" fill="#c1fbff"/>
              <path id="Trazado_1256063" data-name="Trazado 1256063" d="M133.712,58.666l-75.045,101.2H71.124l62.587-84.4Z" transform="translate(-14.691 0.636)" fill="#c1fbff"/>
              <path id="Trazado_1256064" data-name="Trazado 1256064" d="M125.536,32.252a43.756,43.756,0,0,0-.447-6.23L26.022,159.62a18.217,18.217,0,0,0,4.62.6h7.391l87.5-118Z" transform="translate(-6.517 0.282)" fill="#c1fbff"/>
            </g>
          </g>
        </g>
        <g id="Grupo_1203814" data-name="Grupo 1203814" transform="translate(391.994 3778.575)">
          <g id="Grupo_1203813" data-name="Grupo 1203813" clip-path="url(#clip-path-4)">
            <path id="Trazado_1257562" data-name="Trazado 1257562" d="M128.746,99.971,51.381,125.408S24,137.207,15.46,175.865-2.122,330.25,11.442,352.843s30.393,19.079,30.393,19.079L34.3,428.153H302.064l-10.3-67.276s55.01-10.543,36.171-70.791c-15.46-49.441-35.167-145.851-35.167-145.851S280.211,113.61,252.581,111.1a312,312,0,0,1-48.731-8.28Z" transform="translate(-4.499 50.605)" fill="#3c497a"/>
            <path id="Trazado_1257563" data-name="Trazado 1257563" d="M62.192,99.971l68.2,2.586c.478.651.962,1.274,1.435,1.946,6.5,9.207,12.156,26.871,17.059,49.37-7.007,8.12-17.795,17.844-30.81,20.361,0,0,22.23,67.779,32.026,106.187,4.654,18.248,11.017,37.083,20.892,52.038,3.971,52.739,7.367,95.695,7.367,95.695H93.808c7.82-106.312-31.616-328.182-31.616-328.182" transform="translate(62.055 50.605)" fill="#d7dbfb"/>
            <path id="Trazado_1257564" data-name="Trazado 1257564" d="M141.6,273.776c2.937,38.464,5.145,66.4,5.145,66.4H62.192c1.4-19.062,1.28-41.85.143-66.4Z" transform="translate(93.669 138.585)" fill="#283359"/>
            <path id="Trazado_1257565" data-name="Trazado 1257565" d="M78.64,255.6c17.584-38.157,37.678-32.132,80.379-35.647,29.113-2.395,58.564-7.6,74.367-10.679,1.57,5.615,3.013,10.958,4.255,15.826,3.471,13.609,7.9,27.541,14.015,39.952-65.959,35.4-169.5,46.278-169.5,46.278s-21.1-17.573-3.516-55.729" transform="translate(-25.479 105.931)" fill="#3c497a"/>
            <path id="Trazado_1257566" data-name="Trazado 1257566" d="M97.633,93.714l-7.517,8.139a10.835,10.835,0,0,0-2.368,11.158c4.362,12.089,19.121,33.582,33.031,43.177L145.4,136.859l24.114,13.054a109.4,109.4,0,0,0-.6-39.652,19.4,19.4,0,0,0-7.016-11.375l-4.859-3.814Z" transform="translate(31.851 47.438)" fill="#fff"/>
            <path id="Trazado_1257567" data-name="Trazado 1257567" d="M93.579,125.642a10.787,10.787,0,0,1,13.965-.988l8.722,6.437-4.544,10.5,1.825,12.486-10.7,8.727s12.221,37.262,22.533,72.186l2.824,19.316L96.708,259.02,92.3,143.507l-6.928-9.787Z" transform="translate(77.29 62.033)" fill="#6e7dd0"/>
            <path id="Trazado_1257568" data-name="Trazado 1257568" d="M35.192,149.276s22.23,67.779,32.026,106.187,27.128,79.452,68.951,81.335" transform="translate(144.943 75.563)" fill="none" stroke="#6e7dd0" stroke-linecap="round" stroke-linejoin="round" stroke-width="1"/>
            <line id="Línea_3400" data-name="Línea 3400" x1="90.456" y1="128.266" transform="translate(219.696 192.581)" fill="none" stroke="#6e7dd0" stroke-linecap="round" stroke-linejoin="round" stroke-width="1"/>
            <path id="Trazado_1257569" data-name="Trazado 1257569" d="M115.729,135.639s-10.2-4.017-19.427,1.914" transform="translate(73.283 67.987)" fill="none" stroke="#a4b1e3" stroke-linecap="round" stroke-linejoin="round" stroke-width="1"/>
            <path id="Trazado_1257570" data-name="Trazado 1257570" d="M159.795,116.55l-5.071-37.009-59.4-6.989,3.667,32.434a13.95,13.95,0,0,0,1.408,4.752,77.011,77.011,0,0,0,46.293,37.833s14.82-16.82,13.109-31.022" transform="translate(30.562 36.726)" fill="#9d5742"/>
            <path id="Trazado_1257571" data-name="Trazado 1257571" d="M176.926,60.036s19.844-6.778,14.82-28.869l-3.516-5.1s2.824-9.206-3.486-14.979-14.6-1.506-14.6-1.506S167.884-.714,155.575.039s-13.061,6.778-13.061,6.778S134.727-1.718,122.922,3.8s-10.8,14.559-10.8,14.559S103.58,12.842,96.3,20.121s-4.27,13.054-4.27,13.054-6.532-1.758-11.053,6.778S81.978,63.8,95.29,64.806l12.81,24.6s-1.757,39.161,30.9,49.453,59.531-2.259,60.536-24.1-21.351-36.4-21.351-36.4Z" transform="translate(14.889 0)" fill="#24110d"/>
            <path id="Trazado_1257572" data-name="Trazado 1257572" d="M143.235,31.45,156.8,80.9s-19.091-7.028-35.417,5.523-22.1,8.536-27.882-1.758a126.093,126.093,0,0,1-6.6-13.914,18.139,18.139,0,0,1,.2-13.941,48.412,48.412,0,0,0,3.884-19.59s10.3-.5,12.811-5.773c0,0,12.81,6.276,23.864-1.758,0,0,6.028,5.775,15.573,1.758" transform="translate(48.328 15.03)" fill="#bc7560"/>
            <path id="Trazado_1257573" data-name="Trazado 1257573" d="M94.792,37.223s10.3-.5,12.81-5.773c0,0,12.811,6.275,23.862-1.758,0,0,6.028,5.773,15.575,1.758l.527,1.928c-3.047,1.887-8.672,3.781-17.609,1.146,0,0-9.306,5.837-20.1,2.824a43.916,43.916,0,0,1-15.6,7.573,46.315,46.315,0,0,0,.534-7.7" transform="translate(44.526 15.03)" fill="#9d5742"/>
            <path id="Trazado_1257574" data-name="Trazado 1257574" d="M143.617,44.145c4.212-1.874,9.575.533,13.364,5.523a8.655,8.655,0,0,1,1.293,7.864,46.668,46.668,0,0,0-1.968,15.1c-5.319,2.368-12.471-2.092-15.975-9.957s-2.032-16.162,3.287-18.528" transform="translate(-33.171 22.025)" fill="#bc7560"/>
            <path id="Trazado_1257575" data-name="Trazado 1257575" d="M115.518,127.859s-40.44,15.564-39.562,32.258c0,0,24.742-3.766,39.562-32.258" transform="translate(104.179 64.722)" fill="#18203c"/>
            <path id="Trazado_1257576" data-name="Trazado 1257576" d="M169.94,152.861l-6.036-9.426s5.768-22.673,0-33.82,1.1-23.662,0-25.414-9.26.822-12.835,12.827-5.625,15.71-5.625,15.71-56.675-23.2-66.049-19.312S89.2,105.962,89.2,105.962l10,7.576s2.836,10.729,7.6,16.493,25.092,33.076,25.092,33.076L136,181.552s23.069-8.5,33.936-28.692" transform="translate(48.442 42.371)" fill="#bc7560"/>
            <path id="Trazado_1257577" data-name="Trazado 1257577" d="M0,190.867a83.738,83.738,0,0,1,26.168-6.091s25.106,15.25,23.222,22.593c0,0-.754,3.954-3.956,4.142,0,0,5.15,7.154,0,12.8,0,0,2.637,5.522-2.726,11.045,0,0,4.233,11.422-3.558,14.545,0,0-24.034-40.447-39.149-59.037" transform="translate(284.66 93.533)" fill="#bc7560"/>
            <path id="Trazado_1257578" data-name="Trazado 1257578" d="M19.144,207.316s-8.33-8.984-16.452-14.253" transform="translate(310.949 97.728)" fill="none" stroke="#9d5742" stroke-linecap="round" stroke-linejoin="round" stroke-width="1"/>
            <path id="Trazado_1257579" data-name="Trazado 1257579" d="M21.959,216.1S12.71,206.818,2.692,201" transform="translate(308.134 101.746)" fill="none" stroke="#9d5742" stroke-linecap="round" stroke-linejoin="round" stroke-width="1"/>
            <path id="Trazado_1257580" data-name="Trazado 1257580" d="M102.063,98.482s27.4,9.224,42.686,18.736" transform="translate(35.58 49.851)" fill="none" stroke="#9d5742" stroke-linecap="round" stroke-linejoin="round" stroke-width="1"/>
            <line id="Línea_3401" data-name="Línea 3401" x2="35.188" y2="26.663" transform="translate(137.643 148.333)" fill="none" stroke="#9d5742" stroke-linecap="round" stroke-linejoin="round" stroke-width="1"/>
            <path id="Trazado_1257581" data-name="Trazado 1257581" d="M113.019,145.739s-12.794,25.125-49.678,32.987" transform="translate(125.669 73.773)" fill="none" stroke="#6e7dd0" stroke-linecap="round" stroke-linejoin="round" stroke-width="1"/>
            <path id="Trazado_1257582" data-name="Trazado 1257582" d="M217.271,264.289s-63.2,17.716-98.559,19.184" transform="translate(-62.034 133.782)" fill="none" stroke="#6e7dd0" stroke-linecap="round" stroke-linejoin="round" stroke-width="1"/>
            <path id="Trazado_1257583" data-name="Trazado 1257583" d="M215.336,215.252l-49.072,3.662s-39.993,4.1-44.3,26.157" transform="translate(-65.003 108.96)" fill="none" stroke="#6e7dd0" stroke-linecap="round" stroke-linejoin="round" stroke-width="1"/>
            <line id="Línea_3402" data-name="Línea 3402" x1="4.521" y1="73.151" transform="translate(79.284 257.599)" fill="none" stroke="#6e7dd0" stroke-linecap="round" stroke-linejoin="round" stroke-width="1"/>
            <path id="Trazado_1257584" data-name="Trazado 1257584" d="M148.639,115.4l-8.681,33.376a18.167,18.167,0,0,0,4.437,15.716l22.364,25.652L151.465,211.78a17.767,17.767,0,0,0-.573,20.248l17.1,35.64" transform="translate(-44.246 58.416)" fill="none" stroke="#6e7dd0" stroke-linecap="round" stroke-linejoin="round" stroke-width="1"/>
            <line id="Línea_3403" data-name="Línea 3403" x1="1.967" y1="21.204" transform="translate(260.389 231.867)" fill="none" stroke="#6e7dd0" stroke-linecap="round" stroke-linejoin="round" stroke-width="1"/>
            <line id="Línea_3404" data-name="Línea 3404" x1="17.214" y1="12.551" transform="translate(310.153 316.341)" fill="none" stroke="#9d5742" stroke-linecap="round" stroke-linejoin="round" stroke-width="1"/>
            <path id="Trazado_1257585" data-name="Trazado 1257585" d="M89.619,45.151c2.952,3.725,15.745,17.775,14.318,22.028s-7.843,3.957-7.843,3.957" transform="translate(95.038 22.855)" fill="none" stroke="#9d5742" stroke-linecap="round" stroke-linejoin="round" stroke-width="1"/>
            <path id="Trazado_1257586" data-name="Trazado 1257586" d="M107.318,71.651s-8.1,2.824-13.376,0" transform="translate(85.251 36.27)" fill="none" stroke="#fff" stroke-linecap="round" stroke-linejoin="round" stroke-width="1"/>
            <path id="Trazado_1257587" data-name="Trazado 1257587" d="M93.572,46.962c.562,1.493,1.964,2.347,3.133,1.907s1.661-2,1.1-3.5-1.964-2.347-3.133-1.907-1.661,2-1.1,3.5" transform="translate(95.44 21.943)" fill="#24110d"/>
            <path id="Trazado_1257588" data-name="Trazado 1257588" d="M107.456,48.635c.386,1.548,1.68,2.559,2.892,2.256s1.881-1.8,1.5-3.347-1.68-2.558-2.892-2.255-1.881,1.8-1.5,3.345" transform="translate(60.414 22.899)" fill="#24110d"/>
            <line id="Línea_3405" data-name="Línea 3405" x1="9.419" y1="10.995" transform="translate(112.126 73.014)" fill="none" stroke="#9d5742" stroke-linecap="round" stroke-linejoin="round" stroke-width="1"/>
            <line id="Línea_3406" data-name="Línea 3406" x1="3.956" y2="3.93" transform="translate(112.126 77.632)" fill="none" stroke="#9d5742" stroke-linecap="round" stroke-linejoin="round" stroke-width="1"/>
            <path id="Trazado_1257589" data-name="Trazado 1257589" d="M121.135,41.018a8.563,8.563,0,0,0-4.283-2.13,10.936,10.936,0,0,0-4.621,0,10.393,10.393,0,0,0-4.328,2.048,6.789,6.789,0,0,0-2.549,4.247l-.012.087a.139.139,0,0,0,.231.12,14.54,14.54,0,0,1,3.377-2.3,18.678,18.678,0,0,1,3.908-1.253,25.583,25.583,0,0,1,4.093-.545,35.867,35.867,0,0,1,4.143.03.138.138,0,0,0,.148-.128.136.136,0,0,0-.042-.108Z" transform="translate(54.147 19.56)" fill="#24110d"/>
            <path id="Trazado_1257590" data-name="Trazado 1257590" d="M101.916,39.492a4,4,0,0,0-2.238-2.649,5.173,5.173,0,0,0-5.98,1.038,4.485,4.485,0,0,0-1.337,3.1l-.006.131a.123.123,0,0,0,.116.128.12.12,0,0,0,.069-.018A18.659,18.659,0,0,1,94.7,40.053a9.675,9.675,0,0,1,2.318-.69,8.775,8.775,0,0,1,4.758.395.129.129,0,0,0,.167-.077.123.123,0,0,0,0-.077Z" transform="translate(93.013 18.382)" fill="#24110d"/>
          </g>
        </g>
      </g>
      <g id="Grupo_1203825" data-name="Grupo 1203825" transform="translate(733.042 6001)">
        <g id="Grupo_1203807" data-name="Grupo 1203807" transform="translate(0)">
          <g id="Grupo_1203806" data-name="Grupo 1203806" clip-path="url(#clip-path-5)">
            <path id="Trazado_1257558" data-name="Trazado 1257558" d="M244.689,1.421l41.231,55.7-41.955,59.314S340.171,130.177,338,239.4l54.974,41.231,57.868-41.955s15.19-198.2-206.154-237.258" transform="translate(3.586 0.021)" fill="#0d5365"/>
            <path id="Trazado_1257559" data-name="Trazado 1257559" d="M452.959,245.477l-55.8,41.647-59.21-42.663s-13.984,97.463-123.2,94.993l-41.367,55.613,41.81,58.748s198.158,15.88,237.771-208.338" transform="translate(2.548 3.593)" fill="#302c9e"/>
            <path id="Trazado_1257560" data-name="Trazado 1257560" d="M209.2,453.794,167.525,398.43,209,338.78s-96.313-12.97-95.021-122.209L58.675,175.784,1.146,218.2S-12.449,416.515,209.2,453.794" transform="translate(0.014 2.584)" fill="#ebcc30"/>
            <path id="Trazado_1257561" data-name="Trazado 1257561" d="M0,210.425,55.463,168.33l59.552,42.185s13.2-97.571,122.434-95.982l40.919-55.942L236.087.182S37.807-14.105,0,210.425" transform="translate(0 0)" fill="#5dd2e4"/>
          </g>
        </g>
      </g>
      <path id="Trazado_1260775" data-name="Trazado 1260775" d="M8.376,14.491V19H5.739V6.2h4.992a5.776,5.776,0,0,1,2.536.527,3.886,3.886,0,0,1,1.683,1.5,4.178,4.178,0,0,1,.589,2.21,3.674,3.674,0,0,1-1.288,2.966,5.363,5.363,0,0,1-3.564,1.085Zm0-2.136h2.355a2.316,2.316,0,0,0,1.6-.492,1.79,1.79,0,0,0,.549-1.406,2.111,2.111,0,0,0-.554-1.521,2.068,2.068,0,0,0-1.529-.6H8.376ZM19.863,19H17.315V5.5h2.549Zm7.6,0a2.821,2.821,0,0,1-.255-.853,3.073,3.073,0,0,1-2.4,1.028,3.376,3.376,0,0,1-2.316-.809,2.6,2.6,0,0,1-.918-2.039,2.687,2.687,0,0,1,1.121-2.32,5.529,5.529,0,0,1,3.239-.817h1.169v-.545a1.567,1.567,0,0,0-.338-1.055,1.331,1.331,0,0,0-1.068-.4,1.513,1.513,0,0,0-1.006.308,1.045,1.045,0,0,0-.365.844h-2.54a2.551,2.551,0,0,1,.51-1.529,3.37,3.37,0,0,1,1.441-1.1,5.253,5.253,0,0,1,2.092-.4,4.15,4.15,0,0,1,2.791.883,3.09,3.09,0,0,1,1.033,2.483V16.8a4.546,4.546,0,0,0,.378,2.048V19Zm-2.1-1.767a2.188,2.188,0,0,0,1.037-.25,1.645,1.645,0,0,0,.7-.672V14.676h-.949q-1.907,0-2.03,1.318l-.009.149a1.017,1.017,0,0,0,.334.782A1.3,1.3,0,0,0,25.365,17.233ZM33.944,9.49l.079,1.1a3.32,3.32,0,0,1,2.733-1.274,2.759,2.759,0,0,1,2.25.888,4.142,4.142,0,0,1,.756,2.654V19h-2.54V12.918a1.648,1.648,0,0,0-.352-1.173A1.574,1.574,0,0,0,35.7,11.38a1.747,1.747,0,0,0-1.608.914V19h-2.54V9.49Zm12.12,9.686a4.668,4.668,0,0,1-3.406-1.283,4.561,4.561,0,0,1-1.314-3.419v-.246a5.745,5.745,0,0,1,.554-2.562,4.064,4.064,0,0,1,1.569-1.74,4.4,4.4,0,0,1,2.316-.611,3.947,3.947,0,0,1,3.072,1.23,5,5,0,0,1,1.121,3.489v1.037H43.919a2.36,2.36,0,0,0,.743,1.494,2.245,2.245,0,0,0,1.569.563,2.742,2.742,0,0,0,2.294-1.063l1.248,1.4a3.813,3.813,0,0,1-1.547,1.261A5.075,5.075,0,0,1,46.064,19.176Zm-.29-7.813a1.587,1.587,0,0,0-1.226.512,2.651,2.651,0,0,0-.6,1.466h3.533v-.2a1.891,1.891,0,0,0-.457-1.311A1.638,1.638,0,0,0,45.774,11.362ZM56.927,19a2.821,2.821,0,0,1-.255-.853,3.073,3.073,0,0,1-2.4,1.028,3.376,3.376,0,0,1-2.316-.809,2.6,2.6,0,0,1-.918-2.039,2.687,2.687,0,0,1,1.121-2.32A5.529,5.529,0,0,1,55.4,13.19h1.169v-.545a1.567,1.567,0,0,0-.338-1.055,1.331,1.331,0,0,0-1.068-.4,1.513,1.513,0,0,0-1.006.308,1.045,1.045,0,0,0-.365.844h-2.54a2.551,2.551,0,0,1,.51-1.529,3.37,3.37,0,0,1,1.441-1.1,5.253,5.253,0,0,1,2.092-.4,4.15,4.15,0,0,1,2.791.883,3.09,3.09,0,0,1,1.033,2.483V16.8a4.546,4.546,0,0,0,.378,2.048V19Zm-2.1-1.767a2.188,2.188,0,0,0,1.037-.25,1.645,1.645,0,0,0,.7-.672V14.676h-.949q-1.907,0-2.03,1.318l-.009.149a1.017,1.017,0,0,0,.334.782A1.3,1.3,0,0,0,54.826,17.233ZM66.41,11.872a6.9,6.9,0,0,0-.914-.07,1.86,1.86,0,0,0-1.89.976V19h-2.54V9.49h2.4l.07,1.134a2.354,2.354,0,0,1,2.118-1.31,2.662,2.662,0,0,1,.791.114Z" transform="translate(838.834 6104.978)" fill="#12263f"/>
      <g id="Grupo_1203815" data-name="Grupo 1203815" transform="translate(843.934 6038.163)">
        <g id="Grupo_1203815-2" data-name="Grupo 1203815" transform="translate(0)" clip-path="url(#clip-path-6)">
          <path id="Trazado_1257591" data-name="Trazado 1257591" d="M4.819,18.14C-.4,17.524-1.88,10.324,2.908,7.955c1.668-.825,2.707-.371,4.387-.718.155-1.686-.15-2.723.63-4.3A5.367,5.367,0,0,1,12.733,0l40.6.087a5.466,5.466,0,0,1,4.314,3.96c.585,11.9.087,23.9.258,35.831,7.328,7.881,2.477,20.833-8.359,21.576-12.038.826-25.014-.631-37.15-.01a5.6,5.6,0,0,1-4.978-4.353c-.1-.617.111-2.74-.207-2.962-2.155-.085-3.878.114-5.564-1.477-3.3-3.115-1.067-9.338,3.176-9.338H7.371V36.1H4.291c-.068,0-1.09-.412-1.265-.5a5.437,5.437,0,0,1,0-9.747c.175-.083,1.2-.5,1.265-.5H7.371V18.14c-.816-.068-1.755.094-2.553,0M54.2,37.329V5.025c0-.921-1.559-1.552-2.37-1.5H13.263c-2.87.246-2.38,1.861-2.351,4.212,4.729,1.523,4.7,8.433.008,10.081l-.035,7.776a5.478,5.478,0,0,1,0,10.271v7.686a5.471,5.471,0,0,1,0,10.26c.07,1.066-.258,2.831.672,3.594a4.747,4.747,0,0,0,1.187.524h27.2l-1.551-2.058C31.344,45.183,42.537,31.983,54.2,37.329M4.088,14.03a1.57,1.57,0,0,0,.9.421,29.1,29.1,0,0,0,4.723-.045c1.641-.368,1.589-3.091-.356-3.442A20.479,20.479,0,0,0,4.9,11a1.856,1.856,0,0,0-.807,3.031M5.213,28.921a1.816,1.816,0,0,0-.782,3.338c.76.418,3.859.447,4.777.305a1.823,1.823,0,0,0,.4-3.55,16.913,16.913,0,0,0-4.4-.093m37.253,26.3c8.715,8.715,21.616-5.387,12.088-13.408-8.673-7.3-20.174,5.322-12.088,13.408m-38.378-7.8A1.856,1.856,0,0,0,4.9,50.457a20.48,20.48,0,0,0,4.46.034c1.945-.351,2-3.075.356-3.442A29.1,29.1,0,0,0,4.988,47a1.57,1.57,0,0,0-.9.421" transform="translate(0)" fill="#12263f"/>
          <path id="Trazado_1257592" data-name="Trazado 1257592" d="M112.63,62.132a1.818,1.818,0,0,1,1.775,2.845,81.765,81.765,0,0,1-7.1,7.16c-1.073.884-1.819,1.067-2.992.167-.708-.543-4.22-4.094-4.414-4.74a1.826,1.826,0,0,1,2.293-2.292c.708.139,2.4,2.483,3.164,3,.178.119.256.211.5.147.743-.2,4.871-5.165,5.926-5.886a1.743,1.743,0,0,1,.846-.4" transform="translate(-82.237 -51.175)" fill="#12263f"/>
          <path id="Trazado_1257593" data-name="Trazado 1257593" d="M106.287,150.12c2.078-1.761,3.852-3.837,5.858-5.675,2.189-.713,3.454,1.148,2,3.054a65.14,65.14,0,0,1-6.683,6.7c-.841.663-1.588,1.175-2.635.518-.417-.262-4.4-4.246-4.665-4.665a1.816,1.816,0,0,1,1.424-2.752c1.476-.087,3.108,2.439,4.208,3.284l.166,0c.129-.032.206-.361.328-.465" transform="translate(-82.306 -118.888)" fill="#12263f"/>
          <path id="Trazado_1257594" data-name="Trazado 1257594" d="M114.42,226.292a1.823,1.823,0,0,1,.237,2.317L106.53,236.5a1.759,1.759,0,0,1-1.644-.235,57.747,57.747,0,0,1-4.407-4.395,1.834,1.834,0,0,1,1.575-3c1.2.119,2.9,2.594,3.89,3.339l6.324-6.172a2.013,2.013,0,0,1,2.153.25" transform="translate(-82.463 -186.085)" fill="#12263f"/>
          <path id="Trazado_1257595" data-name="Trazado 1257595" d="M207.332,163.355c3.406.289,7.941-.536,11.214-.03a1.853,1.853,0,0,1,0,3.674c-3.243.5-7.689-.337-11.063,0a1.832,1.832,0,0,1-.151-3.639" transform="translate(-169.551 -134.434)" fill="#12263f"/>
          <path id="Trazado_1257596" data-name="Trazado 1257596" d="M207.488,81.263a68.817,68.817,0,0,1,10.677-.022c2.692.342,2.538,3.355.356,3.661-3.381.474-7.752-.312-11.241.006a1.837,1.837,0,0,1,.208-3.645" transform="translate(-169.53 -66.777)" fill="#12263f"/>
          <path id="Trazado_1257597" data-name="Trazado 1257597" d="M270.1,249.746c1.031.1,2.3-.346,3.089.52a1.846,1.846,0,0,1-1.074,2.99,18.836,18.836,0,0,1-4.58-.153c-1.5-.584-1.267-3.671-1.138-5.037.133-1.409,1.125-2.429,2.572-1.853,1.356.54,1.155,2.345,1.131,3.534" transform="translate(-219.419 -202.733)" fill="#12263f"/>
        </g>
      </g>
      <g id="Grupo_1203823" data-name="Grupo 1203823" transform="translate(1018.364 6323.922)">
        <path id="Trazado_1260776" data-name="Trazado 1260776" d="M8.877,15.827l2.9-9.624h2.936L10.257,19H7.506L3.068,6.2H5.995Zm11.25,3.349a4.668,4.668,0,0,1-3.406-1.283,4.561,4.561,0,0,1-1.314-3.419v-.246a5.745,5.745,0,0,1,.554-2.562,4.064,4.064,0,0,1,1.569-1.74,4.4,4.4,0,0,1,2.316-.611,3.947,3.947,0,0,1,3.072,1.23,5,5,0,0,1,1.121,3.489v1.037H17.983a2.36,2.36,0,0,0,.743,1.494,2.245,2.245,0,0,0,1.569.563,2.742,2.742,0,0,0,2.294-1.063l1.248,1.4a3.813,3.813,0,0,1-1.547,1.261A5.075,5.075,0,0,1,20.127,19.176Zm-.29-7.813a1.587,1.587,0,0,0-1.226.512,2.651,2.651,0,0,0-.6,1.466h3.533v-.2a1.891,1.891,0,0,0-.457-1.311A1.638,1.638,0,0,0,19.837,11.362Zm10.986.51a6.9,6.9,0,0,0-.914-.07,1.86,1.86,0,0,0-1.89.976V19H25.48V9.49h2.4l.07,1.134a2.354,2.354,0,0,1,2.118-1.31,2.662,2.662,0,0,1,.791.114ZM34.726,19H32.177V9.49h2.549Zm-2.7-11.971a1.251,1.251,0,0,1,.382-.94,1.648,1.648,0,0,1,2.079,0,1.244,1.244,0,0,1,.387.94,1.247,1.247,0,0,1-.391.949,1.629,1.629,0,0,1-2.065,0A1.247,1.247,0,0,1,32.028,7.029ZM37.433,19V11.354H36.018V9.49h1.415V9.051a3.566,3.566,0,0,1,1.1-2.764A4.438,4.438,0,0,1,41.6,5.315a10.16,10.16,0,0,1,2.883.519l-.369,2.1a11.248,11.248,0,0,0-1.336-.33,6.564,6.564,0,0,0-1.02-.075q-1.775,0-1.775,1.573V9.49h1.872v1.863H39.982V19Zm8.235,0H43.12V9.49h2.549Zm6.056-1.872a1.666,1.666,0,0,0,1.143-.387,1.355,1.355,0,0,0,.457-1.028h2.382a3.258,3.258,0,0,1-.527,1.771,3.48,3.48,0,0,1-1.419,1.248,4.442,4.442,0,0,1-1.991.444,4.129,4.129,0,0,1-3.217-1.3A5.13,5.13,0,0,1,47.373,14.3v-.167a5.071,5.071,0,0,1,1.169-3.507,4.08,4.08,0,0,1,3.208-1.31,4,4,0,0,1,2.861,1.015,3.594,3.594,0,0,1,1.094,2.7H53.324a1.745,1.745,0,0,0-.457-1.206,1.7,1.7,0,0,0-2.5.183,3.749,3.749,0,0,0-.453,2.1v.264a3.8,3.8,0,0,0,.448,2.113A1.549,1.549,0,0,0,51.724,17.128ZM62.666,19a2.821,2.821,0,0,1-.255-.853,3.073,3.073,0,0,1-2.4,1.028,3.376,3.376,0,0,1-2.316-.809,2.6,2.6,0,0,1-.918-2.039,2.687,2.687,0,0,1,1.121-2.32,5.529,5.529,0,0,1,3.239-.817h1.169v-.545a1.567,1.567,0,0,0-.338-1.055,1.331,1.331,0,0,0-1.068-.4,1.513,1.513,0,0,0-1.006.308,1.045,1.045,0,0,0-.365.844h-2.54a2.551,2.551,0,0,1,.51-1.529,3.37,3.37,0,0,1,1.441-1.1,5.253,5.253,0,0,1,2.092-.4,4.15,4.15,0,0,1,2.791.883,3.09,3.09,0,0,1,1.033,2.483V16.8a4.546,4.546,0,0,0,.378,2.048V19Zm-2.1-1.767a2.188,2.188,0,0,0,1.037-.25,1.645,1.645,0,0,0,.7-.672V14.676h-.949q-1.907,0-2.03,1.318l-.009.149a1.017,1.017,0,0,0,.334.782A1.3,1.3,0,0,0,60.566,17.233ZM72.15,11.872a6.9,6.9,0,0,0-.914-.07,1.86,1.86,0,0,0-1.89.976V19h-2.54V9.49h2.4l.07,1.134a2.354,2.354,0,0,1,2.118-1.31,2.662,2.662,0,0,1,.791.114Z" transform="translate(0 69.387)" fill="#fff"/>
        <g id="Grupo_1203817" data-name="Grupo 1203817" transform="translate(0)">
          <g id="Grupo_1203816" data-name="Grupo 1203816" clip-path="url(#clip-path-7)">
            <path id="Trazado_1257598" data-name="Trazado 1257598" d="M128.286,243.519c1.223-1.242,6.283-3.509,6.011-.521-.116,1.277-1.158.859-1.9,1.05-6.865,1.772-2.254,11.335,3.159,7.566,1.171-.816,1.625-3.243,3.182-2.429,2.1,1.1-1.223,4.316-2.494,4.954-6.938,3.481-13.162-5.333-7.957-10.62" transform="translate(-103.151 -197.166)" fill="#fff"/>
            <path id="Trazado_1257599" data-name="Trazado 1257599" d="M156.49,250.483c.814-.707,2.4.958,1.477,1.849-1.751,1.688-1.425,1.47-4.847,4.886a1.461,1.461,0,0,1-1.351.112,31.244,31.244,0,0,1-2.295-2.3,1.2,1.2,0,0,1,.572-1.625c1.377-.716,1.837.967,2.338.88,1.008-.643,3.35-3.15,4.107-3.808" transform="translate(-121.921 -204.343)" fill="#fff"/>
            <path id="Trazado_1257600" data-name="Trazado 1257600" d="M123.4,133.922a1.284,1.284,0,0,1,1.609,1.8l-7.113,7.026a1.281,1.281,0,0,1-1.414-.146,38.119,38.119,0,0,1-3.457-3.527,1.251,1.251,0,0,1,.141-1.426c1.319-1.708,3.148,1.561,4.292,2.1.608-.106,5.065-5.564,5.941-5.828" transform="translate(-92.138 -109.269)" fill="#fff"/>
            <path id="Trazado_1257601" data-name="Trazado 1257601" d="M62.91,54.085c-.1-1.076-.864-2.031-2.031-1.461a2.492,2.492,0,0,0-.549.735v8.081l-.275.275H18.183l-.275-.275V46.013c0-.183,1.416-.947,1.2-1.932-.073-.338-.662-.9-.574-1.1l2.672-2.669C31.7,44.974,42.823,35.244,38.8,24.206c-3.144-8.62-14.151-11.052-20.889-4.914V8.549c0-.137.446-.416.648-.454,1.26-.241,3.157.168,4.5-.006-.3,2.587.859,4.938,3.6,5.306,7.943-.408,16.546.613,24.413.028a4.5,4.5,0,0,0,3.1-1.3c1.2-1.335.62-2.436,1.01-3.949a32.6,32.6,0,0,1,4.336-.089c.645.084.854.331.829,1.008l-.015,33.623c.176,1.842,2.439,1.51,2.58-.184l0-33.618a3.326,3.326,0,0,0-1.8-2.977c-.152-.071-1.173-.414-1.238-.414H48.577A4.562,4.562,0,0,0,44.268.186,75.427,75.427,0,0,0,33.609.192a4.971,4.971,0,0,0-4.131,5.327c-3.462.232-7.327-.316-10.741,0-1.842.172-3.148,1.037-3.392,2.964v6.406a40.239,40.239,0,0,1-.02,7.97c-.086.54-.622,1.447-.814,2.124a15.531,15.531,0,0,0-.441,5.581c.146,1.313.873,2.535,1.057,3.835l-2.635,2.674a1.679,1.679,0,0,0-2.032-.347c-2.629,3.083-6.365,5.829-8.9,8.912-4.142,5.037.633,11.789,6.577,9.515,2.544-.973,4.916-4.867,7.2-6.481V61.623a3.441,3.441,0,0,0,2.846,2.663l42.2-.045a3.237,3.237,0,0,0,2.441-2.7,43.485,43.485,0,0,0,.091-7.456m-37.289-46h5.6c1.661,0-.2-4.536,2.1-5.244,3.494.094,7.506-.405,10.946-.091,3.263.3.972,5.335,2.746,5.335h5.6c-.013.974.246,2.081-.781,2.616l-25.011.128c-1.495-.32-1.223-1.518-1.2-2.744m-.038,10.338C39.464,16.94,41.212,37.805,27.73,38.94c-13.574,1.142-15.161-19.117-2.147-20.512M8.158,52.241A3.423,3.423,0,0,1,2.81,48.177l8.42-8.487,4.838,4.67Zm6.08-13.39c.412-.305,2.248-2.515,2.564-2.295a6.917,6.917,0,0,0,2.207,2.3l-2.3,2.47Z" transform="translate(0 0)" fill="#fff"/>
            <path id="Trazado_1257602" data-name="Trazado 1257602" d="M236,113.7H224.791a1.306,1.306,0,0,1,0-2.612H236a1.306,1.306,0,1,1,0,2.612" transform="translate(-182.442 -90.691)" fill="#fff"/>
            <path id="Trazado_1257603" data-name="Trazado 1257603" d="M231.029,139.186h-6.239a1.306,1.306,0,0,1,0-2.612h6.239a1.306,1.306,0,1,1,0,2.612" transform="translate(-182.442 -111.492)" fill="#fff"/>
            <path id="Trazado_1257604" data-name="Trazado 1257604" d="M194.881,30.149h-6.239a1.306,1.306,0,0,1,0-2.612h6.239a1.306,1.306,0,0,1,0,2.612" transform="translate(-152.933 -22.48)" fill="#fff"/>
            <path id="Trazado_1257605" data-name="Trazado 1257605" d="M236,252.372H224.791a1.306,1.306,0,0,1,0-2.612H236a1.306,1.306,0,1,1,0,2.612" transform="translate(-182.442 -203.892)" fill="#fff"/>
            <path id="Trazado_1257606" data-name="Trazado 1257606" d="M231.029,277.853h-6.239a1.306,1.306,0,0,1,0-2.612h6.239a1.306,1.306,0,1,1,0,2.612" transform="translate(-182.442 -224.693)" fill="#fff"/>
            <path id="Trazado_1257607" data-name="Trazado 1257607" d="M328.894,249.723a1.741,1.741,0,1,1-1.741-1.741,1.741,1.741,0,0,1,1.741,1.741" transform="translate(-265.65 -202.441)" fill="#fff"/>
          </g>
        </g>
      </g>
      <g id="Grupo_1203822" data-name="Grupo 1203822" transform="translate(1074.468 6109.038)">
        <path id="Trazado_1260778" data-name="Trazado 1260778" d="M17.829,19H15.192V13.516H10.05V19H7.414V6.2H10.05v5.186h5.142V6.2h2.637Zm7.646,0a2.821,2.821,0,0,1-.255-.853,3.073,3.073,0,0,1-2.4,1.028,3.376,3.376,0,0,1-2.316-.809,2.6,2.6,0,0,1-.918-2.039,2.687,2.687,0,0,1,1.121-2.32,5.529,5.529,0,0,1,3.239-.817h1.169v-.545a1.567,1.567,0,0,0-.338-1.055,1.331,1.331,0,0,0-1.068-.4A1.513,1.513,0,0,0,22.7,11.5a1.045,1.045,0,0,0-.365.844H19.8a2.551,2.551,0,0,1,.51-1.529,3.37,3.37,0,0,1,1.441-1.1,5.253,5.253,0,0,1,2.092-.4,4.15,4.15,0,0,1,2.791.883,3.09,3.09,0,0,1,1.033,2.483V16.8a4.546,4.546,0,0,0,.378,2.048V19Zm-2.1-1.767a2.188,2.188,0,0,0,1.037-.25,1.645,1.645,0,0,0,.7-.672V14.676h-.949q-1.907,0-2.03,1.318l-.009.149a1.017,1.017,0,0,0,.334.782A1.3,1.3,0,0,0,23.375,17.233Zm10.2-.105a1.666,1.666,0,0,0,1.143-.387,1.355,1.355,0,0,0,.457-1.028h2.382a3.258,3.258,0,0,1-.527,1.771A3.48,3.48,0,0,1,35.6,18.732a4.442,4.442,0,0,1-1.991.444,4.129,4.129,0,0,1-3.217-1.3A5.13,5.13,0,0,1,29.219,14.3v-.167a5.071,5.071,0,0,1,1.169-3.507A4.08,4.08,0,0,1,33.6,9.314a4,4,0,0,1,2.861,1.015,3.594,3.594,0,0,1,1.094,2.7H35.17a1.745,1.745,0,0,0-.457-1.206,1.7,1.7,0,0,0-2.5.183,3.749,3.749,0,0,0-.453,2.1v.264a3.8,3.8,0,0,0,.448,2.113A1.549,1.549,0,0,0,33.57,17.128Zm9.809,2.048a4.668,4.668,0,0,1-3.406-1.283,4.561,4.561,0,0,1-1.314-3.419v-.246a5.745,5.745,0,0,1,.554-2.562,4.064,4.064,0,0,1,1.569-1.74A4.4,4.4,0,0,1,43.1,9.314a3.947,3.947,0,0,1,3.072,1.23,5,5,0,0,1,1.121,3.489v1.037H41.234a2.36,2.36,0,0,0,.743,1.494,2.245,2.245,0,0,0,1.569.563,2.742,2.742,0,0,0,2.294-1.063l1.248,1.4a3.813,3.813,0,0,1-1.547,1.261A5.075,5.075,0,0,1,43.379,19.176Zm-.29-7.813a1.587,1.587,0,0,0-1.226.512,2.651,2.651,0,0,0-.6,1.466h3.533v-.2a1.891,1.891,0,0,0-.457-1.311A1.638,1.638,0,0,0,43.088,11.362Zm10.986.51a6.9,6.9,0,0,0-.914-.07,1.86,1.86,0,0,0-1.89.976V19h-2.54V9.49h2.4l.07,1.134a2.354,2.354,0,0,1,2.118-1.31,2.662,2.662,0,0,1,.791.114Z" transform="translate(7.14 68.807)" fill="#fff"/>
        <g id="Grupo_1203819" data-name="Grupo 1203819" transform="translate(0)">
          <g id="Grupo_1203818" data-name="Grupo 1203818" clip-path="url(#clip-path-8)">
            <path id="Trazado_1257608" data-name="Trazado 1257608" d="M8.723,10.887h3.787l2.358-2.3c2.221,1.467,4.56.592,4.738-2.159l6.287.153c8.3-10.166,24.84-8.131,30.579,3.649.345.707.654,2.157.986,2.654.416.624,2.054,1.344,2.436,2.274h7.088v19.42H59.505c-.125,0-1.8.874-2.278,1.024a24.687,24.687,0,0,1-8.664,1.144c-1.389,1.875-.747,3.7-1.019,5.68-.092.669-.684,1.42-.718,1.8-.032.359.6,1.2.689,1.764.355,2.221-1.456,2.712-1.518,3.458-.071.857,2.859,5.055,2.646,5.919L39.8,67.787,31.279,55.411c-.23-.839,2.43-4.836,2.694-5.987-1.016-1.121-1.788-1.981-1.511-3.632.085-.509.725-1.413.7-1.565-.035-.22-.6-.837-.7-1.441-.177-1.032.053-2.185-.068-3.234-.339-2.945-3.265-5.293-4.946-7.512-.863-.133-1.764,1.743-1.644,2.53l-6.088.02c-.35-1.318-.8-2.8-2.449-2.731v4.952c0,.155,1.683.821,2.045,2.228a3.251,3.251,0,0,1-5.818,2.711c-1.263-1.888-.247-4,1.607-4.969l.034-4.008-2.625-2.467H8.723V41.376a3.635,3.635,0,0,1,.766.3,3.238,3.238,0,1,1-3.861,0,3.635,3.635,0,0,1,.766-.3V28.171h4.175c1.96-1.991.5-4.4-2.014-4.686l-.024-1.918-2.2-.007C4.706,25.475-1.052,23.682.169,19.519a3.261,3.261,0,0,1,6.158-.079l2.2-.007.093-1.752c1.659-.6,3.113-1.283,2.808-3.381-.038-.262-.5-1.276-.669-1.276H6.392v-6.7A3.239,3.239,0,0,1,5.61.687a3.229,3.229,0,0,1,4.828,4.051C10.022,5.6,8.723,6.2,8.723,6.324Zm-.435-8.5c-1-1.011-2.547.852-1.428,1.718,1.2.933,2.292-.847,1.428-1.718M35.619,17.3H43.1l-3.37-1c-2.145-.8-3.821-4.2-2.621-6.254,1.586-2.718,4.864-.583,7.156-.028,3.381.818,6.661.533,9.962,1.3.139.032.5.357.329-.134-.571-1.612-3.292-4.557-4.675-5.619a16.241,16.241,0,0,0-22.894,3.1c.278.818,1.583.757,2.275.522.6-.2.848-.894,1.515-.446.315.212,3.766,3.654,3.889,3.9l.059.251c-1.291,1.2-.91,4.043.9,4.405m-6.02,0h2.816a5.322,5.322,0,0,1-.435-4.153L30.138,11.3a5.218,5.218,0,0,1-6.21-2.75l-2.454.034a5.232,5.232,0,0,1-6.2,2.715l-1.8,1.729c.446,2.481-.11,5-2.583,6.042v2.754a5.257,5.257,0,0,1,2.52,6.2l1.839,1.842a4.92,4.92,0,0,1,5.132,1.106c.548.569.638,1.379,1.436,1.477a8.177,8.177,0,0,0,2.248-.106,16.026,16.026,0,0,1,1.16-1.559,5.039,5.039,0,0,1,3.2-1.266c.488.01,1.131.345,1.571.307.571-.049,1.58-1.347,2-1.8a8.715,8.715,0,0,1,.225-4.33L29.5,23.8c-3.645,7.483-15.013,4.445-14.374-3.888C15.719,12.158,26.2,10.476,29.6,17.3M43.29,30.307c-.086.5.26,1.92-.318,2.109-1.159.264-5.055-.336-5.813.207a1.081,1.081,0,0,0,.609,1.944c6.753-.378,14.084,1.195,20.386-1.728l.085-16.219c-.079-.412-.74-.987-1.068-1.262-3.749-3.152-8.689-2.112-13.3-3.206-.913-.216-3.98-1.389-4.518-1.233a.856.856,0,0,0-.442.36c-.183.367.187,1.369.386,1.756,1.315,2.547,4.666,1.059,5.821,3.111a2.236,2.236,0,0,1-1.726,3.291H26.885c-1.212.226-1.285,2.213.186,2.135l15.9.024c.579.189.232,1.6.318,2.109H35.619a1.213,1.213,0,0,0-.827,1.9,9.647,9.647,0,0,0,1.022.433H43.29c-.086.5.26,1.92-.318,2.109-1.732.392-6.477-.473-7.833.129-1.079.479-.464,2.034.481,2.034ZM26.782,17.295c-.278-1.059-2.207-1.984-3.22-2.118-7.457-.985-8.4,9.935-1.733,10.665,1.83.2,4.183-.317,4.952-2.136-.673.221-1.421-.552-1.859-.588-.415-.035-.883.445-1.388.542-4.323.83-5.6-4.836-2.051-6.128,1.983-.721,3.027.576,3.42.512.315-.051,1.238-.944,1.879-.749m38.063,0H60.573V32.443h4.272ZM4.015,21.327c.814-.815-.318-2.615-1.5-1.6-1.138.982.559,2.536,1.5,1.6m18.446-1.866a1.066,1.066,0,0,0,.321,2.106c1.549-.143.973-2.356-.321-2.106M46.008,36.716h-9.03a5.836,5.836,0,0,1-1.736-1.177c-1.032-1.369-.408-3.135-.51-3.272-.134-.181-2.006-.778-2.029-1.768l-2.022,2.015c1.586,1.767,3.485,3.884,3.676,6.338l10.941.009ZM17.026,40.747c1.146-1.148-1.114-2.728-1.8-1.313-.634,1.305,1.073,2.043,1.8,1.313m28.4.241H34.551c.036.74-.254,1.931.717,2.089,2.832-.132,6.13.336,8.907.058,1.325-.133,1.288-.975,1.251-2.147M7.112,43.356c-1.05.315-.492,2.326.644,2.02a1.064,1.064,0,1,0-.644-2.02m27.681,2.339c-.725.722.007,1.78,1.017,1.9,2.631.311,5.845-.234,8.544-.009,1.108-.394,1.465-1.677.2-2.127-1.4.19-9.153-.364-9.756.236M40.959,62.35l5.2-7.312-2.386-5.118-.387-.2-7.093.1-2.524,5.234,5.05,7.1V58.077c0-.1-1.056-.407-1.522-1.1-2.431-3.607,2.818-7.109,5.211-3.851,1.5,2.038.442,4.134-1.552,5.242Zm-1.215-8.322a1.066,1.066,0,0,0,.321,2.106c1.549-.143.973-2.356-.321-2.106" transform="translate(0 0)" fill="#fff"/>
            <rect id="Rectángulo_454959" data-name="Rectángulo 454959" width="15.147" height="2.136" transform="translate(51.834 45.454)" fill="#fff"/>
            <rect id="Rectángulo_454960" data-name="Rectángulo 454960" width="15.147" height="2.136" transform="translate(51.834 49.727)" fill="#fff"/>
            <rect id="Rectángulo_454961" data-name="Rectángulo 454961" width="15.147" height="2.136" transform="translate(51.834 53.999)" fill="#fff"/>
            <rect id="Rectángulo_454962" data-name="Rectángulo 454962" width="2.138" height="2.332" transform="translate(54.314 58.271)" fill="#fff"/>
            <rect id="Rectángulo_454963" data-name="Rectángulo 454963" width="2.138" height="2.332" transform="translate(57.652 58.271)" fill="#fff"/>
            <rect id="Rectángulo_454964" data-name="Rectángulo 454964" width="2.138" height="2.332" transform="translate(61.104 58.271)" fill="#fff"/>
          </g>
        </g>
      </g>
      <g id="Grupo_1203824" data-name="Grupo 1203824" transform="translate(774.271 6279.187)">
        <path id="Trazado_1260777" data-name="Trazado 1260777" d="M27.295,16.363H22.672L21.793,19h-2.8L23.753,6.2H26.2L30.986,19h-2.8Zm-3.911-2.136h3.2l-1.608-4.79Zm12.586,2.9a1.666,1.666,0,0,0,1.143-.387,1.355,1.355,0,0,0,.457-1.028h2.382a3.258,3.258,0,0,1-.527,1.771A3.48,3.48,0,0,1,38,18.732a4.442,4.442,0,0,1-1.991.444,4.129,4.129,0,0,1-3.217-1.3A5.13,5.13,0,0,1,31.619,14.3v-.167a5.071,5.071,0,0,1,1.169-3.507A4.08,4.08,0,0,1,36,9.314a4,4,0,0,1,2.861,1.015,3.594,3.594,0,0,1,1.094,2.7H37.569a1.745,1.745,0,0,0-.457-1.206,1.7,1.7,0,0,0-2.5.183,3.749,3.749,0,0,0-.453,2.1v.264a3.8,3.8,0,0,0,.448,2.113A1.549,1.549,0,0,0,35.969,17.128Zm8.473-9.976V9.49h1.626v1.863H44.442V16.1a1.133,1.133,0,0,0,.2.756,1.015,1.015,0,0,0,.773.229,4.051,4.051,0,0,0,.747-.062v1.925a5.229,5.229,0,0,1-1.538.229,2.425,2.425,0,0,1-2.725-2.7V11.354H40.513V9.49H41.9V7.152Zm8.736,10.881a3.185,3.185,0,0,1-2.6,1.143,3,3,0,0,1-2.333-.879,3.752,3.752,0,0,1-.822-2.575V9.49h2.54v6.151q0,1.487,1.354,1.487a1.834,1.834,0,0,0,1.775-.9V9.49h2.549V19H53.249ZM63.066,19a2.821,2.821,0,0,1-.255-.853,3.073,3.073,0,0,1-2.4,1.028,3.376,3.376,0,0,1-2.316-.809,2.6,2.6,0,0,1-.918-2.039,2.687,2.687,0,0,1,1.121-2.32,5.529,5.529,0,0,1,3.239-.817h1.169v-.545a1.567,1.567,0,0,0-.338-1.055,1.331,1.331,0,0,0-1.068-.4,1.513,1.513,0,0,0-1.006.308,1.045,1.045,0,0,0-.365.844h-2.54a2.551,2.551,0,0,1,.51-1.529,3.37,3.37,0,0,1,1.441-1.1,5.253,5.253,0,0,1,2.092-.4,4.15,4.15,0,0,1,2.791.883,3.09,3.09,0,0,1,1.033,2.483V16.8a4.546,4.546,0,0,0,.378,2.048V19Zm-2.1-1.767A2.188,2.188,0,0,0,62,16.983a1.645,1.645,0,0,0,.7-.672V14.676h-.949q-1.907,0-2.03,1.318l-.009.149a1.017,1.017,0,0,0,.334.782A1.3,1.3,0,0,0,60.966,17.233ZM72.55,11.872a6.9,6.9,0,0,0-.914-.07,1.86,1.86,0,0,0-1.89.976V19h-2.54V9.49h2.4l.07,1.134a2.354,2.354,0,0,1,2.118-1.31,2.662,2.662,0,0,1,.791.114Z" transform="translate(0 67.386)" fill="#12263f"/>
        <g id="Grupo_1203821" data-name="Grupo 1203821" transform="translate(14.459)">
          <g id="Grupo_1203820" data-name="Grupo 1203820" clip-path="url(#clip-path-9)">
            <path id="Trazado_1257609" data-name="Trazado 1257609" d="M17.406,2.833c.269,1.256-.11,2.579,1.382,3.076l13.76.89.249-.268.051-1.261,3.921-1.235c.711.044,2.98,3.379,4,3.495a1.618,1.618,0,0,0,1.065-.177c.806-.462,2.32-2.5,3.051-3.249.463-.29,3.551.894,4.211,1.212.458.975.284,4.226.859,4.91a11.092,11.092,0,0,0,1.131.709c1.055.129,3.443-.979,4.694-.77a27.111,27.111,0,0,1,2.191,2.886.791.791,0,0,1,.126.759c-.41,1.638-3.025,3.584-1.552,5.431l4.219,1.941c-.057,1.227.178,2.723.04,3.915-.038.323-.018.373-.29.584-1.453,1.124-5.13,1.165-4.3,3.816.27.866,1.933,3.038,1.964,3.646.038.721-1.612,2.079-1.747,2.786-.272,1.424.133,3.114.178,4.534.059,1.858,0,3.718.16,5.573l2.906.976,1.115,3.081c-.028.531-2.057,2.418-2.229,3.175-.262,1.15.709,2.871.746,4.079l-2.034,2.417-3.862-.475-3.35,2.756-2.9-.6-.806-1.5L8.992,61.994A6.124,6.124,0,0,1,6.6,50.261l10.213-3.225.1-.356c-2.51-1.381-3.241-4.279-2.622-7-3.98,1.433-8.17,4.851-12.22,1.645A6.532,6.532,0,0,1,0,37.982C-.04,31.314.881,24.6,1.351,17.929L.128,14.781c.572-1.127,1.359-1.21,1.241-2.64C1.282,11.085.093,10.575.167,9.748A30.414,30.414,0,0,1,1.617,6.293c.355-.309,1.436-.118,2.054-.394,1.416-.632,1.062-1.837,1.4-3.055L8.692,1.306c2.124,1.617,2.879,1.813,4.956-.052ZM15.476,4.239a5.473,5.473,0,0,0-1.449-.548c-.561.008-.89.7-1.431.82A10.931,10.931,0,0,1,9.58,4.453c-.474-.191-.617-.861-1.408-.714-1.934.359-1.043,1.209-1.486,2.2A24.089,24.089,0,0,1,4.946,7.7c-.625.378-1.681.185-2,.621a8.609,8.609,0,0,0-.5,1.353c.052.367.857.943.976,1.466a6.951,6.951,0,0,1-.16,2.914c-.235.455-.923.673-.779,1.335A11.4,11.4,0,0,0,3.1,16.7c.281.185,1.128.014,1.742.356a22.922,22.922,0,0,1,1.772,1.724c.379.663-.114,1.388.445,1.827,1.591,1.249,1.832-.148,2.788-.324a13.169,13.169,0,0,1,3.048.082c.377.173.575.861,1.272.753a11.048,11.048,0,0,0,1.318-.531c.183-.245.121-1.3.3-1.706a24.144,24.144,0,0,1,1.739-1.758c.6-.365,1.249-.233,1.859-.452l.628-1.555a4.306,4.306,0,0,1-.993-4.015c.094-.49,1.017-1.166.971-1.5l-.654-1.538c-1.163.238-2.947-1.113-3.477-2.03-.288-.5-.161-1.5-.38-1.8M47.292,6.861a4.623,4.623,0,0,0-1.6-.526c-.523.1-2.167,2.679-2.908,3.016a9.829,9.829,0,0,1-3.59-.075c-.675-.388-2.359-2.755-2.7-2.9a2.4,2.4,0,0,0-1.711.564c-.525,1.173-.015,3.638-1,4.6a18,18,0,0,1-2.306,1.542c-1.007.15-3.392-.959-4.306-.639l-.918,1.185c.341,1.2,2.164,3.236,1.954,4.385a18.24,18.24,0,0,1-.982,2.7c-.478.5-3.162,1.183-3.669,1.75a2.3,2.3,0,0,0,0,1.927l3.754,1.84c.259.754,1.1,2.642.9,3.32a38.706,38.706,0,0,0-1.965,3.579,5.891,5.891,0,0,0,.932,1.29l4.325-.677,2.68,1.79.67,4.524c.521.076,1.143.472,1.64.245.639-.291,2.577-2.924,2.923-3.03a10.014,10.014,0,0,1,3.3.133c.757.436,2.184,2.58,2.881,2.9.5.227,1.119-.169,1.64-.245l.666-4.528c1.031-.488,1.984-1.855,3.167-1.772s2.6.664,3.837.694l.907-1.231c.165-.572-2.164-3.289-1.972-4.413a14.774,14.774,0,0,1,1.005-2.677l3.826-1.854c0-.57.247-1.491-.252-1.877-.731-.566-3.123-1.227-3.561-1.683a18.3,18.3,0,0,1-.982-2.7c-.244-1.337,2.126-3.568,1.82-4.6a8.331,8.331,0,0,0-.669-.912c-.811-.455-3.483.719-4.422.577a8.1,8.1,0,0,1-2.732-2.165c-.3-.865-.271-3.619-.579-4.054M32.473,8.744,21.636,8.219c-.151.138.725,1.358.654,1.806s-1.084,1.191-1.258,1.7c-.53,1.543.776,1.944,1.264,3.195l-1.4,3.571c-2.6.355-3.517.654-3.477,3.516L13.783,23.52c-.723.144-1.415-1.873-3.327-1.221-.465.158-1.308,1.22-1.669,1.24a35.652,35.652,0,0,1-3.54-1.454c-.613-.406-.225-1.575-.482-2.152-.1-.233-1.232-1.312-1.482-1.051L2.232,31.642c.67-.183,1.2-.608,1.886-.822,4.826-1.5,8.943,2.856,7.729,7.64.245.272,5.873-2.506,6.808-2.718,7.414-1.679,11.169,8.742,3.25,11.816-3,1.167-6.463,1.916-9.534,2.966-.239.268.919.968,1.14,1.219a6.513,6.513,0,0,1,1.442,5.645,23.625,23.625,0,0,1-1.007,2.225l31.64-1.574c-.081-.245-.65-.518-.875-.609-.94-.378-2.133-.5-3.1-.828a24.474,24.474,0,0,1-1.022-2.93c-.1-.786,1.982-2.463,2.168-3.273.317-1.381-1-3.3-.53-4.376a26.322,26.322,0,0,1,1.789-2.056c.882-.435,2.989.565,4.207.184.841-.263,1.979-2.265,2.92-2.5.78-.2,2.513.482,3.362.66l-.172-5.944c-1.457.148-3.321-1.2-4.383.251a3.771,3.771,0,0,0-.309,1.264c-.182.946-.147,2.674-.408,3.438-.188.553-3.381,1.157-4.055,1.48-1.578-.921-2.952-4.516-5.1-3.3-.629.357-2.594,3.308-3.278,3.3l-3.884-1.361c-.512-1.593.115-4.756-1.668-5.514-.622-.265-4.02.814-4.938.8-.541-.98-1.771-2.1-2.233-3.057-.109-.225-.245-.4-.131-.667.309-.767,2.23-3.554,2.155-4.164-.009-.072-.315-.959-.357-1.032-.439-.757-3.567-1.585-4.364-2.278l-.092-4.255c.064-.265,4.037-1.659,4.389-2.159a9.06,9.06,0,0,0,.443-1.367l-2.191-4.2A23.069,23.069,0,0,1,26.1,10.32a.775.775,0,0,1,.686-.185c.964.03,3.651.941,4.318.791a2.168,2.168,0,0,0,1.374-2.182M4.808,33.083a3.827,3.827,0,1,0,3.451,6.6,3.84,3.84,0,0,0-3.451-6.6m14.864,4.548c-6.225.767-3.311,10.688,2.5,7.569,3.863-2.074,1.8-8.1-2.5-7.569m38.459,11.01c-.274-.23-2.333-.524-3.019-.914A7.263,7.263,0,0,1,54,46.743c-.624-.949-.56-3.021-2.071-3-.494.008-1.9,2.21-3.536,2.5-1.069.191-2.824-.4-3.382-.248-1.344.375-.237,2.415-.138,3.226a4.544,4.544,0,0,1-.358,2.411c-.546,1.009-2.259,1.854-1.388,3.139.214.316,2.535.673,3.248,1.165A6.718,6.718,0,0,1,47.4,57.007c.3.48.811,2.354,1.018,2.565a2.772,2.772,0,0,0,.772.206c.987.047,1.649-1.4,2.42-1.914,1.9-1.28,3.291.034,4.686-.385,1.489-.448.161-2.506.117-3.556a5.565,5.565,0,0,1,.227-1.519c.287-.832,1.736-2.044,1.85-2.53a2.929,2.929,0,0,0-.363-1.234m-50,3.323c-4.845.825-3.751,8.617,1.342,7.985,5.272-.654,4.459-8.972-1.342-7.985" transform="translate(0 -1.035)" fill="#12263f"/>
            <path id="Trazado_1257610" data-name="Trazado 1257610" d="M315.662.178c4.2-.552,4.773,5.635.808,6.064-3.926.424-4.6-5.566-.808-6.064m1.222,2.271c-.962-.962-2.567.718-1.28,1.542,1.193.763,1.973-.848,1.28-1.542" transform="translate(-258.404 -0.118)" fill="#12263f"/>
            <path id="Trazado_1257611" data-name="Trazado 1257611" d="M140.264.055c2.734-.56,3.3,3.277,1.281,3.9a2.057,2.057,0,1,1-1.281-3.9" transform="translate(-114.48 0)" fill="#12263f"/>
            <path id="Trazado_1257612" data-name="Trazado 1257612" d="M182.681,69.828c14.925-1.873,15.563,20.712,1.17,20.241-12.317-.4-12.889-18.77-1.17-20.241m1.411,1.919c-10.13.247-10.486,15.342-.754,16.214,11.664,1.044,11.831-16.484.754-16.214" transform="translate(-143.78 -57.53)" fill="#12263f"/>
            <path id="Trazado_1257613" data-name="Trazado 1257613" d="M35.328,36.257c4.658-4.548,11.869,2.059,7.722,7.11-4.6,5.6-12.917-2.038-7.722-7.11m6,6c2.971-3.172-2.013-7.542-4.752-4.315-2.769,3.261,2.067,7.182,4.752,4.315" transform="translate(-27.79 -28.662)" fill="#12263f"/>
            <path id="Trazado_1257614" data-name="Trazado 1257614" d="M265.975,261.479c6.651-.077,6.778,10.091.117,10.179s-6.85-10.1-.117-10.179m-2.154,7.214c2.444,2.611,6.717-.74,4.738-3.777-2.44-3.745-7.7.611-4.738,3.777" transform="translate(-215.378 -215.769)" fill="#12263f"/>
            <path id="Trazado_1257615" data-name="Trazado 1257615" d="M104.219,224.268a2.042,2.042,0,0,1,2.651-3.088c2.314,1.622-.571,5.167-2.651,3.088" transform="translate(-85.495 -182.181)" fill="#12263f"/>
            <path id="Trazado_1257616" data-name="Trazado 1257616" d="M40.143,302.605a2.042,2.042,0,0,1,3.088,2.651c-1.664,2.373-5.133-.606-3.088-2.651" transform="translate(-32.608 -249.212)" fill="#12263f"/>
            <path id="Trazado_1257617" data-name="Trazado 1257617" d="M25.781,195.238c-1.978,2.073-5.047-1.408-2.651-3.088a2.044,2.044,0,0,1,2.651,3.088" transform="translate(-18.364 -158.22)" fill="#12263f"/>
            <path id="Trazado_1257618" data-name="Trazado 1257618" d="M202.22,92.9c7.574-1.2,9.983,9.793,2.81,11.9-8.307,2.441-10.96-10.614-2.81-11.9M200.4,96.071c-3.7,3.7,1.872,9.517,5.713,5.8,3.886-3.762-1.944-9.568-5.713-5.8" transform="translate(-162.798 -76.588)" fill="#12263f"/>
          </g>
        </g>
      </g>
    </g>
  </g>
</svg>
