<svg xmlns="http://www.w3.org/2000/svg" xmlns:xlink="http://www.w3.org/1999/xlink" width="396" height="421" viewBox="0 0 396 421">
  <defs>
    <clipPath id="clip-path">
      <rect id="Rectángulo_454946" data-name="Rectángulo 454946" width="372.505" height="374.258" fill="none"/>
    </clipPath>
    <clipPath id="clip-path-2">
      <rect id="Rectángulo_454957" data-name="Rectángulo 454957" width="50.211" height="50.47" fill="#12263f"/>
    </clipPath>
    <clipPath id="clip-path-3">
      <rect id="Rectángulo_454958" data-name="Rectángulo 454958" width="51.72" height="52.573" fill="#fff"/>
    </clipPath>
    <clipPath id="clip-path-4">
      <rect id="Rectángulo_454965" data-name="Rectángulo 454965" width="54.776" height="55.435" fill="#fff"/>
    </clipPath>
    <clipPath id="clip-path-5">
      <rect id="Rectángulo_454966" data-name="Rectángulo 454966" width="49.761" height="49.894" fill="#12263f"/>
    </clipPath>
    <clipPath id="clip-path-6">
      <circle id="Elipse_13677" data-name="Elipse 13677" cx="87.5" cy="87.5" r="87.5" transform="translate(-8715 -5657)" fill="#fff" stroke="#707070" stroke-width="1"/>
    </clipPath>
    <clipPath id="clip-path-7">
      <rect id="Rectángulo_454956" data-name="Rectángulo 454956" width="147.099" height="210.758" fill="none"/>
    </clipPath>
    <clipPath id="clip-path-8">
      <rect id="Rectángulo_454968" data-name="Rectángulo 454968" width="396" height="421" transform="translate(-8831 -5820)" fill="#fff" stroke="#707070" stroke-width="1"/>
    </clipPath>
    <clipPath id="clip-path-9">
      <rect id="Rectángulo_454554" data-name="Rectángulo 454554" width="88.924" height="119.919" fill="#c1fbff"/>
    </clipPath>
    <clipPath id="clip-path-10">
      <rect id="Rectángulo_454553" data-name="Rectángulo 454553" width="81.46" height="204.252" fill="#5dd2e4"/>
    </clipPath>
  </defs>
  <g id="Grupo_1204981" data-name="Grupo 1204981" transform="translate(8831 5712)">
    <g id="Grupo_1204843" data-name="Grupo 1204843">
      <rect id="Rectángulo_454967" data-name="Rectángulo 454967" width="396" height="421" transform="translate(-8831 -5712)" fill="#effeff"/>
      <g id="Grupo_1203826" data-name="Grupo 1203826" transform="translate(-8819.252 -5695.412)">
        <g id="Grupo_1203807" data-name="Grupo 1203807" transform="translate(0)">
          <g id="Grupo_1203806" data-name="Grupo 1203806" clip-path="url(#clip-path)">
            <path id="Trazado_1257558" data-name="Trazado 1257558" d="M244.558,1.421,278.276,46.97l-34.31,48.506s78.675,11.24,76.9,100.562l44.957,33.718,47.324-34.31S425.569,33.364,244.558,1.421" transform="translate(-41.523 -0.242)" fill="#0d5365"/>
            <path id="Trazado_1257559" data-name="Trazado 1257559" d="M402.014,245.292,356.381,279.35l-48.421-34.889s-11.435,79.7-100.754,77.683l-33.829,45.479,34.191,48.043s162.05,12.986,194.445-170.375" transform="translate(-29.509 -41.607)" fill="#302c9e"/>
            <path id="Trazado_1257560" data-name="Trazado 1257560" d="M171.262,403.135,137.178,357.86,171.1,309.079s-78.763-10.607-77.707-99.94L48.162,175.784,1.117,210.473S-10,372.649,171.262,403.135" transform="translate(-0.167 -29.918)" fill="#ebcc30"/>
            <path id="Trazado_1257561" data-name="Trazado 1257561" d="M0,172.081l45.357-34.424,48.7,34.5S104.85,92.363,194.182,93.663l33.463-45.749L193.067.148S30.918-11.535,0,172.081" transform="translate(0 0)" fill="#5dd2e4"/>
          </g>
        </g>
      </g>
      <path id="Trazado_1260782" data-name="Trazado 1260782" d="M4.912,12.992V17H2.568V5.625H7.006a5.134,5.134,0,0,1,2.254.469,3.454,3.454,0,0,1,1.5,1.332,3.714,3.714,0,0,1,.523,1.965,3.266,3.266,0,0,1-1.145,2.637,4.767,4.767,0,0,1-3.168.965Zm0-1.9H7.006a2.059,2.059,0,0,0,1.418-.437,1.591,1.591,0,0,0,.488-1.25A1.876,1.876,0,0,0,8.42,8.055a1.839,1.839,0,0,0-1.359-.531H4.912ZM15.123,17H12.857V5h2.266Zm6.758,0a2.507,2.507,0,0,1-.227-.758,2.732,2.732,0,0,1-2.133.914,3,3,0,0,1-2.059-.719,2.312,2.312,0,0,1-.816-1.812,2.389,2.389,0,0,1,1-2.062,4.915,4.915,0,0,1,2.879-.727h1.039v-.484a1.393,1.393,0,0,0-.3-.937,1.183,1.183,0,0,0-.949-.352,1.345,1.345,0,0,0-.895.273.929.929,0,0,0-.324.75H16.834a2.268,2.268,0,0,1,.453-1.359,3,3,0,0,1,1.281-.98,4.669,4.669,0,0,1,1.859-.355,3.689,3.689,0,0,1,2.48.785,2.747,2.747,0,0,1,.918,2.207v3.664a4.041,4.041,0,0,0,.336,1.82V17Zm-1.867-1.57a1.945,1.945,0,0,0,.922-.223,1.462,1.462,0,0,0,.625-.6V13.156h-.844q-1.7,0-1.8,1.172l-.008.133a.9.9,0,0,0,.3.7A1.153,1.153,0,0,0,20.014,15.43Zm7.625-6.883.07.977a2.951,2.951,0,0,1,2.43-1.133,2.453,2.453,0,0,1,2,.789,3.682,3.682,0,0,1,.672,2.359V17H30.553V11.594a1.465,1.465,0,0,0-.312-1.043,1.4,1.4,0,0,0-1.039-.324,1.553,1.553,0,0,0-1.43.813V17H25.514V8.547Zm10.773,8.609a4.15,4.15,0,0,1-3.027-1.141,4.054,4.054,0,0,1-1.168-3.039v-.219a5.106,5.106,0,0,1,.492-2.277A3.612,3.612,0,0,1,36.1,8.934a3.914,3.914,0,0,1,2.059-.543,3.508,3.508,0,0,1,2.73,1.094,4.444,4.444,0,0,1,1,3.1v.922H36.506a2.1,2.1,0,0,0,.66,1.328,2,2,0,0,0,1.395.5,2.437,2.437,0,0,0,2.039-.945l1.109,1.242a3.389,3.389,0,0,1-1.375,1.121A4.511,4.511,0,0,1,38.412,17.156Zm-.258-6.945a1.411,1.411,0,0,0-1.09.455,2.357,2.357,0,0,0-.535,1.3H39.67v-.181a1.681,1.681,0,0,0-.406-1.165A1.456,1.456,0,0,0,38.154,10.211ZM48.068,17a2.507,2.507,0,0,1-.227-.758,2.732,2.732,0,0,1-2.133.914,3,3,0,0,1-2.059-.719,2.312,2.312,0,0,1-.816-1.812,2.389,2.389,0,0,1,1-2.062,4.915,4.915,0,0,1,2.879-.727h1.039v-.484a1.393,1.393,0,0,0-.3-.937,1.183,1.183,0,0,0-.949-.352,1.345,1.345,0,0,0-.895.273.929.929,0,0,0-.324.75H43.021a2.268,2.268,0,0,1,.453-1.359,3,3,0,0,1,1.281-.98,4.669,4.669,0,0,1,1.859-.355,3.689,3.689,0,0,1,2.48.785,2.747,2.747,0,0,1,.918,2.207v3.664a4.041,4.041,0,0,0,.336,1.82V17ZM46.2,15.43a1.945,1.945,0,0,0,.922-.223,1.462,1.462,0,0,0,.625-.6V13.156H46.9q-1.7,0-1.8,1.172l-.008.133a.9.9,0,0,0,.3.7A1.153,1.153,0,0,0,46.2,15.43Zm10.3-4.766a6.134,6.134,0,0,0-.812-.062,1.654,1.654,0,0,0-1.68.867V17H51.748V8.547h2.133l.063,1.008a2.092,2.092,0,0,1,1.883-1.164,2.366,2.366,0,0,1,.7.1Z" transform="translate(-8732.738 -5610.381)" fill="#12263f"/>
      <g id="Grupo_1203829" data-name="Grupo 1203829" transform="translate(-8728.566 -5665.021)">
        <g id="Grupo_1203815" data-name="Grupo 1203815" transform="translate(0)" clip-path="url(#clip-path-2)">
          <path id="Trazado_1257591" data-name="Trazado 1257591" d="M3.941,14.835c-4.265-.5-5.478-6.392-1.563-8.329,1.364-.675,2.214-.3,3.588-.587.127-1.379-.123-2.227.515-3.516A4.389,4.389,0,0,1,10.413,0l33.2.071a4.47,4.47,0,0,1,3.528,3.238c.479,9.728.071,19.543.211,29.3a10.471,10.471,0,0,1-6.836,17.645c-9.844.676-20.456-.516-30.38-.008a4.578,4.578,0,0,1-4.071-3.559c-.079-.5.091-2.241-.169-2.422-1.762-.07-3.172.093-4.55-1.208-2.7-2.547-.873-7.637,2.6-7.637H6.028v-5.9H3.509c-.055,0-.891-.337-1.034-.405a4.447,4.447,0,0,1,0-7.971c.143-.068.979-.406,1.034-.406H6.028v-5.9c-.667-.056-1.435.077-2.087,0M44.323,30.527V4.109c0-.753-1.275-1.269-1.938-1.229H10.846C8.5,3.082,8.9,4.4,8.924,6.325c3.867,1.246,3.842,6.9.007,8.244L8.9,20.929a4.48,4.48,0,0,1,0,8.4v6.286A4.474,4.474,0,0,1,8.9,44c.057.872-.211,2.315.55,2.939a3.882,3.882,0,0,0,.971.429H32.662l-1.268-1.683c-5.761-8.739,3.392-19.533,12.929-15.161M3.343,11.474a1.284,1.284,0,0,0,.736.344,23.8,23.8,0,0,0,3.862-.037c1.342-.3,1.3-2.528-.291-2.815A16.748,16.748,0,0,0,4,8.995a1.518,1.518,0,0,0-.66,2.479m.92,12.178a1.485,1.485,0,0,0-.639,2.73,11.056,11.056,0,0,0,3.907.249,1.491,1.491,0,0,0,.331-2.9,13.831,13.831,0,0,0-3.6-.076m30.465,21.51C41.854,52.288,52.4,40.756,44.613,34.2c-7.092-5.971-16.5,4.352-9.885,10.965M3.343,38.783A1.518,1.518,0,0,0,4,41.262a16.748,16.748,0,0,0,3.647.028c1.591-.287,1.634-2.514.291-2.815a23.8,23.8,0,0,0-3.862-.037,1.284,1.284,0,0,0-.736.344" transform="translate(0)" fill="#12263f"/>
          <path id="Trazado_1257592" data-name="Trazado 1257592" d="M110.293,62.128a1.487,1.487,0,0,1,1.452,2.326,66.866,66.866,0,0,1-5.806,5.855,1.644,1.644,0,0,1-2.446.136,25.674,25.674,0,0,1-3.61-3.877,1.493,1.493,0,0,1,1.875-1.874c.579.114,1.96,2.03,2.588,2.452.145.1.209.173.409.12.608-.16,3.983-4.224,4.846-4.813a1.426,1.426,0,0,1,.692-.326" transform="translate(-85.439 -53.168)" fill="#12263f"/>
          <path id="Trazado_1257593" data-name="Trazado 1257593" d="M105.121,149.058c1.7-1.44,3.15-3.138,4.791-4.641,1.79-.583,2.825.939,1.634,2.5a53.27,53.27,0,0,1-5.465,5.476c-.688.542-1.3.961-2.155.424-.341-.214-3.6-3.472-3.815-3.815a1.485,1.485,0,0,1,1.164-2.251c1.207-.071,2.542,1.995,3.441,2.686l.136,0c.105-.026.169-.3.268-.38" transform="translate(-85.51 -123.517)" fill="#12263f"/>
          <path id="Trazado_1257594" data-name="Trazado 1257594" d="M111.808,226.21a1.491,1.491,0,0,1,.194,1.9l-6.647,6.455a1.438,1.438,0,0,1-1.345-.193,47.226,47.226,0,0,1-3.6-3.594,1.5,1.5,0,0,1,1.288-2.451c.982.1,2.373,2.121,3.181,2.73l5.172-5.047a1.646,1.646,0,0,1,1.761.2" transform="translate(-85.674 -193.33)" fill="#12263f"/>
          <path id="Trazado_1257595" data-name="Trazado 1257595" d="M207.049,163.319c2.786.237,6.494-.438,9.17-.025a1.515,1.515,0,0,1,0,3c-2.652.41-6.288-.276-9.047,0a1.5,1.5,0,0,1-.123-2.976" transform="translate(-176.152 -139.668)" fill="#12263f"/>
          <path id="Trazado_1257596" data-name="Trazado 1257596" d="M207.172,81.223a56.277,56.277,0,0,1,8.731-.018c2.2.28,2.075,2.744.291,2.994-2.765.388-6.339-.255-9.192,0a1.5,1.5,0,0,1,.17-2.981" transform="translate(-176.131 -69.377)" fill="#12263f"/>
          <path id="Trazado_1257597" data-name="Trazado 1257597" d="M269.4,249.072c.843.081,1.884-.283,2.526.425a1.509,1.509,0,0,1-.878,2.445,15.4,15.4,0,0,1-3.745-.125c-1.223-.478-1.036-3-.931-4.119.108-1.152.92-1.987,2.1-1.516,1.109.441.945,1.918.925,2.89" transform="translate(-227.962 -210.626)" fill="#12263f"/>
        </g>
      </g>
      <g id="Grupo_1203827" data-name="Grupo 1203827" transform="translate(-8585.922 -5432.968)">
        <path id="Trazado_1260780" data-name="Trazado 1260780" d="M8.128,14.18l2.578-8.555h2.609L9.355,17H6.909L2.964,5.625h2.6Zm10,2.977A4.15,4.15,0,0,1,15.1,16.016a4.054,4.054,0,0,1-1.168-3.039v-.219a5.106,5.106,0,0,1,.492-2.277,3.612,3.612,0,0,1,1.395-1.547,3.914,3.914,0,0,1,2.059-.543,3.508,3.508,0,0,1,2.73,1.094,4.444,4.444,0,0,1,1,3.1v.922H16.222a2.1,2.1,0,0,0,.66,1.328,2,2,0,0,0,1.395.5,2.437,2.437,0,0,0,2.039-.945l1.109,1.242a3.389,3.389,0,0,1-1.375,1.121A4.511,4.511,0,0,1,18.128,17.156Zm-.258-6.945a1.411,1.411,0,0,0-1.09.455,2.357,2.357,0,0,0-.535,1.3h3.141v-.181a1.681,1.681,0,0,0-.406-1.165A1.456,1.456,0,0,0,17.87,10.211Zm9.766.453a6.134,6.134,0,0,0-.812-.062,1.654,1.654,0,0,0-1.68.867V17H22.886V8.547h2.133l.063,1.008a2.092,2.092,0,0,1,1.883-1.164,2.366,2.366,0,0,1,.7.1ZM31.1,17H28.839V8.547H31.1Zm-2.4-10.641a1.112,1.112,0,0,1,.34-.836,1.465,1.465,0,0,1,1.848,0,1.105,1.105,0,0,1,.344.836,1.108,1.108,0,0,1-.348.844,1.448,1.448,0,0,1-1.836,0A1.108,1.108,0,0,1,28.706,6.359ZM33.511,17V10.2H32.253V8.547h1.258V8.156a3.17,3.17,0,0,1,.98-2.457,3.945,3.945,0,0,1,2.723-.863,9.031,9.031,0,0,1,2.563.461l-.328,1.867a10,10,0,0,0-1.187-.293,5.835,5.835,0,0,0-.906-.066q-1.578,0-1.578,1.4v.344h1.664V10.2H35.777V17Zm7.32,0H38.566V8.547h2.266Zm5.383-1.664a1.481,1.481,0,0,0,1.016-.344,1.2,1.2,0,0,0,.406-.914h2.117a2.9,2.9,0,0,1-.469,1.574,3.093,3.093,0,0,1-1.262,1.109,3.949,3.949,0,0,1-1.77.395A3.67,3.67,0,0,1,43.394,16a4.56,4.56,0,0,1-1.047-3.184v-.148a4.508,4.508,0,0,1,1.039-3.117,3.627,3.627,0,0,1,2.852-1.164,3.555,3.555,0,0,1,2.543.9,3.2,3.2,0,0,1,.973,2.4H47.636a1.551,1.551,0,0,0-.406-1.072,1.51,1.51,0,0,0-2.223.163,3.333,3.333,0,0,0-.4,1.866v.235a3.375,3.375,0,0,0,.4,1.878A1.377,1.377,0,0,0,46.214,15.336ZM55.941,17a2.507,2.507,0,0,1-.227-.758,2.732,2.732,0,0,1-2.133.914,3,3,0,0,1-2.059-.719,2.312,2.312,0,0,1-.816-1.812,2.389,2.389,0,0,1,1-2.062,4.915,4.915,0,0,1,2.879-.727H55.62v-.484a1.393,1.393,0,0,0-.3-.937,1.183,1.183,0,0,0-.949-.352,1.345,1.345,0,0,0-.895.273.929.929,0,0,0-.324.75H50.894a2.268,2.268,0,0,1,.453-1.359,3,3,0,0,1,1.281-.98,4.669,4.669,0,0,1,1.859-.355,3.689,3.689,0,0,1,2.48.785,2.747,2.747,0,0,1,.918,2.207v3.664a4.041,4.041,0,0,0,.336,1.82V17Zm-1.867-1.57A1.945,1.945,0,0,0,55,15.207a1.462,1.462,0,0,0,.625-.6V13.156h-.844q-1.7,0-1.8,1.172l-.008.133a.9.9,0,0,0,.3.7A1.153,1.153,0,0,0,54.073,15.43Z" transform="translate(0 56.743)" fill="#fff"/>
        <g id="Grupo_1203817" data-name="Grupo 1203817" transform="translate(0)">
          <g id="Grupo_1203816" data-name="Grupo 1203816" clip-path="url(#clip-path-3)">
            <path id="Trazado_1257598" data-name="Trazado 1257598" d="M127.934,243.155c1-1.016,5.138-2.87,4.916-.426-.1,1.044-.947.7-1.554.859-5.614,1.449-1.843,9.27,2.583,6.188.958-.667,1.329-2.652,2.6-1.987,1.719.9-1,3.53-2.039,4.051-5.674,2.847-10.763-4.361-6.507-8.685" transform="translate(-107.379 -205.249)" fill="#fff"/>
            <path id="Trazado_1257599" data-name="Trazado 1257599" d="M155.189,250.452c.666-.579,1.965.783,1.208,1.512-1.432,1.38-1.165,1.2-3.964,4a1.2,1.2,0,0,1-1.105.092,25.547,25.547,0,0,1-1.877-1.877.979.979,0,0,1,.467-1.329c1.126-.585,1.5.791,1.912.72.824-.526,2.739-2.576,3.358-3.114" transform="translate(-126.919 -212.719)" fill="#fff"/>
            <path id="Trazado_1257600" data-name="Trazado 1257600" d="M121.48,133.909a1.05,1.05,0,0,1,1.316,1.471l-5.817,5.746a1.048,1.048,0,0,1-1.157-.119A31.174,31.174,0,0,1,113,138.122a1.023,1.023,0,0,1,.115-1.166c1.078-1.4,2.575,1.276,3.51,1.719.5-.087,4.142-4.55,4.859-4.766" transform="translate(-95.915 -113.748)" fill="#fff"/>
            <path id="Trazado_1257601" data-name="Trazado 1257601" d="M51.447,44.229c-.081-.88-.706-1.661-1.661-1.195a2.038,2.038,0,0,0-.449.6v6.608l-.225.225H14.87l-.225-.225V37.628c0-.15,1.158-.775.985-1.58-.059-.277-.541-.739-.47-.9l2.185-2.182C25.922,36.779,35.02,28.822,31.727,19.8a10.593,10.593,0,0,0-17.082-4.018V6.991c0-.112.365-.34.53-.372,1.031-.2,2.582.138,3.676,0-.246,2.116.7,4.038,2.945,4.339,6.5-.334,13.531.5,19.964.023A3.683,3.683,0,0,0,44.3,9.91c.978-1.092.507-1.992.826-3.229a26.658,26.658,0,0,1,3.546-.072c.528.069.7.271.678.824l-.012,27.5c.144,1.507,1.995,1.235,2.109-.15l0-27.493a2.72,2.72,0,0,0-1.471-2.434c-.124-.058-.959-.339-1.013-.339H39.725A3.731,3.731,0,0,0,36.2.152a61.683,61.683,0,0,0-8.716,0,4.065,4.065,0,0,0-3.378,4.357c-2.831.19-5.992-.259-8.784,0A2.694,2.694,0,0,0,12.549,6.94v5.239a32.907,32.907,0,0,1-.016,6.518c-.07.442-.509,1.183-.666,1.737A12.7,12.7,0,0,0,11.507,25c.119,1.073.714,2.073.864,3.136L10.215,30.32a1.373,1.373,0,0,0-1.662-.284C6.4,32.558,3.348,34.8,1.275,37.325a4.838,4.838,0,0,0,5.378,7.781c2.081-.8,4.02-3.98,5.889-5.3V50.394a2.814,2.814,0,0,0,2.327,2.178l34.507-.036a2.647,2.647,0,0,0,2-2.209,35.561,35.561,0,0,0,.074-6.1M20.952,6.615h4.581c1.359,0-.165-3.71,1.719-4.289C30.109,2.4,33.39,2,36.2,2.253c2.668.244.795,4.363,2.246,4.363H43.03c-.01.8.2,1.7-.639,2.14l-20.454.1c-1.222-.261-1-1.241-.985-2.244m-.031,8.455C32.273,13.854,33.7,30.917,22.677,31.844c-11.1.934-12.4-15.634-1.756-16.774M6.672,42.721A2.8,2.8,0,0,1,2.3,39.4l6.886-6.941,3.957,3.819Zm4.972-10.95c.337-.249,1.838-2.057,2.1-1.876a5.656,5.656,0,0,0,1.805,1.881L13.669,33.8Z" transform="translate(0 0)" fill="#fff"/>
            <path id="Trazado_1257602" data-name="Trazado 1257602" d="M233.72,113.229h-9.167a1.068,1.068,0,0,1,0-2.136h9.167a1.068,1.068,0,1,1,0,2.136" transform="translate(-189.921 -94.409)" fill="#fff"/>
            <path id="Trazado_1257603" data-name="Trazado 1257603" d="M229.655,138.71h-5.1a1.068,1.068,0,0,1,0-2.136h5.1a1.068,1.068,0,0,1,0,2.136" transform="translate(-189.921 -116.063)" fill="#fff"/>
            <path id="Trazado_1257604" data-name="Trazado 1257604" d="M193.507,29.673h-5.1a1.068,1.068,0,1,1,0-2.136h5.1a1.068,1.068,0,0,1,0,2.136" transform="translate(-159.202 -23.401)" fill="#fff"/>
            <path id="Trazado_1257605" data-name="Trazado 1257605" d="M233.72,251.9h-9.167a1.068,1.068,0,0,1,0-2.136h9.167a1.068,1.068,0,0,1,0,2.136" transform="translate(-189.921 -212.25)" fill="#fff"/>
            <path id="Trazado_1257606" data-name="Trazado 1257606" d="M229.655,277.377h-5.1a1.068,1.068,0,0,1,0-2.136h5.1a1.068,1.068,0,1,1,0,2.136" transform="translate(-189.921 -233.904)" fill="#fff"/>
            <path id="Trazado_1257607" data-name="Trazado 1257607" d="M328.259,249.406a1.424,1.424,0,1,1-1.424-1.424,1.424,1.424,0,0,1,1.424,1.424" transform="translate(-276.539 -210.739)" fill="#fff"/>
          </g>
        </g>
      </g>
      <g id="Grupo_1203828" data-name="Grupo 1203828" transform="translate(-8540.041 -5607.878)">
        <path id="Trazado_1260781" data-name="Trazado 1260781" d="M13.693,17H11.35V12.125H6.779V17H4.436V5.625H6.779v4.609h4.57V5.625h2.344Zm6.8,0a2.507,2.507,0,0,1-.227-.758,2.732,2.732,0,0,1-2.133.914,3,3,0,0,1-2.059-.719,2.312,2.312,0,0,1-.816-1.812,2.389,2.389,0,0,1,1-2.062,4.915,4.915,0,0,1,2.879-.727H20.17v-.484a1.393,1.393,0,0,0-.3-.937,1.183,1.183,0,0,0-.949-.352,1.345,1.345,0,0,0-.895.273.929.929,0,0,0-.324.75H15.443A2.268,2.268,0,0,1,15.9,9.727a3,3,0,0,1,1.281-.98,4.669,4.669,0,0,1,1.859-.355,3.689,3.689,0,0,1,2.48.785,2.747,2.747,0,0,1,.918,2.207v3.664a4.041,4.041,0,0,0,.336,1.82V17Zm-1.867-1.57a1.945,1.945,0,0,0,.922-.223,1.462,1.462,0,0,0,.625-.6V13.156h-.844q-1.7,0-1.8,1.172l-.008.133a.9.9,0,0,0,.3.7A1.153,1.153,0,0,0,18.623,15.43Zm9.063-.094a1.481,1.481,0,0,0,1.016-.344,1.2,1.2,0,0,0,.406-.914h2.117a2.9,2.9,0,0,1-.469,1.574,3.093,3.093,0,0,1-1.262,1.109,3.949,3.949,0,0,1-1.77.395A3.67,3.67,0,0,1,24.865,16a4.56,4.56,0,0,1-1.047-3.184v-.148a4.508,4.508,0,0,1,1.039-3.117,3.627,3.627,0,0,1,2.852-1.164,3.555,3.555,0,0,1,2.543.9,3.2,3.2,0,0,1,.973,2.4H29.108a1.551,1.551,0,0,0-.406-1.072,1.51,1.51,0,0,0-2.223.163,3.333,3.333,0,0,0-.4,1.866v.235a3.375,3.375,0,0,0,.4,1.878A1.377,1.377,0,0,0,27.686,15.336Zm8.719,1.82a4.15,4.15,0,0,1-3.027-1.141,4.054,4.054,0,0,1-1.168-3.039v-.219A5.106,5.106,0,0,1,32.7,10.48,3.612,3.612,0,0,1,34.1,8.934a3.914,3.914,0,0,1,2.059-.543,3.508,3.508,0,0,1,2.73,1.094,4.444,4.444,0,0,1,1,3.1v.922H34.5a2.1,2.1,0,0,0,.66,1.328,2,2,0,0,0,1.395.5,2.437,2.437,0,0,0,2.039-.945L39.7,15.633a3.389,3.389,0,0,1-1.375,1.121A4.511,4.511,0,0,1,36.4,17.156Zm-.258-6.945a1.411,1.411,0,0,0-1.09.455,2.357,2.357,0,0,0-.535,1.3h3.141v-.181a1.681,1.681,0,0,0-.406-1.165A1.456,1.456,0,0,0,36.147,10.211Zm9.766.453A6.134,6.134,0,0,0,45.1,10.6a1.654,1.654,0,0,0-1.68.867V17H41.162V8.547H43.3l.063,1.008A2.092,2.092,0,0,1,45.24,8.391a2.366,2.366,0,0,1,.7.1Z" transform="translate(5.839 56.269)" fill="#fff"/>
        <g id="Grupo_1203819" data-name="Grupo 1203819" transform="translate(0)">
          <g id="Grupo_1203818" data-name="Grupo 1203818" clip-path="url(#clip-path-4)">
            <path id="Trazado_1257608" data-name="Trazado 1257608" d="M7.133,8.9h3.1l1.928-1.88c1.816,1.2,3.729.484,3.875-1.765l5.141.125C27.963-2.93,41.488-1.266,46.181,8.367c.282.579.535,1.764.806,2.17.34.511,1.68,1.1,1.992,1.86h5.8V28.278H48.662c-.1,0-1.473.715-1.863.837a20.188,20.188,0,0,1-7.085.936c-1.136,1.534-.611,3.026-.833,4.645-.075.547-.559,1.161-.587,1.469s.491.984.564,1.442c.29,1.816-1.191,2.217-1.242,2.828-.058.7,2.338,4.134,2.164,4.84L32.545,55.435,25.579,45.314c-.188-.686,1.988-3.954,2.2-4.9-.831-.917-1.462-1.62-1.235-2.97.07-.416.593-1.156.573-1.28-.028-.18-.489-.684-.573-1.178-.145-.844.044-1.787-.055-2.645-.278-2.409-2.67-4.328-4.045-6.143C21.74,26.094,21,27.628,21.1,28.272l-4.978.017c-.286-1.078-.654-2.288-2-2.233V30.1c0,.127,1.376.671,1.672,1.822a2.659,2.659,0,0,1-4.758,2.217,2.786,2.786,0,0,1,1.314-4.064l.028-3.277L10.23,24.785h-3.1v9.052a2.973,2.973,0,0,1,.626.245,2.648,2.648,0,1,1-3.158,0,2.973,2.973,0,0,1,.626-.245v-10.8H8.642c1.6-1.628.409-3.6-1.647-3.832l-.02-1.568-1.8-.006a2.653,2.653,0,1,1,0-1.733l1.8-.006.076-1.433c1.357-.491,2.545-1.05,2.3-2.765-.031-.215-.406-1.044-.547-1.044H5.227V5.171A2.649,2.649,0,0,1,4.588.562,2.641,2.641,0,0,1,8.536,3.874c-.34.7-1.4,1.2-1.4,1.3ZM6.778,1.955c-.82-.827-2.083.7-1.168,1.4.985.763,1.874-.692,1.168-1.4m22.351,12.19h6.114l-2.756-.817c-1.754-.656-3.125-3.433-2.143-5.115,1.3-2.223,3.978-.477,5.852-.023,2.765.669,5.448.436,8.147,1.065.113.027.411.292.269-.11a15.082,15.082,0,0,0-3.823-4.6A13.282,13.282,0,0,0,22.066,7.084c.227.669,1.295.619,1.86.427.488-.166.694-.731,1.239-.364.258.173,3.08,2.988,3.18,3.19l.048.206c-1.056.984-.744,3.306.735,3.6m-4.923,0h2.3a4.352,4.352,0,0,1-.356-3.4l-1.506-1.5a4.268,4.268,0,0,1-5.079-2.249l-2.007.028a4.279,4.279,0,0,1-5.071,2.221l-1.471,1.414c.365,2.029-.09,4.091-2.112,4.941V17.85a4.3,4.3,0,0,1,2.061,5.073l1.5,1.506a4.024,4.024,0,0,1,4.2.9c.448.465.521,1.128,1.175,1.208a6.687,6.687,0,0,0,1.839-.087,13.106,13.106,0,0,1,.949-1.275,4.12,4.12,0,0,1,2.614-1.035c.4.008.925.282,1.285.251.467-.04,1.292-1.1,1.636-1.47a7.127,7.127,0,0,1,.184-3.541l-2.226.076c-2.981,6.12-12.277,3.635-11.755-3.18.486-6.34,9.061-7.715,11.837-2.138m11.2,10.64c-.07.413.213,1.57-.26,1.725-.948.216-4.134-.275-4.753.169a.884.884,0,0,0,.5,1.59c5.522-.31,11.518.977,16.671-1.413l.07-13.264c-.064-.337-.606-.807-.873-1.032-3.066-2.578-7.105-1.727-10.877-2.622C35.13,9.761,32.622,8.8,32.181,8.93a.7.7,0,0,0-.361.295c-.15.3.153,1.119.316,1.436,1.075,2.083,3.816.866,4.761,2.544A1.829,1.829,0,0,1,35.485,15.9h-13.5c-.991.185-1.051,1.809.152,1.746l13,.019c.473.155.19,1.312.26,1.725H29.129a.992.992,0,0,0-.677,1.551,7.889,7.889,0,0,0,.836.354H35.4c-.07.413.213,1.57-.26,1.725-1.416.32-5.3-.387-6.406.105-.883.392-.38,1.664.393,1.664ZM21.9,14.143c-.227-.866-1.8-1.623-2.633-1.732-6.1-.806-6.868,8.124-1.417,8.722,1.5.164,3.42-.259,4.05-1.747-.55.181-1.162-.451-1.521-.481-.339-.028-.722.364-1.135.443a2.646,2.646,0,0,1-1.677-5.011c1.622-.59,2.475.471,2.8.419.258-.042,1.012-.772,1.537-.613m31.127,0H49.536V26.532H53.03Zm-49.746,3.3c.666-.666-.26-2.138-1.226-1.305-.931.8.458,2.074,1.226,1.305m15.084-1.526a.871.871,0,0,0,.262,1.722c1.267-.117.8-1.927-.262-1.722M37.625,30.025H30.24a4.773,4.773,0,0,1-1.42-.962,3.843,3.843,0,0,1-.417-2.676c-.11-.148-1.641-.637-1.659-1.446L25.09,26.589c1.3,1.445,2.85,3.176,3.006,5.183l8.947.007Zm-23.7,3.3c.937-.939-.911-2.231-1.473-1.073-.519,1.068.877,1.671,1.473,1.073m23.225.2H28.255c.029.605-.208,1.579.587,1.708,2.316-.108,5.013.275,7.284.048,1.084-.108,1.053-.8,1.023-1.756M5.816,35.456c-.859.258-.4,1.9.527,1.652a.87.87,0,1,0-.527-1.652m22.637,1.913c-.593.59.006,1.456.832,1.553,2.152.254,4.78-.191,6.987-.007.906-.322,1.2-1.371.16-1.74-1.148.155-7.485-.3-7.978.193M33.5,50.988l4.255-5.98L35.8,40.823l-.317-.16-5.8.08-2.064,4.28,4.13,5.806V47.495c0-.078-.863-.333-1.245-.9-1.988-2.95,2.3-5.814,4.261-3.15,1.224,1.667.362,3.381-1.269,4.287ZM32.5,44.183a.871.871,0,0,0,.262,1.722c1.267-.117.8-1.927-.262-1.722" transform="translate(0 0)" fill="#fff"/>
            <rect id="Rectángulo_454959" data-name="Rectángulo 454959" width="12.387" height="1.747" transform="translate(42.389 37.172)" fill="#fff"/>
            <rect id="Rectángulo_454960" data-name="Rectángulo 454960" width="12.387" height="1.747" transform="translate(42.389 40.666)" fill="#fff"/>
            <rect id="Rectángulo_454961" data-name="Rectángulo 454961" width="12.387" height="1.747" transform="translate(42.389 44.159)" fill="#fff"/>
            <rect id="Rectángulo_454962" data-name="Rectángulo 454962" width="1.749" height="1.907" transform="translate(44.417 47.653)" fill="#fff"/>
            <rect id="Rectángulo_454963" data-name="Rectángulo 454963" width="1.749" height="1.907" transform="translate(47.147 47.653)" fill="#fff"/>
            <rect id="Rectángulo_454964" data-name="Rectángulo 454964" width="1.749" height="1.907" transform="translate(49.97 47.653)" fill="#fff"/>
          </g>
        </g>
      </g>
      <g id="Grupo_1203830" data-name="Grupo 1203830" transform="translate(-8782.264 -5467.099)">
        <path id="Trazado_1260779" data-name="Trazado 1260779" d="M21,14.656H16.891L16.11,17H13.618L17.852,5.625h2.172L24.282,17H21.79Zm-3.477-1.9h2.844L18.938,8.5Zm11.188,2.578a1.481,1.481,0,0,0,1.016-.344,1.2,1.2,0,0,0,.406-.914h2.117a2.9,2.9,0,0,1-.469,1.574,3.093,3.093,0,0,1-1.262,1.109,3.949,3.949,0,0,1-1.77.395A3.67,3.67,0,0,1,25.891,16a4.56,4.56,0,0,1-1.047-3.184v-.148a4.508,4.508,0,0,1,1.039-3.117,3.627,3.627,0,0,1,2.852-1.164,3.555,3.555,0,0,1,2.543.9,3.2,3.2,0,0,1,.973,2.4H30.134a1.551,1.551,0,0,0-.406-1.072,1.51,1.51,0,0,0-2.223.163,3.333,3.333,0,0,0-.4,1.866v.235a3.375,3.375,0,0,0,.4,1.878A1.377,1.377,0,0,0,28.712,15.336Zm7.531-8.867V8.547h1.445V10.2H36.243v4.219a1.007,1.007,0,0,0,.18.672.9.9,0,0,0,.688.2,3.6,3.6,0,0,0,.664-.055v1.711a4.648,4.648,0,0,1-1.367.2,2.156,2.156,0,0,1-2.422-2.4V10.2H32.751V8.547h1.234V6.469Zm7.766,9.672A2.831,2.831,0,0,1,41.7,17.156a2.67,2.67,0,0,1-2.074-.781,3.335,3.335,0,0,1-.73-2.289V8.547h2.258v5.467q0,1.322,1.2,1.322a1.63,1.63,0,0,0,1.578-.8V8.547H46.2V17H44.071ZM52.8,17a2.507,2.507,0,0,1-.227-.758,2.732,2.732,0,0,1-2.133.914,3,3,0,0,1-2.059-.719,2.312,2.312,0,0,1-.816-1.812,2.389,2.389,0,0,1,1-2.062,4.915,4.915,0,0,1,2.879-.727h1.039v-.484a1.393,1.393,0,0,0-.3-.937,1.183,1.183,0,0,0-.949-.352,1.345,1.345,0,0,0-.895.273.929.929,0,0,0-.324.75H47.751A2.268,2.268,0,0,1,48.2,9.727a3,3,0,0,1,1.281-.98,4.669,4.669,0,0,1,1.859-.355,3.689,3.689,0,0,1,2.48.785,2.747,2.747,0,0,1,.918,2.207v3.664a4.041,4.041,0,0,0,.336,1.82V17ZM50.93,15.43a1.945,1.945,0,0,0,.922-.223,1.462,1.462,0,0,0,.625-.6V13.156h-.844q-1.7,0-1.8,1.172l-.008.133a.9.9,0,0,0,.3.7A1.153,1.153,0,0,0,50.93,15.43Zm10.3-4.766a6.134,6.134,0,0,0-.812-.062,1.654,1.654,0,0,0-1.68.867V17H56.477V8.547H58.61l.063,1.008a2.092,2.092,0,0,1,1.883-1.164,2.366,2.366,0,0,1,.7.1Z" transform="translate(0 55.107)" fill="#12263f"/>
        <g id="Grupo_1203821" data-name="Grupo 1203821" transform="translate(11.824)">
          <g id="Grupo_1203820" data-name="Grupo 1203820" clip-path="url(#clip-path-5)">
            <path id="Trazado_1257609" data-name="Trazado 1257609" d="M14.234,2.546c.22,1.027-.09,2.109,1.13,2.516l11.253.728.2-.219.041-1.031,3.207-1.01c.581.036,2.437,2.763,3.273,2.858a1.323,1.323,0,0,0,.871-.145,21.562,21.562,0,0,0,2.5-2.657c.379-.237,2.9.731,3.443.991.374.8.232,3.456.7,4.015a9.071,9.071,0,0,0,.925.58c.863.105,2.816-.8,3.838-.63a22.171,22.171,0,0,1,1.792,2.36.647.647,0,0,1,.1.621c-.336,1.34-2.474,2.931-1.269,4.441l3.45,1.587c-.046,1,.146,2.226.032,3.2-.031.264-.015.305-.237.477-1.188.919-4.195.953-3.519,3.121.221.709,1.581,2.484,1.606,2.982.031.59-1.318,1.7-1.429,2.279a17.754,17.754,0,0,0,.146,3.708c.048,1.52,0,3.04.131,4.558l2.376.8.912,2.52c-.023.434-1.682,1.977-1.823,2.6-.215.941.58,2.348.61,3.335L46.833,49.1l-3.159-.389-2.74,2.254-2.371-.487L37.9,49.254,7.353,50.926A5.008,5.008,0,0,1,5.4,41.331l8.352-2.637.081-.291c-2.052-1.129-2.65-3.5-2.145-5.721-3.255,1.172-6.681,3.967-9.993,1.346A5.342,5.342,0,0,1,0,31.29c-.033-5.453.72-10.944,1.1-16.4l-1-2.575c.468-.922,1.112-.99,1.015-2.159C1.048,9.294.076,8.876.136,8.2A24.872,24.872,0,0,1,1.322,5.375c.29-.252,1.174-.1,1.679-.322,1.158-.517.868-1.5,1.147-2.5L7.108,1.3c1.737,1.322,2.354,1.483,4.053-.043ZM12.656,3.7a4.476,4.476,0,0,0-1.185-.448c-.459.007-.728.57-1.17.671A8.939,8.939,0,0,1,7.835,3.87c-.387-.156-.5-.7-1.152-.584-1.582.294-.853.988-1.215,1.8A19.7,19.7,0,0,1,4.044,6.524c-.511.309-1.375.151-1.636.508A7.04,7.04,0,0,0,2,8.139c.043.3.7.771.8,1.2a5.685,5.685,0,0,1-.131,2.383c-.192.372-.755.55-.637,1.091a9.325,9.325,0,0,0,.506,1.077c.23.151.923.011,1.424.291a18.745,18.745,0,0,1,1.449,1.41c.31.542-.093,1.135.364,1.494,1.3,1.021,1.5-.121,2.28-.265a10.769,10.769,0,0,1,2.492.067c.308.141.47.7,1.04.616a9.035,9.035,0,0,0,1.078-.434c.149-.2.1-1.064.247-1.4a19.744,19.744,0,0,1,1.422-1.437c.493-.3,1.022-.19,1.521-.37l.514-1.272a3.521,3.521,0,0,1-.812-3.283c.076-.4.832-.953.794-1.223l-.535-1.258c-.951.195-2.41-.91-2.843-1.66-.235-.408-.132-1.224-.311-1.475M38.674,5.84a3.781,3.781,0,0,0-1.307-.43c-.427.084-1.772,2.191-2.378,2.466a8.038,8.038,0,0,1-2.936-.061C31.5,7.5,30.123,5.562,29.842,5.443a1.963,1.963,0,0,0-1.4.461c-.429.959-.013,2.975-.815,3.76a14.721,14.721,0,0,1-1.886,1.261c-.823.123-2.774-.784-3.522-.523l-.751.969c.279.98,1.769,2.646,1.6,3.586a14.917,14.917,0,0,1-.8,2.209c-.391.407-2.586.967-3,1.431a1.88,1.88,0,0,0,0,1.576l3.07,1.5c.212.616.9,2.161.732,2.715A31.654,31.654,0,0,0,21.46,27.32a4.818,4.818,0,0,0,.763,1.055l3.537-.553,2.192,1.463.548,3.7c.426.062.935.386,1.341.2.523-.238,2.107-2.391,2.391-2.478a8.189,8.189,0,0,1,2.7.108c.619.356,1.786,2.11,2.356,2.369.407.186.915-.138,1.341-.2l.544-3.7c.843-.4,1.622-1.517,2.59-1.449s2.127.543,3.138.568l.742-1.007c.135-.468-1.77-2.689-1.613-3.609a12.082,12.082,0,0,1,.822-2.189l3.129-1.516c0-.466.2-1.219-.206-1.535-.6-.463-2.554-1-2.912-1.377a14.965,14.965,0,0,1-.8-2.209c-.2-1.094,1.738-2.918,1.488-3.759A6.813,6.813,0,0,0,45,10.453c-.664-.372-2.848.588-3.616.472a6.623,6.623,0,0,1-2.234-1.771c-.246-.708-.221-2.96-.473-3.315M26.556,7.379,17.694,6.95c-.123.113.593,1.11.535,1.477S17.342,9.4,17.2,9.815c-.434,1.262.634,1.59,1.034,2.612l-1.147,2.921c-2.123.29-2.876.535-2.844,2.875l-2.971,1.24c-.591.118-1.157-1.531-2.721-1-.38.129-1.07,1-1.365,1.014a29.156,29.156,0,0,1-2.9-1.189c-.5-.332-.184-1.288-.394-1.76-.085-.19-1.007-1.073-1.212-.859L1.825,26.1c.548-.15.979-.5,1.542-.672a5.031,5.031,0,0,1,6.321,6.248c.2.223,4.8-2.05,5.567-2.223,6.063-1.373,9.134,7.149,2.658,9.663-2.457.954-5.285,1.567-7.8,2.425-.2.219.751.791.932,1a5.326,5.326,0,0,1,1.179,4.616,19.32,19.32,0,0,1-.824,1.82l25.874-1.287c-.067-.2-.531-.424-.715-.5-.769-.309-1.744-.412-2.539-.677a20.015,20.015,0,0,1-.836-2.4c-.082-.643,1.621-2.014,1.773-2.676.259-1.129-.814-2.7-.434-3.579a21.526,21.526,0,0,1,1.463-1.681c.721-.356,2.444.462,3.441.151.688-.215,1.619-1.852,2.388-2.048a8.993,8.993,0,0,1,2.749.54l-.141-4.861c-1.192.121-2.716-.981-3.584.205A3.084,3.084,0,0,0,40.59,31.2c-.149.773-.12,2.187-.334,2.812-.154.452-2.765.947-3.316,1.211-1.291-.753-2.414-3.693-4.172-2.7-.515.292-2.122,2.7-2.68,2.7l-3.177-1.113c-.419-1.3.094-3.89-1.364-4.509-.509-.216-3.287.666-4.038.656-.442-.8-1.448-1.72-1.826-2.5-.089-.184-.2-.325-.107-.545.253-.627,1.824-2.906,1.762-3.405-.007-.059-.257-.784-.292-.844-.359-.619-2.917-1.3-3.569-1.863l-.075-3.48c.052-.216,3.3-1.357,3.589-1.766a7.409,7.409,0,0,0,.362-1.118l-1.792-3.431a18.866,18.866,0,0,1,1.779-2.641.634.634,0,0,1,.561-.152c.788.024,2.986.769,3.531.647a1.773,1.773,0,0,0,1.124-1.784M3.932,27.283a3.13,3.13,0,1,0,2.822,5.4,3.14,3.14,0,0,0-2.822-5.4M16.087,31c-5.09.628-2.708,8.74,2.042,6.19,3.159-1.7,1.475-6.623-2.042-6.19m31.451,9c-.224-.188-1.908-.428-2.469-.748a5.94,5.94,0,0,1-.911-.8c-.51-.776-.458-2.471-1.694-2.451-.4.006-1.556,1.808-2.891,2.046-.874.156-2.309-.33-2.766-.2-1.1.307-.194,1.975-.113,2.638a3.716,3.716,0,0,1-.292,1.972c-.446.825-1.848,1.516-1.135,2.567.175.259,2.073.55,2.656.953a5.494,5.494,0,0,1,.844.872c.245.392.663,1.925.833,2.1a2.267,2.267,0,0,0,.631.169c.807.038,1.348-1.141,1.979-1.565,1.557-1.047,2.691.028,3.832-.315,1.218-.366.132-2.049.1-2.908a4.551,4.551,0,0,1,.186-1.242c.235-.68,1.42-1.671,1.513-2.069a2.4,2.4,0,0,0-.3-1.009M6.648,42.723c-3.962.675-3.067,7.046,1.1,6.53,4.311-.535,3.646-7.337-1.1-6.53" transform="translate(0 -1.075)" fill="#12263f"/>
            <path id="Trazado_1257610" data-name="Trazado 1257610" d="M315.2.172c3.437-.451,3.9,4.609.661,4.959-3.21.347-3.759-4.552-.661-4.959m1,1.857c-.787-.786-2.1.587-1.046,1.261.976.624,1.613-.694,1.046-1.261" transform="translate(-268.379 -0.123)" fill="#12263f"/>
            <path id="Trazado_1257611" data-name="Trazado 1257611" d="M139.985.045a1.69,1.69,0,0,1,1.047,3.192A1.682,1.682,0,1,1,139.985.045" transform="translate(-118.899 0)" fill="#12263f"/>
            <path id="Trazado_1257612" data-name="Trazado 1257612" d="M181.142,69.808c12.205-1.532,12.727,16.938.957,16.553-10.073-.33-10.54-15.35-.957-16.553m1.154,1.57c-8.284.2-8.575,12.547-.616,13.259,9.539.854,9.675-13.48.616-13.259" transform="translate(-149.331 -59.751)" fill="#12263f"/>
            <path id="Trazado_1257613" data-name="Trazado 1257613" d="M35.027,35.979c3.809-3.719,9.707,1.684,6.315,5.814-3.764,4.584-10.563-1.667-6.315-5.814m4.9,4.9c2.43-2.594-1.646-6.168-3.886-3.529-2.264,2.667,1.691,5.873,3.886,3.529" transform="translate(-28.862 -29.768)" fill="#12263f"/>
            <path id="Trazado_1257614" data-name="Trazado 1257614" d="M265.07,261.479c5.439-.063,5.543,8.252.1,8.324s-5.6-8.26-.1-8.324m-1.761,5.9c2,2.135,5.493-.605,3.875-3.089-2-3.063-6.3.5-3.875,3.089" transform="translate(-223.692 -224.098)" fill="#12263f"/>
            <path id="Trazado_1257615" data-name="Trazado 1257615" d="M104.107,223.631a1.67,1.67,0,0,1,2.168-2.525c1.892,1.326-.467,4.226-2.168,2.525" transform="translate(-88.796 -189.214)" fill="#12263f"/>
            <path id="Trazado_1257616" data-name="Trazado 1257616" d="M40.028,302.5a1.67,1.67,0,0,1,2.525,2.168c-1.361,1.94-4.2-.5-2.525-2.168" transform="translate(-33.866 -258.833)" fill="#12263f"/>
            <path id="Trazado_1257617" data-name="Trazado 1257617" d="M25.139,194.6c-1.618,1.7-4.127-1.151-2.168-2.525a1.671,1.671,0,0,1,2.168,2.525" transform="translate(-19.073 -164.328)" fill="#12263f"/>
            <path id="Trazado_1257618" data-name="Trazado 1257618" d="M201.321,92.887c6.194-.978,8.164,8.009,2.3,9.732-6.794,2-8.963-8.68-2.3-9.732m-1.484,2.59c-3.028,3.028,1.531,7.783,4.672,4.743,3.178-3.076-1.59-7.825-4.672-4.743" transform="translate(-169.083 -79.545)" fill="#12263f"/>
          </g>
        </g>
      </g>
      <g id="Enmascarar_grupo_1119163" data-name="Enmascarar grupo 1119163" transform="translate(-4.585 63)" clip-path="url(#clip-path-6)">
        <g id="Grupo_1203831" data-name="Grupo 1203831" transform="translate(-8697.604 -5652.416)">
          <g id="Grupo_1203813" data-name="Grupo 1203813" clip-path="url(#clip-path-7)">
            <path id="Trazado_1257562" data-name="Trazado 1257562" d="M59.2,99.971l-34.057,11.2s-12.053,5.194-15.813,22.212-7.74,67.963-1.769,77.909,13.379,8.4,13.379,8.4l-3.317,24.754H135.493l-4.533-29.616s24.216-4.641,15.923-31.164C140.077,161.9,131.4,119.457,131.4,119.457s-5.529-13.482-17.692-14.587a137.35,137.35,0,0,1-21.452-3.645Z" transform="translate(-4.5 -33.685)" fill="#3c497a"/>
            <path id="Trazado_1257563" data-name="Trazado 1257563" d="M62.192,99.971l30.025,1.138c.21.286.423.561.632.857,2.86,4.053,5.351,11.829,7.51,21.734-3.084,3.575-7.833,7.855-13.563,8.963,0,0,9.786,29.838,14.1,46.745,2.049,8.033,4.85,16.324,9.2,22.908,1.748,23.217,3.243,42.127,3.243,42.127H76.11c3.443-46.8-13.918-144.472-13.918-144.472" transform="translate(-7.496 -33.685)" fill="#d7dbfb"/>
            <path id="Trazado_1257564" data-name="Trazado 1257564" d="M97.151,273.776c1.293,16.932,2.265,29.229,2.265,29.229H62.192a252.806,252.806,0,0,0,.063-29.229Z" transform="translate(6.421 -92.247)" fill="#283359"/>
            <path id="Trazado_1257565" data-name="Trazado 1257565" d="M74.723,229.663c7.741-16.8,16.587-14.145,35.384-15.693a317.728,317.728,0,0,0,32.738-4.7c.691,2.472,1.326,4.824,1.873,6.967a91.138,91.138,0,0,0,6.17,17.588C121.851,249.407,76.271,254.2,76.271,254.2s-9.288-7.736-1.548-24.533" transform="translate(-51.321 -70.512)" fill="#3c497a"/>
            <path id="Trazado_1257566" data-name="Trazado 1257566" d="M91.741,93.714,88.431,97.3a4.77,4.77,0,0,0-1.042,4.912c1.92,5.322,8.417,14.783,14.541,19.007l10.837-8.509,10.615,5.747A48.159,48.159,0,0,0,123.116,101a8.539,8.539,0,0,0-3.088-5.007l-2.139-1.679Z" transform="translate(-34.739 -31.576)" fill="#fff"/>
            <path id="Trazado_1257567" data-name="Trazado 1257567" d="M88.982,123.91a4.748,4.748,0,0,1,6.148-.435l3.839,2.834-2,4.623.8,5.5-4.711,3.842s5.38,16.4,9.919,31.778l1.243,8.5L90.36,182.625l-1.943-50.851-3.05-4.309Z" transform="translate(-13.762 -41.292)" fill="#6e7dd0"/>
            <path id="Trazado_1257568" data-name="Trazado 1257568" d="M35.192,149.276s9.786,29.838,14.1,46.745S61.233,231,79.644,231.826" transform="translate(44.107 -50.298)" fill="none" stroke="#6e7dd0" stroke-linecap="round" stroke-linejoin="round" stroke-width="1"/>
            <line id="Línea_3400" data-name="Línea 3400" x1="39.82" y1="56.465" transform="translate(96.714 84.778)" fill="none" stroke="#6e7dd0" stroke-linecap="round" stroke-linejoin="round" stroke-width="1"/>
            <path id="Trazado_1257569" data-name="Trazado 1257569" d="M104.854,134.895a10.154,10.154,0,0,0-8.552.843" transform="translate(-21.647 -45.255)" fill="none" stroke="#a4b1e3" stroke-linecap="round" stroke-linejoin="round" stroke-width="1"/>
            <path id="Trazado_1257570" data-name="Trazado 1257570" d="M123.7,91.921,121.47,75.629,95.319,72.552,96.933,86.83a6.141,6.141,0,0,0,.62,2.092,33.9,33.9,0,0,0,20.379,16.655s6.524-7.4,5.771-13.656" transform="translate(-39.904 -24.446)" fill="#9d5742"/>
            <path id="Trazado_1257571" data-name="Trazado 1257571" d="M122.344,26.429a10.506,10.506,0,0,0,6.524-12.709l-1.548-2.246s1.243-4.053-1.535-6.594-6.427-.663-6.427-.663-1-4.531-6.414-4.2S107.2,3,107.2,3A7.432,7.432,0,0,0,98.57,1.675c-5.2,2.431-4.755,6.409-4.755,6.409a5.644,5.644,0,0,0-6.966.774c-3.207,3.2-1.88,5.747-1.88,5.747s-2.875-.774-4.866,2.984.443,10.5,6.3,10.94l5.639,10.83s-.774,17.239,13.6,21.77,26.207-.995,26.649-10.609S122.9,34.5,122.9,34.5Z" transform="translate(-37.904 0)" fill="#24110d"/>
            <path id="Trazado_1257572" data-name="Trazado 1257572" d="M110.977,30.466l5.971,21.77s-8.4-3.094-15.591,2.431-9.731,3.758-12.274-.774a55.51,55.51,0,0,1-2.9-6.125,7.985,7.985,0,0,1,.088-6.137,21.312,21.312,0,0,0,1.71-8.624s4.534-.221,5.639-2.541c0,0,5.639,2.763,10.505-.774a6.383,6.383,0,0,0,6.856.774" transform="translate(-26.647 -10.005)" fill="#bc7560"/>
            <path id="Trazado_1257573" data-name="Trazado 1257573" d="M94.493,33.007s4.533-.221,5.639-2.541c0,0,5.639,2.762,10.5-.774a6.386,6.386,0,0,0,6.856.774l.232.849c-1.342.831-3.818,1.664-7.752.5a12.029,12.029,0,0,1-8.849,1.243A19.333,19.333,0,0,1,94.258,36.4a20.389,20.389,0,0,0,.235-3.389" transform="translate(-33.163 -10.005)" fill="#9d5742"/>
            <path id="Trazado_1257574" data-name="Trazado 1257574" d="M140.711,43.79c1.854-.825,4.215.235,5.883,2.431a3.81,3.81,0,0,1,.569,3.462,20.544,20.544,0,0,0-.866,6.646c-2.341,1.042-5.49-.921-7.033-4.383s-.894-7.115,1.447-8.156" transform="translate(-92.091 -14.661)" fill="#bc7560"/>
            <path id="Trazado_1257575" data-name="Trazado 1257575" d="M93.364,127.859s-17.8,6.851-17.416,14.2c0,0,10.892-1.658,17.416-14.2" transform="translate(3.351 -43.081)" fill="#18203c"/>
            <path id="Trazado_1257576" data-name="Trazado 1257576" d="M117.81,114.148,115.153,110s2.539-9.981,0-14.888.484-10.417,0-11.188-4.076.362-5.65,5.647a41.157,41.157,0,0,1-2.476,6.916s-24.949-10.215-29.076-8.5S82.268,93.5,82.268,93.5l4.4,3.335s1.249,4.723,3.344,7.26,11.046,14.561,11.046,14.561l1.812,8.12s10.156-3.741,14.939-12.631" transform="translate(-21.675 -28.204)" fill="#bc7560"/>
            <path id="Trazado_1257577" data-name="Trazado 1257577" d="M0,187.457a36.863,36.863,0,0,1,11.52-2.681s11.052,6.713,10.223,9.946c0,0-.332,1.741-1.742,1.823,0,0,2.267,3.15,0,5.636a4.41,4.41,0,0,1-1.2,4.862s1.864,5.028-1.566,6.4c0,0-10.58-17.806-17.234-25.989" transform="translate(125.312 -62.259)" fill="#bc7560"/>
            <path id="Trazado_1257578" data-name="Trazado 1257578" d="M9.934,199.337a46.494,46.494,0,0,0-7.242-6.274" transform="translate(135.379 -65.051)" fill="none" stroke="#9d5742" stroke-linecap="round" stroke-linejoin="round" stroke-width="1"/>
            <path id="Trazado_1257579" data-name="Trazado 1257579" d="M11.174,207.648A48.3,48.3,0,0,0,2.692,201" transform="translate(134.139 -67.726)" fill="none" stroke="#9d5742" stroke-linecap="round" stroke-linejoin="round" stroke-width="1"/>
            <path id="Trazado_1257580" data-name="Trazado 1257580" d="M102.063,98.482s12.062,4.061,18.791,8.248" transform="translate(-41.47 -33.183)" fill="none" stroke="#9d5742" stroke-linecap="round" stroke-linejoin="round" stroke-width="1"/>
            <line id="Línea_3401" data-name="Línea 3401" x2="15.49" y2="11.737" transform="translate(60.593 65.299)" fill="none" stroke="#9d5742" stroke-linecap="round" stroke-linejoin="round" stroke-width="1"/>
            <path id="Trazado_1257581" data-name="Trazado 1257581" d="M85.21,145.739s-5.632,11.06-21.869,14.522" transform="translate(19.865 -49.106)" fill="none" stroke="#6e7dd0" stroke-linecap="round" stroke-linejoin="round" stroke-width="1"/>
            <path id="Trazado_1257582" data-name="Trazado 1257582" d="M162.1,264.289s-27.823,7.8-43.388,8.445" transform="translate(-93.761 -89.051)" fill="none" stroke="#6e7dd0" stroke-linecap="round" stroke-linejoin="round" stroke-width="1"/>
            <path id="Trazado_1257583" data-name="Trazado 1257583" d="M163.069,215.252l-21.6,1.612s-17.606,1.806-19.5,11.515" transform="translate(-96.89 -72.528)" fill="none" stroke="#6e7dd0" stroke-linecap="round" stroke-linejoin="round" stroke-width="1"/>
            <line id="Línea_3402" data-name="Línea 3402" x1="1.99" y1="32.203" transform="translate(34.902 113.4)" fill="none" stroke="#6e7dd0" stroke-linecap="round" stroke-linejoin="round" stroke-width="1"/>
            <path id="Trazado_1257584" data-name="Trazado 1257584" d="M143.582,115.4l-3.822,14.693a8,8,0,0,0,1.953,6.918l9.845,11.292-6.733,9.524a7.821,7.821,0,0,0-.252,8.913l7.529,15.689" transform="translate(-97.626 -38.884)" fill="none" stroke="#6e7dd0" stroke-linecap="round" stroke-linejoin="round" stroke-width="1"/>
            <line id="Línea_3403" data-name="Línea 3403" x1="0.866" y1="9.334" transform="translate(114.628 102.072)" fill="none" stroke="#6e7dd0" stroke-linecap="round" stroke-linejoin="round" stroke-width="1"/>
            <line id="Línea_3404" data-name="Línea 3404" x1="7.578" y1="5.525" transform="translate(136.535 139.259)" fill="none" stroke="#9d5742" stroke-linecap="round" stroke-linejoin="round" stroke-width="1"/>
            <path id="Trazado_1257585" data-name="Trazado 1257585" d="M89.619,45.151c1.3,1.64,6.931,7.825,6.3,9.7s-3.453,1.742-3.453,1.742" transform="translate(-8.329 -15.213)" fill="none" stroke="#9d5742" stroke-linecap="round" stroke-linejoin="round" stroke-width="1"/>
            <path id="Trazado_1257586" data-name="Trazado 1257586" d="M99.83,71.651s-3.566,1.243-5.888,0" transform="translate(-15.058 -24.142)" fill="none" stroke="#fff" stroke-linecap="round" stroke-linejoin="round" stroke-width="1"/>
            <path id="Trazado_1257587" data-name="Trazado 1257587" d="M93.442,44.94a1.025,1.025,0,1,0,.484-1.54,1.159,1.159,0,0,0-.484,1.54" transform="translate(-10.236 -14.606)" fill="#24110d"/>
            <path id="Trazado_1257588" data-name="Trazado 1257588" d="M107.395,46.733a1.025,1.025,0,1,0,.658-1.473,1.159,1.159,0,0,0-.658,1.473" transform="translate(-33.495 -15.242)" fill="#24110d"/>
            <line id="Línea_3405" data-name="Línea 3405" x1="4.147" y1="4.84" transform="translate(49.36 32.142)" fill="none" stroke="#9d5742" stroke-linecap="round" stroke-linejoin="round" stroke-width="1"/>
            <line id="Línea_3406" data-name="Línea 3406" x1="1.742" y2="1.73" transform="translate(49.36 34.175)" fill="none" stroke="#9d5742" stroke-linecap="round" stroke-linejoin="round" stroke-width="1"/>
            <path id="Trazado_1257589" data-name="Trazado 1257589" d="M112.294,39.687a3.77,3.77,0,0,0-1.886-.938,4.814,4.814,0,0,0-2.034,0,4.575,4.575,0,0,0-1.905.9,2.988,2.988,0,0,0-1.122,1.87l-.005.038a.061.061,0,0,0,.1.053A6.4,6.4,0,0,1,106.93,40.6a8.222,8.222,0,0,1,1.72-.552,11.263,11.263,0,0,1,1.8-.24,15.79,15.79,0,0,1,1.824.013.061.061,0,0,0,.065-.056.06.06,0,0,0-.019-.048Z" transform="translate(-35.131 -13.02)" fill="#24110d"/>
            <path id="Trazado_1257590" data-name="Trazado 1257590" d="M96.563,37.713a1.759,1.759,0,0,0-.985-1.166A2.277,2.277,0,0,0,92.945,37a1.974,1.974,0,0,0-.588,1.363l0,.058a.054.054,0,0,0,.051.056.053.053,0,0,0,.031-.008,8.214,8.214,0,0,1,.949-.513,4.259,4.259,0,0,1,1.02-.3,3.863,3.863,0,0,1,2.095.174.057.057,0,0,0,.074-.034.054.054,0,0,0,0-.034Z" transform="translate(-10.752 -12.236)" fill="#24110d"/>
          </g>
        </g>
      </g>
      <g id="Enmascarar_grupo_1119164" data-name="Enmascarar grupo 1119164" transform="translate(0 108)" clip-path="url(#clip-path-8)">
        <g id="Grupo_1203832" data-name="Grupo 1203832" transform="translate(-8491.209 -5863.372)">
          <g id="Grupo_1203348" data-name="Grupo 1203348" clip-path="url(#clip-path-9)">
            <path id="Trazado_1256056" data-name="Trazado 1256056" d="M70.9,0H65.933L0,88.915v6.7a32.562,32.562,0,0,0,.431,5.275L74.81.581A13.627,13.627,0,0,0,70.9,0" fill="#c1fbff"/>
            <path id="Trazado_1256057" data-name="Trazado 1256057" d="M47.318,0,0,63.811V76.362L56.626,0Z" transform="translate(0 0)" fill="#c1fbff"/>
            <path id="Trazado_1256058" data-name="Trazado 1256058" d="M18.025,0C8.07,0,0,10.883,0,24.308v1.847L19.4,0Z" transform="translate(0)" fill="#c1fbff"/>
            <path id="Trazado_1256059" data-name="Trazado 1256059" d="M28.7,0,0,38.707V51.259L38.011,0Z" transform="translate(0 0)" fill="#c1fbff"/>
            <path id="Trazado_1256060" data-name="Trazado 1256060" d="M83.845,5.862,5.863,111.025a22.249,22.249,0,0,0,4.7,6.21L88.45,12.2a22.655,22.655,0,0,0-4.605-6.342" transform="translate(-2.58 -1.435)" fill="#c1fbff"/>
            <path id="Trazado_1256061" data-name="Trazado 1256061" d="M125.959,150.55c9.955,0,18.025-10.883,18.025-24.308v-1.1l-18.838,25.4Z" transform="translate(-55.06 -30.631)" fill="#c1fbff"/>
            <path id="Trazado_1256062" data-name="Trazado 1256062" d="M129.359,91.905,91.905,142.414h9.308l28.146-37.957Z" transform="translate(-40.435 -22.495)" fill="#c1fbff"/>
            <path id="Trazado_1256063" data-name="Trazado 1256063" d="M114.735,58.666,58.666,134.278h9.308l46.761-63.06Z" transform="translate(-25.811 -14.359)" fill="#c1fbff"/>
            <path id="Trazado_1256064" data-name="Trazado 1256064" d="M100.373,30.677a32.691,32.691,0,0,0-.334-4.655L26.022,125.838a13.61,13.61,0,0,0,3.452.45H35l65.377-88.164Z" transform="translate(-11.449 -6.369)" fill="#c1fbff"/>
          </g>
        </g>
        <g id="Grupo_1203833" data-name="Grupo 1203833" transform="translate(-8871.73 -5505.185)">
          <g id="Grupo_1203346" data-name="Grupo 1203346" clip-path="url(#clip-path-10)">
            <path id="Trazado_1256038" data-name="Trazado 1256038" d="M78.178,5.334,0,110.761v8.451L80.6,10.525a18.315,18.315,0,0,0-2.417-5.191" transform="translate(0 0.046)" fill="#5dd2e4"/>
            <path id="Trazado_1256039" data-name="Trazado 1256039" d="M81.459,34.463,0,144.316v8.451L81.459,42.914Z" transform="translate(0 0.298)" fill="#5dd2e4"/>
            <path id="Trazado_1256040" data-name="Trazado 1256040" d="M69.618.018,0,93.9v8.452L74.6,1.753A9.917,9.917,0,0,0,69.618.018" transform="translate(0 0)" fill="#5dd2e4"/>
            <path id="Trazado_1256041" data-name="Trazado 1256041" d="M57.1,0,0,77v8.451L63.365,0Z" transform="translate(0)" fill="#5dd2e4"/>
            <path id="Trazado_1256042" data-name="Trazado 1256042" d="M81.459,17.7,0,127.557v8.451L81.459,26.156Z" transform="translate(0 0.153)" fill="#5dd2e4"/>
            <path id="Trazado_1256043" data-name="Trazado 1256043" d="M19.495,0,0,26.29v8.451L25.762,0Z" transform="translate(0)" fill="#5dd2e4"/>
            <path id="Trazado_1256044" data-name="Trazado 1256044" d="M12.385,0C5.545,0,0,7.477,0,16.7v1.137L13.228,0Z" transform="translate(0)" fill="#5dd2e4"/>
            <path id="Trazado_1256045" data-name="Trazado 1256045" d="M32.029,0,0,43.193v8.451L38.3,0Z" transform="translate(0)" fill="#5dd2e4"/>
            <path id="Trazado_1256046" data-name="Trazado 1256046" d="M44.563,0,0,60.1v8.451L50.83,0Z" transform="translate(0)" fill="#5dd2e4"/>
            <path id="Trazado_1256047" data-name="Trazado 1256047" d="M87.636,118.1,24.5,203.233h6.268l56.864-76.685Z" transform="translate(-6.177 1.02)" fill="#5dd2e4"/>
            <path id="Trazado_1256048" data-name="Trazado 1256048" d="M91.86,134.855l-50.6,68.232h6.267l44.33-59.781Z" transform="translate(-10.401 1.165)" fill="#5dd2e4"/>
            <path id="Trazado_1256049" data-name="Trazado 1256049" d="M96.085,151.614,58.023,202.942H64.29l31.795-42.877Z" transform="translate(-14.625 1.31)" fill="#5dd2e4"/>
            <path id="Trazado_1256050" data-name="Trazado 1256050" d="M92.149,202.653c6.84,0,12.384-7.477,12.384-16.7v-.822L91.539,202.653Z" transform="translate(-23.073 1.599)" fill="#5dd2e4"/>
            <path id="Trazado_1256051" data-name="Trazado 1256051" d="M100.309,168.372,74.781,202.8h6.267l19.261-25.975Z" transform="translate(-18.849 1.455)" fill="#5dd2e4"/>
            <path id="Trazado_1256052" data-name="Trazado 1256052" d="M81.459,67.821,0,177.674v8.451L81.459,76.272Z" transform="translate(0 0.586)" fill="#5dd2e4"/>
            <path id="Trazado_1256053" data-name="Trazado 1256053" d="M81.459,51.062,0,160.915v8.451L81.459,59.514Z" transform="translate(0 0.441)" fill="#5dd2e4"/>
            <path id="Trazado_1256054" data-name="Trazado 1256054" d="M81.773,84.579,1.245,193.176A18.12,18.12,0,0,0,3.71,198.3L81.773,93.03Z" transform="translate(-0.314 0.731)" fill="#5dd2e4"/>
            <path id="Trazado_1256055" data-name="Trazado 1256055" d="M83.824,101.338,9.38,201.73a9.826,9.826,0,0,0,5.054,1.636l69.39-93.577Z" transform="translate(-2.364 0.875)" fill="#5dd2e4"/>
          </g>
        </g>
      </g>
    </g>
  </g>
</svg>
