<svg xmlns="http://www.w3.org/2000/svg" xmlns:xlink="http://www.w3.org/1999/xlink" width="188" height="143" viewBox="0 0 188 143">
  <defs>
    <clipPath id="clip-path">
      <rect id="Rect치ngulo_455284" data-name="Rect치ngulo 455284" width="96" height="96" transform="translate(-0.414 -0.415)" fill="none"/>
    </clipPath>
  </defs>
  <g id="Grupo_1204844" data-name="Grupo 1204844" transform="translate(-289.711 -1347)">
    <g id="Grupo_1204198" data-name="Grupo 1204198" transform="translate(289.711 1347)">
      <rect id="Rect치ngulo_455283" data-name="Rect치ngulo 455283" width="188" height="143" rx="19" fill="#c1fbff"/>
    </g>
    <g id="Grupo_1204200" data-name="Grupo 1204200" transform="translate(336.125 1361.415)">
      <g id="Grupo_1204199" data-name="Grupo 1204199" transform="translate(0 7.999)" clip-path="url(#clip-path)">
        <path id="Trazado_1258187" data-name="Trazado 1258187" d="M5.441,80.536l.276,63s-2.726,6.546,6.543,7.091l78.245-.273s7.906-.545,6.816-10.637v-57s-31.087-7.364-91.88-2.182" transform="translate(-3.887 -57.228)" fill="#ebcc30"/>
        <path id="Trazado_1258188" data-name="Trazado 1258188" d="M27.036,22.19,27.493,92.1s23.719-7.091,39.259-.545c0,0,17.448-7.091,39.532-.545l-.273-69.275-9.27-2.182L97.56,6.462S71.29,13.523,68.749,21.447c0,0-20.087-6.167-41.713.742" transform="translate(-19.665 -4.7)" fill="#fff7d9"/>
        <path id="Trazado_1258189" data-name="Trazado 1258189" d="M9.552,18.52V85.068c2.438-.32,4.835-.961,7.268-1.32,7.165-1.058,16.812-1.985,23.873-.513,1.761.367,5.832,2.164,7.156,2.119,1.241-.042,4.066-1.241,5.54-1.57A66.248,66.248,0,0,1,75.9,83.192c3.26.418,6.495,1.244,9.712,1.875V18.929c-.781-.714-2.6-.325-3.139-1.507a1.732,1.732,0,0,1,.875-2.124c.952-.291,5.984.371,5.54,2.262l-.21,70.166a1.86,1.86,0,0,1-1.515,1.085c-1.236-.015-4.349-1.138-5.908-1.431-10.611-1.993-21.713-2.937-32.015.929l-.162,3.576h39.4a10,10,0,0,0,2.321-1.5,5.921,5.921,0,0,0,1.093-2.452l-.013-62.2c.3-2.581,3.284-2.726,3.29-.007l-.015,62.193A8.122,8.122,0,0,1,87.4,95.171l-79.9,0a8.129,8.129,0,0,1-7.5-7.5L.13,24.777c.921-1.93,3.032-.871,3.157.965l-.013,62.2A5.922,5.922,0,0,0,4.368,90.39a10,10,0,0,0,2.321,1.5h39.4c-.2-1,.473-3.139-.432-3.795-.693-.5-5.013-1.59-6.1-1.806-7.441-1.48-17.375-.25-24.882,1.037-1.581.271-5.456,1.563-6.627,1.53a2.02,2.02,0,0,1-1.556-1.126l-.21-70.166A1.661,1.661,0,0,1,7.171,16c1.407-.716,5.993-1.454,7.777-1.766,9.385-1.643,23.374-2.91,32.138,1.238a5.347,5.347,0,0,1,2,1.274V77.977c4.5-2.109,8.771-4.653,13.263-6.778,4.509-2.133,9.166-3.9,13.727-5.9V4.065a116.479,116.479,0,0,0-14.455,6.676c-3.127,1.644-6.1,3.817-9.379,5.048-3.345-1.454-.426-3.063,1.295-4.135a145.322,145.322,0,0,1,15.353-8.1C70.7,2.725,75.731.244,77.374.023a1.6,1.6,0,0,1,1.771.835l.079,66.223a1.761,1.761,0,0,1-.89,1.019c-1.493.815-4.1,1.406-5.8,2.108A245.527,245.527,0,0,0,47.756,82.474c-.831.031-1.72-.406-1.684-1.348l-.113-62.616a15.877,15.877,0,0,0-2.326-.946c-7.165-2.485-15.833-1.846-23.278-.917-3.626.452-7.19,1.364-10.8,1.874" transform="translate(0 0)"/>
        <path id="Trazado_1258190" data-name="Trazado 1258190" d="M71.638,244.194a50.384,50.384,0,0,1,5.368.2c1,.113,4.235.519,4.639,1.358a1.782,1.782,0,0,1-.881,2.411c-.761.211-4.711-.694-5.937-.771a52.353,52.353,0,0,0-10.04.588c-1.3.174-4.287,1.094-5.211,1.034-1.679-.107-2.221-2.412-.217-3.191,2.825-1.1,9.175-1.591,12.278-1.626" transform="translate(-42.24 -177.591)"/>
        <path id="Trazado_1258191" data-name="Trazado 1258191" d="M72.224,209.172c1.511-.008,8.856.354,9.458,1.56a1.779,1.779,0,0,1-.882,2.408c-.859.249-5.375-.7-6.757-.764a52.615,52.615,0,0,0-8.949.588c-1.493.193-5.476,1.46-6.441.626a1.634,1.634,0,0,1,.744-2.779c3.284-1.068,9.337-1.619,12.827-1.637" transform="translate(-42.275 -152.123)"/>
        <path id="Trazado_1258192" data-name="Trazado 1258192" d="M67.954,139.923c2.108-.151,12.827-.388,13.826,1.277a2.712,2.712,0,0,1,.135,1.5c-.336,1.773-4.064.512-5.32.413a51.382,51.382,0,0,0-11.137.31c-1.337.167-5.025,1.2-5.971,1.005-1.534-.308-1.638-2.129-.306-2.92,1.258-.748,7.073-1.466,8.773-1.588" transform="translate(-42.372 -101.684)"/>
        <path id="Trazado_1258193" data-name="Trazado 1258193" d="M81.472,178.3c-1.426.834-2.974-.076-4.438-.2a53.081,53.081,0,0,0-11.947.314c-1.622.215-6.981,2.194-6.977-.455,0-1.891,3.9-2.257,5.375-2.511,3.054-.527,15.894-1.366,17.93.449a2.014,2.014,0,0,1,.056,2.407" transform="translate(-42.268 -127.111)"/>
        <path id="Trazado_1258194" data-name="Trazado 1258194" d="M213.1,168.908a2.177,2.177,0,0,1,1.432.073c2.664,2.818-2.61,3.6-4.547,4.454-3.379,1.487-6.667,3.2-10.041,4.707-2.1.52-2.924-1.628-1.043-2.976,1.655-1.186,12.336-5.986,14.2-6.258" transform="translate(-143.914 -122.779)"/>
        <path id="Trazado_1258195" data-name="Trazado 1258195" d="M213.039,133.908a2.174,2.174,0,0,1,1.432.073c2.763,2.8-3.131,3.845-5.092,4.726-3.25,1.46-6.389,3.144-9.687,4.5-2.262.136-2.585-1.989-.682-3.145,2.106-1.28,11.928-5.852,14.029-6.154" transform="translate(-143.849 -97.325)"/>
        <path id="Trazado_1258196" data-name="Trazado 1258196" d="M212.828,204c1.213-.2,2.713.128,2.482,1.646-.212,1.392-4,2.293-5.32,2.878-3.382,1.493-6.721,3.082-10.041,4.707-2.095.521-2.924-1.629-1.043-2.976,1.639-1.174,12.081-5.945,13.922-6.255" transform="translate(-143.914 -148.321)"/>
        <path id="Trazado_1258197" data-name="Trazado 1258197" d="M213.385,64.08c1.966-.174,2.637,1.818.975,2.91-1.686,1.108-6.279,2.555-8.464,3.533-1.4.628-5.725,3.261-6.909,2.938a1.552,1.552,0,0,1-.362-2.847c1.749-1.284,6.457-3.251,8.633-4.183,1.438-.616,4.771-2.231,6.126-2.351" transform="translate(-143.91 -46.595)"/>
        <path id="Trazado_1258198" data-name="Trazado 1258198" d="M213.052,99.018c2.143-.313,3.042,1.79,1.256,2.911-1.63,1.023-5.837,2.33-7.919,3.261-1.465.655-6.257,3.538-7.454,3.211-1.78-.487-1.322-2.272.134-3.17a75.511,75.511,0,0,1,8.683-4.132,38.535,38.535,0,0,1,5.3-2.081" transform="translate(-143.858 -71.99)"/>
        <path id="Trazado_1258199" data-name="Trazado 1258199" d="M74.594,78.462v1.9h-.108a3.626,3.626,0,0,0-2.226.649,2.74,2.74,0,0,0-1.072,1.8,2.825,2.825,0,0,1,2.065-.8,2.635,2.635,0,0,1,2.158.99,3.992,3.992,0,0,1,.8,2.6,3.654,3.654,0,0,1-.469,1.829,3.35,3.35,0,0,1-1.312,1.3,3.765,3.765,0,0,1-1.868.47,3.9,3.9,0,0,1-1.986-.506,3.473,3.473,0,0,1-1.362-1.446,4.754,4.754,0,0,1-.5-2.166v-.968a6.03,6.03,0,0,1,.692-2.9,5.019,5.019,0,0,1,1.975-2.019,5.648,5.648,0,0,1,2.847-.732Zm-2.18,5.416a1.385,1.385,0,0,0-.8.221,1.409,1.409,0,0,0-.48.543v.721q0,1.972,1.37,1.972a1.112,1.112,0,0,0,.921-.493,2,2,0,0,0,.369-1.236,1.967,1.967,0,0,0-.376-1.247,1.205,1.205,0,0,0-1-.482" transform="translate(-49.98 -57.063)"/>
        <path id="Trazado_1258200" data-name="Trazado 1258200" d="M102.137,108.71a1.379,1.379,0,0,1,.954.341,1.19,1.19,0,0,1,0,1.744,1.5,1.5,0,0,1-1.911,0,1.189,1.189,0,0,1,0-1.736,1.363,1.363,0,0,1,.957-.344" transform="translate(-73.321 -79.061)"/>
        <path id="Trazado_1258201" data-name="Trazado 1258201" d="M113.506,89.46h-2.424V81.741l-2.381.7V80.6l4.582-1.585h.222Z" transform="translate(-79.066 -57.465)"/>
      </g>
    </g>
  </g>
</svg>
