<svg xmlns="http://www.w3.org/2000/svg" xmlns:xlink="http://www.w3.org/1999/xlink" width="96" height="96" viewBox="0 0 96 96">
  <defs>
    <clipPath id="clip-path">
      <rect id="Rectángulo_454682" data-name="Rectángulo 454682" width="96" height="96" fill="#feea89"/>
    </clipPath>
    <clipPath id="clip-path-2">
      <rect id="Rectángulo_455592" data-name="Rectángulo 455592" width="58" height="58" transform="translate(2.711 14)" fill="#fff" stroke="#707070" stroke-width="1"/>
    </clipPath>
    <clipPath id="clip-path-3">
      <rect id="Rectángulo_455594" data-name="Rectángulo 455594" width="53.683" height="53.667" fill="#fff"/>
    </clipPath>
  </defs>
  <g id="Grupo_1204545" data-name="Grupo 1204545" transform="translate(-731.746 -8618)">
    <g id="Grupo_1203592" data-name="Grupo 1203592" transform="translate(731.746 8618)">
      <g id="Grupo_1203487" data-name="Grupo 1203487">
        <g id="Grupo_1203486" data-name="Grupo 1203486" clip-path="url(#clip-path)">
          <path id="Trazado_1256437" data-name="Trazado 1256437" d="M2.058,84.327a47.583,47.583,0,0,0,1.836,6.227L23,71.45a25.883,25.883,0,0,1,4.958-13.021Z" transform="translate(-0.911 -25.866)" fill="#feea89"/>
          <path id="Trazado_1256438" data-name="Trazado 1256438" d="M90.555,3.894a47.583,47.583,0,0,0-6.227-1.836l-25.9,25.9A25.886,25.886,0,0,1,71.451,23Z" transform="translate(-25.866 -0.911)" fill="#feea89"/>
          <path id="Trazado_1256439" data-name="Trazado 1256439" d="M117.575,12.855a48.029,48.029,0,0,0-5.022-3.041L95.523,26.843a25.831,25.831,0,0,1,6.031,2.032Z" transform="translate(-42.287 -4.345)" fill="#feea89"/>
          <path id="Trazado_1256440" data-name="Trazado 1256440" d="M9.814,112.552a47.933,47.933,0,0,0,3.041,5.022l16.021-16.021a25.831,25.831,0,0,1-2.032-6.031Z" transform="translate(-4.345 -42.287)" fill="#feea89"/>
          <path id="Trazado_1256441" data-name="Trazado 1256441" d="M4.273,34.929,34.929,4.273A48.116,48.116,0,0,0,4.273,34.929" transform="translate(-1.892 -1.892)" fill="#feea89"/>
          <path id="Trazado_1256442" data-name="Trazado 1256442" d="M48,0q-2.406,0-4.752.234L.234,43.248Q0,45.593,0,48q0,1.726.123,3.422l51.3-51.3C50.292.043,49.151,0,48,0" transform="translate(0 0)" fill="#feea89"/>
          <path id="Trazado_1256443" data-name="Trazado 1256443" d="M143.483,112.406l-31.076,31.076a48.112,48.112,0,0,0,31.076-31.076" transform="translate(-49.761 -49.761)" fill="#feea89"/>
          <path id="Trazado_1256444" data-name="Trazado 1256444" d="M131.113,79.625,79.625,131.113q1.795.134,3.624.135c1.524,0,3.03-.074,4.517-.213l43.27-43.27c.139-1.487.213-2.993.213-4.516q0-1.829-.135-3.624" transform="translate(-35.249 -35.249)" fill="#feea89"/>
          <path id="Trazado_1256445" data-name="Trazado 1256445" d="M119.266,41.241l15.585-15.585a48.285,48.285,0,0,0-4.038-4.025L115.222,37.222a26.166,26.166,0,0,1,4.044,4.019" transform="translate(-51.007 -9.575)" fill="#feea89"/>
          <path id="Trazado_1256446" data-name="Trazado 1256446" d="M37.222,115.222,21.63,130.814a48.369,48.369,0,0,0,4.025,4.038l15.585-15.585a26.166,26.166,0,0,1-4.019-4.044" transform="translate(-9.575 -51.007)" fill="#feea89"/>
          <path id="Trazado_1256447" data-name="Trazado 1256447" d="M74.932,129.121,55.9,148.149a47.687,47.687,0,0,0,6.207,1.857l25.333-25.333a25.88,25.88,0,0,1-12.512,4.448" transform="translate(-24.748 -55.191)" fill="#feea89"/>
          <path id="Trazado_1256448" data-name="Trazado 1256448" d="M150.006,62.11a47.591,47.591,0,0,0-1.857-6.206L129.121,74.931a25.87,25.87,0,0,1-4.448,12.512Z" transform="translate(-55.191 -24.748)" fill="#feea89"/>
          <path id="Trazado_1256449" data-name="Trazado 1256449" d="M147.17,41.946a48.074,48.074,0,0,0-3.054-5.009l-16,16a25.825,25.825,0,0,1,2.064,6Z" transform="translate(-56.713 -16.352)" fill="#feea89"/>
          <path id="Trazado_1256450" data-name="Trazado 1256450" d="M36.937,144.115a47.933,47.933,0,0,0,5.009,3.055l16.995-17a25.812,25.812,0,0,1-6-2.064Z" transform="translate(-16.352 -56.713)" fill="#feea89"/>
        </g>
      </g>
    </g>
    <g id="Grupo_154427" data-name="Grupo 154427" transform="translate(736.746 8623)">
      <path id="Elipse_5729" data-name="Elipse 5729" d="M43,0A43,43,0,1,1,0,43,43,43,0,0,1,43,0Z" transform="translate(-0.162 0)" fill="#302c9e"/>
      <g id="Enmascarar_grupo_1119197" data-name="Enmascarar grupo 1119197" transform="translate(11)" clip-path="url(#clip-path-2)">
        <g id="Grupo_1204549" data-name="Grupo 1204549" transform="translate(4.711 16)">
          <g id="Grupo_1204548" data-name="Grupo 1204548" clip-path="url(#clip-path-3)">
            <path id="Trazado_1258895" data-name="Trazado 1258895" d="M15.686,46.389a7.217,7.217,0,0,1-4.275.4c-1.556-.479-.536-3.092-2.611-3.4-1.611-.238-1.863,1.266-3.434.905a11.355,11.355,0,0,1-2.46-2.282c-1.041-1.759,1.03-2.118.7-3.856C3.22,36.127,1.091,37.068.35,35.881a6.814,6.814,0,0,1-.118-3.92c.684-1.415,2.668-.473,3.29-2.242.6-1.719-1.248-2.168-.883-3.567a8.935,8.935,0,0,1,2.728-2.809c1.571-.362,1.823,1.143,3.434.905,2.041-.3,1.152-3.013,2.573-3.436a20.511,20.511,0,0,1,3.564.007c1.45.366.6,2.39,2.028,3.189,1.795,1,2.3-1.053,3.985-.665a10.224,10.224,0,0,1,2.766,2.766c.3,1.326-.677,1.445-.877,2.218a2.065,2.065,0,0,0,1.847,2.724l1.254-2.315c.032-.327-1.357-1.4-1.627-1.8-1.513-2.266,2.209-3.14.456-5.831-1.1-1.69-3.5-.674-3.949-2.375a21.406,21.406,0,0,1-.082-4.042c.31-2.271,3.821-.718,4.4-3.506.484-2.339-2.108-3.032-.913-4.866a20.572,20.572,0,0,1,3.116-2.89c1.867-.43,2.137,1.477,4.164,1.161,2.633-.41,1.759-2.4,2.606-3.719.7-1.1,4.511-1.039,5.5-.456,1.473.866.286,3.265,2.72,4.077,2.341.781,3.219-2.048,5.123-.853a24.551,24.551,0,0,1,2.782,2.909c.545,1.751-1,2.172-1.157,3.611a2.8,2.8,0,0,0,2.009,2.968c.9.227,1.6-.059,2.2.964.458.779.457,3.288.3,4.206-.442,2.626-3.97.645-4.477,3.9-.316,2.027,1.591,2.3,1.161,4.164a13.363,13.363,0,0,1-3.434,3.364c-1.5.353-1.652-.781-2.725-1.091a2.688,2.688,0,0,0-3.236,1.236L51.766,48.8a3.588,3.588,0,0,1-3.428,4.862l-30.812-.025a3.529,3.529,0,0,1-3.177-4.718c.135-.393,1.436-2.43,1.338-2.534M38.925,1.652l-3.487.067a4.953,4.953,0,0,1-1.883,3.65c-1.84,1.377-4.1.836-5.752-.546L25.511,7.138c-.119.457.452.828.641,1.2,1.654,3.266-.4,6.172-3.841,6.529a8.431,8.431,0,0,0,.038,3.519,4.312,4.312,0,0,1,3.134,7.372c.318.46,1.108,1.7,1.562,1.082,1.17-1.593,2.057-3.864,3.164-5.548-.321-.845-.75-1.513-1-2.413A8.273,8.273,0,0,1,41.246,9.37c7.015,3.89,4.647,14.714-3.267,15.362l1.9,3.635c.565-.157.8-.639,1.361-.929a4.121,4.121,0,0,1,4.319.227c.344.2.419.685,1,.522A20.4,20.4,0,0,0,48.875,25.9c-1.433-1.781-1.952-3.892-.459-5.824a4.8,4.8,0,0,1,3.564-1.811l.067-3.487a4.345,4.345,0,0,1-3.171-7.489L46.3,4.824a4.281,4.281,0,0,1-7.373-3.171M31.358,20.129c1.272-.2,2.037-.5,3.285.113,1.271.622,1.657,2.025,2.491,3.043C46.6,23.005,45.8,8.907,36.161,9.873c-4.718.473-7.313,6.291-4.8,10.256m3.088,1.811a2.03,2.03,0,0,0-2.715-.055L15.811,49.436a1.944,1.944,0,0,0,1.847,2.65H48.5A2.021,2.021,0,0,0,50.46,49.8Zm-20.03.27L11.893,22.2a3.5,3.5,0,0,1-5.17,3.2c-.251-.109-.443-.44-.631-.49-.465-.125-1.513,1.31-1.917,1.641a3.555,3.555,0,0,1-2.405,6l-.083,2.468a3.593,3.593,0,0,1,3.372,4.457c-.128.754-.664,1.04-.838,1.7l1.746,1.584a3.579,3.579,0,0,1,6,2.53l2.45.144a3.671,3.671,0,0,1,3.849-3.66L23.753,32.4a3.473,3.473,0,0,1-1.612-5.718c.092-.424-1.281-1.362-1.5-1.8-.535-.085-.785.406-1.252.618a3.546,3.546,0,0,1-4.97-3.3m3.011,21.336a1.781,1.781,0,0,0-1.421,2.212Z" transform="translate(0 0)" fill="#fff"/>
            <path id="Trazado_1258896" data-name="Trazado 1258896" d="M176.014,200.505H179.1c.332,0,.6,1.071.245,1.353-2.027,1.976-3.653,4.373-5.618,6.4a2.447,2.447,0,0,1-.975.756c-.4.038-.965-.627-1.242-.914-1.909-1.975-3.506-4.3-5.453-6.245-.47-.293-.093-1.345.238-1.345h3.083V189.676a1.411,1.411,0,0,1,.319-.314,40.062,40.062,0,0,1,6,0,1.414,1.414,0,0,1,.319.314Zm-1.581-9.8h-3.478v10.513c0,1.169-1.819.77-2.528.947l4.209,4.812,4.326-4.811c-.542-.15-2.529.136-2.529-.79Z" transform="translate(-139.617 -159.332)" fill="#fff"/>
            <path id="Trazado_1258897" data-name="Trazado 1258897" d="M47.65,171.485c8.225-.892,10.261,11.408,2.129,13.194-9.039,1.986-11.365-12.193-2.129-13.194m-.161,1.577c-6.314.856-5.345,10.984,1.523,10.217,6.512-.727,5.624-11.187-1.523-10.217" transform="translate(-35.159 -144.337)" fill="#fff"/>
          </g>
        </g>
      </g>
    </g>
  </g>
</svg>
