<svg xmlns="http://www.w3.org/2000/svg" xmlns:xlink="http://www.w3.org/1999/xlink" width="499.52" height="318.504" viewBox="0 0 499.52 318.504">
  <defs>
    <clipPath id="clip-path">
      <rect id="Rectángulo_455600" data-name="Rectángulo 455600" width="185.582" height="118.988" fill="none"/>
    </clipPath>
  </defs>
  <g id="Grupo_1204846" data-name="Grupo 1204846" transform="translate(-810.48 -5649.717)">
    <g id="Grupo_1204235" data-name="Grupo 1204235" transform="translate(810.48 5649.717)">
      <rect id="Rectángulo_402012" data-name="Rectángulo 402012" width="499.52" height="318.233" fill="#eef4ff"/>
    </g>
    <g id="Grupo_1204566" data-name="Grupo 1204566" transform="translate(860.044 5689.333)">
      <g id="Grupo_1204561" data-name="Grupo 1204561">
        <g id="Grupo_1204568" data-name="Grupo 1204568">
          <path id="Trazado_1258942" data-name="Trazado 1258942" d="M397.651,282.733c.594-48.33-5.48-258.021-67.01-258.021-57.9,0-66.2,132.22-127.525,133S136.742,83.863,80.651,83.863c-48.726,0-66.2,157.5-69.954,198.87Z" transform="translate(-2.381 -4.918)" fill="#fff7d9"/>
          <path id="Trazado_1258943" data-name="Trazado 1258943" d="M52.735,213.385c0,15-11.81,27.163-26.373,27.16S0,228.378,0,213.375s11.81-27.163,26.373-27.161,26.365,12.168,26.362,27.171" transform="translate(0 -37.057)" fill="#6e9296"/>
          <path id="Trazado_1258944" data-name="Trazado 1258944" d="M49.755,214.453c0,12.628-9.94,22.862-22.2,22.86S5.369,227.072,5.371,214.445s9.94-22.862,22.2-22.86,22.19,10.241,22.188,22.868" transform="translate(-1.195 -38.126)" fill="#dde9eb"/>
          <path id="Trazado_1258945" data-name="Trazado 1258945" d="M16.539,211.029l13.768,4.354-1.238.275,14.388-13.428a.5.5,0,0,1,.713.037.533.533,0,0,1-.009.709L30.735,217.424l-.009.01a1.092,1.092,0,0,1-1.229.265l-13.3-5.693a.527.527,0,0,1-.273-.68.5.5,0,0,1,.615-.3" transform="translate(-3.535 -40.218)" fill="#6e9296"/>
          <path id="Trazado_1258946" data-name="Trazado 1258946" d="M34.839,195.619a1.3,1.3,0,1,1-1.3-1.334,1.315,1.315,0,0,1,1.3,1.334" transform="translate(-7.177 -38.664)" fill="#fff"/>
          <path id="Trazado_1258947" data-name="Trazado 1258947" d="M34.839,243.976a1.3,1.3,0,1,1-1.3-1.334,1.315,1.315,0,0,1,1.3,1.334" transform="translate(-7.177 -48.287)" fill="#fff"/>
          <path id="Trazado_1258948" data-name="Trazado 1258948" d="M22.577,198.191a1.357,1.357,0,0,1-.474,1.823,1.275,1.275,0,0,1-1.769-.489,1.357,1.357,0,0,1,.474-1.823,1.275,1.275,0,0,1,1.769.489" transform="translate(-4.486 -39.308)" fill="#fff"/>
          <path id="Trazado_1258949" data-name="Trazado 1258949" d="M46.755,240.07a1.357,1.357,0,0,1-.474,1.823,1.275,1.275,0,0,1-1.769-.489,1.357,1.357,0,0,1,.474-1.823,1.275,1.275,0,0,1,1.769.489" transform="translate(-9.867 -47.642)" fill="#fff"/>
          <path id="Trazado_1258950" data-name="Trazado 1258950" d="M13.253,206.553a1.357,1.357,0,0,1,.474,1.823,1.275,1.275,0,0,1-1.769.489,1.357,1.357,0,0,1-.474-1.823,1.275,1.275,0,0,1,1.769-.489" transform="translate(-2.517 -41.069)" fill="#fff"/>
          <path id="Trazado_1258951" data-name="Trazado 1258951" d="M55.132,230.732a1.357,1.357,0,0,1,.473,1.823,1.275,1.275,0,0,1-1.769.489,1.357,1.357,0,0,1-.474-1.823,1.276,1.276,0,0,1,1.77-.489" transform="translate(-11.837 -45.881)" fill="#fff"/>
          <path id="Trazado_1258952" data-name="Trazado 1258952" d="M9.365,218.463a1.335,1.335,0,1,1-1.3,1.334,1.315,1.315,0,0,1,1.3-1.334" transform="translate(-1.796 -43.475)" fill="#fff"/>
          <path id="Trazado_1258953" data-name="Trazado 1258953" d="M57.723,218.463a1.335,1.335,0,1,1-1.3,1.334,1.315,1.315,0,0,1,1.3-1.334" transform="translate(-12.558 -43.475)" fill="#fff"/>
          <path id="Trazado_1258954" data-name="Trazado 1258954" d="M11.957,230.732a1.275,1.275,0,0,1,1.769.489,1.357,1.357,0,0,1-.474,1.823,1.275,1.275,0,0,1-1.769-.489,1.357,1.357,0,0,1,.474-1.823" transform="translate(-2.517 -45.881)" fill="#fff"/>
          <path id="Trazado_1258955" data-name="Trazado 1258955" d="M53.836,206.553a1.275,1.275,0,0,1,1.769.489,1.357,1.357,0,0,1-.474,1.823,1.275,1.275,0,0,1-1.769-.489,1.357,1.357,0,0,1,.474-1.823" transform="translate(-11.837 -41.069)" fill="#fff"/>
          <path id="Trazado_1258956" data-name="Trazado 1258956" d="M20.332,240.07a1.275,1.275,0,0,1,1.769-.489,1.357,1.357,0,0,1,.474,1.823,1.275,1.275,0,0,1-1.769.489,1.357,1.357,0,0,1-.474-1.823" transform="translate(-4.486 -47.642)" fill="#fff"/>
          <path id="Trazado_1258957" data-name="Trazado 1258957" d="M44.511,198.191a1.275,1.275,0,0,1,1.769-.489,1.357,1.357,0,0,1,.474,1.823,1.275,1.275,0,0,1-1.769.489,1.357,1.357,0,0,1-.474-1.823" transform="translate(-9.867 -39.308)" fill="#fff"/>
          <path id="Trazado_1258958" data-name="Trazado 1258958" d="M498.37,239.177c0,16.315-12.837,29.541-28.673,29.541s-28.673-13.226-28.673-29.541,12.837-29.542,28.673-29.542,28.673,13.226,28.673,29.542" transform="translate(-98.147 -41.718)" fill="#4a75c9"/>
          <path id="Trazado_1258959" data-name="Trazado 1258959" d="M475.184,246.516l-9.507,27.871a27.845,27.845,0,0,0,9.507,1.671c15.5,0,28.121-12.675,28.648-28.513Z" transform="translate(-103.633 -49.058)" fill="#ebcc30"/>
          <path id="Trazado_1258960" data-name="Trazado 1258960" d="M506.376,248.056a30.233,30.233,0,0,0-.79-11.161L477.9,244.6Z" transform="translate(-106.355 -47.143)" fill="#28364f"/>
          <path id="Trazado_1258961" data-name="Trazado 1258961" d="M510.647,238.86a33.984,33.984,0,0,0-14.026-26.921l-18.716,27.7Z" transform="translate(-106.355 -42.177)" fill="#a4cacf"/>
          <path id="Trazado_1258962" data-name="Trazado 1258962" d="M460.878,274.4l9.483-27.879-26.35,11.656A29.118,29.118,0,0,0,460.878,274.4" transform="translate(-98.812 -49.058)" fill="#5dd2e4"/>
          <path id="Trazado_1258963" data-name="Trazado 1258963" d="M462.543,210.793a29.407,29.407,0,0,0-21.518,28.614,30.185,30.185,0,0,0,2.42,11.88l26.252-11.88Z" transform="translate(-98.147 -41.949)" fill="#28364f"/>
          <path id="Trazado_1258964" data-name="Trazado 1258964" d="M246.935,105.848H348.562l10.41-91.94H257.344Z" transform="translate(-54.954 -2.768)" fill="#28364f"/>
          <path id="Trazado_1258965" data-name="Trazado 1258965" d="M372.583,105.848H270.957l-10.41-91.94H362.174Z" transform="translate(-57.983 -2.768)" fill="#ebcc30"/>
          <path id="Trazado_1258966" data-name="Trazado 1258966" d="M364.109,31H262.482l-1.936-17.093H362.174Z" transform="translate(-57.983 -2.768)" fill="#4a75c9"/>
          <path id="Trazado_1258967" data-name="Trazado 1258967" d="M374.3,19.005c1.952-.156,3.223-3.4,2.788-7.242-.446-3.933-2.541-7.256-4.577-7.256s-3.379,3.323-2.933,7.256H368.1c-.55-4.856,1.316-8.66,4.249-8.66s5.66,3.8,6.21,8.66c.54,4.774-1.256,8.522-4.1,8.648Z" transform="translate(-81.897 -0.618)" fill="#28364f"/>
          <path id="Trazado_1258968" data-name="Trazado 1258968" d="M360.031,19.005c1.952-.156,3.223-3.4,2.788-7.242-.445-3.933-2.541-7.256-4.577-7.256s-3.379,3.323-2.933,7.256h-1.474c-.55-4.856,1.316-8.66,4.249-8.66s5.66,3.8,6.21,8.66c.54,4.774-1.256,8.522-4.1,8.648Z" transform="translate(-78.722 -0.618)" fill="#28364f"/>
          <path id="Trazado_1258969" data-name="Trazado 1258969" d="M345.764,19.005c1.952-.156,3.223-3.4,2.788-7.242-.445-3.933-2.541-7.256-4.577-7.256s-3.378,3.323-2.933,7.256h-1.474c-.55-4.856,1.316-8.66,4.249-8.66s5.66,3.8,6.21,8.66c.54,4.774-1.256,8.522-4.1,8.648Z" transform="translate(-75.547 -0.618)" fill="#28364f"/>
          <path id="Trazado_1258970" data-name="Trazado 1258970" d="M331.5,19.005c1.952-.156,3.223-3.4,2.788-7.242-.445-3.933-2.542-7.256-4.577-7.256s-3.379,3.323-2.933,7.256H325.3c-.55-4.856,1.316-8.66,4.249-8.66s5.66,3.8,6.21,8.66c.54,4.774-1.256,8.522-4.1,8.648Z" transform="translate(-72.372 -0.618)" fill="#28364f"/>
          <path id="Trazado_1258971" data-name="Trazado 1258971" d="M317.229,19.005c1.952-.156,3.223-3.4,2.788-7.242-.445-3.933-2.541-7.256-4.577-7.256s-3.379,3.323-2.933,7.256h-1.474c-.55-4.856,1.316-8.66,4.249-8.66s5.66,3.8,6.21,8.66c.54,4.774-1.256,8.522-4.1,8.648Z" transform="translate(-69.197 -0.618)" fill="#28364f"/>
          <path id="Trazado_1258972" data-name="Trazado 1258972" d="M302.962,19.005c1.952-.156,3.223-3.4,2.788-7.242-.445-3.933-2.541-7.256-4.577-7.256s-3.379,3.323-2.933,7.256h-1.474c-.55-4.856,1.316-8.66,4.249-8.66s5.66,3.8,6.21,8.66c.54,4.774-1.256,8.522-4.1,8.648Z" transform="translate(-66.022 -0.618)" fill="#28364f"/>
          <path id="Trazado_1258973" data-name="Trazado 1258973" d="M288.695,19.005c1.952-.156,3.223-3.4,2.788-7.242-.445-3.933-2.541-7.256-4.577-7.256s-3.379,3.323-2.933,7.256H282.5c-.55-4.856,1.316-8.66,4.249-8.66s5.66,3.8,6.21,8.66c.54,4.774-1.256,8.522-4.1,8.648Z" transform="translate(-62.847 -0.618)" fill="#28364f"/>
          <path id="Trazado_1258974" data-name="Trazado 1258974" d="M274.427,19.005c1.952-.156,3.223-3.4,2.788-7.242-.445-3.933-2.541-7.256-4.577-7.256s-3.378,3.323-2.933,7.256h-1.474c-.55-4.856,1.316-8.66,4.249-8.66s5.66,3.8,6.21,8.66c.54,4.774-1.256,8.522-4.1,8.648Z" transform="translate(-59.672 -0.618)" fill="#28364f"/>
          <path id="Trazado_1258975" data-name="Trazado 1258975" d="M334.078,53.742h-9.955l-.875-7.731H333.2Z" transform="translate(-71.937 -9.156)" fill="none" stroke="#fff" stroke-miterlimit="10" stroke-width="1.035"/>
          <path id="Trazado_1258976" data-name="Trazado 1258976" d="M351.139,53.742h-9.955l-.875-7.731h9.955Z" transform="translate(-75.733 -9.156)" fill="#67520c"/>
          <path id="Trazado_1258977" data-name="Trazado 1258977" d="M368.2,53.742h-9.955l-.875-7.731h9.955Z" transform="translate(-79.53 -9.156)" fill="none" stroke="#fff" stroke-miterlimit="10" stroke-width="1.035"/>
          <path id="Trazado_1258978" data-name="Trazado 1258978" d="M385.26,53.742h-9.955l-.875-7.731h9.955Z" transform="translate(-83.327 -9.156)" fill="#fff"/>
          <path id="Trazado_1258979" data-name="Trazado 1258979" d="M284.568,68.076h-9.955l-.875-7.731h9.955Z" transform="translate(-60.918 -12.009)" fill="none" stroke="#fff" stroke-miterlimit="10" stroke-width="1.035"/>
          <path id="Trazado_1258980" data-name="Trazado 1258980" d="M301.629,68.076h-9.955l-.875-7.731h9.955Z" transform="translate(-64.715 -12.009)" fill="#67520c"/>
          <path id="Trazado_1258981" data-name="Trazado 1258981" d="M318.69,68.076h-9.955l-.875-7.731h9.955Z" transform="translate(-68.512 -12.009)" fill="#67520c"/>
          <path id="Trazado_1258982" data-name="Trazado 1258982" d="M335.75,68.076h-9.955l-.875-7.731h9.955Z" transform="translate(-72.309 -12.009)" fill="none" stroke="#fff" stroke-miterlimit="10" stroke-width="1.035"/>
          <path id="Trazado_1258983" data-name="Trazado 1258983" d="M352.811,68.076h-9.955l-.875-7.731h9.955Z" transform="translate(-76.105 -12.009)" fill="none" stroke="#fff" stroke-miterlimit="10" stroke-width="1.035"/>
          <path id="Trazado_1258984" data-name="Trazado 1258984" d="M369.872,68.076h-9.955l-.875-7.731H369Z" transform="translate(-79.902 -12.009)" fill="none" stroke="#fff" stroke-miterlimit="10" stroke-width="1.035"/>
          <path id="Trazado_1258985" data-name="Trazado 1258985" d="M386.932,68.076h-9.955l-.875-7.731h9.955Z" transform="translate(-83.699 -12.009)" fill="#fff"/>
          <path id="Trazado_1258986" data-name="Trazado 1258986" d="M286.24,82.41h-9.955l-.875-7.731h9.955Z" transform="translate(-61.291 -14.861)" fill="none" stroke="#fff" stroke-miterlimit="10" stroke-width="1.035"/>
          <path id="Trazado_1258987" data-name="Trazado 1258987" d="M303.3,82.41h-9.955l-.875-7.731h9.955Z" transform="translate(-65.087 -14.861)" fill="none" stroke="#fff" stroke-miterlimit="10" stroke-width="1.035"/>
          <path id="Trazado_1258988" data-name="Trazado 1258988" d="M320.362,82.41h-9.955l-.875-7.731h9.955Z" transform="translate(-68.884 -14.861)" fill="none" stroke="#fff" stroke-miterlimit="10" stroke-width="1.035"/>
          <path id="Trazado_1258989" data-name="Trazado 1258989" d="M337.422,82.41h-9.955l-.875-7.731h9.955Z" transform="translate(-72.681 -14.861)" fill="none" stroke="#fff" stroke-miterlimit="10" stroke-width="1.035"/>
          <path id="Trazado_1258990" data-name="Trazado 1258990" d="M354.483,82.41h-9.955l-.875-7.731h9.955Z" transform="translate(-76.478 -14.861)" fill="#67520c"/>
          <path id="Trazado_1258991" data-name="Trazado 1258991" d="M371.544,82.41h-9.955l-.875-7.731h9.955Z" transform="translate(-80.275 -14.861)" fill="none" stroke="#fff" stroke-miterlimit="10" stroke-width="1.035"/>
          <path id="Trazado_1258992" data-name="Trazado 1258992" d="M388.6,82.41h-9.955l-.875-7.731h9.955Z" transform="translate(-84.071 -14.861)" fill="#fff"/>
          <path id="Trazado_1258993" data-name="Trazado 1258993" d="M287.912,96.744h-9.955l-.875-7.731h9.955Z" transform="translate(-61.663 -17.714)" fill="none" stroke="#fff" stroke-miterlimit="10" stroke-width="1.035"/>
          <path id="Trazado_1258994" data-name="Trazado 1258994" d="M304.973,96.744h-9.955l-.875-7.731H304.1Z" transform="translate(-65.459 -17.714)" fill="none" stroke="#fff" stroke-miterlimit="10" stroke-width="1.035"/>
          <path id="Trazado_1258995" data-name="Trazado 1258995" d="M322.034,96.744h-9.955l-.875-7.731h9.955Z" transform="translate(-69.256 -17.714)" fill="#67520c"/>
          <path id="Trazado_1258996" data-name="Trazado 1258996" d="M339.095,96.744h-9.955l-.875-7.731h9.955Z" transform="translate(-73.053 -17.714)" fill="none" stroke="#fff" stroke-miterlimit="10" stroke-width="1.035"/>
          <path id="Trazado_1258997" data-name="Trazado 1258997" d="M356.155,96.744H346.2l-.875-7.731h9.955Z" transform="translate(-76.85 -17.714)" fill="none" stroke="#fff" stroke-miterlimit="10" stroke-width="1.035"/>
          <path id="Trazado_1258998" data-name="Trazado 1258998" d="M373.216,96.744H363.26l-.875-7.731h9.955Z" transform="translate(-80.646 -17.714)" fill="none" stroke="#fff" stroke-miterlimit="10" stroke-width="1.035"/>
          <path id="Trazado_1258999" data-name="Trazado 1258999" d="M390.277,96.744h-9.955l-.875-7.731H389.4Z" transform="translate(-84.443 -17.714)" fill="#fff"/>
          <path id="Trazado_1259000" data-name="Trazado 1259000" d="M289.584,111.078h-9.955l-.875-7.731h9.955Z" transform="translate(-62.035 -20.567)" fill="none" stroke="#fff" stroke-miterlimit="10" stroke-width="1.035"/>
          <path id="Trazado_1259001" data-name="Trazado 1259001" d="M306.645,111.078H296.69l-.875-7.731h9.955Z" transform="translate(-65.832 -20.567)" fill="none" stroke="#fff" stroke-miterlimit="10" stroke-width="1.035"/>
          <path id="Trazado_1259002" data-name="Trazado 1259002" d="M323.706,111.078H313.75l-.875-7.731h9.955Z" transform="translate(-69.628 -20.567)" fill="#67520c"/>
          <path id="Trazado_1259003" data-name="Trazado 1259003" d="M340.766,111.078h-9.955l-.875-7.731h9.955Z" transform="translate(-73.425 -20.567)" fill="none" stroke="#fff" stroke-miterlimit="10" stroke-width="1.035"/>
          <path id="Trazado_1259004" data-name="Trazado 1259004" d="M357.827,111.078h-9.955L347,103.347h9.955Z" transform="translate(-77.222 -20.567)" fill="none" stroke="#fff" stroke-miterlimit="10" stroke-width="1.035"/>
          <path id="Trazado_1259005" data-name="Trazado 1259005" d="M388.1,185.826V171.4h-12.18a28.262,28.262,0,0,0-2.72-6.76l8.613-8.874-9.9-10.2-8.614,8.875a26.5,26.5,0,0,0-6.562-2.8V139.082H342.728V151.63a26.5,26.5,0,0,0-6.562,2.8l-8.614-8.875-9.9,10.2,8.613,8.874a28.264,28.264,0,0,0-2.72,6.76h-12.18v14.431h12.18a28.263,28.263,0,0,0,2.72,6.76l-8.613,8.874,9.9,10.2,8.614-8.875a26.5,26.5,0,0,0,6.562,2.8V218.14h14.006V205.592a26.5,26.5,0,0,0,6.562-2.8l8.614,8.875,9.9-10.2-8.613-8.874a28.262,28.262,0,0,0,2.72-6.76Zm-25.237-7.215a13.137,13.137,0,1,1-13.131-13.528,13.35,13.35,0,0,1,13.131,13.528" transform="translate(-69.292 -27.678)" fill="#5dd2e4"/>
        </g>
      </g>
      <g id="Grupo_1204563" data-name="Grupo 1204563" transform="translate(159.756 154.661)">
        <g id="Grupo_1204562" data-name="Grupo 1204562" clip-path="url(#clip-path)">
          <path id="Trazado_1259006" data-name="Trazado 1259006" d="M392.547,320.805v-24.95h-21.7A47.983,47.983,0,0,0,366,284.165l15.345-15.345-17.642-17.641-15.345,15.345a47.992,47.992,0,0,0-11.688-4.846v-21.7H311.722v21.7a47.984,47.984,0,0,0-11.689,4.846l-15.345-15.345L267.046,268.82l15.345,15.345a47.988,47.988,0,0,0-4.846,11.689h-21.7v24.95h21.7a47.988,47.988,0,0,0,4.846,11.689L267.046,347.84l17.641,17.641,15.345-15.344a48.017,48.017,0,0,0,11.689,4.845v21.7h24.951v-21.7a48.026,48.026,0,0,0,11.688-4.845l15.345,15.344,17.642-17.641L366,332.495a47.983,47.983,0,0,0,4.845-11.689ZM347.589,308.33A23.392,23.392,0,1,1,324.2,284.938a23.42,23.42,0,0,1,23.392,23.392" transform="translate(-229.237 -214.975)" fill="#ebcc30"/>
        </g>
      </g>
      <g id="Grupo_1204565" data-name="Grupo 1204565">
        <g id="Grupo_1204567" data-name="Grupo 1204567">
          <path id="Trazado_1259007" data-name="Trazado 1259007" d="M275.242,286.254H116.769L93.558,42.4H252.031Z" transform="translate(-20.821 -8.438)" fill="#4a75c9"/>
          <path id="Trazado_1259008" data-name="Trazado 1259008" d="M267.772,279.384H133.613L112.142,53.814H246.3Z" transform="translate(-24.957 -10.709)" fill="#fff"/>
          <path id="Trazado_1259009" data-name="Trazado 1259009" d="M204.429,43.862H180.363l-2.074-21.789c-.652-6.847,4.208-12.4,10.853-12.4s12.561,5.55,13.212,12.4Z" transform="translate(-39.664 -1.926)" fill="#ebcc30"/>
          <path id="Trazado_1259010" data-name="Trazado 1259010" d="M196.437,24.958a3.289,3.289,0,0,1-3.268,3.733,4.136,4.136,0,0,1-3.978-3.733,3.289,3.289,0,0,1,3.268-3.733A4.136,4.136,0,0,1,196.437,24.958Z" transform="translate(-42.099 -4.224)" fill="none" stroke="#fff" stroke-miterlimit="10" stroke-width="1.035"/>
          <path id="Trazado_1259011" data-name="Trazado 1259011" d="M178.881,31.016l24.512,4.7.885,9.3H180.213Z" transform="translate(-39.809 -6.172)" fill="#1b2536"/>
          <path id="Trazado_1259012" data-name="Trazado 1259012" d="M208.556,60.508H167.785c-6.14,0-11.606-5.128-12.208-11.454L154.6,38.813h63.007l.974,10.241c.6,6.326-3.887,11.454-10.027,11.454" transform="translate(-34.406 -7.724)" fill="#ebcc30"/>
          <line id="Línea_3420" data-name="Línea 3420" x2="51.412" transform="translate(126.731 38.837)" fill="none" stroke="#fff" stroke-miterlimit="10" stroke-width="1.035"/>
          <line id="Línea_3421" data-name="Línea 3421" x2="51.412" transform="translate(127.169 43.439)" fill="none" stroke="#fff" stroke-miterlimit="10" stroke-width="1.035"/>
          <path id="Trazado_1259013" data-name="Trazado 1259013" d="M146.457,109.94h-13.8a4.777,4.777,0,0,1-4.6-4.313l-1.353-14.212a3.8,3.8,0,0,1,3.775-4.313h13.8a4.779,4.779,0,0,1,4.6,4.313l1.353,14.212a3.8,3.8,0,0,1-3.775,4.313" transform="translate(-28.195 -17.334)" fill="#9db7fe"/>
          <path id="Trazado_1259014" data-name="Trazado 1259014" d="M192.536,92.926H164.5a2.446,2.446,0,0,1-2.353-2.208,1.945,1.945,0,0,1,1.933-2.207h28.035a2.445,2.445,0,0,1,2.352,2.207A1.944,1.944,0,0,1,192.536,92.926Z" transform="translate(-36.083 -17.614)" fill="none" stroke="#4a75c9" stroke-miterlimit="10" stroke-width="0.695"/>
          <path id="Trazado_1259015" data-name="Trazado 1259015" d="M213.559,103.017H165.49a2.446,2.446,0,0,1-2.352-2.208A1.944,1.944,0,0,1,165.07,98.6h48.069a2.445,2.445,0,0,1,2.353,2.207A1.944,1.944,0,0,1,213.559,103.017Z" transform="translate(-36.303 -19.622)" fill="none" stroke="#4a75c9" stroke-miterlimit="10" stroke-width="0.695"/>
          <path id="Trazado_1259016" data-name="Trazado 1259016" d="M227.118,113.109H166.48a2.446,2.446,0,0,1-2.353-2.208,1.944,1.944,0,0,1,1.932-2.207H226.7a2.445,2.445,0,0,1,2.352,2.207A1.944,1.944,0,0,1,227.118,113.109Z" transform="translate(-36.523 -21.631)" fill="none" stroke="#4a75c9" stroke-miterlimit="10" stroke-width="0.695"/>
          <path id="Trazado_1259017" data-name="Trazado 1259017" d="M152.224,168.744h-13.8a4.777,4.777,0,0,1-4.6-4.313L132.48,150.22a3.8,3.8,0,0,1,3.775-4.313h13.8a4.778,4.778,0,0,1,4.6,4.313L156,164.432a3.8,3.8,0,0,1-3.775,4.313" transform="translate(-29.478 -29.036)" fill="#ebcc30"/>
          <path id="Trazado_1259018" data-name="Trazado 1259018" d="M230.906,151.73H170.268a2.446,2.446,0,0,1-2.353-2.208,1.944,1.944,0,0,1,1.932-2.207h60.639a2.445,2.445,0,0,1,2.352,2.207A1.944,1.944,0,0,1,230.906,151.73Z" transform="translate(-37.366 -29.317)" fill="none" stroke="#4a75c9" stroke-miterlimit="10" stroke-width="0.695"/>
          <path id="Trazado_1259019" data-name="Trazado 1259019" d="M219.326,161.821H171.258a2.446,2.446,0,0,1-2.353-2.208,1.944,1.944,0,0,1,1.932-2.207h48.069a2.445,2.445,0,0,1,2.352,2.207A1.944,1.944,0,0,1,219.326,161.821Z" transform="translate(-37.586 -31.325)" fill="none" stroke="#4a75c9" stroke-miterlimit="10" stroke-width="0.695"/>
          <path id="Trazado_1259020" data-name="Trazado 1259020" d="M232.885,171.913H172.247a2.446,2.446,0,0,1-2.353-2.208,1.944,1.944,0,0,1,1.932-2.207h60.638a2.446,2.446,0,0,1,2.353,2.207A1.944,1.944,0,0,1,232.885,171.913Z" transform="translate(-37.807 -33.333)" fill="none" stroke="#4a75c9" stroke-miterlimit="10" stroke-width="0.695"/>
          <path id="Trazado_1259021" data-name="Trazado 1259021" d="M157.991,227.548H144.2a4.777,4.777,0,0,1-4.6-4.313l-1.353-14.212a3.8,3.8,0,0,1,3.775-4.313h13.8a4.778,4.778,0,0,1,4.6,4.313l1.353,14.212a3.8,3.8,0,0,1-3.775,4.313" transform="translate(-30.761 -40.738)" fill="#9db7fe"/>
          <path id="Trazado_1259022" data-name="Trazado 1259022" d="M204.069,210.533H176.034a2.446,2.446,0,0,1-2.353-2.208,1.945,1.945,0,0,1,1.933-2.207h28.034A2.445,2.445,0,0,1,206,208.326,1.944,1.944,0,0,1,204.069,210.533Z" transform="translate(-38.649 -41.019)" fill="none" stroke="#4a75c9" stroke-miterlimit="10" stroke-width="0.695"/>
          <path id="Trazado_1259023" data-name="Trazado 1259023" d="M237.662,220.625H177.024a2.446,2.446,0,0,1-2.353-2.208,1.944,1.944,0,0,1,1.932-2.207h60.639a2.446,2.446,0,0,1,2.353,2.207A1.945,1.945,0,0,1,237.662,220.625Z" transform="translate(-38.87 -43.027)" fill="none" stroke="#4a75c9" stroke-miterlimit="10" stroke-width="0.695"/>
          <path id="Trazado_1259024" data-name="Trazado 1259024" d="M238.652,230.716H178.014a2.446,2.446,0,0,1-2.353-2.208,1.944,1.944,0,0,1,1.932-2.207h60.639a2.445,2.445,0,0,1,2.352,2.207A1.944,1.944,0,0,1,238.652,230.716Z" transform="translate(-39.09 -45.035)" fill="none" stroke="#4a75c9" stroke-miterlimit="10" stroke-width="0.695"/>
          <path id="Trazado_1259025" data-name="Trazado 1259025" d="M163.757,286.351h-13.8a4.777,4.777,0,0,1-4.6-4.313l-1.353-14.212a3.8,3.8,0,0,1,3.775-4.313h13.8a4.779,4.779,0,0,1,4.6,4.313l1.353,14.212a3.8,3.8,0,0,1-3.775,4.313" transform="translate(-32.045 -52.44)" fill="#ebcc30"/>
          <path id="Trazado_1259026" data-name="Trazado 1259026" d="M242.439,269.337H181.8a2.446,2.446,0,0,1-2.353-2.207,1.944,1.944,0,0,1,1.932-2.207h60.639a2.446,2.446,0,0,1,2.352,2.207A1.944,1.944,0,0,1,242.439,269.337Z" transform="translate(-39.933 -52.721)" fill="none" stroke="#4a75c9" stroke-miterlimit="10" stroke-width="0.695"/>
          <path id="Trazado_1259027" data-name="Trazado 1259027" d="M230.859,279.429H182.791a2.446,2.446,0,0,1-2.353-2.208,1.944,1.944,0,0,1,1.932-2.207h48.069a2.445,2.445,0,0,1,2.352,2.207A1.944,1.944,0,0,1,230.859,279.429Z" transform="translate(-40.153 -54.729)" fill="none" stroke="#4a75c9" stroke-miterlimit="10" stroke-width="0.695"/>
          <path id="Trazado_1259028" data-name="Trazado 1259028" d="M244.419,289.52H183.781a2.446,2.446,0,0,1-2.353-2.208,1.944,1.944,0,0,1,1.932-2.207H244a2.445,2.445,0,0,1,2.352,2.207A1.944,1.944,0,0,1,244.419,289.52Z" transform="translate(-40.373 -56.737)" fill="none" stroke="#4a75c9" stroke-miterlimit="10" stroke-width="0.695"/>
          <path id="Trazado_1259029" data-name="Trazado 1259029" d="M256.3,97.321l8.038,8.309,9.226-11.367" transform="translate(-57.038 -18.759)" fill="none" stroke="#599e84" stroke-linecap="round" stroke-linejoin="round" stroke-width="3.954"/>
          <path id="Trazado_1259030" data-name="Trazado 1259030" d="M267.834,214.929l8.039,8.309L285.1,211.87" transform="translate(-59.605 -42.163)" fill="none" stroke="#599e84" stroke-linecap="round" stroke-linejoin="round" stroke-width="3.954"/>
          <path id="Trazado_1259031" data-name="Trazado 1259031" d="M273.6,273.732l8.039,8.309,9.225-11.367" transform="translate(-60.888 -53.865)" fill="none" stroke="#599e84" stroke-linecap="round" stroke-linejoin="round" stroke-width="3.954"/>
          <line id="Línea_3422" data-name="Línea 3422" x2="14.249" y2="12.366" transform="translate(206.174 122.107)" fill="none" stroke="#d65353" stroke-linecap="round" stroke-linejoin="round" stroke-width="3.954"/>
          <line id="Línea_3423" data-name="Línea 3423" x1="11.895" y2="12.366" transform="translate(207.351 122.107)" fill="none" stroke="#d65353" stroke-linecap="round" stroke-linejoin="round" stroke-width="3.954"/>
          <path id="Trazado_1259032" data-name="Trazado 1259032" d="M417.881,315.616l-.009,11.6a7.3,7.3,0,0,0,.406,2.424,32.633,32.633,0,0,1,1.813,11.321l-25.951-.023s1.518-3.54,8.392-5.713a9.311,9.311,0,0,0,3.315-1.906l2.531-2.22a5.413,5.413,0,0,0,1.736-4.994l-1.829-10.5Z" transform="translate(-87.713 -62.807)" fill="#de6767"/>
          <path id="Trazado_1259033" data-name="Trazado 1259033" d="M418.87,335.475l-6.293,3.089-4.639-3.134-2.092,1.834a9.307,9.307,0,0,1-3.315,1.906c-6.873,2.173-8.391,5.714-8.391,5.714l25.951.022a31.977,31.977,0,0,0-1.221-9.431" transform="translate(-87.713 -66.752)" fill="#1b2536"/>
          <path id="Trazado_1259034" data-name="Trazado 1259034" d="M451.623,315.64l2.252,13.016a6.274,6.274,0,0,1,.028,1.966l-1.489,10.362,19.868.017s-.267-3.063-1.214-3.9-3.646-2.928-3.646-2.928l-4.055-4.34a5.824,5.824,0,0,1-1.546-3.61l-.669-10.576Z" transform="translate(-100.506 -62.814)" fill="#de6767"/>
          <path id="Trazado_1259035" data-name="Trazado 1259035" d="M463.746,333.566a9.654,9.654,0,0,0-6.877,3.557l-2.934-1.587-1.3,9.015,19.869.018s-.268-3.064-1.214-3.9-3.646-2.928-3.646-2.928Z" transform="translate(-100.732 -66.381)" fill="#1b2536"/>
          <path id="Trazado_1259036" data-name="Trazado 1259036" d="M411.957,140.759l8.522-9.392,10.34-.061,5.77,9.474-4.907,31.4-19.244-.017Z" transform="translate(-91.678 -26.131)" fill="#d4b5a5"/>
          <path id="Trazado_1259037" data-name="Trazado 1259037" d="M420.475,143.113l5.919-5.077,7.021,7.108" transform="translate(-93.574 -27.47)" fill="none" stroke="#fff" stroke-miterlimit="10" stroke-width="0.464"/>
          <line id="Línea_3424" data-name="Línea 3424" x1="3.793" y2="30.075" transform="translate(329.024 112.968)" fill="none" stroke="#fff" stroke-miterlimit="10" stroke-width="0.464"/>
          <path id="Trazado_1259038" data-name="Trazado 1259038" d="M439.061,198.356,455,290.624l-18.246-.016L418.02,207.877l5.557,83.764-18.449-.016-5.121-97.237,8.4-11.868,26.474.719Z" transform="translate(-89.019 -36.322)" fill="#415780"/>
          <path id="Trazado_1259039" data-name="Trazado 1259039" d="M439.062,198.356l-4.177-15.117-26.474-.719-8.4,11.868.128,2.42c5.743.123,24.663,1.014,39.925,7.325Z" transform="translate(-89.019 -36.322)" fill="#28364f"/>
          <path id="Trazado_1259040" data-name="Trazado 1259040" d="M422.618,208.347l-1.948-7.955,1.375-15.509" transform="translate(-93.618 -36.793)" fill="none" stroke="#1b2536" stroke-miterlimit="10" stroke-width="0.464"/>
          <line id="Línea_3425" data-name="Línea 3425" x2="17.369" y2="0.015" transform="translate(321.15 165.177)" fill="none" stroke="#1b2536" stroke-miterlimit="10" stroke-width="0.464"/>
          <line id="Línea_3426" data-name="Línea 3426" x2="0.994" y2="13.926" transform="translate(326.2 148.088)" fill="none" stroke="#1b2536" stroke-miterlimit="10" stroke-width="0.464"/>
          <line id="Línea_3427" data-name="Línea 3427" x2="4.783" y2="101.239" transform="translate(317.003 154.068)" fill="none" stroke="#1b2536" stroke-miterlimit="10" stroke-width="0.464"/>
          <line id="Línea_3428" data-name="Línea 3428" x2="17.673" y2="100.206" transform="translate(339.998 154.088)" fill="none" stroke="#1b2536" stroke-miterlimit="10" stroke-width="0.464"/>
          <rect id="Rectángulo_455601" data-name="Rectángulo 455601" width="25.369" height="4.168" transform="translate(318.901 144.821)" fill="#1b2536"/>
          <path id="Trazado_1259041" data-name="Trazado 1259041" d="M423.653,99.94a11.6,11.6,0,0,1,9.015,7.945c.809,2.246.959,4.544,2.884,5.955a4.975,4.975,0,0,1,2.074,4.6,4.359,4.359,0,0,0,1.466,3.814l-28.231-.025s1.574-2.453,1.271-4.542-1.265-3.5-.554-5.64,1.673-3.1.309-4.909c-1.975-2.613,1.123-9.138,11.764-7.2" transform="translate(-91.435 -19.818)" fill="#732727"/>
          <path id="Trazado_1259042" data-name="Trazado 1259042" d="M423.767,105.96c0,.905.739,6.058,4.791,8.08l.3,2.89,2.73,9.332L425.2,131.1l-3.949-4.773,0-4.212a4.331,4.331,0,0,1-5-4.255c-.166-2.924-.03-5.463-.839-7.03,0,0,4.122-.066,8.35-4.867" transform="translate(-92.448 -21.087)" fill="#de6767"/>
          <path id="Trazado_1259043" data-name="Trazado 1259043" d="M428.186,118.827a1.453,1.453,0,1,1-1.452-1.5,1.475,1.475,0,0,1,1.452,1.5" transform="translate(-94.644 -23.349)" fill="#d65353"/>
          <path id="Trazado_1259044" data-name="Trazado 1259044" d="M423.478,125.408a6.35,6.35,0,0,0,4.69-2.528" transform="translate(-94.242 -24.454)" fill="none" stroke="#422424" stroke-miterlimit="10" stroke-width="0.464"/>
          <path id="Trazado_1259045" data-name="Trazado 1259045" d="M434.551,115.915c-.708,1.653-2.287,2.538-3.524,1.974s-1.666-2.36-.958-4.014,2.287-2.537,3.524-1.974,1.666,2.36.958,4.013" transform="translate(-95.633 -22.235)" fill="#de6767"/>
          <path id="Trazado_1259046" data-name="Trazado 1259046" d="M431.146,116.3s.458-2.506,2.562-3" transform="translate(-95.949 -22.547)" fill="none" stroke="#422424" stroke-miterlimit="10" stroke-width="0.464"/>
          <line id="Línea_3429" data-name="Línea 3429" x1="0.32" y1="1.552" transform="translate(336.678 91.263)" fill="none" stroke="#422424" stroke-miterlimit="10" stroke-width="0.464"/>
          <path id="Trazado_1259047" data-name="Trazado 1259047" d="M435.136,118.755a.98.98,0,1,1-.979-1.01A.995.995,0,0,1,435.136,118.755Z" transform="translate(-96.401 -23.432)" fill="none" stroke="#fff" stroke-miterlimit="10" stroke-width="0.464"/>
          <path id="Trazado_1259048" data-name="Trazado 1259048" d="M418.763,116.545l.327-.487a.718.718,0,0,0-.644-.236.763.763,0,0,0-.617.876.747.747,0,0,0,.851.636.763.763,0,0,0,.618-.876.827.827,0,0,0-.03-.084Z" transform="translate(-92.983 -23.047)" fill="#1b2536"/>
          <path id="Trazado_1259049" data-name="Trazado 1259049" d="M424.665,115.608l.327-.487a.718.718,0,0,0-.644-.237.764.764,0,0,0-.617.877.747.747,0,0,0,.851.636.763.763,0,0,0,.618-.876.722.722,0,0,0-.03-.084Z" transform="translate(-94.296 -22.861)" fill="#1b2536"/>
          <path id="Trazado_1259050" data-name="Trazado 1259050" d="M421.193,116.538s.016.818,0,1.5.76,1.044,1.6.471" transform="translate(-93.733 -23.192)" fill="none" stroke="#422424" stroke-miterlimit="10" stroke-width="0.464"/>
          <path id="Trazado_1259051" data-name="Trazado 1259051" d="M421.516,120.318A3.438,3.438,0,0,0,425.268,119" transform="translate(-93.806 -23.681)" fill="none" stroke="#422424" stroke-miterlimit="10" stroke-width="0.464"/>
          <line id="Línea_3430" data-name="Línea 3430" x2="0.857" y2="0.54" transform="translate(330.91 94.986)" fill="none" stroke="#422424" stroke-miterlimit="10" stroke-width="0.464"/>
          <path id="Trazado_1259052" data-name="Trazado 1259052" d="M422.718,112.937a5.681,5.681,0,0,1,3.125-.154" transform="translate(-94.073 -22.409)" fill="none" stroke="#732727" stroke-linecap="round" stroke-linejoin="round" stroke-width="0.971"/>
          <path id="Trazado_1259053" data-name="Trazado 1259053" d="M417.262,114.062a3.213,3.213,0,0,1,2.467-.276" transform="translate(-92.859 -22.616)" fill="none" stroke="#732727" stroke-linecap="round" stroke-linejoin="round" stroke-width="0.971"/>
          <path id="Trazado_1259054" data-name="Trazado 1259054" d="M434.4,131.306l-6.214,39.255a11.125,11.125,0,0,0,.375,5.074l2.46,7.814a2.082,2.082,0,0,0,3.051,1.21l12.152-7.215-5.265-8.255,6.974-25.331a7.315,7.315,0,0,0-4.177-8.724Z" transform="translate(-95.26 -26.13)" fill="#415780"/>
          <line id="Línea_3431" data-name="Línea 3431" x1="6.425" y2="5.555" transform="translate(336.605 143.438)" fill="none" stroke="#1b2536" stroke-miterlimit="10" stroke-width="0.464"/>
          <path id="Trazado_1259055" data-name="Trazado 1259055" d="M435.632,133.114l.585.925a9.546,9.546,0,0,1,.327,9.6l-1.13,2.093,1.261,3.846a6.792,6.792,0,0,1-.358,5.108L429.466,168.6" transform="translate(-95.575 -26.49)" fill="none" stroke="#1b2536" stroke-miterlimit="10" stroke-width="0.464"/>
          <path id="Trazado_1259056" data-name="Trazado 1259056" d="M442.325,178.6l-8.136,15.741a2.027,2.027,0,0,0,1.249-.271l12.151-7.215Z" transform="translate(-96.626 -35.542)" fill="#1b2536"/>
          <path id="Trazado_1259057" data-name="Trazado 1259057" d="M444.892,154.3,445.744,170l3.1-11.244Z" transform="translate(-99.008 -30.707)" fill="#1b2536"/>
          <path id="Trazado_1259058" data-name="Trazado 1259058" d="M437.076,196.22l8.3,1.906-5.085-5.753Z" transform="translate(-97.268 -38.283)" fill="#de6767"/>
          <path id="Trazado_1259059" data-name="Trazado 1259059" d="M414.855,131.382l-4.966,50.334a2.738,2.738,0,0,1-2.694,2.506l-12.252-.011s4.875-12.127,8.834-18.8l-.1-3.647-5.759,6.249a6.375,6.375,0,0,1-8.618.76,6.846,6.846,0,0,1-1.577-9.026l12.439-19.823a12.51,12.51,0,0,1,5.871-4.956Z" transform="translate(-86.054 -26.146)" fill="#415780"/>
          <path id="Trazado_1259060" data-name="Trazado 1259060" d="M420.623,132.359c-1.421,2.192-5.225,5.479-2.291,12.322-3.045,5.532-3.66,13-1.437,22.138" transform="translate(-92.481 -26.34)" fill="none" stroke="#1b2536" stroke-miterlimit="10" stroke-width="0.464"/>
          <line id="Línea_3432" data-name="Línea 3432" y1="10.269" x2="1.116" transform="translate(311.407 127.99)" fill="none" stroke="#1b2536" stroke-miterlimit="10" stroke-width="0.464"/>
          <path id="Trazado_1259061" data-name="Trazado 1259061" d="M419.059,164.3l-19.293-.017L390.3,136.231l19.293.017Z" transform="translate(-86.859 -27.111)" fill="#d9956a"/>
          <path id="Trazado_1259062" data-name="Trazado 1259062" d="M442.924,149.628l8.84,16.091-10.555,15.169,7.022,7.943,14.707-14.061a10.276,10.276,0,0,0,2.025-12l-9.827-19.51a14.934,14.934,0,0,0-7.66-7.134l-3.579-1.464Z" transform="translate(-98.188 -26.798)" fill="#415780"/>
          <line id="Línea_3433" data-name="Línea 3433" y1="3.27" x2="2.402" transform="translate(353.576 135.651)" fill="none" stroke="#1b2536" stroke-miterlimit="10" stroke-width="0.464"/>
          <path id="Trazado_1259063" data-name="Trazado 1259063" d="M391.554,154.512a11.174,11.174,0,0,1,2.537-2.687,17.008,17.008,0,0,1,2.019-1.219.936.936,0,0,1,1.125.205l.967,1.05a1.012,1.012,0,0,1,.13,1.186l-2.244,3.9s3.321-1.825,3.549-1.668a14.33,14.33,0,0,1-2.185,2.73,2.789,2.789,0,0,1-3.427.618c-1.389-.765-2.888-2.083-2.472-4.112" transform="translate(-87.122 -29.95)" fill="#de6767"/>
          <line id="Línea_3434" data-name="Línea 3434" y1="3.113" x2="3.886" transform="translate(306.409 121.059)" fill="none" stroke="#422424" stroke-miterlimit="10" stroke-width="0.464"/>
          <line id="Línea_3435" data-name="Línea 3435" y1="4.026" x2="3.216" transform="translate(307.801 121.923)" fill="none" stroke="#422424" stroke-miterlimit="10" stroke-width="0.464"/>
          <line id="Línea_3436" data-name="Línea 3436" x2="407.749" y2="0.354" transform="translate(1.709 277.834)" fill="none" stroke="#28364f" stroke-miterlimit="10" stroke-width="1.399"/>
          <path id="Trazado_1259064" data-name="Trazado 1259064" d="M87.142,89.812a3.454,3.454,0,0,0-4.5-2,4.128,4.128,0,0,0-1.406.793A3.9,3.9,0,0,0,76.9,87.2a3.958,3.958,0,0,0-1.973,1.438,3.888,3.888,0,0,0-4.018-1.032,3.974,3.974,0,0,0-2.129,1.66,3.25,3.25,0,0,0-2.056-.019,3.493,3.493,0,0,0-2.2,4.355,3.409,3.409,0,0,0,2.007,2.183l2.664,5,12.35-3.307,2.229-3.2a4.138,4.138,0,0,0,.791-.171,3.6,3.6,0,0,0,2.578-4.295" transform="translate(-14.324 -17.316)" fill="#1b2536"/>
          <path id="Trazado_1259065" data-name="Trazado 1259065" d="M143.527,132.709l5.609-6.858s.27-3.794,2.027-5.848,3.446-2.924,3.785-2.785-2.061,4.143-2.061,4.143A8.248,8.248,0,0,0,156.469,120c1.318-1.08,3.953-3.969,4.764-3.552s1.521,5.013-1.825,8.843a3.264,3.264,0,0,0,1.96-.734c.946-.763,1.521-1.459,1.892-1.076s-1.081,2.61-2.028,3.2a12.572,12.572,0,0,1-2.129,1.01,9.952,9.952,0,0,1-5.681,2.82l-3.172,7.415Z" transform="translate(-31.941 -23.166)" fill="#9e643e"/>
          <path id="Trazado_1259066" data-name="Trazado 1259066" d="M160.316,122.505a19.6,19.6,0,0,0,4.712-5.2" transform="translate(-35.677 -23.345)" fill="none" stroke="#422424" stroke-miterlimit="10" stroke-width="0.464"/>
          <path id="Trazado_1259067" data-name="Trazado 1259067" d="M162.009,124.564s2.154-2.481,3.548-4.386" transform="translate(-36.054 -23.916)" fill="none" stroke="#422424" stroke-miterlimit="10" stroke-width="0.464"/>
          <path id="Trazado_1259068" data-name="Trazado 1259068" d="M159.466,122.916a15.831,15.831,0,0,1,2.661,3.525" transform="translate(-35.488 -24.461)" fill="none" stroke="#422424" stroke-miterlimit="10" stroke-width="0.464"/>
          <path id="Trazado_1259069" data-name="Trazado 1259069" d="M153.468,129.32a8.215,8.215,0,0,1,6.285-2.025" transform="translate(-34.153 -25.316)" fill="none" stroke="#422424" stroke-miterlimit="10" stroke-width="0.464"/>
          <path id="Trazado_1259070" data-name="Trazado 1259070" d="M146,132.99l-2.469,3.018,6.724,5.222,2-4.675Z" transform="translate(-31.941 -26.466)" fill="#28364f"/>
          <path id="Trazado_1259071" data-name="Trazado 1259071" d="M107.682,128.061,122.477,143.9l11.286-12.6,9.393,8.773s-9.729,16.023-12.77,20.966-11.086,6.745-17.371-.148c-5.841-6.406-15-17.475-15-17.475l-3.068-21.335,1.257.147a18.67,18.67,0,0,1,11.48,5.838" transform="translate(-21.129 -24.294)" fill="#546169"/>
          <path id="Trazado_1259072" data-name="Trazado 1259072" d="M104.641,132.4l5.736,25.706-8.011-9.4Z" transform="translate(-22.781 -26.348)" fill="#1b2536"/>
          <path id="Trazado_1259073" data-name="Trazado 1259073" d="M75.107,319.167l-.218,7.215A6.039,6.039,0,0,0,78.209,332l5.99,2.947a8.669,8.669,0,0,1,3.917,3.919,1.639,1.639,0,0,1-1.4,2.392c-6.646.046-23.8.15-23.635-.018s1.788-7.259,2.4-9.96a5.822,5.822,0,0,0,.093-2.075l-1.347-10.036Z" transform="translate(-14.038 -63.516)" fill="#9e643e"/>
          <path id="Trazado_1259074" data-name="Trazado 1259074" d="M139.23,319.167l1.328,7.215A7.941,7.941,0,0,0,145.082,332l6.622,2.947a11.825,11.825,0,0,1,4.757,3.919,1.507,1.507,0,0,1-1.164,2.394c-6.821.047-23.491.145-23.365-.021s.232-7.259.267-9.96a6.1,6.1,0,0,0-.351-2.075l-3.5-10.036Z" transform="translate(-28.563 -63.516)" fill="#9e643e"/>
          <path id="Trazado_1259075" data-name="Trazado 1259075" d="M98.657,187.111,126.5,294.056H109.469L78.484,201.312l-2.129,92.743H60.677L56.234,189.392l27.488-13.2Z" transform="translate(-12.514 -35.062)" fill="#546169"/>
          <path id="Trazado_1259076" data-name="Trazado 1259076" d="M99.667,190.993,56.842,203.716l-.608-14.325,27.488-13.2,14.935,10.922Z" transform="translate(-12.514 -35.062)" fill="#1b2536"/>
          <line id="Línea_3437" data-name="Línea 3437" x2="32.844" y2="108.685" transform="translate(68.301 150.308)" fill="none" stroke="#1b2536" stroke-miterlimit="10" stroke-width="0.5"/>
          <path id="Trazado_1259077" data-name="Trazado 1259077" d="M82.723,173.991l.964-3.185,1.235,3.475a6.089,6.089,0,0,0,5.707,4.107h10.105l-6.285-27-.075-21.283a8.153,8.153,0,0,0-7.1-8.157L78.206,120.9H67.79l-5.756,1.313a6.747,6.747,0,0,0-4.917,8.261l6.162,24.577s-5.27,15.4-7.045,23.342H76.922a6.1,6.1,0,0,0,5.8-4.4" transform="translate(-12.515 -24.059)" fill="#546169"/>
          <path id="Trazado_1259078" data-name="Trazado 1259078" d="M66.272,143.277l-2.727,12.758-2.21-8.813Z" transform="translate(-13.65 -28.513)" fill="#1b2536"/>
          <line id="Línea_3438" data-name="Línea 3438" x2="3.991" y2="104.664" transform="translate(47.686 154.329)" fill="none" stroke="#1b2536" stroke-miterlimit="10" stroke-width="0.5"/>
          <line id="Línea_3439" data-name="Línea 3439" x1="5.406" y2="5.5" transform="translate(95.941 119.604)" fill="none" stroke="#1b2536" stroke-miterlimit="10" stroke-width="0.464"/>
          <path id="Trazado_1259079" data-name="Trazado 1259079" d="M56.234,188.81h9.039l-4.564-15.545c-1.6,5-3.532,11.328-4.474,15.545" transform="translate(-12.515 -34.481)" fill="#1b2536"/>
          <path id="Trazado_1259080" data-name="Trazado 1259080" d="M92.819,160.048l2.051,3.989a4.488,4.488,0,0,1,.285,3.4l-3.259,10.3" transform="translate(-20.451 -31.85)" fill="none" stroke="#1b2536" stroke-miterlimit="10" stroke-width="0.464"/>
          <path id="Trazado_1259081" data-name="Trazado 1259081" d="M92.159,166.409a.98.98,0,1,1-.98-1.009A.995.995,0,0,1,92.159,166.409Z" transform="translate(-20.073 -32.915)" fill="none" stroke="#fff" stroke-miterlimit="10" stroke-width="0.464"/>
          <path id="Trazado_1259120" data-name="Trazado 1259120" d="M0,0,23.967-.355,23.7,18-.271,18.35Z" transform="matrix(0.749, -0.662, 0.662, 0.749, 45.76, 174.847)" fill="#fff"/>
          <path id="Trazado_1259121" data-name="Trazado 1259121" d="M0,0,22.019-.326,21.78,15.824l-22.019.326Z" transform="matrix(0.749, -0.662, 0.662, 0.749, 47.196, 175.027)" fill="#6e9296"/>
          <path id="Trazado_1259082" data-name="Trazado 1259082" d="M89.684,206.778l.561-.51a1.282,1.282,0,0,0,.268-1.588,1.154,1.154,0,0,0-1.776-.268l-.608.553-1.16-1.354-.837.762a1.145,1.145,0,0,0-.095,1.584l2.433,2.838a1.067,1.067,0,0,0,1.537.1l.837-.761Z" transform="translate(-19.086 -40.52)" fill="#ebbc3b"/>
          <path id="Trazado_1259083" data-name="Trazado 1259083" d="M89.1,205.608l1.336,1.559.408-.372Z" transform="translate(-19.828 -40.917)" fill="#28364f"/>
          <path id="Trazado_1259084" data-name="Trazado 1259084" d="M90.788,205.847a.325.325,0,0,1-.468-.03.349.349,0,0,1,.029-.483.325.325,0,0,1,.468.03.349.349,0,0,1-.029.483" transform="translate(-20.082 -40.846)" fill="#28364f"/>
          <path id="Trazado_1259085" data-name="Trazado 1259085" d="M72.76,214.416l-2.6-3.277-1.525-1.084,6.4-5.826,3.23,4.184.716,2.987L77,209.982l-3.611-.4Z" transform="translate(-15.275 -40.643)" fill="#28364f"/>
          <path id="Trazado_1259086" data-name="Trazado 1259086" d="M88.116,341.618h0A8.665,8.665,0,0,0,84.2,337.7l-5.99-2.947A5.861,5.861,0,0,1,76.117,333h-2.88a3.247,3.247,0,0,0-3.2,3.294v.455L67.607,333H65.62a5.829,5.829,0,0,1-.139,1.029c-.614,2.7-2.238,9.791-2.4,9.96s16.988.066,23.635.019a1.639,1.639,0,0,0,1.4-2.392" transform="translate(-14.037 -66.269)" fill="#1b2536"/>
          <path id="Trazado_1259087" data-name="Trazado 1259087" d="M156.321,344.013a1.505,1.505,0,0,0,1.163-2.393,11.813,11.813,0,0,0-4.756-3.919l-6.622-2.948A7.942,7.942,0,0,1,143.64,333h-2.881a2.546,2.546,0,0,0-2.491,3.294l.1.454L135.129,333h-1.986a5.791,5.791,0,0,1,.082,1.029c-.036,2.7-.14,9.791-.268,9.96s16.544.068,23.366.021" transform="translate(-29.588 -66.269)" fill="#1b2536"/>
          <path id="Trazado_1259088" data-name="Trazado 1259088" d="M72.162,100.205a6.085,6.085,0,0,0,1.892-4.386s3.21.487,4.257-1.393a3.86,3.86,0,0,0,4.561.348,2.721,2.721,0,0,0,1.487.8v5.256s1.622,2.542.844,4.735a5.2,5.2,0,0,1-2.771,2.959l.642,5.709H72.162l.3-11.7Z" transform="translate(-16.059 -18.791)" fill="#9e643e"/>
          <path id="Trazado_1259089" data-name="Trazado 1259089" d="M78.867,99.626a.817.817,0,0,0-.8.829.838.838,0,0,0,.047.238l.587-.153-.41.483a.785.785,0,0,0,.581.261.829.829,0,0,0,0-1.658" transform="translate(-17.372 -19.826)" fill="#1b2536"/>
          <path id="Trazado_1259090" data-name="Trazado 1259090" d="M85.3,99.626a.817.817,0,0,0-.805.829.837.837,0,0,0,.047.238l.588-.153-.41.483a.783.783,0,0,0,.581.261.829.829,0,0,0,0-1.658" transform="translate(-18.804 -19.826)" fill="#1b2536"/>
          <path id="Trazado_1259091" data-name="Trazado 1259091" d="M82.871,99.707v1.016a2.134,2.134,0,0,0,.306,1.1l.346.574a.423.423,0,0,1-.287.638l-.99.15" transform="translate(-18.303 -19.842)" fill="none" stroke="#422424" stroke-miterlimit="10" stroke-width="0.464"/>
          <path id="Trazado_1259092" data-name="Trazado 1259092" d="M77.519,97.786a3.283,3.283,0,0,1,2.462,0" transform="translate(-17.251 -19.409)" fill="none" stroke="#422424" stroke-miterlimit="10" stroke-width="0.728"/>
          <path id="Trazado_1259093" data-name="Trazado 1259093" d="M83.642,97.786a3.283,3.283,0,0,1,2.462,0" transform="translate(-18.614 -19.409)" fill="none" stroke="#422424" stroke-miterlimit="10" stroke-width="0.728"/>
          <path id="Trazado_1259094" data-name="Trazado 1259094" d="M83.525,105.02H80.132s.5,3.29,1.644,3.211,1.749-3.211,1.749-3.211" transform="translate(-17.833 -20.899)" fill="#422424"/>
          <path id="Trazado_1259095" data-name="Trazado 1259095" d="M81.656,106.791a7.515,7.515,0,0,0-1.073.078c.267.857.69,1.756,1.293,1.714.57-.039,1.008-.842,1.3-1.636a7.466,7.466,0,0,0-1.522-.157" transform="translate(-17.933 -21.252)" fill="#943232"/>
          <path id="Trazado_1259096" data-name="Trazado 1259096" d="M82.443,111.81c-2.053.679-5.652.157-7.173-2.063" transform="translate(-16.751 -21.84)" fill="none" stroke="#422424" stroke-miterlimit="10" stroke-width="0.464"/>
          <path id="Trazado_1259097" data-name="Trazado 1259097" d="M71.437,116.9H83.062a1.041,1.041,0,0,1,1.021.921l.438,3.4,2.3,27.99L70.152,121.4l.258-3.526a1.043,1.043,0,0,1,1.027-.982" transform="translate(-15.612 -23.263)" fill="#4a75c9"/>
          <path id="Trazado_1259098" data-name="Trazado 1259098" d="M71.554,122.2s7.3,1.358,12.418,0" transform="translate(-15.924 -24.318)" fill="none" stroke="#1b2536" stroke-miterlimit="10" stroke-width="0.464"/>
          <path id="Trazado_1259099" data-name="Trazado 1259099" d="M66,197.824l2.163,2.855s4.325,1.392,5.845,2.158,2.805,4.074,2.805,4.074,1.115,3.029.709,3.237-1.554-2.123-1.554-2.123l-1.993-1.81.507,3.947s.253,3.234-.068,3.363a1.135,1.135,0,0,1-1.031,0,1.074,1.074,0,0,1-.946.031c-.777.178-.895-.031-1.3-.414a27.9,27.9,0,0,1-1.79-3.62L67.452,207.5s-3.717-.731-4.055-2.82L61.336,202Z" transform="translate(-13.65 -39.368)" fill="#9e643e"/>
          <path id="Trazado_1259100" data-name="Trazado 1259100" d="M75.472,208.8a21.379,21.379,0,0,1,1.09,6.5" transform="translate(-16.796 -41.552)" fill="none" stroke="#422424" stroke-miterlimit="10" stroke-width="0.464"/>
          <path id="Trazado_1259101" data-name="Trazado 1259101" d="M73.451,210.916a17.876,17.876,0,0,1,1.571,4.8" transform="translate(-16.346 -41.973)" fill="none" stroke="#422424" stroke-miterlimit="10" stroke-width="0.464"/>
          <path id="Trazado_1259102" data-name="Trazado 1259102" d="M66.851,198.949l-4.124,4.862L61.336,202,66,197.824Z" transform="translate(-13.65 -39.368)" fill="#28364f"/>
          <path id="Trazado_1259103" data-name="Trazado 1259103" d="M55.682,122.71l3.468-.791,1.385,16.516-11.657,22.7,13.043,21.375-7.974,6.2s-16.528-15.852-19.733-22.768c-3.382-7.3,7.659-27.685,13.2-37.117a12.952,12.952,0,0,1,8.272-6.112" transform="translate(-7.474 -24.262)" fill="#546169"/>
          <line id="Línea_3440" data-name="Línea 3440" x2="3.717" y2="6.092" transform="translate(37.688 130.779)" fill="none" stroke="#1b2536" stroke-miterlimit="10" stroke-width="0.464"/>
          <path id="Trazado_1259104" data-name="Trazado 1259104" d="M85.225,122.575l3.141,2.518a2.209,2.209,0,0,1,.708,2.393l-1.693,5.3,3.4,2.966a2.212,2.212,0,0,1,.648,2.308l-4.434,14.529L71.665,140.448a2.214,2.214,0,0,1-.58-2.735l2.059-4.02-6.564-4.961a2.215,2.215,0,0,1-.313-3.212l2.332-2.642" transform="translate(-14.625 -24.393)" fill="none" stroke="#1b2536" stroke-miterlimit="10" stroke-width="0.464"/>
          <path id="Trazado_1259105" data-name="Trazado 1259105" d="M88.691,122.952l.4,24.369,1.85,3.086Z" transform="translate(-19.738 -24.468)" fill="#1b2536"/>
          <path id="Trazado_1259106" data-name="Trazado 1259106" d="M72.2,102.658a2.865,2.865,0,1,1-2.863-2.95,2.908,2.908,0,0,1,2.863,2.95" transform="translate(-14.792 -19.842)" fill="#9e643e"/>
          <path id="Trazado_1259107" data-name="Trazado 1259107" d="M68.251,102.179c.912-1.218,3.61.231,3.615,1.531" transform="translate(-15.189 -20.243)" fill="none" stroke="#422424" stroke-miterlimit="10" stroke-width="0.464"/>
          <line id="Línea_3441" data-name="Línea 3441" y1="1.57" x2="1.064" transform="translate(53.806 81.62)" fill="none" stroke="#422424" stroke-miterlimit="10" stroke-width="0.464"/>
          <line id="Línea_3442" data-name="Línea 3442" y2="12.054" transform="translate(33.527 79.135)" fill="none" stroke="#ebbc3b" stroke-linecap="round" stroke-linejoin="round" stroke-width="2"/>
          <line id="Línea_3443" data-name="Línea 3443" x1="11.7" transform="translate(27.677 85.162)" fill="none" stroke="#ebbc3b" stroke-linecap="round" stroke-linejoin="round" stroke-width="2"/>
          <line id="Línea_3444" data-name="Línea 3444" y2="12.054" transform="translate(183.682 12.491)" fill="none" stroke="#ebbc3b" stroke-linecap="round" stroke-linejoin="round" stroke-width="2"/>
          <line id="Línea_3445" data-name="Línea 3445" x1="11.7" transform="translate(177.832 18.518)" fill="none" stroke="#ebbc3b" stroke-linecap="round" stroke-linejoin="round" stroke-width="2"/>
          <line id="Línea_3446" data-name="Línea 3446" y2="12.054" transform="translate(381.12 246.39)" fill="none" stroke="#ebbc3b" stroke-linecap="round" stroke-linejoin="round" stroke-width="2"/>
          <line id="Línea_3447" data-name="Línea 3447" x1="11.7" transform="translate(375.27 252.417)" fill="none" stroke="#ebbc3b" stroke-linecap="round" stroke-linejoin="round" stroke-width="2"/>
          <path id="Trazado_1259108" data-name="Trazado 1259108" d="M478.575,68.574c0,11.095-11.618,20.088-25.951,20.088s-25.948-8.994-25.948-20.088,11.618-20.088,25.948-20.088,25.951,8.994,25.951,20.088" transform="translate(-94.954 -9.649)" fill="#5dd2e4"/>
          <path id="Trazado_1259109" data-name="Trazado 1259109" d="M449.684,92.223l-1,16.658,17.149-16.658Z" transform="translate(-99.852 -18.353)" fill="#5dd2e4"/>
          <line id="Línea_3448" data-name="Línea 3448" x2="19.464" transform="translate(347.939 49.364)" fill="none" stroke="#fff" stroke-miterlimit="10" stroke-width="0.971"/>
          <line id="Línea_3449" data-name="Línea 3449" x2="19.464" transform="translate(347.939 54.709)" fill="none" stroke="#fff" stroke-miterlimit="10" stroke-width="0.971"/>
          <line id="Línea_3450" data-name="Línea 3450" x2="19.464" transform="translate(347.939 60.054)" fill="none" stroke="#fff" stroke-miterlimit="10" stroke-width="0.971"/>
          <line id="Línea_3451" data-name="Línea 3451" x2="19.464" transform="translate(347.939 65.399)" fill="none" stroke="#fff" stroke-miterlimit="10" stroke-width="0.971"/>
          <path id="Trazado_1259110" data-name="Trazado 1259110" d="M101.572,50.3H37.63a6.5,6.5,0,0,1-6.4-6.591V6.591A6.5,6.5,0,0,1,37.63,0h63.942a6.5,6.5,0,0,1,6.4,6.591V43.706a6.5,6.5,0,0,1-6.4,6.591" transform="translate(-6.951 0)" fill="#ebcc30"/>
          <path id="Trazado_1259111" data-name="Trazado 1259111" d="M71.264,60.892H85.755L78.51,77.083Z" transform="translate(-15.859 -12.118)" fill="#ebcc30"/>
          <path id="Trazado_1259112" data-name="Trazado 1259112" d="M40.611,31.429s1.839-.008,5.913-3.995,7.1-3.694,11.038-1.506,10.249,2.373,13.8-1.585,7.884-8.48,12.877-6.292,11.3,3.407,18.528-6.564" transform="translate(-9.038 -2.286)" fill="none" stroke="#fff" stroke-miterlimit="10" stroke-width="1.942"/>
          <line id="Línea_3452" data-name="Línea 3452" y2="12.651" transform="translate(34.617 27.62)" fill="none" stroke="#4a75c9" stroke-miterlimit="10" stroke-width="0.695"/>
          <line id="Línea_3453" data-name="Línea 3453" y2="18.178" transform="translate(44.233 22.094)" fill="none" stroke="#4a75c9" stroke-miterlimit="10" stroke-width="0.695"/>
          <line id="Línea_3454" data-name="Línea 3454" y2="15.123" transform="translate(53.849 25.149)" fill="none" stroke="#4a75c9" stroke-miterlimit="10" stroke-width="0.695"/>
          <line id="Línea_3455" data-name="Línea 3455" y2="19.468" transform="translate(63.464 20.802)" fill="none" stroke="#4a75c9" stroke-miterlimit="10" stroke-width="0.695"/>
          <line id="Línea_3456" data-name="Línea 3456" y2="25.07" transform="translate(73.08 15.201)" fill="none" stroke="#4a75c9" stroke-miterlimit="10" stroke-width="0.695"/>
          <line id="Línea_3457" data-name="Línea 3457" y2="23.075" transform="translate(82.695 17.196)" fill="none" stroke="#4a75c9" stroke-miterlimit="10" stroke-width="0.695"/>
          <line id="Línea_3458" data-name="Línea 3458" y2="29.459" transform="translate(92.311 10.812)" fill="none" stroke="#4a75c9" stroke-miterlimit="10" stroke-width="0.695"/>
          <line id="Línea_3459" data-name="Línea 3459" x2="66.472" transform="translate(29.414 40.271)" fill="none" stroke="#4a75c9" stroke-miterlimit="10" stroke-width="0.695"/>
          <path id="Trazado_1259113" data-name="Trazado 1259113" d="M119.65,13.17a1.284,1.284,0,1,1-1.283-1.322,1.3,1.3,0,0,1,1.283,1.322" transform="translate(-26.056 -2.358)" fill="#4a75c9"/>
          <path id="Trazado_1259114" data-name="Trazado 1259114" d="M107.282,21.141A1.284,1.284,0,1,1,106,19.819a1.3,1.3,0,0,1,1.283,1.322" transform="translate(-23.304 -3.944)" fill="#4a75c9"/>
          <path id="Trazado_1259115" data-name="Trazado 1259115" d="M94.914,18.65a1.284,1.284,0,1,1-1.283-1.322,1.3,1.3,0,0,1,1.283,1.322" transform="translate(-20.551 -3.448)" fill="#4a75c9"/>
          <path id="Trazado_1259116" data-name="Trazado 1259116" d="M82.546,25.643a1.284,1.284,0,1,1-1.283-1.322,1.3,1.3,0,0,1,1.283,1.322" transform="translate(-17.799 -4.84)" fill="#4a75c9"/>
          <path id="Trazado_1259117" data-name="Trazado 1259117" d="M70.178,31.069A1.284,1.284,0,1,1,68.9,29.747a1.3,1.3,0,0,1,1.283,1.322" transform="translate(-15.047 -5.92)" fill="#4a75c9"/>
          <path id="Trazado_1259118" data-name="Trazado 1259118" d="M57.81,27.293a1.284,1.284,0,1,1-1.283-1.322,1.3,1.3,0,0,1,1.283,1.322" transform="translate(-12.294 -5.168)" fill="#4a75c9"/>
          <path id="Trazado_1259119" data-name="Trazado 1259119" d="M45.442,34.154a1.284,1.284,0,1,1-1.283-1.322,1.3,1.3,0,0,1,1.283,1.322" transform="translate(-9.542 -6.534)" fill="#4a75c9"/>
        </g>
      </g>
    </g>
  </g>
</svg>
