<svg xmlns="http://www.w3.org/2000/svg" xmlns:xlink="http://www.w3.org/1999/xlink" width="96" height="96" viewBox="0 0 96 96">
  <defs>
    <clipPath id="clip-path">
      <rect id="Rectángulo_454682" data-name="Rectángulo 454682" width="96" height="96" fill="#feea89"/>
    </clipPath>
    <clipPath id="clip-path-2">
      <rect id="Rectángulo_455592" data-name="Rectángulo 455592" width="58" height="58" transform="translate(3 14)" fill="#fff" stroke="#707070" stroke-width="1"/>
    </clipPath>
    <clipPath id="clip-path-3">
      <rect id="Rectángulo_455595" data-name="Rectángulo 455595" width="45.768" height="51.571" fill="#fff"/>
    </clipPath>
  </defs>
  <g id="Grupo_1204554" data-name="Grupo 1204554" transform="translate(-731.746 -8618)">
    <g id="Grupo_1203592" data-name="Grupo 1203592" transform="translate(731.746 8618)">
      <g id="Grupo_1203487" data-name="Grupo 1203487">
        <g id="Grupo_1203486" data-name="Grupo 1203486" clip-path="url(#clip-path)">
          <path id="Trazado_1256437" data-name="Trazado 1256437" d="M2.058,84.327a47.583,47.583,0,0,0,1.836,6.227L23,71.45a25.883,25.883,0,0,1,4.958-13.021Z" transform="translate(-0.911 -25.866)" fill="#feea89"/>
          <path id="Trazado_1256438" data-name="Trazado 1256438" d="M90.555,3.894a47.583,47.583,0,0,0-6.227-1.836l-25.9,25.9A25.886,25.886,0,0,1,71.451,23Z" transform="translate(-25.866 -0.911)" fill="#feea89"/>
          <path id="Trazado_1256439" data-name="Trazado 1256439" d="M117.575,12.855a48.029,48.029,0,0,0-5.022-3.041L95.523,26.843a25.831,25.831,0,0,1,6.031,2.032Z" transform="translate(-42.287 -4.345)" fill="#feea89"/>
          <path id="Trazado_1256440" data-name="Trazado 1256440" d="M9.814,112.552a47.933,47.933,0,0,0,3.041,5.022l16.021-16.021a25.831,25.831,0,0,1-2.032-6.031Z" transform="translate(-4.345 -42.287)" fill="#feea89"/>
          <path id="Trazado_1256441" data-name="Trazado 1256441" d="M4.273,34.929,34.929,4.273A48.116,48.116,0,0,0,4.273,34.929" transform="translate(-1.892 -1.892)" fill="#feea89"/>
          <path id="Trazado_1256442" data-name="Trazado 1256442" d="M48,0q-2.406,0-4.752.234L.234,43.248Q0,45.593,0,48q0,1.726.123,3.422l51.3-51.3C50.292.043,49.151,0,48,0" transform="translate(0 0)" fill="#feea89"/>
          <path id="Trazado_1256443" data-name="Trazado 1256443" d="M143.483,112.406l-31.076,31.076a48.112,48.112,0,0,0,31.076-31.076" transform="translate(-49.761 -49.761)" fill="#feea89"/>
          <path id="Trazado_1256444" data-name="Trazado 1256444" d="M131.113,79.625,79.625,131.113q1.795.134,3.624.135c1.524,0,3.03-.074,4.517-.213l43.27-43.27c.139-1.487.213-2.993.213-4.516q0-1.829-.135-3.624" transform="translate(-35.249 -35.249)" fill="#feea89"/>
          <path id="Trazado_1256445" data-name="Trazado 1256445" d="M119.266,41.241l15.585-15.585a48.285,48.285,0,0,0-4.038-4.025L115.222,37.222a26.166,26.166,0,0,1,4.044,4.019" transform="translate(-51.007 -9.575)" fill="#feea89"/>
          <path id="Trazado_1256446" data-name="Trazado 1256446" d="M37.222,115.222,21.63,130.814a48.369,48.369,0,0,0,4.025,4.038l15.585-15.585a26.166,26.166,0,0,1-4.019-4.044" transform="translate(-9.575 -51.007)" fill="#feea89"/>
          <path id="Trazado_1256447" data-name="Trazado 1256447" d="M74.932,129.121,55.9,148.149a47.687,47.687,0,0,0,6.207,1.857l25.333-25.333a25.88,25.88,0,0,1-12.512,4.448" transform="translate(-24.748 -55.191)" fill="#feea89"/>
          <path id="Trazado_1256448" data-name="Trazado 1256448" d="M150.006,62.11a47.591,47.591,0,0,0-1.857-6.206L129.121,74.931a25.87,25.87,0,0,1-4.448,12.512Z" transform="translate(-55.191 -24.748)" fill="#feea89"/>
          <path id="Trazado_1256449" data-name="Trazado 1256449" d="M147.17,41.946a48.074,48.074,0,0,0-3.054-5.009l-16,16a25.825,25.825,0,0,1,2.064,6Z" transform="translate(-56.713 -16.352)" fill="#feea89"/>
          <path id="Trazado_1256450" data-name="Trazado 1256450" d="M36.937,144.115a47.933,47.933,0,0,0,5.009,3.055l16.995-17a25.812,25.812,0,0,1-6-2.064Z" transform="translate(-16.352 -56.713)" fill="#feea89"/>
        </g>
      </g>
    </g>
    <g id="Grupo_154427" data-name="Grupo 154427" transform="translate(736.746 8623)">
      <path id="Elipse_5729" data-name="Elipse 5729" d="M43,0A43,43,0,1,1,0,43,43,43,0,0,1,43,0Z" transform="translate(-0.162 0)" fill="#302c9e"/>
      <g id="Enmascarar_grupo_1119197" data-name="Enmascarar grupo 1119197" transform="translate(11)" clip-path="url(#clip-path-2)">
        <g id="Grupo_1204553" data-name="Grupo 1204553" transform="translate(9 17)">
          <g id="Grupo_1204552" data-name="Grupo 1204552" clip-path="url(#clip-path-3)">
            <path id="Trazado_1258898" data-name="Trazado 1258898" d="M13.706,36.9a5.236,5.236,0,0,1-4.148-2.521L7.291,35.595c.348,2.249-.731,4.647-3.209,4.86a3.654,3.654,0,0,1-2.576-6.572c1.611-1.2,3.436-.761,4.946.356l2.37-1.329a8.613,8.613,0,0,1,.49-3.063l4.763-8.335L6.564,17.237c-.806.219-1.3.878-2.2,1C-.889,18.964-1.4,11.466,3.195,11c2.933-.3,4.512,2.166,4.1,4.862l7.671,4.316,4-7.032a4.907,4.907,0,0,1,2.965-1.773l.124-4.129c-1.214-.636-2.231-1.106-2.636-2.545-1.761-6.264,8.7-6.264,6.94,0-.4,1.44-1.422,1.91-2.636,2.545l.125,4.129a4.907,4.907,0,0,1,2.964,1.773l4,7.032,7.671-4.316c-.415-2.7,1.164-5.161,4.1-4.862,4.594.468,4.083,7.966-1.173,7.24-.894-.123-1.391-.782-2.2-1l-7.513,4.274,4.764,8.335a8.616,8.616,0,0,1,.49,3.063l2.37,1.329c1.511-1.117,3.336-1.555,4.946-.356a3.654,3.654,0,0,1-2.576,6.572c-2.478-.213-3.557-2.611-3.209-4.86l-2.267-1.211a5.008,5.008,0,0,1-3.03,2.306c-.168.041-1.033.214-1.118.214H23.7v7.328c1.385.6,2.54,1.381,2.774,3a3.655,3.655,0,0,1-6.6,2.747,3.772,3.772,0,0,1,2.194-5.746V36.9c-2.688-.19-5.717.256-8.364,0M22.475,1.557c-2.179.374-2.119,3.769.114,3.965a2.013,2.013,0,1,0-.114-3.965M2.285,13.122a2.053,2.053,0,0,0,2.54,3.206c2.405-1.556-.4-5.147-2.54-3.206m41.2,0c-2-1.95-5.036,1.594-2.541,3.207a2.054,2.054,0,0,0,2.541-3.207m-18.211.743a3.375,3.375,0,0,0-5.247.642C16.593,19.4,13.942,25.692,10.7,30.794c-.763,2.581.926,4.289,3.44,4.487,5.618.441,11.8-.345,17.479,0,2.557-.043,4.445-2.34,3.3-4.795-2.577-4.437-5.012-8.971-7.65-13.371a22.655,22.655,0,0,0-2-3.252M2.283,38.334C4.29,40.29,7.3,36.725,4.825,35.127a2.054,2.054,0,0,0-2.541,3.207m41.2,0a2.054,2.054,0,0,0-2.541-3.207c-2.471,1.6.535,5.163,2.541,3.207M22.327,45.97c-2,.367-1.942,3.7.278,3.952a2.021,2.021,0,1,0-.278-3.952" transform="translate(0 0.001)" fill="#fff"/>
            <path id="Trazado_1258899" data-name="Trazado 1258899" d="M141.012,116.108c1.334-.275,2.632.219,2.856,1.665-.1,2.11-.035,4.271-.145,6.375a19.377,19.377,0,0,1-.185,2.035c-.373,1.69-3.3,1.679-3.662-.125.139-2.507-.665-6.024-.294-8.421a2.032,2.032,0,0,1,1.431-1.53m1.225,1.594H141.2l.3,8.144h.443c.187-2.7.241-5.43.3-8.144" transform="translate(-118.834 -98.858)" fill="#fff"/>
            <path id="Trazado_1258900" data-name="Trazado 1258900" d="M141.423,199.022c3.533-.794,3.842,4.274.709,4.274-2.684,0-2.813-3.8-.709-4.274m.433,1.615c-.628.209-.118,1.5.656.954a.585.585,0,0,0-.656-.954" transform="translate(-119.248 -169.488)" fill="#fff"/>
          </g>
        </g>
      </g>
    </g>
  </g>
</svg>
