<svg xmlns="http://www.w3.org/2000/svg" xmlns:xlink="http://www.w3.org/1999/xlink" width="188" height="159" viewBox="0 0 188 159">
  <defs>
    <clipPath id="clip-path">
      <rect id="Rectángulo_455315" data-name="Rectángulo 455315" width="188" height="159" transform="translate(289.711 4830)" fill="#fff" stroke="#707070" stroke-width="1"/>
    </clipPath>
    <clipPath id="clip-path-2">
      <rect id="Rectángulo_454667" data-name="Rectángulo 454667" width="35.074" height="93.333" fill="#5dd2e4"/>
    </clipPath>
    <clipPath id="clip-path-3">
      <rect id="Rectángulo_454667-2" data-name="Rectángulo 454667" width="37.253" height="99.131" fill="#ebcc30"/>
    </clipPath>
    <clipPath id="clip-path-4">
      <rect id="Rectángulo_455314" data-name="Rectángulo 455314" width="110" height="110" transform="translate(301.461 4830.75)" fill="#fff" stroke="#707070" stroke-width="1"/>
    </clipPath>
    <clipPath id="clip-path-5">
      <rect id="Rectángulo_455597" data-name="Rectángulo 455597" width="90.167" height="89.767" fill="none"/>
    </clipPath>
  </defs>
  <g id="Enmascarar_grupo_1119169" data-name="Enmascarar grupo 1119169" transform="translate(-289.711 -4830)" clip-path="url(#clip-path)">
    <g id="Grupo_1204233" data-name="Grupo 1204233" transform="translate(290 4830.667)">
      <g id="Grupo_1203439" data-name="Grupo 1203439" clip-path="url(#clip-path-2)">
        <path id="Trazado_1256314" data-name="Trazado 1256314" d="M33.661,5.334,0,53.509v3.862L34.7,7.706a8.612,8.612,0,0,0-1.041-2.372" transform="translate(0 -2.876)" fill="#5dd2e4"/>
        <path id="Trazado_1256315" data-name="Trazado 1256315" d="M35.074,34.463,0,84.66v3.862l35.074-50.2Z" transform="translate(0 -18.579)" fill="#5dd2e4"/>
        <path id="Trazado_1256316" data-name="Trazado 1256316" d="M29.975.018,0,42.918v3.862L32.12.811A4.113,4.113,0,0,0,29.975.018" transform="translate(0.001 -0.01)" fill="#5dd2e4"/>
        <path id="Trazado_1256317" data-name="Trazado 1256317" d="M24.585,0,0,35.185v3.862L27.283,0Z" transform="translate(0)" fill="#5dd2e4"/>
        <path id="Trazado_1256318" data-name="Trazado 1256318" d="M35.074,17.7,0,67.9v3.862l35.074-50.2Z" transform="translate(0 -9.544)" fill="#5dd2e4"/>
        <path id="Trazado_1256319" data-name="Trazado 1256319" d="M8.394,0,0,12.013v3.862L11.092,0Z" transform="translate(0)" fill="#5dd2e4"/>
        <path id="Trazado_1256320" data-name="Trazado 1256320" d="M5.333,0C2.388,0,0,3.417,0,7.632v.519L5.7,0Z" transform="translate(-0.001)" fill="#5dd2e4"/>
        <path id="Trazado_1256321" data-name="Trazado 1256321" d="M13.791,0,0,19.737V23.6L16.489,0Z" transform="translate(0)" fill="#5dd2e4"/>
        <path id="Trazado_1256322" data-name="Trazado 1256322" d="M19.188,0,0,27.461v3.862L21.886,0Z" transform="translate(0)" fill="#5dd2e4"/>
        <path id="Trazado_1256323" data-name="Trazado 1256323" d="M51.687,118.1,24.5,157h2.7l24.484-35.041Z" transform="translate(-16.613 -63.666)" fill="#5dd2e4"/>
        <path id="Trazado_1256324" data-name="Trazado 1256324" d="M63.049,134.855,41.264,166.034h2.7l19.087-27.317Z" transform="translate(-27.975 -72.7)" fill="#5dd2e4"/>
        <path id="Trazado_1256325" data-name="Trazado 1256325" d="M74.411,151.614,58.023,175.068h2.7l13.69-19.593Z" transform="translate(-39.337 -81.735)" fill="#5dd2e4"/>
        <path id="Trazado_1256326" data-name="Trazado 1256326" d="M91.8,193.138c2.945,0,5.332-3.417,5.332-7.631v-.376l-5.595,8.007Z" transform="translate(-62.059 -99.804)" fill="#5dd2e4"/>
        <path id="Trazado_1256327" data-name="Trazado 1256327" d="M85.772,168.372,74.781,184.1h2.7l8.293-11.869Z" transform="translate(-50.698 -90.77)" fill="#5dd2e4"/>
        <path id="Trazado_1256328" data-name="Trazado 1256328" d="M35.074,67.821,0,118.018v3.862l35.074-50.2Z" transform="translate(0 -36.562)" fill="#5dd2e4"/>
        <path id="Trazado_1256329" data-name="Trazado 1256329" d="M35.074,51.062,0,101.26v3.862l35.074-50.2Z" transform="translate(0 -27.528)" fill="#5dd2e4"/>
        <path id="Trazado_1256330" data-name="Trazado 1256330" d="M35.918,84.579,1.245,134.2a8.505,8.505,0,0,0,1.061,2.343l33.612-48.1Z" transform="translate(-0.844 -45.597)" fill="#5dd2e4"/>
        <path id="Trazado_1256331" data-name="Trazado 1256331" d="M41.434,101.338,9.38,147.212a4.066,4.066,0,0,0,2.176.748L41.434,105.2Z" transform="translate(-6.359 -54.631)" fill="#5dd2e4"/>
      </g>
    </g>
    <g id="Grupo_1204234" data-name="Grupo 1204234" transform="translate(439.296 4888.667)">
      <g id="Grupo_1203439-2" data-name="Grupo 1203439" clip-path="url(#clip-path-3)">
        <path id="Trazado_1256314-2" data-name="Trazado 1256314" d="M35.752,5.334,0,56.5v4.1L36.858,7.854a9.146,9.146,0,0,0-1.105-2.52" transform="translate(0 -2.723)" fill="#ebcc30"/>
        <path id="Trazado_1256315-2" data-name="Trazado 1256315" d="M37.253,34.463,0,87.778v4.1L37.253,38.564Z" transform="translate(0 -17.592)" fill="#ebcc30"/>
        <path id="Trazado_1256316-2" data-name="Trazado 1256316" d="M31.837.018,0,45.583v4.1L34.115.86A4.368,4.368,0,0,0,31.837.018" transform="translate(0.001 -0.009)" fill="#ebcc30"/>
        <path id="Trazado_1256317-2" data-name="Trazado 1256317" d="M26.112,0,0,37.371v4.1L28.978,0Z" transform="translate(0)" fill="#ebcc30"/>
        <path id="Trazado_1256318-2" data-name="Trazado 1256318" d="M37.253,17.7,0,71.02v4.1L37.253,21.806Z" transform="translate(0 -9.037)" fill="#ebcc30"/>
        <path id="Trazado_1256319-2" data-name="Trazado 1256319" d="M8.915,0,0,12.76v4.1L11.781,0Z" transform="translate(0)" fill="#ebcc30"/>
        <path id="Trazado_1256320-2" data-name="Trazado 1256320" d="M5.664,0C2.536,0,0,3.629,0,8.106v.552L6.05,0Z" transform="translate(-0.001)" fill="#ebcc30"/>
        <path id="Trazado_1256321-2" data-name="Trazado 1256321" d="M14.648,0,0,20.963v4.1L17.514,0Z" transform="translate(0)" fill="#ebcc30"/>
        <path id="Trazado_1256322-2" data-name="Trazado 1256322" d="M20.38,0,0,29.167v4.1L23.246,0Z" transform="translate(0)" fill="#ebcc30"/>
        <path id="Trazado_1256323-2" data-name="Trazado 1256323" d="M53.376,118.1,24.5,159.416h2.866l26-37.218Z" transform="translate(-16.123 -60.285)" fill="#ebcc30"/>
        <path id="Trazado_1256324-2" data-name="Trazado 1256324" d="M64.4,134.855,41.264,167.971H44.13L64.4,138.957Z" transform="translate(-27.15 -68.839)" fill="#ebcc30"/>
        <path id="Trazado_1256325-2" data-name="Trazado 1256325" d="M75.429,151.614,58.023,176.525h2.866l14.54-20.81Z" transform="translate(-38.176 -77.394)" fill="#ebcc30"/>
        <path id="Trazado_1256326-2" data-name="Trazado 1256326" d="M91.818,193.635c3.128,0,5.663-3.629,5.663-8.105v-.4l-5.942,8.5Z" transform="translate(-60.228 -94.504)" fill="#ebcc30"/>
        <path id="Trazado_1256327-2" data-name="Trazado 1256327" d="M86.455,168.372,74.781,185.08h2.866l8.808-12.606Z" transform="translate(-49.202 -85.949)" fill="#ebcc30"/>
        <path id="Trazado_1256328-2" data-name="Trazado 1256328" d="M37.253,67.821,0,121.136v4.1L37.253,71.923Z" transform="translate(0 -34.62)" fill="#ebcc30"/>
        <path id="Trazado_1256329-2" data-name="Trazado 1256329" d="M37.253,51.062,0,104.378v4.1L37.253,55.164Z" transform="translate(0 -26.066)" fill="#ebcc30"/>
        <path id="Trazado_1256330-2" data-name="Trazado 1256330" d="M38.072,84.579,1.245,137.285a9.034,9.034,0,0,0,1.127,2.488l35.7-51.093Z" transform="translate(-0.819 -43.175)" fill="#ebcc30"/>
        <path id="Trazado_1256331-2" data-name="Trazado 1256331" d="M43.425,101.338,9.38,150.062a4.319,4.319,0,0,0,2.311.794L43.425,105.44Z" transform="translate(-6.172 -51.73)" fill="#ebcc30"/>
      </g>
    </g>
    <circle id="Elipse_13680" data-name="Elipse 13680" cx="74" cy="74" r="74" transform="translate(311.711 4838)" fill="#9db7fe"/>
    <g id="Enmascarar_grupo_1119168" data-name="Enmascarar grupo 1119168" transform="translate(29.25 26.25)" clip-path="url(#clip-path-4)">
      <path id="Trazado_1258941" data-name="Trazado 1258941" d="M313.708,4837.248s-5.116-.667-5.784,5.784,0,68.737,0,68.737,1.557,5.784,5.784,6.229,58.727,0,58.727,0v-72.519s1.112-8.231-5.561-8.231Z" transform="translate(5.455 5.347)" fill="#fff7d9"/>
      <g id="Grupo_1204558" data-name="Grupo 1204558" transform="translate(312.044 4840.866)">
        <g id="Grupo_1204557" data-name="Grupo 1204557" clip-path="url(#clip-path-5)">
          <path id="Trazado_1258920" data-name="Trazado 1258920" d="M168.83,195.184a21.078,21.078,0,0,1,5.3,5.431c.442-.366,3.335-1.69,3.44-1.855.407-.643-.415-4.225.378-5.307a62.35,62.35,0,0,1,5.618-3.291c2.747-.926,1.979,2,2.055,3.73.211.24,4.861-2.886,5.612-3.041,1.7-.352,2.483,1.082,1.346,2.125-.786.721-5.186,2.668-5.408,2.988-.472.683,2.361,1.412,2.669,2.124.459,1.062-.008,1.374-.78,1.957-.494.373-5.126,3.058-5.435,3.108-1.12.18-3.7-2.243-4.588-2.275-.716-.025-2.558,1.519-3.381,1.8.408,2.065,1.453,3.969,1.667,6.1,1.956,19.544-21.955,29.621-34.066,14.821-13.767-16.823,7.107-40.323,25.573-28.414m17.307,3.362c-2.868-1-3.461-2.109-3.1-5.17-.47.437-2.5,1.2-2.713,1.546a15.3,15.3,0,0,0-.084,3.837,20.951,20.951,0,0,0,3.188,1.574c.434,0,2.886-1.532,2.711-1.787m-14.208,3.608c-5.248-8.881-18.384-9.993-25.584-2.721-13.1,13.231,1.992,34.91,19.046,27.053,8.282-3.815,11.7-14.016,8.086-22.263-.306-.267-2.884,1.4-3.376,1.718,5.39,12.746-10.014,24.359-20.522,15.079-12.044-10.636,2.808-29.62,16.13-20.262.661.464,2.823,2.868,3.029,2.906.673.125,2.3-1.552,3.191-1.511m-5.425,3.1c-.716-1.659-2.965-3.132-4.654-3.736-11.286-4.036-19.449,10.9-9.94,18.205,8.386,6.443,20.268-2.848,15.751-12.4a21.3,21.3,0,0,0-3.113,1.808c-.1.156.235,2.817.087,3.686-1,5.867-9.824,7-12.383,1.4a6.6,6.6,0,0,1,8.8-8.8c.507.235,2.081,1.58,2.218,1.59.442.033,2.441-1.79,3.231-1.747m-4.134,5.429c-.616-.642-5.45,4.089-5.946,1.415-.369-1.991,3.322-2.54,4.392-3.87-3.694-2.986-8.819,1.632-5.843,5.59,2.552,3.393,7.776.967,7.4-3.135" transform="translate(-102.949 -140.909)" fill="#12263f"/>
          <path id="Trazado_1258921" data-name="Trazado 1258921" d="M65.881,52.725c-1.286.007-1.671-.136-1.808-1.416l.01-44.444a4.371,4.371,0,0,0-3.1-4.13L6.847,2.6A4.556,4.556,0,0,0,2.584,6.864V76.629A4.6,4.6,0,0,0,6.1,80.864l30.994,0A1.512,1.512,0,0,1,38.5,82.689c-.084.033-.51,1.013-1.151.788-9.921-.758-21.253.97-31.006-.016A7.158,7.158,0,0,1,0,76.372L0,6.866A7.437,7.437,0,0,1,5.226.206C23.559-.211,41.974.16,60.338.019a7.138,7.138,0,0,1,6.328,6.329l0,45.226c.224.642-.754,1.064-.788,1.151" transform="translate(0 0)" fill="#12263f"/>
          <path id="Trazado_1258922" data-name="Trazado 1258922" d="M38.4,135.684c.093.792-.3,1.55-1.162,1.55H28.325v11.882H40.465c.239-1.456-.44-6.817.253-8.4.152-.349,1.008-.333,1.039-.379.718.27.953.362,1.048,1.148a61.769,61.769,0,0,1,0,9.067c-.057.44-.1.784-.527,1.023l-15.752-.007-.539-.495V135.28a1.47,1.47,0,0,1,1.165-.643,84.733,84.733,0,0,1,10.1,0c.73.025,1.06.272,1.151,1.046" transform="translate(-19.272 -99.749)" fill="#12263f"/>
          <path id="Trazado_1258923" data-name="Trazado 1258923" d="M46.928,139.113c-2.076,2.524-3.959,5.245-6.071,7.748-.9-1.041-2.2-4.542-3.617-4.62-1.066-.059-1.393,1.194-1.026,2.026,1.174,1.115,2.593,4.837,3.612,5.692a1.522,1.522,0,0,0,1.861-.075c2.1-2.934,4.575-5.606,6.79-8.446-.093.457.133,2.13,0,2.325-.031.046-.786.095-1.039.379-.678.764-.013,6.948-.253,8.4H35.046V140.663h8.912c.865,0,1.255-.757,1.162-1.55Z" transform="translate(-25.993 -103.179)" fill="#ffc300"/>
          <path id="Trazado_1258924" data-name="Trazado 1258924" d="M116.81,57.046l24.745-.063c1.918.079,2.312,2.333.267,2.6l-24.823,0a1.282,1.282,0,0,1-.189-2.537" transform="translate(-85.873 -42.264)" fill="#12263f"/>
          <path id="Trazado_1258925" data-name="Trazado 1258925" d="M116.552,74.226l18.548-.058a1.219,1.219,0,0,1,.2,2.421l-18.607,0c-1.132-.035-1.25-2.109-.141-2.361" transform="translate(-85.872 -55.01)" fill="#12263f"/>
          <path id="Trazado_1258926" data-name="Trazado 1258926" d="M116.81,148.9l24.745-.062c1.918.079,2.312,2.333.267,2.6l-24.823,0a1.282,1.282,0,0,1-.189-2.537" transform="translate(-85.873 -110.389)" fill="#12263f"/>
          <path id="Trazado_1258927" data-name="Trazado 1258927" d="M116.552,166.078l18.548-.058a1.219,1.219,0,0,1,.2,2.421l-18.607,0c-1.132-.035-1.25-2.109-.141-2.361" transform="translate(-85.872 -123.135)" fill="#12263f"/>
          <path id="Trazado_1258928" data-name="Trazado 1258928" d="M116.81,238.972l4.7-.063c1.918.079,2.312,2.333.267,2.6l-4.781,0a1.282,1.282,0,0,1-.189-2.537" transform="translate(-85.873 -177.196)" fill="#12263f"/>
          <path id="Trazado_1258929" data-name="Trazado 1258929" d="M116.552,256.152l18.548-.058a1.219,1.219,0,0,1,.2,2.421H116.693c-1.132-.035-1.25-2.109-.141-2.361" transform="translate(-85.872 -189.942)" fill="#12263f"/>
          <path id="Trazado_1258930" data-name="Trazado 1258930" d="M51.418,128.732c-2.216,2.84-4.688,5.512-6.79,8.446a1.522,1.522,0,0,1-1.861.075c-1.019-.854-2.438-4.576-3.612-5.692-.367-.832-.04-2.085,1.026-2.026,1.412.078,2.712,3.579,3.617,4.62,2.112-2.5,4-5.224,6.071-7.748.528-.642,3.287-4.1,3.622-4.258a1.183,1.183,0,0,1,1.8,1.263c-.063.623-3.2,4.459-3.875,5.32" transform="translate(-28.933 -90.473)" fill="#12263f"/>
          <path id="Trazado_1258931" data-name="Trazado 1258931" d="M38.4,36.721c.093.792-.3,1.55-1.162,1.55H28.325V50.153H40.465c.239-1.456-.44-6.817.253-8.4.152-.349,1.008-.333,1.039-.379.718.27.953.362,1.048,1.148a61.768,61.768,0,0,1,0,9.067c-.057.44-.1.784-.527,1.023L26.523,52.6l-.539-.495V36.317a1.47,1.47,0,0,1,1.165-.643,84.735,84.735,0,0,1,10.1,0c.73.025,1.06.272,1.151,1.046" transform="translate(-19.272 -26.349)" fill="#12263f"/>
          <path id="Trazado_1258932" data-name="Trazado 1258932" d="M46.928,40.15c-2.076,2.524-3.959,5.245-6.071,7.748-.9-1.041-2.2-4.542-3.617-4.62-1.066-.059-1.393,1.194-1.026,2.026,1.174,1.116,2.593,4.837,3.612,5.692a1.522,1.522,0,0,0,1.861-.075c2.1-2.934,4.575-5.606,6.79-8.446-.093.457.133,2.13,0,2.325-.031.046-.786.095-1.039.379-.678.764-.013,6.948-.253,8.4H35.046V41.7h8.912c.865,0,1.255-.757,1.162-1.55Z" transform="translate(-25.993 -29.779)" fill="#ffc300"/>
          <path id="Trazado_1258933" data-name="Trazado 1258933" d="M51.418,29.769c-2.216,2.84-4.688,5.512-6.79,8.446a1.522,1.522,0,0,1-1.861.075c-1.019-.854-2.438-4.576-3.612-5.692-.367-.832-.04-2.085,1.026-2.026,1.412.078,2.712,3.579,3.617,4.62,2.112-2.5,4-5.224,6.071-7.748.528-.642,3.287-4.1,3.622-4.258a1.183,1.183,0,0,1,1.8,1.263c-.063.623-3.2,4.459-3.875,5.32" transform="translate(-28.933 -17.073)" fill="#12263f"/>
          <path id="Trazado_1258934" data-name="Trazado 1258934" d="M38.4,223.98c.093.792-.3,1.55-1.162,1.55H28.325v11.882H40.465c.239-1.456-.44-6.817.253-8.4.152-.349,1.008-.333,1.039-.379.718.27.953.362,1.048,1.148a61.769,61.769,0,0,1,0,9.067c-.057.44-.1.784-.527,1.023l-15.752-.007-.539-.495V223.576a1.47,1.47,0,0,1,1.165-.643,84.737,84.737,0,0,1,10.1,0c.73.025,1.06.272,1.151,1.046" transform="translate(-19.272 -165.238)" fill="#12263f"/>
          <path id="Trazado_1258935" data-name="Trazado 1258935" d="M46.928,227.409c-2.076,2.524-3.959,5.245-6.071,7.748-.9-1.041-2.2-4.542-3.617-4.62-1.066-.059-1.393,1.194-1.026,2.026,1.174,1.115,2.593,4.837,3.612,5.692a1.522,1.522,0,0,0,1.861-.075c2.1-2.934,4.575-5.606,6.79-8.446-.093.457.133,2.13,0,2.325-.031.046-.786.095-1.039.379-.678.764-.013,6.948-.253,8.4H35.046V228.959h8.912c.865,0,1.255-.757,1.162-1.55Z" transform="translate(-25.993 -168.667)" fill="#ffc300"/>
          <path id="Trazado_1258936" data-name="Trazado 1258936" d="M51.418,217.028c-2.216,2.84-4.688,5.512-6.79,8.446a1.522,1.522,0,0,1-1.861.075c-1.019-.854-2.438-4.576-3.612-5.692-.367-.832-.04-2.085,1.026-2.026,1.412.078,2.712,3.579,3.617,4.62,2.112-2.5,4-5.224,6.071-7.748.528-.642,3.287-4.1,3.622-4.258a1.183,1.183,0,0,1,1.8,1.263c-.063.623-3.2,4.459-3.875,5.32" transform="translate(-28.933 -155.961)" fill="#12263f"/>
          <path id="Trazado_1258937" data-name="Trazado 1258937" d="M179.332,215.554c-.894-.041-2.519,1.636-3.191,1.511-.206-.038-2.368-2.442-3.029-2.907-13.321-9.357-28.174,9.627-16.129,20.263,10.508,9.279,25.912-2.333,20.522-15.079.492-.321,3.07-1.984,3.376-1.718,3.614,8.247.2,18.447-8.086,22.263-17.053,7.856-32.146-13.822-19.046-27.054,7.2-7.272,20.337-6.16,25.585,2.721" transform="translate(-110.352 -154.31)" fill="#e14a5c"/>
          <path id="Trazado_1258938" data-name="Trazado 1258938" d="M192.131,236.418c-.79-.042-2.789,1.781-3.231,1.747-.136-.01-1.711-1.356-2.218-1.59a6.6,6.6,0,0,0-8.8,8.8c2.559,5.6,11.385,4.469,12.383-1.4.148-.868-.186-3.53-.087-3.686a21.3,21.3,0,0,1,3.113-1.808c4.517,9.552-7.365,18.844-15.751,12.4-9.509-7.306-1.347-22.241,9.939-18.205,1.69.6,3.939,2.078,4.654,3.736" transform="translate(-128.575 -172.073)" fill="#eeeded"/>
          <path id="Trazado_1258939" data-name="Trazado 1258939" d="M206.242,260.326c.379,4.1-4.845,6.528-7.4,3.135-2.977-3.958,2.149-8.576,5.843-5.59-1.07,1.331-4.761,1.879-4.392,3.871.5,2.673,5.33-2.057,5.946-1.415" transform="translate(-146.82 -190.552)" fill="#e14a5c"/>
          <path id="Trazado_1258940" data-name="Trazado 1258940" d="M304.868,208.283c.175.255-2.276,1.787-2.711,1.787a20.951,20.951,0,0,1-3.188-1.574,15.3,15.3,0,0,1,.084-3.837c.212-.347,2.243-1.11,2.713-1.546-.359,3.062.234,4.168,3.1,5.17" transform="translate(-221.68 -150.647)" fill="#ffc300"/>
        </g>
      </g>
    </g>
  </g>
</svg>
