<svg xmlns="http://www.w3.org/2000/svg" xmlns:xlink="http://www.w3.org/1999/xlink" width="107" height="107" viewBox="0 0 107 107">
  <defs>
    <clipPath id="clip-path">
      <rect id="Rectángulo_455821" data-name="Rectángulo 455821" width="56.065" height="55" fill="#0d5365"/>
    </clipPath>
  </defs>
  <g id="Grupo_1204355" data-name="Grupo 1204355" transform="translate(-346.059 -8474)">
    <circle id="Elipse_13621" data-name="Elipse 13621" cx="53.5" cy="53.5" r="53.5" transform="translate(346.059 8474)" fill="#0d5365"/>
    <g id="Grupo_1203588" data-name="Grupo 1203588" transform="translate(75.793 18.437)">
      <g id="Grupo_154427" data-name="Grupo 154427" transform="translate(278.266 8463.563)">
        <path id="Elipse_5729" data-name="Elipse 5729" d="M45.646,0A45.646,45.646,0,1,1,0,45.646,45.646,45.646,0,0,1,45.646,0Z" transform="translate(0 -0.035)" fill="#f3fee7"/>
        <g id="Grupo_1204750" data-name="Grupo 1204750" transform="translate(18 17.966)">
          <g id="Grupo_1204749" data-name="Grupo 1204749" clip-path="url(#clip-path)">
            <path id="Trazado_1259746" data-name="Trazado 1259746" d="M53.732,10.535l-4.474,2.137-.325.468.018,6.281.241.236a3.576,3.576,0,1,1-.249,7.132A10.382,10.382,0,0,1,39,35.917c-.094.824.424,4.573-.88,4.573H4.734v5.2h46.6V29.848c0-.366.658-.95,1.065-.981s1.177.462,1.177.823v16c2.745-.395,2.6,1.461,2.4,3.545A6.343,6.343,0,0,1,49.816,55L5.66,54.95A6.32,6.32,0,0,1,.093,49.237c-.2-2.084-.346-3.939,2.4-3.545v-5.2c-.932.023-2.03.169-2.4-.871L.083,16.124a1.232,1.232,0,0,1,1.205-1.336c5,.3,10.437-.384,15.381,0A5.525,5.525,0,0,1,19.548,15.9a5.745,5.745,0,0,1,2.281-1.065c1.065-.152,4.6-.479,4.477,1.118-.133,1.7-3.475.778-4.608,1.119a2.6,2.6,0,0,0-1.112,1.27V34.5c.314.151.788-.315.881-.315H32.436a11.1,11.1,0,0,1-4.33-7.4c-4.487.274-5.571-6.006-1.156-7.064.369-.088,1.007.1,1.141-.3l0-6.417L21.274,9.545a1.092,1.092,0,0,1,.1-1.462L37.5.311,38.718,0c4.8,2.268,9.662,4.44,14.431,6.773.96.47,2.7.986,2.828,2.1.244,2.072-.159,4.625-.038,6.749a1.124,1.124,0,0,1-2.207-.124ZM49.889,9.9H41.322c-1.02,0-1.079-2.207.16-2.207h8.406L38.456,2.342C34.779,4.011,31.1,5.7,27.468,7.457c-.249.12-2.851,1.327-2.718,1.5l13.716,6.431ZM46.847,14a1.008,1.008,0,0,0-.486.072c-2.31.716-5.107,2.875-7.355,3.48-.886.238-1.808-.378-2.623-.738-2.086-.92-4.1-2.044-6.189-2.972v4.808l8.379,3.669,8.274-3.669ZM18.5,34.1V18.812c0-.449-.747-1.813-1.2-1.813H2.332V34.183l14.658-.006,1.257.324c.092-.013.252-.363.258-.4M46.847,21.1c-2.446.864-4.95,2.4-7.368,3.229a2.121,2.121,0,0,1-1.916,0c-2.422-.825-4.928-2.352-7.368-3.229v5.281c0,3.989,4.5,7.57,8.412,7.5,3.929-.073,8.241-3.613,8.241-7.656ZM28.112,24.566v-2.6c0-.541-1.392.025-1.64.591a1.417,1.417,0,0,0,1.64,2.01m20.816-2.6v2.6c2.132.239,2.472-2.4.392-2.839ZM18.5,38.282c.026-.811-.823-2.05-1.681-2.05H2.332v2.05Zm18.254-2.05H22.268c-.733,0-1.9,1.218-1.681,2.05H36.759ZM53.732,47.9H2.332a4.19,4.19,0,0,0,3.3,4.874l45.07-.056A4.2,4.2,0,0,0,53.732,47.9" transform="translate(0.001 -0.001)" fill="#0d5365"/>
            <path id="Trazado_1259747" data-name="Trazado 1259747" d="M336.767,121.685a1.07,1.07,0,0,1,.968,1.9,1.07,1.07,0,1,1-.968-1.9" transform="translate(-282.278 -102.449)" fill="#0d5365"/>
            <path id="Trazado_1259748" data-name="Trazado 1259748" d="M33.484,138.336c2.415.164,5.457-.344,7.8-.019,1.569.219,1.334,1.977.006,2.183a50.385,50.385,0,0,1-7.5-.006,1.224,1.224,0,0,1-1.214-1.022,1.2,1.2,0,0,1,.913-1.137" transform="translate(-27.354 -116.417)" fill="#0d5365"/>
            <path id="Trazado_1259749" data-name="Trazado 1259749" d="M32.911,171.63a1.186,1.186,0,0,1,.671-.205,24.637,24.637,0,0,1,3.842,0,1.067,1.067,0,0,1,0,2.041,26.606,26.606,0,0,1-4.125-.03,1.047,1.047,0,0,1-.388-1.811" transform="translate(-27.33 -144.337)" fill="#0d5365"/>
            <path id="Trazado_1259750" data-name="Trazado 1259750" d="M81.034,171.663c1.916-.554,2.06,2.583,0,1.985a1.1,1.1,0,0,1,0-1.985" transform="translate(-67.537 -144.544)" fill="#0d5365"/>
            <path id="Trazado_1259751" data-name="Trazado 1259751" d="M154.192,312.5a36.006,36.006,0,0,1,5.376,0c1.224.265,1.052,1.95-.461,2.159-.884.122-4.638.124-5.275-.3a1.059,1.059,0,0,1,.36-1.863" transform="translate(-128.847 -263.144)" fill="#0d5365"/>
            <path id="Trazado_1259752" data-name="Trazado 1259752" d="M234.858,49.108a1.062,1.062,0,0,1,.779,1.849c-1.553,1.347-2.736-1.748-.779-1.849" transform="translate(-196.393 -41.364)" fill="#0d5365"/>
          </g>
        </g>
      </g>
    </g>
  </g>
</svg>
