<svg xmlns="http://www.w3.org/2000/svg" xmlns:xlink="http://www.w3.org/1999/xlink" width="96" height="96" viewBox="0 0 96 96">
  <defs>
    <clipPath id="clip-path">
      <rect id="Rectángulo_454682" data-name="Rectángulo 454682" width="96" height="96" fill="#feea89"/>
    </clipPath>
    <clipPath id="clip-path-2">
      <rect id="Rectángulo_455279" data-name="Rectángulo 455279" width="58" height="58" transform="translate(4.965 14.267)" fill="#fff" stroke="#707070" stroke-width="1"/>
    </clipPath>
    <clipPath id="clip-path-3">
      <rect id="Rectángulo_455838" data-name="Rectángulo 455838" width="40.433" height="55.731" fill="#fff"/>
    </clipPath>
  </defs>
  <g id="Grupo_1204772" data-name="Grupo 1204772" transform="translate(-731.746 -8618)">
    <g id="Grupo_1203592" data-name="Grupo 1203592" transform="translate(731.746 8618)">
      <g id="Grupo_1203487" data-name="Grupo 1203487">
        <g id="Grupo_1203486" data-name="Grupo 1203486" clip-path="url(#clip-path)">
          <path id="Trazado_1256437" data-name="Trazado 1256437" d="M2.058,84.327a47.583,47.583,0,0,0,1.836,6.227L23,71.45a25.883,25.883,0,0,1,4.958-13.021Z" transform="translate(-0.911 -25.866)" fill="#feea89"/>
          <path id="Trazado_1256438" data-name="Trazado 1256438" d="M90.555,3.894a47.583,47.583,0,0,0-6.227-1.836l-25.9,25.9A25.886,25.886,0,0,1,71.451,23Z" transform="translate(-25.866 -0.911)" fill="#feea89"/>
          <path id="Trazado_1256439" data-name="Trazado 1256439" d="M117.575,12.855a48.029,48.029,0,0,0-5.022-3.041L95.523,26.843a25.831,25.831,0,0,1,6.031,2.032Z" transform="translate(-42.287 -4.345)" fill="#feea89"/>
          <path id="Trazado_1256440" data-name="Trazado 1256440" d="M9.814,112.552a47.933,47.933,0,0,0,3.041,5.022l16.021-16.021a25.831,25.831,0,0,1-2.032-6.031Z" transform="translate(-4.345 -42.287)" fill="#feea89"/>
          <path id="Trazado_1256441" data-name="Trazado 1256441" d="M4.273,34.929,34.929,4.273A48.116,48.116,0,0,0,4.273,34.929" transform="translate(-1.892 -1.892)" fill="#feea89"/>
          <path id="Trazado_1256442" data-name="Trazado 1256442" d="M48,0q-2.406,0-4.752.234L.234,43.248Q0,45.593,0,48q0,1.726.123,3.422l51.3-51.3C50.292.043,49.151,0,48,0" transform="translate(0 0)" fill="#feea89"/>
          <path id="Trazado_1256443" data-name="Trazado 1256443" d="M143.483,112.406l-31.076,31.076a48.112,48.112,0,0,0,31.076-31.076" transform="translate(-49.761 -49.761)" fill="#feea89"/>
          <path id="Trazado_1256444" data-name="Trazado 1256444" d="M131.113,79.625,79.625,131.113q1.795.134,3.624.135c1.524,0,3.03-.074,4.517-.213l43.27-43.27c.139-1.487.213-2.993.213-4.516q0-1.829-.135-3.624" transform="translate(-35.249 -35.249)" fill="#feea89"/>
          <path id="Trazado_1256445" data-name="Trazado 1256445" d="M119.266,41.241l15.585-15.585a48.285,48.285,0,0,0-4.038-4.025L115.222,37.222a26.166,26.166,0,0,1,4.044,4.019" transform="translate(-51.007 -9.575)" fill="#feea89"/>
          <path id="Trazado_1256446" data-name="Trazado 1256446" d="M37.222,115.222,21.63,130.814a48.369,48.369,0,0,0,4.025,4.038l15.585-15.585a26.166,26.166,0,0,1-4.019-4.044" transform="translate(-9.575 -51.007)" fill="#feea89"/>
          <path id="Trazado_1256447" data-name="Trazado 1256447" d="M74.932,129.121,55.9,148.149a47.687,47.687,0,0,0,6.207,1.857l25.333-25.333a25.88,25.88,0,0,1-12.512,4.448" transform="translate(-24.748 -55.191)" fill="#feea89"/>
          <path id="Trazado_1256448" data-name="Trazado 1256448" d="M150.006,62.11a47.591,47.591,0,0,0-1.857-6.206L129.121,74.931a25.87,25.87,0,0,1-4.448,12.512Z" transform="translate(-55.191 -24.748)" fill="#feea89"/>
          <path id="Trazado_1256449" data-name="Trazado 1256449" d="M147.17,41.946a48.074,48.074,0,0,0-3.054-5.009l-16,16a25.825,25.825,0,0,1,2.064,6Z" transform="translate(-56.713 -16.352)" fill="#feea89"/>
          <path id="Trazado_1256450" data-name="Trazado 1256450" d="M36.937,144.115a47.933,47.933,0,0,0,5.009,3.055l16.995-17a25.812,25.812,0,0,1-6-2.064Z" transform="translate(-16.352 -56.713)" fill="#feea89"/>
        </g>
      </g>
    </g>
    <g id="Grupo_154427" data-name="Grupo 154427" transform="translate(736.746 8623)">
      <path id="Elipse_5729" data-name="Elipse 5729" d="M43,0A43,43,0,1,1,0,43,43,43,0,0,1,43,0Z" transform="translate(-0.162 0)" fill="#302c9e"/>
      <g id="Enmascarar_grupo_1119166" data-name="Enmascarar grupo 1119166" transform="translate(10)" clip-path="url(#clip-path-2)">
        <g id="Grupo_1204774" data-name="Grupo 1204774" transform="translate(13.965 15.266)">
          <g id="Grupo_1204773" data-name="Grupo 1204773" clip-path="url(#clip-path-3)">
            <path id="Trazado_1259852" data-name="Trazado 1259852" d="M81.9,9.18V21.208a18.437,18.437,0,0,1,5.6,2.307V14.123c-1.378.084-3.367.124-2.893-1.822,1.805-2.06,3.539-4.658,5.445-6.583,1.113-1.124,1.525-1.127,2.64,0a62.5,62.5,0,0,1,4.689,5.526c.5.682,1.146,1.247.706,2.182-.417.886-2.037.695-2.845.7l.009,17.392c-.844,1.684-.086,2.759.136,4.461a17.915,17.915,0,0,1-2.615,11.679c1.06-.333,1.891,1,.98,1.639-.532.37-3.675,1.22-4.124.679-.37-.447-.446-3.362-.282-3.932a.925.925,0,0,1,1.692-.114c.135.307-.049.8.248.82.35-.848.889-1.622,1.235-2.473,5.085-12.52-6.878-25.3-19.68-20.833-.8.278-3.442,1.99-3.633.317-.109-.947,1.875-1.568,2.6-1.847a17.878,17.878,0,0,1,2.348-.7V9.18c-1.457.069-3.329.231-2.892-1.821l5.6-6.753a1.413,1.413,0,0,1,2.32,0l5.6,6.753c.436,2.052-1.436,1.89-2.892,1.821M75.971,7.944V20.878a19.918,19.918,0,0,1,4.119,0V7.944c0-.7,1.858-.54,2.306-.658L78.031,2.1,73.666,7.286c.6.189,2.079-.163,2.306.658M93.437,29.775V12.887c0-.656,1.513-.551,1.9-.576.246-.016.476.125.407-.246L91.377,7.043l-4.368,5.184c-.006.273,1.71-.257,2.154.486l.188,12.169a24.986,24.986,0,0,1,4.085,4.895" transform="translate(-57.806 0.001)" fill="#fff"/>
            <path id="Trazado_1259853" data-name="Trazado 1259853" d="M61.834,161.548a21.072,21.072,0,0,1,3.556,0c.785.227.606,1.548,1.219,1.911.1.062,1.7.68,1.8.69.913.092,1.337-.993,2.531-.239a21.718,21.718,0,0,1,2.116,2.168c.313,1.032-.564,1.6-.564,2.108a21.831,21.831,0,0,0,.848,2.056c.357.428,1.716.326,1.887,1.243a21.322,21.322,0,0,1-.03,3.421c-.215.741-1.388.646-1.777,1.025a19.5,19.5,0,0,0-.795,1.852c-.2.995.975,1.458.209,2.671a13.705,13.705,0,0,1-2.208,2.076c-1.035.334-1.415-.5-2.217-.42a17.388,17.388,0,0,0-1.9.749c-.517.414-.309,1.706-1.249,1.881a21.325,21.325,0,0,1-3.421-.03c-.74-.215-.646-1.386-1.025-1.776a14.317,14.317,0,0,0-1.853-.794c-1.024-.174-1.469.965-2.669.207a13.721,13.721,0,0,1-2.076-2.208c-.334-1.035.5-1.416.42-2.217-.01-.1-.686-1.822-.747-1.9-.376-.5-1.707-.3-1.884-1.247a21.34,21.34,0,0,1,.03-3.421c.212-.733,1.536-.724,1.857-1.109.068-.082.812-1.857.832-1.961.093-.493-.967-1.285-.495-2.317a17.563,17.563,0,0,1,2.377-2.236c1.035-.334,1.416.5,2.217.42.1-.01,1.822-.686,1.9-.747.467-.349.349-1.632,1.112-1.854m2.662,1.8H62.728c-.227,2.108-2.195,1.734-3.6,2.751-.757.254-1.494-.722-2.11-.314-1.7,1.126-.254,1.564-.408,2.717-.021.157-1.1,2.812-1.183,2.948-.3.5-1.554.6-1.622.884l.029,1.678,1.534.69c.144,1.136,1.424,2.607,1.21,3.66-.07.342-.464.708-.457,1.032a3.369,3.369,0,0,0,1.1,1.209c.413.106.981-.569,1.763-.469.167.021,2.978,1.2,3.111,1.306.36.279.5,1.446.72,1.5l1.682-.03c.094-.06.312-1.165.562-1.415.117-.117,2.867-1.294,3.043-1.329.957-.189,1.29.468,1.778.457a3.367,3.367,0,0,0,1.209-1.1c.1-.391-.364-.788-.438-1.158-.219-1.081,1.045-2.4,1.151-3.554l1.624-.882-.035-1.677-1.531-.693c-.13-1.1-1.41-2.677-1.208-3.662.07-.342.464-.708.457-1.032a3.374,3.374,0,0,0-1.1-1.21c-.378-.1-1.1.543-1.765.473-.168-.018-2.976-1.206-3.109-1.309-.327-.254-.454-1.087-.634-1.469" transform="translate(-43.388 -134.868)" fill="#fff"/>
            <path id="Trazado_1259854" data-name="Trazado 1259854" d="M20.981,162.55l-1.346,2.359A15.711,15.711,0,0,0,39.852,185.62c.708-.275,2.965-1.826,3.346-.719a1.349,1.349,0,0,1-.139,1.125c-.541.656-3.836,1.763-4.775,1.98a17.5,17.5,0,0,1-18.951-26.365c-.888.037-1.73-.418-1.236-1.4a15.389,15.389,0,0,1,3.655-1.274c1.294-.047,1.232,3.508,1.007,4.29-.331,1.153-2.136.556-1.779-.706" transform="translate(-13.857 -132.773)" fill="#fff"/>
            <path id="Trazado_1259855" data-name="Trazado 1259855" d="M13.339,68.3c-.6.488-2.234-.038-2.517.369l-.1,6.157a.929.929,0,0,1-1.789-.29,49.6,49.6,0,0,1,.045-7.056c.2-.929,1.127-.562,1.861-.613.246-.017.477.127.408-.245L6.879,61.593,2.514,66.617c-.069.372.162.228.408.245.858.059,1.715-.353,1.887.752a45.892,45.892,0,0,1,0,6.9.975.975,0,0,1-.9.9,1.009,1.009,0,0,1-.9-.733c-.2-1.035.247-5.558-.075-6.021-.809-.428-2.339.291-2.807-.816-.364-.862.118-1.267.577-1.887a66.65,66.65,0,0,1,4.689-5.527c1.463-1.525,1.771-1.289,3.135.165,1.719,1.831,3.224,4.067,4.968,5.907a1.46,1.46,0,0,1-.157,1.79" transform="translate(0 -49.608)" fill="#fff"/>
            <path id="Trazado_1259856" data-name="Trazado 1259856" d="M92.142,195.786c8.164-.868,8.879,11.793.769,11.986-7.512.179-8.379-11.177-.769-11.986m0,1.809c-5.793.8-3.895,10.033,2.016,8.111,4.6-1.5,3.076-8.811-2.016-8.111" transform="translate(-72.532 -163.492)" fill="#fff"/>
          </g>
        </g>
      </g>
    </g>
  </g>
</svg>
