<svg xmlns="http://www.w3.org/2000/svg" xmlns:xlink="http://www.w3.org/1999/xlink" width="96" height="96" viewBox="0 0 96 96">
  <defs>
    <clipPath id="clip-path">
      <rect id="Rectángulo_454682" data-name="Rectángulo 454682" width="96" height="96" fill="#feea89"/>
    </clipPath>
    <clipPath id="clip-path-2">
      <rect id="Rectángulo_455279" data-name="Rectángulo 455279" width="58" height="58" transform="translate(4.711 14.267)" fill="#fff" stroke="#707070" stroke-width="1"/>
    </clipPath>
    <clipPath id="clip-path-3">
      <rect id="Rectángulo_455836" data-name="Rectángulo 455836" width="54.914" height="55" fill="#fff"/>
    </clipPath>
  </defs>
  <g id="Grupo_1204766" data-name="Grupo 1204766" transform="translate(-731.746 -8618)">
    <g id="Grupo_1203592" data-name="Grupo 1203592" transform="translate(731.746 8618)">
      <g id="Grupo_1203487" data-name="Grupo 1203487">
        <g id="Grupo_1203486" data-name="Grupo 1203486" clip-path="url(#clip-path)">
          <path id="Trazado_1256437" data-name="Trazado 1256437" d="M2.058,84.327a47.583,47.583,0,0,0,1.836,6.227L23,71.45a25.883,25.883,0,0,1,4.958-13.021Z" transform="translate(-0.911 -25.866)" fill="#feea89"/>
          <path id="Trazado_1256438" data-name="Trazado 1256438" d="M90.555,3.894a47.583,47.583,0,0,0-6.227-1.836l-25.9,25.9A25.886,25.886,0,0,1,71.451,23Z" transform="translate(-25.866 -0.911)" fill="#feea89"/>
          <path id="Trazado_1256439" data-name="Trazado 1256439" d="M117.575,12.855a48.029,48.029,0,0,0-5.022-3.041L95.523,26.843a25.831,25.831,0,0,1,6.031,2.032Z" transform="translate(-42.287 -4.345)" fill="#feea89"/>
          <path id="Trazado_1256440" data-name="Trazado 1256440" d="M9.814,112.552a47.933,47.933,0,0,0,3.041,5.022l16.021-16.021a25.831,25.831,0,0,1-2.032-6.031Z" transform="translate(-4.345 -42.287)" fill="#feea89"/>
          <path id="Trazado_1256441" data-name="Trazado 1256441" d="M4.273,34.929,34.929,4.273A48.116,48.116,0,0,0,4.273,34.929" transform="translate(-1.892 -1.892)" fill="#feea89"/>
          <path id="Trazado_1256442" data-name="Trazado 1256442" d="M48,0q-2.406,0-4.752.234L.234,43.248Q0,45.593,0,48q0,1.726.123,3.422l51.3-51.3C50.292.043,49.151,0,48,0" transform="translate(0 0)" fill="#feea89"/>
          <path id="Trazado_1256443" data-name="Trazado 1256443" d="M143.483,112.406l-31.076,31.076a48.112,48.112,0,0,0,31.076-31.076" transform="translate(-49.761 -49.761)" fill="#feea89"/>
          <path id="Trazado_1256444" data-name="Trazado 1256444" d="M131.113,79.625,79.625,131.113q1.795.134,3.624.135c1.524,0,3.03-.074,4.517-.213l43.27-43.27c.139-1.487.213-2.993.213-4.516q0-1.829-.135-3.624" transform="translate(-35.249 -35.249)" fill="#feea89"/>
          <path id="Trazado_1256445" data-name="Trazado 1256445" d="M119.266,41.241l15.585-15.585a48.285,48.285,0,0,0-4.038-4.025L115.222,37.222a26.166,26.166,0,0,1,4.044,4.019" transform="translate(-51.007 -9.575)" fill="#feea89"/>
          <path id="Trazado_1256446" data-name="Trazado 1256446" d="M37.222,115.222,21.63,130.814a48.369,48.369,0,0,0,4.025,4.038l15.585-15.585a26.166,26.166,0,0,1-4.019-4.044" transform="translate(-9.575 -51.007)" fill="#feea89"/>
          <path id="Trazado_1256447" data-name="Trazado 1256447" d="M74.932,129.121,55.9,148.149a47.687,47.687,0,0,0,6.207,1.857l25.333-25.333a25.88,25.88,0,0,1-12.512,4.448" transform="translate(-24.748 -55.191)" fill="#feea89"/>
          <path id="Trazado_1256448" data-name="Trazado 1256448" d="M150.006,62.11a47.591,47.591,0,0,0-1.857-6.206L129.121,74.931a25.87,25.87,0,0,1-4.448,12.512Z" transform="translate(-55.191 -24.748)" fill="#feea89"/>
          <path id="Trazado_1256449" data-name="Trazado 1256449" d="M147.17,41.946a48.074,48.074,0,0,0-3.054-5.009l-16,16a25.825,25.825,0,0,1,2.064,6Z" transform="translate(-56.713 -16.352)" fill="#feea89"/>
          <path id="Trazado_1256450" data-name="Trazado 1256450" d="M36.937,144.115a47.933,47.933,0,0,0,5.009,3.055l16.995-17a25.812,25.812,0,0,1-6-2.064Z" transform="translate(-16.352 -56.713)" fill="#feea89"/>
        </g>
      </g>
    </g>
    <g id="Grupo_154427" data-name="Grupo 154427" transform="translate(736.746 8623)">
      <path id="Elipse_5729" data-name="Elipse 5729" d="M43,0A43,43,0,1,1,0,43,43,43,0,0,1,43,0Z" transform="translate(-0.162 0)" fill="#302c9e"/>
      <g id="Enmascarar_grupo_1119166" data-name="Enmascarar grupo 1119166" transform="translate(10)" clip-path="url(#clip-path-2)">
        <g id="Grupo_1204768" data-name="Grupo 1204768" transform="translate(5.711 16.267)">
          <g id="Grupo_1204767" data-name="Grupo 1204767" clip-path="url(#clip-path-3)">
            <path id="Trazado_1259819" data-name="Trazado 1259819" d="M1.866,206.162c-.421-.072-1.6.217-1.762-.266.382-3.469-1.476-8.637,2.557-10.36-2.918-3.983,2.91-8.638,6.184-4.988,1.353,1.508,1.129,3.293.485,5.066,1.454-.095,2.361,1.248,3.569,1.785.473-1.244.159-2.952,1.948-2.838l-.98-1.861-1.663.455c-.36-.11-2.336-3.591-2.633-4.191a2.816,2.816,0,0,1-.535-1.509c.07-.58,1.936-1.214,2.514-1.55a12.793,12.793,0,0,0,3.688-2.8c1.146-1.38,1.668-4.089,3.311-1.656,1.189,1.76,2.625,4.364,3.63,6.269.186.353.645,1.073.556,1.411-.256.973-1.4.554-2.123.648a14.637,14.637,0,0,0-5.439,1.785c.579.693,1.075,2.236,1.642,2.818.424.435.89.214.967.989a45.752,45.752,0,0,1-1.352,6.776c-.917,2.628-3.94.327-5.637-.039v4.057H9.007v-5.6c0-.262.67-.841,1.016-.7l4.662,1.756,1.137-5.192-.787.022c-.56.949-.3,4.049-2.127,3.3-1.246-.514-2.252-2.322-3.981-2.508a34.786,34.786,0,0,0-5.643.037,2.017,2.017,0,0,0-1.417,1.5ZM17.6,183.282c-.226-.053-.266.033-.407.157-.721.633-1.436,1.731-2.271,2.435a5.646,5.646,0,0,1-1.367.828l1.466,2.9a12.312,12.312,0,0,1,5.178-1.452Zm-5.528,4.553c-.481.037-.89,0-.768.52a16.273,16.273,0,0,0,1.291,2.288c.1.132.141.293.354.247l.576-.384Zm-6.683,3.275a2.217,2.217,0,0,0,.14,4.328c3.486.439,3.356-4.966-.14-4.328" transform="translate(0 -151.183)" fill="#fff"/>
            <path id="Trazado_1259820" data-name="Trazado 1259820" d="M198.571,212.792c8.306-.914,12.252,10,5.215,14.627A8.027,8.027,0,0,1,191.47,221.1a8.18,8.18,0,0,1,7.1-8.31m6.043,11.152c2.711-3.612-.085-8.992-4.484-9.391-5.086-.462-8.732,5.13-5.822,9.391a5.563,5.563,0,0,1,2.333-2.835,3.622,3.622,0,0,1,1.1-5.248,3.573,3.573,0,0,1,4.607,5.225c.941.824,1.983,1.546,2.263,2.859m-3.785-3.782c1.552-1.756-1.214-4.219-2.711-2.305a1.782,1.782,0,0,0,2.711,2.305m-2.585,2.364a2.639,2.639,0,0,0-2.233,3.123c.094.489,1.724,1.1,2.23,1.177a7.072,7.072,0,0,0,3.492-.324c1.245-.469,1.564-.769,1.147-2.205-.553-1.9-3.018-2.018-4.636-1.771" transform="translate(-160.391 -178.215)" fill="#fff"/>
            <path id="Trazado_1259821" data-name="Trazado 1259821" d="M101.811.01c10.708-.481,11.093,15.9.433,16.035C92.117,16.173,91.481.475,101.811.01m5.706,11.314a6.34,6.34,0,0,0-1.959-8.505c-5.639-3.583-12.15,2.966-8.506,8.506a3.9,3.9,0,0,1,2.352-2.76c-.016-.367-.32-.57-.453-.923a3.546,3.546,0,0,1,6.1-3.507,3.824,3.824,0,0,1,.017,4.337l1.233.9ZM101.63,4.545c-2.05.469-1.233,4.106,1.088,3.365a1.768,1.768,0,1,0-1.088-3.365m-3,8.533a6.171,6.171,0,0,0,5.518.8c1.1-.349,1.733-.54,1.574-1.805-.449-3.563-7.8-3.194-7.091,1.008" transform="translate(-79.04 0)" fill="#fff"/>
            <path id="Trazado_1259822" data-name="Trazado 1259822" d="M248.423,54.8c10.779-1.113,11.954,14.966,1.734,15.853-10.605.92-11.864-14.807-1.734-15.853m6.039,11.149c2.122-2.588.963-6.7-1.737-8.407-5.66-3.567-12.108,2.848-8.569,8.406a5.679,5.679,0,0,1,2.35-2.85,3.558,3.558,0,1,1,5.684,0,4.983,4.983,0,0,1,2.272,2.85m-6.437-3.788a1.78,1.78,0,0,0,2.705-2.3c-1.583-2.019-4.246.68-2.705,2.3m-.1,2.367a2.693,2.693,0,0,0-2.067,3.127c.191.992,3.271,1.291,4.144,1.222.545-.043,2.5-.557,2.755-.978.531-.873-.268-2.478-1.065-3a6.932,6.932,0,0,0-3.767-.375" transform="translate(-202.289 -45.864)" fill="#fff"/>
            <path id="Trazado_1259823" data-name="Trazado 1259823" d="M173.129,142.244h-1.786c.074-4.044-2.1-8.24-5.841-9.9l.656-1.614c.3-.209,2.247,1.239,2.591,1.533a13.269,13.269,0,0,1,4.38,9.983" transform="translate(-138.644 -109.496)" fill="#fff"/>
            <path id="Trazado_1259824" data-name="Trazado 1259824" d="M161,158.811l-1.7-.143c.164-2.552-1.344-5.489-3.805-6.338l.662-1.609c.29-.207,1.654.8,1.936,1.041A8.252,8.252,0,0,1,161,158.811" transform="translate(-130.265 -126.239)" fill="#fff"/>
            <path id="Trazado_1259825" data-name="Trazado 1259825" d="M149.34,174.842h-1.786a3.953,3.953,0,0,0-1.926-3.486l.79-1.313c.509-.318,2,1.565,2.241,1.99a5.208,5.208,0,0,1,.681,2.809" transform="translate(-121.996 -142.419)" fill="#fff"/>
            <path id="Trazado_1259826" data-name="Trazado 1259826" d="M296.445,157.791l-.18,1.929-1.768-.145.18-1.606Z" transform="translate(-246.707 -132.185)" fill="#fff"/>
            <path id="Trazado_1259827" data-name="Trazado 1259827" d="M230.133,51.812c.075.1-.473,1.529-.744,1.594l-1.455-.622.572-1.559Z" transform="translate(-190.946 -42.912)" fill="#fff"/>
            <path id="Trazado_1259828" data-name="Trazado 1259828" d="M79.6,136.152l-.348,1.6-1.764-.142.333-1.777Z" transform="translate(-64.917 -113.79)" fill="#fff"/>
            <path id="Trazado_1259829" data-name="Trazado 1259829" d="M292.6,179.851l-.322,1.944-1.784-.489.477-1.549c.379-.268,1.173.131,1.629.095" transform="translate(-243.356 -150.508)" fill="#fff"/>
            <path id="Trazado_1259830" data-name="Trazado 1259830" d="M176.448,261.018V262.8l-1.948-.164.338-1.772Z" transform="translate(-146.183 -218.535)" fill="#fff"/>
            <path id="Trazado_1259831" data-name="Trazado 1259831" d="M94.028,94.544l-.906,1.441a3.468,3.468,0,0,1-1.506-.878l.89-1.393Z" transform="translate(-76.749 -78.506)" fill="#fff"/>
            <path id="Trazado_1259832" data-name="Trazado 1259832" d="M82.5,115.642c.1-.36.424-1.7.747-1.771l1.456.63-.656,1.607Z" transform="translate(-69.11 -95.392)" fill="#fff"/>
            <path id="Trazado_1259833" data-name="Trazado 1259833" d="M81.267,179.871c-.019.456.537,1.253.268,1.621l-1.553.477-.49-1.784Z" transform="translate(-66.592 -150.682)" fill="#fff"/>
            <path id="Trazado_1259834" data-name="Trazado 1259834" d="M133.325,249.121c-.236.207-1.539-.643-1.769-.885l.9-1.37,1.347.744Z" transform="translate(-110.208 -206.805)" fill="#fff"/>
            <path id="Trazado_1259835" data-name="Trazado 1259835" d="M154.62,257.9l-1.713-.475.425-1.629,1.548.48Z" transform="translate(-128.094 -214.284)" fill="#fff"/>
            <path id="Trazado_1259836" data-name="Trazado 1259836" d="M79.283,158.789c-.06.4.154,1.5-.153,1.715l-1.634.072v-1.787Z" transform="translate(-64.92 -133.021)" fill="#fff"/>
            <path id="Trazado_1259837" data-name="Trazado 1259837" d="M209.535,45.48l-.328,1.778-1.6-.339.3-1.7Z" transform="translate(-173.919 -37.883)" fill="#fff"/>
            <path id="Trazado_1259838" data-name="Trazado 1259838" d="M284.855,200.343l-.647,1.778-1.6-.889.645-1.372Z" transform="translate(-236.745 -167.428)" fill="#fff"/>
          </g>
        </g>
      </g>
    </g>
  </g>
</svg>
