<svg xmlns="http://www.w3.org/2000/svg" xmlns:xlink="http://www.w3.org/1999/xlink" width="133" height="133" viewBox="0 0 133 133">
  <defs>
    <clipPath id="clip-path">
      <rect id="Rect치ngulo_455840" data-name="Rect치ngulo 455840" width="84" height="84" transform="translate(262.711 6257)" fill="#fff" stroke="#707070" stroke-width="1"/>
    </clipPath>
    <clipPath id="clip-path-2">
      <rect id="Rect치ngulo_455839" data-name="Rect치ngulo 455839" width="71.374" height="76.159" fill="#302c9e" stroke="#302c9e" stroke-width="0.5"/>
    </clipPath>
  </defs>
  <g id="Grupo_1204969" data-name="Grupo 1204969" transform="translate(-265.711 -6233)">
    <g id="Grupo_1204783" data-name="Grupo 1204783">
      <path id="Trazado_1259876" data-name="Trazado 1259876" d="M66.5,0A66.5,66.5,0,1,1,0,66.5,66.5,66.5,0,0,1,66.5,0Z" transform="translate(265.711 6233)" fill="#302c9e"/>
      <path id="Elipse_5729" data-name="Elipse 5729" d="M60.058,0A60.058,60.058,0,1,1,0,60.058,60.058,60.058,0,0,1,60.058,0Z" transform="translate(271.711 6239)" fill="#feea89"/>
      <g id="Enmascarar_grupo_1119207" data-name="Enmascarar grupo 1119207" transform="translate(28)" clip-path="url(#clip-path)">
        <g id="Grupo_1204776" data-name="Grupo 1204776" transform="translate(268.211 6262)">
          <g id="Grupo_1204775" data-name="Grupo 1204775" clip-path="url(#clip-path-2)">
            <path id="Trazado_1259857" data-name="Trazado 1259857" d="M113.981,166.661c2.3-1.022,4.17.771,4.313,3.039,2.322-.768,4.024.985,4.058,3.291,2.313-.8,3.627.993,3.811,3.154.218,2.571.263,9.412-.884,11.54-.323.6-1.661,1.76-1.661,1.886v4.81c0,.735-1.775.735-1.775,0v-5.063c0-.787,2.244-2.278,2.509-4.584.146-1.268.2-8.856-.141-9.661a1.219,1.219,0,0,0-1.689-.331c-.514.338-.351,3.02-1.7,2.184-1.393-.863,1.066-5.421-1.426-5.653-1.875-.175-.588,2.855-1.477,3.746-.445.446-1.4.234-1.4-.131v-5.823c0-.876-2.25-1.492-2.529.007-.148.8.434,3.175-.894,3.164a1.542,1.542,0,0,1-.888-.64v-9.873c0-.5-2.276-1.771-2.735.307-.4,4.667.346,9.772-.045,14.385-.123,1.445-.569,3.329-2.385,2.361-1.315-.7-1.352-3.2-2.368-3.476a1.165,1.165,0,0,0-1.555,1.094c1.243,3.158,1.351,8.675,3.891,11.022.818.756,3.073,1.442,3.37,2.459.227.778.313,4.91-.619,5.09-1.909.055-.711-4.26-1.133-4.735-1.935-.392-3.616-2.283-4.5-3.988a57.673,57.673,0,0,1-2.811-9.619,3.005,3.005,0,0,1,4.939-2.378c.621.558.616,1.629,1.386,2.034v-14.3a5.365,5.365,0,0,1,.875-1.911,3.144,3.144,0,0,1,4.186-.356,5.464,5.464,0,0,1,1.279,1.761Z" transform="translate(-75.62 -118.808)" fill="#302c9e" stroke="#302c9e" stroke-width="0.5"/>
            <path id="Trazado_1259858" data-name="Trazado 1259858" d="M5.658,84.523a71.012,71.012,0,0,1,11.1-.066,2.339,2.339,0,0,1,2.156,2.152,75.687,75.687,0,0,1,.006,10.9c-.129,1.4-.711,1.973-2.161,2.146a74.072,74.072,0,0,1-10.669.006,2.322,2.322,0,0,1-2.4-2.417,69.3,69.3,0,0,1,0-10.379,2.277,2.277,0,0,1,1.962-2.345m11.479,1.712H5.852l-.38.38V97.5l.38.38H17.137Z" transform="translate(-2.614 -62.939)" fill="#302c9e" stroke="#302c9e" stroke-width="0.5"/>
            <path id="Trazado_1259859" data-name="Trazado 1259859" d="M218.357,84.56a76.065,76.065,0,0,1,11.1-.053,2.326,2.326,0,0,1,2.409,2.4,69.762,69.762,0,0,1,.01,10.136c-.133,1.421-.572,2.469-2.159,2.654-1.759.206-10.094.251-11.551-.126a1.852,1.852,0,0,1-1.52-1.774,76.138,76.138,0,0,1,.019-11.382,2.5,2.5,0,0,1,1.687-1.86m.073,13.364h11.285l.38-.38V86.658l-.38-.38H218.431Z" transform="translate(-161.557 -62.982)" fill="#302c9e" stroke="#302c9e" stroke-width="0.5"/>
            <path id="Trazado_1259860" data-name="Trazado 1259860" d="M125.408,99.048a3.3,3.3,0,0,1-1.563.594,74.766,74.766,0,0,1-10.669.005,2.224,2.224,0,0,1-2.288-1.767c-.38-1.6-.318-9.181-.109-11.03.2-1.769.97-2.258,2.653-2.415a72.087,72.087,0,0,1,10.413,0,2.33,2.33,0,0,1,2.162,2.4,75.8,75.8,0,0,1,0,10.908,2.367,2.367,0,0,1-.6,1.3m-1.188-12.83H112.934l-.38.38V97.483l.38.38H124.22Z" transform="translate(-82.561 -62.921)" fill="#302c9e" stroke="#302c9e" stroke-width="0.5"/>
            <path id="Trazado_1259861" data-name="Trazado 1259861" d="M113.389.122c10.991-1.188,13.6,14.692,3.406,17.321-12.437,3.208-15.6-16-3.406-17.321m-.263,1.761C104.556,3.241,105.91,17,115.321,15.97c9.207-1.012,7.561-15.631-2.195-14.086" transform="translate(-78.889 -0.044)" fill="#302c9e" stroke="#302c9e" stroke-width="0.5"/>
            <path id="Trazado_1259862" data-name="Trazado 1259862" d="M220.33.111c12.09-1.307,13.228,16.923,1.7,17.644-11.569.724-12.88-16.437-1.7-17.644m-.263,1.761c-8.57,1.358-7.216,15.121,2.195,14.086,9.207-1.012,7.561-15.631-2.195-14.086" transform="translate(-158.695 -0.033)" fill="#302c9e" stroke="#302c9e" stroke-width="0.5"/>
            <path id="Trazado_1259863" data-name="Trazado 1259863" d="M7.62.079C19.684-1.345,21.115,16.99,9.32,17.723-2.041,18.43-3.495,1.392,7.62.079M7.615,1.845C-1.2,3.123.239,16.88,9.552,15.927,18.8,14.98,17.268.446,7.615,1.845" transform="translate(0 0)" fill="#302c9e" stroke="#302c9e" stroke-width="0.5"/>
            <path id="Trazado_1259864" data-name="Trazado 1259864" d="M78.961,113.575H70.846l-.143-1.267a1.543,1.543,0,0,1,.639-.39,37.594,37.594,0,0,1,6.929-.058c.315.072.832.292.92.618Z" transform="translate(-52.773 -83.443)" fill="#302c9e" stroke="#302c9e" stroke-width="0.5"/>
            <path id="Trazado_1259865" data-name="Trazado 1259865" d="M179.417,113.591c-.529-.54-.73-1.388.11-1.651a42.315,42.315,0,0,1,7.193-.07c.964.283.769,1.72.305,1.72Z" transform="translate(-133.574 -83.459)" fill="#302c9e" stroke="#302c9e" stroke-width="0.5"/>
            <path id="Trazado_1259866" data-name="Trazado 1259866" d="M131.89,100.911c.36.227.209,1.348-.218,1.619-1.491.633-4.693,5.075-5.764,5.394-1.265.377-4.207-2.789-3.512-3.766.791-1.111,2.486,1.358,3.059,1.78l5.057-4.818a1.621,1.621,0,0,1,1.378-.209" transform="translate(-91.278 -75.305)" fill="#302c9e" stroke="#302c9e" stroke-width="0.5"/>
            <path id="Trazado_1259867" data-name="Trazado 1259867" d="M125.576,43.559l-.4-.636c-.094-.981.9-1.081,1.655-1.148a25.892,25.892,0,0,1,5.223.126c1.139.37.781,1.658.368,1.658Z" transform="translate(-93.428 -31.148)" fill="#302c9e" stroke="#302c9e" stroke-width="0.5"/>
            <path id="Trazado_1259868" data-name="Trazado 1259868" d="M124.784,19.923c2.551-.766,2.271,3.083.066,2.375a1.3,1.3,0,0,1-.066-2.375" transform="translate(-92.585 -14.804)" fill="#302c9e" stroke="#302c9e" stroke-width="0.5"/>
            <path id="Trazado_1259869" data-name="Trazado 1259869" d="M144.017,19.838c2.287-.792,2.6,2.711.474,2.5-1.252-.126-1.531-2.131-.474-2.5" transform="translate(-107.008 -14.729)" fill="#302c9e" stroke="#302c9e" stroke-width="0.5"/>
            <path id="Trazado_1259870" data-name="Trazado 1259870" d="M232.92,39.176c.18-.032,1.713.669,2.489.73a8.85,8.85,0,0,0,1.98-.069c.653-.109,2.673-1.37,2.487.434-.173,1.681-6.571,1.887-7.507.389a1.055,1.055,0,0,1,.551-1.485" transform="translate(-173.347 -29.257)" fill="#302c9e" stroke="#302c9e" stroke-width="0.5"/>
            <path id="Trazado_1259871" data-name="Trazado 1259871" d="M231.784,19.923c2.551-.766,2.271,3.083.066,2.375a1.3,1.3,0,0,1-.066-2.375" transform="translate(-172.45 -14.804)" fill="#302c9e" stroke="#302c9e" stroke-width="0.5"/>
            <path id="Trazado_1259872" data-name="Trazado 1259872" d="M251.017,19.838c2.287-.792,2.6,2.711.474,2.5-1.252-.126-1.531-2.131-.474-2.5" transform="translate(-186.873 -14.729)" fill="#302c9e" stroke="#302c9e" stroke-width="0.5"/>
            <path id="Trazado_1259873" data-name="Trazado 1259873" d="M22.941,39.3c.965-.018,4.856.7,3.753,2.225-.509.7-2.822-.531-3.8-.5-.905.03-3.921,1.7-3.714-.148.106-.946,2.934-1.563,3.761-1.578" transform="translate(-14.308 -29.351)" fill="#302c9e" stroke="#302c9e" stroke-width="0.5"/>
            <path id="Trazado_1259874" data-name="Trazado 1259874" d="M20.42,21.946c-1.3,1.3-3.169-1.228-1.717-2.091a1.364,1.364,0,0,1,1.717,2.091" transform="translate(-13.566 -14.66)" fill="#302c9e" stroke="#302c9e" stroke-width="0.5"/>
            <path id="Trazado_1259875" data-name="Trazado 1259875" d="M38.79,19.946c2.339-.69,2.288,3.1.064,2.382a1.3,1.3,0,0,1-.064-2.382" transform="translate(-28.398 -14.833)" fill="#302c9e" stroke="#302c9e" stroke-width="0.5"/>
          </g>
        </g>
      </g>
    </g>
  </g>
</svg>
