<svg xmlns="http://www.w3.org/2000/svg" xmlns:xlink="http://www.w3.org/1999/xlink" width="96" height="96" viewBox="0 0 96 96">
  <defs>
    <clipPath id="clip-path">
      <rect id="Rectángulo_454682" data-name="Rectángulo 454682" width="96" height="96" fill="#feea89"/>
    </clipPath>
    <clipPath id="clip-path-2">
      <rect id="Rectángulo_455279" data-name="Rectángulo 455279" width="58" height="58" transform="translate(2.711 14.267)" fill="#fff" stroke="#707070" stroke-width="1"/>
    </clipPath>
    <clipPath id="clip-path-3">
      <rect id="Rectángulo_455835" data-name="Rectángulo 455835" width="51.9" height="52.1" fill="#fff"/>
    </clipPath>
  </defs>
  <g id="Grupo_1204761" data-name="Grupo 1204761" transform="translate(-731.746 -8618)">
    <g id="Grupo_1203592" data-name="Grupo 1203592" transform="translate(731.746 8618)">
      <g id="Grupo_1203487" data-name="Grupo 1203487">
        <g id="Grupo_1203486" data-name="Grupo 1203486" clip-path="url(#clip-path)">
          <path id="Trazado_1256437" data-name="Trazado 1256437" d="M2.058,84.327a47.583,47.583,0,0,0,1.836,6.227L23,71.45a25.883,25.883,0,0,1,4.958-13.021Z" transform="translate(-0.911 -25.866)" fill="#feea89"/>
          <path id="Trazado_1256438" data-name="Trazado 1256438" d="M90.555,3.894a47.583,47.583,0,0,0-6.227-1.836l-25.9,25.9A25.886,25.886,0,0,1,71.451,23Z" transform="translate(-25.866 -0.911)" fill="#feea89"/>
          <path id="Trazado_1256439" data-name="Trazado 1256439" d="M117.575,12.855a48.029,48.029,0,0,0-5.022-3.041L95.523,26.843a25.831,25.831,0,0,1,6.031,2.032Z" transform="translate(-42.287 -4.345)" fill="#feea89"/>
          <path id="Trazado_1256440" data-name="Trazado 1256440" d="M9.814,112.552a47.933,47.933,0,0,0,3.041,5.022l16.021-16.021a25.831,25.831,0,0,1-2.032-6.031Z" transform="translate(-4.345 -42.287)" fill="#feea89"/>
          <path id="Trazado_1256441" data-name="Trazado 1256441" d="M4.273,34.929,34.929,4.273A48.116,48.116,0,0,0,4.273,34.929" transform="translate(-1.892 -1.892)" fill="#feea89"/>
          <path id="Trazado_1256442" data-name="Trazado 1256442" d="M48,0q-2.406,0-4.752.234L.234,43.248Q0,45.593,0,48q0,1.726.123,3.422l51.3-51.3C50.292.043,49.151,0,48,0" transform="translate(0 0)" fill="#feea89"/>
          <path id="Trazado_1256443" data-name="Trazado 1256443" d="M143.483,112.406l-31.076,31.076a48.112,48.112,0,0,0,31.076-31.076" transform="translate(-49.761 -49.761)" fill="#feea89"/>
          <path id="Trazado_1256444" data-name="Trazado 1256444" d="M131.113,79.625,79.625,131.113q1.795.134,3.624.135c1.524,0,3.03-.074,4.517-.213l43.27-43.27c.139-1.487.213-2.993.213-4.516q0-1.829-.135-3.624" transform="translate(-35.249 -35.249)" fill="#feea89"/>
          <path id="Trazado_1256445" data-name="Trazado 1256445" d="M119.266,41.241l15.585-15.585a48.285,48.285,0,0,0-4.038-4.025L115.222,37.222a26.166,26.166,0,0,1,4.044,4.019" transform="translate(-51.007 -9.575)" fill="#feea89"/>
          <path id="Trazado_1256446" data-name="Trazado 1256446" d="M37.222,115.222,21.63,130.814a48.369,48.369,0,0,0,4.025,4.038l15.585-15.585a26.166,26.166,0,0,1-4.019-4.044" transform="translate(-9.575 -51.007)" fill="#feea89"/>
          <path id="Trazado_1256447" data-name="Trazado 1256447" d="M74.932,129.121,55.9,148.149a47.687,47.687,0,0,0,6.207,1.857l25.333-25.333a25.88,25.88,0,0,1-12.512,4.448" transform="translate(-24.748 -55.191)" fill="#feea89"/>
          <path id="Trazado_1256448" data-name="Trazado 1256448" d="M150.006,62.11a47.591,47.591,0,0,0-1.857-6.206L129.121,74.931a25.87,25.87,0,0,1-4.448,12.512Z" transform="translate(-55.191 -24.748)" fill="#feea89"/>
          <path id="Trazado_1256449" data-name="Trazado 1256449" d="M147.17,41.946a48.074,48.074,0,0,0-3.054-5.009l-16,16a25.825,25.825,0,0,1,2.064,6Z" transform="translate(-56.713 -16.352)" fill="#feea89"/>
          <path id="Trazado_1256450" data-name="Trazado 1256450" d="M36.937,144.115a47.933,47.933,0,0,0,5.009,3.055l16.995-17a25.812,25.812,0,0,1-6-2.064Z" transform="translate(-16.352 -56.713)" fill="#feea89"/>
        </g>
      </g>
    </g>
    <g id="Grupo_154427" data-name="Grupo 154427" transform="translate(736.746 8623)">
      <path id="Elipse_5729" data-name="Elipse 5729" d="M43,0A43,43,0,1,1,0,43,43,43,0,0,1,43,0Z" transform="translate(-0.162 0)" fill="#302c9e"/>
      <g id="Enmascarar_grupo_1119166" data-name="Enmascarar grupo 1119166" transform="translate(10)" clip-path="url(#clip-path-2)">
        <g id="Grupo_1204765" data-name="Grupo 1204765" transform="translate(5.711 17.267)">
          <g id="Grupo_1204764" data-name="Grupo 1204764" clip-path="url(#clip-path-3)">
            <path id="Trazado_1259812" data-name="Trazado 1259812" d="M25.221,24.213a5.748,5.748,0,0,1-2.748-1.783A34.579,34.579,0,0,0,22.813,29c1.073,6.526,3.066,12.937,4.062,19.487a3.491,3.491,0,0,1-6.591,1.469L16.526,34.914,12.889,49.328a3.465,3.465,0,0,1-6.721-1.669L9.989,29.267A3.311,3.311,0,0,1,7.265,28.8,59.142,59.142,0,0,1,.941,23.827c-1.526-1.608-1.059-3.362.428-4.742,1.466-1.36,7.039-5.869,8.652-6.505a5.3,5.3,0,0,1,2.2-.4c-2.182-2.138-2.427-6.783-.92-9.315a6.068,6.068,0,0,1,10.361.1c1.429,2.5,1.181,6.9-.822,9.068,3.362.06,4.131,3.375,5.947,5.423a1.492,1.492,0,0,0,1.253.679c1.94.179,5.118-.608,6.551.879.47.489.737,1.706,1.183,1.789l13.487.035a3.55,3.55,0,0,1,2.619,2.879l.022,24.8a3.5,3.5,0,0,1-3.2,3.336c-5.1.512-10.564.091-16.2,0a3.672,3.672,0,0,1-2.488-1.524,10.6,10.6,0,0,1-.558-1.077V24.213c-1.316-.133-2.963.18-4.235,0M15.449,1.81c-4.558.849-4.583,9.485.152,10.18,7.231,1.061,6.955-11.5-.152-10.18M11.734,13.847c-2.7.421-6.947,5.308-9.477,6.721a1.593,1.593,0,0,0-.41,1.609c.225.753,5.722,4.382,6.6,5.281a1.329,1.329,0,0,0,1.747-1.9c-.558-.806-4.109-3.145-4.223-3.809a1.235,1.235,0,0,1,.031-.556l4.92-3.857c.343-.255,1.005.075,1.114.436l.01,10.206L7.8,48.251a1.747,1.747,0,0,0,3.289.912l3.836-15.333c1.142-1.819,2.664-1.239,3.28.67C19.7,39.12,20.3,44.37,21.8,49.032a1.735,1.735,0,0,0,3.335-.8l-4.28-20.4.01-8.719a1.036,1.036,0,0,1,.674-.525c1.276-.2,2.129,3.566,3.839,3.83,2.186.338,5.145-.229,7.417.006a1.319,1.319,0,0,0,0-2.519c-2.149-.407-5.309.821-7.053-.971-1.113-1.144-2.06-3.414-3.121-4.457a4.069,4.069,0,0,0-1.149-.634c-2.989.236-6.852-.447-9.738,0m-1.3,6.205a7.259,7.259,0,0,0-2.229,1.632c.83.308,1.409,1.319,2.229,1.637Zm20.654,4.16L31.085,48.07c.095,1.053.531,2,1.707,2.008,6.861-.117,10.824.147,15.766,0a1.561,1.561,0,0,0,1.56-1.56l-.043-24.935A1.854,1.854,0,0,0,48.4,22.43l-13.082-.011c-.3.036-.524.754-.884,1.054a4.692,4.692,0,0,1-3.347.74" transform="translate(0 -0.001)" fill="#fff"/>
            <path id="Trazado_1259813" data-name="Trazado 1259813" d="M231.315,226.892a.963.963,0,0,1,1.206.677c.05.166-.039.295-.086.442a36.635,36.635,0,0,1-2.634,3.616c-.348.335-.592.539-1.077.332-.68-.291-1.919-1.655-1.074-2.334.669-.537,1.144.231,1.329.15.457-.2,1.788-2.724,2.336-2.883" transform="translate(-193.578 -193.143)" fill="#fff"/>
            <path id="Trazado_1259814" data-name="Trazado 1259814" d="M231.38,285a.867.867,0,0,1,1,1.157c-.082.23-2.67,3.644-2.886,3.807a.758.758,0,0,1-.391.219c-.685.1-2.679-1.837-1.453-2.506.575-.2,1.149.248,1.239.208.6-.268,1.669-2.739,2.488-2.885" transform="translate(-193.492 -242.64)" fill="#fff"/>
            <path id="Trazado_1259815" data-name="Trazado 1259815" d="M231.47,168.871a.865.865,0,0,1,1.171,1.012c-.253.91-2.25,2.7-2.681,3.721-.957,1.25-3.28-1.273-2.07-2.072.68-.449,1.033.321,1.247.216.544-.492,1.763-2.705,2.333-2.877" transform="translate(-193.735 -143.737)" fill="#fff"/>
            <path id="Trazado_1259816" data-name="Trazado 1259816" d="M275.761,183.3h0a.817.817,0,0,1-.817.817h-7.281a.817.817,0,0,1,0-1.635h7.281a.817.817,0,0,1,.817.817" transform="translate(-227.192 -155.368)" fill="#fff"/>
            <path id="Trazado_1259817" data-name="Trazado 1259817" d="M275.761,239.746h0a.817.817,0,0,1-.817.817h-7.281a.817.817,0,1,1,0-1.635h7.281a.817.817,0,0,1,.817.817" transform="translate(-227.192 -203.424)" fill="#fff"/>
            <path id="Trazado_1259818" data-name="Trazado 1259818" d="M275.761,304.191h0a.817.817,0,0,1-.817.817h-7.281a.817.817,0,1,1,0-1.635h7.281a.817.817,0,0,1,.817.817" transform="translate(-227.192 -258.293)" fill="#fff"/>
          </g>
        </g>
      </g>
    </g>
  </g>
</svg>
