<svg xmlns="http://www.w3.org/2000/svg" xmlns:xlink="http://www.w3.org/1999/xlink" width="96" height="96" viewBox="0 0 96 96">
  <defs>
    <clipPath id="clip-path">
      <rect id="Rectángulo_454682" data-name="Rectángulo 454682" width="96" height="96" fill="#feea89"/>
    </clipPath>
    <clipPath id="clip-path-2">
      <rect id="Rectángulo_455279" data-name="Rectángulo 455279" width="58" height="58" transform="translate(2.838 14)" fill="#fff" stroke="#707070" stroke-width="1"/>
    </clipPath>
    <clipPath id="clip-path-3">
      <rect id="Rectángulo_455590" data-name="Rectángulo 455590" width="54.956" height="55.757" transform="translate(0 -12)" fill="#fff"/>
    </clipPath>
  </defs>
  <g id="Grupo_1204211" data-name="Grupo 1204211" transform="translate(-731.746 -8618)">
    <g id="Grupo_1203592" data-name="Grupo 1203592" transform="translate(731.746 8618)">
      <g id="Grupo_1203487" data-name="Grupo 1203487">
        <g id="Grupo_1203486" data-name="Grupo 1203486" clip-path="url(#clip-path)">
          <path id="Trazado_1256437" data-name="Trazado 1256437" d="M2.058,84.327a47.583,47.583,0,0,0,1.836,6.227L23,71.45a25.883,25.883,0,0,1,4.958-13.021Z" transform="translate(-0.911 -25.866)" fill="#feea89"/>
          <path id="Trazado_1256438" data-name="Trazado 1256438" d="M90.555,3.894a47.583,47.583,0,0,0-6.227-1.836l-25.9,25.9A25.886,25.886,0,0,1,71.451,23Z" transform="translate(-25.866 -0.911)" fill="#feea89"/>
          <path id="Trazado_1256439" data-name="Trazado 1256439" d="M117.575,12.855a48.029,48.029,0,0,0-5.022-3.041L95.523,26.843a25.831,25.831,0,0,1,6.031,2.032Z" transform="translate(-42.287 -4.345)" fill="#feea89"/>
          <path id="Trazado_1256440" data-name="Trazado 1256440" d="M9.814,112.552a47.933,47.933,0,0,0,3.041,5.022l16.021-16.021a25.831,25.831,0,0,1-2.032-6.031Z" transform="translate(-4.345 -42.287)" fill="#feea89"/>
          <path id="Trazado_1256441" data-name="Trazado 1256441" d="M4.273,34.929,34.929,4.273A48.116,48.116,0,0,0,4.273,34.929" transform="translate(-1.892 -1.892)" fill="#feea89"/>
          <path id="Trazado_1256442" data-name="Trazado 1256442" d="M48,0q-2.406,0-4.752.234L.234,43.248Q0,45.593,0,48q0,1.726.123,3.422l51.3-51.3C50.292.043,49.151,0,48,0" transform="translate(0 0)" fill="#feea89"/>
          <path id="Trazado_1256443" data-name="Trazado 1256443" d="M143.483,112.406l-31.076,31.076a48.112,48.112,0,0,0,31.076-31.076" transform="translate(-49.761 -49.761)" fill="#feea89"/>
          <path id="Trazado_1256444" data-name="Trazado 1256444" d="M131.113,79.625,79.625,131.113q1.795.134,3.624.135c1.524,0,3.03-.074,4.517-.213l43.27-43.27c.139-1.487.213-2.993.213-4.516q0-1.829-.135-3.624" transform="translate(-35.249 -35.249)" fill="#feea89"/>
          <path id="Trazado_1256445" data-name="Trazado 1256445" d="M119.266,41.241l15.585-15.585a48.285,48.285,0,0,0-4.038-4.025L115.222,37.222a26.166,26.166,0,0,1,4.044,4.019" transform="translate(-51.007 -9.575)" fill="#feea89"/>
          <path id="Trazado_1256446" data-name="Trazado 1256446" d="M37.222,115.222,21.63,130.814a48.369,48.369,0,0,0,4.025,4.038l15.585-15.585a26.166,26.166,0,0,1-4.019-4.044" transform="translate(-9.575 -51.007)" fill="#feea89"/>
          <path id="Trazado_1256447" data-name="Trazado 1256447" d="M74.932,129.121,55.9,148.149a47.687,47.687,0,0,0,6.207,1.857l25.333-25.333a25.88,25.88,0,0,1-12.512,4.448" transform="translate(-24.748 -55.191)" fill="#feea89"/>
          <path id="Trazado_1256448" data-name="Trazado 1256448" d="M150.006,62.11a47.591,47.591,0,0,0-1.857-6.206L129.121,74.931a25.87,25.87,0,0,1-4.448,12.512Z" transform="translate(-55.191 -24.748)" fill="#feea89"/>
          <path id="Trazado_1256449" data-name="Trazado 1256449" d="M147.17,41.946a48.074,48.074,0,0,0-3.054-5.009l-16,16a25.825,25.825,0,0,1,2.064,6Z" transform="translate(-56.713 -16.352)" fill="#feea89"/>
          <path id="Trazado_1256450" data-name="Trazado 1256450" d="M36.937,144.115a47.933,47.933,0,0,0,5.009,3.055l16.995-17a25.812,25.812,0,0,1-6-2.064Z" transform="translate(-16.352 -56.713)" fill="#feea89"/>
        </g>
      </g>
    </g>
    <g id="Grupo_154427" data-name="Grupo 154427" transform="translate(736.746 8623)">
      <path id="Elipse_5729" data-name="Elipse 5729" d="M43,0A43,43,0,1,1,0,43,43,43,0,0,1,43,0Z" transform="translate(-0.162 0)" fill="#302c9e"/>
      <g id="Enmascarar_grupo_1119166" data-name="Enmascarar grupo 1119166" transform="translate(10)" clip-path="url(#clip-path-2)">
        <g id="Grupo_1204542" data-name="Grupo 1204542" transform="translate(4.171 26)">
          <g id="Grupo_1204541" data-name="Grupo 1204541" clip-path="url(#clip-path-3)">
            <path id="Trazado_1258876" data-name="Trazado 1258876" d="M54.982,78.383c-.421-.769-1.761-1.447-1.858-2.341a1,1,0,0,1,1.352-1.161,45.753,45.753,0,0,1,3.763,3.684c.351.467.579.68.385,1.312a38.963,38.963,0,0,1-3.634,3.812c-.54.39-1.4.665-1.775-.1-.636-1.3,1.422-2.175,1.952-3.162H46.894a4.743,4.743,0,0,1-.8-1.059c-2.837-4.349-5.061-9.526-7.954-13.8-3.8-5.615-11.164-5.509-14.914.113-2.866,4.3-4.764,8.523-8.063,14.062a1.67,1.67,0,0,1-.529.586l-9.018.1c-1.215.033-1.339-1.344-.417-1.908l8.323-.229c2.788-4.2,4.954-8.932,7.659-13.165,3-4.686,7.8-7.075,13.347-5.055,6.246,2.274,9.286,12.635,13.047,17.816a2.338,2.338,0,0,0,.435.495Z" transform="translate(-3.739 -48.316)" fill="#fff"/>
            <path id="Trazado_1258877" data-name="Trazado 1258877" d="M11.375,1.728a11,11,0,0,0,1.47.5c.621.022,1.025-.679,1.834-.435a20.44,20.44,0,0,1,1.848,1.767c.474.8-.553,1.334-.453,2.01a6.5,6.5,0,0,0,.592,1.3c.417.43,1.335.279,1.619.892a7.438,7.438,0,0,1,.082,2.519c-.223,1.008-1.35.7-1.763,1.219a10.948,10.948,0,0,0-.546,1.326c0,.51.744,1.051.588,1.685-.127.519-1.822,2.148-2.377,2.122s-.885-.683-1.558-.564a10.385,10.385,0,0,0-1.29.607c-.265.309-.267,1.195-.709,1.489a12.937,12.937,0,0,1-2.745.072c-.909-.17-.624-1.3-1.029-1.639A13.311,13.311,0,0,0,5.6,16.048c-.568-.038-1.121.683-1.763.524a7.125,7.125,0,0,1-1.827-1.631c-.709-1.114.42-1.64.311-2.2-.014-.073-.538-1.311-.59-1.364-.28-.284-1.339-.219-1.609-.823A10.916,10.916,0,0,1,.041,7.967C.2,7.153,1.363,7.3,1.75,6.851a10.067,10.067,0,0,0,.583-1.4c0-.283-.469-.785-.539-1.137C1.6,3.337,3.356,1.641,4.34,1.768s.984.871,2.405.033C7.457,1.381,7.021.175,8.113.03a12.311,12.311,0,0,1,2.6.084c.457.222.468,1.418.662,1.614m-1.782.057-.772.052c-.274.355-.2.862-.535,1.191A10.717,10.717,0,0,1,5.31,4.115c-.677-.087-1.05-.938-1.619.08l.543,1.391c-.846,1.306-.619,2.957-2.479,3.18l.03.825c.4.186,1,.146,1.309.5.092.1,1.077,2.349,1.116,2.508.172.7-.686,1.238-.421,1.648.524.752.887.09,1.393-.04.791-.2.911.243,1.5.462,1.178.442,1.883.342,2.083,1.862,1.378.232.772-.81,1.48-1.343.1-.072,2.042-.909,2.194-.949.924-.241,1.464.666,1.976.257.565-.452-.283-1.132-.215-1.783.013-.126.841-2.169.944-2.357.373-.676,1.5-.665,1.545-.831.206-1.18-.971-.688-1.5-1.483-.067-.1-.909-2.024-.96-2.188-.249-.818.754-1.316.259-1.978l-.375-.2a2.3,2.3,0,0,1-1.426.442c-.115-.015-1.974-.729-2.17-.823C9.9,3,9.783,2.372,9.592,1.785" transform="translate(18.808 -9.139)" fill="#fff"/>
            <path id="Trazado_1258878" data-name="Trazado 1258878" d="M140.12,195.6c1.631-.41,1.843,2.009.474,2.187-1.413.184-1.607-1.9-.474-2.187" transform="translate(-113.471 -159.198)" fill="#fff"/>
            <path id="Trazado_1258879" data-name="Trazado 1258879" d="M29.916,24.91c5.873-.141,6.105,8.87.271,9.07-6,.206-6.238-8.927-.271-9.07m0,1.725c-3.742.148-3.368,5.816.267,5.615,3.533-.2,3.4-5.76-.267-5.615" transform="translate(-2.001 -29.416)" fill="#fff"/>
            <path id="Trazado_1258880" data-name="Trazado 1258880" d="M90.041,116.516H65.23a2.827,2.827,0,0,1-2.448-4.24L75.188,90.789a2.827,2.827,0,0,1,4.9,0l12.405,21.487a2.827,2.827,0,0,1-2.448,4.24M77.635,91.793a.4.4,0,0,0-.355.2h0L64.875,113.484a.41.41,0,0,0,.355.615H90.041a.41.41,0,0,0,.355-.615L77.99,92a.4.4,0,0,0-.355-.2" transform="translate(-50.798 -72.759)" fill="#fff"/>
            <path id="Trazado_1258881" data-name="Trazado 1258881" d="M141.16,140.8h0a.936.936,0,0,1-.936-.936v-9.145a.936.936,0,0,1,1.873,0v9.145a.936.936,0,0,1-.937.936" transform="translate(-114.153 -105.649)" fill="#fff"/>
          </g>
        </g>
      </g>
    </g>
  </g>
</svg>
