<svg xmlns="http://www.w3.org/2000/svg" xmlns:xlink="http://www.w3.org/1999/xlink" width="96" height="96" viewBox="0 0 96 96">
  <defs>
    <clipPath id="clip-path">
      <rect id="Rectángulo_454682" data-name="Rectángulo 454682" width="96" height="96" fill="#feea89"/>
    </clipPath>
    <clipPath id="clip-path-2">
      <rect id="Rectángulo_455938" data-name="Rectángulo 455938" width="60" height="60" transform="translate(8605 -9827)" fill="#fff" stroke="#707070" stroke-width="1"/>
    </clipPath>
    <clipPath id="clip-path-3">
      <rect id="Rectángulo_455948" data-name="Rectángulo 455948" width="52.428" height="52.427" transform="translate(0 0)" fill="#fff"/>
    </clipPath>
  </defs>
  <g id="Grupo_1204865" data-name="Grupo 1204865" transform="translate(-970.873 -1855.311)">
    <g id="Grupo_1204264" data-name="Grupo 1204264" transform="translate(239.127 -6762.689)">
      <g id="Grupo_1203592" data-name="Grupo 1203592" transform="translate(731.746 8618)">
        <g id="Grupo_1203487" data-name="Grupo 1203487">
          <g id="Grupo_1203486" data-name="Grupo 1203486" clip-path="url(#clip-path)">
            <path id="Trazado_1256437" data-name="Trazado 1256437" d="M2.058,84.327a47.583,47.583,0,0,0,1.836,6.227L23,71.45a25.883,25.883,0,0,1,4.958-13.021Z" transform="translate(-0.911 -25.866)" fill="#feea89"/>
            <path id="Trazado_1256438" data-name="Trazado 1256438" d="M90.555,3.894a47.583,47.583,0,0,0-6.227-1.836l-25.9,25.9A25.886,25.886,0,0,1,71.451,23Z" transform="translate(-25.866 -0.911)" fill="#feea89"/>
            <path id="Trazado_1256439" data-name="Trazado 1256439" d="M117.575,12.855a48.029,48.029,0,0,0-5.022-3.041L95.523,26.843a25.831,25.831,0,0,1,6.031,2.032Z" transform="translate(-42.287 -4.345)" fill="#feea89"/>
            <path id="Trazado_1256440" data-name="Trazado 1256440" d="M9.814,112.552a47.933,47.933,0,0,0,3.041,5.022l16.021-16.021a25.831,25.831,0,0,1-2.032-6.031Z" transform="translate(-4.345 -42.287)" fill="#feea89"/>
            <path id="Trazado_1256441" data-name="Trazado 1256441" d="M4.273,34.929,34.929,4.273A48.116,48.116,0,0,0,4.273,34.929" transform="translate(-1.892 -1.892)" fill="#feea89"/>
            <path id="Trazado_1256442" data-name="Trazado 1256442" d="M48,0q-2.406,0-4.752.234L.234,43.248Q0,45.593,0,48q0,1.726.123,3.422l51.3-51.3C50.292.043,49.151,0,48,0" transform="translate(0 0)" fill="#feea89"/>
            <path id="Trazado_1256443" data-name="Trazado 1256443" d="M143.483,112.406l-31.076,31.076a48.112,48.112,0,0,0,31.076-31.076" transform="translate(-49.761 -49.761)" fill="#feea89"/>
            <path id="Trazado_1256444" data-name="Trazado 1256444" d="M131.113,79.625,79.625,131.113q1.795.134,3.624.135c1.524,0,3.03-.074,4.517-.213l43.27-43.27c.139-1.487.213-2.993.213-4.516q0-1.829-.135-3.624" transform="translate(-35.249 -35.249)" fill="#feea89"/>
            <path id="Trazado_1256445" data-name="Trazado 1256445" d="M119.266,41.241l15.585-15.585a48.285,48.285,0,0,0-4.038-4.025L115.222,37.222a26.166,26.166,0,0,1,4.044,4.019" transform="translate(-51.007 -9.575)" fill="#feea89"/>
            <path id="Trazado_1256446" data-name="Trazado 1256446" d="M37.222,115.222,21.63,130.814a48.369,48.369,0,0,0,4.025,4.038l15.585-15.585a26.166,26.166,0,0,1-4.019-4.044" transform="translate(-9.575 -51.007)" fill="#feea89"/>
            <path id="Trazado_1256447" data-name="Trazado 1256447" d="M74.932,129.121,55.9,148.149a47.687,47.687,0,0,0,6.207,1.857l25.333-25.333a25.88,25.88,0,0,1-12.512,4.448" transform="translate(-24.748 -55.191)" fill="#feea89"/>
            <path id="Trazado_1256448" data-name="Trazado 1256448" d="M150.006,62.11a47.591,47.591,0,0,0-1.857-6.206L129.121,74.931a25.87,25.87,0,0,1-4.448,12.512Z" transform="translate(-55.191 -24.748)" fill="#feea89"/>
            <path id="Trazado_1256449" data-name="Trazado 1256449" d="M147.17,41.946a48.074,48.074,0,0,0-3.054-5.009l-16,16a25.825,25.825,0,0,1,2.064,6Z" transform="translate(-56.713 -16.352)" fill="#feea89"/>
            <path id="Trazado_1256450" data-name="Trazado 1256450" d="M36.937,144.115a47.933,47.933,0,0,0,5.009,3.055l16.995-17a25.812,25.812,0,0,1-6-2.064Z" transform="translate(-16.352 -56.713)" fill="#feea89"/>
          </g>
        </g>
      </g>
      <g id="Grupo_154427" data-name="Grupo 154427" transform="translate(736.746 8623)">
        <path id="Elipse_5729" data-name="Elipse 5729" d="M43,0A43,43,0,1,1,0,43,43,43,0,0,1,43,0Z" transform="translate(0 0)" fill="#302c9e"/>
      </g>
    </g>
    <g id="Enmascarar_grupo_1119215" data-name="Enmascarar grupo 1119215" transform="translate(-7615.289 11700)" clip-path="url(#clip-path-2)">
      <g id="Grupo_1204848" data-name="Grupo 1204848" transform="translate(8609 -9823)">
        <g id="Grupo_1204847" data-name="Grupo 1204847" clip-path="url(#clip-path-3)">
          <path id="Trazado_1260440" data-name="Trazado 1260440" d="M26.214,52.427h0A26.61,26.61,0,0,1,7.663,44.563,25.7,25.7,0,0,1,0,26.213v-.6A1.119,1.119,0,0,1,1.109,24.5l8.671.1a1.119,1.119,0,0,1,1.109,1.109v.4a34.36,34.36,0,0,0,2.52,13c2.823,6.554,7.563,10.688,12.7,10.89a1.119,1.119,0,0,1,1.109,1.108,1.146,1.146,0,0,1-.3.807.646.646,0,0,1-.706.5M7.36,40.731a23.829,23.829,0,0,0,9.376,7.26,24.261,24.261,0,0,1-4.94-7.26ZM5.747,38.413l5.041.1A36.356,36.356,0,0,1,8.671,26.919l-6.453-.1A24.073,24.073,0,0,0,5.747,38.413" fill="#fff"/>
          <path id="Trazado_1260441" data-name="Trazado 1260441" d="M9.881,26.92h0l-8.771-.1a1.143,1.143,0,0,1-.807-.3A1.142,1.142,0,0,1,0,25.71,25.4,25.4,0,0,1,7.865,7.763,26.56,26.56,0,0,1,26.214.1a1.148,1.148,0,0,1,.807.3,1.149,1.149,0,0,1,.3.807,1.12,1.12,0,0,1-1.11,1.109c-5.242.2-9.981,4.436-12.805,11.09a33.172,33.172,0,0,0-2.419,12.4,1.041,1.041,0,0,1-1.109,1.11M2.32,24.6l6.452.1a32.272,32.272,0,0,1,2.016-10.485l-5.041-.1A23.056,23.056,0,0,0,2.32,24.6M7.26,11.8l4.436.1a24.45,24.45,0,0,1,5.142-7.461A22.323,22.323,0,0,0,7.26,11.8" fill="#fff"/>
          <path id="Trazado_1260442" data-name="Trazado 1260442" d="M19.66,27.02h0l-9.779-.1A1.119,1.119,0,0,1,8.772,25.81,37.539,37.539,0,0,1,11.394,12.6a1.237,1.237,0,0,1,1.108-.7l8.268.1a1.813,1.813,0,0,1,.907.4,1.026,1.026,0,0,1,.2.907,70.143,70.143,0,0,0-1.009,12.6,1.145,1.145,0,0,1-.3.807,1.63,1.63,0,0,1-.908.3M11.091,24.7l7.461.1a83.516,83.516,0,0,1,.807-10.486l-6.251-.1A31.783,31.783,0,0,0,11.091,24.7" fill="#fff"/>
          <path id="Trazado_1260443" data-name="Trazado 1260443" d="M20.669,14.216h0l-8.368-.1a1.059,1.059,0,0,1-.907-.5,1.391,1.391,0,0,1-.1-1.11C14.418,4.94,19.963.3,26.113,0a1.15,1.15,0,0,1,.807.3,1.148,1.148,0,0,1,.3.807v.1a1.093,1.093,0,0,1-.807,1.11c-1.411.4-3.428,3.932-4.637,10.989a1.027,1.027,0,0,1-1.109.908M14.216,11.9l5.646.1a28.681,28.681,0,0,1,2.924-8.872c-3.529,1.411-6.453,4.436-8.57,8.771" fill="#fff"/>
          <path id="Trazado_1260444" data-name="Trazado 1260444" d="M20.77,40.934h0l-8.268-.1a1.211,1.211,0,0,1-1.007-.706A34.928,34.928,0,0,1,8.772,26.214v-.4A1.042,1.042,0,0,1,9.881,24.7l9.78.1a1.119,1.119,0,0,1,1.109,1.11v.3a77.173,77.173,0,0,0,1.109,13.309.966.966,0,0,1-.2.907,1.059,1.059,0,0,1-.907.5m-7.461-2.42,6.15.1a69.365,69.365,0,0,1-.907-11.6l-7.561-.1a33.434,33.434,0,0,0,2.318,11.594" fill="#fff"/>
          <path id="Trazado_1260445" data-name="Trazado 1260445" d="M26.213,52.427h0c-6.048-.3-11.594-4.839-14.719-12.3a1.082,1.082,0,0,1,.1-1.109,1.241,1.241,0,0,1,1.008-.5l8.268.1a1.182,1.182,0,0,1,1.109.908c1.21,6.755,3.227,10.183,4.537,10.486a1.091,1.091,0,0,1,.807,1.108v.1a1.145,1.145,0,0,1-.3.806.917.917,0,0,1-.807.4m-11.9-11.594c2.118,4.134,5.042,7.158,8.368,8.469a29.322,29.322,0,0,1-2.822-8.368Z" fill="#fff"/>
          <path id="Trazado_1260446" data-name="Trazado 1260446" d="M26.213,41.034h0l-5.444-.1a1.181,1.181,0,0,1-1.109-.907,83.085,83.085,0,0,1-1.109-13.712v-.3A1.039,1.039,0,0,1,19.66,24.9l6.553.1a1.12,1.12,0,0,1,1.11,1.11V39.824a1.149,1.149,0,0,1-.3.807,1.243,1.243,0,0,1-.807.4m-4.436-2.42H25.1V27.121l-4.234-.1a69.344,69.344,0,0,0,.907,11.594" fill="#fff"/>
          <path id="Trazado_1260447" data-name="Trazado 1260447" d="M26.214,27.121h0l-6.554-.1a1.119,1.119,0,0,1-1.108-1.109A74.538,74.538,0,0,1,19.66,12.9,1.182,1.182,0,0,1,20.77,12l5.444.1a1.12,1.12,0,0,1,1.109,1.11v12.8a1.041,1.041,0,0,1-1.109,1.109M20.87,24.8l4.234.1V14.317H21.677A67.146,67.146,0,0,0,20.87,24.8" fill="#fff"/>
          <path id="Trazado_1260448" data-name="Trazado 1260448" d="M26.214,14.317h0l-5.545-.1a1.8,1.8,0,0,1-.907-.4,1.028,1.028,0,0,1-.2-.908c.706-4.335,2.621-11.8,6.351-12.8A1.242,1.242,0,0,1,26.92.3a.983.983,0,0,1,.4.907v12a1.041,1.041,0,0,1-1.109,1.109M22.08,12H25.1V3.529C24,5.041,22.887,7.864,22.08,12" fill="#fff"/>
          <path id="Trazado_1260449" data-name="Trazado 1260449" d="M26.214,52.327h-.3c-3.629-1.008-5.445-8.166-6.251-12.3a.967.967,0,0,1,.2-.908.983.983,0,0,1,.907-.4l5.444.1a1.119,1.119,0,0,1,1.11,1.108V51.217a1.284,1.284,0,0,1-.4.908,1.873,1.873,0,0,1-.706.2M22.181,40.934A22.791,22.791,0,0,0,25.1,48.9V41.035Z" fill="#fff"/>
          <path id="Trazado_1260450" data-name="Trazado 1260450" d="M26.214,27.121h0l-6.554-.1a1.109,1.109,0,0,1,0-2.218l6.554.1a1.109,1.109,0,0,1,0,2.218" fill="#fff"/>
          <path id="Trazado_1260451" data-name="Trazado 1260451" d="M19.66,27.02h0l-9.779-.1a1.11,1.11,0,1,1,0-2.219l9.779.1a1.109,1.109,0,0,1,0,2.218" fill="#fff"/>
          <path id="Trazado_1260452" data-name="Trazado 1260452" d="M9.881,26.92h0l-8.771-.1a1.109,1.109,0,1,1,0-2.218l8.67.1a1.119,1.119,0,0,1,1.109,1.109A.98.98,0,0,1,9.881,26.92" fill="#fff"/>
          <path id="Trazado_1260453" data-name="Trazado 1260453" d="M1.21,26.818h0a1.109,1.109,0,0,1,0-2.218,1.109,1.109,0,0,1,0,2.218" fill="#fff"/>
          <path id="Trazado_1260454" data-name="Trazado 1260454" d="M20.669,14.216h0l-8.368-.1a1.109,1.109,0,1,1,0-2.218l8.266.1a1.119,1.119,0,0,1,1.11,1.109c.2.6-.3,1.109-1.008,1.109" fill="#fff"/>
          <path id="Trazado_1260455" data-name="Trazado 1260455" d="M26.214,14.316h0l-5.545-.1a1.109,1.109,0,1,1,0-2.218l5.444.1a1.119,1.119,0,0,1,1.109,1.109.98.98,0,0,1-1.008,1.109" fill="#fff"/>
          <path id="Trazado_1260456" data-name="Trazado 1260456" d="M12.4,14.115h0l-6.856-.1a1.109,1.109,0,0,1,0-2.218l6.856.1a1.109,1.109,0,1,1,0,2.218" fill="#fff"/>
          <path id="Trazado_1260457" data-name="Trazado 1260457" d="M26.214,41.034h0l-5.444-.1a1.109,1.109,0,1,1,0-2.217l5.444.1a1.109,1.109,0,1,1,0,2.218" fill="#fff"/>
          <path id="Trazado_1260458" data-name="Trazado 1260458" d="M20.77,40.934h0l-8.268-.1a1.109,1.109,0,0,1,0-2.218l8.268.1a1.119,1.119,0,0,1,1.109,1.109,1.058,1.058,0,0,1-1.109,1.109" fill="#fff"/>
          <path id="Trazado_1260459" data-name="Trazado 1260459" d="M12.5,40.732h0l-6.957-.1a1.108,1.108,0,1,1,0-2.217l6.957.1a1.119,1.119,0,0,1,1.109,1.11A1.057,1.057,0,0,1,12.5,40.732" fill="#fff"/>
          <path id="Trazado_1260460" data-name="Trazado 1260460" d="M27.827,52.427H26.214a1.12,1.12,0,0,1-1.11-1.109V37.4a1.119,1.119,0,0,1,1.11-1.108,10.116,10.116,0,0,0,9.779-10.083,10.256,10.256,0,0,0-9.779-10.082,1.12,1.12,0,0,1-1.11-1.109V1.209A1.12,1.12,0,0,1,26.214.1h1.814a1.1,1.1,0,0,1,1.109,1.009l.807,5.746A19.4,19.4,0,0,1,36.8,9.679l4.637-3.428a1.218,1.218,0,0,1,1.513.1l3.227,3.125a1.1,1.1,0,0,1,.1,1.512l-3.428,4.437a20.034,20.034,0,0,1,2.824,6.755l5.746.806A1.174,1.174,0,0,1,52.427,24.1v4.436a1.1,1.1,0,0,1-1.008,1.11l-5.746.806A19.151,19.151,0,0,1,42.749,37.2l3.428,4.537a1.21,1.21,0,0,1-.1,1.512l-3.227,3.126a1.209,1.209,0,0,1-1.512.1L36.6,43.051a21.231,21.231,0,0,1-6.855,2.721l-.807,5.647a1.1,1.1,0,0,1-1.109,1.008m-.5-14.014v8.268l.3-2.118a1.33,1.33,0,0,1,.908-1.008,17.833,17.833,0,0,0,7.46-2.924,1.059,1.059,0,0,1,1.311,0l4.537,3.327,1.815-1.815-3.327-4.436a1.209,1.209,0,0,1,0-1.411,16.141,16.141,0,0,0,3.125-7.259,1.073,1.073,0,0,1,1.009-.908l5.544-.807V24.8L44.463,24a1.183,1.183,0,0,1-1.009-.907,18.124,18.124,0,0,0-3.025-7.36,1.059,1.059,0,0,1,0-1.311l3.428-4.436L42.043,8.166l-4.537,3.328a1.062,1.062,0,0,1-1.311,0,17.961,17.961,0,0,0-7.461-3.025,1.064,1.064,0,0,1-.907-.908l-.5-3.73v9.88a12.394,12.394,0,0,1,10.889,12.2,12.607,12.607,0,0,1-10.889,12.5" fill="#fff"/>
          <path id="Trazado_1260461" data-name="Trazado 1260461" d="M26.214,38.514A1.042,1.042,0,0,1,25.1,37.4V30.953a1.036,1.036,0,0,1,1.009-1.109,3.644,3.644,0,0,0,0-7.26A1.1,1.1,0,0,1,25.1,21.476V15.023a1.041,1.041,0,0,1,1.11-1.109,12.3,12.3,0,0,1,0,24.6m1.109-6.553V36.2a10.1,10.1,0,0,0,0-19.964v4.235a5.977,5.977,0,0,1,0,11.494" fill="#fff"/>
          <path id="Trazado_1260462" data-name="Trazado 1260462" d="M26.214,32.162a1.34,1.34,0,0,1-.807-.3,1.248,1.248,0,0,1-.4-.807V21.475a.915.915,0,0,1,.4-.807,1.406,1.406,0,0,1,.907-.3,5.928,5.928,0,0,1,5.344,5.949,6.074,6.074,0,0,1-5.344,5.948.1.1,0,0,0-.1-.1m1.109-9.276V29.44a3.719,3.719,0,0,0,2.117-3.327,3.413,3.413,0,0,0-2.117-3.227" fill="#fff"/>
        </g>
      </g>
    </g>
  </g>
</svg>
