<svg xmlns="http://www.w3.org/2000/svg" xmlns:xlink="http://www.w3.org/1999/xlink" width="96" height="96" viewBox="0 0 96 96">
  <defs>
    <clipPath id="clip-path">
      <rect id="Rectángulo_454682" data-name="Rectángulo 454682" width="96" height="96" fill="#feea89"/>
    </clipPath>
    <clipPath id="clip-path-2">
      <rect id="Rectángulo_455592" data-name="Rectángulo 455592" width="58" height="58" transform="translate(2.838 14)" fill="#fff" stroke="#707070" stroke-width="1"/>
    </clipPath>
    <clipPath id="clip-path-3">
      <rect id="Rectángulo_455593" data-name="Rectángulo 455593" width="54.019" height="50.971" fill="#fff"/>
    </clipPath>
  </defs>
  <g id="Grupo_1204212" data-name="Grupo 1204212" transform="translate(-731.746 -8618)">
    <g id="Grupo_1203592" data-name="Grupo 1203592" transform="translate(731.746 8618)">
      <g id="Grupo_1203487" data-name="Grupo 1203487">
        <g id="Grupo_1203486" data-name="Grupo 1203486" clip-path="url(#clip-path)">
          <path id="Trazado_1256437" data-name="Trazado 1256437" d="M2.058,84.327a47.583,47.583,0,0,0,1.836,6.227L23,71.45a25.883,25.883,0,0,1,4.958-13.021Z" transform="translate(-0.911 -25.866)" fill="#feea89"/>
          <path id="Trazado_1256438" data-name="Trazado 1256438" d="M90.555,3.894a47.583,47.583,0,0,0-6.227-1.836l-25.9,25.9A25.886,25.886,0,0,1,71.451,23Z" transform="translate(-25.866 -0.911)" fill="#feea89"/>
          <path id="Trazado_1256439" data-name="Trazado 1256439" d="M117.575,12.855a48.029,48.029,0,0,0-5.022-3.041L95.523,26.843a25.831,25.831,0,0,1,6.031,2.032Z" transform="translate(-42.287 -4.345)" fill="#feea89"/>
          <path id="Trazado_1256440" data-name="Trazado 1256440" d="M9.814,112.552a47.933,47.933,0,0,0,3.041,5.022l16.021-16.021a25.831,25.831,0,0,1-2.032-6.031Z" transform="translate(-4.345 -42.287)" fill="#feea89"/>
          <path id="Trazado_1256441" data-name="Trazado 1256441" d="M4.273,34.929,34.929,4.273A48.116,48.116,0,0,0,4.273,34.929" transform="translate(-1.892 -1.892)" fill="#feea89"/>
          <path id="Trazado_1256442" data-name="Trazado 1256442" d="M48,0q-2.406,0-4.752.234L.234,43.248Q0,45.593,0,48q0,1.726.123,3.422l51.3-51.3C50.292.043,49.151,0,48,0" transform="translate(0 0)" fill="#feea89"/>
          <path id="Trazado_1256443" data-name="Trazado 1256443" d="M143.483,112.406l-31.076,31.076a48.112,48.112,0,0,0,31.076-31.076" transform="translate(-49.761 -49.761)" fill="#feea89"/>
          <path id="Trazado_1256444" data-name="Trazado 1256444" d="M131.113,79.625,79.625,131.113q1.795.134,3.624.135c1.524,0,3.03-.074,4.517-.213l43.27-43.27c.139-1.487.213-2.993.213-4.516q0-1.829-.135-3.624" transform="translate(-35.249 -35.249)" fill="#feea89"/>
          <path id="Trazado_1256445" data-name="Trazado 1256445" d="M119.266,41.241l15.585-15.585a48.285,48.285,0,0,0-4.038-4.025L115.222,37.222a26.166,26.166,0,0,1,4.044,4.019" transform="translate(-51.007 -9.575)" fill="#feea89"/>
          <path id="Trazado_1256446" data-name="Trazado 1256446" d="M37.222,115.222,21.63,130.814a48.369,48.369,0,0,0,4.025,4.038l15.585-15.585a26.166,26.166,0,0,1-4.019-4.044" transform="translate(-9.575 -51.007)" fill="#feea89"/>
          <path id="Trazado_1256447" data-name="Trazado 1256447" d="M74.932,129.121,55.9,148.149a47.687,47.687,0,0,0,6.207,1.857l25.333-25.333a25.88,25.88,0,0,1-12.512,4.448" transform="translate(-24.748 -55.191)" fill="#feea89"/>
          <path id="Trazado_1256448" data-name="Trazado 1256448" d="M150.006,62.11a47.591,47.591,0,0,0-1.857-6.206L129.121,74.931a25.87,25.87,0,0,1-4.448,12.512Z" transform="translate(-55.191 -24.748)" fill="#feea89"/>
          <path id="Trazado_1256449" data-name="Trazado 1256449" d="M147.17,41.946a48.074,48.074,0,0,0-3.054-5.009l-16,16a25.825,25.825,0,0,1,2.064,6Z" transform="translate(-56.713 -16.352)" fill="#feea89"/>
          <path id="Trazado_1256450" data-name="Trazado 1256450" d="M36.937,144.115a47.933,47.933,0,0,0,5.009,3.055l16.995-17a25.812,25.812,0,0,1-6-2.064Z" transform="translate(-16.352 -56.713)" fill="#feea89"/>
        </g>
      </g>
    </g>
    <g id="Grupo_154427" data-name="Grupo 154427" transform="translate(736.746 8623)">
      <path id="Elipse_5729" data-name="Elipse 5729" d="M43,0A43,43,0,1,1,0,43,43,43,0,0,1,43,0Z" transform="translate(-0.162 0)" fill="#302c9e"/>
      <g id="Enmascarar_grupo_1119197" data-name="Enmascarar grupo 1119197" transform="translate(11)" clip-path="url(#clip-path-2)">
        <g id="Grupo_1204547" data-name="Grupo 1204547" transform="translate(4.838 18)">
          <g id="Grupo_1204546" data-name="Grupo 1204546" clip-path="url(#clip-path-3)">
            <path id="Trazado_1258888" data-name="Trazado 1258888" d="M69.706,104.371a6.5,6.5,0,0,1,6.27,2.28L88.911,128.89a6.543,6.543,0,0,1-5.81,9.5c-7.936-.488-16.616.632-24.465-.009a6.543,6.543,0,0,1-6.111-8.345c4.129-7.87,8.809-15.488,13.251-23.2a6.4,6.4,0,0,1,3.931-2.464m.157,1.755a4.908,4.908,0,0,0-2.968,2.148c-3.581,7.058-8.544,13.848-12.046,20.888-1.82,3.658-.265,6.875,3.787,7.459,7.943-.465,16.606.628,24.464.008,4.035-.318,5.75-3.778,3.995-7.363-3.476-7.1-8.578-13.978-12.168-21.087a4.849,4.849,0,0,0-5.064-2.054" transform="translate(-43.938 -87.614)" fill="#fff"/>
            <path id="Trazado_1258889" data-name="Trazado 1258889" d="M2.626,103.846a1.952,1.952,0,0,1,.32-.479,45.166,45.166,0,0,1,5.523-.087c.766.1.815.689.878,1.36L9.34,116.557c1.459-.2,3.241.295,2.312,2.071-1.675,1.605-3.059,3.96-4.7,5.53-1.115,1.066-1.85.129-2.648-.725-1.475-1.579-2.886-3.5-4.25-5.194-.372-1.676,1.324-1.82,2.573-1.683Zm4.956,1.2h-3.2v12.71a2.2,2.2,0,0,1-.592.527c-.277.082-1.5-.139-1.325.27l3.457,3.908L9.5,118.394c-.348-.161-1.918.08-1.918-.479Z" transform="translate(0 -86.73)" fill="#fff"/>
            <path id="Trazado_1258890" data-name="Trazado 1258890" d="M272.671,104.308c1.919-.194,3.515.5,2.075,2.474-1.31,1.8-3.224,3.461-4.522,5.309-.8.564-1.306.379-1.952-.265-1.616-1.611-2.976-3.821-4.626-5.446-.921-1.765.882-2.243,2.312-2.071l-.007-11.918c.063-.671.112-1.258.878-1.36a32.869,32.869,0,0,1,4.966.007c.32.035.877.161.877.56ZM270.912,92.8h-3.2v12.87c0,.559-1.569.318-1.918.479l3.673,4.238,3.359-4.079c.174-.408-1.052-.189-1.325-.271a2.2,2.2,0,0,1-.592-.527Z" transform="translate(-221.283 -76.401)" fill="#fff"/>
            <path id="Trazado_1258891" data-name="Trazado 1258891" d="M85.692,10.8c1.25-.137,2.944.006,2.574,1.683-1.481,1.743-2.828,3.7-4.41,5.353-.745.777-1.264,1.436-2.4.64l-5-6.039c-.3-1.685,1.262-1.725,2.521-1.638V.968c0-.423.779-.834,1.2-.883A29.367,29.367,0,0,1,84.8.1c.235.037.889.374.889.55ZM83.934,1.848H80.976l-.24.24V12.16c-.494.607-1.275.284-1.918.479L82.4,16.71,85.851,12.8c.171-.409-1.048-.188-1.325-.27A2.2,2.2,0,0,1,83.934,12Z" transform="translate(-64.202 0)" fill="#fff"/>
            <path id="Trazado_1258892" data-name="Trazado 1258892" d="M211.79,21.781c1.462-.071,2.952-.2,2.486,1.768l-4.8,5.752a1.3,1.3,0,0,1-1.948.1c-1.262-1.8-3.076-3.4-4.369-5.143-1.464-1.971-.161-2.741,1.915-2.475V11.789c0-.323.525-.68.872-.727a36.414,36.414,0,0,1,5.12.011,1.568,1.568,0,0,1,.723.556Zm-1.759-8.953h-3.2V22.98c0,.514-1.578.6-1.918.639l3.6,4.075,3.436-4.075c-.467-.065-1.918-.058-1.918-.8Z" transform="translate(-170.155 -9.222)" fill="#fff"/>
            <path id="Trazado_1258893" data-name="Trazado 1258893" d="M153.691,154.438c1.354-.245,3.368.143,3.563,1.8a36.107,36.107,0,0,1-.17,5.113,52.551,52.551,0,0,1-.164,6.071c-.371,2.437-4.322,2.47-4.63-.146-.222-1.891-.1-4.015-.15-5.926a29.7,29.7,0,0,1-.157-5.26,2.585,2.585,0,0,1,1.708-1.65m.3,1.744-.192.127c-.152,3.575.092,7.2.282,10.77a.54.54,0,0,0,1.055,0,18.876,18.876,0,0,0,.191-1.888c.176-2.805.051-5.807.162-8.632l-.262-.377Z" transform="translate(-127.606 -129.69)" fill="#fff"/>
            <path id="Trazado_1258894" data-name="Trazado 1258894" d="M153.858,257.546a2.748,2.748,0,1,1-1.626,1.091,2.657,2.657,0,0,1,1.626-1.091m.32,1.748a.993.993,0,0,0-.167,1.859,1,1,0,1,0,.167-1.859" transform="translate(-127.453 -216.329)" fill="#fff"/>
          </g>
        </g>
      </g>
    </g>
  </g>
</svg>
