<svg xmlns="http://www.w3.org/2000/svg" xmlns:xlink="http://www.w3.org/1999/xlink" width="84" height="84" viewBox="0 0 84 84">
  <defs>
    <clipPath id="clip-path">
      <rect id="Rect치ngulo_455676" data-name="Rect치ngulo 455676" width="63.127" height="62.145" fill="#302c9e"/>
    </clipPath>
  </defs>
  <g id="Grupo_1204624" data-name="Grupo 1204624" transform="translate(-185.711 -1366)">
    <rect id="Rect치ngulo_455444" data-name="Rect치ngulo 455444" width="84" height="84" rx="12" transform="translate(185.711 1366)" fill="#feea89"/>
    <g id="Grupo_1204623" data-name="Grupo 1204623" transform="translate(195.711 1377)">
      <g id="Grupo_1204622" data-name="Grupo 1204622" clip-path="url(#clip-path)">
        <path id="Trazado_1259445" data-name="Trazado 1259445" d="M42.563,14.319c1.376-.135,2.728-.534,4.1-.7,1.305-.16,7.322-.711,8.1-.219.644.408.118,5.171.325,6.15,1.874.8,4.586.195,3.98,3.087.707.217,3.8.748,4.061,1.283l-.18,38.052-.527.176a52.29,52.29,0,0,0-21.92-1.97c-2.383.319-7.069,1.939-8.9,1.939-1.345,0-4.9-1.252-6.571-1.55a51.057,51.057,0,0,0-24.1,1.546L.35,62.063l-.28-.452L0,24.384c.214-1.349,3.016-1.294,4.137-1.75-.607-2.894,2.113-2.287,3.98-3.087.185-.286-.077-4.308.019-5.143.077-.667.29-1.09.992-1.182a38.64,38.64,0,0,1,7.594.395c1.373.175,2.716.594,4.1.7l-.1-11.783c.145-.217,1.046-.36,1.364-.448C23.809,1.612,30.364-.035,31.776,0a76.251,76.251,0,0,1,9.817,2.153,1.926,1.926,0,0,1,.984.465ZM41.285,3.457,31.611,1.451,22.1,3.457c-.067,6.39-1.287,13.2,4.252,17.742,3.812,3.127,7.156,3.01,10.86-.183,5.476-4.72,3.87-11.1,4.073-17.559M9.59,14.681V50.914A42.585,42.585,0,0,1,24.54,53.085c1.9.641,3.978,1.954,5.7,2.454a1.758,1.758,0,0,0,.73.085V25.1c-1.2-.524-2.437-.837-3.6-1.474a14.368,14.368,0,0,1-6.307-7.688A40.471,40.471,0,0,0,9.59,14.681m44.023,0a40.3,40.3,0,0,0-11.479,1.251,13.586,13.586,0,0,1-7.727,8.438,15.8,15.8,0,0,0-2.171.728V55.805a44.454,44.454,0,0,1,21.377-4.891ZM8.141,21.021,5.6,21.565V55.986a48.424,48.424,0,0,1,17.934-1.632l-1.953-.671a47.892,47.892,0,0,0-10.818-1.516c-.516-.011-2.627.621-2.627-.438Zm49.458.543-2.536-.543V51.91a1.324,1.324,0,0,1-.827.441c-1.461.23-3.508-.085-5.069,0a45.156,45.156,0,0,0-7.55,1.327l-1.772.671A46.444,46.444,0,0,1,57.6,55.986ZM4.155,24.1l-2.717.543V60.515a51.11,51.11,0,0,1,29.349,0V57.526a31.877,31.877,0,0,0-6.119-1.49,43.05,43.05,0,0,0-12.942,0c-2.345.355-4.649,1-6.948,1.565-.192.034-.623-.363-.623-.44Zm57.61.543L59.048,24.1V57.164c0,.077-.431.473-.623.44-2.3-.562-4.6-1.208-6.948-1.565a41.222,41.222,0,0,0-12.939,0c-2.125.322-4.22.9-6.3,1.4v2.808c0,.054.27.324.417.245a50.821,50.821,0,0,1,29.113.026Z" transform="translate(0 0)" fill="#302c9e"/>
        <path id="Trazado_1259446" data-name="Trazado 1259446" d="M199.833,234.675a2.344,2.344,0,0,1,0-1.031c3.647-1.8,7.893-3.481,12.019-3.65.868-.036,1.786-.055,1.452,1.086-.307.609-1.563.285-2.176.364a30.946,30.946,0,0,0-6.3,1.493c-1.215.43-3.163,1.633-4.123,1.871-.231.057-.779.028-.878-.134" transform="translate(-163.584 -188.317)" fill="#302c9e"/>
        <path id="Trazado_1259447" data-name="Trazado 1259447" d="M199.908,158.782a36.853,36.853,0,0,1,8.12-3.019c.87-.181,4.5-.822,5.074-.541a.726.726,0,0,1-.127,1.322,12.913,12.913,0,0,1-1.571.059,33.8,33.8,0,0,0-8.8,2.429c-1.066.441-3.056,2.08-2.693-.249" transform="translate(-163.656 -127.043)" fill="#302c9e"/>
        <path id="Trazado_1259448" data-name="Trazado 1259448" d="M210.3,192.954a8.988,8.988,0,0,1,2.584.026c.925,1.64-1.785,1.238-2.8,1.392a31.441,31.441,0,0,0-6.81,1.886,29.792,29.792,0,0,1-3.012,1.352c-.893.085-1.238-.685-.5-1.242,1.925-1.455,8.093-3.192,10.535-3.413" transform="translate(-163.246 -157.929)" fill="#302c9e"/>
        <path id="Trazado_1259449" data-name="Trazado 1259449" d="M222.2,119.1c.193-.009.379-.094.572.043a.734.734,0,0,1,.28,1c-.211.412-2.363.636-3,.813-.936.262-3.449,1.332-4.1,1.359a.656.656,0,0,1-.631-1c.506-.742,5.813-2.167,6.871-2.218" transform="translate(-176.225 -97.497)" fill="#302c9e"/>
        <path id="Trazado_1259450" data-name="Trazado 1259450" d="M78.376,155.07a20.389,20.389,0,0,1,4.082.374A30.865,30.865,0,0,1,88.57,157.3a25.129,25.129,0,0,1,3,1.531c.331.625-.178,1.177-.867,1.061-.564-.095-2.44-1.207-3.219-1.508a32.429,32.429,0,0,0-7.539-1.882c-.637-.088-1.986.257-2.068-.666a.724.724,0,0,1,.5-.768" transform="translate(-63.768 -126.945)" fill="#302c9e"/>
        <path id="Trazado_1259451" data-name="Trazado 1259451" d="M78.357,229.954a10.039,10.039,0,0,1,2.836.17c2.6.338,7.678,1.755,9.843,3.2.536.357.928.97.238,1.4-.422.266-2.665-1.032-3.268-1.273a31.833,31.833,0,0,0-7.717-2.066c-.609-.082-2.351.226-2.435-.662a.736.736,0,0,1,.5-.773" transform="translate(-63.748 -188.242)" fill="#302c9e"/>
        <path id="Trazado_1259452" data-name="Trazado 1259452" d="M91.618,196.213l.2.446-.132.518c-.647.788-2.488-.6-3.286-.913a33.677,33.677,0,0,0-7.354-2.067c-.794-.127-3.02.153-2.933-.974.06-.776,1.681-.545,2.409-.495,3.83.266,7.661,1.894,11.095,3.487" transform="translate(-63.96 -157.752)" fill="#302c9e"/>
        <path id="Trazado_1259453" data-name="Trazado 1259453" d="M94.5,119.317a9.611,9.611,0,0,1,1.527.209c.85.146,5.145,1.371,5.611,1.815a.711.711,0,0,1-.618,1.181c-.691-.031-3.116-1.095-4.1-1.357-.61-.163-2.642-.375-2.917-.705a.679.679,0,0,1,.492-1.142" transform="translate(-76.826 -97.698)" fill="#302c9e"/>
        <path id="Trazado_1259454" data-name="Trazado 1259454" d="M135.869,16.25c1.485-.157,6.823.972,8.344,1.519.6.216.685.433.758,1.053.733,6.243-.222,14.44-7.258,16.48a2.7,2.7,0,0,1-2.158,0,10.553,10.553,0,0,1-6.841-7.107,37.63,37.63,0,0,1-.423-9.559.84.84,0,0,1,.177-.548,1.5,1.5,0,0,1,.7-.391,49.761,49.761,0,0,1,6.7-1.447m0,1.445a45.483,45.483,0,0,0-6.034,1.392c-.174,5.34-.993,11.048,4.395,14.105,1.654.939,2.316,1.149,4.077.345,5.816-2.656,5.469-9.012,5.138-14.452-2.28-.324-5.3-1.655-7.576-1.39" transform="translate(-104.942 -13.294)" fill="#302c9e"/>
        <path id="Trazado_1259455" data-name="Trazado 1259455" d="M159.336,52.237a.7.7,0,0,1,.7,1.045c-1,.661-4.356,4.837-5.112,5.05a.711.711,0,0,1-.7-.146,28.22,28.22,0,0,1-2.4-2.493c-.192-.642.032-1.076.742-.929.736.153,1.782,1.84,2.19,1.769.893-.577,3.832-4.224,4.581-4.3" transform="translate(-124.265 -42.771)" fill="#302c9e"/>
      </g>
    </g>
  </g>
</svg>
