<svg xmlns="http://www.w3.org/2000/svg" xmlns:xlink="http://www.w3.org/1999/xlink" width="396.289" height="338" viewBox="0 0 396.289 338">
  <defs>
    <clipPath id="clip-path">
      <path id="Trazado_1259443" data-name="Trazado 1259443" d="M0-54.743H396v336.4H0Z" transform="translate(22.982 22.674)" fill="none"/>
    </clipPath>
  </defs>
  <g id="Grupo_1204621" data-name="Grupo 1204621" transform="translate(-185.711 -640)">
    <rect id="Rectángulo_455675" data-name="Rectángulo 455675" width="396" height="338" rx="19" transform="translate(185.711 640)" fill="#fff7d9"/>
    <g id="Grupo_1204620" data-name="Grupo 1204620" transform="translate(186 695.243)">
      <g id="Enmascarar_grupo_1119206" data-name="Enmascarar grupo 1119206" transform="translate(-22.982 -23.073)" clip-path="url(#clip-path)">
        <path id="Trazado_1259296" data-name="Trazado 1259296" d="M346.193,63v-18.2H330.367a34.986,34.986,0,0,0-3.534-8.525L338.025,25.09,325.159,12.224,313.967,23.415a35.04,35.04,0,0,0-8.526-3.533V4.056h-18.2V19.882a35.02,35.02,0,0,0-8.525,3.533L267.527,12.224,254.661,25.09l11.191,11.192a34.989,34.989,0,0,0-3.534,8.525H246.493V63h15.825a34.989,34.989,0,0,0,3.534,8.525L254.661,82.722l12.866,12.866L278.719,84.4a34.986,34.986,0,0,0,8.525,3.533v15.826h18.2V87.93a35.006,35.006,0,0,0,8.526-3.533l11.192,11.191,12.866-12.866L326.833,71.53A34.985,34.985,0,0,0,330.367,63Zm-32.79-9.1a17.06,17.06,0,1,1-17.06-17.06,17.08,17.08,0,0,1,17.06,17.06" transform="translate(-19.181 -36.125)" fill="#bedce0"/>
        <path id="Trazado_1259297" data-name="Trazado 1259297" d="M201.545,0H98.692A11.314,11.314,0,0,0,87.379,11.313V53.232A11.314,11.314,0,0,0,98.692,64.546h10.82a3.515,3.515,0,0,1,3.516,3.515V82.223a1.181,1.181,0,0,0,2.087.758L128.63,66.848a6.434,6.434,0,0,1,4.932-2.3h67.983a11.314,11.314,0,0,0,11.313-11.314V11.313A11.313,11.313,0,0,0,201.545,0" transform="translate(-11.113 3.759)" fill="#0d5365"/>
        <line id="Línea_3460" data-name="Línea 3460" y2="15.838" transform="translate(91.181 37.474)" fill="none" stroke="#bedce0" stroke-miterlimit="10" stroke-width="1.153"/>
        <line id="Línea_3461" data-name="Línea 3461" y2="21.183" transform="translate(103.137 32.129)" fill="none" stroke="#bedce0" stroke-miterlimit="10" stroke-width="1.153"/>
        <line id="Línea_3462" data-name="Línea 3462" y2="15.239" transform="translate(115.093 38.074)" fill="none" stroke="#bedce0" stroke-miterlimit="10" stroke-width="1.153"/>
        <line id="Línea_3463" data-name="Línea 3463" y2="19.107" transform="translate(127.049 34.206)" fill="none" stroke="#bedce0" stroke-miterlimit="10" stroke-width="1.153"/>
        <line id="Línea_3464" data-name="Línea 3464" y2="28.126" transform="translate(139.005 25.186)" fill="none" stroke="#bedce0" stroke-miterlimit="10" stroke-width="1.153"/>
        <line id="Línea_3465" data-name="Línea 3465" y2="31.678" transform="translate(150.961 21.634)" fill="none" stroke="#bedce0" stroke-miterlimit="10" stroke-width="1.153"/>
        <line id="Línea_3466" data-name="Línea 3466" y2="22.321" transform="translate(162.917 30.992)" fill="none" stroke="#bedce0" stroke-miterlimit="10" stroke-width="1.153"/>
        <line id="Línea_3467" data-name="Línea 3467" y2="27.231" transform="translate(174.873 26.081)" fill="none" stroke="#bedce0" stroke-miterlimit="10" stroke-width="1.153"/>
        <line id="Línea_3468" data-name="Línea 3468" y2="36.961" transform="translate(186.829 16.352)" fill="none" stroke="#bedce0" stroke-miterlimit="10" stroke-width="1.153"/>
        <line id="Línea_3469" data-name="Línea 3469" x2="108.696" transform="translate(84.657 53.313)" fill="none" stroke="#bedce0" stroke-miterlimit="10" stroke-width="1"/>
        <path id="Trazado_1259298" data-name="Trazado 1259298" d="M100.257,38.8s7.7-8.459,14.4-8.832,7.471,7.615,17.2,5.762S151,20.4,160.276,19.231s9.007,11.628,18.556,9.457,14.532-12.774,24.028-15.924" transform="translate(-12.751 2.136)" fill="none" stroke="#fff" stroke-miterlimit="10" stroke-width="1"/>
        <path id="Trazado_1259299" data-name="Trazado 1259299" d="M215.644,14.156a1.861,1.861,0,1,1-1.861-1.861,1.861,1.861,0,0,1,1.861,1.861" transform="translate(-26.954 2.195)" fill="#ebbc3b"/>
        <path id="Trazado_1259300" data-name="Trazado 1259300" d="M201.945,25.518a1.861,1.861,0,1,1-1.861-1.861,1.861,1.861,0,0,1,1.861,1.861" transform="translate(-25.211 0.75)" fill="#ebbc3b"/>
        <path id="Trazado_1259301" data-name="Trazado 1259301" d="M188.247,30.93a1.861,1.861,0,1,1-1.861-1.861,1.861,1.861,0,0,1,1.861,1.861" transform="translate(-23.469 0.062)" fill="#ebbc3b"/>
        <path id="Trazado_1259302" data-name="Trazado 1259302" d="M174.549,20.209a1.861,1.861,0,1,1-1.861-1.861,1.861,1.861,0,0,1,1.861,1.861" transform="translate(-21.727 1.426)" fill="#ebbc3b"/>
        <path id="Trazado_1259303" data-name="Trazado 1259303" d="M160.851,24.279a1.861,1.861,0,1,1-1.861-1.861,1.861,1.861,0,0,1,1.861,1.861" transform="translate(-19.985 0.908)" fill="#ebbc3b"/>
        <path id="Trazado_1259304" data-name="Trazado 1259304" d="M147.153,34.612a1.861,1.861,0,1,1-1.861-1.861,1.861,1.861,0,0,1,1.861,1.861" transform="translate(-18.242 -0.406)" fill="#ebbc3b"/>
        <path id="Trazado_1259305" data-name="Trazado 1259305" d="M133.454,39.044a1.861,1.861,0,1,1-1.861-1.861,1.861,1.861,0,0,1,1.861,1.861" transform="translate(-16.5 -0.97)" fill="#ebbc3b"/>
        <path id="Trazado_1259306" data-name="Trazado 1259306" d="M119.756,32.48a1.861,1.861,0,1,1-1.861-1.861,1.861,1.861,0,0,1,1.861,1.861" transform="translate(-14.758 -0.135)" fill="#ebbc3b"/>
        <path id="Trazado_1259307" data-name="Trazado 1259307" d="M106.058,38.357A1.861,1.861,0,1,1,104.2,36.5a1.861,1.861,0,0,1,1.861,1.861" transform="translate(-13.016 -0.883)" fill="#ebbc3b"/>
        <path id="Trazado_1259308" data-name="Trazado 1259308" d="M227.493,191.953a92.73,92.73,0,1,1-92.73-92.73,92.731,92.731,0,0,1,92.73,92.73" transform="translate(-5.346 -8.861)" fill="#cad6fe"/>
        <path id="Trazado_1259309" data-name="Trazado 1259309" d="M420.038,313.987a120.387,120.387,0,1,0-233.455,0Z" transform="translate(-23.265 -17.105)" fill="#c1fbff"/>
        <path id="Trazado_1259310" data-name="Trazado 1259310" d="M399.395,39.33,361.662,54.044a2.186,2.186,0,0,0-.682,3.65l7.23,6.612-64.823,76.808-33.846-21.828a8.433,8.433,0,0,0-11.169,1.837L196.8,198.508,149.721,162.9a8.431,8.431,0,0,0-12.018,1.923L45.367,298.1H65.884l80.675-116.449,46.629,35.268a8.433,8.433,0,0,0,11.685-1.476L266.817,137.6,300.48,159.3a8.433,8.433,0,0,0,11.015-1.648L380.668,75.7l6.76,6.18a2.186,2.186,0,0,0,3.575-1l11.286-38.9a2.187,2.187,0,0,0-2.894-2.646" transform="translate(-5.77 -1.223)" fill="#4a75c9"/>
        <path id="Trazado_1259311" data-name="Trazado 1259311" d="M356.627,160.107H228.638a11.313,11.313,0,0,1-11.313-11.313V71.634A11.314,11.314,0,0,1,228.638,60.32H356.627A11.314,11.314,0,0,1,367.94,71.634v77.159a11.313,11.313,0,0,1-11.313,11.313" transform="translate(-27.641 -3.913)" fill="#ebcc30"/>
        <path id="Trazado_1259312" data-name="Trazado 1259312" d="M356.943,90.246,360.3,93.5l5.439-5.665" transform="translate(-45.398 -7.413)" fill="none" stroke="#fff" stroke-linecap="round" stroke-linejoin="round" stroke-width="1"/>
        <circle id="Elipse_13693" data-name="Elipse 13693" cx="2.74" cy="2.74" r="2.74" transform="translate(276.028 81.672)" fill="none" stroke="#fff" stroke-linecap="round" stroke-linejoin="round" stroke-width="1"/>
        <line id="Línea_3470" data-name="Línea 3470" x2="22.455" transform="translate(285.352 84.412)" fill="none" stroke="#fff" stroke-linecap="round" stroke-linejoin="round" stroke-width="1"/>
        <path id="Trazado_1259313" data-name="Trazado 1259313" d="M356.943,107.441,360.3,110.7l5.439-5.665" transform="translate(-45.398 -9.6)" fill="none" stroke="#fff" stroke-linecap="round" stroke-linejoin="round" stroke-width="1"/>
        <circle id="Elipse_13694" data-name="Elipse 13694" cx="2.74" cy="2.74" r="2.74" transform="translate(276.028 96.68)" fill="none" stroke="#fff" stroke-linecap="round" stroke-linejoin="round" stroke-width="1"/>
        <line id="Línea_3471" data-name="Línea 3471" x2="22.455" transform="translate(285.352 99.42)" fill="none" stroke="#fff" stroke-linecap="round" stroke-linejoin="round" stroke-width="1"/>
        <path id="Trazado_1259314" data-name="Trazado 1259314" d="M356.943,124.636l3.356,3.257,5.439-5.665" transform="translate(-45.398 -11.787)" fill="none" stroke="#fff" stroke-linecap="round" stroke-linejoin="round" stroke-width="1"/>
        <circle id="Elipse_13695" data-name="Elipse 13695" cx="2.74" cy="2.74" r="2.74" transform="translate(276.028 111.688)" fill="none" stroke="#fff" stroke-linecap="round" stroke-linejoin="round" stroke-width="1"/>
        <line id="Línea_3472" data-name="Línea 3472" x2="22.455" transform="translate(285.352 114.428)" fill="none" stroke="#fff" stroke-linecap="round" stroke-linejoin="round" stroke-width="1"/>
        <path id="Trazado_1259315" data-name="Trazado 1259315" d="M356.943,141.83l3.356,3.257,5.439-5.665" transform="translate(-45.398 -13.973)" fill="none" stroke="#fff" stroke-linecap="round" stroke-linejoin="round" stroke-width="1"/>
        <circle id="Elipse_13696" data-name="Elipse 13696" cx="2.74" cy="2.74" r="2.74" transform="translate(276.028 126.696)" fill="none" stroke="#fff" stroke-linecap="round" stroke-linejoin="round" stroke-width="1"/>
        <line id="Línea_3473" data-name="Línea 3473" x2="22.455" transform="translate(285.352 129.436)" fill="none" stroke="#fff" stroke-linecap="round" stroke-linejoin="round" stroke-width="1"/>
        <path id="Trazado_1259316" data-name="Trazado 1259316" d="M296.284,112.305a35.54,35.54,0,1,1-35.54-35.54,35.54,35.54,0,0,1,35.54,35.54" transform="translate(-28.643 -6.004)" fill="#302c9e"/>
        <path id="Trazado_1259317" data-name="Trazado 1259317" d="M290.142,113.353A28.349,28.349,0,1,1,261.793,85a28.349,28.349,0,0,1,28.349,28.349" transform="translate(-29.691 -7.052)" fill="#fff"/>
        <path id="Trazado_1259318" data-name="Trazado 1259318" d="M284,114.4a21.159,21.159,0,1,1-21.159-21.159A21.158,21.158,0,0,1,284,114.4" transform="translate(-30.739 -8.1)" fill="#302c9e"/>
        <path id="Trazado_1259319" data-name="Trazado 1259319" d="M277.857,115.449a13.968,13.968,0,1,1-13.969-13.969,13.968,13.968,0,0,1,13.969,13.969" transform="translate(-31.787 -9.148)" fill="#fff"/>
        <path id="Trazado_1259320" data-name="Trazado 1259320" d="M271.714,116.5a6.778,6.778,0,1,1-6.777-6.777,6.777,6.777,0,0,1,6.777,6.777" transform="translate(-32.834 -10.196)" fill="#302c9e"/>
        <path id="Trazado_1259321" data-name="Trazado 1259321" d="M219.932,116.489h-3.458l-2.758-6.826h3.458Z" transform="translate(-27.182 -10.188)" fill="#1b2536"/>
        <path id="Trazado_1259322" data-name="Trazado 1259322" d="M223.894,116.489h-3.458l-2.758-6.826h3.458Z" transform="translate(-27.686 -10.188)" fill="#415780"/>
        <path id="Trazado_1259323" data-name="Trazado 1259323" d="M227.855,116.489H224.4l-2.758-6.826H225.1Z" transform="translate(-28.19 -10.188)" fill="#1b2536"/>
        <path id="Trazado_1259324" data-name="Trazado 1259324" d="M231.817,116.489h-3.458l-2.758-6.826h3.458Z" transform="translate(-28.693 -10.188)" fill="#415780"/>
        <path id="Trazado_1259325" data-name="Trazado 1259325" d="M219.932,117.484h-3.458l-2.758,6.826h3.458Z" transform="translate(-27.182 -11.183)" fill="#1b2536"/>
        <path id="Trazado_1259326" data-name="Trazado 1259326" d="M223.894,117.484h-3.458l-2.758,6.826h3.458Z" transform="translate(-27.686 -11.183)" fill="#415780"/>
        <path id="Trazado_1259327" data-name="Trazado 1259327" d="M227.855,117.484H224.4l-2.758,6.826H225.1Z" transform="translate(-28.19 -11.183)" fill="#1b2536"/>
        <path id="Trazado_1259328" data-name="Trazado 1259328" d="M231.817,117.484h-3.458L225.6,124.31h3.458Z" transform="translate(-28.693 -11.183)" fill="#415780"/>
        <line id="Línea_3474" data-name="Línea 3474" x2="44.38" transform="translate(187.722 106.301)" fill="none" stroke="#1b2536" stroke-linecap="round" stroke-linejoin="round" stroke-width="0.918"/>
        <path id="Trazado_1259329" data-name="Trazado 1259329" d="M229.185,200.448l9.758-11.384.5-2.926a13.1,13.1,0,0,1,2.152-5.266l1.371-1.974a.611.611,0,0,1,1.1.491l-.876,3.665.592-.321a7.34,7.34,0,0,0,3.6-4.593,1.237,1.237,0,0,1,1.615-.852l1.351.485a1.428,1.428,0,0,1,.926,1.575l-.868,5.319,2.333-2.532.424.495-2.37,3.555a6.185,6.185,0,0,1-1.47,1.541l-4.787,3.53-7.779,17.253Z" transform="translate(-29.149 -18.78)" fill="#de6767"/>
        <path id="Trazado_1259330" data-name="Trazado 1259330" d="M251.19,186.244l-.981.663s-5.25-.477-7.08,4.348" transform="translate(-30.923 -19.929)" fill="none" stroke="#422424" stroke-miterlimit="10" stroke-width="0.5"/>
        <line id="Línea_3475" data-name="Línea 3475" x2="3.712" y2="2.625" transform="translate(215.574 164.354)" fill="none" stroke="#422424" stroke-miterlimit="10" stroke-width="0.5"/>
        <path id="Trazado_1259331" data-name="Trazado 1259331" d="M251.476,177.677s-.917,4.166-3.177,6.325" transform="translate(-31.58 -18.839)" fill="none" stroke="#422424" stroke-miterlimit="10" stroke-width="0.5"/>
        <path id="Trazado_1259332" data-name="Trazado 1259332" d="M252.781,178.163s-.505,4.738-2.772,6.956" transform="translate(-31.798 -18.901)" fill="none" stroke="#422424" stroke-miterlimit="10" stroke-width="0.5"/>
        <path id="Trazado_1259333" data-name="Trazado 1259333" d="M229.185,203.387l2.629-3.067,9.122,7.762L236.981,213Z" transform="translate(-29.149 -21.719)" fill="#fff"/>
        <path id="Trazado_1259334" data-name="Trazado 1259334" d="M204.356,189.676l13.008,18.781,7.106-7.636,10.182,8.379-11.667,17.818h-28l-2.865-46.876,1.957.9a25.472,25.472,0,0,1,10.279,8.631" transform="translate(-24.435 -19.152)" fill="#d9956a"/>
        <path id="Trazado_1259335" data-name="Trazado 1259335" d="M186.7,179.294l4.263,1.966a10.007,10.007,0,0,1,5.778,8.172,18.492,18.492,0,0,1,1.273,18.111l4.879,19.2H160.366l-1.092-28.928a18.388,18.388,0,0,1,9.151-16.6l2.639-1.529,10.566-1.733Z" transform="translate(-20.256 -18.874)" fill="#d9956a"/>
        <path id="Trazado_1259336" data-name="Trazado 1259336" d="M166.078,216.793l1.694-19.23-.037-16.345-4.934,2.86a15.964,15.964,0,0,0-7.223,9.029c-2.255,7.186-5.862,18.927-6.9,23.76-1.591,7.424,1.7,11.773,6.47,11.773h19.2v-9.722Z" transform="translate(-18.859 -19.289)" fill="#d9956a"/>
        <line id="Línea_3476" data-name="Línea 3476" x2="15.415" y2="3.96" transform="translate(140.075 195.669)" fill="none" stroke="#1b2536" stroke-miterlimit="10" stroke-width="0.5"/>
        <line id="Línea_3477" data-name="Línea 3477" x1="1.69" y2="20.927" transform="translate(147.22 176.578)" fill="none" stroke="#1b2536" stroke-miterlimit="10" stroke-width="0.5"/>
        <line id="Línea_3478" data-name="Línea 3478" x1="7.46" y2="8.199" transform="translate(185.47 189.305)" fill="none" stroke="#1b2536" stroke-miterlimit="10" stroke-width="0.5"/>
        <path id="Trazado_1259337" data-name="Trazado 1259337" d="M173.076,199.52a12.2,12.2,0,0,1-3.106,5.569" transform="translate(-21.618 -21.617)" fill="none" stroke="#1b2536" stroke-miterlimit="10" stroke-width="0.5"/>
        <path id="Trazado_1259338" data-name="Trazado 1259338" d="M167.2,152.895h-4.083c-2.387,0-3.925,2.493-3.553,4.879s3.288,5.621,3.288,7.955-3.66,4.4-3.66,9.7h10.448a5.75,5.75,0,0,1,1.007-3.606,6.122,6.122,0,0,0-.243-5.993c-1.189-1.962-.711-6.788-.711-6.788Z" transform="translate(-20.247 -15.687)" fill="#ebcc30"/>
        <path id="Trazado_1259339" data-name="Trazado 1259339" d="M171.171,165.834c-1.19-1.962-.711-6.788-.711-6.788l-2.493-6.152h-1.4a6.607,6.607,0,0,0-1.189,5.448c.79,4.183,4.688,7.131,6.089,8.07a6.366,6.366,0,0,0-.3-.579" transform="translate(-21.016 -15.687)" fill="#1b2536"/>
        <path id="Trazado_1259340" data-name="Trazado 1259340" d="M172.419,148.785c3.262-4.72,12.967-6.09,16.358-.71,2.337,3.706.337,8.335-2.243,9.083l-14.407,6.456s-5.25-3.054-6.152-7.829c-.767-4.06,1.856-7.531,6.443-7" transform="translate(-21.093 -14.632)" fill="#ebcc30"/>
        <path id="Trazado_1259341" data-name="Trazado 1259341" d="M172.785,162.092c4.618-2.51,4.468-8.485,4.468-8.485a24.187,24.187,0,0,0,9.9.671l.354,5.374c2.793,3.146,1.8,8.91-1.945,10.429l.743,4.667a14.032,14.032,0,0,1-11.1,0l-.813-9.989Z" transform="translate(-21.976 -15.778)" fill="#de6767"/>
        <path id="Trazado_1259342" data-name="Trazado 1259342" d="M181.156,164.8a1.5,1.5,0,1,1-1.5-1.5,1.5,1.5,0,0,1,1.5,1.5" transform="translate(-22.658 -17.009)" fill="#d15454"/>
        <path id="Trazado_1259343" data-name="Trazado 1259343" d="M185.819,172.658a10.083,10.083,0,0,1-7.672-.46" transform="translate(-22.658 -18.142)" fill="none" stroke="#422424" stroke-miterlimit="10" stroke-width="0.5"/>
        <path id="Trazado_1259344" data-name="Trazado 1259344" d="M180.155,159.13a1.068,1.068,0,0,0-.98,1.151,1.054,1.054,0,0,0,.108.388l.809-.387-.509.752a1.068,1.068,0,1,0,.572-1.905" transform="translate(-22.788 -16.48)" fill="#1b2536"/>
        <path id="Trazado_1259345" data-name="Trazado 1259345" d="M186.958,158.583a1.069,1.069,0,0,0-.98,1.151,1.055,1.055,0,0,0,.108.388l.809-.387-.509.752a1.068,1.068,0,1,0,.572-1.905" transform="translate(-23.653 -16.41)" fill="#1b2536"/>
        <path id="Trazado_1259346" data-name="Trazado 1259346" d="M184.041,158.9l.3,1.264a2.4,2.4,0,0,0,.759,1.258l.3.263a.671.671,0,0,1-.307,1.164l-1.053.215" transform="translate(-23.408 -16.451)" fill="none" stroke="#422424" stroke-miterlimit="10" stroke-width="0.5"/>
        <path id="Trazado_1259347" data-name="Trazado 1259347" d="M180.947,165.029l5.228-.567s.23,4.852-1.971,4.975c-1.758.1-3.257-4.408-3.257-4.408" transform="translate(-23.014 -17.158)" fill="#422424"/>
        <path id="Trazado_1259348" data-name="Trazado 1259348" d="M183.691,166.528a4.623,4.623,0,0,0-1.968.422c.6,1.274,1.545,2.81,2.58,2.751,1.088-.061,1.581-1.279,1.8-2.494a4.4,4.4,0,0,0-2.413-.679" transform="translate(-23.113 -17.421)" fill="#943232"/>
        <path id="Trazado_1259349" data-name="Trazado 1259349" d="M178.451,157.385a6.1,6.1,0,0,1,3.076,0" transform="translate(-22.697 -16.233)" fill="none" stroke="#415780" stroke-linecap="round" stroke-linejoin="round" stroke-width="0.864"/>
        <path id="Trazado_1259350" data-name="Trazado 1259350" d="M185.134,157.362a3.669,3.669,0,0,1,2.7-.194" transform="translate(-23.547 -16.21)" fill="none" stroke="#415780" stroke-linecap="round" stroke-linejoin="round" stroke-width="0.864"/>
        <path id="Trazado_1259351" data-name="Trazado 1259351" d="M176.164,164.26A3.261,3.261,0,1,1,172.9,161a3.262,3.262,0,0,1,3.262,3.262" transform="translate(-21.576 -16.718)" fill="#de6767"/>
        <path id="Trazado_1259352" data-name="Trazado 1259352" d="M171.61,163.306c1.167-.672,2.864-.848,3.712,1.838" transform="translate(-21.826 -16.957)" fill="none" stroke="#422424" stroke-miterlimit="10" stroke-width="0.5"/>
        <line id="Línea_3479" data-name="Línea 3479" y1="1.413" x2="1.242" transform="translate(150.809 146.129)" fill="none" stroke="#422424" stroke-miterlimit="10" stroke-width="0.5"/>
        <path id="Trazado_1259353" data-name="Trazado 1259353" d="M175.093,176.287s5.576,2.619,11,0l2.336,2.8-3.133,4.711-2.707-5.136-1.157,5.891-8.643-5.077Z" transform="translate(-21.976 -18.662)" fill="#1b2536"/>
        <path id="Trazado_1259354" data-name="Trazado 1259354" d="M203.2,192.743a19.144,19.144,0,0,1,.408,16.68l3.9,15.362" transform="translate(-25.844 -20.755)" fill="none" stroke="#1b2536" stroke-miterlimit="10" stroke-width="0.5"/>
        <path id="Trazado_1259355" data-name="Trazado 1259355" d="M181.884,225.424l11.278,2.157,7.416-1.375a5.906,5.906,0,0,1,3.371.366l7.915,3.342v2.864H179.727Z" transform="translate(-22.859 -24.912)" fill="#de6767"/>
        <path id="Trazado_1259356" data-name="Trazado 1259356" d="M178.147,224.411l3.536.884v8.838h-3.536Z" transform="translate(-22.658 -24.783)" fill="#fff"/>
        <path id="Trazado_1259357" data-name="Trazado 1259357" d="M236.772,200.684H234.48l-8.722,27.435h35.8l8.722-27.435Z" transform="translate(-28.713 -21.765)" fill="#fff"/>
        <path id="Trazado_1259358" data-name="Trazado 1259358" d="M254.533,219.541h-8.52a2.273,2.273,0,0,1-2.2-3.219l.291-.916a4.8,4.8,0,0,1,4.243-3.219h8.52a2.273,2.273,0,0,1,2.2,3.219l-.291.916A4.8,4.8,0,0,1,254.533,219.541Z" transform="translate(-30.99 -23.228)" fill="none" stroke="#6e9296" stroke-miterlimit="10" stroke-width="0.397"/>
        <line id="Línea_3480" data-name="Línea 3480" x1="7.789" y2="24.501" transform="translate(198.989 180.368)" fill="none" stroke="#6e9296" stroke-miterlimit="10" stroke-width="0.397"/>
        <rect id="Rectángulo_455653" data-name="Rectángulo 455653" width="52.961" height="1.485" transform="translate(171.99 204.869)" fill="#fff"/>
        <rect id="Rectángulo_455654" data-name="Rectángulo 455654" width="188.557" height="6.788" transform="translate(80.207 206.354)" fill="#6e9296"/>
        <rect id="Rectángulo_455655" data-name="Rectángulo 455655" width="175.581" height="84.268" transform="translate(86.696 213.142)" fill="#6e9296"/>
        <path id="Trazado_1259359" data-name="Trazado 1259359" d="M274.91,239.894H99.329v22.061L274.91,246.947Z" transform="translate(-12.633 -26.752)" fill="#1b2536"/>
        <path id="Trazado_1259360" data-name="Trazado 1259360" d="M289.631,257.908H224.226a9.156,9.156,0,0,0-9.156,9.157v40.793a9.156,9.156,0,0,0,9.156,9.157h65.405Z" transform="translate(-27.354 -29.043)" fill="#1b2536"/>
        <line id="Línea_3481" data-name="Línea 3481" y2="13.135" transform="translate(125.188 120.892)" fill="none" stroke="#fff" stroke-miterlimit="10" stroke-width="2"/>
        <line id="Línea_3482" data-name="Línea 3482" x1="13.135" transform="translate(118.621 127.459)" fill="none" stroke="#fff" stroke-miterlimit="10" stroke-width="2"/>
        <line id="Línea_3483" data-name="Línea 3483" y2="13.135" transform="translate(266.663 178.361)" fill="none" stroke="#fff" stroke-miterlimit="10" stroke-width="2"/>
        <line id="Línea_3484" data-name="Línea 3484" x1="13.135" transform="translate(260.096 184.928)" fill="none" stroke="#fff" stroke-miterlimit="10" stroke-width="2"/>
        <line id="Línea_3485" data-name="Línea 3485" y2="13.135" transform="translate(373.331 266.322)" fill="none" stroke="#fff" stroke-miterlimit="10" stroke-width="2"/>
        <line id="Línea_3486" data-name="Línea 3486" x1="13.135" transform="translate(366.764 272.889)" fill="none" stroke="#fff" stroke-miterlimit="10" stroke-width="2"/>
        <line id="Línea_3487" data-name="Línea 3487" y2="13.135" transform="translate(43.379 246.623)" fill="none" stroke="#dde9eb" stroke-miterlimit="10" stroke-width="2"/>
        <line id="Línea_3488" data-name="Línea 3488" x1="13.135" transform="translate(36.812 253.19)" fill="none" stroke="#dde9eb" stroke-miterlimit="10" stroke-width="2"/>
        <path id="Trazado_1259361" data-name="Trazado 1259361" d="M310.214,311.231H230.186a9.157,9.157,0,0,1-9.157-9.157V257.6a9.156,9.156,0,0,1,9.157-9.156h80.028a9.155,9.155,0,0,1,9.156,9.156v44.477a9.156,9.156,0,0,1-9.156,9.157" transform="translate(-28.112 -27.839)" fill="#fff"/>
        <path id="Trazado_1259362" data-name="Trazado 1259362" d="M276.482,281.155a22.344,22.344,0,1,1-22.344-22.344,22.344,22.344,0,0,1,22.344,22.344" transform="translate(-29.481 -29.158)" fill="#c1fbff"/>
        <path id="Trazado_1259363" data-name="Trazado 1259363" d="M277.2,270.807a22.336,22.336,0,0,0-19.8-12v22.344Z" transform="translate(-32.737 -29.158)" fill="#302c9e"/>
        <path id="Trazado_1259364" data-name="Trazado 1259364" d="M265.168,303.856a22.346,22.346,0,0,0,12.028-31.3l-19.8,10.348Z" transform="translate(-32.737 -30.906)" fill="#5dd2e4"/>
        <path id="Trazado_1259365" data-name="Trazado 1259365" d="M256.239,306.755a22.287,22.287,0,0,0,7.774-1.392l-7.774-20.952L248.312,305.3a22.279,22.279,0,0,0,7.927,1.452" transform="translate(-31.582 -32.414)" fill="#415780"/>
        <path id="Trazado_1259366" data-name="Trazado 1259366" d="M254.138,283.445,232.8,276.813a22.367,22.367,0,0,0,13.416,27.523Z" transform="translate(-29.481 -31.448)" fill="#4a75c9"/>
        <rect id="Rectángulo_455656" data-name="Rectángulo 455656" width="3.435" height="3.435" transform="translate(252.693 235.085)" fill="#302c9e"/>
        <rect id="Rectángulo_455657" data-name="Rectángulo 455657" width="18.504" height="0.937" transform="translate(257.411 235.086)" fill="#bedce0"/>
        <rect id="Rectángulo_455658" data-name="Rectángulo 455658" width="22.304" height="0.937" transform="translate(257.412 237.584)" fill="#bedce0"/>
        <rect id="Rectángulo_455659" data-name="Rectángulo 455659" width="3.435" height="3.435" transform="translate(252.693 242.682)" fill="#6e9296"/>
        <rect id="Rectángulo_455660" data-name="Rectángulo 455660" width="18.504" height="0.937" transform="translate(257.411 242.683)" fill="#bedce0"/>
        <rect id="Rectángulo_455661" data-name="Rectángulo 455661" width="22.304" height="0.937" transform="translate(257.412 245.181)" fill="#bedce0"/>
        <rect id="Rectángulo_455662" data-name="Rectángulo 455662" width="3.435" height="3.435" transform="translate(252.693 250.279)" fill="#415780"/>
        <rect id="Rectángulo_455663" data-name="Rectángulo 455663" width="18.504" height="0.937" transform="translate(257.411 250.28)" fill="#bedce0"/>
        <rect id="Rectángulo_455664" data-name="Rectángulo 455664" width="22.304" height="0.937" transform="translate(257.412 252.778)" fill="#bedce0"/>
        <rect id="Rectángulo_455665" data-name="Rectángulo 455665" width="3.435" height="3.435" transform="translate(252.693 257.876)" fill="#4a75c9"/>
        <rect id="Rectángulo_455666" data-name="Rectángulo 455666" width="18.504" height="0.937" transform="translate(257.411 257.877)" fill="#bedce0"/>
        <rect id="Rectángulo_455667" data-name="Rectángulo 455667" width="22.304" height="0.937" transform="translate(257.412 260.375)" fill="#bedce0"/>
        <rect id="Rectángulo_455668" data-name="Rectángulo 455668" width="3.435" height="3.435" transform="translate(252.693 265.473)" fill="#bedce0"/>
        <rect id="Rectángulo_455669" data-name="Rectángulo 455669" width="18.504" height="0.937" transform="translate(257.411 265.474)" fill="#bedce0"/>
        <rect id="Rectángulo_455670" data-name="Rectángulo 455670" width="22.304" height="0.937" transform="translate(257.412 267.972)" fill="#bedce0"/>
        <path id="Trazado_1259367" data-name="Trazado 1259367" d="M192.357,97.687a14.489,14.489,0,0,0-28.606,0c-.724,5.236.639,8.259,3.235,12.515A36.385,36.385,0,0,1,170.9,121.27h14.3a36.386,36.386,0,0,1,3.916-11.068c2.6-4.257,3.959-7.279,3.236-12.515" transform="translate(-20.802 -7.117)" fill="#feea89"/>
        <path id="Trazado_1259368" data-name="Trazado 1259368" d="M179.069,126.111a61.637,61.637,0,0,1-7.536-.375l1.43,9.844c.042.3,2.776.534,6.106.534s6.063-.237,6.105-.534l1.429-9.844a61.615,61.615,0,0,1-7.534.375" transform="translate(-21.817 -12.233)" fill="#1b2536"/>
        <path id="Trazado_1259369" data-name="Trazado 1259369" d="M183.493,135.976c0,1.534-1.743,2.777-3.895,2.777s-3.894-1.243-3.894-2.777,1.743-2.777,3.894-2.777,3.895,1.243,3.895,2.777" transform="translate(-22.347 -13.182)" fill="#1b2536"/>
        <path id="Trazado_1259370" data-name="Trazado 1259370" d="M183.269,110.559l.668-4.576h-.007q.046-.266.086-.546c.495-3.4.271-6.744-.608-6.744-.546,0-1.132,1.364-1.541,3.264-.145-1.9-.542-3.264-1.088-3.264s-1.038,1.364-1.314,3.264c-.276-1.9-.768-3.264-1.314-3.264s-.943,1.364-1.088,3.264c-.408-1.9-1-3.264-1.541-3.264-.879,0-1.1,3.348-.608,6.744q.041.28.086.546l.662,4.576" transform="translate(-22.214 -8.793)" fill="none" stroke="#fff" stroke-linecap="round" stroke-linejoin="round" stroke-width="0.605"/>
        <path id="Trazado_1259444" data-name="Trazado 1259444" d="M0,0" transform="translate(0 297.41)" fill="none" stroke="#28364f" stroke-width="1.252"/>
        <path id="Trazado_1259371" data-name="Trazado 1259371" d="M455.064,108.8H429.587a5.611,5.611,0,0,0-5.61,5.61V126l-10.411,9.774h10.411v4.1a5.611,5.611,0,0,0,5.61,5.611h25.477a5.611,5.611,0,0,0,5.61-5.611V114.405a5.611,5.611,0,0,0-5.61-5.61" transform="translate(-52.6 -10.078)" fill="#ebcc30"/>
        <path id="Trazado_1259372" data-name="Trazado 1259372" d="M453.043,131.947a4.868,4.868,0,0,1-1.766,3.924,8.777,8.777,0,0,1-4.945,1.774v3.148h-2.1v-3.086a17.087,17.087,0,0,1-6.573-1.321v-4.054a17.733,17.733,0,0,0,3.218,1.167,17.191,17.191,0,0,0,3.355.6v-4.76l-1.029-.4a11.485,11.485,0,0,1-4.307-2.6,5,5,0,0,1-1.267-3.479,4.537,4.537,0,0,1,1.743-3.662,8.856,8.856,0,0,1,4.861-1.743V115.1h2.1v2.289a17.435,17.435,0,0,1,6.358,1.413l-1.444,3.593a16.615,16.615,0,0,0-4.915-1.2v4.531a23.674,23.674,0,0,1,4.262,2,5.831,5.831,0,0,1,1.858,1.858,4.615,4.615,0,0,1,.591,2.365m-10.8-9.092a1.457,1.457,0,0,0,.469,1.114,5.582,5.582,0,0,0,1.513.9v-3.609q-1.981.292-1.981,1.6m6.174,9.323a1.379,1.379,0,0,0-.522-1.09,6.832,6.832,0,0,0-1.567-.922v3.824q2.088-.352,2.089-1.812" transform="translate(-55.66 -10.88)" fill="#fff"/>
        <path id="Trazado_1259373" data-name="Trazado 1259373" d="M358.742,279.653l6.434,31.959-3.733,10.941a4.765,4.765,0,0,1-1.185,1.877l-3.343,3.261a.891.891,0,0,0,.622,1.528H359.1a8.021,8.021,0,0,0,5.922-2.611l6.594-7.217v9.828h2.122l1.07-7.062a19.742,19.742,0,0,0-2.513-12.983l-.4-.672.424-28.848Z" transform="translate(-45.36 -31.809)" fill="#d68d8d"/>
        <path id="Trazado_1259374" data-name="Trazado 1259374" d="M386.8,279.653l6.894,30.438-.57,1.837a19.752,19.752,0,0,0-.511,9.679l1.506,7.611h2.333l.636-8.266,5.4,5.741a8.021,8.021,0,0,0,5.842,2.524H411.3a.891.891,0,0,0,.557-1.587L408.563,325a4.785,4.785,0,0,1-1.347-1.71L400.9,309.774l-.583-30.121Z" transform="translate(-49.195 -31.809)" fill="#d68d8d"/>
        <path id="Trazado_1259375" data-name="Trazado 1259375" d="M359.814,283.454,372.546,285l.079-5.347H359.048Z" transform="translate(-45.666 -31.809)" fill="#28364f"/>
        <path id="Trazado_1259376" data-name="Trazado 1259376" d="M400.318,279.653H386.795l1.548,6.834,12.136,1.472Z" transform="translate(-49.195 -31.809)" fill="#28364f"/>
        <path id="Trazado_1259377" data-name="Trazado 1259377" d="M390.426,108.148a5.383,5.383,0,1,1-5.383-5.383,5.383,5.383,0,0,1,5.383,5.383" transform="translate(-48.288 -9.311)" fill="#1b2536"/>
        <path id="Trazado_1259378" data-name="Trazado 1259378" d="M376.46,119.729s5-1.158,6.68-4.73c1.5-3.189-.9-3.915-.9-3.915s3.311-5.3-1.845-6.788c.678-3.5-1.973-7-5.951-5.144-2.333-4.667-8.75-2.652-8.962-.052-3.66-2.493-8.273,5.25-5.091,7.477-1.8,2.652,1.114,5.409,5.674,4.507Z" transform="translate(-45.701 -8.496)" fill="#415780"/>
        <path id="Trazado_1259379" data-name="Trazado 1259379" d="M367.145,130.838l9.955-1.02,7.725,41.683H354.35Z" transform="translate(-45.068 -12.752)" fill="#fff"/>
        <path id="Trazado_1259380" data-name="Trazado 1259380" d="M400.4,143.914l11.508,22.539.226,10.093-.875.1a10.708,10.708,0,0,1-10.3-4.93l-9.36-14.865Z" transform="translate(-49.806 -14.545)" fill="#d68d8d"/>
        <path id="Trazado_1259381" data-name="Trazado 1259381" d="M405.532,154.168l-9.5,10.136,12.769-3.771Z" transform="translate(-50.37 -15.849)" fill="#422424"/>
        <path id="Trazado_1259382" data-name="Trazado 1259382" d="M345.444,144.2l-10.677,20.294h-26.94l-1.409-1.158a7.72,7.72,0,0,0-4.054-1.712l-2.214-.246a.537.537,0,0,0-.6.534.884.884,0,0,0,.469.78l3.385,1.8-3.92.617a3.592,3.592,0,0,1-1.14,0l-1.811-.3a.934.934,0,0,0-1.084.922v2.305a.933.933,0,0,0,.754.916l5.044.985-1.273.617a2.345,2.345,0,0,1-1.008.234l-2.361.011s3.935,2.743,9.945-.438l25.22,6.3a13.072,13.072,0,0,0,14.086-5.493l8.635-13.111Z" transform="translate(-37.578 -14.581)" fill="#d68d8d"/>
        <path id="Trazado_1259383" data-name="Trazado 1259383" d="M351.744,172.716,353.41,153.7,343.626,178a13.053,13.053,0,0,0,8.118-5.281" transform="translate(-43.705 -15.789)" fill="#28364f"/>
        <path id="Trazado_1259384" data-name="Trazado 1259384" d="M373.733,333.871l1.07-7.062a19.729,19.729,0,0,0-1.324-10.573l-5.367,6.834-4.733-1.534-1.934,5.67a4.785,4.785,0,0,1-1.185,1.877l-3.344,3.261a.891.891,0,0,0,.622,1.528H359.1a8.023,8.023,0,0,0,5.922-2.611l6.595-7.218v9.829Z" transform="translate(-45.361 -36.462)" fill="#1b2536"/>
        <path id="Trazado_1259385" data-name="Trazado 1259385" d="M409.121,333.868h2.971a.891.891,0,0,0,.556-1.587l-3.292-2.63a4.783,4.783,0,0,1-1.346-1.71l-3.109-6.655-5.489,1.781-5.385-6.856-.113.367a19.738,19.738,0,0,0-.512,9.678l1.506,7.612h2.333l.636-8.266,5.4,5.742a8.024,8.024,0,0,0,5.842,2.524" transform="translate(-49.988 -36.459)" fill="#1b2536"/>
        <path id="Trazado_1259386" data-name="Trazado 1259386" d="M353.42,177.575H383.9l5.529,11.616a62.472,62.472,0,0,1,6.047,28.417l-.429,17.15A84.553,84.553,0,0,0,396,249.7l2.889,18.8H356.532l-8.6-50.15a62.484,62.484,0,0,1,1.827-28.8Z" transform="translate(-44.138 -18.826)" fill="#415780"/>
        <path id="Trazado_1259387" data-name="Trazado 1259387" d="M394.068,201.919a62.479,62.479,0,0,0-4.442-12.727L384.1,177.575H353.621l-3.658,11.978q-.78,2.554-1.335,5.157c5.781-.381,28.477-1.236,45.44,7.209" transform="translate(-44.341 -18.826)" fill="#1b2536"/>
        <line id="Línea_3490" data-name="Línea 3490" x2="25.951" transform="translate(311.542 162.002)" fill="none" stroke="#28364f" stroke-miterlimit="10" stroke-width="0.37"/>
        <path id="Trazado_1259388" data-name="Trazado 1259388" d="M365.181,111.266v4.455s-3.146,6.7,3.681,7.957l-.5,5.089,2.509,16.982,7.513-18.944-.477-8.945.212-3.835s-5.515-3.182-6.417-7.9a17.366,17.366,0,0,1-6.523,5.144" transform="translate(-46.354 -9.738)" fill="#d68d8d"/>
        <path id="Trazado_1259389" data-name="Trazado 1259389" d="M382.869,114.37a3.106,3.106,0,1,1-3.969.8,2.878,2.878,0,0,1,3.969-.8" transform="translate(-48.098 -10.724)" fill="#d68d8d"/>
        <path id="Trazado_1259390" data-name="Trazado 1259390" d="M368.353,114.946l.745.154a1,1,0,0,0,.016-.154,1.063,1.063,0,1,0-.137.507Z" transform="translate(-46.68 -10.727)" fill="#1b2536"/>
        <path id="Trazado_1259391" data-name="Trazado 1259391" d="M374.308,114.946l.745.154a.994.994,0,0,0,.016-.154,1.062,1.062,0,1,0-.137.507Z" transform="translate(-47.437 -10.727)" fill="#1b2536"/>
        <path id="Trazado_1259392" data-name="Trazado 1259392" d="M372.355,112.5a4.583,4.583,0,0,1,2.864,0" transform="translate(-47.359 -10.52)" fill="none" stroke="#415780" stroke-miterlimit="10" stroke-width="0.75"/>
        <path id="Trazado_1259393" data-name="Trazado 1259393" d="M368.916,112.5a3.377,3.377,0,0,0-2.334,0" transform="translate(-46.624 -10.523)" fill="none" stroke="#415780" stroke-miterlimit="10" stroke-width="0.75"/>
        <path id="Trazado_1259394" data-name="Trazado 1259394" d="M369.935,126.076s4.03.662,6.416-2.121" transform="translate(-47.051 -12.006)" fill="none" stroke="#422424" stroke-miterlimit="10" stroke-width="0.5"/>
        <path id="Trazado_1259395" data-name="Trazado 1259395" d="M379.661,117.98c.128-2.333,2.285-3.73,3.328-1.812" transform="translate(-48.288 -10.901)" fill="none" stroke="#422424" stroke-miterlimit="10" stroke-width="0.5"/>
        <line id="Línea_3491" data-name="Línea 3491" x1="0.621" y1="1.79" transform="translate(332.825 104.511)" fill="none" stroke="#422424" stroke-miterlimit="10" stroke-width="0.5"/>
        <path id="Trazado_1259396" data-name="Trazado 1259396" d="M370.424,113.079l.258,2.643a1.086,1.086,0,0,1-.409.953c-.345.275-.736.677-.643,1.026.159.6,1.564.548,1.564.548" transform="translate(-47.01 -10.623)" fill="none" stroke="#422424" stroke-miterlimit="10" stroke-width="0.5"/>
        <path id="Trazado_1259397" data-name="Trazado 1259397" d="M369.175,120.322a4.535,4.535,0,0,0,4.481-.955" transform="translate(-46.954 -11.423)" fill="none" stroke="#422424" stroke-miterlimit="10" stroke-width="0.5"/>
        <line id="Línea_3492" data-name="Línea 3492" x2="0.672" y2="0.795" transform="translate(326.34 107.538)" fill="none" stroke="#422424" stroke-miterlimit="10" stroke-width="0.5"/>
        <line id="Línea_3493" data-name="Línea 3493" x1="2.943" y2="4.19" transform="translate(326.702 116.271)" fill="none" stroke="#422424" stroke-miterlimit="10" stroke-width="0.5"/>
        <path id="Trazado_1259398" data-name="Trazado 1259398" d="M379.814,129.818,375.7,180.384a5.322,5.322,0,0,0,5.3,5.754H398.5l-6.082-25.244,8.061-19.939Z" transform="translate(-47.782 -12.752)" fill="#415780"/>
        <line id="Línea_3494" data-name="Línea 3494" x1="3.677" y1="15.344" transform="translate(340.959 132.799)" fill="none" stroke="#000" stroke-miterlimit="10" stroke-width="0.37"/>
        <path id="Trazado_1259399" data-name="Trazado 1259399" d="M365.94,130.987,362.281,181.9a4.722,4.722,0,0,1-4.711,4.384h-12.7l8.7-36.168-4.136-9.97Z" transform="translate(-43.863 -12.901)" fill="#415780"/>
        <line id="Línea_3495" data-name="Línea 3495" x1="2.687" y2="10.854" transform="translate(309.705 126.364)" fill="none" stroke="#000" stroke-miterlimit="10" stroke-width="0.37"/>
        <path id="Trazado_1259400" data-name="Trazado 1259400" d="M380.919,131.307l2.381,3.757a6.091,6.091,0,0,1,.656,5.113l-2.386,7.472L383.092,150a6.091,6.091,0,0,1,.525,5.617l-5.937,14.519" transform="translate(-48.036 -12.941)" fill="none" stroke="#28364f" stroke-miterlimit="10" stroke-width="0.37"/>
        <path id="Trazado_1259401" data-name="Trazado 1259401" d="M367.271,132.046l-2.493,3.864a7.546,7.546,0,0,0-1,5.85l1.369,5.7-2.17,2.259a7.542,7.542,0,0,0-1.821,7.272l3.212,11.4" transform="translate(-45.899 -13.035)" fill="none" stroke="#28364f" stroke-miterlimit="10" stroke-width="0.37"/>
        <path id="Trazado_1259402" data-name="Trazado 1259402" d="M295.453,169.352l3.853.6,2.637-.2" transform="translate(-37.578 -17.78)" fill="none" stroke="#422424" stroke-miterlimit="10" stroke-width="0.407"/>
        <path id="Trazado_1259403" data-name="Trazado 1259403" d="M295.453,170.72l3.819.821,2.323.153" transform="translate(-37.578 -17.954)" fill="none" stroke="#422424" stroke-miterlimit="10" stroke-width="0.407"/>
        <line id="Línea_3496" data-name="Línea 3496" x1="0.66" y2="3.349" transform="translate(263.871 151.137)" fill="none" stroke="#422424" stroke-miterlimit="10" stroke-width="0.407"/>
        <path id="Trazado_1259404" data-name="Trazado 1259404" d="M420.387,169.653,397.7,177.141,392.793,165.6l25.655-9.477Z" transform="translate(-49.958 -16.097)" fill="#ebcc30"/>
        <path id="Trazado_1259405" data-name="Trazado 1259405" d="M402.673,176.722l3.9-9.284s-1.874-2.787-2.021-4.972L411.2,166.5l-1.831,8.1Z" transform="translate(-51.215 -16.904)" fill="#1b2536"/>
        <path id="Trazado_1259406" data-name="Trazado 1259406" d="M408.35,165.912l-1.419,5.2a5.943,5.943,0,0,0,4.178,7.3,4.839,4.839,0,0,0,4.417-1,6.156,6.156,0,0,0,1.915-6.326L415.6,164.5l.674-5.242a.894.894,0,0,0-1.749-.347l-.657,2.442-.913-2.271a1.489,1.489,0,0,0-1.89-.843l-5.3,1.928a1.481,1.481,0,0,0-.94,1.751,5.735,5.735,0,0,0,3.529,4" transform="translate(-51.482 -16.355)" fill="#d68d8d"/>
        <line id="Línea_3497" data-name="Línea 3497" x2="1.406" y2="2.677" transform="translate(358.578 142.247)" fill="none" stroke="#422424" stroke-miterlimit="10" stroke-width="0.407"/>
        <line id="Línea_3498" data-name="Línea 3498" x2="1.547" y2="2.957" transform="translate(356.656 142.95)" fill="none" stroke="#422424" stroke-miterlimit="10" stroke-width="0.407"/>
        <line id="Línea_3499" data-name="Línea 3499" x2="1.575" y2="3.014" transform="translate(354.747 143.609)" fill="none" stroke="#422424" stroke-miterlimit="10" stroke-width="0.407"/>
        <line id="Línea_3500" data-name="Línea 3500" x2="39.756" transform="translate(313.261 246.35)" fill="none" stroke="#fff" stroke-miterlimit="10" stroke-width="0.389"/>
        <path id="Trazado_1259407" data-name="Trazado 1259407" d="M123.482,136.861l9.434,31.938a14.332,14.332,0,0,1-1.613,11.69l-7.159,11.383-7.106-23.759-2.4-39.349,1.585.539a11.39,11.39,0,0,1,7.256,7.557" transform="translate(-14.581 -12.618)" fill="#415780"/>
        <path id="Trazado_1259408" data-name="Trazado 1259408" d="M126.959,191.7l-5.926-21.847.777-17.4Z" transform="translate(-15.394 -15.631)" fill="#1b2536"/>
        <path id="Trazado_1259409" data-name="Trazado 1259409" d="M153.837,314.932l1.132,3.043a7.394,7.394,0,0,0,4.684,4.468l7.36,2.347a10.454,10.454,0,0,1,5.871,4.718l2.219,3.826H143.538a1.413,1.413,0,0,1-1.342-1.854l2.277-6.933a6.878,6.878,0,0,0,.065-4.085l-1.624-5.531Z" transform="translate(-18.076 -36.296)" fill="#cf7f4c"/>
        <path id="Trazado_1259410" data-name="Trazado 1259410" d="M175.1,334.328l-2.218-3.826a10.459,10.459,0,0,0-5.871-4.718l-7.361-2.347a7.385,7.385,0,0,1-1.536-.691l-.705,1.411a5.074,5.074,0,0,1-5.492,2.714L144.5,325.45c-.01.031-.012.062-.023.092l-2.276,6.933a1.413,1.413,0,0,0,1.342,1.854Z" transform="translate(-18.076 -37.29)"/>
        <path id="Trazado_1259411" data-name="Trazado 1259411" d="M95.742,314.932v6.819l2.9,11.954H82.848l2.428-11.954-.424-6.819Z" transform="translate(-10.537 -36.296)" fill="#cf7f4c"/>
        <path id="Trazado_1259412" data-name="Trazado 1259412" d="M90.61,322.745h0a6.526,6.526,0,0,0-6.4,5.226L82.849,334.7H98.641l-1.689-6.967a6.526,6.526,0,0,0-6.342-4.987" transform="translate(-10.537 -37.29)"/>
        <path id="Trazado_1259413" data-name="Trazado 1259413" d="M117.742,191.064l30.341,109.175h-15.17l-36.023-87.4v87.4H80.713L71.858,191.064l29.557-14.177Z" transform="translate(-9.139 -18.738)" fill="#415780"/>
        <path id="Trazado_1259414" data-name="Trazado 1259414" d="M117.742,191.064l-16.327-14.177L71.858,191.064l.45,5.54,48.937,7.063Z" transform="translate(-9.139 -18.738)" fill="#1b2536"/>
        <line id="Línea_3501" data-name="Línea 3501" y1="35.265" x2="1.031" transform="translate(87.75 158.839)" fill="none" stroke="#000" stroke-miterlimit="10" stroke-width="0.37"/>
        <path id="Trazado_1259415" data-name="Trazado 1259415" d="M106.806,181.626l-.728,12.946a8.831,8.831,0,0,1-3.416,6.49l-1.756,1.357" transform="translate(-12.834 -19.341)" fill="none" stroke="#000" stroke-miterlimit="10" stroke-width="0.37"/>
        <line id="Línea_3502" data-name="Línea 3502" x2="19.091" y2="2.757" transform="translate(79.76 183.709)" fill="none" stroke="#000" stroke-miterlimit="10" stroke-width="0.37"/>
        <line id="Línea_3503" data-name="Línea 3503" x2="13.758" transform="translate(72.311 276.963)" fill="none" stroke="#000" stroke-miterlimit="10" stroke-width="0.37"/>
        <line id="Línea_3504" data-name="Línea 3504" x2="13.758" transform="translate(123.21 276.963)" fill="none" stroke="#000" stroke-miterlimit="10" stroke-width="0.37"/>
        <line id="Línea_3505" data-name="Línea 3505" x2="34.775" y2="91.444" transform="translate(92.29 185.519)" fill="none" stroke="#000" stroke-miterlimit="10" stroke-width="0.37"/>
        <line id="Línea_3506" data-name="Línea 3506" x2="7.212" y2="104.282" transform="translate(68.941 172.681)" fill="none" stroke="#000" stroke-miterlimit="10" stroke-width="0.37"/>
        <path id="Trazado_1259416" data-name="Trazado 1259416" d="M93.669,183.113l3.644-8.32,1.42,7.89a11.091,11.091,0,0,0,10.046,9.092l9.287.73-7.106-26.2,1.316-29.473a8.222,8.222,0,0,0-5.566-8.151l-12.084-4.112H83.49L72.19,127.5a23.99,23.99,0,0,0-14.037,10.06L44.421,158.487a15.8,15.8,0,0,0-.294,16.866,5.561,5.561,0,0,0,7.656,1.857l9.256-5.67,12.056-13-7.637,29.83,17.183,1.351a11.091,11.091,0,0,0,11.028-6.607" transform="translate(-5.32 -12.085)" fill="#415780"/>
        <line id="Línea_3507" data-name="Línea 3507" x2="7" transform="translate(107.442 154.754)" fill="none" stroke="#000" stroke-miterlimit="10" stroke-width="0.432"/>
        <line id="Línea_3508" data-name="Línea 3508" x2="5.84" y2="2.227" transform="translate(108.602 155.921)" fill="none" stroke="#000" stroke-miterlimit="10" stroke-width="0.432"/>
        <path id="Trazado_1259417" data-name="Trazado 1259417" d="M122.288,140.181l-1.255,28.112,5.3,19.55" transform="translate(-15.394 -14.07)" fill="none" stroke="#000" stroke-miterlimit="10" stroke-width="0.37"/>
        <path id="Trazado_1259418" data-name="Trazado 1259418" d="M103.534,169.474l2.191,7.439a3.7,3.7,0,0,1-.1,2.377l-.468,1.215" transform="translate(-13.168 -17.796)" fill="none" stroke="#1b2536" stroke-miterlimit="10" stroke-width="0.432"/>
        <circle id="Elipse_13697" data-name="Elipse 13697" cx="1.06" cy="1.06" r="1.06" transform="translate(88.064 160.466) rotate(-79.099)" fill="none" stroke="#fff" stroke-miterlimit="10" stroke-width="0.432"/>
        <line id="Línea_3509" data-name="Línea 3509" x2="5.466" y2="16.015" transform="translate(60.456 123.253)" fill="none" stroke="#000" stroke-miterlimit="10" stroke-width="0.428"/>
        <rect id="Rectángulo_455671" data-name="Rectángulo 455671" width="23.694" height="30.546" transform="translate(50.289 136.752) rotate(-15.192)" fill="#ebcc30"/>
        <path id="Trazado_1259419" data-name="Trazado 1259419" d="M71.492,147.523l-.231-.853a1.52,1.52,0,1,0-2.934.8l.231.853-2.252.612.612,2.252,7.438-2.021-.612-2.252Z" transform="translate(-8.433 -14.753)" fill="#fff"/>
        <path id="Trazado_1259420" data-name="Trazado 1259420" d="M66.132,182.666,85.8,164.674l-1.6-5.895L61.63,167.141Z" transform="translate(-7.838 -16.435)" fill="#1b2536"/>
        <path id="Trazado_1259421" data-name="Trazado 1259421" d="M74.08,161.808l4.57-3.347,2.515-.955a1.081,1.081,0,0,1,1.35.715l.147.388,3.173-.931a1.283,1.283,0,0,1,1.531,1.034l.5,2.091a1.328,1.328,0,0,1-.436,1.377l-.78.589.024.091a1.675,1.675,0,0,1-.63,1.854l-3.564,2.273a6.327,6.327,0,0,1-2.111.864l-3.948.829Z" transform="translate(-9.422 -16.266)" fill="#cf7f4c"/>
        <line id="Línea_3510" data-name="Línea 3510" y1="2.552" x2="6.301" transform="translate(71.659 142.509)" fill="none" stroke="#422424" stroke-miterlimit="10" stroke-width="0.5"/>
        <line id="Línea_3511" data-name="Línea 3511" y1="2.996" x2="5.626" transform="translate(72.709 144.071)" fill="none" stroke="#422424" stroke-miterlimit="10" stroke-width="0.5"/>
        <line id="Línea_3512" data-name="Línea 3512" y1="2.31" x2="3.701" transform="translate(73.53 146.504)" fill="none" stroke="#422424" stroke-miterlimit="10" stroke-width="0.5"/>
        <line id="Línea_3513" data-name="Línea 3513" x1="3.288" y2="1.337" transform="translate(69.953 142.344)" fill="none" stroke="#422424" stroke-miterlimit="10" stroke-width="0.5"/>
        <path id="Trazado_1259422" data-name="Trazado 1259422" d="M71.858,162.369l2.667-.945,3.343,8.935-4.313,2.334Z" transform="translate(-9.139 -16.772)" fill="#fff"/>
        <path id="Trazado_1259423" data-name="Trazado 1259423" d="M87.435,126.294l-4.106,4.945a3.619,3.619,0,0,0,.167,4.81l7.957,8.337-2.825,3.644a3.619,3.619,0,0,0,.155,4.622l13.068,14.7,6.273-16.849a3.619,3.619,0,0,0-1.14-4.1l-3.581-2.846,3.963-8.928a3.62,3.62,0,0,0-1.04-4.288l-5.043-4.054" transform="translate(-10.492 -12.304)" fill="none" stroke="#1b2536" stroke-miterlimit="10" stroke-width="0.432"/>
        <path id="Trazado_1259424" data-name="Trazado 1259424" d="M48.211,168.787l19.973-6.28L72,172.689l-13.941,10a9.745,9.745,0,0,1-14.005-2.858,7.493,7.493,0,0,1,4.155-11.039" transform="translate(-5.464 -16.91)" fill="#415780"/>
        <line id="Línea_3514" data-name="Línea 3514" y1="5.823" x2="18.518" transform="translate(43.379 145.856)" fill="none" stroke="#000" stroke-miterlimit="10" stroke-width="0.432"/>
        <path id="Trazado_1259425" data-name="Trazado 1259425" d="M89.56,124.572l12.2,39.19-1.06-39.19Z" transform="translate(-11.391 -12.085)" fill="#fff"/>
        <path id="Trazado_1259426" data-name="Trazado 1259426" d="M96.81,128.765l-4.447,4.2.478,1.539,4.145-4.292,4.27,2.4-.041-1.486Z" transform="translate(-11.747 -12.618)" fill="#dde9eb"/>
        <path id="Trazado_1259427" data-name="Trazado 1259427" d="M101.5,102.89c2.97-2.069,4.4-7.372,0-9.334s-10.129,1.167-12.993,3.5c-3.712-1.378-7.689,5.3-3.076,6.629L86.6,108.85Z" transform="translate(-10.601 -8.061)" fill="#1b2536"/>
        <path id="Trazado_1259428" data-name="Trazado 1259428" d="M89.946,108.742s2.81-1.485,2.652-6.894h10.129l.531,6.152c2.227,1.856,2.227,7.8-3.182,8.7l.583,4.985-4.242,3.66-6.894-3.66-.265-9.917Z" transform="translate(-11.352 -9.195)" fill="#cf7f4c"/>
        <path id="Trazado_1259429" data-name="Trazado 1259429" d="M97.476,111.255a1.488,1.488,0,1,1-1.488-1.487,1.488,1.488,0,0,1,1.488,1.487" transform="translate(-12.019 -10.202)" fill="#cf5a42"/>
        <path id="Trazado_1259430" data-name="Trazado 1259430" d="M96.92,105.919a.969.969,0,0,0-.937,1.259l.744-.2-.451.66a.979.979,0,1,0,.644-1.716" transform="translate(-12.202 -9.712)" fill="#1b2536"/>
        <path id="Trazado_1259431" data-name="Trazado 1259431" d="M102.531,105.919a.969.969,0,0,0-.937,1.259l.744-.2-.45.66a.979.979,0,1,0,.644-1.716" transform="translate(-12.916 -9.712)" fill="#1b2536"/>
        <path id="Trazado_1259432" data-name="Trazado 1259432" d="M100.947,104.645a3.955,3.955,0,0,1,2.677-.088" transform="translate(-12.839 -9.517)" fill="none" stroke="#1b2536" stroke-miterlimit="10" stroke-width="0.864"/>
        <path id="Trazado_1259433" data-name="Trazado 1259433" d="M98.02,104.645a3.955,3.955,0,0,0-2.677-.088" transform="translate(-12.126 -9.517)" fill="none" stroke="#1b2536" stroke-miterlimit="10" stroke-width="0.864"/>
        <path id="Trazado_1259434" data-name="Trazado 1259434" d="M97.063,111.341h5.631s-.381-1.574-2.816-1.574-2.815,1.574-2.815,1.574" transform="translate(-12.345 -10.202)" fill="#1b2536"/>
        <path id="Trazado_1259435" data-name="Trazado 1259435" d="M90.766,111.292a3.367,3.367,0,1,1-3.367-3.367,3.367,3.367,0,0,1,3.367,3.367" transform="translate(-10.688 -9.967)" fill="#cf7f4c"/>
        <path id="Trazado_1259436" data-name="Trazado 1259436" d="M100.133,105.514l.12,1.733,1.017,1.457a.332.332,0,0,1-.272.523H99.443" transform="translate(-12.648 -9.661)" fill="none" stroke="#422424" stroke-miterlimit="10" stroke-width="0.5"/>
        <path id="Trazado_1259437" data-name="Trazado 1259437" d="M101.8,113.727a4.026,4.026,0,0,1-2.493,0" transform="translate(-12.631 -10.705)" fill="none" stroke="#422424" stroke-miterlimit="10" stroke-width="0.5"/>
        <path id="Trazado_1259438" data-name="Trazado 1259438" d="M99.736,118.632s-5.2,1.06-8.313-2.262" transform="translate(-11.628 -11.042)" fill="none" stroke="#422424" stroke-miterlimit="10" stroke-width="0.5"/>
        <path id="Trazado_1259439" data-name="Trazado 1259439" d="M85.732,111.041c1.007-1.644,3.076-1.644,4.3,1.06" transform="translate(-10.904 -10.221)" fill="none" stroke="#422424" stroke-miterlimit="10" stroke-width="0.5"/>
        <line id="Línea_3515" data-name="Línea 3515" y1="2.091" x2="0.465" transform="translate(76.71 99.79)" fill="none" stroke="#422424" stroke-miterlimit="10" stroke-width="0.5"/>
        <path id="Trazado_1259440" data-name="Trazado 1259440" d="M99.887,130.223l-2.758-1.458-2.254,2.148L97,133.1l-.576,11.889,6.011,19.312-.521-19.236-3.04-12.106Z" transform="translate(-12.067 -12.618)" fill="#d65353"/>
        <path id="Trazado_1259441" data-name="Trazado 1259441" d="M463.383,225.744h-48.8a2.619,2.619,0,0,1-2.618-2.618V197.6a2.619,2.619,0,0,1,2.618-2.618h48.8A2.618,2.618,0,0,1,466,197.6v25.528a2.618,2.618,0,0,1-2.618,2.618" transform="translate(-52.397 -21.04)" fill="#4a75c9"/>
        <rect id="Rectángulo_455672" data-name="Rectángulo 455672" width="15.874" height="6.546" transform="translate(365.395 179.912)" fill="none" stroke="#fff" stroke-miterlimit="10" stroke-width="0.397"/>
        <line id="Línea_3516" data-name="Línea 3516" x2="42.386" transform="translate(365.394 190.549)" fill="none" stroke="#fff" stroke-miterlimit="10" stroke-width="0.397"/>
        <line id="Línea_3517" data-name="Línea 3517" x2="42.386" transform="translate(365.394 194.641)" fill="none" stroke="#fff" stroke-miterlimit="10" stroke-width="0.397"/>
        <line id="Línea_3518" data-name="Línea 3518" x2="42.386" transform="translate(365.394 198.732)" fill="none" stroke="#fff" stroke-miterlimit="10" stroke-width="0.397"/>
        <path id="Trazado_1259442" data-name="Trazado 1259442" d="M463.383,266.771h-48.8a2.619,2.619,0,0,1-2.618-2.618V238.624a2.619,2.619,0,0,1,2.618-2.618h48.8A2.618,2.618,0,0,1,466,238.624v25.528a2.618,2.618,0,0,1-2.618,2.618" transform="translate(-52.397 -26.258)" fill="#4a75c9"/>
        <rect id="Rectángulo_455673" data-name="Rectángulo 455673" width="15.874" height="6.546" transform="translate(365.395 215.72)" fill="none" stroke="#fff" stroke-miterlimit="10" stroke-width="0.397"/>
        <line id="Línea_3519" data-name="Línea 3519" x2="42.386" transform="translate(365.394 226.358)" fill="none" stroke="#fff" stroke-miterlimit="10" stroke-width="0.397"/>
        <line id="Línea_3520" data-name="Línea 3520" x2="42.386" transform="translate(365.394 230.449)" fill="none" stroke="#fff" stroke-miterlimit="10" stroke-width="0.397"/>
        <line id="Línea_3521" data-name="Línea 3521" x2="42.386" transform="translate(365.394 234.541)" fill="none" stroke="#fff" stroke-miterlimit="10" stroke-width="0.397"/>
      </g>
    </g>
  </g>
</svg>
