<svg xmlns="http://www.w3.org/2000/svg" xmlns:xlink="http://www.w3.org/1999/xlink" width="84" height="84" viewBox="0 0 84 84">
  <defs>
    <clipPath id="clip-path">
      <rect id="Rect치ngulo_454751" data-name="Rect치ngulo 454751" width="69.888" height="69.666" fill="#302c9e"/>
    </clipPath>
  </defs>
  <g id="Grupo_1204858" data-name="Grupo 1204858" transform="translate(-185.711 -1046)">
    <rect id="Rect치ngulo_455472" data-name="Rect치ngulo 455472" width="84" height="84" rx="12" transform="translate(185.711 1046)" fill="#feea89"/>
    <g id="Grupo_1204372" data-name="Grupo 1204372" transform="translate(194.112 1056.667)">
      <g id="Grupo_1203572" data-name="Grupo 1203572" clip-path="url(#clip-path)">
        <path id="Trazado_1256651" data-name="Trazado 1256651" d="M67.375,8.99l-.146,38.677-.5.5L47.947,48.3c-.17,1.144-1.775,3.263-1.9,4.15-.135.954,2.839,2.17,2.064,3.841-.137.295-1.373,1.224-1.207,1.6l1.61,1.4c.634,0,1.331-1.842,2.489-1.307.794,1.2,5.686,5.1,5.96,6.035A1.444,1.444,0,0,1,56.6,65.38a52.613,52.613,0,0,1-4.245,4.142,1.168,1.168,0,0,1-.8.119c-1.017-.187-4.985-5-6.114-5.891-.59-1.07.766-1.862,1.372-2.562l-1.59-1.6c-.488-.221-1.242,1.036-1.6,1.2-1.52.7-2.928-2.337-3.654-2.266-9.75,6.155-23.4.927-26.3-10.187-.373-.323-8.463.148-9.865-.016a1.575,1.575,0,0,1-1.193-.6L2.506,8.99C1.63,9.01.383,9.082.153,8.049A40.716,40.716,0,0,1,.11,1.506C.254.1.718.087,2,0L68.463.02a1.517,1.517,0,0,1,1.3,1.3,41.845,41.845,0,0,1,0,6.562c-.193,1.216-1.365,1.126-2.383,1.11M2.8,2.4l-.3.3V6.3l.3.3H67.077l.3-.3V2.7l-.3-.3ZM64.981,8.991H4.9V45.918h8.184l-.2-2.794H9.391a3.778,3.778,0,0,1-.713-.484L8.531,17.513A1.378,1.378,0,0,1,9.6,16.787a41.716,41.716,0,0,1,6.386-.022c.479.044,1.686.313,1.686.909V31.147c.3.013.251-.38.494-.6a18.117,18.117,0,0,1,19.664-3.589l-2.091-7.389c-.232-.268-.991-.22-1.411-.385a4.325,4.325,0,0,1,1.609-8.407c4.278.151,5.586,5.731,2.171,8.09,1.082,2.855,1.506,6.488,2.657,9.25.449,1.079,2.719,2.631,3.648,3.737a12.7,12.7,0,0,1,2.6,4.485L53.762,24.5a4.355,4.355,0,0,1,5.277-6.668c3.16,1.483,3.225,6.347.088,7.765A8.545,8.545,0,0,1,55.84,26L48.2,39.833a16.713,16.713,0,0,1,.213,6.085H64.682l.3-.3ZM35.391,13.22a1.912,1.912,0,1,0,.9,3.713c2.144-.482,1.5-4.166-.9-3.713M15.279,19.37H10.888V40.529l2.187-.009a13.729,13.729,0,0,1,.6-2.692c.227-.666,1.6-3.2,1.6-3.387Zm40.378,1.054c-1.729,2.009,1.59,4.572,3.028,2.331,1.331-2.074-1.634-3.952-3.028-2.331M29.011,28.012A15.562,15.562,0,0,0,15.776,39.529,15.4,15.4,0,0,0,36.434,57.592c.848-.331,3.234-1.886,3.7-1.912,1.177-.066,1.9,1.781,2.965,2.2l2.109-2.109c.094-.541-2.246-1.8-2.178-2.951.031-.524,1.778-3.215,2.142-4.258a15.413,15.413,0,0,0-16.159-20.55m21.5,32.88-2.292,2.292c1.016.762,2.1,2.446,3.081,3.106.186.125.32.259.568.166L54,64.382Z" transform="translate(0)" fill="#302c9e"/>
        <path id="Trazado_1256652" data-name="Trazado 1256652" d="M215.544,95.057c.884-.24,1.581.871,2.151,1.364.78-.756,1.643-2.065,2.7-.9,1.177,1.3-.809,1.927-.809,2.6,0,.559,1.458,1.111,1.175,2.151-1.11,1.682-2.052.673-3.064-.451-.78.756-1.643,2.065-2.7.9-1.177-1.3.809-1.927.809-2.6,0-.508-1.191-1.012-1.191-1.8a1.867,1.867,0,0,1,.929-1.268" transform="translate(-171.777 -76.056)" fill="#302c9e"/>
        <path id="Trazado_1256653" data-name="Trazado 1256653" d="M278.242,172.934c.994-.295,1.721.526,2.352,1.154,2.071-2.726,4.425-.37,1.7,1.7,2.563,2.076.488,4.586-1.727,1.91-.432-.075-1.6,2.1-2.759.777-1.087-1.251.958-2.192.876-2.66-.854-.582-1.941-2.437-.441-2.882" transform="translate(-222.1 -138.353)" fill="#302c9e"/>
        <path id="Trazado_1256654" data-name="Trazado 1256654" d="M100.94,152.017c17.744-1.725,19.381,24.662,2.532,25.886-17.052,1.239-18.908-24.294-2.532-25.886m.394,2.39c-14.162,1.421-11.252,23.571,3.092,20.857,13.065-2.471,10.138-22.184-3.092-20.857" transform="translate(-71.729 -121.609)" fill="#302c9e"/>
      </g>
    </g>
  </g>
</svg>
