<svg xmlns="http://www.w3.org/2000/svg" xmlns:xlink="http://www.w3.org/1999/xlink" width="78" height="78" viewBox="0 0 78 78">
  <defs>
    <clipPath id="clip-path">
      <rect id="Rect치ngulo_455621" data-name="Rect치ngulo 455621" width="78" height="78" transform="translate(291.711 1714)" fill="#fff" stroke="#707070" stroke-width="1"/>
    </clipPath>
    <clipPath id="clip-path-2">
      <rect id="Rect치ngulo_455624" data-name="Rect치ngulo 455624" width="77.422" height="61.153" fill="none"/>
    </clipPath>
  </defs>
  <g id="Enmascarar_grupo_1119201" data-name="Enmascarar grupo 1119201" transform="translate(-291.711 -1714)" clip-path="url(#clip-path)">
    <g id="Grupo_1204586" data-name="Grupo 1204586" transform="translate(291.711 1722)">
      <g id="Grupo_1204585" data-name="Grupo 1204585" transform="translate(0.289 0)" clip-path="url(#clip-path-2)">
        <path id="Trazado_1259184" data-name="Trazado 1259184" d="M54.607,35.389A.6.6,0,0,0,54,34.782H50.749a15.69,15.69,0,0,0-.786-2.937l2.815-1.625A.608.608,0,0,0,53,29.39l-2.007-3.475a.608.608,0,0,0-.83-.223l-2.815,1.625a16.039,16.039,0,0,0-2.151-2.15l1.625-2.815a.61.61,0,0,0-.222-.831l-3.476-2a.606.606,0,0,0-.83.22l-1.624,2.815a15.726,15.726,0,0,0-2.939-.785V18.516a.609.609,0,0,0-.609-.608H33.112a.609.609,0,0,0-.608.608v3.251a15.713,15.713,0,0,0-2.937.785l-1.625-2.815a.607.607,0,0,0-.831-.22l-3.474,2a.608.608,0,0,0-.223.831l1.625,2.815a16.03,16.03,0,0,0-2.15,2.15l-2.815-1.625a.607.607,0,0,0-.83.223L17.237,29.39a.608.608,0,0,0,.222.83l2.814,1.625a15.877,15.877,0,0,0-.784,2.937H16.238a.607.607,0,0,0-.608.607V39.4a.607.607,0,0,0,.608.606h3.251a15.89,15.89,0,0,0,.784,2.939l-2.814,1.626a.608.608,0,0,0-.222.83l2.007,3.475a.606.606,0,0,0,.83.222l2.815-1.626a15.976,15.976,0,0,0,2.15,2.152L23.414,52.44a.6.6,0,0,0,.223.828l3.474,2.007a.607.607,0,0,0,.831-.223l1.624-2.812a15.751,15.751,0,0,0,2.939.785v3.252a.608.608,0,0,0,.608.607h4.011a.608.608,0,0,0,.609-.607V53.026a15.726,15.726,0,0,0,2.939-.785l1.624,2.812a.608.608,0,0,0,.83.224L46.6,53.271a.609.609,0,0,0,.222-.831L45.2,49.626a15.914,15.914,0,0,0,2.151-2.152L50.163,49.1a.606.606,0,0,0,.83-.222L53,45.4a.607.607,0,0,0-.223-.83l-2.815-1.626a15.677,15.677,0,0,0,.786-2.939H54a.61.61,0,0,0,.609-.607Z" transform="translate(3.726 4.268)" fill="#0d5365"/>
        <path id="Trazado_1259185" data-name="Trazado 1259185" d="M46.723,36.124A12.877,12.877,0,1,0,33.846,49,12.878,12.878,0,0,0,46.723,36.124" transform="translate(4.998 5.541)" fill="#fff"/>
        <path id="Trazado_1259186" data-name="Trazado 1259186" d="M66.445,26.692a.318.318,0,0,0-.317-.318h-1.7a8.06,8.06,0,0,0-.411-1.538l1.472-.85a.318.318,0,0,0,.116-.436l-1.049-1.818a.322.322,0,0,0-.437-.115l-1.47.85a8.265,8.265,0,0,0-1.127-1.124l.851-1.474a.319.319,0,0,0-.116-.435l-1.818-1.049A.319.319,0,0,0,60,18.5l-.848,1.472a8.2,8.2,0,0,0-1.538-.41v-1.7a.319.319,0,0,0-.317-.318H55.2a.318.318,0,0,0-.319.318v1.7a8.151,8.151,0,0,0-1.538.41L52.49,18.5a.319.319,0,0,0-.435-.115l-1.818,1.05a.317.317,0,0,0-.118.433l.852,1.474a8.481,8.481,0,0,0-1.127,1.124l-1.471-.85a.317.317,0,0,0-.433.115l-1.05,1.819a.317.317,0,0,0,.115.435l1.472.85a8.059,8.059,0,0,0-.41,1.538h-1.7a.318.318,0,0,0-.319.318v2.1a.317.317,0,0,0,.319.317h1.7a8.292,8.292,0,0,0,.407,1.538l-1.47.85a.317.317,0,0,0-.115.435l1.05,1.819a.319.319,0,0,0,.433.116l1.471-.851a8.566,8.566,0,0,0,1.127,1.126l-.852,1.472a.318.318,0,0,0,.118.435L52.055,37.1a.317.317,0,0,0,.435-.115l.851-1.472a8.244,8.244,0,0,0,1.538.41v1.7a.317.317,0,0,0,.319.318h2.1a.318.318,0,0,0,.317-.318v-1.7a8.3,8.3,0,0,0,1.538-.41L60,36.983a.32.32,0,0,0,.436.116l1.818-1.05a.319.319,0,0,0,.116-.435l-.851-1.472a8.345,8.345,0,0,0,1.127-1.126l1.47.851a.325.325,0,0,0,.438-.116L65.6,31.932a.317.317,0,0,0-.116-.435l-1.472-.85a8.084,8.084,0,0,0,.411-1.538h1.7a.319.319,0,0,0,.317-.318Z" transform="translate(10.977 4.181)" fill="#9db7fe"/>
        <path id="Trazado_1259187" data-name="Trazado 1259187" d="M61.1,26.878a5.716,5.716,0,1,0-5.715,5.715A5.715,5.715,0,0,0,61.1,26.878" transform="translate(11.839 5.044)" fill="#fff"/>
        <path id="Trazado_1259188" data-name="Trazado 1259188" d="M58.161,26.4a3.252,3.252,0,1,0-3.251,3.251A3.251,3.251,0,0,0,58.161,26.4" transform="translate(12.314 5.519)" fill="#9db7fe"/>
        <path id="Trazado_1259189" data-name="Trazado 1259189" d="M54.162,10.732c-.094-.737-1.568-1.165-3.38-1.022A9.657,9.657,0,0,0,50.031,7.9c1.4-1.169,2.147-2.511,1.7-3.1s-1.939-.225-3.436.8A9.748,9.748,0,0,0,46.749,4.37c.609-1.7.587-3.217-.094-3.5S44.9,1.609,44.12,3.2a9.636,9.636,0,0,0-2.015-.323C41.773,1.16,41.012-.087,40.293,0s-1.127,1.443-1.038,3.143a9.665,9.665,0,0,0-2,.744c-1.116-1.238-2.337-1.879-2.9-1.455s-.276,1.719.581,3.093A9.7,9.7,0,0,0,33.5,7.275c-1.516-.458-2.809-.385-3.07.238s.566,1.563,1.915,2.315a9.441,9.441,0,0,0-.365,2.334c-1.474.37-2.494,1.059-2.41,1.71s1.224,1.058,2.727,1.051a9.453,9.453,0,0,0,.9,2.235c-1.069,1.048-1.589,2.135-1.2,2.651s1.589.3,2.885-.453A9.667,9.667,0,0,0,36.8,20.8c-.414,1.458-.327,2.684.277,2.936s1.563-.565,2.312-1.912a9.594,9.594,0,0,0,2.311.25c.363,1.533,1.069,2.609,1.736,2.524s1.1-1.352,1.045-2.971a9.513,9.513,0,0,0,2.012-.9c1.112,1.23,2.327,1.863,2.88,1.44s.254-1.815-.675-3.247a9.6,9.6,0,0,0,1.228-1.69c1.642.565,3.093.526,3.372-.139s-.743-1.758-2.337-2.536a9.734,9.734,0,0,0,.225-1.991c1.767-.321,3.066-1.1,2.975-1.832" transform="translate(7.047 0)" fill="#302c9e"/>
        <path id="Trazado_1259190" data-name="Trazado 1259190" d="M48.466,11.526a7.727,7.727,0,1,0-7.727,7.726,7.727,7.727,0,0,0,7.727-7.726" transform="translate(7.869 0.906)" fill="#fff"/>
        <path id="Trazado_1259191" data-name="Trazado 1259191" d="M42.113,42.8H4.313a4.308,4.308,0,0,1-3.73-6.461L19.485,3.6a4.306,4.306,0,0,1,7.459,0l18.9,32.735a4.307,4.307,0,0,1-3.73,6.461M23.213,5.129a.6.6,0,0,0-.54.312L3.773,38.176a.624.624,0,0,0,.54.936h37.8a.624.624,0,0,0,.54-.936L23.754,5.441a.606.606,0,0,0-.541-.312" transform="translate(0 0.344)"/>
        <path id="Trazado_1259192" data-name="Trazado 1259192" d="M22.473,3.307a.636.636,0,0,0-.568.326L2.017,37.761a.622.622,0,0,0,0,.65.635.635,0,0,0,.568.326H42.36a.639.639,0,0,0,.57-.326.625.625,0,0,0,0-.65L23.043,3.633a.639.639,0,0,0-.57-.326" transform="translate(0.459 0.788)" fill="#ebcc30"/>
        <path id="Trazado_1259193" data-name="Trazado 1259193" d="M18.728,25.8c2.485-.624,2.807,3.06.722,3.332-2.152.281-2.448-2.9-.722-3.332" transform="translate(4.198 6.134)"/>
        <path id="Trazado_1259194" data-name="Trazado 1259194" d="M19.862,27.473H18.595a.794.794,0,0,1-.794-.793v-15.2a.794.794,0,0,1,.794-.794h1.267a.793.793,0,0,1,.793.794v15.2a.792.792,0,0,1-.793.793" transform="translate(4.243 2.547)"/>
      </g>
    </g>
  </g>
</svg>
