<svg xmlns="http://www.w3.org/2000/svg" xmlns:xlink="http://www.w3.org/1999/xlink" width="70" height="70" viewBox="0 0 70 70">
  <defs>
    <clipPath id="clip-path">
      <rect id="Rectángulo_455651" data-name="Rectángulo 455651" width="34" height="41.375" fill="#302c9e"/>
    </clipPath>
  </defs>
  <g id="Grupo_1117157" data-name="Grupo 1117157" transform="translate(0.145)">
    <circle id="Elipse_5614" data-name="Elipse 5614" cx="35" cy="35" r="35" transform="translate(-0.145)" fill="#fff"/>
    <g id="Grupo_1204616" data-name="Grupo 1204616" transform="translate(17.855 14)">
      <g id="Grupo_1204615" data-name="Grupo 1204615" clip-path="url(#clip-path)">
        <path id="Trazado_1259288" data-name="Trazado 1259288" d="M7.357,23.135v4.2c0,.05.312.8.376.926a3.825,3.825,0,0,0,3.228,1.978c4.034.292,8.444-.2,12.516-.036,1.19,0,3.166-1.722,3.166-2.868v-4.2h6.448c.329,0,1.027.951.892,1.356l-.1,36.473a1.225,1.225,0,0,1-.847.809L.782,61.714a1.377,1.377,0,0,1-.7-.833l-.06-36.39c-.135-.405.563-1.356.892-1.356ZM15.875,36.86c-.5,1.938,2.2,2.552,2.373.656a26.727,26.727,0,0,0,0-3.915,1.037,1.037,0,0,0-.768-.889A19.035,19.035,0,0,0,13.45,32.6a1.256,1.256,0,0,0-1.247,1c-.149,1.291.844,1.493,1.9,1.542L8.777,40.468a1.184,1.184,0,0,0,.365,1.765L22.265,51l-6.253,6.4c-.716,1.323.6,2.512,1.878,1.523,2.485-1.917,4.788-5.233,7.278-7.274a1.161,1.161,0,0,0,.055-1.484L11.735,41.117Zm6.481-.924a1.346,1.346,0,0,0-1.032.991c-.139.937.662,1.274,1.177,1.884-.618.661-1.629,1.291-1,2.3.811,1.3,2.043.23,2.716-.584,1.882,2.622,4.281.152,1.718-1.718.668-.636,1.659-1.468.88-2.421-.9-1.1-1.937-.045-2.6.7-.545-.5-1.025-1.279-1.862-1.158M9.342,49.671c-4.25.453-4.117,6.662-.259,7.174,5.661.751,5.515-7.733.259-7.174" transform="translate(0 -20.398)" fill="#302c9e"/>
        <path id="Trazado_1259289" data-name="Trazado 1259289" d="M84.736.168a52.832,52.832,0,0,1,8.01-.031c3.182.289,3.692,3.447,3.377,6.094a1.2,1.2,0,0,1-1,1.126L82.209,7.243a1.266,1.266,0,0,1-.644-1.012c-.3-2.526.142-5.681,3.172-6.063" transform="translate(-71.844 -0.001)" fill="#302c9e"/>
        <path id="Trazado_1259290" data-name="Trazado 1259290" d="M73.077,267.989a1.205,1.205,0,1,1,.657,2.316c-1.535.3-1.974-2.014-.657-2.316" transform="translate(-63.743 -236.239)" fill="#302c9e"/>
      </g>
    </g>
  </g>
</svg>
