<svg xmlns="http://www.w3.org/2000/svg" xmlns:xlink="http://www.w3.org/1999/xlink" width="169" height="111" viewBox="0 0 169 111">
  <defs>
    <clipPath id="clip-path">
      <rect id="Rect치ngulo_455282" data-name="Rect치ngulo 455282" width="90.306" height="90.334" fill="#302c9e"/>
    </clipPath>
  </defs>
  <g id="Grupo_1204197" data-name="Grupo 1204197" transform="translate(-1121.422 -1019)">
    <rect id="Rect치ngulo_455283" data-name="Rect치ngulo 455283" width="169" height="111" rx="19" transform="translate(1121.422 1019)" fill="#9db7fe"/>
    <g id="Grupo_1204201" data-name="Grupo 1204201">
      <circle id="Elipse_13678" data-name="Elipse 13678" cx="30.5" cy="30.5" r="30.5" transform="translate(1175.422 1043)" fill="#feea89"/>
      <g id="Grupo_1204196" data-name="Grupo 1204196" transform="translate(1160.567 1029)">
        <g id="Grupo_1204195" data-name="Grupo 1204195" clip-path="url(#clip-path)">
          <path id="Trazado_1258179" data-name="Trazado 1258179" d="M87.685,43.71A62.212,62.212,0,0,0,86.06,33.567c-.244-.993-1.168-2.749-.917-3.635a1.245,1.245,0,0,1,2.289-.322c.666.9,1.686,5.052,1.943,6.333,6.876,34.234-25.509,63.018-58.732,52.007C2.368,78.577-9.091,43.825,8.069,19.315A45.222,45.222,0,0,1,80.432,16.95c1.058,1.313,4.228,5.633,4.606,7.037.388,1.44-.827,2.606-1.987,1.729-.614-.464-2.436-4.07-3.174-5.107a27.835,27.835,0,0,0-2.4-2.962,47.666,47.666,0,0,1-11,4.081c5.886,5.783,9.988,13.59,10.087,21.982ZM43.715,2.843c-7.369,1.186-11.356,8.579-14.226,14.74,4.455-2.115,9.2-3.948,14.226-3.877Zm2.845,0V13.706c5.022-.071,9.771,1.762,14.226,3.877-2.87-6.162-6.857-13.554-14.226-14.74M35.438,3.88a40.119,40.119,0,0,0-17.711,8.8A31.291,31.291,0,0,0,15,15.124c-.15.219-.357.261-.253.648C18.4,17.161,22,18.848,25.878,19.55c2.137-5.807,5.088-11.333,9.56-15.67m40.09,11.892c.105-.39-.1-.429-.254-.647a24.523,24.523,0,0,0-3.244-2.963A40.58,40.58,0,0,0,54.837,3.88c4.5,4.345,7.389,9.857,9.56,15.67,3.881-.7,7.475-2.389,11.131-3.778M13.711,46.555H2.59A43.143,43.143,0,0,0,12.8,72.647a44.422,44.422,0,0,1,11-4.11c-1.3-1.442-6.435-6.991-6.445-8.662a1.536,1.536,0,0,1,1.4-1.4c1.071,0,2.426,2.91,3.132,3.831C42.852,89.647,84.747,64.909,71.77,33.89,59.263,3.995,13.662,14.652,16.3,47.973c.156,1.965,1.157,4.27,1.278,5.991a1.31,1.31,0,0,1-2.521.684c-1.03-1.952-1.258-5.87-1.347-8.093M2.59,43.71H13.711c.1-8.392,4.2-16.2,10.087-21.982a44.422,44.422,0,0,1-11-4.11A43.143,43.143,0,0,0,2.59,43.71m85.1,2.845H76.563c-.1,8.392-4.2,16.2-10.087,21.982a44.424,44.424,0,0,1,11,4.11,43.211,43.211,0,0,0,10.21-26.093M35.438,86.384c-4.472-4.337-7.423-9.862-9.56-15.67C22,71.417,18.4,73.1,14.747,74.493c-.1.386.1.429.253.648a31.29,31.29,0,0,0,2.727,2.446,40.119,40.119,0,0,0,17.711,8.8m40.09-11.892C71.872,73.1,68.277,71.417,64.4,70.715c-2.171,5.813-5.063,11.325-9.56,15.67a40.119,40.119,0,0,0,17.71-8.8,31.29,31.29,0,0,0,2.727-2.446c.15-.219.357-.261.253-.648M43.715,76.558C38.7,76.6,33.934,74.8,29.489,72.681c2.869,6.162,6.856,13.554,14.226,14.74Zm2.845,0V87.422c7.369-1.186,11.356-8.579,14.226-14.74-4.445,2.12-9.212,3.92-14.226,3.877" transform="translate(0 0)" fill="#302c9e"/>
          <path id="Trazado_1258180" data-name="Trazado 1258180" d="M181.092,108.689c6.254-6.581,17.013,2.155,11.547,9.607-6.241,8.51-18.794-1.982-11.547-9.607m4.234.484c-5.451,1.121-4.536,10.6,2.209,9.449,6.03-1.028,4.552-10.839-2.209-9.449" transform="translate(-132.63 -78.854)" fill="#302c9e"/>
          <path id="Trazado_1258181" data-name="Trazado 1258181" d="M144.98,184.715c6.589-1.341,6.691,5.232,6.287,9.908-.564,6.526-8.817,6.178-9.557.744a35.31,35.31,0,0,1,.092-7.105c.284-1.382,1.762-3.259,3.178-3.547m-.106,11.5c.943,1.031,3.09.736,3.485-.618a51.493,51.493,0,0,0,.048-6.925c-.364-1.908-3.586-2.1-4.073.312-.253,1.252-.267,6.349.54,7.231" transform="translate(-104.956 -136.807)" fill="#302c9e"/>
          <path id="Trazado_1258182" data-name="Trazado 1258182" d="M189.97,184.83c2.3-.47,4.671.257,5.718,2.441.91,1.9.863,8-.113,9.889-2.019,3.913-8.225,2.791-8.882-1.412a41.228,41.228,0,0,1,.1-7.633,5.441,5.441,0,0,1,3.181-3.285m.772,2.583a1.875,1.875,0,0,0-.969.582c-.682.843-.679,5.761-.493,6.975.408,2.657,3.745,2.487,4.116.528a47.674,47.674,0,0,0,0-6.714,2.092,2.092,0,0,0-2.655-1.372" transform="translate(-138.308 -136.923)" fill="#302c9e"/>
          <path id="Trazado_1258183" data-name="Trazado 1258183" d="M139.446,114.475a4.131,4.131,0,0,1-.064,5.828c-2.8,2.8-10.123.677-9.373-2.111.609-2.267,2.739.092,3.579.461,1.724.756,5.3.294,4.274-1.936-.9-1.965-6.956-1.37-7.134-5.564-.176-4.134,4.432-5.1,7.618-3.725,1.093.471,2.668,1.559,1.57,2.8-1.374,1.558-3.376-1.911-5.907-.474a1.237,1.237,0,0,0-.425,1.917c.915.889,4.366,1.267,5.862,2.8" transform="translate(-96.342 -79.208)" fill="#302c9e"/>
          <path id="Trazado_1258184" data-name="Trazado 1258184" d="M99.917,199.694c-1.388-1.368,2.2-3.172,2.262-4.591a4.7,4.7,0,0,1-4.249-7.485,4.819,4.819,0,0,1,8.258,1.019c1.13,2.8-.738,7.111-2.582,9.313-.74.883-2.484,2.932-3.689,1.744m1.153-11.263c-2.194.655-1.551,4.651,1.184,4.032,2.6-.589,1.688-4.889-1.184-4.032" transform="translate(-71.917 -137.683)" fill="#302c9e"/>
          <path id="Trazado_1258185" data-name="Trazado 1258185" d="M234.5,187.54c-1.242.193-3.015-.333-2.546-1.886.38-1.258,4.765-1.732,5.114.481a77.629,77.629,0,0,1,.021,11.628c-.235,2.035-2.339,1.809-2.584.505Z" transform="translate(-171.901 -136.848)" fill="#302c9e"/>
          <path id="Trazado_1258186" data-name="Trazado 1258186" d="M112.033,106.855c1.257-.379,1.757.185,1.892,1.367a80.853,80.853,0,0,1,0,11.907c-.234,2.045-2.387,1.917-2.6.266a86.584,86.584,0,0,1,0-12.439c.068-.508.152-.932.711-1.1" transform="translate(-82.363 -79.13)" fill="#302c9e"/>
        </g>
      </g>
    </g>
  </g>
</svg>
