<svg id="Grupo_1203605" data-name="Grupo 1203605" xmlns="http://www.w3.org/2000/svg" xmlns:xlink="http://www.w3.org/1999/xlink" width="282.499" height="307.092" viewBox="0 0 282.499 307.092">
  <defs>
    <clipPath id="clip-path">
      <rect id="Rectángulo_454839" data-name="Rectángulo 454839" width="282.499" height="307.092" fill="none"/>
    </clipPath>
  </defs>
  <g id="Grupo_1203604" data-name="Grupo 1203604" clip-path="url(#clip-path)">
    <path id="Trazado_1256681" data-name="Trazado 1256681" d="M62.44,271.674c-22.029,0-41.747-16.3-49.478-40.9A306.986,306.986,0,0,1,2.033,182.214c-3.1-21.9-2.973-45.4,2.624-66.076C18.034,66.726,49.722,79.246,73.475,52.749,81.459,43.843,86.91,30.62,93.707,19.6,104.65,1.857,119.136-1.248,134.4.38c18.639,1.988,36.494,17.485,47.328,41.077,7.155,15.581,11.21,33.978,16.691,51.112s13.042,33.93,24.317,41.7c8.578,5.911,18.348,5.935,27.321,10.211,16.17,7.705,29,30.229,31.919,56.056q.116,1.024.209,2.038c3.406,36.982-21.381,69.1-52.582,69.1Z" transform="translate(0 0)" fill="#ddf2fe"/>
    <path id="Trazado_1256682" data-name="Trazado 1256682" d="M24.011,226.462a13.478,13.478,0,0,0,1.07,2.472l-3.515,3.212a.008.008,0,0,0,0,.011l6.222,5.9a.008.008,0,0,0,.011,0l3.515-3.212a15.733,15.733,0,0,0,2.635,1.044l-.046,4.584a.008.008,0,0,0,.008.007l8.883.077a.008.008,0,0,0,.008-.007l.046-4.588a15.7,15.7,0,0,0,2.658-.992l3.448,3.27a.008.008,0,0,0,.011,0l6.34-5.793a.007.007,0,0,0,0-.01l-3.449-3.272a13.576,13.576,0,0,0,1.119-2.454l4.925.043s.008,0,.008-.007l.083-8.27a.008.008,0,0,0-.008-.007l-4.928-.043a13.383,13.383,0,0,0-1.067-2.474l3.513-3.211a.006.006,0,0,0,0-.01l-6.222-5.9a.009.009,0,0,0-.011,0l-3.515,3.212A15.77,15.77,0,0,0,43.12,209l.046-4.584a.008.008,0,0,0-.008-.007l-8.883-.077a.008.008,0,0,0-.008.007l-.045,4.586a15.683,15.683,0,0,0-2.656,1l-3.45-3.272a.009.009,0,0,0-.011,0l-6.34,5.793a.007.007,0,0,0,0,.011l3.449,3.271a13.431,13.431,0,0,0-1.117,2.454h0l-4.927-.043a.008.008,0,0,0-.008.007l-.083,8.27a.008.008,0,0,0,.008.007ZM36.5,213.772c5.248-1.067,10.433,2.028,11.58,6.914S45.9,230.4,40.652,231.467s-10.432-2.028-11.58-6.914,2.179-9.713,7.427-10.781" transform="translate(-5.933 -65.86)" fill="#fff"/>
    <path id="Trazado_1256683" data-name="Trazado 1256683" d="M13.872,275.989a5.186,5.186,0,0,0,.413.955l-1.357,1.241v0l2.4,2.279h0l1.358-1.24a6.021,6.021,0,0,0,1.017.4h0l-.018,1.77,0,0,3.431.03,0,0,.019-1.772a6.04,6.04,0,0,0,1.027-.383l1.33,1.263h0l2.448-2.237v0l-1.331-1.264a5.227,5.227,0,0,0,.431-.947l1.9.016,0,0L27,272.906l0,0-1.9-.017a5.087,5.087,0,0,0-.412-.955l1.357-1.24v0l-2.4-2.279h0l-1.358,1.24a6.024,6.024,0,0,0-1.017-.4l.018-1.77,0,0-3.431-.03,0,0-.017,1.771a6.033,6.033,0,0,0-1.027.385l-1.332-1.264h0L13,270.574v0l1.332,1.263a5.187,5.187,0,0,0-.431.948l-1.9-.016,0,0-.032,3.194,0,0Zm4.823-4.9a3.766,3.766,0,0,1,4.472,2.67,3.506,3.506,0,0,1-2.868,4.164,3.767,3.767,0,0,1-4.472-2.67,3.5,3.5,0,0,1,2.868-4.164" transform="translate(-3.722 -86.202)" fill="#fff"/>
    <path id="Trazado_1256684" data-name="Trazado 1256684" d="M260,159.189v113.66h6.285V243.269h75.688v29.581h4.857V159.189Zm6.285,46h75.688V234.99H266.281Zm0-38.083h75.688v29.806H266.281Z" transform="translate(-80.855 -51.31)" fill="#87c5f4"/>
    <rect id="Rectángulo_454790" data-name="Rectángulo 454790" width="11.067" height="29.768" transform="translate(246.834 115.791)" fill="#2480ef"/>
    <path id="Trazado_1256685" data-name="Trazado 1256685" d="M361.923,204.319a3.005,3.005,0,1,0,3-2.791,2.9,2.9,0,0,0-3,2.791" transform="translate(-112.553 -64.957)" fill="#fff"/>
    <path id="Trazado_1256686" data-name="Trazado 1256686" d="M365.213,206.794a2.194,2.194,0,1,0-2.351-2.188,2.276,2.276,0,0,0,2.351,2.188" transform="translate(-112.845 -65.243)" fill="#ddf2fe"/>
    <rect id="Rectángulo_454791" data-name="Rectángulo 454791" width="7.032" height="14.168" transform="translate(248.794 119.578)" fill="#72b1eb"/>
    <rect id="Rectángulo_454792" data-name="Rectángulo 454792" width="5.932" height="0.23" transform="translate(249.344 132.012)" fill="#ddf2fe"/>
    <rect id="Rectángulo_454793" data-name="Rectángulo 454793" width="5.932" height="0.23" transform="translate(249.344 129.998)" fill="#ddf2fe"/>
    <rect id="Rectángulo_454794" data-name="Rectángulo 454794" width="5.932" height="0.23" transform="translate(249.344 127.983)" fill="#ddf2fe"/>
    <rect id="Rectángulo_454795" data-name="Rectángulo 454795" width="5.932" height="0.23" transform="translate(249.344 123.953)" fill="#ddf2fe"/>
    <rect id="Rectángulo_454796" data-name="Rectángulo 454796" width="5.932" height="0.23" transform="translate(249.344 121.939)" fill="#ddf2fe"/>
    <rect id="Rectángulo_454797" data-name="Rectángulo 454797" width="5.932" height="0.23" transform="translate(249.344 125.968)" fill="#ddf2fe"/>
    <rect id="Rectángulo_454798" data-name="Rectángulo 454798" width="11.067" height="29.768" transform="translate(224.7 115.791)" fill="#abd5f4"/>
    <path id="Trazado_1256687" data-name="Trazado 1256687" d="M329.8,204.319a3.005,3.005,0,1,0,3-2.791,2.9,2.9,0,0,0-3,2.791" transform="translate(-102.563 -64.957)" fill="#fff"/>
    <path id="Trazado_1256688" data-name="Trazado 1256688" d="M333.088,206.794a2.194,2.194,0,1,0-2.351-2.188,2.276,2.276,0,0,0,2.351,2.188" transform="translate(-102.855 -65.243)" fill="#ddf2fe"/>
    <rect id="Rectángulo_454799" data-name="Rectángulo 454799" width="7.032" height="14.168" transform="translate(226.659 119.578)" fill="#fff"/>
    <rect id="Rectángulo_454800" data-name="Rectángulo 454800" width="5.932" height="0.23" transform="translate(227.209 132.012)" fill="#72b1eb"/>
    <rect id="Rectángulo_454801" data-name="Rectángulo 454801" width="5.932" height="0.23" transform="translate(227.209 129.998)" fill="#72b1eb"/>
    <rect id="Rectángulo_454802" data-name="Rectángulo 454802" width="5.932" height="0.23" transform="translate(227.209 127.983)" fill="#72b1eb"/>
    <rect id="Rectángulo_454803" data-name="Rectángulo 454803" width="5.932" height="0.23" transform="translate(227.209 123.953)" fill="#72b1eb"/>
    <rect id="Rectángulo_454804" data-name="Rectángulo 454804" width="5.932" height="0.23" transform="translate(227.209 121.939)" fill="#72b1eb"/>
    <rect id="Rectángulo_454805" data-name="Rectángulo 454805" width="5.932" height="0.23" transform="translate(227.209 125.968)" fill="#72b1eb"/>
    <rect id="Rectángulo_454806" data-name="Rectángulo 454806" width="11.067" height="29.768" transform="translate(235.767 115.791)" fill="#274f8e"/>
    <path id="Trazado_1256689" data-name="Trazado 1256689" d="M345.861,204.319a3.005,3.005,0,1,0,3-2.791,2.9,2.9,0,0,0-3,2.791" transform="translate(-107.558 -64.957)" fill="#fff"/>
    <path id="Trazado_1256690" data-name="Trazado 1256690" d="M349.15,206.794a2.194,2.194,0,1,0-2.351-2.188,2.276,2.276,0,0,0,2.351,2.188" transform="translate(-107.85 -65.243)" fill="#ddf2fe"/>
    <rect id="Rectángulo_454807" data-name="Rectángulo 454807" width="7.032" height="14.168" transform="translate(237.726 119.578)" fill="#72b1eb"/>
    <rect id="Rectángulo_454808" data-name="Rectángulo 454808" width="5.932" height="0.23" transform="translate(238.277 132.012)" fill="#ddf2fe"/>
    <rect id="Rectángulo_454809" data-name="Rectángulo 454809" width="5.932" height="0.23" transform="translate(238.277 129.998)" fill="#ddf2fe"/>
    <rect id="Rectángulo_454810" data-name="Rectángulo 454810" width="5.932" height="0.23" transform="translate(238.277 127.983)" fill="#ddf2fe"/>
    <rect id="Rectángulo_454811" data-name="Rectángulo 454811" width="5.932" height="0.23" transform="translate(238.277 123.953)" fill="#ddf2fe"/>
    <rect id="Rectángulo_454812" data-name="Rectángulo 454812" width="5.932" height="0.23" transform="translate(238.277 121.939)" fill="#ddf2fe"/>
    <rect id="Rectángulo_454813" data-name="Rectángulo 454813" width="5.932" height="0.23" transform="translate(238.277 125.968)" fill="#ddf2fe"/>
    <rect id="Rectángulo_454814" data-name="Rectángulo 454814" width="11.067" height="29.768" transform="translate(226.355 153.893)" fill="#2480ef"/>
    <path id="Trazado_1256691" data-name="Trazado 1256691" d="M338.2,260.544a3.005,3.005,0,1,1-3-2.791,2.9,2.9,0,0,1,3,2.791" transform="translate(-103.31 -83.079)" fill="#fff"/>
    <path id="Trazado_1256692" data-name="Trazado 1256692" d="M335.49,263.019a2.194,2.194,0,1,1,2.351-2.188,2.276,2.276,0,0,1-2.351,2.188" transform="translate(-103.602 -83.366)" fill="#ddf2fe"/>
    <rect id="Rectángulo_454815" data-name="Rectángulo 454815" width="7.032" height="14.168" transform="translate(228.43 157.68)" fill="#72b1eb"/>
    <rect id="Rectángulo_454816" data-name="Rectángulo 454816" width="5.932" height="0.23" transform="translate(228.979 170.115)" fill="#ddf2fe"/>
    <rect id="Rectángulo_454817" data-name="Rectángulo 454817" width="5.932" height="0.23" transform="translate(228.979 168.1)" fill="#ddf2fe"/>
    <rect id="Rectángulo_454818" data-name="Rectángulo 454818" width="5.932" height="0.23" transform="translate(228.979 166.085)" fill="#ddf2fe"/>
    <rect id="Rectángulo_454819" data-name="Rectángulo 454819" width="5.932" height="0.23" transform="translate(228.979 162.057)" fill="#ddf2fe"/>
    <rect id="Rectángulo_454820" data-name="Rectángulo 454820" width="5.932" height="0.23" transform="translate(228.979 160.042)" fill="#ddf2fe"/>
    <rect id="Rectángulo_454821" data-name="Rectángulo 454821" width="5.932" height="0.23" transform="translate(228.979 164.071)" fill="#ddf2fe"/>
    <rect id="Rectángulo_454822" data-name="Rectángulo 454822" width="11.067" height="29.768" transform="translate(210.806 115.809)" fill="#2480ef"/>
    <path id="Trazado_1256693" data-name="Trazado 1256693" d="M315.629,204.347a3.006,3.006,0,1,1-3-2.791,2.9,2.9,0,0,1,3,2.791" transform="translate(-96.292 -64.966)" fill="#fff"/>
    <path id="Trazado_1256694" data-name="Trazado 1256694" d="M312.923,206.821a2.194,2.194,0,1,1,2.351-2.188,2.276,2.276,0,0,1-2.351,2.188" transform="translate(-96.584 -65.252)" fill="#ddf2fe"/>
    <rect id="Rectángulo_454823" data-name="Rectángulo 454823" width="7.032" height="14.168" transform="translate(212.881 119.596)" fill="#72b1eb"/>
    <rect id="Rectángulo_454824" data-name="Rectángulo 454824" width="5.932" height="0.23" transform="translate(213.431 132.031)" fill="#ddf2fe"/>
    <rect id="Rectángulo_454825" data-name="Rectángulo 454825" width="5.932" height="0.23" transform="translate(213.431 130.016)" fill="#ddf2fe"/>
    <rect id="Rectángulo_454826" data-name="Rectángulo 454826" width="5.932" height="0.23" transform="translate(213.431 128.001)" fill="#ddf2fe"/>
    <rect id="Rectángulo_454827" data-name="Rectángulo 454827" width="5.932" height="0.23" transform="translate(213.431 123.972)" fill="#ddf2fe"/>
    <rect id="Rectángulo_454828" data-name="Rectángulo 454828" width="5.932" height="0.23" transform="translate(213.431 121.958)" fill="#ddf2fe"/>
    <rect id="Rectángulo_454829" data-name="Rectángulo 454829" width="5.932" height="0.23" transform="translate(213.431 125.987)" fill="#ddf2fe"/>
    <path id="Trazado_1256695" data-name="Trazado 1256695" d="M363.288,254.041l-10.654,2.79-8.186-27.09L355.1,226.95Z" transform="translate(-107.119 -73.151)" fill="#abd5f4"/>
    <path id="Trazado_1256696" data-name="Trazado 1256696" d="M362.977,258.1a2.771,2.771,0,0,1-2.074,3.442,3.031,3.031,0,0,1-3.7-1.931,2.771,2.771,0,0,1,2.073-3.442,3.032,3.032,0,0,1,3.7,1.931" transform="translate(-111.051 -82.535)" fill="#fff"/>
    <path id="Trazado_1256697" data-name="Trazado 1256697" d="M361.02,261.248a2.38,2.38,0,0,1-2.9-1.514,2.175,2.175,0,0,1,1.626-2.7,2.38,2.38,0,0,1,2.9,1.515,2.175,2.175,0,0,1-1.626,2.7" transform="translate(-111.343 -82.821)" fill="#ddf2fe"/>
    <path id="Trazado_1256698" data-name="Trazado 1256698" d="M359.408,245.262l-6.77,1.773-3.966-13.125,6.77-1.773Z" transform="translate(-108.433 -74.823)" fill="#fff"/>
    <path id="Trazado_1256699" data-name="Trazado 1256699" d="M360.268,249.554l-5.711,1.5-.065-.213,5.711-1.5Z" transform="translate(-110.243 -80.368)" fill="#72b1eb"/>
    <path id="Trazado_1256700" data-name="Trazado 1256700" d="M359.45,246.8l-5.711,1.5-.065-.213,5.711-1.5Z" transform="translate(-109.988 -79.48)" fill="#72b1eb"/>
    <path id="Trazado_1256701" data-name="Trazado 1256701" d="M358.631,244.045l-5.711,1.5-.065-.213,5.711-1.5Z" transform="translate(-109.733 -78.592)" fill="#72b1eb"/>
    <path id="Trazado_1256702" data-name="Trazado 1256702" d="M356.994,238.537l-5.711,1.5-.065-.213,5.711-1.5Z" transform="translate(-109.224 -76.817)" fill="#72b1eb"/>
    <path id="Trazado_1256703" data-name="Trazado 1256703" d="M356.176,235.783l-5.711,1.5-.065-.213,5.711-1.5Z" transform="translate(-108.97 -75.929)" fill="#72b1eb"/>
    <path id="Trazado_1256704" data-name="Trazado 1256704" d="M357.813,241.291l-5.711,1.5-.065-.213,5.711-1.5Z" transform="translate(-109.479 -77.705)" fill="#72b1eb"/>
    <rect id="Rectángulo_454830" data-name="Rectángulo 454830" width="11.067" height="29.768" transform="translate(215.285 153.893)" fill="#abd5f4"/>
    <path id="Trazado_1256705" data-name="Trazado 1256705" d="M322.129,260.544a3.005,3.005,0,1,1-3-2.791,2.9,2.9,0,0,1,3,2.791" transform="translate(-98.313 -83.079)" fill="#fff"/>
    <path id="Trazado_1256706" data-name="Trazado 1256706" d="M319.424,263.019a2.194,2.194,0,1,1,2.351-2.188,2.276,2.276,0,0,1-2.351,2.188" transform="translate(-98.605 -83.366)" fill="#ddf2fe"/>
    <rect id="Rectángulo_454831" data-name="Rectángulo 454831" width="7.032" height="14.168" transform="translate(217.36 157.68)" fill="#fff"/>
    <rect id="Rectángulo_454832" data-name="Rectángulo 454832" width="5.932" height="0.23" transform="translate(217.909 170.115)" fill="#72b1eb"/>
    <rect id="Rectángulo_454833" data-name="Rectángulo 454833" width="5.932" height="0.23" transform="translate(217.909 168.1)" fill="#72b1eb"/>
    <rect id="Rectángulo_454834" data-name="Rectángulo 454834" width="5.932" height="0.23" transform="translate(217.909 166.085)" fill="#72b1eb"/>
    <rect id="Rectángulo_454835" data-name="Rectángulo 454835" width="5.932" height="0.23" transform="translate(217.909 162.057)" fill="#72b1eb"/>
    <rect id="Rectángulo_454836" data-name="Rectángulo 454836" width="5.932" height="0.23" transform="translate(217.909 160.042)" fill="#72b1eb"/>
    <rect id="Rectángulo_454837" data-name="Rectángulo 454837" width="5.932" height="0.23" transform="translate(217.909 164.071)" fill="#72b1eb"/>
    <path id="Trazado_1256707" data-name="Trazado 1256707" d="M192.725,60.188H113.7l-.779-8.246a14.216,14.216,0,0,1,14.536-15.759h46.976a17.845,17.845,0,0,1,17.511,15.759Z" transform="translate(-35.096 -11.663)" fill="#eaa813"/>
    <path id="Trazado_1256708" data-name="Trazado 1256708" d="M158.231,9.916A10.986,10.986,0,0,0,147,22.094a13.789,13.789,0,0,0,13.531,12.177,10.984,10.984,0,0,0,11.232-12.177,13.789,13.789,0,0,0-13.53-12.178m1.682,17.819a6.4,6.4,0,0,1-6.268-5.641,5.094,5.094,0,0,1,5.2-5.641,6.4,6.4,0,0,1,6.267,5.641,5.094,5.094,0,0,1-5.2,5.641" transform="translate(-45.698 -3.196)" fill="#eaa813"/>
    <path id="Trazado_1256709" data-name="Trazado 1256709" d="M217.3,247.045H89.287a10.235,10.235,0,0,1-10.043-9.039L62.11,56.456a8.154,8.154,0,0,1,8.337-9.039h128.01A10.235,10.235,0,0,1,208.5,56.456l17.134,181.551a8.154,8.154,0,0,1-8.337,9.039" transform="translate(-19.303 -15.284)" fill="#164767"/>
    <path id="Trazado_1256710" data-name="Trazado 1256710" d="M221.78,247.045H93.77a10.235,10.235,0,0,1-10.043-9.039L66.593,56.456a8.153,8.153,0,0,1,8.336-9.039H202.94a10.235,10.235,0,0,1,10.043,9.039l17.134,181.551a8.154,8.154,0,0,1-8.337,9.039" transform="translate(-20.697 -15.284)" fill="#2480ef"/>
    <path id="Trazado_1256711" data-name="Trazado 1256711" d="M220.5,230.621H105.181L89.561,65.119H204.883Z" transform="translate(-27.852 -20.989)" fill="#9ce5e5"/>
    <path id="Trazado_1256712" data-name="Trazado 1256712" d="M116.68,221.83,103.46,81.752a4.03,4.03,0,0,1,4.12-4.467h89.473a5.058,5.058,0,0,1,4.963,4.467l13.22,140.078a4.029,4.029,0,0,1-4.12,4.467H121.643a5.058,5.058,0,0,1-4.963-4.467" transform="translate(-32.169 -24.911)" fill="#fff"/>
    <path id="Trazado_1256713" data-name="Trazado 1256713" d="M200.166,60.188H121.144l-.778-8.246A14.215,14.215,0,0,1,134.9,36.183h46.976a17.844,17.844,0,0,1,17.511,15.759Z" transform="translate(-37.411 -11.663)" fill="#ffc121"/>
    <path id="Trazado_1256714" data-name="Trazado 1256714" d="M165.672,9.916A10.986,10.986,0,0,0,154.44,22.094,13.789,13.789,0,0,0,167.97,34.271,10.984,10.984,0,0,0,179.2,22.094a13.789,13.789,0,0,0-13.53-12.178m1.682,17.819a6.4,6.4,0,0,1-6.268-5.641,5.094,5.094,0,0,1,5.2-5.641,6.4,6.4,0,0,1,6.267,5.641,5.094,5.094,0,0,1-5.2,5.641" transform="translate(-48.012 -3.196)" fill="#ffc121"/>
    <path id="Trazado_1256715" data-name="Trazado 1256715" d="M200.2,67.683H121.175l-.778-8.246h79.022Z" transform="translate(-37.442 -19.158)" fill="#ffdc21"/>
    <path id="Trazado_1256716" data-name="Trazado 1256716" d="M196.907,138.631H125.351a1.673,1.673,0,0,1-1.642-1.477,1.333,1.333,0,0,1,1.363-1.477h71.556a1.673,1.673,0,0,1,1.642,1.477,1.333,1.333,0,0,1-1.363,1.477" transform="translate(-38.47 -43.731)" fill="#33c7ca"/>
    <path id="Trazado_1256717" data-name="Trazado 1256717" d="M197.815,148.408H126.259a1.673,1.673,0,0,1-1.642-1.477,1.333,1.333,0,0,1,1.363-1.477h71.556a1.673,1.673,0,0,1,1.642,1.477,1.333,1.333,0,0,1-1.363,1.477" transform="translate(-38.752 -46.883)" fill="#33c7ca"/>
    <path id="Trazado_1256718" data-name="Trazado 1256718" d="M148.421,158.186H127.167a1.673,1.673,0,0,1-1.642-1.477,1.333,1.333,0,0,1,1.363-1.477h21.253a1.673,1.673,0,0,1,1.643,1.477,1.333,1.333,0,0,1-1.363,1.477" transform="translate(-39.035 -50.034)" fill="#33c7ca"/>
    <path id="Trazado_1256719" data-name="Trazado 1256719" d="M212.586,181.434H166.965a1.673,1.673,0,0,1-1.642-1.477,1.333,1.333,0,0,1,1.363-1.477h45.621a1.673,1.673,0,0,1,1.642,1.477,1.333,1.333,0,0,1-1.363,1.477" transform="translate(-51.411 -57.528)" fill="#33c7ca"/>
    <path id="Trazado_1256720" data-name="Trazado 1256720" d="M213.494,191.212H167.873a1.673,1.673,0,0,1-1.642-1.477,1.333,1.333,0,0,1,1.363-1.477h45.621a1.673,1.673,0,0,1,1.642,1.477,1.333,1.333,0,0,1-1.363,1.477" transform="translate(-51.694 -60.679)" fill="#33c7ca"/>
    <path id="Trazado_1256721" data-name="Trazado 1256721" d="M190.035,200.989H168.781a1.673,1.673,0,0,1-1.642-1.477,1.333,1.333,0,0,1,1.363-1.477h21.254a1.673,1.673,0,0,1,1.642,1.477,1.333,1.333,0,0,1-1.363,1.477" transform="translate(-51.976 -63.831)" fill="#33c7ca"/>
    <path id="Trazado_1256722" data-name="Trazado 1256722" d="M145.345,176.32H128.79a1.285,1.285,0,0,0-1.314,1.425l1.536,16.283a1.614,1.614,0,0,0,1.583,1.425h16.555a1.286,1.286,0,0,0,1.315-1.425l-1.537-16.283a1.613,1.613,0,0,0-1.583-1.425m1.089,17.1a.085.085,0,0,1-.088.094H131.034a.107.107,0,0,1-.105-.094l-1.421-15.061a.086.086,0,0,1,.088-.095h15.313a.108.108,0,0,1,.105.095Z" transform="translate(-39.641 -56.832)" fill="#9ce5e5"/>
    <path id="Trazado_1256723" data-name="Trazado 1256723" d="M143.171,189.711l-8.03-5.729,2.181-3.132,4.65,3.318,9.349-13.109,3.391,2.466Z" transform="translate(-42.027 -55.136)" fill="#ffc121"/>
    <path id="Trazado_1256724" data-name="Trazado 1256724" d="M216.206,220.425H170.585a1.673,1.673,0,0,1-1.642-1.477,1.333,1.333,0,0,1,1.363-1.477h45.621a1.673,1.673,0,0,1,1.642,1.477,1.333,1.333,0,0,1-1.363,1.477" transform="translate(-52.537 -70.095)" fill="#33c7ca"/>
    <path id="Trazado_1256725" data-name="Trazado 1256725" d="M217.114,230.2H171.492a1.673,1.673,0,0,1-1.641-1.477,1.333,1.333,0,0,1,1.362-1.477h45.621a1.673,1.673,0,0,1,1.642,1.477,1.333,1.333,0,0,1-1.362,1.477" transform="translate(-52.819 -73.247)" fill="#33c7ca"/>
    <path id="Trazado_1256726" data-name="Trazado 1256726" d="M193.654,239.98H172.4a1.673,1.673,0,0,1-1.642-1.477,1.333,1.333,0,0,1,1.363-1.477h21.254a1.673,1.673,0,0,1,1.642,1.477,1.333,1.333,0,0,1-1.363,1.477" transform="translate(-53.101 -76.398)" fill="#33c7ca"/>
    <path id="Trazado_1256727" data-name="Trazado 1256727" d="M148.964,215.311H132.409a1.285,1.285,0,0,0-1.314,1.425l1.536,16.283a1.614,1.614,0,0,0,1.583,1.425H150.77a1.286,1.286,0,0,0,1.315-1.425l-1.537-16.283a1.613,1.613,0,0,0-1.583-1.425m1.089,17.1a.085.085,0,0,1-.088.094H134.653a.107.107,0,0,1-.105-.094l-1.421-15.061a.086.086,0,0,1,.088-.095h15.313a.108.108,0,0,1,.105.095Z" transform="translate(-40.767 -69.399)" fill="#9ce5e5"/>
    <path id="Trazado_1256728" data-name="Trazado 1256728" d="M146.791,228.7l-8.03-5.729,2.181-3.132,4.65,3.318,9.348-13.109,3.391,2.466Z" transform="translate(-43.153 -67.704)" fill="#ffc121"/>
    <path id="Trazado_1256729" data-name="Trazado 1256729" d="M219.825,259.417H174.2a1.673,1.673,0,0,1-1.642-1.477,1.333,1.333,0,0,1,1.363-1.477h45.621a1.673,1.673,0,0,1,1.642,1.477,1.333,1.333,0,0,1-1.363,1.477" transform="translate(-53.662 -82.663)" fill="#33c7ca"/>
    <path id="Trazado_1256730" data-name="Trazado 1256730" d="M220.733,269.194H175.112a1.673,1.673,0,0,1-1.642-1.477,1.333,1.333,0,0,1,1.363-1.477h45.621a1.673,1.673,0,0,1,1.642,1.477,1.333,1.333,0,0,1-1.363,1.477" transform="translate(-53.945 -85.815)" fill="#33c7ca"/>
    <path id="Trazado_1256731" data-name="Trazado 1256731" d="M197.274,278.972H176.019a1.673,1.673,0,0,1-1.641-1.477,1.333,1.333,0,0,1,1.363-1.477h21.254a1.673,1.673,0,0,1,1.642,1.477,1.333,1.333,0,0,1-1.363,1.477" transform="translate(-54.227 -88.966)" fill="#33c7ca"/>
    <path id="Trazado_1256732" data-name="Trazado 1256732" d="M152.583,254.3H136.028a1.285,1.285,0,0,0-1.314,1.425l1.537,16.283a1.614,1.614,0,0,0,1.583,1.425h16.555a1.286,1.286,0,0,0,1.315-1.425l-1.537-16.283a1.613,1.613,0,0,0-1.583-1.425m1.089,17.1a.085.085,0,0,1-.087.094H138.272a.107.107,0,0,1-.105-.094l-1.421-15.061a.086.086,0,0,1,.087-.095h15.313a.108.108,0,0,1,.105.095Z" transform="translate(-41.892 -81.967)" fill="#9ce5e5"/>
    <path id="Trazado_1256733" data-name="Trazado 1256733" d="M150.41,267.693l-8.03-5.729,2.181-3.132,4.65,3.318,9.349-13.109,3.391,2.466Z" transform="translate(-44.278 -80.272)" fill="#ffc121"/>
    <path id="Trazado_1256734" data-name="Trazado 1256734" d="M120.208,92.87l1.822,19.788h3.825L124.033,92.87Z" transform="translate(-37.383 -29.934)" fill="#33c7ca"/>
    <path id="Trazado_1256735" data-name="Trazado 1256735" d="M137.841,104.087a11.821,11.821,0,0,0-2.111-2.669l-1.74-1.689a8.471,8.471,0,0,1-1.167-1.3,2.687,2.687,0,0,1-.367-1.237,1.909,1.909,0,0,1,.119-1.1c.036-.062.131-.227.552-.227a.57.57,0,0,1,.576.348,5.479,5.479,0,0,1,.378,1.819l.163,1.754h3.6l-.152-1.65a8.517,8.517,0,0,0-1.224-4.081,3.987,3.987,0,0,0-3.524-1.519,3.946,3.946,0,0,0-3.418,1.326,5.525,5.525,0,0,0-.676,3.773,6.408,6.408,0,0,0,.844,2.719,10.3,10.3,0,0,0,1.82,2.215l1.552,1.439a8.035,8.035,0,0,1,1.477,1.752,4.574,4.574,0,0,1,.57,1.9,3.756,3.756,0,0,1-.061,1.526c-.029.079-.09.24-.532.24a.685.685,0,0,1-.687-.4,5.981,5.981,0,0,1-.429-2.058l-.213-2.3h-3.672l.2,2.165a8.783,8.783,0,0,0,1.35,4.336,4.218,4.218,0,0,0,3.652,1.6c1.669,0,2.826-.5,3.438-1.477a6.779,6.779,0,0,0,.61-4.191,7.574,7.574,0,0,0-.921-3.009" transform="translate(-40.054 -29.827)" fill="#33c7ca"/>
    <path id="Trazado_1256736" data-name="Trazado 1256736" d="M152.9,98.137a7.41,7.41,0,0,0-1.435-4.118,4.522,4.522,0,0,0-3.673-1.483,4.22,4.22,0,0,0-3.236,1.189c-.88.948-1.232,2.459-1.045,4.49l.8,8.648a7.8,7.8,0,0,0,1.514,4.372,4.611,4.611,0,0,0,3.714,1.529A3.822,3.822,0,0,0,153,111.2a6.94,6.94,0,0,0,.692-4.411Zm-4.75,8.68L147.334,98a4.051,4.051,0,0,1,.093-1.752c.068-.174.185-.335.575-.335a.651.651,0,0,1,.661.373,5.428,5.428,0,0,1,.391,1.8l.811,8.81a6.615,6.615,0,0,1-.024,2.147c-.061.216-.175.349-.556.349a.688.688,0,0,1-.71-.4h0a6.854,6.854,0,0,1-.429-2.171" transform="translate(-44.613 -29.827)" fill="#33c7ca"/>
    <path id="Trazado_1256737" data-name="Trazado 1256737" d="M173.7,98.825a16.984,16.984,0,0,0-.582-3.322,4.154,4.154,0,0,0-1.485-2.173,5.114,5.114,0,0,0-3.076-.793,4.039,4.039,0,0,0-3.107,1.132c-.845.913-1.144,2.572-.914,5.073l.063.688a9.371,9.371,0,0,0,1.275,4.406,3.684,3.684,0,0,0,3.257,1.581,4.648,4.648,0,0,0,1.355-.171l.2,2.2a7.949,7.949,0,0,1,.072,1.508c-.044.146-.1.3-.145.4a.881.881,0,0,1-.414.058.535.535,0,0,1-.542-.338,7.212,7.212,0,0,1-.418-2.183l-.074-.8h-3.661l.139,1.513a6.427,6.427,0,0,0,1.417,3.912,4.531,4.531,0,0,0,3.432,1.246,3.591,3.591,0,0,0,3.282-1.557c.624-.991.825-2.572.617-4.831Zm-3.537,2.833c-.02.272-.089.516-.7.516a.648.648,0,0,1-.656-.369,6.037,6.037,0,0,1-.412-2.024l-.155-1.686a4.98,4.98,0,0,1,.055-1.855c.065-.2.172-.319.506-.319a.635.635,0,0,1,.639.369,5.394,5.394,0,0,1,.4,1.852Z" transform="translate(-51.146 -29.827)" fill="#33c7ca"/>
    <path id="Trazado_1256738" data-name="Trazado 1256738" d="M189.686,97.933a6.663,6.663,0,0,0-1.5-4,4.878,4.878,0,0,0-3.75-1.4,4.152,4.152,0,0,0-3.552,1.433,5.823,5.823,0,0,0-.781,4.042l.831,9.035a7.442,7.442,0,0,0,1.5,4.219,4.718,4.718,0,0,0,3.782,1.51,3.988,3.988,0,0,0,3.564-1.551,6.55,6.55,0,0,0,.739-4.258Zm-4.942,9.089L183.9,97.8c-.119-1.3.074-1.6.113-1.641.228-.264.4-.264.451-.264a3.18,3.18,0,0,1,.52.028c.582.15.8,1.153.878,1.967l.847,9.208c.132,1.431-.03,1.87-.107,1.994a.671.671,0,0,1-.639.32.87.87,0,0,1-.741-.343,4.385,4.385,0,0,1-.474-2.05" transform="translate(-55.994 -29.827)" fill="#33c7ca"/>
    <path id="Trazado_1256739" data-name="Trazado 1256739" d="M205.7,97.933a6.663,6.663,0,0,0-1.5-4,4.878,4.878,0,0,0-3.75-1.4,4.152,4.152,0,0,0-3.552,1.433,5.823,5.823,0,0,0-.781,4.042l.831,9.035a7.442,7.442,0,0,0,1.5,4.219,4.718,4.718,0,0,0,3.782,1.51,3.988,3.988,0,0,0,3.564-1.551,6.55,6.55,0,0,0,.739-4.258Zm-4.942,9.089-.848-9.218c-.119-1.3.074-1.6.113-1.641.228-.264.4-.264.451-.264a3.18,3.18,0,0,1,.52.028c.582.15.8,1.153.878,1.967l.847,9.208c.132,1.431-.03,1.87-.107,1.994a.671.671,0,0,1-.638.32.87.87,0,0,1-.741-.343,4.386,4.386,0,0,1-.474-2.05" transform="translate(-60.974 -29.827)" fill="#33c7ca"/>
    <path id="Trazado_1256740" data-name="Trazado 1256740" d="M216.75,92.854h-3l-.1.3a2.945,2.945,0,0,1-.978,1.417,3.072,3.072,0,0,1-1.48.65l-.42.06.271,2.953h.409a4.229,4.229,0,0,0,1.468-.27,3.243,3.243,0,0,0,.46-.21l1.372,14.9h3.825Z" transform="translate(-65.546 -29.929)" fill="#33c7ca"/>
    <path id="Trazado_1256741" data-name="Trazado 1256741" d="M351.424,441.633c0,3.261-22.36,5.9-49.942,5.9s-49.942-2.643-49.942-5.9,22.36-5.9,49.942-5.9,49.942,2.643,49.942,5.9" transform="translate(-78.226 -140.445)" fill="#ddf2fe"/>
    <path id="Trazado_1256742" data-name="Trazado 1256742" d="M294.564,295.068l5.012,3.892c1.927-1.83,14.69-8.335,15.169-13.112a5.791,5.791,0,0,0-1.4-4.82c-2.621-2.532-5.612-1.954-7.957.22-2.555,2.369-10.822,13.819-10.822,13.819" transform="translate(-91.605 -90.044)" fill="#164767"/>
    <path id="Trazado_1256743" data-name="Trazado 1256743" d="M308.043,436.733h-4l-.351-4.117h4Z" transform="translate(-94.443 -139.442)" fill="#e7afa7"/>
    <path id="Trazado_1256744" data-name="Trazado 1256744" d="M362.036,436.733h-4l-1.566-4.117h4Z" transform="translate(-110.856 -139.442)" fill="#e7afa7"/>
    <path id="Trazado_1256745" data-name="Trazado 1256745" d="M324.024,276.4l7.559-.1-3.18-8.486-4.237,1.061Z" transform="translate(-100.767 -86.323)" fill="#f79889"/>
    <path id="Trazado_1256746" data-name="Trazado 1256746" d="M333.67,312.811l3.267-32.367a3.183,3.183,0,0,0-2.928-3.365l-19.624,1.576a2.731,2.731,0,0,0-2.864,2.9l2.686,31.259Z" transform="translate(-96.877 -89.309)" fill="#164767"/>
    <path id="Trazado_1256747" data-name="Trazado 1256747" d="M330.361,329.806l-7.49,9.751-14.5,61.256H300.9l9.886-71.007Z" transform="translate(-93.576 -106.304)" fill="#1eafaf"/>
    <path id="Trazado_1256748" data-name="Trazado 1256748" d="M320.487,329.806l1.781,8.236a4.657,4.657,0,0,0,4.6,3.767l16.866,59h7.3l-14.582-71.007Z" transform="translate(-99.667 -106.304)" fill="#33c7ca"/>
    <path id="Trazado_1256749" data-name="Trazado 1256749" d="M332.793,260.2a1.369,1.369,0,1,0,1.3-1.414,1.361,1.361,0,0,0-1.3,1.414" transform="translate(-103.494 -83.411)" fill="#f79889"/>
    <path id="Trazado_1256750" data-name="Trazado 1256750" d="M322.081,249.931a4.282,4.282,0,0,0-2.621,1.67,4.044,4.044,0,0,0-.76,2.565h0l.163,4.938a5.651,5.651,0,0,0,5.605,5.518,5.483,5.483,0,0,0,5.185-5.861l-.143-4.554V254.2s-.314-5.362-7.429-4.27" transform="translate(-99.11 -80.511)" fill="#f79889"/>
    <path id="Trazado_1256751" data-name="Trazado 1256751" d="M329.676,260.733c-2.179,4.2-4.091,1.543-6.4,1.738-1.911.161-3.232,2.789-4.342-.876-.166,5.707,2.627,6.657,5.605,6.555,3.019-.1,5.942-1.155,5.137-7.417" transform="translate(-99.182 -84.04)" fill="#164767"/>
    <path id="Trazado_1256752" data-name="Trazado 1256752" d="M298.857,435.937l2.2.951,2.048-.951,1.837,5.9H287.91c0-2.949,6.405-2.949,6.405-2.949Z" transform="translate(-89.536 -140.512)" fill="#164767"/>
    <path id="Trazado_1256753" data-name="Trazado 1256753" d="M352.889,435.937l2.2.951,2.047-.951,1.838,5.9H341.942c0-2.949,6.405-2.949,6.405-2.949Z" transform="translate(-106.339 -140.512)" fill="#164767"/>
    <path id="Trazado_1256754" data-name="Trazado 1256754" d="M208.141,256.3a26.471,26.471,0,0,0,11.172,36.111,27.367,27.367,0,0,0,36.715-10.989,26.47,26.47,0,0,0-11.173-36.11A27.366,27.366,0,0,0,208.141,256.3m41.417,21.728a19.994,19.994,0,0,1-26.794,8.02,19.34,19.34,0,0,1-8.154-26.354,20,20,0,0,1,26.794-8.02,19.34,19.34,0,0,1,8.154,26.354" transform="translate(-63.734 -78.054)" fill="#ffc121"/>
    <path id="Trazado_1256807" data-name="Trazado 1256807" d="M.359.062,7.847.113,8.182,49,.694,48.952Z" transform="translate(185.761 204.552) rotate(-61.926)" fill="#ffc121"/>
    <path id="Trazado_1256755" data-name="Trazado 1256755" d="M334.953,327.3h0a7.65,7.65,0,0,1-10.263,3.072l-23.648-12.406,7.14-13.166,23.648,12.406a7.4,7.4,0,0,1,3.123,10.094" transform="translate(-93.62 -98.244)" fill="#2480ef"/>
    <path id="Trazado_1256756" data-name="Trazado 1256756" d="M331.621,330.072h0a1.812,1.812,0,0,0,2.567-.191l2.27-2.988,2.2-1.071-2.732-2.437-1.023.392a5.14,5.14,0,0,0-2.679,2.284L331.138,328a1.648,1.648,0,0,0,.482,2.071" transform="translate(-102.921 -104.234)" fill="#f79889"/>
    <path id="Trazado_1256757" data-name="Trazado 1256757" d="M341.777,321.464l13.8-11.226-5.989-4.626-12.469,11.655Z" transform="translate(-104.839 -98.506)" fill="#164767"/>
    <path id="Trazado_1256758" data-name="Trazado 1256758" d="M354.185,305.912a4.346,4.346,0,0,0,5.073,3.425,4.284,4.284,0,0,0,3.482-4.989,4.347,4.347,0,0,0-5.073-3.425,4.285,4.285,0,0,0-3.482,4.989" transform="translate(-110.124 -96.971)" fill="#164767"/>
    <path id="Trazado_1256759" data-name="Trazado 1256759" d="M349.245,297.5l7.831-1.694c-1.292-2.307-7.825-16.408-12.388-18.11a6.042,6.042,0,0,0-5.1.072c-3.169,1.827-3.384,4.818-1.863,7.612,1.657,3.045,11.516,12.121,11.516,12.121" transform="translate(-104.745 -89.336)" fill="#164767"/>
    <path id="Trazado_1256760" data-name="Trazado 1256760" d="M277.974,305.568l.121.376a7.865,7.865,0,0,0,10.059,4.957Z" transform="translate(-86.446 -98.491)" fill="#164767"/>
    <path id="Trazado_1256761" data-name="Trazado 1256761" d="M281.214,304.332a3.219,3.219,0,0,0-3.125.552.537.537,0,0,0,.082.893l3.986,2.13a.546.546,0,0,0,.783-.307,2.686,2.686,0,0,0-1.726-3.268" transform="translate(-86.419 -98.033)" fill="#f79889"/>
    <path id="Trazado_1256762" data-name="Trazado 1256762" d="M278.859,305.884l-1.317-.7a.471.471,0,0,1-.251-.423l.017-.985a.775.775,0,0,1,1.55.014Z" transform="translate(-86.234 -97.672)" fill="#f79889"/>
    <path id="Trazado_1256763" data-name="Trazado 1256763" d="M329.709,247.546a1.666,1.666,0,0,0-.178-.108c-.7-.363-1.127.03-1.8.046a3.49,3.49,0,0,1-2.012-.765,7.472,7.472,0,0,0-2.4-1.449,2.762,2.762,0,0,0-2.6.794c-.551.582-.593,1.452-1.108,2.057-.251.295-.655.338-.973.558a2.264,2.264,0,0,0-.869,2.655c.064.181.331,1.311.614,1.166.426-.22.428-.812.673-1.218a1.752,1.752,0,0,1,1.8-.6,18.684,18.684,0,0,0,1.972.426,10.535,10.535,0,0,0,2.715-.581,2.242,2.242,0,0,1,2.483.745,2.336,2.336,0,0,1,.09,1.584,2.746,2.746,0,0,0-.028,1.978,1.54,1.54,0,0,0,2.626-.26,3.751,3.751,0,0,0,.424-1.648,10.453,10.453,0,0,0-.4-3.7,3.027,3.027,0,0,0-1.022-1.683" transform="translate(-98.778 -79.033)" fill="#164767"/>
    <path id="Trazado_1256764" data-name="Trazado 1256764" d="M149.967,428.706c0,3.49-23.934,6.319-53.457,6.319s-53.458-2.829-53.458-6.319,23.934-6.319,53.458-6.319,53.457,2.829,53.457,6.319" transform="translate(-13.389 -136.145)" fill="#ddf2fe"/>
    <path id="Trazado_1256765" data-name="Trazado 1256765" d="M105.52,215.341a8.311,8.311,0,0,0-7.022,1.433c-1.193.964-2.081,2.308-3.444,3.02s-3.093.715-4.328,1.645a4.881,4.881,0,0,0-1.621,4.143c.058,1.537.523,3.029.726,4.554.465,3.483-1.592,5.541-3.708,8.042a11.112,11.112,0,0,0-2.842,5.786,5.17,5.17,0,0,0,5.124,6.2c2.121.058,4.142-.8,6.195-1.328s4.431-.682,6.114.591c.486.367.888.837,1.4,1.171,1.791,1.174,4.381.232,5.644-1.482s1.522-3.937,1.634-6.051a46.931,46.931,0,0,0-.054-5.734,12.042,12.042,0,0,1,1.222-5.316c.544-1.374,1.42-2.5,1.978-3.865,1.872-4.566-.5-9.724-4.833-12.005a8.923,8.923,0,0,0-2.183-.8" transform="translate(-25.888 -69.335)" fill="#164767"/>
    <path id="Trazado_1256766" data-name="Trazado 1256766" d="M125.288,270.57l6.148-3.659-9.22-17.307a4.04,4.04,0,0,0-5.806-1.7c-2.058,1.29-2.909,5.659-1.556,8.964s10.434,13.7,10.434,13.7" transform="translate(-35.514 -79.706)" fill="#33c7ca"/>
    <path id="Trazado_1256767" data-name="Trazado 1256767" d="M111.37,248.324l-4.931-.794,1.247-8.421,4.931.794Z" transform="translate(-33.101 -77.07)" fill="#f79889"/>
    <path id="Trazado_1256768" data-name="Trazado 1256768" d="M114,224.548c.579,1.98,2.48,3.481,2.418,5.059l-.155.677c-.012.029-.023.058-.037.087l.021-.015-.47,2.054a4.907,4.907,0,0,1-5.861,3.648,4.823,4.823,0,0,1-3.709-5.765l.529-2.312c1.172-2.1,5.331-.622,7.264-3.433" transform="translate(-32.991 -72.377)" fill="#f79889"/>
    <path id="Trazado_1256769" data-name="Trazado 1256769" d="M101.075,275.719l-5.427-23.072a3.183,3.183,0,0,1,3.044-3.654l13.541-1.761a3.194,3.194,0,0,1,3.353,3.382l2.272,25.106Z" transform="translate(-29.733 -79.687)" fill="#9ce5e5"/>
    <path id="Trazado_1256770" data-name="Trazado 1256770" d="M114.39,289.27l-8.5,13.474,23.7,75.737h4.9s-11.006-78.255-13.534-89.211Z" transform="translate(-32.931 -93.238)" fill="#eaa813"/>
    <path id="Trazado_1256771" data-name="Trazado 1256771" d="M109.944,289.27C108.669,326.016,96.3,378.481,96.3,378.481H91.6c-.092-11.328.684-65.756,1.45-70.56A42.032,42.032,0,0,1,96.1,297.572c1.363-3.085,1.7-5.607,3.727-8.3h10.117Z" transform="translate(-28.485 -93.238)" fill="#ffc121"/>
    <path id="Trazado_1256772" data-name="Trazado 1256772" d="M142.579,424.866h3.059l-.912-3.954h-3.666Z" transform="translate(-43.868 -135.669)" fill="#f79889"/>
    <path id="Trazado_1256773" data-name="Trazado 1256773" d="M92.924,424.866h3.059l.2-3.954H92.515Z" transform="translate(-28.771 -135.669)" fill="#f79889"/>
    <path id="Trazado_1256774" data-name="Trazado 1256774" d="M116.9,263.282a4.205,4.205,0,1,0,4.572-3.741,4.155,4.155,0,0,0-4.572,3.741" transform="translate(-36.35 -83.65)" fill="#9ce5e5"/>
    <path id="Trazado_1256775" data-name="Trazado 1256775" d="M115.091,247.345l-1.355,8.8-7.674-7.647Z" transform="translate(-32.984 -79.725)" fill="#f79889"/>
    <path id="Trazado_1256776" data-name="Trazado 1256776" d="M106.918,231.169a1.756,1.756,0,1,1-1.709-1.771,1.742,1.742,0,0,1,1.709,1.771" transform="translate(-32.158 -73.94)" fill="#f79889"/>
    <path id="Trazado_1256777" data-name="Trazado 1256777" d="M145.926,424.379l-1.559.673-2.458-.673-1.3,4.172h13.057c0-2.086-4.528-2.086-4.528-2.086Z" transform="translate(-43.728 -136.787)" fill="#164767"/>
    <path id="Trazado_1256778" data-name="Trazado 1256778" d="M95.769,424.379l-1.559.673-2.458-.673-1.3,4.172H103.51c0-2.086-4.529-2.086-4.529-2.086Z" transform="translate(-28.13 -136.787)" fill="#164767"/>
    <path id="Trazado_1256779" data-name="Trazado 1256779" d="M140.252,268.931l.158.416a8.638,8.638,0,0,1-5.425,11.254Z" transform="translate(-41.979 -86.682)" fill="#33c7ca"/>
    <path id="Trazado_1256780" data-name="Trazado 1256780" d="M124.857,283.949l-14.7-1.326,9.329-20.064,14.7,1.326Z" transform="translate(-34.258 -84.628)" fill="#006cff"/>
    <path id="Trazado_1256781" data-name="Trazado 1256781" d="M138.259,269.827a3,3,0,0,1,2.635-1.37.51.51,0,0,1,.465.708l-1.7,3.843a.514.514,0,0,1-.76.218,2.5,2.5,0,0,1-.644-3.4" transform="translate(-42.872 -86.529)" fill="#f79889"/>
    <path id="Trazado_1256782" data-name="Trazado 1256782" d="M141.775,269.458l.562-1.268a.439.439,0,0,0-.063-.456l-.592-.718a.736.736,0,0,0-1.014-.113.708.708,0,0,0-.125,1Z" transform="translate(-43.659 -85.98)" fill="#f79889"/>
    <path id="Trazado_1256783" data-name="Trazado 1256783" d="M118.821,274.065h0a1.687,1.687,0,0,1-1.725,1.779l-3.905-.057-3.209,1.237-.395-3.42,1.921-.765a5.716,5.716,0,0,1,3.56-.652l2.3.327a1.686,1.686,0,0,1,1.456,1.552" transform="translate(-34.08 -87.713)" fill="#f79889"/>
    <path id="Trazado_1256784" data-name="Trazado 1256784" d="M114.1,271.756l2.2.525a.458.458,0,0,0,.468,0l1.093-.661a.709.709,0,0,0,.243-.975.735.735,0,0,0-1-.25Z" transform="translate(-35.484 -87.121)" fill="#f79889"/>
    <path id="Trazado_1256785" data-name="Trazado 1256785" d="M103.245,277.877l-14.8,6.394-.521-8.569,15.023-1.906Z" transform="translate(-27.343 -88.25)" fill="#33c7ca"/>
    <path id="Trazado_1256786" data-name="Trazado 1256786" d="M87.786,273.515,80.622,271.4l9.727-18.913a4.039,4.039,0,0,1,5.764-1.834c2.088,1.241,3.045,5.59,1.772,8.926s-10.1,13.94-10.1,13.94" transform="translate(-25.072 -80.606)" fill="#33c7ca"/>
    <path id="Trazado_1256787" data-name="Trazado 1256787" d="M87.3,284.687a4.206,4.206,0,0,1-5.877,0,4.041,4.041,0,0,1,0-5.781,4.206,4.206,0,0,1,5.877,0,4.039,4.039,0,0,1,0,5.781" transform="translate(-24.943 -89.512)" fill="#33c7ca"/>
    <path id="Trazado_1256788" data-name="Trazado 1256788" d="M357.056,103.18H304.34a1.835,1.835,0,0,1-1.845-1.815V56.274a1.835,1.835,0,0,1,1.845-1.814h52.716a1.835,1.835,0,0,1,1.845,1.814v45.091a1.835,1.835,0,0,1-1.845,1.815" transform="translate(-94.072 -17.554)" fill="#33c7ca"/>
    <path id="Trazado_1256789" data-name="Trazado 1256789" d="M324.452,104.021h-5.3a1.618,1.618,0,0,1-1.632-1.6v-17a1.618,1.618,0,0,1,1.632-1.6h5.3a1.618,1.618,0,0,1,1.632,1.6v17a1.618,1.618,0,0,1-1.632,1.6" transform="translate(-98.743 -27.014)" fill="#fff"/>
    <path id="Trazado_1256790" data-name="Trazado 1256790" d="M326.061,88.268a1.383,1.383,0,1,1-1.384-1.361,1.372,1.372,0,0,1,1.384,1.361" transform="translate(-100.54 -28.012)" fill="#9ce5e5"/>
    <path id="Trazado_1256791" data-name="Trazado 1256791" d="M358.8,85.393a2.467,2.467,0,0,0-1.718-2.249,3.345,3.345,0,0,0,1.7-2.726c0-1.818-1.833-3.239-3.787-3.239h-7.073a1.139,1.139,0,0,1-1.094-1.5c.528-1.5,1.578-3.483,1.578-4.879,0-1.826-.255-3.429-1.8-4.646a1.96,1.96,0,0,0-1.763-.414,2.047,2.047,0,0,0-1.212,1.393,12.362,12.362,0,0,0-.3,1.88,7.611,7.611,0,0,1-1.239,3.125,15.323,15.323,0,0,1-2.515,2.381,8.467,8.467,0,0,0-1.855,2.824,3.9,3.9,0,0,1-3.6,2.375h-1.361V97.177h19.759c1.582,0,3.291-1.009,3.291-2.5a2.578,2.578,0,0,0-1.035-2.146s2.567-.586,2.567-2.1a2.609,2.609,0,0,0-1.113-2.188s2.566-1.134,2.566-2.856" transform="translate(-103.487 -21.165)" fill="#fff"/>
    <path id="Trazado_1256792" data-name="Trazado 1256792" d="M305.54,30.31h-61.1A1.835,1.835,0,0,1,242.6,28.5V4.064a1.835,1.835,0,0,1,1.844-1.815h61.1a1.835,1.835,0,0,1,1.845,1.815V28.5a1.835,1.835,0,0,1-1.845,1.815" transform="translate(-75.444 -0.725)" fill="#9ce5e5"/>
    <path id="Trazado_1256793" data-name="Trazado 1256793" d="M304.667,13.95H272.46a1.478,1.478,0,1,1,0-2.955h32.207a1.478,1.478,0,1,1,0,2.955" transform="translate(-84.264 -3.544)" fill="#fff"/>
    <path id="Trazado_1256794" data-name="Trazado 1256794" d="M304.667,23.728H272.46a1.478,1.478,0,1,1,0-2.955h32.207a1.478,1.478,0,1,1,0,2.955" transform="translate(-84.264 -6.696)" fill="#fff"/>
    <path id="Trazado_1256795" data-name="Trazado 1256795" d="M293.715,33.506H272.461a1.478,1.478,0,1,1,0-2.955h21.254a1.478,1.478,0,1,1,0,2.955" transform="translate(-84.264 -9.847)" fill="#fff"/>
    <path id="Trazado_1256796" data-name="Trazado 1256796" d="M261.167,12.238a2,2,0,1,1-2-1.97,1.987,1.987,0,0,1,2,1.97" transform="translate(-79.974 -3.31)" fill="#fff"/>
    <path id="Trazado_1256797" data-name="Trazado 1256797" d="M261.167,22.016a2,2,0,1,1-2-1.97,1.987,1.987,0,0,1,2,1.97" transform="translate(-79.974 -6.461)" fill="#fff"/>
    <path id="Trazado_1256798" data-name="Trazado 1256798" d="M261.167,31.793a2,2,0,1,1-2-1.97,1.987,1.987,0,0,1,2,1.97" transform="translate(-79.974 -9.613)" fill="#fff"/>
    <path id="Trazado_1256799" data-name="Trazado 1256799" d="M240.621,191.407l-3.432-9.687-9.493,4.249,14.611-33.6,12.924,5.437Z" transform="translate(-70.81 -49.114)" fill="#ffc121"/>
    <path id="Trazado_1256800" data-name="Trazado 1256800" d="M275.329,191.407l3.432-9.687,9.493,4.249-14.611-33.6-12.924,5.437Z" transform="translate(-81.08 -49.114)" fill="#ffc121"/>
    <path id="Trazado_1256801" data-name="Trazado 1256801" d="M252.75,117.78l2.879,2.745,3.6-1.735,1.877,3.485,3.969-.556.69,3.885,3.95.678-.565,3.9,3.544,1.845-1.764,3.542,2.79,2.832-2.79,2.832,1.764,3.542-3.544,1.845.565,3.9-3.95.678-.69,3.886-3.969-.556-1.877,3.486-3.6-1.736-2.879,2.745-2.879-2.745-3.6,1.736-1.876-3.486-3.969.556-.69-3.886-3.95-.678.565-3.9L232.8,144.78l1.764-3.542-2.79-2.832,2.79-2.832-1.764-3.542,3.544-1.845-.565-3.9,3.95-.678.69-3.885,3.969.556,1.876-3.485,3.6,1.735Z" transform="translate(-72.08 -37.963)" fill="#164767"/>
    <path id="Trazado_1256802" data-name="Trazado 1256802" d="M269.978,141.6a14.151,14.151,0,1,1-14.149-13.916A14.034,14.034,0,0,1,269.978,141.6" transform="translate(-75.159 -41.155)" fill="#fff"/>
    <path id="Trazado_1256803" data-name="Trazado 1256803" d="M257.142,152.236l-6.6-4.709,1.793-2.574,3.822,2.727,7.683-10.774,2.787,2.027Z" transform="translate(-77.915 -44.128)" fill="#2480ef"/>
    <path id="Trazado_1256804" data-name="Trazado 1256804" d="M305.3,112.534l2.328,5.76,6.289.4-4.851,3.958,1.559,6.006-5.326-3.315-5.326,3.315,1.559-6.006-4.851-3.958,6.289-.4Z" transform="translate(-92.264 -36.272)" fill="#ffc121"/>
    <path id="Trazado_1256805" data-name="Trazado 1256805" d="M337.951,112.534l2.328,5.76,6.289.4-4.851,3.958,1.559,6.006-5.326-3.315-5.326,3.315,1.559-6.006-4.851-3.958,6.289-.4Z" transform="translate(-102.418 -36.272)" fill="#ffc121"/>
    <path id="Trazado_1256806" data-name="Trazado 1256806" d="M370.6,112.534l2.328,5.76,6.289.4-4.851,3.958,1.559,6.006-5.326-3.315-5.326,3.315,1.559-6.006-4.851-3.958,6.289-.4Z" transform="translate(-112.573 -36.272)" fill="#ffc121"/>
  </g>
</svg>
