<svg xmlns="http://www.w3.org/2000/svg" xmlns:xlink="http://www.w3.org/1999/xlink" width="96" height="96" viewBox="0 0 96 96">
  <defs>
    <clipPath id="clip-path">
      <rect id="Rectángulo_454682" data-name="Rectángulo 454682" width="96" height="96" fill="#feea89"/>
    </clipPath>
    <clipPath id="clip-path-2">
      <rect id="Rectángulo_455940" data-name="Rectángulo 455940" width="60" height="60" transform="translate(8605 -9827)" fill="#fff" stroke="#707070" stroke-width="1"/>
    </clipPath>
    <clipPath id="clip-path-3">
      <rect id="Rectángulo_455973" data-name="Rectángulo 455973" width="52" height="53.238" fill="#fff"/>
    </clipPath>
  </defs>
  <g id="Grupo_1204866" data-name="Grupo 1204866" transform="translate(-735.711 -1855)">
    <g id="Grupo_1204263" data-name="Grupo 1204263" transform="translate(3.965 -6763)">
      <g id="Grupo_1203592" data-name="Grupo 1203592" transform="translate(731.746 8618)">
        <g id="Grupo_1203487" data-name="Grupo 1203487">
          <g id="Grupo_1203486" data-name="Grupo 1203486" clip-path="url(#clip-path)">
            <path id="Trazado_1256437" data-name="Trazado 1256437" d="M2.058,84.327a47.583,47.583,0,0,0,1.836,6.227L23,71.45a25.883,25.883,0,0,1,4.958-13.021Z" transform="translate(-0.911 -25.866)" fill="#feea89"/>
            <path id="Trazado_1256438" data-name="Trazado 1256438" d="M90.555,3.894a47.583,47.583,0,0,0-6.227-1.836l-25.9,25.9A25.886,25.886,0,0,1,71.451,23Z" transform="translate(-25.866 -0.911)" fill="#feea89"/>
            <path id="Trazado_1256439" data-name="Trazado 1256439" d="M117.575,12.855a48.029,48.029,0,0,0-5.022-3.041L95.523,26.843a25.831,25.831,0,0,1,6.031,2.032Z" transform="translate(-42.287 -4.345)" fill="#feea89"/>
            <path id="Trazado_1256440" data-name="Trazado 1256440" d="M9.814,112.552a47.933,47.933,0,0,0,3.041,5.022l16.021-16.021a25.831,25.831,0,0,1-2.032-6.031Z" transform="translate(-4.345 -42.287)" fill="#feea89"/>
            <path id="Trazado_1256441" data-name="Trazado 1256441" d="M4.273,34.929,34.929,4.273A48.116,48.116,0,0,0,4.273,34.929" transform="translate(-1.892 -1.892)" fill="#feea89"/>
            <path id="Trazado_1256442" data-name="Trazado 1256442" d="M48,0q-2.406,0-4.752.234L.234,43.248Q0,45.593,0,48q0,1.726.123,3.422l51.3-51.3C50.292.043,49.151,0,48,0" transform="translate(0 0)" fill="#feea89"/>
            <path id="Trazado_1256443" data-name="Trazado 1256443" d="M143.483,112.406l-31.076,31.076a48.112,48.112,0,0,0,31.076-31.076" transform="translate(-49.761 -49.761)" fill="#feea89"/>
            <path id="Trazado_1256444" data-name="Trazado 1256444" d="M131.113,79.625,79.625,131.113q1.795.134,3.624.135c1.524,0,3.03-.074,4.517-.213l43.27-43.27c.139-1.487.213-2.993.213-4.516q0-1.829-.135-3.624" transform="translate(-35.249 -35.249)" fill="#feea89"/>
            <path id="Trazado_1256445" data-name="Trazado 1256445" d="M119.266,41.241l15.585-15.585a48.285,48.285,0,0,0-4.038-4.025L115.222,37.222a26.166,26.166,0,0,1,4.044,4.019" transform="translate(-51.007 -9.575)" fill="#feea89"/>
            <path id="Trazado_1256446" data-name="Trazado 1256446" d="M37.222,115.222,21.63,130.814a48.369,48.369,0,0,0,4.025,4.038l15.585-15.585a26.166,26.166,0,0,1-4.019-4.044" transform="translate(-9.575 -51.007)" fill="#feea89"/>
            <path id="Trazado_1256447" data-name="Trazado 1256447" d="M74.932,129.121,55.9,148.149a47.687,47.687,0,0,0,6.207,1.857l25.333-25.333a25.88,25.88,0,0,1-12.512,4.448" transform="translate(-24.748 -55.191)" fill="#feea89"/>
            <path id="Trazado_1256448" data-name="Trazado 1256448" d="M150.006,62.11a47.591,47.591,0,0,0-1.857-6.206L129.121,74.931a25.87,25.87,0,0,1-4.448,12.512Z" transform="translate(-55.191 -24.748)" fill="#feea89"/>
            <path id="Trazado_1256449" data-name="Trazado 1256449" d="M147.17,41.946a48.074,48.074,0,0,0-3.054-5.009l-16,16a25.825,25.825,0,0,1,2.064,6Z" transform="translate(-56.713 -16.352)" fill="#feea89"/>
            <path id="Trazado_1256450" data-name="Trazado 1256450" d="M36.937,144.115a47.933,47.933,0,0,0,5.009,3.055l16.995-17a25.812,25.812,0,0,1-6-2.064Z" transform="translate(-16.352 -56.713)" fill="#feea89"/>
          </g>
        </g>
      </g>
      <g id="Grupo_154427" data-name="Grupo 154427" transform="translate(736.746 8623)">
        <path id="Elipse_5729" data-name="Elipse 5729" d="M43,0A43,43,0,1,1,0,43,43,43,0,0,1,43,0Z" transform="translate(-0.162 0)" fill="#302c9e"/>
      </g>
    </g>
    <g id="Enmascarar_grupo_1119216" data-name="Enmascarar grupo 1119216" transform="translate(-7851.289 11700)" clip-path="url(#clip-path-2)">
      <g id="Grupo_1204850" data-name="Grupo 1204850" transform="translate(8609 -9824)">
        <g id="Grupo_1204849" data-name="Grupo 1204849" transform="translate(0 0)" clip-path="url(#clip-path-3)">
          <path id="Trazado_1260463" data-name="Trazado 1260463" d="M50.849,0H47.666a3.27,3.27,0,0,0-3.183,2.211H35.2A3.441,3.441,0,0,0,32.014,0H28.83a1.171,1.171,0,0,0-1.15,1.15V12.2a1.171,1.171,0,0,0,1.15,1.15h3.184a3.272,3.272,0,0,0,3.183-2.21h1.326V28.831H15.741a8.706,8.706,0,0,0,1.945-5.572A8.843,8.843,0,1,0,0,23.259a9.077,9.077,0,0,0,1.945,5.572h-.8A1.17,1.17,0,0,0,0,29.98V52.089a1.171,1.171,0,0,0,1.15,1.15H47.577a1.171,1.171,0,0,0,1.15-1.15V29.98a1.17,1.17,0,0,0-1.15-1.149H43.156V11.144h1.327a3.441,3.441,0,0,0,3.183,2.21h3.183A1.172,1.172,0,0,0,52,12.2V1.15A1.172,1.172,0,0,0,50.849,0m-9.9,4.422h3.272V8.843H40.945Zm-9.02,6.633H29.891V2.211h2.034A1.209,1.209,0,0,1,33.163,3.45V9.817a1.209,1.209,0,0,1-1.238,1.238m3.449-6.633h3.36V8.843h-3.36Zm5.571,13.266H38.733V15.476h2.211Zm-32.1-1.061a6.632,6.632,0,1,1-6.632,6.633,6.681,6.681,0,0,1,6.632-6.633M15.476,48.64H33.164v2.21H15.476ZM46.428,30.953v19.9H35.374V47.49a1.17,1.17,0,0,0-1.15-1.149H14.415a1.17,1.17,0,0,0-1.15,1.149v3.36H2.211v-19.9H4.6a8.726,8.726,0,0,0,8.578,0H36.523v7.782a1.17,1.17,0,0,0,1.15,1.149H42.1a1.17,1.17,0,0,0,1.149-1.149V30.953Zm-7.693,0h2.211v6.632H38.734Zm0-11.055h2.211v8.843H38.734Zm2.21-6.633H38.733V11.055h2.211Zm8.844-2.211H47.755a1.208,1.208,0,0,1-1.238-1.238V3.45a1.209,1.209,0,0,1,1.238-1.239h2.034Z" transform="translate(0 0)" fill="#fff"/>
          <path id="Trazado_1260464" data-name="Trazado 1260464" d="M9.464,30.294a4.481,4.481,0,0,0,2.918-1.15,1.127,1.127,0,0,0-1.5-1.681,2.4,2.4,0,0,1-1.5.532,2.211,2.211,0,0,1,0-4.422,2.4,2.4,0,0,1,1.5.53,1.127,1.127,0,0,0,1.5-1.681,4.485,4.485,0,0,0-2.918-1.149A4.379,4.379,0,0,0,5.042,25.7a4.531,4.531,0,0,0,4.422,4.6" transform="translate(-0.619 -2.614)" fill="#fff"/>
          <rect id="Rectángulo_455949" data-name="Rectángulo 455949" width="2.21" height="2.21" transform="translate(5.572 33.163)" fill="#fff"/>
          <rect id="Rectángulo_455950" data-name="Rectángulo 455950" width="2.211" height="2.21" transform="translate(9.993 33.163)" fill="#fff"/>
          <rect id="Rectángulo_455951" data-name="Rectángulo 455951" width="2.211" height="2.21" transform="translate(14.415 33.163)" fill="#fff"/>
          <rect id="Rectángulo_455952" data-name="Rectángulo 455952" width="2.211" height="2.21" transform="translate(18.836 33.163)" fill="#fff"/>
          <rect id="Rectángulo_455953" data-name="Rectángulo 455953" width="2.211" height="2.21" transform="translate(18.836 23.258)" fill="#fff"/>
          <rect id="Rectángulo_455954" data-name="Rectángulo 455954" width="2.211" height="2.21" transform="translate(22.109 23.258)" fill="#fff"/>
          <rect id="Rectángulo_455955" data-name="Rectángulo 455955" width="2.211" height="2.21" transform="translate(25.469 23.258)" fill="#fff"/>
          <rect id="Rectángulo_455956" data-name="Rectángulo 455956" width="2.211" height="2.21" transform="translate(28.742 23.258)" fill="#fff"/>
          <rect id="Rectángulo_455957" data-name="Rectángulo 455957" width="2.21" height="2.21" transform="translate(23.259 33.163)" fill="#fff"/>
          <rect id="Rectángulo_455958" data-name="Rectángulo 455958" width="2.21" height="2.21" transform="translate(27.681 33.163)" fill="#fff"/>
          <rect id="Rectángulo_455959" data-name="Rectángulo 455959" width="2.21" height="2.21" transform="translate(32.102 33.163)" fill="#fff"/>
          <rect id="Rectángulo_455960" data-name="Rectángulo 455960" width="2.21" height="2.21" transform="translate(5.572 37.584)" fill="#fff"/>
          <rect id="Rectángulo_455961" data-name="Rectángulo 455961" width="2.211" height="2.21" transform="translate(9.993 37.584)" fill="#fff"/>
          <rect id="Rectángulo_455962" data-name="Rectángulo 455962" width="2.211" height="2.21" transform="translate(14.415 37.584)" fill="#fff"/>
          <rect id="Rectángulo_455963" data-name="Rectángulo 455963" width="2.211" height="2.21" transform="translate(18.836 37.584)" fill="#fff"/>
          <rect id="Rectángulo_455964" data-name="Rectángulo 455964" width="2.21" height="2.21" transform="translate(23.259 37.584)" fill="#fff"/>
          <rect id="Rectángulo_455965" data-name="Rectángulo 455965" width="2.21" height="2.21" transform="translate(27.681 37.584)" fill="#fff"/>
          <rect id="Rectángulo_455966" data-name="Rectángulo 455966" width="2.21" height="2.21" transform="translate(32.102 37.584)" fill="#fff"/>
          <rect id="Rectángulo_455967" data-name="Rectángulo 455967" width="2.21" height="2.211" transform="translate(5.572 42.006)" fill="#fff"/>
          <rect id="Rectángulo_455968" data-name="Rectángulo 455968" width="2.211" height="2.211" transform="translate(9.993 42.006)" fill="#fff"/>
          <rect id="Rectángulo_455969" data-name="Rectángulo 455969" width="15.476" height="2.211" transform="translate(14.415 42.006)" fill="#fff"/>
          <rect id="Rectángulo_455970" data-name="Rectángulo 455970" width="2.21" height="2.211" transform="translate(32.102 42.006)" fill="#fff"/>
          <rect id="Rectángulo_455971" data-name="Rectángulo 455971" width="2.21" height="2.211" transform="translate(36.524 42.006)" fill="#fff"/>
          <rect id="Rectángulo_455972" data-name="Rectángulo 455972" width="2.21" height="2.211" transform="translate(40.945 42.006)" fill="#fff"/>
        </g>
      </g>
    </g>
  </g>
</svg>
