<svg xmlns="http://www.w3.org/2000/svg" xmlns:xlink="http://www.w3.org/1999/xlink" width="70" height="70" viewBox="0 0 70 70">
  <defs>
    <clipPath id="clip-path">
      <rect id="Rectángulo_407548" data-name="Rectángulo 407548" width="42.86" height="42.86" fill="#302c9e"/>
    </clipPath>
  </defs>
  <g id="Grupo_1204614" data-name="Grupo 1204614" transform="translate(0.145)">
    <circle id="Elipse_5614" data-name="Elipse 5614" cx="35" cy="35" r="35" transform="translate(-0.145)" fill="#fff"/>
    <g id="Grupo_1117296" data-name="Grupo 1117296" transform="translate(14 14)">
      <g id="Grupo_1117295" data-name="Grupo 1117295" clip-path="url(#clip-path)">
        <path id="Trazado_895674" data-name="Trazado 895674" d="M17.418,73.79v4.1c0,.047.177.22.129.387H5.161v22.453H8.838c-.276-3.293,1.821-6.406,4.575-6.665,1.534-.144,9.765-.207,11.07.353,2.118.91,3.532,3.6,3.321,6.312h7.418l.194-19.37h3.741l-.194,19.37h.194a4.582,4.582,0,0,1,1.025.783,2.5,2.5,0,0,1-.822,3.641l-37.746.067C.128,105.05-.543,102.7.516,101.43a6.376,6.376,0,0,1,.968-.7H1.42l.014-22.978c-.022-1.56.653-3.991,3.018-3.965Z" transform="translate(0 -62.364)" fill="#302c9e"/>
        <path id="Trazado_895675" data-name="Trazado 895675" d="M160.884,14.76h-3.032c-1.419.021-2.221-1.423-2.457-2.269-.424-1.52-.327-7.141-.186-8.913A3.379,3.379,0,0,1,158.364.1c6.068.026,10.885-.227,16.265,0a3.258,3.258,0,0,1,3.155,2.976,61.971,61.971,0,0,1,.006,8.723,3.155,3.155,0,0,1-2.661,2.954c-2.44.116-4.59.032-6.929.037l-5.08,5.261a1.414,1.414,0,0,1-1.852-.165,4.617,4.617,0,0,1-.384-.635Zm.873-8.69a1.387,1.387,0,0,0-.262,2.722,1.387,1.387,0,1,0,.262-2.722m4.645-.006a1.387,1.387,0,0,0,.222,2.764,1.387,1.387,0,1,0-.222-2.764m3.815.4a1.4,1.4,0,0,0,1.9,2.049c1.509-1.163-.52-3.4-1.9-2.049" transform="translate(-135.08 1.113)" fill="#302c9e"/>
        <path id="Trazado_895676" data-name="Trazado 895676" d="M121.754,140.7c-5.008,5.1-12.668-2.615-7.73-7.776,4.987-5.211,12.806,2.606,7.73,7.776" transform="translate(-99.902 -112.041)" fill="#302c9e"/>
      </g>
    </g>
  </g>
</svg>
