<svg xmlns="http://www.w3.org/2000/svg" xmlns:xlink="http://www.w3.org/1999/xlink" width="96" height="96" viewBox="0 0 96 96">
  <defs>
    <clipPath id="clip-path">
      <rect id="Rectángulo_454682" data-name="Rectángulo 454682" width="96" height="96" fill="#feea89"/>
    </clipPath>
    <clipPath id="clip-path-2">
      <rect id="Rectángulo_455592" data-name="Rectángulo 455592" width="58" height="58" transform="translate(3 14)" fill="#fff" stroke="#707070" stroke-width="1"/>
    </clipPath>
    <clipPath id="clip-path-3">
      <rect id="Rectángulo_455596" data-name="Rectángulo 455596" width="51.333" height="51.333" fill="#fff"/>
    </clipPath>
  </defs>
  <g id="Grupo_1204551" data-name="Grupo 1204551" transform="translate(-731.746 -8618)">
    <g id="Grupo_1203592" data-name="Grupo 1203592" transform="translate(731.746 8618)">
      <g id="Grupo_1203487" data-name="Grupo 1203487">
        <g id="Grupo_1203486" data-name="Grupo 1203486" clip-path="url(#clip-path)">
          <path id="Trazado_1256437" data-name="Trazado 1256437" d="M2.058,84.327a47.583,47.583,0,0,0,1.836,6.227L23,71.45a25.883,25.883,0,0,1,4.958-13.021Z" transform="translate(-0.911 -25.866)" fill="#feea89"/>
          <path id="Trazado_1256438" data-name="Trazado 1256438" d="M90.555,3.894a47.583,47.583,0,0,0-6.227-1.836l-25.9,25.9A25.886,25.886,0,0,1,71.451,23Z" transform="translate(-25.866 -0.911)" fill="#feea89"/>
          <path id="Trazado_1256439" data-name="Trazado 1256439" d="M117.575,12.855a48.029,48.029,0,0,0-5.022-3.041L95.523,26.843a25.831,25.831,0,0,1,6.031,2.032Z" transform="translate(-42.287 -4.345)" fill="#feea89"/>
          <path id="Trazado_1256440" data-name="Trazado 1256440" d="M9.814,112.552a47.933,47.933,0,0,0,3.041,5.022l16.021-16.021a25.831,25.831,0,0,1-2.032-6.031Z" transform="translate(-4.345 -42.287)" fill="#feea89"/>
          <path id="Trazado_1256441" data-name="Trazado 1256441" d="M4.273,34.929,34.929,4.273A48.116,48.116,0,0,0,4.273,34.929" transform="translate(-1.892 -1.892)" fill="#feea89"/>
          <path id="Trazado_1256442" data-name="Trazado 1256442" d="M48,0q-2.406,0-4.752.234L.234,43.248Q0,45.593,0,48q0,1.726.123,3.422l51.3-51.3C50.292.043,49.151,0,48,0" transform="translate(0 0)" fill="#feea89"/>
          <path id="Trazado_1256443" data-name="Trazado 1256443" d="M143.483,112.406l-31.076,31.076a48.112,48.112,0,0,0,31.076-31.076" transform="translate(-49.761 -49.761)" fill="#feea89"/>
          <path id="Trazado_1256444" data-name="Trazado 1256444" d="M131.113,79.625,79.625,131.113q1.795.134,3.624.135c1.524,0,3.03-.074,4.517-.213l43.27-43.27c.139-1.487.213-2.993.213-4.516q0-1.829-.135-3.624" transform="translate(-35.249 -35.249)" fill="#feea89"/>
          <path id="Trazado_1256445" data-name="Trazado 1256445" d="M119.266,41.241l15.585-15.585a48.285,48.285,0,0,0-4.038-4.025L115.222,37.222a26.166,26.166,0,0,1,4.044,4.019" transform="translate(-51.007 -9.575)" fill="#feea89"/>
          <path id="Trazado_1256446" data-name="Trazado 1256446" d="M37.222,115.222,21.63,130.814a48.369,48.369,0,0,0,4.025,4.038l15.585-15.585a26.166,26.166,0,0,1-4.019-4.044" transform="translate(-9.575 -51.007)" fill="#feea89"/>
          <path id="Trazado_1256447" data-name="Trazado 1256447" d="M74.932,129.121,55.9,148.149a47.687,47.687,0,0,0,6.207,1.857l25.333-25.333a25.88,25.88,0,0,1-12.512,4.448" transform="translate(-24.748 -55.191)" fill="#feea89"/>
          <path id="Trazado_1256448" data-name="Trazado 1256448" d="M150.006,62.11a47.591,47.591,0,0,0-1.857-6.206L129.121,74.931a25.87,25.87,0,0,1-4.448,12.512Z" transform="translate(-55.191 -24.748)" fill="#feea89"/>
          <path id="Trazado_1256449" data-name="Trazado 1256449" d="M147.17,41.946a48.074,48.074,0,0,0-3.054-5.009l-16,16a25.825,25.825,0,0,1,2.064,6Z" transform="translate(-56.713 -16.352)" fill="#feea89"/>
          <path id="Trazado_1256450" data-name="Trazado 1256450" d="M36.937,144.115a47.933,47.933,0,0,0,5.009,3.055l16.995-17a25.812,25.812,0,0,1-6-2.064Z" transform="translate(-16.352 -56.713)" fill="#feea89"/>
        </g>
      </g>
    </g>
    <g id="Grupo_154427" data-name="Grupo 154427" transform="translate(736.746 8623)">
      <path id="Elipse_5729" data-name="Elipse 5729" d="M43,0A43,43,0,1,1,0,43,43,43,0,0,1,43,0Z" transform="translate(-0.162 0)" fill="#302c9e"/>
      <g id="Enmascarar_grupo_1119197" data-name="Enmascarar grupo 1119197" transform="translate(11)" clip-path="url(#clip-path-2)">
        <g id="Grupo_1204556" data-name="Grupo 1204556" transform="translate(6 17)">
          <g id="Grupo_1204555" data-name="Grupo 1204555" clip-path="url(#clip-path-3)">
            <path id="Trazado_1258901" data-name="Trazado 1258901" d="M4.385.047,46.554,0a5.226,5.226,0,0,1,4.779,4.779V46.554a5.233,5.233,0,0,1-4.779,4.779H4.779A5.225,5.225,0,0,1,0,46.554L.008,4.64A5.245,5.245,0,0,1,4.385.047M1.77,4.343c-.284,1.714.211,4.16,0,5.956H49.564V4.343c0-.956-1.821-2.631-2.867-2.574L4.926,1.764A3.512,3.512,0,0,0,1.77,4.343m47.794,7.573H1.77V46.99c0,.956,1.821,2.631,2.867,2.574l41.771.006c1.148.221,3.156-1.546,3.156-2.58Z" fill="#fff"/>
            <path id="Trazado_1258902" data-name="Trazado 1258902" d="M48.114,102.054c1.917-.019,4.03-.211,4.617,2.074-.165,3.45.445,7.592.065,10.965a2.66,2.66,0,0,1-2.568,2.432c-4.428-.295-9.315.372-13.687,0a2.6,2.6,0,0,1-2.575-2.425,79.309,79.309,0,0,1,0-10.6c.227-2.557,2.679-2.525,4.7-2.437.482-1.383,1.219-3.188,2.883-3.366a16.523,16.523,0,0,1,4.373.186c1.225.489,1.645,2.1,2.194,3.172m-1.935.024c-.27-.8-.47-1.537-1.388-1.627-1.049-.1-2.3.072-3.368.033l-.832,1.594Zm-10.259,1.947a1.425,1.425,0,0,0-.188.768,22.969,22.969,0,0,0,.009,3.532c.211,1.087,3.151.549,4.022.646.377-.393.219-.8.674-1.238a1.991,1.991,0,0,1,1.106-.512,23.067,23.067,0,0,1,3.94.037c1.247.253,1.1,1.626,1.649,1.733.638.124,3.661.151,3.871-.545a30.145,30.145,0,0,0,.024-3.939.921.921,0,0,0-.542-.634ZM45,108.99H41.62v1.618H45Zm6.029,1.618H46.987c-.434.676-.475,1.458-1.393,1.7a20.708,20.708,0,0,1-4.42,0c-.917-.239-1.04-.971-1.393-1.7H35.737v4.632a.992.992,0,0,0,.247.378l14.6.06a3.806,3.806,0,0,0,.444-.438Z" transform="translate(-28.82 -84.132)" fill="#fff"/>
            <path id="Trazado_1258903" data-name="Trazado 1258903" d="M186.139,157.212a2.355,2.355,0,0,1,.914-.483,18.44,18.44,0,0,1,4.518.173c1.3.609,1.106,3.5,1,4.752a1.879,1.879,0,0,1-1.71,1.966c-1.117.152-4.01.219-4.774-.641-.605-.681-.53-3.456-.439-4.425a2.262,2.262,0,0,1,.5-1.342m4.656,1.274h-3.382v3.382h3.382Z" transform="translate(-158.29 -133.628)" fill="#fff"/>
            <path id="Trazado_1258904" data-name="Trazado 1258904" d="M187.362,272.754c.88-.148,3.789-.151,4.5.281a1.969,1.969,0,0,1,.831,1.521c.1.907.113,3.511-.317,4.243a1.682,1.682,0,0,1-1.375.831,23.531,23.531,0,0,1-3.815-.008,2.147,2.147,0,0,1-1.173-.886,12,12,0,0,1,0-5.123,2.1,2.1,0,0,1,1.346-.859m3.568,1.729h-3.382v3.382h3.382Z" transform="translate(-158.425 -232.567)" fill="#fff"/>
            <path id="Trazado_1258905" data-name="Trazado 1258905" d="M187.154,214.684a21.851,21.851,0,0,1,3.926-.025,1.932,1.932,0,0,1,1.554,1.828,12.221,12.221,0,0,1-.266,4.147,1.88,1.88,0,0,1-1.423.93,22.839,22.839,0,0,1-3.536,0,1.874,1.874,0,0,1-1.688-1.695,14.5,14.5,0,0,1,.232-4.326,1.982,1.982,0,0,1,1.2-.86m3.715,1.73h-3.382V219.8h3.382Z" transform="translate(-158.364 -183.027)" fill="#fff"/>
            <path id="Trazado_1258906" data-name="Trazado 1258906" d="M36.023,272.755a13.65,13.65,0,0,1,4.556.23,1.624,1.624,0,0,1,.785,1.127,27.255,27.255,0,0,1,0,4.127,1.672,1.672,0,0,1-1.544,1.4,17.375,17.375,0,0,1-4.253-.165,1.632,1.632,0,0,1-.974-1.379,24.92,24.92,0,0,1,.012-3.966,2.084,2.084,0,0,1,1.422-1.372m3.716,1.731H36.357v3.382h3.382Z" transform="translate(-29.44 -232.569)" fill="#fff"/>
            <path id="Trazado_1258907" data-name="Trazado 1258907" d="M192.127,99.168c.64.677.608,3.756.478,4.716a1.707,1.707,0,0,1-1.377,1.564,27.255,27.255,0,0,1-4.128,0,1.547,1.547,0,0,1-1.281-1.072,18.172,18.172,0,0,1-.114-4,1.7,1.7,0,0,1,1.173-1.621,23.909,23.909,0,0,1,4.335-.062,2.345,2.345,0,0,1,.913.484m-1.273,1.273h-3.382v3.382h3.382Z" transform="translate(-158.349 -84.112)" fill="#fff"/>
            <path id="Trazado_1258908" data-name="Trazado 1258908" d="M35.567,244.07l17.027-.031c1.378,0,1.513,1.616.15,1.767l-17.069.005a.878.878,0,0,1-.108-1.741" transform="translate(-29.721 -208.151)" fill="#fff"/>
            <path id="Trazado_1258909" data-name="Trazado 1258909" d="M72.2,23.058c3.4-.491,3.975,4.708.831,5.1a2.585,2.585,0,1,1-.831-5.1m1.03,3.169c1.031-1.031-1.41-2.326-1.444-.622a.845.845,0,0,0,1.444.622" transform="translate(-59.727 -19.639)" fill="#fff"/>
            <path id="Trazado_1258910" data-name="Trazado 1258910" d="M25.69,23.15c3.31-.39,3.9,4.691.681,5.1a2.572,2.572,0,1,1-.681-5.1m.879,1.912c-1.031-1.031-2.326,1.41-.622,1.444a.845.845,0,0,0,.622-1.444" transform="translate(-19.981 -19.728)" fill="#fff"/>
            <path id="Trazado_1258911" data-name="Trazado 1258911" d="M118.732,23.151c3.3-.389,3.947,4.682.681,5.1a2.572,2.572,0,1,1-.681-5.1m-.008,1.755c-.717.2-.737,1.461-.032,1.594,1.712.322,1.437-1.994.032-1.594" transform="translate(-99.347 -19.728)" fill="#fff"/>
            <path id="Trazado_1258912" data-name="Trazado 1258912" d="M253.13,107.438H242.672a.784.784,0,0,1,0-1.569H253.13a.784.784,0,0,1,0,1.569" transform="translate(-206.317 -90.3)" fill="#fff"/>
            <path id="Trazado_1258913" data-name="Trazado 1258913" d="M247.291,126.4h-4.619a.784.784,0,1,1,0-1.569h4.619a.784.784,0,0,1,0,1.569" transform="translate(-206.317 -106.475)" fill="#fff"/>
            <path id="Trazado_1258914" data-name="Trazado 1258914" d="M253.13,165.512H242.672a.784.784,0,0,1,0-1.569H253.13a.784.784,0,0,1,0,1.569" transform="translate(-206.317 -139.834)" fill="#fff"/>
            <path id="Trazado_1258915" data-name="Trazado 1258915" d="M247.291,184.475h-4.619a.784.784,0,1,1,0-1.569h4.619a.784.784,0,0,1,0,1.569" transform="translate(-206.317 -156.008)" fill="#fff"/>
            <path id="Trazado_1258916" data-name="Trazado 1258916" d="M253.13,227.734H242.672a.784.784,0,0,1,0-1.569H253.13a.784.784,0,0,1,0,1.569" transform="translate(-206.317 -192.906)" fill="#fff"/>
            <path id="Trazado_1258917" data-name="Trazado 1258917" d="M247.291,246.7h-4.619a.784.784,0,1,1,0-1.569h4.619a.784.784,0,0,1,0,1.569" transform="translate(-206.317 -209.08)" fill="#fff"/>
            <path id="Trazado_1258918" data-name="Trazado 1258918" d="M253.13,284.03H242.672a.784.784,0,0,1,0-1.569H253.13a.784.784,0,0,1,0,1.569" transform="translate(-206.317 -240.923)" fill="#fff"/>
            <path id="Trazado_1258919" data-name="Trazado 1258919" d="M247.291,302.993h-4.619a.784.784,0,1,1,0-1.569h4.619a.784.784,0,0,1,0,1.569" transform="translate(-206.317 -257.097)" fill="#fff"/>
          </g>
        </g>
      </g>
    </g>
  </g>
</svg>
