<svg xmlns="http://www.w3.org/2000/svg" xmlns:xlink="http://www.w3.org/1999/xlink" width="96" height="96" viewBox="0 0 96 96">
  <defs>
    <clipPath id="clip-path">
      <rect id="Rectángulo_454682" data-name="Rectángulo 454682" width="96" height="96" fill="#feea89"/>
    </clipPath>
    <clipPath id="clip-path-2">
      <rect id="Rectángulo_455279" data-name="Rectángulo 455279" width="58" height="58" transform="translate(2.965 14.267)" fill="#fff" stroke="#707070" stroke-width="1"/>
    </clipPath>
    <clipPath id="clip-path-3">
      <rect id="Rectángulo_455833" data-name="Rectángulo 455833" width="47.293" height="50.5" fill="#fff"/>
    </clipPath>
  </defs>
  <g id="Grupo_1204359" data-name="Grupo 1204359" transform="translate(-731.746 -8618)">
    <g id="Grupo_1203592" data-name="Grupo 1203592" transform="translate(731.746 8618)">
      <g id="Grupo_1203487" data-name="Grupo 1203487">
        <g id="Grupo_1203486" data-name="Grupo 1203486" clip-path="url(#clip-path)">
          <path id="Trazado_1256437" data-name="Trazado 1256437" d="M2.058,84.327a47.583,47.583,0,0,0,1.836,6.227L23,71.45a25.883,25.883,0,0,1,4.958-13.021Z" transform="translate(-0.911 -25.866)" fill="#feea89"/>
          <path id="Trazado_1256438" data-name="Trazado 1256438" d="M90.555,3.894a47.583,47.583,0,0,0-6.227-1.836l-25.9,25.9A25.886,25.886,0,0,1,71.451,23Z" transform="translate(-25.866 -0.911)" fill="#feea89"/>
          <path id="Trazado_1256439" data-name="Trazado 1256439" d="M117.575,12.855a48.029,48.029,0,0,0-5.022-3.041L95.523,26.843a25.831,25.831,0,0,1,6.031,2.032Z" transform="translate(-42.287 -4.345)" fill="#feea89"/>
          <path id="Trazado_1256440" data-name="Trazado 1256440" d="M9.814,112.552a47.933,47.933,0,0,0,3.041,5.022l16.021-16.021a25.831,25.831,0,0,1-2.032-6.031Z" transform="translate(-4.345 -42.287)" fill="#feea89"/>
          <path id="Trazado_1256441" data-name="Trazado 1256441" d="M4.273,34.929,34.929,4.273A48.116,48.116,0,0,0,4.273,34.929" transform="translate(-1.892 -1.892)" fill="#feea89"/>
          <path id="Trazado_1256442" data-name="Trazado 1256442" d="M48,0q-2.406,0-4.752.234L.234,43.248Q0,45.593,0,48q0,1.726.123,3.422l51.3-51.3C50.292.043,49.151,0,48,0" transform="translate(0 0)" fill="#feea89"/>
          <path id="Trazado_1256443" data-name="Trazado 1256443" d="M143.483,112.406l-31.076,31.076a48.112,48.112,0,0,0,31.076-31.076" transform="translate(-49.761 -49.761)" fill="#feea89"/>
          <path id="Trazado_1256444" data-name="Trazado 1256444" d="M131.113,79.625,79.625,131.113q1.795.134,3.624.135c1.524,0,3.03-.074,4.517-.213l43.27-43.27c.139-1.487.213-2.993.213-4.516q0-1.829-.135-3.624" transform="translate(-35.249 -35.249)" fill="#feea89"/>
          <path id="Trazado_1256445" data-name="Trazado 1256445" d="M119.266,41.241l15.585-15.585a48.285,48.285,0,0,0-4.038-4.025L115.222,37.222a26.166,26.166,0,0,1,4.044,4.019" transform="translate(-51.007 -9.575)" fill="#feea89"/>
          <path id="Trazado_1256446" data-name="Trazado 1256446" d="M37.222,115.222,21.63,130.814a48.369,48.369,0,0,0,4.025,4.038l15.585-15.585a26.166,26.166,0,0,1-4.019-4.044" transform="translate(-9.575 -51.007)" fill="#feea89"/>
          <path id="Trazado_1256447" data-name="Trazado 1256447" d="M74.932,129.121,55.9,148.149a47.687,47.687,0,0,0,6.207,1.857l25.333-25.333a25.88,25.88,0,0,1-12.512,4.448" transform="translate(-24.748 -55.191)" fill="#feea89"/>
          <path id="Trazado_1256448" data-name="Trazado 1256448" d="M150.006,62.11a47.591,47.591,0,0,0-1.857-6.206L129.121,74.931a25.87,25.87,0,0,1-4.448,12.512Z" transform="translate(-55.191 -24.748)" fill="#feea89"/>
          <path id="Trazado_1256449" data-name="Trazado 1256449" d="M147.17,41.946a48.074,48.074,0,0,0-3.054-5.009l-16,16a25.825,25.825,0,0,1,2.064,6Z" transform="translate(-56.713 -16.352)" fill="#feea89"/>
          <path id="Trazado_1256450" data-name="Trazado 1256450" d="M36.937,144.115a47.933,47.933,0,0,0,5.009,3.055l16.995-17a25.812,25.812,0,0,1-6-2.064Z" transform="translate(-16.352 -56.713)" fill="#feea89"/>
        </g>
      </g>
    </g>
    <g id="Grupo_154427" data-name="Grupo 154427" transform="translate(736.746 8623)">
      <path id="Elipse_5729" data-name="Elipse 5729" d="M43,0A43,43,0,1,1,0,43,43,43,0,0,1,43,0Z" transform="translate(-0.162 0)" fill="#302c9e"/>
      <g id="Enmascarar_grupo_1119166" data-name="Enmascarar grupo 1119166" transform="translate(10)" clip-path="url(#clip-path-2)">
        <g id="Grupo_1204759" data-name="Grupo 1204759" transform="translate(7.747 18.267)">
          <g id="Grupo_1204758" data-name="Grupo 1204758" clip-path="url(#clip-path-3)">
            <path id="Trazado_1259801" data-name="Trazado 1259801" d="M75.976,44.116h1.591v4.772h33.117V1.6h-6.218V4.78h4.266a2.414,2.414,0,0,1,.362.362V25.316c-.517-.065-1.209.195-1.591-.217V6.371h-3.037c.041,1.15.132,2.67-1.237,3.029L84.906,9.372c-1.273-.533-.952-1.872-.976-3H80.748v6.219H79.158v-7.3a.843.843,0,0,1,.506-.506H83.93V1.6H77.567V12.589H75.976V1.237A1.9,1.9,0,0,1,77.491,0l33.748.1.926.809.116,48.055a1.608,1.608,0,0,1-1.808,1.518H77.054c-.354.1-1.078-.331-1.078-.657ZM102.875,1.6H85.521V7.962h17.137l.217-.217Z" transform="translate(-64.989 0)" fill="#fff"/>
            <path id="Trazado_1259802" data-name="Trazado 1259802" d="M.178,104.606l12.339-6.542,12.434,6.5c.321.3.228.814.191,1.22a36.1,36.1,0,0,1-2.819,11.063c-2.113,4.21-5.452,6.791-9.2,9.452-.919.425-1.821-.6-2.551-1.134-4.814-3.506-7.93-6.955-9.344-12.927a51.662,51.662,0,0,1-1.215-6.749,1.266,1.266,0,0,1,.17-.881m12.363-4.788L1.805,105.583l-.087.358c.654,3.838,1.071,7.584,3.026,11.019,1.893,3.325,4.776,5.462,7.783,7.7,3.736-2.381,7-5.241,8.8-9.388,1.316-3.044,1.582-6.376,2.221-9.6Z" transform="translate(0 -83.882)" fill="#fff"/>
            <path id="Trazado_1259803" data-name="Trazado 1259803" d="M127.912,184.921v12.22l-7.663,7.088-1.551,1.2-20.285-.045a3.743,3.743,0,0,1-.437-.431v-2.675h1.591v1.592h18.077v-7.159a2.444,2.444,0,0,1,.506-.651h8.171V185.138c.381-.412,1.074-.152,1.591-.217m-2.892,12.726h-5.785v5.206Z" transform="translate(-83.807 -158.16)" fill="#fff"/>
            <path id="Trazado_1259804" data-name="Trazado 1259804" d="M142.1,101.18V99.59h11.859V88.6H137.325v2.458c-.376-.064-1.43.194-1.571-.237.132-.947-.516-3.51.661-3.781L154.468,87c.887-.02,1.019.465,1.083,1.23.319,3.8-.255,8.027,0,11.871.1.26-.327,1.078-.513,1.078Z" transform="translate(-116.069 -74.419)" fill="#fff"/>
            <rect id="Rectángulo_455825" data-name="Rectángulo 455825" width="13.305" height="1.591" transform="translate(18.941 39.488)" fill="#fff"/>
            <rect id="Rectángulo_455826" data-name="Rectángulo 455826" width="8.677" height="1.591" transform="translate(25.16 29.943)" fill="#fff"/>
            <rect id="Rectángulo_455827" data-name="Rectángulo 455827" width="8.677" height="1.591" transform="translate(22.846 34.715)" fill="#fff"/>
            <rect id="Rectángulo_455828" data-name="Rectángulo 455828" width="7.086" height="1.591" transform="translate(33.114 34.715)" fill="#fff"/>
            <rect id="Rectángulo_455829" data-name="Rectángulo 455829" width="4.772" height="1.591" transform="translate(35.428 29.943)" fill="#fff"/>
            <rect id="Rectángulo_455830" data-name="Rectángulo 455830" width="7.954" height="1.591" transform="translate(25.16 3.912)" fill="#fff"/>
            <rect id="Rectángulo_455831" data-name="Rectángulo 455831" width="1.592" height="1.592" transform="translate(34.704 3.911)" fill="#fff"/>
            <path id="Trazado_1259805" data-name="Trazado 1259805" d="M154.564,28.546h-1.592V26.954c.357.054,1.338-.138,1.528.136Z" transform="translate(-130.85 -23.042)" fill="#fff"/>
            <path id="Trazado_1259806" data-name="Trazado 1259806" d="M39.143,144.206l-3.3-1.62c-.118-.166.435-1.447.759-1.417.788.51,4.029,1.764,4.231,2.579a34.536,34.536,0,0,1-.562,3.5c-.745,3.92-1.906,6.945-4.948,9.659a30.525,30.525,0,0,1-3.455,2.618.988.988,0,0,1-.947.055,35.008,35.008,0,0,1-3.263-2.521c-3.763-3.34-5.255-7.726-5.691-12.675-.092-1.046.088-1.029.9-1.525A32.168,32.168,0,0,1,26,141.209c.1-.025.189-.075.289,0l.662,1.242-3.36,1.94c.489,2.666.733,5.325,2.045,7.749a16.487,16.487,0,0,0,5.789,5.745,18.345,18.345,0,0,0,5.567-5.53c1.409-2.518,1.73-5.34,2.152-8.154" transform="translate(-18.772 -120.753)" fill="#fff"/>
            <path id="Trazado_1259807" data-name="Trazado 1259807" d="M69.234,166.121l1.207.93-5.5,6.355a.943.943,0,0,1-1,.153,21.126,21.126,0,0,1-2.543-3.4l1.242-.8,1.786,2.094Z" transform="translate(-52.515 -142.097)" fill="#fff"/>
            <path id="Trazado_1259808" data-name="Trazado 1259808" d="M69.872,124.025l-.637,1.429-2.765-1.418-2.939,1.413-.585-1.367,3.523-1.777Z" transform="translate(-53.842 -104.617)" fill="#fff"/>
            <rect id="Rectángulo_455832" data-name="Rectángulo 455832" width="1.592" height="1.592" transform="translate(11.854 33.124)" fill="#fff"/>
            <path id="Trazado_1259809" data-name="Trazado 1259809" d="M83.564,153.046c-.054.357.137,1.338-.136,1.528l-1.456.064v-1.592Z" transform="translate(-70.118 -130.913)" fill="#fff"/>
          </g>
        </g>
      </g>
    </g>
  </g>
</svg>
