<svg xmlns="http://www.w3.org/2000/svg" xmlns:xlink="http://www.w3.org/1999/xlink" width="107" height="107" viewBox="0 0 107 107">
  <defs>
    <clipPath id="clip-path">
      <rect id="Rectángulo_455823" data-name="Rectángulo 455823" width="56.974" height="57" fill="#0d5365"/>
    </clipPath>
  </defs>
  <g id="Grupo_1204357" data-name="Grupo 1204357" transform="translate(-346.059 -8474)">
    <circle id="Elipse_13621" data-name="Elipse 13621" cx="53.5" cy="53.5" r="53.5" transform="translate(346.059 8474)" fill="#0d5365"/>
    <g id="Grupo_1203588" data-name="Grupo 1203588" transform="translate(75.793 18.437)">
      <g id="Grupo_154427" data-name="Grupo 154427" transform="translate(278.266 8463.563)">
        <path id="Elipse_5729" data-name="Elipse 5729" d="M45.646,0A45.646,45.646,0,1,1,0,45.646,45.646,45.646,0,0,1,45.646,0Z" transform="translate(0 0)" fill="#f3fee7"/>
        <g id="Grupo_1204754" data-name="Grupo 1204754" transform="translate(17 16.465)">
          <g id="Grupo_1204753" data-name="Grupo 1204753" clip-path="url(#clip-path)">
            <path id="Trazado_1259760" data-name="Trazado 1259760" d="M23.688,34.85c-3.735,1.663-8.806,2.625-9.471,7.428l-.034,10.905c-.57,1.194-1.623.823-1.765-.45a57.994,57.994,0,0,1,.241-11.2c.966-4.766,5.053-6.106,9.07-7.668.13-.175-1.663-.983-1.877-1.141a6.946,6.946,0,0,1-2.021-8.552c.457-.923,1.279-1.676,1.8-2.6,2.362-4.178.386-8.557,2.133-13.052,4.269-10.982,20.2-11,24.414,0,1.653,4.318-.1,8.837,1.806,12.726.851,1.731,2.37,2.731,2.624,4.887a6.843,6.843,0,0,1-3.361,7.053c-.385.241-1.1.249-1.029.683,4.585,1.512,8.723,3.469,9.149,8.895l-.007,12.824,1.392.158c.512.8.182,1.553-.812,1.48L.377,57.11c-.542-.232-.409-1.2.044-1.524H20.1L18.622,42.12a2.771,2.771,0,0,1,2.372-2.372h2.694ZM22.545,13.461h3.021a20.96,20.96,0,0,0,3.667-.9A20.086,20.086,0,0,0,40.17,3.678a11.5,11.5,0,0,0-17.625,9.783m22.84-.018a10.985,10.985,0,0,0-3.9-8.636A22.508,22.508,0,0,1,26,15.115C26.1,19.369,24.887,25,29.531,27.293c2,.991,6.641,1.055,8.638.077a6.636,6.636,0,0,0,3.478-4.6c-.584.415-1.154.868-1.744,1.275-.253.174-1.09.5-1.15.564-.111.116-.088.471-.227.669-.893,1.279-2.538,1.4-3.978,1.246-3.389-.352-3.171-4.5-.645-4.886a16.275,16.275,0,0,1,3.218.027,2.644,2.644,0,0,1,1.5,1.26c1.4-.787,3.028-2.119,3.194-3.82.128-1.3-.1-2.828-.024-4.156-.836-.026-4.011-1.366-4.285-2.015-.165-.391-.11-1.088.329-1.241.72-.25,1.95.826,2.719,1.147a8.2,8.2,0,0,0,4.828.606m-21.044,1.65h-1.8v3.184c0,3.6-3.953,5.883-3.761,9.313.163,2.909,2.553,4.683,5.315,4.81,1.825.083,4.539-1.6,4.466-3.643A9.95,9.95,0,0,1,25.13,25a14.54,14.54,0,0,1-.789-2.314Zm21.063.163H43.445v7.592c0,1.159-1.585,3.755-2.445,4.576-.983.938-2.2.851-1.553,2.363,1.367,3.2,6.383,3.329,8.475.64C51.57,25.736,45.4,22.879,45.4,18.441Zm-11.348,9.47h2.776c.342,0,.559-1.078-.081-1.389a7,7,0,0,0-2.83.069c-.421.269-.217,1.211.135,1.319m3.486,4.76a23.424,23.424,0,0,1-7.309-.009c-.53,2.56-2.614,3.763-4.886,4.582L25.393,36a30.387,30.387,0,0,0,13.353.762,23.138,23.138,0,0,0,3.558-.851,2.972,2.972,0,0,0,.08-1.882c-.142-.235-1.958-.867-2.424-1.168a6.235,6.235,0,0,1-2.418-3.378m11.127,26.1h4.817l.245-.245V42.932a6.939,6.939,0,0,0-3.972-5.825A43.266,43.266,0,0,0,44.1,34.85v4.9h3.674a2.81,2.81,0,0,1,2.207,2.2ZM25.321,39.748H42.465l-.084-2.125a33.391,33.391,0,0,1-17.059.166Zm22.614,1.8h-27.1c-.624,0-.439,1.8-.407,2.2.27,3.471.719,7.3,1.143,10.775.024.194.148,1.054.257,1.073l25.06-.081L48.35,42.6Z" transform="translate(-0.019 -0.23)" fill="#0d5365"/>
            <path id="Trazado_1259761" data-name="Trazado 1259761" d="M8.614.053a9.723,9.723,0,0,1,8.042,16.376l.067.234c1.3.639,2.25,1.766.586,2.7-5.707.075-12,1.123-15.653-4.284A9.677,9.677,0,0,1,8.614.053m6.238,17.586c.047-.327-.274-.429-.328-.743-.183-1.07.976-1.642,1.538-2.373A8.056,8.056,0,0,0,12.448,2.165C4.535-.631-1.848,8.878,3.755,15.1c.812.9,3.3,2.536,4.485,2.536Z" transform="translate(0 0)" fill="#0d5365"/>
            <path id="Trazado_1259762" data-name="Trazado 1259762" d="M193.743,276.146c4.155-.455,4.862,5.822.919,6.315-4.421.553-4.948-5.873-.919-6.315m-.73,2.135a1.525,1.525,0,0,0,1.806,2.377c2.074-1.071-.235-4.067-1.806-2.377" transform="translate(-159.823 -231.038)" fill="#0d5365"/>
            <path id="Trazado_1259763" data-name="Trazado 1259763" d="M33.947,54.069c.838-.841,2.04.792,1.105,1.349a.879.879,0,0,1-1.105-1.349" transform="translate(-28.199 -45.043)" fill="#0d5365"/>
            <path id="Trazado_1259764" data-name="Trazado 1259764" d="M75.39,54.143c1.33-.193,1.4,2.044-.169,1.573a.838.838,0,0,1,.169-1.573" transform="translate(-62.54 -45.293)" fill="#0d5365"/>
            <path id="Trazado_1259765" data-name="Trazado 1259765" d="M54.881,54.141c1.067-.161,1.208,1.45.282,1.605-1.363.229-1.272-1.456-.282-1.605" transform="translate(-45.299 -45.292)" fill="#0d5365"/>
          </g>
        </g>
      </g>
    </g>
  </g>
</svg>
