<svg xmlns="http://www.w3.org/2000/svg" xmlns:xlink="http://www.w3.org/1999/xlink" width="188" height="159" viewBox="0 0 188 159">
  <defs>
    <clipPath id="clip-path">
      <rect id="Rectángulo_455484" data-name="Rectángulo 455484" width="188" height="159" transform="translate(289.711 4830)" fill="#fff" stroke="#707070" stroke-width="1"/>
    </clipPath>
    <clipPath id="clip-path-2">
      <rect id="Rectángulo_455480" data-name="Rectángulo 455480" width="35.074" height="93.333" fill="#5dd2e4"/>
    </clipPath>
    <clipPath id="clip-path-3">
      <rect id="Rectángulo_455481" data-name="Rectángulo 455481" width="37.253" height="99.131" fill="#ebcc30"/>
    </clipPath>
    <clipPath id="clip-path-4">
      <rect id="Rectángulo_455483" data-name="Rectángulo 455483" width="110" height="110" transform="translate(301.461 4830.75)" fill="#fff" stroke="#707070" stroke-width="1"/>
    </clipPath>
    <clipPath id="clip-path-5">
      <rect id="Rectángulo_455974" data-name="Rectángulo 455974" width="100" height="99.749" fill="none"/>
    </clipPath>
  </defs>
  <g id="Enmascarar_grupo_1119182" data-name="Enmascarar grupo 1119182" transform="translate(-289.711 -4830)" clip-path="url(#clip-path)">
    <g id="Grupo_1204378" data-name="Grupo 1204378" transform="translate(290 4830.667)">
      <g id="Grupo_1204377" data-name="Grupo 1204377" clip-path="url(#clip-path-2)">
        <path id="Trazado_1258446" data-name="Trazado 1258446" d="M33.661,5.334,0,53.509v3.862L34.7,7.706a8.612,8.612,0,0,0-1.041-2.372" transform="translate(0 -2.876)" fill="#5dd2e4"/>
        <path id="Trazado_1258447" data-name="Trazado 1258447" d="M35.074,34.463,0,84.66v3.862l35.074-50.2Z" transform="translate(0 -18.579)" fill="#5dd2e4"/>
        <path id="Trazado_1258448" data-name="Trazado 1258448" d="M29.975.018,0,42.918v3.862L32.12.811A4.113,4.113,0,0,0,29.975.018" transform="translate(0.001 -0.01)" fill="#5dd2e4"/>
        <path id="Trazado_1258449" data-name="Trazado 1258449" d="M24.585,0,0,35.185v3.862L27.283,0Z" transform="translate(0)" fill="#5dd2e4"/>
        <path id="Trazado_1258450" data-name="Trazado 1258450" d="M35.074,17.7,0,67.9v3.862l35.074-50.2Z" transform="translate(0 -9.544)" fill="#5dd2e4"/>
        <path id="Trazado_1258451" data-name="Trazado 1258451" d="M8.394,0,0,12.013v3.862L11.092,0Z" transform="translate(0)" fill="#5dd2e4"/>
        <path id="Trazado_1258452" data-name="Trazado 1258452" d="M5.333,0C2.388,0,0,3.417,0,7.632v.519L5.7,0Z" transform="translate(-0.001)" fill="#5dd2e4"/>
        <path id="Trazado_1258453" data-name="Trazado 1258453" d="M13.791,0,0,19.737V23.6L16.489,0Z" transform="translate(0)" fill="#5dd2e4"/>
        <path id="Trazado_1258454" data-name="Trazado 1258454" d="M19.188,0,0,27.461v3.862L21.886,0Z" transform="translate(0)" fill="#5dd2e4"/>
        <path id="Trazado_1258455" data-name="Trazado 1258455" d="M51.687,118.1,24.5,157h2.7l24.484-35.041Z" transform="translate(-16.613 -63.666)" fill="#5dd2e4"/>
        <path id="Trazado_1258456" data-name="Trazado 1258456" d="M63.049,134.855,41.264,166.034h2.7l19.087-27.317Z" transform="translate(-27.975 -72.7)" fill="#5dd2e4"/>
        <path id="Trazado_1258457" data-name="Trazado 1258457" d="M74.411,151.614,58.023,175.068h2.7l13.69-19.593Z" transform="translate(-39.337 -81.735)" fill="#5dd2e4"/>
        <path id="Trazado_1258458" data-name="Trazado 1258458" d="M91.8,193.138c2.945,0,5.332-3.417,5.332-7.631v-.376l-5.595,8.007Z" transform="translate(-62.059 -99.804)" fill="#5dd2e4"/>
        <path id="Trazado_1258459" data-name="Trazado 1258459" d="M85.772,168.372,74.781,184.1h2.7l8.293-11.869Z" transform="translate(-50.698 -90.77)" fill="#5dd2e4"/>
        <path id="Trazado_1258460" data-name="Trazado 1258460" d="M35.074,67.821,0,118.018v3.862l35.074-50.2Z" transform="translate(0 -36.562)" fill="#5dd2e4"/>
        <path id="Trazado_1258461" data-name="Trazado 1258461" d="M35.074,51.062,0,101.26v3.862l35.074-50.2Z" transform="translate(0 -27.528)" fill="#5dd2e4"/>
        <path id="Trazado_1258462" data-name="Trazado 1258462" d="M35.918,84.579,1.245,134.2a8.505,8.505,0,0,0,1.061,2.343l33.612-48.1Z" transform="translate(-0.844 -45.597)" fill="#5dd2e4"/>
        <path id="Trazado_1258463" data-name="Trazado 1258463" d="M41.434,101.338,9.38,147.212a4.066,4.066,0,0,0,2.176.748L41.434,105.2Z" transform="translate(-6.359 -54.631)" fill="#5dd2e4"/>
      </g>
    </g>
    <g id="Grupo_1204380" data-name="Grupo 1204380" transform="translate(439.296 4888.667)">
      <g id="Grupo_1204379" data-name="Grupo 1204379" clip-path="url(#clip-path-3)">
        <path id="Trazado_1258464" data-name="Trazado 1258464" d="M35.752,5.334,0,56.5v4.1L36.858,7.854a9.146,9.146,0,0,0-1.105-2.52" transform="translate(0 -2.723)" fill="#ebcc30"/>
        <path id="Trazado_1258465" data-name="Trazado 1258465" d="M37.253,34.463,0,87.778v4.1L37.253,38.564Z" transform="translate(0 -17.592)" fill="#ebcc30"/>
        <path id="Trazado_1258466" data-name="Trazado 1258466" d="M31.837.018,0,45.583v4.1L34.115.86A4.368,4.368,0,0,0,31.837.018" transform="translate(0.001 -0.009)" fill="#ebcc30"/>
        <path id="Trazado_1258467" data-name="Trazado 1258467" d="M26.112,0,0,37.371v4.1L28.978,0Z" transform="translate(0)" fill="#ebcc30"/>
        <path id="Trazado_1258468" data-name="Trazado 1258468" d="M37.253,17.7,0,71.02v4.1L37.253,21.806Z" transform="translate(0 -9.037)" fill="#ebcc30"/>
        <path id="Trazado_1258469" data-name="Trazado 1258469" d="M8.915,0,0,12.76v4.1L11.781,0Z" transform="translate(0)" fill="#ebcc30"/>
        <path id="Trazado_1258470" data-name="Trazado 1258470" d="M5.664,0C2.536,0,0,3.629,0,8.106v.552L6.05,0Z" transform="translate(-0.001)" fill="#ebcc30"/>
        <path id="Trazado_1258471" data-name="Trazado 1258471" d="M14.648,0,0,20.963v4.1L17.514,0Z" transform="translate(0)" fill="#ebcc30"/>
        <path id="Trazado_1258472" data-name="Trazado 1258472" d="M20.38,0,0,29.167v4.1L23.246,0Z" transform="translate(0)" fill="#ebcc30"/>
        <path id="Trazado_1258473" data-name="Trazado 1258473" d="M53.376,118.1,24.5,159.416h2.866l26-37.218Z" transform="translate(-16.123 -60.285)" fill="#ebcc30"/>
        <path id="Trazado_1258474" data-name="Trazado 1258474" d="M64.4,134.855,41.264,167.971H44.13L64.4,138.957Z" transform="translate(-27.15 -68.839)" fill="#ebcc30"/>
        <path id="Trazado_1258475" data-name="Trazado 1258475" d="M75.429,151.614,58.023,176.525h2.866l14.54-20.81Z" transform="translate(-38.176 -77.394)" fill="#ebcc30"/>
        <path id="Trazado_1258476" data-name="Trazado 1258476" d="M91.818,193.635c3.128,0,5.663-3.629,5.663-8.105v-.4l-5.942,8.5Z" transform="translate(-60.228 -94.504)" fill="#ebcc30"/>
        <path id="Trazado_1258477" data-name="Trazado 1258477" d="M86.455,168.372,74.781,185.08h2.866l8.808-12.606Z" transform="translate(-49.202 -85.949)" fill="#ebcc30"/>
        <path id="Trazado_1258478" data-name="Trazado 1258478" d="M37.253,67.821,0,121.136v4.1L37.253,71.923Z" transform="translate(0 -34.62)" fill="#ebcc30"/>
        <path id="Trazado_1258479" data-name="Trazado 1258479" d="M37.253,51.062,0,104.378v4.1L37.253,55.164Z" transform="translate(0 -26.066)" fill="#ebcc30"/>
        <path id="Trazado_1258480" data-name="Trazado 1258480" d="M38.072,84.579,1.245,137.285a9.034,9.034,0,0,0,1.127,2.488l35.7-51.093Z" transform="translate(-0.819 -43.175)" fill="#ebcc30"/>
        <path id="Trazado_1258481" data-name="Trazado 1258481" d="M43.425,101.338,9.38,150.062a4.319,4.319,0,0,0,2.311.794L43.425,105.44Z" transform="translate(-6.172 -51.73)" fill="#ebcc30"/>
      </g>
    </g>
    <circle id="Elipse_13682" data-name="Elipse 13682" cx="74" cy="74" r="74" transform="translate(311.711 4838)" fill="#9db7fe"/>
    <g id="Enmascarar_grupo_1119181" data-name="Enmascarar grupo 1119181" transform="translate(29.25 26.25)" clip-path="url(#clip-path-4)">
      <g id="Grupo_1204852" data-name="Grupo 1204852" transform="translate(306.461 4835.75)">
        <g id="Grupo_1204851" data-name="Grupo 1204851" clip-path="url(#clip-path-5)">
          <path id="Trazado_1260465" data-name="Trazado 1260465" d="M1.567,68.307C-.424,68.06-.011,64.26.142,62.738c.89-8.893,9.2-9.915,16.011-12.335-.149-.7.213-2.409-.072-2.9-.05-.085-1.283-.724-1.658-1.055C9.731,42.313,9.554,36.144,10.174,30.2c1.061-10.17,13.059-14.011,20.251-7.035V17.019c0-2.088,2.47-7.326,3.764-9.094,9.282-12.694,29.275-9.567,34.315,5.3a26.936,26.936,0,0,1,1.065,3.792v6.143c7.2-6.956,19.189-3.149,20.251,7.035.62,5.946.443,12.115-4.248,16.253-.375.331-1.608.97-1.658,1.055-.285.488.077,2.2-.072,2.9,6.807,2.42,15.121,3.442,16.01,12.335.164,1.638.564,5.173-1.426,5.569-.048-.075-1.12-.206-1.369-1.06-.274-.938,0-2.678-.139-3.86a9.074,9.074,0,0,0-4.87-7.131,74.761,74.761,0,0,0-8.335-2.533c-.744.066-.9,1.164-1.416,1.74a5.776,5.776,0,0,1-4.443,1.7c-2.565-.122-2.761-1.57-4-2-.623-2.121-1.439-1.525-3.143-.857-.3.118-1.07.113-1.155.475a8.744,8.744,0,0,0,.138,2.685c.153.216,3.923,1.344,4.923,1.935,2.945,1.74,6.38,6.393,6.38,9.906v7c1.045.007,2.1-.009,3.143,0a19.292,19.292,0,0,0,2.857,0c.215-.041.245-.07.286-.286.3-1.6-1-6.416,1.841-6.011a2.22,2.22,0,0,1,1.3,1.3v5H97c.121-.979-.207-2.313.059-3.226.249-.854,1.321-.985,1.369-1.06a3.466,3.466,0,0,1,1.164.692c.516.722.479,6.451-.449,6.451H81v8.429c0,.828-1.465,1.213-2.144,1.285-4.306.452-9.293-.367-13.676.039-.352.121-1.3,2.583-1.666,3.191a15.774,15.774,0,0,1-27.031,0c-.368-.608-1.314-3.07-1.666-3.191-4.383-.406-9.369.413-13.676-.039C20.461,88.806,19,88.421,19,87.593V79.164H.853c-.8,0-1.639-7.223.714-7.143.048.075,1.12.207,1.369,1.06.266.912-.061,2.246.059,3.226H9.568v-5a2.22,2.22,0,0,1,1.3-1.3c2.841-.4,1.54,4.414,1.841,6.011.041.215.07.245.286.286a19.292,19.292,0,0,0,2.857,0c1.045-.009,2.1.007,3.143,0v-7c0-3.512,3.436-8.166,6.38-9.906,1-.591,4.77-1.719,4.923-1.935a8.743,8.743,0,0,0,.138-2.685c-.085-.362-.854-.357-1.155-.475-1.7-.668-2.52-1.264-3.143.857-.219.077-3.753,2.113-4,2.286-1.521-.327-3.357-.787-4.443-1.986-.521-.575-.669-1.674-1.416-1.74a74.086,74.086,0,0,0-8.336,2.532,9,9,0,0,0-4.869,7.132c-.139,1.183.135,2.922-.139,3.86-.249.854-1.321.985-1.369,1.06m58-62.288C48.949-1.193,33.283,5.891,33.283,18.734v5.286h5.572c.335,0,.685,1.149.875,1.161.347.023,1.849-.957,2.621-1.094a19.989,19.989,0,0,0,2.862-.294c1.654-.5,3.089-4.665,4.786-4.66,1.757,0,2.854,4.023,5,4.6,1.1.3,1.813.2,2.874.412.7.141,2.033,1.059,2.392,1.036.123-.008.619-1.162,1.163-1.162H66c.087,0,.407.392.714.286V18.448c0-4.482-3.508-9.961-7.143-12.429M20.357,22.665a8.8,8.8,0,0,0-7.077,7.21c-.345,3.182-.4,9.767,1.313,12.405,4.427,6.805,15.022,4.018,15.83-4.12.708-7.141-.415-16.913-10.066-15.494m56.281-.006c-7.465,1.176-7.732,9.806-7.038,15.758,1.036,8.882,13.523,10.508,16.594,2.369.951-2.522.877-11.321-.389-13.717a8.957,8.957,0,0,0-9.167-4.411M56.712,26.877c-.644-.1-1.418.083-2.118-.025-2.182-.335-3.226-2.222-4.6-3.683-1.388,1.489-2.392,3.316-4.6,3.685-1.107.185-2.57-.155-3.63.582a23.709,23.709,0,0,0-2.144,3.359C37.913,38.452,43,46.471,51.283,45.449c7.041-.868,10.571-8.071,9.083-14.655-.313-1.387-2.114-3.685-3.655-3.917m-20,0c-3.475-.422-3.72,1.491-3.441,4.442.219,2.326,1.369,2.195,3.441,2.129Zm26.572,6.572c3.407.427,3.721-1.189,3.442-4.157-.206-2.189-1.373-2.576-3.442-2.415Zm-30,2.857V56.592c1.072.017,8.473-1.616,8.731-1.983l.149-8.455a15.274,15.274,0,0,1-4.888-7.125c-.17-.519-.486-2.6-.591-2.694-.248-.211-2.787.091-3.4-.029m33.43,0c-.714.151-2.963-.23-3.389.039-.25.157-.364,1.947-.526,2.475a15.332,15.332,0,0,1-4.965,7.334l.149,8.455c.258.368,7.659,2,8.731,1.983ZM30.426,45.449c-.906.163-1.479,1.1-2.19,1.679-.235.19-.824.235-.907.366a14.772,14.772,0,0,0-.006,3.059,13.725,13.725,0,0,0,3.1.9Zm39.144,0v6a9.106,9.106,0,0,0,3.094-.9,12.231,12.231,0,0,0-.011-3.038ZM45.283,50.877c.057,1.344.293,5.009-.558,5.87-1.026,1.038-5.074,1.335-6.586,1.845,2.786,12.53,20.929,12.534,23.717,0-1.512-.511-5.56-.807-6.586-1.845-.85-.861-.617-4.528-.558-5.87a1.64,1.64,0,0,0,.3-.691c.028-.367.078-2.442-.159-2.456A15.616,15.616,0,0,1,45,47.735c.044.809-.072,1.641-.013,2.451a1.615,1.615,0,0,0,.3.691m-20.858-2a13.589,13.589,0,0,1-5.141,0c-1.253,7.308,6.294,7.127,5.141,0m56.286,0a13.589,13.589,0,0,1-5.141,0c-.218,1.963-.107,5.506,2.684,5.418,2.843-.09,2.564-3.415,2.457-5.417m-45.456,10.6a8.816,8.816,0,0,0-2.721.508c-.985.379.185,2.837.5,3.569.849,1.951,4.968,7.523,7.023,7.855a11.13,11.13,0,0,0,3.212-1.538c.258-.184.42-.2.146-.414-.8-.616-1.961-1.017-2.843-1.725a17.052,17.052,0,0,1-4.395-5.606c-.244-.507-.811-2.567-.925-2.648m32.578.567c-.655.035-2.678-.864-3.094-.567-.123.088-.746,2.284-1.02,2.84a16.276,16.276,0,0,1-7.292,7.277c2.468,1.379,2.744,2.671,5.278.709,2.817-2.182,5.947-6.631,6.128-10.259m-45.98,9.837c-.553,4.929.412,10.824,0,15.858H28.14V81.593c0-.2-1.691-1.071-.935-2.645,1-2.07,4.078,1.066,4.078,1.787v5h3.142a14.8,14.8,0,0,1,1.185-8.1c.637-1.493,1.724-2.628,2.229-4-4.09-3-7.6-7.407-8.557-12.467-3.929.384-7.011,5.006-7.428,8.716m48.859-8.143a23.9,23.9,0,0,1-5.849,9.723c-.451.443-2.624,1.9-2.707,2.171-.232.774,2.144,2.142.555,3.821-.478-.185-1.707.263-2.286-.571-.191-1.133-3.058-3.419-4.136-4.007C42.249,65.214,29.509,84.88,42.712,94.307c4.785,3.417,10.375,3.48,15.118-.168,1.914-1.471,4.882-5.544,4.882-7.975V81.878c0-.409.723-.964,1.143-1,2.331-.2,2.053,3.31,1.716,4.856h3.142v-5c0-.719,2.568-3.324,3.863-2.149,1.347,1.221-.557,2.474-.714,3.3-.212,1.117.139,2.671-.008,3.853.569.015,1.146-.022,1.716,0,1.517.054,3.054-.039,4.572,0V69.878c0-2.96-3.391-7.744-6.278-8.58-1.375-.4-.933-.183-1.151.437" transform="translate(0 0)" fill="#060504"/>
          <path id="Trazado_1260466" data-name="Trazado 1260466" d="M293.058,202.605a23.031,23.031,0,0,1,0,3.714c-.048.075-1.12.207-1.369,1.06-.266.912.061,2.246-.059,3.226h-6.572v-5a2.22,2.22,0,0,0-1.3-1.3c-2.841-.4-1.54,4.414-1.841,6.011l-.286.286a19.287,19.287,0,0,1-2.857,0c.094-5.4.472-9.992-2.626-14.66-1.121-1.688-2.728-2.749-3.66-4.483a5.776,5.776,0,0,0,4.443-1.7c.519-.577.672-1.674,1.416-1.74a74.76,74.76,0,0,1,8.335,2.533,9.074,9.074,0,0,1,4.87,7.131c.139,1.183-.135,2.922.139,3.86.249.854,1.321.985,1.369,1.06" transform="translate(-194.63 -134.299)" fill="#c1fbff"/>
          <path id="Trazado_1260467" data-name="Trazado 1260467" d="M25.871,191.747a29.2,29.2,0,0,0-3.546,4.026c-3.183,4.651-2.844,9.426-2.74,14.832a19.3,19.3,0,0,1-2.857,0l-.286-.286c-.3-1.6,1-6.416-1.841-6.011a2.22,2.22,0,0,0-1.3,1.3v5H6.727c-.121-.979.207-2.313-.059-3.226-.249-.854-1.321-.985-1.369-1.06a23.031,23.031,0,0,1,0-3.714c.048-.075,1.12-.206,1.369-1.06.274-.938,0-2.678.139-3.86a9,9,0,0,1,4.869-7.132,74.091,74.091,0,0,1,8.336-2.532c.747.066.895,1.165,1.416,1.74,1.086,1.2,2.922,1.659,4.443,1.986" transform="translate(-3.731 -134.298)" fill="#302c9e"/>
          <path id="Trazado_1260468" data-name="Trazado 1260468" d="M142.773,13.855A20.2,20.2,0,0,1,138.2,31.57c-2.147-.579-3.244-4.6-5-4.6-1.7,0-3.132,4.165-4.786,4.661a20.028,20.028,0,0,1-2.862.294c-.771.137-2.274,1.117-2.621,1.094-.189-.013-.539-1.161-.875-1.161h-5.572V26.57c0-12.842,15.666-19.927,26.287-12.715" transform="translate(-83.203 -7.837)" fill="#feea89"/>
          <path id="Trazado_1260469" data-name="Trazado 1260469" d="M53.07,78.98c9.651-1.418,10.774,8.353,10.066,15.495-.807,8.139-11.4,10.925-15.83,4.12-1.717-2.639-1.658-9.223-1.313-12.406a8.8,8.8,0,0,1,7.077-7.21" transform="translate(-32.713 -56.314)" fill="#fbd0a2"/>
          <path id="Trazado_1260470" data-name="Trazado 1260470" d="M250,79.044a8.957,8.957,0,0,1,9.167,4.411c1.266,2.4,1.341,11.195.389,13.717-3.071,8.139-15.558,6.513-16.594-2.369-.694-5.952-.427-14.582,7.038-15.758" transform="translate(-173.362 -56.385)" fill="#fbd0a2"/>
          <path id="Trazado_1260471" data-name="Trazado 1260471" d="M154.949,84.8c.052,7,1.1,14.072-5.429,18.572-8.288,1.022-13.37-7-11.654-14.654a23.708,23.708,0,0,1,2.144-3.359c1.06-.737,2.522-.4,3.63-.582,2.2-.369,3.207-2.2,4.6-3.685,1.37,1.461,2.414,3.349,4.6,3.683.7.107,1.474-.072,2.118.025" transform="translate(-98.237 -57.919)" fill="#fbd0a2"/>
          <path id="Trazado_1260472" data-name="Trazado 1260472" d="M76.046,222.776c.417-3.71,3.5-8.332,7.428-8.716.961,5.06,4.468,9.463,8.557,12.467-.505,1.377-1.592,2.511-2.229,4a14.8,14.8,0,0,0-1.185,8.1H85.475v-5c0-.721-3.082-3.858-4.078-1.787-.757,1.574.935,2.44.935,2.645v4.143H76.046c.412-5.033-.553-10.929,0-15.858" transform="translate(-54.192 -152.898)" fill="#cbeca9"/>
          <path id="Trazado_1260473" data-name="Trazado 1260473" d="M150.056,178.065c-.058,1.343-.292,5.01.558,5.87,1.026,1.038,5.074,1.335,6.586,1.845-2.788,12.534-20.931,12.53-23.717,0,1.512-.511,5.56-.807,6.586-1.845.851-.861.615-4.526.558-5.87a19.9,19.9,0,0,0,9.429,0" transform="translate(-95.344 -127.188)" fill="#fcbb84"/>
          <path id="Trazado_1260474" data-name="Trazado 1260474" d="M153.342,254.719a15.537,15.537,0,0,1-1.666,10.763,19.176,19.176,0,0,1-1.763,2.095c.1-1.154-.582-2.358-.227-3.515.507-1.651,3.376-2.334,2.453-5.428-.636-2.132-3.982-1.667-5.08-2.346-1.041-.644-1.294-3.968-3.864-4.157-3.177-.233-3.206,3.4-4.428,4.157-1.1.678-4.445.215-5.08,2.346-.923,3.1,1.944,3.767,2.453,5.428.5,1.644-1.055,3.468.469,5.247,2.344,2.738,4.565-.431,6.522-.245.991.095,2.3,1.149,3.354,1.37-.062.029-.25.467-.644.629a16.481,16.481,0,0,1-10.213,1.086c-13.2-9.427-.462-29.093,13.579-21.436,1.079.588,3.945,2.874,4.136,4.007" transform="translate(-92.915 -177.841)" fill="#f1dd62"/>
          <path id="Trazado_1260475" data-name="Trazado 1260475" d="M228.915,240.066c-.57-.02-1.147.017-1.716,0,.147-1.182-.2-2.736.008-3.853.157-.824,2.061-2.077.714-3.3-1.295-1.175-3.863,1.43-3.863,2.149v5h-3.142c.337-1.546.615-5.058-1.716-4.856a10.487,10.487,0,0,0-1.143-3.429c1.589-1.679-.787-3.047-.555-3.821.082-.275,2.255-1.728,2.707-2.171a23.9,23.9,0,0,0,5.849-9.723c1.734.816,2.686,4.092,2.852,5.862.543,5.758-.394,12.3,0,18.139" transform="translate(-155.345 -154.33)" fill="#cbeca9"/>
          <path id="Trazado_1260476" data-name="Trazado 1260476" d="M211.287,126.915V147.2c-1.072.017-8.473-1.616-8.731-1.984l-.149-8.455a15.332,15.332,0,0,0,4.965-7.334c.162-.528.276-2.318.526-2.475.426-.269,2.675.112,3.389-.039" transform="translate(-144.575 -90.609)" fill="#ebcc30"/>
          <path id="Trazado_1260477" data-name="Trazado 1260477" d="M116.486,126.945c.613.121,3.152-.182,3.4.029.105.089.422,2.174.591,2.694a15.274,15.274,0,0,0,4.888,7.125l-.149,8.455c-.258.368-7.659,2-8.731,1.983Z" transform="translate(-83.203 -90.64)" fill="#ebcc30"/>
          <path id="Trazado_1260478" data-name="Trazado 1260478" d="M197.058,21.065c3.635,2.468,7.143,7.947,7.143,12.429v5.857c-.308.107-.627-.286-.714-.286h-4.572c-.544,0-1.04,1.155-1.163,1.162-.359.023-1.7-.9-2.392-1.036-1.06-.215-1.775-.116-2.874-.412a20.2,20.2,0,0,0,4.572-17.715" transform="translate(-137.488 -15.046)" fill="#ebcc30"/>
          <path id="Trazado_1260479" data-name="Trazado 1260479" d="M247.486,214.469c.217-.62-.224-.835,1.151-.437,2.887.835,6.278,5.62,6.278,8.58V238.47c-1.518-.039-3.055.054-4.572,0-.4-5.841.538-12.38,0-18.139-.167-1.77-1.118-5.046-2.852-5.862" transform="translate(-176.773 -152.735)" fill="#9bb97c"/>
          <path id="Trazado_1260480" data-name="Trazado 1260480" d="M244.488,190.065c.746.781,2.317.571,3.143.857,1.239.43,1.435,1.878,4,2,.932,1.734,2.54,2.795,3.66,4.483,3.1,4.669,2.72,9.262,2.626,14.66-1.045-.009-2.1.007-3.143,0v-7c0-3.512-3.436-8.166-6.38-9.906-1-.591-4.77-1.719-4.923-1.935a8.744,8.744,0,0,1-.138-2.685c.085-.362.854-.357,1.155-.475" transform="translate(-173.775 -135.759)" fill="#5dd2e4"/>
          <path id="Trazado_1260481" data-name="Trazado 1260481" d="M68.757,190.065c.3.118,1.07.113,1.155.475a8.743,8.743,0,0,1-.138,2.685c-.153.216-3.923,1.344-4.923,1.935-2.945,1.74-6.38,6.393-6.38,9.906v7c-1.045.007-2.1-.009-3.143,0-.1-5.405-.443-10.181,2.74-14.832a29.2,29.2,0,0,1,3.546-4.026c.247-.173,3.781-2.209,4-2.286.822-.287,2.4-.076,3.143-.857" transform="translate(-39.474 -135.759)" fill="#1c1984"/>
          <path id="Trazado_1260482" data-name="Trazado 1260482" d="M169.487,269.636a10.488,10.488,0,0,1,1.143,3.429c-.419.036-1.143.591-1.143,1v4.286c0,2.432-2.968,6.5-4.882,7.975-4.744,3.647-10.333,3.584-15.118.168a16.481,16.481,0,0,0,10.213-1.086c.395-.161.582-.6.644-.629.6-.28,1.469,0,2.433-.853.911-.8.665-1.539,1-2a19.184,19.184,0,0,0,1.763-2.095,15.538,15.538,0,0,0,1.666-10.763c.579.834,1.807.386,2.286.571" transform="translate(-106.774 -192.187)" fill="#efd032"/>
          <path id="Trazado_1260483" data-name="Trazado 1260483" d="M179.486,112.637c6.531-4.5,5.481-11.572,5.429-18.572,1.54.232,3.342,2.53,3.655,3.917,1.488,6.584-2.043,13.787-9.083,14.655" transform="translate(-128.203 -67.188)" fill="#f7b782"/>
          <path id="Trazado_1260484" data-name="Trazado 1260484" d="M115.621,208.068c.114.082.682,2.142.926,2.648a17.044,17.044,0,0,0,4.395,5.606c.882.708,2.044,1.11,2.843,1.725.274.211.112.23-.146.414A11.119,11.119,0,0,1,120.427,220c-2.055-.332-6.175-5.9-7.023-7.855-.318-.732-1.489-3.19-.5-3.569a8.815,8.815,0,0,1,2.72-.508" transform="translate(-80.366 -148.594)" fill="#ddedf4"/>
          <path id="Trazado_1260485" data-name="Trazado 1260485" d="M208.9,208.569c-.181,3.628-3.311,8.077-6.128,10.259-2.533,1.962-2.81.669-5.278-.709a16.276,16.276,0,0,0,7.292-7.277c.275-.556.9-2.752,1.021-2.84.416-.3,2.438.6,3.093.567" transform="translate(-141.063 -148.528)" fill="#ddedf4"/>
          <path id="Trazado_1260486" data-name="Trazado 1260486" d="M157.7,170.2a1.615,1.615,0,0,1-.3-.691c-.059-.81.057-1.641.013-2.451a15.616,15.616,0,0,0,9.852-.005c.237.013.187,2.089.159,2.456a1.639,1.639,0,0,1-.3.691,19.9,19.9,0,0,1-9.429,0" transform="translate(-112.417 -119.32)" fill="#db9255"/>
          <path id="Trazado_1260487" data-name="Trazado 1260487" d="M72.28,171.062c1.153,7.127-6.394,7.309-5.141,0a13.588,13.588,0,0,0,5.141,0" transform="translate(-47.855 -122.186)" fill="#f7b782"/>
          <path id="Trazado_1260488" data-name="Trazado 1260488" d="M269.448,171.063c.107,2,.385,5.328-2.457,5.418-2.792.088-2.9-3.455-2.684-5.418a13.588,13.588,0,0,0,5.141,0" transform="translate(-188.736 -122.186)" fill="#f7b782"/>
          <path id="Trazado_1260489" data-name="Trazado 1260489" d="M119.674,93.92v6.572c-2.073.066-3.222.2-3.441-2.129-.278-2.952-.034-4.864,3.441-4.442" transform="translate(-82.963 -67.043)" fill="#f7b782"/>
          <path id="Trazado_1260490" data-name="Trazado 1260490" d="M221.486,100.555V93.984c2.069-.162,3.236.226,3.442,2.415.279,2.968-.035,4.584-3.442,4.157" transform="translate(-158.202 -67.107)" fill="#db9255"/>
          <path id="Trazado_1260491" data-name="Trazado 1260491" d="M247.486,188.516c1.7-.668,2.52-1.264,3.143.857-.826-.287-2.4-.076-3.143-.857" transform="translate(-176.773 -134.21)" fill="#de74a3"/>
          <path id="Trazado_1260492" data-name="Trazado 1260492" d="M94.629,188.516c-.744.781-2.321.57-3.143.857.623-2.121,1.439-1.525,3.143-.857" transform="translate(-65.346 -134.21)" fill="#de74a3"/>
          <path id="Trazado_1260493" data-name="Trazado 1260493" d="M44.772,266.351c-.215-.041-.245-.07-.286-.286Z" transform="translate(-31.775 -190.044)" fill="#da568e"/>
          <path id="Trazado_1260494" data-name="Trazado 1260494" d="M304.486,266.351l.286-.286c-.041.215-.07.245-.286.286" transform="translate(-217.487 -190.044)" fill="#da568e"/>
          <path id="Trazado_1260495" data-name="Trazado 1260495" d="M158.467,275.425c-.331.466-.085,1.2-1,2-.963.849-1.835.573-2.433.853-1.049-.22-2.363-1.275-3.354-1.37-1.957-.186-4.178,2.983-6.522.245-1.523-1.779.036-3.6-.469-5.247-.509-1.661-3.376-2.33-2.453-5.428.635-2.131,3.984-1.668,5.08-2.346,1.222-.757,1.251-4.39,4.428-4.157,2.57.189,2.824,3.513,3.864,4.157,1.1.68,4.444.214,5.08,2.346.923,3.094-1.946,3.777-2.453,5.428-.355,1.156.332,2.36.227,3.515M147.609,271c.243,1.112-.177,2.932,0,4.143a7.4,7.4,0,0,1,7.715,0V271c0-.553,2.924-3.258,2.57-3.57-3.571.076-4.772-1.491-6.427-4.282-1.655,2.79-2.856,4.358-6.427,4.282-.311.275,2.408,2.83,2.57,3.57" transform="translate(-101.469 -185.689)" fill="#060504"/>
          <path id="Trazado_1260496" data-name="Trazado 1260496" d="M155,278.936c-.162-.741-2.882-3.295-2.57-3.57,3.571.076,4.772-1.492,6.427-4.282,1.655,2.79,2.856,4.358,6.427,4.282.353.313-2.57,3.017-2.57,3.57v4.143a7.4,7.4,0,0,0-7.715,0c-.177-1.211.243-3.031,0-4.143" transform="translate(-108.859 -193.629)" fill="#df9240"/>
        </g>
      </g>
    </g>
  </g>
</svg>
