<svg xmlns="http://www.w3.org/2000/svg" xmlns:xlink="http://www.w3.org/1999/xlink" width="188" height="175" viewBox="0 0 188 175">
  <defs>
    <clipPath id="clip-path">
      <rect id="Rect치ngulo_455820" data-name="Rect치ngulo 455820" width="110" height="110" fill="none"/>
    </clipPath>
  </defs>
  <g id="Grupo_1204851" data-name="Grupo 1204851" transform="translate(-185.711 -2491)">
    <g id="Grupo_1204973" data-name="Grupo 1204973">
      <g id="Grupo_1204349" data-name="Grupo 1204349" transform="translate(185.711 2491)">
        <rect id="Rect치ngulo_455283" data-name="Rect치ngulo 455283" width="188" height="175" rx="19" fill="#c1fbff"/>
      </g>
      <g id="Grupo_1204748" data-name="Grupo 1204748" transform="translate(224.711 2524)">
        <g id="Grupo_1204747" data-name="Grupo 1204747" clip-path="url(#clip-path)">
          <path id="Trazado_1259738" data-name="Trazado 1259738" d="M91.784,34.022h19.335l-.186-18.544s.186-8.86-8.924-9.478L30.8,5.794s-9.854-1.03-9.668,13.393l-.372,67.788H5.332s-4.09,21.017,11.341,25.343l65.814-.824s8.366-1.442,9.3-12.157Z" transform="translate(-3.322 -3.769)" fill="#fff7d9"/>
          <path id="Trazado_1259739" data-name="Trazado 1259739" d="M134.191,82.28S118.509,73.008,119.5,66.621l.4-14.217,15.086-8.654,14.689,7.83.4,16.483s-9.925,14.423-15.086,14.423" transform="translate(-82.963 -28.538)" fill="#ebcc30"/>
          <path id="Trazado_1259740" data-name="Trazado 1259740" d="M89.978,32.352V95.459c0,6.2-7.707,14.067-13.372,14.039-20.133-.985-41.474,1.454-61.469.059C1.869,108.632-.905,96.258.23,83.616c.058-.645.515-2.239,1.117-2.239H15.936c.152-15.7-.2-31.426-.015-47.13.081-7.038-.27-16.554.332-23.276C16.787,5.009,21.639.073,27.06,0H98.62c4.743.116,9.525,4.259,10.717,9.332.779,3.317.809,17.067.413,20.768-.062.58-.618,2.252-1.1,2.252ZM89.664,3.841H27.074c-4,0-7.478,4.531-7.368,8.872l-.318,68.665H62.526a3.382,3.382,0,0,1,1.091,1.572c.718,4.161-.725,9.09.547,13.65,3.73,13.375,21.257,11.364,22.374-3.214l-.013-82.071a20.664,20.664,0,0,1,3.139-7.473m16.628,24.687V12.707a19.718,19.718,0,0,0-.883-3.542,7.7,7.7,0,0,0-14.345-.47c-.18.382-1.086,2.809-1.086,2.969V28.527ZM60.173,85.2h-56l-.471.522v8c0,5.581,5.782,12,10.824,12H65.193c-1.228-1.809-2.736-3.477-3.621-5.548a24.51,24.51,0,0,1-1.4-4.709Z" transform="translate(0)"/>
          <path id="Trazado_1259741" data-name="Trazado 1259741" d="M144.291,71.951a84.4,84.4,0,0,1-11.156,8.064,1.8,1.8,0,0,1-2.24,0,87.972,87.972,0,0,1-11.287-8.1,17.934,17.934,0,0,1-4.3-9.444,101.857,101.857,0,0,1-.059-14.927c.145-1.142.737-1.565,1.617-2.146l14.989-7.422,1.408.3,14.85,7.879a1.714,1.714,0,0,1,.668,1.393,101.885,101.885,0,0,1-.058,14.926,17.093,17.093,0,0,1-4.431,9.482m.4-23.466L131.847,42.2,119.34,48.485c.457,5.122-1.2,12.98.889,17.567,1.979,4.343,8.054,6.927,11.609,9.842.586.019,8.961-5.914,9.771-6.726,5.121-5.129,2.559-14.029,3.079-20.683" transform="translate(-79.999 -24.77)"/>
          <path id="Trazado_1259743" data-name="Trazado 1259743" d="M95.2,178.428a2.272,2.272,0,0,1,.626-3.137l43.069-.264c2.371.058,2.873,3.486.324,3.849l-42.384,0c-.489-.046-1.285-.058-1.635-.445" transform="translate(-65.065 -114.171)"/>
          <path id="Trazado_1259745" data-name="Trazado 1259745" d="M95.2,178.428a2.272,2.272,0,0,1,.626-3.137l43.069-.264c2.371.058,2.873,3.486.324,3.849l-42.384,0c-.489-.046-1.285-.058-1.635-.445" transform="translate(-65.065 -106.171)"/>
          <path id="Trazado_1259744" data-name="Trazado 1259744" d="M157.612,82.488a2.871,2.871,0,0,1,.1,2.89c-2,1.35-6.542,7.766-8.384,8.361-1.306.421-5.937-4.292-6.231-5.412a1.991,1.991,0,0,1,2.014-2.443c1.357.092,2.67,2.281,3.708,3.118,1.665-1.247,5.644-6.779,7.392-6.938a2.164,2.164,0,0,1,1.4.423" transform="translate(-98.641 -53.527)"/>
        </g>
      </g>
    </g>
  </g>
</svg>
