<svg xmlns="http://www.w3.org/2000/svg" xmlns:xlink="http://www.w3.org/1999/xlink" width="188" height="188" viewBox="0 0 188 188">
  <defs>
    <clipPath id="clip-path">
      <rect id="Rect치ngulo_455975" data-name="Rect치ngulo 455975" width="110" height="110" fill="none"/>
    </clipPath>
  </defs>
  <g id="Grupo_1204967" data-name="Grupo 1204967" transform="translate(-185.711 -2738)">
    <g id="Grupo_1204383" data-name="Grupo 1204383" transform="translate(185.711 2738)">
      <rect id="Rect치ngulo_455283" data-name="Rect치ngulo 455283" width="188" height="188" rx="19" fill="#c1fbff"/>
    </g>
    <g id="Grupo_1204854" data-name="Grupo 1204854" transform="translate(223.711 2777)">
      <g id="Grupo_1204853" data-name="Grupo 1204853" transform="translate(1)" clip-path="url(#clip-path)">
        <path id="Trazado_1260497" data-name="Trazado 1260497" d="M199.2,41.857c-1.72,1.636-4.446,1.088-5.111,2.059-.161.234-2.079,5.02-2.072,5.305.031,1.19,2.874,2.476,2.073,6.286-.388,1.846-5.5,7.231-7.387,7.633a6.891,6.891,0,0,1-4.18-.443c-.659-.313-1.387-1.22-1.851-1.358-1.126-.334-3.583,1.247-4.856,1.714a11.929,11.929,0,0,1-1.244.175c-.2.208-.015,3.613-1.718,5.34-2.487,2.522-10.9,2.569-13.214-.367-1.206-1.527-1.281-4.569-1.586-4.829-.216-.184-4.984-2.078-5.267-2.094-1.006-.057-2.338,1.611-3.534,1.862a5.7,5.7,0,0,1-5.486-1.371c-2.973-2.379-6.615-6.268-4.5-10.368.648-1.258,1.7-1.121,1.252-3.066-.07-.307-1.736-4.483-1.9-4.673-.472-.547-1.881-.278-2.546-.479a6.055,6.055,0,0,1-3.692-3.014c-.52-1.316-.566-7.395-.328-8.96a5.8,5.8,0,0,1,3.713-3.959,23.063,23.063,0,0,0,2.868-.47,55.441,55.441,0,0,0,2.236-5.629c.029-.317-1.869-2.407-2.1-3.554a5.8,5.8,0,0,1,.882-4.753c1.448-2,5.549-6.015,8.076-5.967,2.365.045,2.865,1.441,4.314,2.1,1.263.575,4.7-1.989,6.291-2.133C158.041,3.354,160.1.49,163.611.13c2.252-.23,6.385-.269,8.313.895,2.963,1.79,2.2,5.46,2.941,6.029.686.529,4.226,1.218,5.246,2.062C182.731,7.744,183.785,6.234,187,7.3c2.03.671,6.667,5.459,7.089,7.614.738,3.777-2.025,4.948-2.066,6.292-.008.273,1.75,4.705,1.951,5.091.5.948,2.481.69,3.44,1.018a5.673,5.673,0,0,1,3.4,4.279c.422,2.8.522,8.234-1.614,10.265M136.548,31.745c-.544.552-.582,5.624-.235,6.362.784,1.67,4.184.3,5.57,1.754.6.632,1.631,4.592,2.152,5.865.669,1.636,2.121,2.7,1.5,4.63-.367,1.143-3.012,3.122-2.573,4.157a48.465,48.465,0,0,0,4.523,4.482c1.1.292,3.076-2.959,5-2.891,1.005.035,3.124,1.627,4.3,2.114,1.287.533,3.572.9,4.56,1.491,2.007,1.2.349,5.638,2.584,6.07a25.387,25.387,0,0,0,5.547-.151c1.17-.58.312-4.325,1.735-5.643.684-.633,4.844-1.816,6.194-2.409.805-.354,1.625-1.218,2.464-1.383,2.567-.508,4.326,3.651,5.964,2.535a45.186,45.186,0,0,0,3.91-4.116c.414-1.53-2.8-3.7-2.791-5.077,0-.725,1.637-3.366,2.03-4.357.551-1.388.964-3.468,1.511-4.583,1.263-2.578,5.583-.651,5.962-2.644a30.793,30.793,0,0,0-.162-5.96c-.566-1.179-4.495-.274-5.572-1.752-.5-.684-.954-3.268-1.416-4.357-.482-1.135-2.193-3.878-2.321-4.749-.3-2.066,3.658-3.77,2.5-5.735a44.164,44.164,0,0,0-4.049-3.963c-1.282-.339-3.544,2.935-4.984,2.857-.835-.046-3.843-1.938-4.953-2.412-1.174-.5-3.238-.758-4.1-1.31-1.865-1.189-.347-5.536-2.406-5.929a32.76,32.76,0,0,0-5.881.133c-.974,1.374-.189,4.505-1.331,5.568-.431.4-5.042,1.791-6.167,2.276-.9.389-2.044,1.471-2.878,1.615-2.167.373-3.968-3.747-5.966-2.538a41.3,41.3,0,0,0-3.579,3.79c-.635,2.189,2.737,3.294,2.511,5.726-.089.954-1.621,3.2-2.083,4.347-.48,1.2-.948,3.823-1.467,4.628-.983,1.525-4.8.747-5.6,1.559" transform="translate(-91.058 0)" fill="#050405"/>
        <path id="Trazado_1260498" data-name="Trazado 1260498" d="M31.884,169.556c-.493.578-.164,3.06-2.226,4.34-1.821,1.131-6.788,1.127-8.607-.07-2.122-1.4-1.6-3.527-2.308-4.258-.107-.109-2.581-1.182-2.785-1.233-1.105-.277-2.789,2.591-6.2.854-1.242-.632-4.3-3.875-4.69-5.219-.885-3.064,1.381-4.54,1.323-5.2-.015-.17-1.267-2.991-1.376-3.121-.457-.542-2.907-.244-4.289-2.409-1-1.563-.908-6.768-.061-8.435,1.335-2.628,3.871-1.892,4.466-2.391a25.977,25.977,0,0,0,.931-2.777c.335-1.764-1.734-2.626-.99-5.492.346-1.333,3.991-5.251,5.228-5.639a6.045,6.045,0,0,1,2.89-.136c1.05.2,1.757,1.165,2.279,1.2a15.685,15.685,0,0,0,3.015-1.129c.68-.528.756-2.567,1.753-3.694,2.2-2.487,9.2-2.327,10.916.857,1.109,2.061.076,3.214,3.527,3.861,1.138.213,2.332-1.35,4.621-1.185,2.116.152,5.873,3.712,6.354,5.788.691,2.983-1.032,3.522-1.131,5.034a15.273,15.273,0,0,0,1.112,3.035c.565.684,2.9.291,4.229,2.47.9,1.482,1.024,6.476.44,8.062-1.028,2.791-3.328,2.013-4.518,2.821a23.055,23.055,0,0,0-1.213,2.988c-.184,1.179,1.156,2.088,1.242,3.768.156,3.043-4.407,7.774-7.444,7.56-1.306-.092-2.788-1.586-3.475-1.527a28.755,28.755,0,0,0-3.01,1.278m-4.5-41.905c-.87.162-3.24-.291-3.831.141-.541.395-.1,2.866-1.222,3.911-.751.7-3.06,1.15-4.153,1.582-1.25.494-2,1.788-3.657,1.157-1.127-.428-1.954-2.174-3.179-1.339a19.648,19.648,0,0,0-2.016,2.159c-.122.717,2.156,2.409,1.889,3.5-.819,1.44-2.374,7.213-3.513,7.72-.61.272-3.049.162-3.189.685.18.863-.263,3.085.157,3.685.41.585,2.745-.017,3.688,1.087.293,2.151,3.237,6.151,2.766,7.983-.255.991-2.071,2.069-1.692,2.815a17.477,17.477,0,0,0,2.309,2.21c1.237.348,1.5-.925,2.391-1.319,2.2-.973,5.553,2.112,7.971,2.373,1.26.845,1.146,2.779,1.151,4.144l4.124,0c-.2-4.806,1.985-4.229,5.394-5.634,1.319-.544,1.662-1.591,3.513-.98.818.27,2.069,2.042,2.831,1.65a19.181,19.181,0,0,0,2.195-2.341c.268-1.068-2.083-2.486-1.866-3.772,1.105-1.495,2.258-7.036,3.613-7.621.758-.328,3.238-.209,3.378-.825.353-4.651-.332-3.132-3.2-4.118-1.482-.51-1.913-3.423-2.465-4.9-.484-1.3-1.612-1.9-1.131-3.574.3-1.03,2-2.058,1.561-2.952a18.526,18.526,0,0,0-2.3-2.229c-.869-.226-2.276,1.963-3.7,1.814a28.371,28.371,0,0,1-3.385-1.68c-3.205-1.366-4.611-.556-4.436-5.318" transform="translate(3.027 -71.526)" fill="#050404"/>
        <path id="Trazado_1260499" data-name="Trazado 1260499" d="M212.058,236.637c-6.647,9.42-17.7,13.821-28.864,10.448-2.041-.617-7.9-2.557-5.56-5.616,1.428-1.867,5.064.834,6.88,1.38,8.609,2.589,18.834-.679,23.425-8.624-2.434.4-3.481-3.181-1.581-4.179a56.561,56.561,0,0,1,7.092-1.36,4.092,4.092,0,0,1,1.454.724c.791.766,1.813,7.349,1.359,8.43-.852,2.029-4.471,1.147-4.2-1.2" transform="translate(-117.862 -143.173)" fill="#060606"/>
        <path id="Trazado_1260500" data-name="Trazado 1260500" d="M57.137,22.777c2.092-1.07,4.135.255,3.421,2.67-.218.736-3.731,3.163-4.594,3.708-1.141.72-1.717,1.447-3.194.784-.549-.247-4.088-5.176-4.349-5.887-1.05-2.861,2.526-4.284,4.266-1.919C54.21,11.708,62.642,2.578,72.919.644c2.1-.394,9.6-1.521,8.921,2.261-.485,2.713-4.191,1.672-6.135,1.852a21.134,21.134,0,0,0-18.567,18.02" transform="translate(-33.934 -0.12)" fill="#060606"/>
        <path id="Trazado_1260501" data-name="Trazado 1260501" d="M145.532,41.374c.8-.812,4.62-.034,5.6-1.559.519-.8.987-3.431,1.467-4.628.462-1.15,1.995-3.393,2.083-4.347.226-2.432-3.145-3.537-2.511-5.727a41.384,41.384,0,0,1,3.579-3.79c2-1.208,3.8,2.912,5.966,2.538.834-.144,1.976-1.226,2.878-1.615,1.125-.485,5.736-1.875,6.167-2.277,1.143-1.063.357-4.194,1.331-5.568a32.728,32.728,0,0,1,5.88-.133c2.059.392.541,4.74,2.406,5.929.865.552,2.93.809,4.1,1.31,1.111.474,4.118,2.366,4.953,2.412,1.439.078,3.7-3.2,4.983-2.857a44.157,44.157,0,0,1,4.049,3.963c1.156,1.964-2.807,3.669-2.5,5.735.129.871,1.839,3.614,2.322,4.749.462,1.089.918,3.673,1.416,4.357,1.077,1.478,5.007.573,5.572,1.752a30.793,30.793,0,0,1,.162,5.96c-.379,1.993-4.7.066-5.962,2.644-.546,1.116-.96,3.2-1.511,4.583-.393.991-2.028,3.632-2.03,4.357,0,1.382,3.206,3.547,2.791,5.078a45.19,45.19,0,0,1-3.911,4.116c-1.637,1.117-3.4-3.043-5.963-2.535-.839.166-1.658,1.03-2.464,1.384-1.35.593-5.509,1.775-6.194,2.409-1.424,1.318-.566,5.063-1.735,5.643a25.365,25.365,0,0,1-5.547.151c-2.235-.433-.576-4.872-2.583-6.071-.989-.59-3.273-.958-4.56-1.491-1.175-.487-3.294-2.079-4.3-2.114-1.927-.068-3.9,3.183-5,2.891a48.474,48.474,0,0,1-4.523-4.482c-.439-1.035,2.206-3.014,2.573-4.157.62-1.927-.832-2.994-1.5-4.63-.52-1.273-1.548-5.233-2.152-5.865-1.386-1.451-4.786-.084-5.57-1.754-.347-.738-.309-5.809.235-6.362M193.06,51.6l.952-4.506c2.9.236,3.116-4.662,0-4.506a16.069,16.069,0,0,0-.952-4.506c2.52-1.994-.031-5.042-1.58-6.928-11.3-13.764-33.553-7.841-36.735,9.751C150.9,62.16,177.523,75.049,191.318,58.682c1.029-1.221,4.777-6.258,1.742-7.085" transform="translate(-100.041 -9.628)" fill="#feea89"/>
        <path id="Trazado_1260502" data-name="Trazado 1260502" d="M37.026,137.275c-.175,4.763,1.231,3.953,4.436,5.319a28.408,28.408,0,0,0,3.385,1.68c1.422.149,2.829-2.04,3.7-1.814a18.554,18.554,0,0,1,2.3,2.229c.439.894-1.265,1.923-1.561,2.953-.481,1.675.647,2.275,1.131,3.574.552,1.48.982,4.393,2.464,4.9,2.867.987,3.552-.533,3.2,4.118-.14.616-2.62.5-3.378.825-1.355.586-2.507,6.127-3.613,7.621-.217,1.286,2.135,2.7,1.866,3.772A19.2,19.2,0,0,1,48.76,174.8c-.762.392-2.013-1.379-2.831-1.65-1.851-.612-2.194.436-3.513.98-3.409,1.4-5.589.828-5.394,5.634l-4.124,0c-.005-1.364.109-3.3-1.151-4.144-2.417-.261-5.767-3.346-7.971-2.373-.893.394-1.155,1.667-2.391,1.319a17.5,17.5,0,0,1-2.309-2.21c-.38-.746,1.437-1.824,1.692-2.815.471-1.831-2.473-5.832-2.766-7.983-.943-1.1-3.279-.5-3.688-1.087s.023-2.822-.157-3.685c.14-.523,2.579-.413,3.189-.685,1.139-.507,2.694-6.281,3.513-7.72.268-1.086-2.01-2.778-1.889-3.5a19.67,19.67,0,0,1,2.016-2.159c1.225-.835,2.052.911,3.179,1.339,1.659.631,2.407-.663,3.657-1.157,1.092-.431,3.4-.884,4.153-1.582,1.124-1.045.68-3.516,1.222-3.911.592-.431,2.962.022,3.831-.141m6.234,12.991c-10.9-11.043-27.366,5.912-16.4,16.8,10.8,10.72,27.128-5.933,16.4-16.8" transform="translate(-6.615 -81.15)" fill="#9db7fe"/>
        <path id="Trazado_1260503" data-name="Trazado 1260503" d="M213.059,57.776c-.12-.074-1.2.055-1.672-.07-1.156-.3-2.659-3.434-3.716-4.605-11.757-13.039-33.221-1.007-28.163,16.333,3.45,11.827,18.57,15.876,27.371,7.342,2-1.937,3.139-6.309,6.18-5.481s-.713,5.865-1.742,7.085c-13.8,16.367-40.418,3.478-36.573-17.781,3.182-17.591,25.432-23.515,36.735-9.751,1.549,1.886,4.1,4.934,1.579,6.928" transform="translate(-120.04 -29.326)" fill="#050505"/>
        <path id="Trazado_1260504" data-name="Trazado 1260504" d="M295.105,102.381c3.116-.156,2.9,4.742,0,4.506-2.582-.21-2.6-4.376,0-4.506" transform="translate(-201.134 -69.425)" fill="#090809"/>
        <path id="Trazado_1260505" data-name="Trazado 1260505" d="M62.873,170.177c10.725,10.864-5.6,27.517-16.4,16.8-10.964-10.885,5.5-27.84,16.4-16.8m-8.513.929c-8.727.329-9.354,13.314-.979,14.651,10.581,1.689,11.228-15.037.979-14.651" transform="translate(-26.228 -101.062)" fill="#060404"/>
        <path id="Trazado_1260506" data-name="Trazado 1260506" d="M215.771,74.41c15.561-1.963,16.6,22.464,1.506,22.445-13.683-.018-14.888-20.757-1.506-22.445m-.006,4.5c-7.824,1.348-6.391,14.245,2.109,13.409,8.7-.857,7.671-15.094-2.109-13.409" transform="translate(-141.872 -50.384)" fill="#050505"/>
        <path id="Trazado_1260507" data-name="Trazado 1260507" d="M224.966,88.336c9.78-1.686,10.809,12.552,2.109,13.409-8.5.837-9.932-12.06-2.109-13.409" transform="translate(-151.072 -59.809)" fill="#c8f1f8"/>
      </g>
    </g>
  </g>
</svg>
