<svg xmlns="http://www.w3.org/2000/svg" xmlns:xlink="http://www.w3.org/1999/xlink" width="132" height="132" viewBox="0 0 132 132">
  <defs>
    <clipPath id="clip-path">
      <rect id="Rectángulo_455743" data-name="Rectángulo 455743" width="124" height="109.024" fill="none"/>
    </clipPath>
    <clipPath id="clip-path-2">
      <rect id="Rectángulo_455742" data-name="Rectángulo 455742" width="124" height="109.023" fill="none"/>
    </clipPath>
    <clipPath id="clip-path-3">
      <rect id="Rectángulo_455741" data-name="Rectángulo 455741" width="47.113" height="58.729" fill="none"/>
    </clipPath>
    <clipPath id="clip-path-4">
      <path id="Trazado_1259539" data-name="Trazado 1259539" d="M68.8,33.967C57.731,48.441,46.346,60.181,37.512,66.807c-1.039,2.063-1.653,3.684-1.589,4.739-.054.068-.108.129-.162.2-1.287,1.684-1.968,3.316-1.52,3.655s1.842-.742,3.129-2.421c.05-.072.1-.135.142-.21,1.657-.34,4.248-2.717,7.546-6.049l-.079-.068A198.082,198.082,0,0,0,61.307,47.587,199.094,199.094,0,0,0,75.425,26.829l.079.065c.949-1.639,1.763-3.109,2.412-4.412a2.138,2.138,0,0,1,1.028,2.527l-9.922,15.2a3.186,3.186,0,0,0-.029,2.78,5.89,5.89,0,0,0,2.234,2.62c.546.352,1.168.3,1.4-.108a1.162,1.162,0,0,0-.561-1.389,2.77,2.77,0,0,1-1.089-1.269,1.544,1.544,0,0,1-.007-1.319l9.918-15.193c.839-1.5.018-3.722-1.815-5.125a4.748,4.748,0,0,0-.395-.275c-.009-.009-.025-.009-.038-.018a12.078,12.078,0,0,0,.561-1.632c-3.109,4.757-6.59,9.7-10.4,14.684" transform="translate(-34.103 -19.283)" fill="none"/>
    </clipPath>
  </defs>
  <g id="Grupo_154331" data-name="Grupo 154331" transform="translate(-32.092 4.588)">
    <g id="Grupo_154332" data-name="Grupo 154332" transform="translate(0.008 0)">
      <path id="Trazado_196464" data-name="Trazado 196464" d="M81.071.472,80.582,0h2.269c-.517.445-1.231.147-1.779.472" transform="translate(-19.87 0)" fill="#25e0ac"/>
      <path id="Trazado_196465" data-name="Trazado 196465" d="M89.452,0,89.22.46C88.823.228,88.277.4,87.94,0Z" transform="translate(-21.684 0)" fill="#25e0ac"/>
      <circle id="Elipse_13698" data-name="Elipse 13698" cx="66" cy="66" r="66" transform="translate(32.084 -4.587)" fill="#5dd2e4"/>
      <g id="Grupo_1204685" data-name="Grupo 1204685" transform="translate(36.084 6.413)">
        <g id="Grupo_1204684" data-name="Grupo 1204684" clip-path="url(#clip-path)">
          <rect id="Rectángulo_455713" data-name="Rectángulo 455713" width="64.384" height="93.408" transform="translate(-0.001 9.628) rotate(-8.6)" fill="#a8a6a1"/>
          <rect id="Rectángulo_455714" data-name="Rectángulo 455714" width="60.937" height="89.998" transform="translate(1.958 11.055) rotate(-8.6)" fill="#fff"/>
          <rect id="Rectángulo_455715" data-name="Rectángulo 455715" width="38.135" height="3.437" transform="translate(21.664 40.81) rotate(-8.599)" fill="#dbe8eb"/>
          <rect id="Rectángulo_455716" data-name="Rectángulo 455716" width="38.133" height="3.439" transform="translate(22.535 46.559) rotate(-8.595)" fill="#dbe8eb"/>
          <rect id="Rectángulo_455717" data-name="Rectángulo 455717" width="16.522" height="3.436" transform="matrix(0.989, -0.15, 0.15, 0.989, 23.404, 52.313)" fill="#dbe8eb"/>
          <rect id="Rectángulo_455718" data-name="Rectángulo 455718" width="23.364" height="3.438" transform="translate(31.41 62.867) rotate(-8.596)" fill="#b7e0eb"/>
          <rect id="Rectángulo_455719" data-name="Rectángulo 455719" width="23.364" height="3.435" transform="translate(32.281 68.617) rotate(-8.596)" fill="#b7e0eb"/>
          <rect id="Rectángulo_455720" data-name="Rectángulo 455720" width="23.365" height="3.436" transform="translate(33.15 74.369) rotate(-8.596)" fill="#b7e0eb"/>
          <rect id="Rectángulo_455721" data-name="Rectángulo 455721" width="47.267" height="3.439" transform="translate(9.286 20.064) rotate(-8.6)" fill="#b7e0eb"/>
          <rect id="Rectángulo_455722" data-name="Rectángulo 455722" width="47.271" height="3.436" transform="translate(10.156 25.815) rotate(-8.602)" fill="#b7e0eb"/>
          <rect id="Rectángulo_455723" data-name="Rectángulo 455723" width="47.267" height="3.435" transform="translate(11.028 31.567) rotate(-8.597)" fill="#b7e0eb"/>
          <rect id="Rectángulo_455724" data-name="Rectángulo 455724" width="23.365" height="3.437" transform="translate(34.02 80.121) rotate(-8.591)" fill="#b7e0eb"/>
          <rect id="Rectángulo_455725" data-name="Rectángulo 455725" width="17.874" height="3.436" transform="matrix(0.989, -0.149, 0.149, 0.989, 34.889, 85.873)" fill="#b7e0eb"/>
          <path id="Trazado_1259520" data-name="Trazado 1259520" d="M6.349,20.067l2.875,3.747,3.048-7.278L8.685,21.2Z" transform="translate(7.965 20.746)" fill="#ff8080"/>
          <path id="Trazado_1259521" data-name="Trazado 1259521" d="M6.822,23.2,9.7,26.945l3.044-7.278L9.16,24.33Z" transform="translate(8.559 24.674)" fill="#ff8080"/>
          <path id="Trazado_1259522" data-name="Trazado 1259522" d="M7.3,26.331l2.877,3.745L13.217,22.8,9.632,27.46Z" transform="translate(9.154 28.604)" fill="#ff8080"/>
          <path id="Trazado_1259523" data-name="Trazado 1259523" d="M11.046,29.858l2.566,3.353L16.335,26.7l-3.206,4.166Z" transform="translate(13.858 33.499)" fill="#ff8080"/>
          <path id="Trazado_1259524" data-name="Trazado 1259524" d="M11.459,32.6l2.566,3.348,2.726-6.507-3.206,4.166Z" transform="translate(14.377 36.934)" fill="#ff8080"/>
          <path id="Trazado_1259525" data-name="Trazado 1259525" d="M11.873,35.335l2.568,3.355,2.723-6.513-3.206,4.171Z" transform="translate(14.896 40.367)" fill="#ff8080"/>
          <path id="Trazado_1259526" data-name="Trazado 1259526" d="M12.288,38.067l2.568,3.355,2.723-6.507-3.2,4.164Z" transform="translate(15.415 43.803)" fill="#ff8080"/>
          <path id="Trazado_1259527" data-name="Trazado 1259527" d="M12.7,40.807l2.566,3.35,2.728-6.5-3.208,4.171Z" transform="translate(15.934 47.237)" fill="#ff8080"/>
          <rect id="Rectángulo_455726" data-name="Rectángulo 455726" width="64.379" height="93.404" transform="translate(33.374 15.62)" fill="#a8a6a1"/>
          <rect id="Rectángulo_455727" data-name="Rectángulo 455727" width="60.934" height="89.993" transform="translate(35.097 17.327)" fill="#fff"/>
          <rect id="Rectángulo_455728" data-name="Rectángulo 455728" width="40.025" height="6.872" transform="translate(50.714 24.251)" fill="#b7e0eb"/>
          <rect id="Rectángulo_455729" data-name="Rectángulo 455729" width="7.841" height="9.167" transform="translate(38.812 21.956)" fill="#81cfe6"/>
          <rect id="Rectángulo_455730" data-name="Rectángulo 455730" width="42.602" height="2.82" transform="translate(49.4 64.233)" fill="#c8e4eb"/>
          <rect id="Rectángulo_455731" data-name="Rectángulo 455731" width="42.602" height="2.82" transform="translate(49.4 69.006)" fill="#c8e4eb"/>
          <rect id="Rectángulo_455732" data-name="Rectángulo 455732" width="42.602" height="2.82" transform="translate(49.4 73.779)" fill="#c8e4eb"/>
          <rect id="Rectángulo_455733" data-name="Rectángulo 455733" width="13.32" height="2.82" transform="translate(49.397 78.552)" fill="#c8e4eb"/>
          <rect id="Rectángulo_455734" data-name="Rectángulo 455734" width="15.11" height="2.82" transform="translate(49.397 92.131)" fill="#c8e4eb"/>
          <rect id="Rectángulo_455735" data-name="Rectángulo 455735" width="15.11" height="2.82" transform="translate(49.397 96.902)" fill="#c8e4eb"/>
          <rect id="Rectángulo_455736" data-name="Rectángulo 455736" width="15.11" height="2.82" transform="translate(49.397 101.677)" fill="#c8e4eb"/>
          <rect id="Rectángulo_455737" data-name="Rectángulo 455737" width="15.112" height="2.82" transform="translate(76.889 92.131)" fill="#c8e4eb"/>
          <rect id="Rectángulo_455738" data-name="Rectángulo 455738" width="15.112" height="2.82" transform="translate(76.889 96.902)" fill="#c8e4eb"/>
          <rect id="Rectángulo_455739" data-name="Rectángulo 455739" width="15.112" height="2.82" transform="translate(76.889 101.677)" fill="#c8e4eb"/>
          <rect id="Rectángulo_455740" data-name="Rectángulo 455740" width="22.911" height="3.434" transform="translate(54.109 41.949)" fill="#b7e0eb"/>
          <g id="Grupo_1204683" data-name="Grupo 1204683" transform="translate(0 0.001)">
            <g id="Grupo_1204682" data-name="Grupo 1204682" clip-path="url(#clip-path-2)">
              <path id="Trazado_1259528" data-name="Trazado 1259528" d="M35.76,43.935c-1.287,1.684-1.968,3.316-1.52,3.655s1.842-.742,3.129-2.421,1.968-3.316,1.524-3.657-1.846.746-3.134,2.424" transform="translate(42.784 52)" fill="#b0751c"/>
              <path id="Trazado_1259529" data-name="Trazado 1259529" d="M60.218,48.955c11.742-15.363,19.633-29.072,17.6-30.619S64.641,28,52.9,43.36,33.265,72.432,35.287,73.979s13.18-9.661,24.931-25.023" transform="translate(43.873 22.824)" fill="#d85354"/>
              <path id="Trazado_1259530" data-name="Trazado 1259530" d="M38.794,38.533c-2.985,5.156-4.832,8.838-3.411,9.927s4.493-1.664,8.682-5.893Z" transform="translate(43.777 48.341)" fill="#fea929"/>
              <path id="Trazado_1259531" data-name="Trazado 1259531" d="M55.4,28.314c2.983-5.156,4.836-8.838,3.409-9.925s-4.491,1.662-8.678,5.893Z" transform="translate(62.89 22.771)" fill="#fea929"/>
              <path id="Trazado_1259532" data-name="Trazado 1259532" d="M59.826,20.424c1.831,1.4,2.651,3.623,1.815,5.122l-9.92,15.2a1.552,1.552,0,0,0,.007,1.319,2.787,2.787,0,0,0,1.091,1.269,1.159,1.159,0,0,1,.561,1.387c-.232.41-.857.46-1.4.108a5.885,5.885,0,0,1-2.234-2.618,3.186,3.186,0,0,1,.029-2.78l9.922-15.2A2.175,2.175,0,0,0,58.6,21.639a1.152,1.152,0,0,1-.57-1.384c.23-.419.857-.458,1.4-.106.135.083.266.178.395.275" transform="translate(62.03 24.977)" fill="#fea929"/>
              <path id="Trazado_1259533" data-name="Trazado 1259533" d="M51.8,20.837c.893-.929,1.817-1.5,2.07-1.254S53.6,20.774,52.7,21.7s-1.808,1.5-2.063,1.256.275-1.181,1.161-2.119" transform="translate(63.452 24.497)" fill="#fff"/>
              <g id="Grupo_1204681" data-name="Grupo 1204681" transform="translate(76.887 40.922)" style="mix-blend-mode: multiply;isolation: isolate">
                <g id="Grupo_1204680" data-name="Grupo 1204680">
                  <g id="Grupo_1204679" data-name="Grupo 1204679" clip-path="url(#clip-path-3)">
                    <g id="Grupo_1204678" data-name="Grupo 1204678" transform="translate(0 2.551)">
                      <g id="Grupo_1204677" data-name="Grupo 1204677" clip-path="url(#clip-path-4)">
                        <path id="Trazado_1259534" data-name="Trazado 1259534" d="M35.76,43.935c-1.287,1.684-1.968,3.316-1.52,3.655s1.842-.742,3.129-2.421,1.968-3.316,1.524-3.657-1.846.746-3.134,2.424" transform="translate(-34.103 8.526)" fill="#b0751c"/>
                        <path id="Trazado_1259535" data-name="Trazado 1259535" d="M60.218,48.955c11.742-15.363,19.633-29.072,17.6-30.619S64.641,28,52.9,43.36,33.265,72.432,35.287,73.979s13.18-9.661,24.931-25.023" transform="translate(-33.014 -20.65)" fill="#d85354"/>
                        <path id="Trazado_1259536" data-name="Trazado 1259536" d="M38.794,38.533c-2.985,5.156-4.832,8.838-3.411,9.927s4.493-1.664,8.682-5.893Z" transform="translate(-33.109 4.867)" fill="#fea929"/>
                        <path id="Trazado_1259537" data-name="Trazado 1259537" d="M55.4,28.314c2.983-5.156,4.836-8.838,3.409-9.925s-4.491,1.662-8.678,5.893Z" transform="translate(-13.997 -20.703)" fill="#fea929"/>
                        <path id="Trazado_1259538" data-name="Trazado 1259538" d="M59.826,20.424c1.831,1.4,2.651,3.623,1.815,5.122l-9.92,15.2a1.552,1.552,0,0,0,.007,1.319,2.787,2.787,0,0,0,1.091,1.269,1.159,1.159,0,0,1,.561,1.387c-.232.41-.857.46-1.4.108a5.885,5.885,0,0,1-2.234-2.618,3.186,3.186,0,0,1,.029-2.78l9.922-15.2A2.175,2.175,0,0,0,58.6,21.639a1.152,1.152,0,0,1-.57-1.384c.23-.419.857-.458,1.4-.106.135.083.266.178.395.275" transform="translate(-14.857 -18.496)" fill="#fea929"/>
                      </g>
                    </g>
                  </g>
                </g>
              </g>
              <path id="Trazado_1259540" data-name="Trazado 1259540" d="M36.135,42.146c.753-1.265,1.6-2.151,1.905-1.973s-.077,1.35-.832,2.611S35.6,44.942,35.3,44.759s.077-1.341.832-2.613" transform="translate(44.161 50.371)" fill="#fff"/>
            </g>
          </g>
        </g>
      </g>
    </g>
  </g>
</svg>
