<svg xmlns="http://www.w3.org/2000/svg" xmlns:xlink="http://www.w3.org/1999/xlink" width="107" height="107" viewBox="0 0 107 107">
  <defs>
    <clipPath id="clip-path">
      <rect id="Rectángulo_455822" data-name="Rectángulo 455822" width="57.5" height="57.507" fill="#0d5365"/>
    </clipPath>
  </defs>
  <g id="Grupo_1204356" data-name="Grupo 1204356" transform="translate(-346.059 -8474)">
    <circle id="Elipse_13621" data-name="Elipse 13621" cx="53.5" cy="53.5" r="53.5" transform="translate(346.059 8474)" fill="#0d5365"/>
    <g id="Grupo_1203588" data-name="Grupo 1203588" transform="translate(75.793 18.437)">
      <g id="Grupo_154427" data-name="Grupo 154427" transform="translate(278.266 8463.563)">
        <path id="Elipse_5729" data-name="Elipse 5729" d="M45.646,0A45.646,45.646,0,1,1,0,45.646,45.646,45.646,0,0,1,45.646,0Z" transform="translate(0 -0.035)" fill="#f3fee7"/>
        <g id="Grupo_1204752" data-name="Grupo 1204752" transform="translate(17 16.965)">
          <g id="Grupo_1204751" data-name="Grupo 1204751" transform="translate(0 0.001)" clip-path="url(#clip-path)">
            <path id="Trazado_1259753" data-name="Trazado 1259753" d="M0,25.934H4.754a9.341,9.341,0,0,1,4.7-8.118c.559-.308,2.8-.977,2.9-1.092a4.638,4.638,0,0,0,.359-1.2c-.023-.089-1.012-1.42-1.083-1.478-.351-.287-.837-.121-1.28-.248a2.788,2.788,0,0,1-1.865-3.238A7.94,7.94,0,0,0,8.49,8.021C7.767-2.479,22.737-2.4,23.258,6.669c.062,1.078-.51,2.128-.488,2.888.011.362.387.8.452,1.226a2.81,2.81,0,0,1-1.99,3.023c-.367.092-.98,0-1.166.109a13.548,13.548,0,0,0-1.19,1.714c.038,1.513,1.266,1.271,2.341,1.735a9.635,9.635,0,0,1,5.776,8.57h4.584V33.4h-5.6v1.867h9.252A5.762,5.762,0,0,1,36.576,36.3a3.874,3.874,0,0,1,.585,1.622,57.5,57.5,0,0,1,.027,7.289c-.013.379-.173.719-.178,1.1h15.7A7.722,7.722,0,0,1,55.946,48c3.45,3.531.746,9.42-4.084,9.511H5.69A6.014,6.014,0,0,1,.649,54.4L0,52.248v-.679c.263-.572.246-1.191.478-1.814A5.739,5.739,0,0,1,5.6,46.306V33.4H0ZM21.221,8.447c1.758-7.02-9.113-9.23-10.786-2.721-.206.8-.553,3.121.778,2.645A4.171,4.171,0,0,1,13.48,5.742l.783,1.439c-.011.407-.985.63-1.154,1.386a21.747,21.747,0,0,0,0,4.169,2.8,2.8,0,0,0,5.025.859c.334-.543.87-3.048.379-3.377-2.433-.053-3.7-2.45-3.577-4.659h1.869c-.232,1.075.566,2.887,1.782,2.887ZM11.2,12.012l-.083-1.866c-1.111.47-1.243,1.741.083,1.866m9.169,0c1.325,0,1.383-1.846,0-1.7ZM17.656,25.934v-8.4a5.311,5.311,0,0,0-.5-1.027,3.586,3.586,0,0,1-2.648-.038,4.388,4.388,0,0,0-.586,1.235v8.234Zm-5.6-7.13a3.365,3.365,0,0,0-1.867.934V22.2h1.867Zm9.337,3.4V19.567L19.524,18.8v3.4Zm-12.9,3.735V21.18A5.846,5.846,0,0,0,6.62,25.934Zm14.77-4.754v4.754l1.87-.087a7.561,7.561,0,0,0-1.87-4.667m-11.2,2.885-1.709.075c-.321.224-.1,1.375-.16,1.794h1.869Zm9.337,0H19.523v1.869h1.869ZM29.71,27.8H1.867v3.735H5.6V29.668H25.975v1.867H29.71Zm-5.6,3.735H7.47v14.77H9.506a7.865,7.865,0,0,1-.178-.924,59.966,59.966,0,0,1,.024-7.8,2.815,2.815,0,0,1,2.273-2.311,57.524,57.524,0,0,1,8.482.015c.713.113,2.133,1.253,2.133,1.941v9.083h2.037c.065-.183-.169-.371-.169-.423Zm-11.035,5.6c-.74.056-1.625-.317-1.83.632A49.264,49.264,0,0,0,11.2,45.21c.079.941.154,1.024,1.1,1.1a52.27,52.27,0,0,0,6.976,0c.454-.041,1-.059,1.1-.6-.235-2.44.313-5.451.008-7.817-.037-.289-.064-.515-.346-.672l-1.359-.084V40.7h-5.6Zm3.736,0H14.939v1.7h1.869Zm11.034,0c-.791-.036-1.612-.142-1.863.768.19,2.309-.271,5.047-.008,7.3.074.637.278,1.02.929,1.108a50.6,50.6,0,0,0,7.318,0c.664-.066.966-.234,1.084-.953a47.661,47.661,0,0,0,.014-7.124c-.14-1.2-.816-1.17-1.871-1.1V40.7h-5.6Zm3.736,0H29.709v1.7h1.869ZM7.47,48.173H5.008c-1.059,0-2.494,1.45-2.851,2.412C.915,53.934,4.227,56.168,7.3,55.642c-.258-.734-.866-.979-1.22-1.749a4.807,4.807,0,0,1,.787-5.22c.213-.239.575-.231.6-.5m12.9,0h-7.3c-.011.259.323.212.512.421,2.024,2.224,1.6,5.1-.512,7.049h7.3a4.874,4.874,0,0,1,0-7.47m12.9,0h-7.13a4.9,4.9,0,0,1,1.336,5.495l-1.336,1.975h7.13l-1.39-2.091a4.771,4.771,0,0,1,1.39-5.379m11.2,0H39.047a4.881,4.881,0,0,1,0,7.47H44.48c-2.14-1.957-2.549-4.812-.512-7.049.189-.208.524-.161.512-.421m8.064,0c-.749-.105-1.687.076-2.462,0,.029.269.39.261.6.5a4.817,4.817,0,0,1,.84,5.1c-.331.753-1.006,1.139-1.273,1.866,2.508.33,5.333-.821,5.419-3.675a4.028,4.028,0,0,0-3.128-3.794m-42.273.942c-3.67,0-3.672,5.523,0,5.523,3.715,0,3.568-5.523,0-5.523M23.2,49.083c-3.884.023-3.57,6.208.61,5.5,3.192-.541,2.656-5.52-.61-5.5m12.9,0c-3.292.126-3.6,4.974-.494,5.5,4.107.7,4.452-5.653.494-5.5m11.18.033c-3.609,0-3.692,5.523,0,5.523,3.673,0,3.669-5.523,0-5.523" transform="translate(0 -0.001)" fill="#0d5365"/>
            <path id="Trazado_1259754" data-name="Trazado 1259754" d="M171.089,32.753v11.12c1.042.577,2.423,1.488,2.679,2.754.087.432-.037.889.073,1.285.221.8,1.615,1.734,1.817,3.276a26.068,26.068,0,0,1-.02,4.2,9.815,9.815,0,0,1-2.087,1.993l-1.27-1.11c0-.137,1.213-1.084,1.364-1.349.429-.747.3-4.262-.6-5.014a3.784,3.784,0,0,1-5.854,0c-.972,1.457-.631,3.018-.693,4.675l1.526,1.668-1.26,1.293-2.087-2.154c-.03-2.306-.4-4.3.91-6.321.213-.33.8-.661.889-.979.11-.384-.014-.857.074-1.285a3.435,3.435,0,0,1,2.677-2.671V34.62H148V32.753Zm-1.577,13.109c-1.925.44-1.462,4.2,1.282,3.486a1.857,1.857,0,0,0-1.282-3.486" transform="translate(-122.874 -27.193)" fill="#0d5365"/>
            <path id="Trazado_1259755" data-name="Trazado 1259755" d="M241.519,185.116a56.808,56.808,0,0,1,8.45-.039,2.88,2.88,0,0,1,2.462,2.631,52.585,52.585,0,0,1,.006,7.477,2.922,2.922,0,0,1-1.781,2.633c-.959.336-7.353.292-8.673.168a2.819,2.819,0,0,1-2.623-2.81,50,50,0,0,1,0-7.3,2.975,2.975,0,0,1,2.158-2.765m1.574,1.829c-.9-.049-1.679-.146-1.858.944a47.682,47.682,0,0,0-.014,7.124c.074.637.278,1.021.929,1.108a50.724,50.724,0,0,0,7.319,0c.57-.055.919-.168,1.089-.779-.268-1.516.439-6.99-.155-7.985-.349-.584-1.134-.4-1.708-.414v3.735h-5.6Zm3.736,0H244.96v1.869h1.869Z" transform="translate(-198.613 -153.543)" fill="#0d5365"/>
            <path id="Trazado_1259756" data-name="Trazado 1259756" d="M274.637,301.469c-.717.712-2.283-.28-1.394-1.31s2.148.561,1.394,1.31" transform="translate(-226.634 -248.923)" fill="#0d5365"/>
            <path id="Trazado_1259757" data-name="Trazado 1259757" d="M55.119,301.469c-.754-.749.511-2.335,1.394-1.31s-.677,2.023-1.394,1.31" transform="translate(-45.57 -248.923)" fill="#0d5365"/>
            <path id="Trazado_1259758" data-name="Trazado 1259758" d="M132.02,299.859c1.1-.167,1.5,1.54.606,1.807-1.484.446-1.864-1.615-.606-1.807" transform="translate(-108.977 -248.942)" fill="#0d5365"/>
            <path id="Trazado_1259759" data-name="Trazado 1259759" d="M208.643,299.949c.958-.088,1.508,1.631.305,1.833-1.527.256-1.371-1.735-.305-1.833" transform="translate(-172.54 -249.024)" fill="#0d5365"/>
          </g>
        </g>
      </g>
    </g>
  </g>
</svg>
