<svg xmlns="http://www.w3.org/2000/svg" xmlns:xlink="http://www.w3.org/1999/xlink" width="132" height="132" viewBox="0 0 132 132">
  <defs>
    <clipPath id="clip-path">
      <rect id="Rectángulo_455814" data-name="Rectángulo 455814" width="111.711" height="103.922" fill="none"/>
    </clipPath>
  </defs>
  <g id="Grupo_154331" data-name="Grupo 154331" transform="translate(-32.092 4.588)">
    <g id="Grupo_154332" data-name="Grupo 154332" transform="translate(0.008 0)">
      <path id="Trazado_196464" data-name="Trazado 196464" d="M81.071.472,80.582,0h2.269c-.517.445-1.231.147-1.779.472" transform="translate(-19.87 0)" fill="#25e0ac"/>
      <path id="Trazado_196465" data-name="Trazado 196465" d="M89.452,0,89.22.46C88.823.228,88.277.4,87.94,0Z" transform="translate(-21.684 0)" fill="#25e0ac"/>
      <circle id="Elipse_13698" data-name="Elipse 13698" cx="66" cy="66" r="66" transform="translate(32.084 -4.587)" fill="#5dd2e4"/>
      <g id="Grupo_1204737" data-name="Grupo 1204737" transform="translate(52.373 0.473)">
        <rect id="Rectángulo_455802" data-name="Rectángulo 455802" width="70.018" height="77.051" transform="translate(10.967 19.848)" fill="#fbfbfb"/>
        <g id="Grupo_1204738" data-name="Grupo 1204738">
          <g id="Grupo_1204737-2" data-name="Grupo 1204737" clip-path="url(#clip-path)">
            <path id="Trazado_1259637" data-name="Trazado 1259637" d="M141.446,19.848H70.567A2.553,2.553,0,0,1,68.019,17.3V13.539a2.552,2.552,0,0,1,2.548-2.548H96.139c-.034-.353-.06-.707-.06-1.067a9.924,9.924,0,0,1,19.848,0,8.659,8.659,0,0,1-.061,1.067h25.581a2.55,2.55,0,0,1,2.539,2.548V17.3a2.556,2.556,0,0,1-2.539,2.548M106,6.1a3.822,3.822,0,1,0,3.821,3.822A3.824,3.824,0,0,0,106,6.1" transform="translate(-60.03)" fill="#2a7bb1" fill-rule="evenodd"/>
            <path id="Trazado_1259638" data-name="Trazado 1259638" d="M141.446,149.656H70.567a2.553,2.553,0,0,1-2.548-2.548v-.025h75.966v.025a2.556,2.556,0,0,1-2.539,2.548" transform="translate(-60.03 -129.808)" fill="#03386e" fill-rule="evenodd"/>
            <rect id="Rectángulo_455803" data-name="Rectángulo 455803" width="33.801" height="1.747" transform="translate(18.609 68.211)" fill="#666"/>
            <rect id="Rectángulo_455804" data-name="Rectángulo 455804" width="12.248" height="1.747" transform="translate(59.95 68.211)" fill="#666"/>
            <rect id="Rectángulo_455805" data-name="Rectángulo 455805" width="35.108" height="1.756" transform="translate(37.089 73.737)" fill="#666"/>
            <rect id="Rectángulo_455806" data-name="Rectángulo 455806" width="40.351" height="1.756" transform="translate(18.609 79.538)" fill="#666"/>
            <rect id="Rectángulo_455807" data-name="Rectángulo 455807" width="11.362" height="1.756" transform="translate(18.609 73.737)" fill="#666"/>
            <path id="Trazado_1259639" data-name="Trazado 1259639" d="M485.718,323.111h10.1a2.175,2.175,0,0,1,2.177,2.178v10.1a2.194,2.194,0,0,1-.637,1.532,2.168,2.168,0,0,1-1.54.646h-10.1a2.19,2.19,0,0,1-2.178-2.178v-10.1a2.175,2.175,0,0,1,2.178-2.178m10.1,1.248h-10.1a.94.94,0,0,0-.938.93v10.1a.965.965,0,0,0,.275.655.933.933,0,0,0,.663.275h10.1a.9.9,0,0,0,.654-.275.928.928,0,0,0,.275-.655v-10.1a.94.94,0,0,0-.929-.93" transform="translate(-426.749 -285.162)" fill="#08c6a2"/>
            <path id="Trazado_1259640" data-name="Trazado 1259640" d="M494.093,286.011l4.527,7.961,14.641-17.912-14.6,12.842Z" transform="translate(-436.063 -243.638)" fill="#03386e" fill-rule="evenodd"/>
            <rect id="Rectángulo_455808" data-name="Rectángulo 455808" width="5.793" height="9.364" transform="translate(29.385 53.2)" fill="#e7584d"/>
            <rect id="Rectángulo_455809" data-name="Rectángulo 455809" width="5.784" height="15.579" transform="translate(35.178 46.986)" fill="#fcb245"/>
            <rect id="Rectángulo_455810" data-name="Rectángulo 455810" width="5.793" height="21.793" transform="translate(40.962 40.772)" fill="#e7584d"/>
            <rect id="Rectángulo_455811" data-name="Rectángulo 455811" width="5.792" height="31.924" transform="translate(46.755 30.641)" fill="#fcb245"/>
            <rect id="Rectángulo_455812" data-name="Rectángulo 455812" width="5.784" height="4.682" transform="translate(23.602 57.883)" fill="#fcb245"/>
            <rect id="Rectángulo_455813" data-name="Rectángulo 455813" width="5.793" height="1.893" transform="translate(17.809 60.671)" fill="#e7584d"/>
            <path id="Trazado_1259641" data-name="Trazado 1259641" d="M254.573,265.234a5.251,5.251,0,1,0-5.251-5.251,5.259,5.259,0,0,0,5.251,5.251" transform="translate(-220.04 -224.815)" fill="#adecf7" fill-rule="evenodd"/>
            <path id="Trazado_1259642" data-name="Trazado 1259642" d="M266.593,288.294a.127.127,0,0,0,.129.129.129.129,0,0,0,.138-.129c0-1.334,1.162-1.592,1.162-2.513a.132.132,0,0,0-.129-.129h-1.523a.126.126,0,0,0-.121.129.118.118,0,0,0,.121.121h1.377c0,.628-1.153,1.05-1.153,2.393m2.745-.086c-.508,0-.74-.345-.74-1.188s.232-1.179.74-1.179.741.336.741,1.179-.233,1.188-.741,1.188m0-2.617c-.688,0-1.006.447-1.006,1.428s.318,1.429,1.006,1.429,1.008-.448,1.008-1.429-.319-1.428-1.008-1.428m3.409.025a.146.146,0,0,0-.095.052l-1.325,2.617a.077.077,0,0,0-.008.043.1.1,0,0,0,.1.095.1.1,0,0,0,.086-.052l1.334-2.608c0-.008.008-.034.008-.043a.1.1,0,0,0-.1-.1m-1.411,1.119c-.31,0-.4-.224-.4-.473,0-.268.086-.482.4-.482s.387.215.387.482c0,.249-.077.473-.387.473m0-1.145c-.447,0-.6.292-.6.671,0,.361.155.662.6.662s.594-.3.594-.662c0-.379-.155-.671-.594-.671m1.506,2.668c-.31,0-.4-.215-.4-.473s.086-.482.4-.482.4.215.4.482-.086.473-.4.473m0-1.145c-.439,0-.594.3-.594.671s.155.663.594.663.594-.3.594-.663-.155-.671-.594-.671" transform="translate(-234.978 -252.05)" fill="#e7584d" fill-rule="evenodd"/>
            <path id="Trazado_1259643" data-name="Trazado 1259643" d="M229.221,227.05a7.583,7.583,0,1,1-7.583,7.583,7.584,7.584,0,0,1,7.583-7.583m0-1.041a8.62,8.62,0,1,1-8.624,8.624,8.621,8.621,0,0,1,8.624-8.624" transform="translate(-194.688 -199.465)" fill="#adecf7" fill-rule="evenodd"/>
            <path id="Trazado_1259644" data-name="Trazado 1259644" d="M162.115,362.635c3.27-1.395,7.729-2.359,10.423-9.468l-1.886-.362,4.709-3.606,1.412,5.647-1.7-.827c-3.168,6.2-8.883,7.626-12.954,8.616" transform="translate(-143.075 -308.186)" fill="#03386e" fill-rule="evenodd"/>
            <path id="Trazado_1259645" data-name="Trazado 1259645" d="M772.4,789.888a44.842,44.842,0,0,1-7.566.646,45.556,45.556,0,0,1-4.863-.267v-7.024a1.006,1.006,0,0,1,.9-1.075H771.5a1.006,1.006,0,0,1,.9,1.075Z" transform="translate(-670.71 -690.304)" fill="#03386e" fill-rule="evenodd"/>
            <path id="Trazado_1259646" data-name="Trazado 1259646" d="M723.388,488.286c3.322-3.374.155-12.188-5.078-16.035-6.7-4.923-12.6-6.989-17.042-3.855q7,6.712,13.978,13.426c-6.025.242-4.6.4-9.149-3.709l-.534,11.19a25.577,25.577,0,0,1,1.85,4.337c.861,3.168,1.24,6.765,1.9,10.1l9.571.379c1.007-6.533.069-11.311,4.5-15.829" transform="translate(-618.906 -412.07)" fill="#fed9b1" fill-rule="evenodd"/>
            <path id="Trazado_1259647" data-name="Trazado 1259647" d="M752.807,768.966h12.911a.682.682,0,0,0,.68-.681v-1.42a.682.682,0,0,0-.68-.68H752.807a.687.687,0,0,0-.68.68v1.42a.687.687,0,0,0,.68.681" transform="translate(-663.791 -676.198)" fill="#335e8a" fill-rule="evenodd"/>
            <path id="Trazado_1259648" data-name="Trazado 1259648" d="M635.683,431.046l32.233,24.874a.672.672,0,0,0,.947-.12l2.513-3.254a.683.683,0,0,0-.121-.956l-32.233-24.874a.681.681,0,0,0-.948.121l-2.513,3.262a.672.672,0,0,0,.121.947" transform="translate(-560.791 -376.477)" fill="#03386e" fill-rule="evenodd"/>
            <path id="Trazado_1259649" data-name="Trazado 1259649" d="M585.985,392.918l-5.526-4.949-3.925.008,8.315,6.421Z" transform="translate(-508.821 -342.402)" fill="gray" fill-rule="evenodd"/>
            <path id="Trazado_1259650" data-name="Trazado 1259650" d="M583.714,395.933l-6.2-4.088-.981-3.8,8.315,6.421Z" transform="translate(-508.822 -342.466)" fill="#b3b3b3" fill-rule="evenodd"/>
            <path id="Trazado_1259651" data-name="Trazado 1259651" d="M598.763,403.124a.709.709,0,0,1,.129.989.72.72,0,0,1-1,.129.71.71,0,0,1-.12-.99.7.7,0,0,1,.989-.128" transform="translate(-527.435 -355.647)" fill="#e6e6e6" fill-rule="evenodd"/>
            <path id="Trazado_1259652" data-name="Trazado 1259652" d="M926.621,651.122h0a.956.956,0,0,1,.173,1.334l-1.317,1.7A.951.951,0,1,1,923.97,653l1.317-1.7a.955.955,0,0,1,1.333-.172" transform="translate(-815.279 -574.476)" fill="#335e8a" fill-rule="evenodd"/>
            <path id="Trazado_1259653" data-name="Trazado 1259653" d="M865.914,620.688l-8.513-6.567-.4.534,8.5,6.567Z" transform="translate(-756.345 -541.993)" fill="#335e8a" fill-rule="evenodd"/>
            <path id="Trazado_1259654" data-name="Trazado 1259654" d="M819.243,561.653l.629.482-2.7,3.5-.629-.49Z" transform="translate(-720.64 -495.688)" fill="#e6e6e6" fill-rule="evenodd"/>
            <path id="Trazado_1259655" data-name="Trazado 1259655" d="M682.717,457.148l.585.457-2.849,3.692-.585-.447Z" transform="translate(-600.019 -403.457)" fill="#e6e6e6" fill-rule="evenodd"/>
            <path id="Trazado_1259656" data-name="Trazado 1259656" d="M690.826,490.665l1.85,4.9a13.716,13.716,0,0,0,3.477,5.629l.2,4.1c.078,1.532-.473,5.027-1.471,3.864a2.417,2.417,0,0,1-3.443-1.326l-5.8-15.337a3.192,3.192,0,0,1,1.48-3.864c1.136-1.016,3.168.611,3.71,2.039" transform="translate(-604.943 -430.957)" fill="#fed9b1" fill-rule="evenodd"/>
            <path id="Trazado_1259657" data-name="Trazado 1259657" d="M694.845,502.4a16.89,16.89,0,0,1-.543-1.678c.07-3.21,2.324-2.987,3.486-1.076a7.434,7.434,0,0,1,.663,1.791c.482,1.67-3,2.728-3.606.963" transform="translate(-612.758 -439.727)" fill="#fff" fill-rule="evenodd"/>
            <path id="Trazado_1259658" data-name="Trazado 1259658" d="M51.6,834.877c1.377,0,10.1-.008,10.1-1.454V831.4a.865.865,0,0,0-.18-.525c-.155-.2-1.343-.034-1.61-.034l-16.155-.164c-.293,0-1.971.018-2.118.242a.821.821,0,0,0-.154.482v2.022c0,1.713,8.659,1.454,10.113,1.454" transform="translate(-36.617 -733.116)" fill="#ffb438" fill-rule="evenodd"/>
            <path id="Trazado_1259659" data-name="Trazado 1259659" d="M52.84,826.691c5.483,0,9.959-.44,9.959-.973s-4.475-.973-9.959-.973-9.958.43-9.958.973,4.475.973,9.958.973" transform="translate(-37.846 -727.881)" fill="#fcd471" fill-rule="evenodd"/>
            <path id="Trazado_1259660" data-name="Trazado 1259660" d="M55.942,826.718c-4.51,0-8.323.293-9.545.7a79.787,79.787,0,0,1,9.545-.456,79.777,79.777,0,0,1,9.546.456c-1.223-.4-5.035-.7-9.546-.7" transform="translate(-40.948 -729.622)" fill="#ffb438" fill-rule="evenodd"/>
            <path id="Trazado_1259661" data-name="Trazado 1259661" d="M51.6,804.538c1.377,0,10.1-.008,10.1-1.454v-2.023a.844.844,0,0,0-.18-.525c-.155-.2-1.343-.034-1.61-.034l-16.155-.164a6.624,6.624,0,0,0-2.118.233.872.872,0,0,0-.154.49v2.023c0,1.713,8.659,1.454,10.113,1.454" transform="translate(-36.617 -706.34)" fill="#ffb438" fill-rule="evenodd"/>
            <path id="Trazado_1259662" data-name="Trazado 1259662" d="M52.84,796.283c5.483,0,9.959-.439,9.959-.973s-4.475-.981-9.959-.981-9.958.439-9.958.981,4.475.973,9.958.973" transform="translate(-37.846 -701.037)" fill="#fcd471" fill-rule="evenodd"/>
            <path id="Trazado_1259663" data-name="Trazado 1259663" d="M55.942,796.38c-4.51,0-8.323.293-9.545.7a79.784,79.784,0,0,1,9.545-.456,79.774,79.774,0,0,1,9.546.456c-1.223-.4-5.035-.7-9.546-.7" transform="translate(-40.948 -702.847)" fill="#ffb438" fill-rule="evenodd"/>
            <path id="Trazado_1259664" data-name="Trazado 1259664" d="M51.6,774.2c1.377,0,10.1-.008,10.1-1.454v-2.032a.837.837,0,0,0-.18-.516c-.155-.2-1.343-.034-1.61-.034L43.762,770a6.626,6.626,0,0,0-2.118.232.866.866,0,0,0-.154.482v2.032c0,1.713,8.659,1.454,10.113,1.454" transform="translate(-36.617 -679.564)" fill="#ffb438" fill-rule="evenodd"/>
            <path id="Trazado_1259665" data-name="Trazado 1259665" d="M52.84,765.945c5.483,0,9.959-.439,9.959-.973s-4.475-.981-9.959-.981-9.958.439-9.958.981,4.475.973,9.958.973" transform="translate(-37.846 -674.262)" fill="#fcd471" fill-rule="evenodd"/>
            <path id="Trazado_1259666" data-name="Trazado 1259666" d="M55.942,766.041c-4.51,0-8.323.293-9.545.7a79.784,79.784,0,0,1,9.545-.456,79.774,79.774,0,0,1,9.546.456c-1.223-.4-5.035-.7-9.546-.7" transform="translate(-40.948 -676.071)" fill="#ffb438" fill-rule="evenodd"/>
            <path id="Trazado_1259667" data-name="Trazado 1259667" d="M51.6,743.861c1.377,0,10.1-.008,10.1-1.454v-2.032a.865.865,0,0,0-.18-.525c-.155-.189-1.343-.026-1.61-.026l-16.155-.163a6.647,6.647,0,0,0-2.118.232.87.87,0,0,0-.154.482v2.032c0,1.712,8.659,1.454,10.113,1.454" transform="translate(-36.617 -652.789)" fill="#ffb438" fill-rule="evenodd"/>
            <path id="Trazado_1259668" data-name="Trazado 1259668" d="M52.84,735.606c5.483,0,9.959-.439,9.959-.973s-4.475-.981-9.959-.981-9.958.439-9.958.981,4.475.973,9.958.973" transform="translate(-37.846 -647.486)" fill="#fcd471" fill-rule="evenodd"/>
            <path id="Trazado_1259669" data-name="Trazado 1259669" d="M55.942,735.7c-4.51,0-8.323.293-9.545.7a79.4,79.4,0,0,1,9.545-.464,79.393,79.393,0,0,1,9.546.464c-1.223-.4-5.035-.7-9.546-.7" transform="translate(-40.948 -649.296)" fill="#ffb438" fill-rule="evenodd"/>
            <path id="Trazado_1259670" data-name="Trazado 1259670" d="M70.5,710.936c1.386,0,10.113-.008,10.113-1.454v-2.022a.865.865,0,0,0-.181-.525c-.155-.2-1.343-.026-1.61-.034l-16.164-.154c-.284-.008-1.962.008-2.108.232a.79.79,0,0,0-.155.483v2.022c0,1.713,8.65,1.454,10.1,1.454" transform="translate(-53.303 -623.738)" fill="#ffb438" fill-rule="evenodd"/>
            <path id="Trazado_1259671" data-name="Trazado 1259671" d="M71.747,702.687c5.482,0,9.958-.439,9.958-.973s-4.475-.973-9.958-.973-9.959.44-9.959.973,4.475.973,9.959.973" transform="translate(-54.531 -618.441)" fill="#fcd471" fill-rule="evenodd"/>
            <path id="Trazado_1259672" data-name="Trazado 1259672" d="M74.85,702.721c-4.511,0-8.323.293-9.546.7a79.824,79.824,0,0,1,9.546-.456,79.811,79.811,0,0,1,9.545.456c-1.223-.4-5.035-.7-9.545-.7" transform="translate(-57.634 -620.188)" fill="#ffb438" fill-rule="evenodd"/>
            <path id="Trazado_1259673" data-name="Trazado 1259673" d="M49.182,677.955c1.377,0,10.113-.009,10.113-1.454v-2.023a.817.817,0,0,0-.19-.525c-.154-.2-1.343-.026-1.61-.034l-16.155-.155c-.284-.008-1.962.008-2.117.232a.845.845,0,0,0-.155.482V676.5c0,1.712,8.659,1.454,10.114,1.454" transform="translate(-34.48 -594.63)" fill="#ffb438" fill-rule="evenodd"/>
            <path id="Trazado_1259674" data-name="Trazado 1259674" d="M50.492,669.712c5.483,0,9.95-.439,9.95-.973s-4.467-.973-9.95-.973-9.959.439-9.959.973,4.468.973,9.959.973" transform="translate(-35.772 -589.339)" fill="#fcd471" fill-rule="evenodd"/>
            <path id="Trazado_1259675" data-name="Trazado 1259675" d="M53.535,669.746c-4.518,0-8.332.293-9.553.7a79.938,79.938,0,0,1,9.553-.456,79.872,79.872,0,0,1,9.545.456c-1.222-.4-5.034-.7-9.545-.7" transform="translate(-38.816 -591.086)" fill="#ffb438" fill-rule="evenodd"/>
            <path id="Trazado_1259676" data-name="Trazado 1259676" d="M10.562,630.959c1.36-.233,9.967-1.7,9.726-3.124l-.336-2a.823.823,0,0,0-.275-.482c-.181-.172-1.326.19-1.593.232L2.127,628.136c-.275.043-1.928.344-2.04.585a.834.834,0,0,0-.077.5l.344,2c.284,1.7,8.779-.008,10.208-.258" transform="translate(0 -551.868)" fill="#ffb438" fill-rule="evenodd"/>
            <path id="Trazado_1259677" data-name="Trazado 1259677" d="M10.527,625.048c-5.423.921-9.743,2.091-9.648,2.625s4.553.215,9.975-.706,9.743-2.1,9.657-2.625-4.562-.216-9.985.706" transform="translate(-0.774 -550.786)" fill="#fcd471" fill-rule="evenodd"/>
            <path id="Trazado_1259678" data-name="Trazado 1259678" d="M13.558,627.038c-4.45.757-8.159,1.678-9.295,2.28A79.321,79.321,0,0,1,13.6,627.27a79.781,79.781,0,0,1,9.485-1.145c-1.273-.19-5.078.155-9.528.912" transform="translate(-3.762 -552.543)" fill="#ffb438" fill-rule="evenodd"/>
            <path id="Trazado_1259679" data-name="Trazado 1259679" d="M205.985,723.326a9.713,9.713,0,1,0-9.717-9.709,9.731,9.731,0,0,0,9.717,9.709" transform="translate(-173.217 -621.228)" fill="#ffb438" fill-rule="evenodd"/>
            <path id="Trazado_1259680" data-name="Trazado 1259680" d="M218.919,734.547a8,8,0,1,0-8-8,8.008,8.008,0,0,0,8,8" transform="translate(-186.151 -634.162)" fill="#fcd471" fill-rule="evenodd"/>
            <path id="Trazado_1259681" data-name="Trazado 1259681" d="M222.343,737.52a7.54,7.54,0,1,0-7.54-7.54,7.56,7.56,0,0,0,7.54,7.54" transform="translate(-189.575 -637.592)" fill="#ffb438" fill-rule="evenodd"/>
            <path id="Trazado_1259682" data-name="Trazado 1259682" d="M258.708,756.76h1.739v-.7a2.376,2.376,0,0,0,1.652-2.2,2.268,2.268,0,0,0-.559-1.49,2.657,2.657,0,0,0-2.023-.912.6.6,0,0,1-.619-.576.6.6,0,0,1,.619-.585.615.615,0,0,1,.637.585H262.1a2.383,2.383,0,0,0-1.652-2.2v-.809h-1.739v.774a2.383,2.383,0,0,0-1.747,2.247,2.456,2.456,0,0,0,2.556,2.367.579.579,0,1,1,0,1.153.6.6,0,0,1-.619-.585h-1.954a2.392,2.392,0,0,0,1.764,2.281Z" transform="translate(-226.766 -660.034)" fill="#fcd471" fill-rule="evenodd"/>
            <path id="Trazado_1259683" data-name="Trazado 1259683" d="M25.921,214.334l1,3.89c-1.687,3-3.357,3.348-5,.129l.973-3.934c1.816-7.324,1.188-7.161,3.029-.086" transform="translate(-19.345 -184.433)" fill="#fbc081" fill-rule="evenodd"/>
            <path id="Trazado_1259684" data-name="Trazado 1259684" d="M33.937,211.406c1.128-4.794,1-4.717,2.143-.043a1.367,1.367,0,0,1-1.067.731,1.294,1.294,0,0,1-1.076-.688" transform="translate(-29.951 -183.424)" fill="#4d4d4d" fill-rule="evenodd"/>
            <path id="Trazado_1259685" data-name="Trazado 1259685" d="M20.739,309.361l-.008-2.341-.044-20.7c0-1.058-.439-1.919-.963-1.9s-.956.895-.956,1.954l.052,23.041c0,.087,0,.173.008.259v2.367c0,.9.379,1.643.827,1.627l1.093-.026Z" transform="translate(-16.564 -251.014)" fill="#b96f2d" fill-rule="evenodd"/>
            <path id="Trazado_1259686" data-name="Trazado 1259686" d="M32.762,308.97l-.008-2.35-.06-20.692c0-1.058.482-1.945,1.084-1.954s1.085.844,1.094,1.9l.06,20.7.008,2.341.018,4.278-2.178.051Z" transform="translate(-28.853 -250.623)" fill="#e4883a" fill-rule="evenodd"/>
            <path id="Trazado_1259687" data-name="Trazado 1259687" d="M50.958,308.477v-.93l-.077-22.112c0-1.058-.5-1.919-1.11-1.9s-1.11.887-1.1,1.954l.069,20.691.008,2.35.009,4.278,1.282-.034c.473-.009.869-.637.929-1.438Z" transform="translate(-42.953 -250.233)" fill="#f99e3f" fill-rule="evenodd"/>
            <path id="Trazado_1259688" data-name="Trazado 1259688" d="M20.957,519.317l2.883-.078a1.481,1.481,0,0,0,1.438-1.471l-.008-3.744a1.413,1.413,0,0,0-1.446-1.4l-2.883.078a1.494,1.494,0,0,0-1.438,1.48l.008,3.744a1.4,1.4,0,0,0,1.446,1.395" transform="translate(-17.212 -452.414)" fill="#f1698d" fill-rule="evenodd"/>
            <path id="Trazado_1259689" data-name="Trazado 1259689" d="M20.273,513.251l4.527-.138a.643.643,0,0,0,.619-.637v-1.239a.6.6,0,0,0-.619-.594l-4.527.138a.65.65,0,0,0-.619.637l.008,1.239a.594.594,0,0,0,.611.594" transform="translate(-17.346 -450.669)" fill="#d85e7f" fill-rule="evenodd"/>
            <path id="Trazado_1259690" data-name="Trazado 1259690" d="M717.9,170.12h7.824V152.735h4.975l-4.441-7.7-4.45-7.694-4.441,7.694-4.441,7.7H717.9Z" transform="translate(-629.19 -121.207)" fill="#fcd471" fill-rule="evenodd"/>
            <path id="Trazado_1259691" data-name="Trazado 1259691" d="M458.9,721.634h28.429a1.531,1.531,0,0,1,1.523,1.523v16.121a1.526,1.526,0,0,1-1.523,1.524H458.9a1.521,1.521,0,0,1-1.524-1.524V723.157a1.526,1.526,0,0,1,1.524-1.523" transform="translate(-403.656 -636.88)" fill="#c7805c" fill-rule="evenodd"/>
            <path id="Trazado_1259692" data-name="Trazado 1259692" d="M582.872,641.011l2.772,24.891a.425.425,0,0,1-.379.465l-11.3,1.256a.42.42,0,0,1-.473-.37l-2.762-24.891a.426.426,0,0,1,.37-.474l11.3-1.256a.432.432,0,0,1,.473.379" transform="translate(-503.694 -565.388)" fill="#6bc06f" fill-rule="evenodd"/>
            <path id="Trazado_1259693" data-name="Trazado 1259693" d="M589.411,650.127l2.556,23.032a.362.362,0,0,1-.318.405l-9.674,1.075a.357.357,0,0,1-.405-.318l-2.565-23.042a.366.366,0,0,1,.318-.4l9.683-1.076a.373.373,0,0,1,.4.327" transform="translate(-511 -573.481)" fill="#87cc8a" fill-rule="evenodd"/>
            <path id="Trazado_1259694" data-name="Trazado 1259694" d="M597.815,661.821l.921,8.322.93,8.324a1.571,1.571,0,0,0-.2.017,2.909,2.909,0,0,0-2.832,2.944c.009.086.026.172.044.258l-2.281.249c0-.086,0-.172-.008-.258a2.916,2.916,0,0,0-3.418-2.246l-.2.026-.921-8.323-.93-8.323a1.6,1.6,0,0,0,.2-.017,2.907,2.907,0,0,0,2.831-2.943,1.378,1.378,0,0,0-.043-.258l2.28-.249c0,.086.009.172.018.258a2.9,2.9,0,0,0,3.409,2.247l.2-.025" transform="translate(-519.756 -581.904)" fill="#6bc06f" fill-rule="evenodd"/>
            <path id="Trazado_1259695" data-name="Trazado 1259695" d="M472.5,601.819l12.032,21.957a.425.425,0,0,1-.164.586l-9.967,5.466a.435.435,0,0,1-.585-.173l-12.033-21.965a.416.416,0,0,1,.164-.576l9.967-5.466a.437.437,0,0,1,.586.172" transform="translate(-407.498 -530.94)" fill="#6bc06f" fill-rule="evenodd"/>
            <path id="Trazado_1259696" data-name="Trazado 1259696" d="M481.395,612.616l11.138,20.322a.366.366,0,0,1-.147.5l-8.538,4.683a.379.379,0,0,1-.5-.146l-11.138-20.33a.36.36,0,0,1,.147-.491l8.538-4.682a.37.37,0,0,1,.5.146" transform="translate(-416.711 -540.497)" fill="#87cc8a" fill-rule="evenodd"/>
            <path id="Trazado_1259697" data-name="Trazado 1259697" d="M499.662,634.088l4.019,7.342,4.028,7.342c-.06.034-.12.06-.172.094a2.916,2.916,0,0,0-1.506,3.8,1.907,1.907,0,0,0,.138.223l-2.006,1.1c-.034-.077-.069-.154-.112-.232a2.925,2.925,0,0,0-4.02-.783c-.051.034-.112.069-.164.1l-4.027-7.342-4.02-7.35a1.483,1.483,0,0,0,.172-.086,2.905,2.905,0,0,0,1.5-3.8,1.211,1.211,0,0,0-.138-.224l2.015-1.1c.034.077.069.155.112.232a2.911,2.911,0,0,0,4.01.783c.06-.034.112-.069.173-.1" transform="translate(-434.058 -558.811)" fill="#6bc06f" fill-rule="evenodd"/>
            <path id="Trazado_1259698" data-name="Trazado 1259698" d="M523.117,691.377l.662,1.205.482-.267a1.891,1.891,0,0,0,2.152.31,1.8,1.8,0,0,0,.826-.956,2.128,2.128,0,0,0-.138-1.748.458.458,0,1,1,.637.225l.74,1.342a1.882,1.882,0,0,0,.9-1.98l.56-.31-.663-1.205-.542.293a1.865,1.865,0,0,0-2.221-.353,1.933,1.933,0,0,0-.663,2.669.46.46,0,1,1-.629-.215l-.748-1.351a1.891,1.891,0,0,0-.9,2.091Z" transform="translate(-461.678 -606.941)" fill="#efefef" fill-rule="evenodd"/>
            <path id="Trazado_1259699" data-name="Trazado 1259699" d="M458.769,735.117h28.688a1.4,1.4,0,0,1,1.394,1.4v14.786a1.4,1.4,0,0,1-1.394,1.395H458.769a1.4,1.4,0,0,1-1.395-1.395V736.52a1.4,1.4,0,0,1,1.395-1.4" transform="translate(-403.656 -648.779)" fill="#e99261" fill-rule="evenodd"/>
            <path id="Trazado_1259700" data-name="Trazado 1259700" d="M458.606,753.066H487.62a1.236,1.236,0,0,1,1.231,1.231v13.014a1.23,1.23,0,0,1-1.231,1.231H458.606a1.231,1.231,0,0,1-1.231-1.231V754.3a1.237,1.237,0,0,1,1.231-1.231" transform="translate(-403.657 -664.62)" fill="#e58a6b" fill-rule="evenodd"/>
            <path id="Trazado_1259701" data-name="Trazado 1259701" d="M487.041,753.066h25.675a1.236,1.236,0,0,1,1.231,1.231v13.014a1.23,1.23,0,0,1-1.231,1.231H487.041a1.23,1.23,0,0,1-1.23-1.231V754.3a1.236,1.236,0,0,1,1.23-1.231" transform="translate(-428.754 -664.62)" fill="#faa17e" fill-rule="evenodd"/>
            <path id="Trazado_1259702" data-name="Trazado 1259702" d="M518.482,753.066h21.982a1.236,1.236,0,0,1,1.231,1.231v13.014a1.23,1.23,0,0,1-1.231,1.231H518.482a1.23,1.23,0,0,1-1.231-1.231V754.3a1.236,1.236,0,0,1,1.231-1.231" transform="translate(-456.501 -664.62)" fill="#f9b38c" fill-rule="evenodd"/>
            <path id="Trazado_1259703" data-name="Trazado 1259703" d="M536.3,769.922a2.126,2.126,0,1,0-2.126-2.126,2.131,2.131,0,0,0,2.126,2.126" transform="translate(-471.44 -675.744)" fill="#de9266" fill-rule="evenodd"/>
            <path id="Trazado_1259704" data-name="Trazado 1259704" d="M548.014,778.939a.568.568,0,1,1-.567.568.567.567,0,0,1,.567-.568" transform="translate(-483.151 -687.454)" fill="#f9b38c" fill-rule="evenodd"/>
          </g>
        </g>
      </g>
    </g>
  </g>
</svg>
