<svg xmlns="http://www.w3.org/2000/svg" xmlns:xlink="http://www.w3.org/1999/xlink" width="96" height="96" viewBox="0 0 96 96">
  <defs>
    <clipPath id="clip-path">
      <rect id="Rectángulo_454682" data-name="Rectángulo 454682" width="96" height="96" fill="#feea89"/>
    </clipPath>
    <clipPath id="clip-path-2">
      <rect id="Rectángulo_455279" data-name="Rectángulo 455279" width="58" height="58" transform="translate(2.838 14)" fill="#fff" stroke="#707070" stroke-width="1"/>
    </clipPath>
    <clipPath id="clip-path-3">
      <rect id="Rectángulo_455280" data-name="Rectángulo 455280" width="54.103" height="54.322" fill="#fff"/>
    </clipPath>
  </defs>
  <g id="Grupo_1203783" data-name="Grupo 1203783" transform="translate(-731.746 -8618)">
    <g id="Grupo_1203592" data-name="Grupo 1203592" transform="translate(731.746 8618)">
      <g id="Grupo_1203487" data-name="Grupo 1203487">
        <g id="Grupo_1203486" data-name="Grupo 1203486" clip-path="url(#clip-path)">
          <path id="Trazado_1256437" data-name="Trazado 1256437" d="M2.058,84.327a47.583,47.583,0,0,0,1.836,6.227L23,71.45a25.883,25.883,0,0,1,4.958-13.021Z" transform="translate(-0.911 -25.866)" fill="#feea89"/>
          <path id="Trazado_1256438" data-name="Trazado 1256438" d="M90.555,3.894a47.583,47.583,0,0,0-6.227-1.836l-25.9,25.9A25.886,25.886,0,0,1,71.451,23Z" transform="translate(-25.866 -0.911)" fill="#feea89"/>
          <path id="Trazado_1256439" data-name="Trazado 1256439" d="M117.575,12.855a48.029,48.029,0,0,0-5.022-3.041L95.523,26.843a25.831,25.831,0,0,1,6.031,2.032Z" transform="translate(-42.287 -4.345)" fill="#feea89"/>
          <path id="Trazado_1256440" data-name="Trazado 1256440" d="M9.814,112.552a47.933,47.933,0,0,0,3.041,5.022l16.021-16.021a25.831,25.831,0,0,1-2.032-6.031Z" transform="translate(-4.345 -42.287)" fill="#feea89"/>
          <path id="Trazado_1256441" data-name="Trazado 1256441" d="M4.273,34.929,34.929,4.273A48.116,48.116,0,0,0,4.273,34.929" transform="translate(-1.892 -1.892)" fill="#feea89"/>
          <path id="Trazado_1256442" data-name="Trazado 1256442" d="M48,0q-2.406,0-4.752.234L.234,43.248Q0,45.593,0,48q0,1.726.123,3.422l51.3-51.3C50.292.043,49.151,0,48,0" transform="translate(0 0)" fill="#feea89"/>
          <path id="Trazado_1256443" data-name="Trazado 1256443" d="M143.483,112.406l-31.076,31.076a48.112,48.112,0,0,0,31.076-31.076" transform="translate(-49.761 -49.761)" fill="#feea89"/>
          <path id="Trazado_1256444" data-name="Trazado 1256444" d="M131.113,79.625,79.625,131.113q1.795.134,3.624.135c1.524,0,3.03-.074,4.517-.213l43.27-43.27c.139-1.487.213-2.993.213-4.516q0-1.829-.135-3.624" transform="translate(-35.249 -35.249)" fill="#feea89"/>
          <path id="Trazado_1256445" data-name="Trazado 1256445" d="M119.266,41.241l15.585-15.585a48.285,48.285,0,0,0-4.038-4.025L115.222,37.222a26.166,26.166,0,0,1,4.044,4.019" transform="translate(-51.007 -9.575)" fill="#feea89"/>
          <path id="Trazado_1256446" data-name="Trazado 1256446" d="M37.222,115.222,21.63,130.814a48.369,48.369,0,0,0,4.025,4.038l15.585-15.585a26.166,26.166,0,0,1-4.019-4.044" transform="translate(-9.575 -51.007)" fill="#feea89"/>
          <path id="Trazado_1256447" data-name="Trazado 1256447" d="M74.932,129.121,55.9,148.149a47.687,47.687,0,0,0,6.207,1.857l25.333-25.333a25.88,25.88,0,0,1-12.512,4.448" transform="translate(-24.748 -55.191)" fill="#feea89"/>
          <path id="Trazado_1256448" data-name="Trazado 1256448" d="M150.006,62.11a47.591,47.591,0,0,0-1.857-6.206L129.121,74.931a25.87,25.87,0,0,1-4.448,12.512Z" transform="translate(-55.191 -24.748)" fill="#feea89"/>
          <path id="Trazado_1256449" data-name="Trazado 1256449" d="M147.17,41.946a48.074,48.074,0,0,0-3.054-5.009l-16,16a25.825,25.825,0,0,1,2.064,6Z" transform="translate(-56.713 -16.352)" fill="#feea89"/>
          <path id="Trazado_1256450" data-name="Trazado 1256450" d="M36.937,144.115a47.933,47.933,0,0,0,5.009,3.055l16.995-17a25.812,25.812,0,0,1-6-2.064Z" transform="translate(-16.352 -56.713)" fill="#feea89"/>
        </g>
      </g>
    </g>
    <g id="Grupo_154427" data-name="Grupo 154427" transform="translate(736.746 8623)">
      <path id="Elipse_5729" data-name="Elipse 5729" d="M43,0A43,43,0,1,1,0,43,43,43,0,0,1,43,0Z" transform="translate(-0.162 0)" fill="#302c9e"/>
      <g id="Enmascarar_grupo_1119166" data-name="Enmascarar grupo 1119166" transform="translate(10)" clip-path="url(#clip-path-2)">
        <g id="Grupo_1204194" data-name="Grupo 1204194" transform="translate(4.787 16)">
          <g id="Grupo_1204194-2" data-name="Grupo 1204194" clip-path="url(#clip-path-3)">
            <path id="Trazado_1258174" data-name="Trazado 1258174" d="M19.332.043C36.026-1.023,46.757,17.584,37.9,31.629L52.073,43.681c5.583,5.187-1.473,13.74-7.679,9.5L31.479,38.166l-.427.015A20.537,20.537,0,1,1,19.332.043m.495,1.322A19.253,19.253,0,0,0,5.258,32.19c8.866,11.751,27.308,9.33,32.967-4.169C43.6,15.189,33.761.751,19.827,1.365M37.122,32.7a23.924,23.924,0,0,1-4.535,4.557l2.223,2.7,4.861-4.891Zm3.5,3.318c-.623.158-3.862,4.119-4.752,4.685l-.08.413,9.119,10.714c4.372,3.8,10.523-2.63,6.645-6.81A98.917,98.917,0,0,0,43.815,38.4c-.478-.4-2.8-2.474-3.19-2.375" transform="translate(0 0)" fill="#fff"/>
            <path id="Trazado_1258175" data-name="Trazado 1258175" d="M40.277,25.019a16.428,16.428,0,1,1-9.294,29.017c-11.3-9.514-5.348-27.889,9.294-29.017m1.135,1.334A15.09,15.09,0,0,0,28.45,48.971c5.691,9.792,20.005,10.061,25.869.331A15.09,15.09,0,0,0,41.412,26.354" transform="translate(-20.944 -20.846)" fill="#fff"/>
            <path id="Trazado_1258176" data-name="Trazado 1258176" d="M61.371,40.119a2.757,2.757,0,0,1,1.931.8L73.754,59.045a2.173,2.173,0,0,1-2.014,3.184c-6.471.572-13.77-.447-20.33,0a2.2,2.2,0,0,1-1.958-1.18c-.572-1.189-.164-1.7.367-2.736,2.925-5.716,6.843-11.221,9.8-16.958a2.848,2.848,0,0,1,1.752-1.235M61.189,41.6,50.536,59.867c-.011.814.5.978,1.2,1.042,6.237.575,13.342-.452,19.672,0,1.438-.129,1.474-.841.763-1.935L62.312,41.911a.967.967,0,0,0-1.123-.31" transform="translate(-41.052 -33.487)" fill="#fff"/>
            <path id="Trazado_1258177" data-name="Trazado 1258177" d="M113.579,76.725a2,2,0,0,1,2.674,1.539l-.354,6.562a1.678,1.678,0,0,1-3.258-.306l-.33-6.256a2.134,2.134,0,0,1,1.268-1.539m.475,1.293c-.2.066-.232.218-.266.4a17.855,17.855,0,0,0,.163,3.8c.041.62-.1,1.42,0,1.979.113.634.594.543.668-.156.155-1.458.126-3,.158-4.466.011-.514.462-1.083-.165-1.491Z" transform="translate(-93.76 -63.971)" fill="#fff"/>
            <path id="Trazado_1258178" data-name="Trazado 1258178" d="M115.318,139.268a1.846,1.846,0,0,1,.117,3.689c-2.316.071-2.473-3.553-.117-3.689m-.17,1.449c-.641.2-.081,1.186.566.734.432-.3.047-.923-.566-.734" transform="translate(-94.855 -116.261)" fill="#fff"/>
          </g>
        </g>
      </g>
    </g>
  </g>
</svg>
