<svg xmlns="http://www.w3.org/2000/svg" xmlns:xlink="http://www.w3.org/1999/xlink" width="133" height="133" viewBox="0 0 133 133">
  <defs>
    <clipPath id="clip-path">
      <rect id="Rectángulo_455853" data-name="Rectángulo 455853" width="84" height="84" transform="translate(262.711 6257)" fill="#302c9e" stroke="#707070" stroke-width="1"/>
    </clipPath>
    <clipPath id="clip-path-2">
      <rect id="Rectángulo_455856" data-name="Rectángulo 455856" width="78" height="77.929" fill="#302c9e"/>
    </clipPath>
  </defs>
  <g id="Grupo_1204971" data-name="Grupo 1204971" transform="translate(-884.711 -6233)">
    <g id="Grupo_1204781" data-name="Grupo 1204781">
      <path id="Trazado_1259882" data-name="Trazado 1259882" d="M66.5,0A66.5,66.5,0,1,1,0,66.5,66.5,66.5,0,0,1,66.5,0Z" transform="translate(884.711 6233)" fill="#302c9e"/>
      <path id="Elipse_5729" data-name="Elipse 5729" d="M60.058,0A60.058,60.058,0,1,1,0,60.058,60.058,60.058,0,0,1,60.058,0Z" transform="translate(890.711 6239)" fill="#feea89"/>
      <g id="Enmascarar_grupo_1119209" data-name="Enmascarar grupo 1119209" transform="translate(647)" clip-path="url(#clip-path)">
        <g id="Grupo_1204785" data-name="Grupo 1204785" transform="translate(265.711 6260)">
          <g id="Grupo_1204784" data-name="Grupo 1204784" clip-path="url(#clip-path-2)">
            <path id="Trazado_1259883" data-name="Trazado 1259883" d="M66.705,53.882c.91,1.068,5.743,5.217,5.837,6.17a1.5,1.5,0,0,1-.37,1.044L60.486,72.475a1.258,1.258,0,0,1-.6,0c-1.229-.224-5.675-5.744-7.061-6.742L48.541,67.4c-.261.176-.215.442-.247.7-.234,1.894.5,8.3-.347,9.394a1.026,1.026,0,0,1-.518.433l-16.7-.072a1.874,1.874,0,0,1-.718-1.421c-.318-2.72.275-5.98-.027-8.763l-4.366-1.987-7.186,6.781-.944-.135C9.627,65.373,3.115,57.662.908,47.092-6.863,9.876,37.021-15.109,65.417,10.38c.915.821,6.851,6.667,7.026,7.241.25.816-.153,1.177-.622,1.783-1.623,2.094-4.309,4-6.059,6.061l1.667,4.285c.176.261.442.215.7.247,2.578.318,6.04-.41,8.552,0A1.467,1.467,0,0,1,78,31.058l-.113,16.507a1.874,1.874,0,0,1-1.421.718c-1.479.173-8.31-.307-8.925.1l-1.827,4.29c.349.384.656.813.99,1.205M35.905,2.971A36.7,36.7,0,0,0,9.626,18.03C-.238,31.85.792,51.4,12.584,63.7l1.718-1.72A33.764,33.764,0,0,1,62,14.284l1.73-1.557c.121-.7-4.64-3.953-5.466-4.463A37.183,37.183,0,0,0,35.905,2.971M35.667,8.2c-8.316.758-16.629,5.816-21.527,12.447C5.4,32.478,6.146,49.48,16.353,60.152L26.859,49.738c.927-.257,2.925,1.843,3.886,2.441,14.109,8.78,30.3-7.571,21.37-21.607-.595-.935-2.607-2.805-2.348-3.742L60.182,16.323C53.692,10.041,44.636,7.379,35.667,8.2M75.392,32.6H66.007c-1.029-.952-1.141-2.529-1.667-3.8-.425-1.026-1.708-2.935-1.543-3.912.2-1.159,5.715-5.329,6.4-6.869a35.85,35.85,0,0,0-3.311-3.373c-.183-.094-.292-.158-.471,0L52.831,27.252c14.306,17.3-8.249,39.854-25.55,25.55L14.794,65.258c-.232.2-.262.321-.119.6a35.88,35.88,0,0,0,3.373,3.311c1.536-.684,5.715-6.208,6.869-6.4,1.089-.182,2.836,1.094,3.912,1.543,1.267.529,2.846.636,3.8,1.667v9.384H45.694V65.978c.952-1.029,2.529-1.141,3.8-1.667,1.026-.425,2.935-1.708,3.912-1.543,1.1.186,6.175,6.522,6.869,6.4l8.719-8.647.119-.6c-.856-1.2-6.145-5.552-6.313-6.547-.165-.977,1.118-2.886,1.543-3.912.526-1.269.638-2.846,1.667-3.8h9.384Z" transform="translate(0 0)" fill="#302c9e"/>
            <path id="Trazado_1259884" data-name="Trazado 1259884" d="M116.154,93.222a4.912,4.912,0,0,1,3.785,4.171A5.176,5.176,0,0,1,109.8,99.41c-1.945-.327-8.652.579-9.967-.208a1.309,1.309,0,0,1,.5-2.384l9.59-.034a4.519,4.519,0,0,1,3.563-3.563l.023-14.352c.046-1.812,2.307-2.1,2.6-.218Zm-2.235,2.453c-2.122.485-2.183,4.214-.181,4.831,4.655,1.436,4.975-5.927.181-4.831" transform="translate(-75.659 -58.988)" fill="#302c9e"/>
            <path id="Trazado_1259885" data-name="Trazado 1259885" d="M143.378,124.912a14.573,14.573,0,0,1,2.881,4.6c4.095,11.671-8.68,22.019-19.169,15.368-.973-.617-3.757-2.46-2.058-3.678,1.312-.941,2.02.556,2.909,1.163a10.388,10.388,0,0,0,14.529-14.529c-.607-.889-2.1-1.6-1.163-2.91.579-.808,1.409-.593,2.071-.017" transform="translate(-94.916 -94.844)" fill="#302c9e"/>
            <path id="Trazado_1259886" data-name="Trazado 1259886" d="M160.053,39.316c2.189-.334,2.067,5.171.184,5.17-1.8,0-1.945-4.9-.184-5.17" transform="translate(-121.076 -29.964)" fill="#302c9e"/>
            <path id="Trazado_1259887" data-name="Trazado 1259887" d="M40.436,158.929c.871-.261,3.72-.256,4.178.731.964,2.074-3,2.144-4.178,1.791a1.389,1.389,0,0,1,0-2.522" transform="translate(-30.215 -121.059)" fill="#302c9e"/>
            <path id="Trazado_1259888" data-name="Trazado 1259888" d="M58.43,214.2c.922-.184,1.69-.043,1.749,1.019.086,1.545-4.271,4.025-4.74,1.6-.2-1.047,2.125-2.45,2.99-2.623" transform="translate(-42.259 -163.259)" fill="#302c9e"/>
            <path id="Trazado_1259889" data-name="Trazado 1259889" d="M100.8,55.341c1.548-.234,4.28,4.915,1.371,4.737-1.226-.075-3.822-4.227-1.371-4.737" transform="translate(-76.075 -42.187)" fill="#302c9e"/>
            <path id="Trazado_1259890" data-name="Trazado 1259890" d="M216.731,55.327a1.391,1.391,0,0,1,1.488,1.286c.039.65-1.509,3.3-2.266,3.428-3.147.533-.591-4.5.778-4.714" transform="translate(-163.5 -42.172)" fill="#302c9e"/>
            <path id="Trazado_1259891" data-name="Trazado 1259891" d="M56.554,99.322c1.039-.2,5.043,2.157,3.292,3.549-1.044.83-4.581-1.134-4.38-2.463a1.455,1.455,0,0,1,1.088-1.086" transform="translate(-42.282 -75.716)" fill="#302c9e"/>
            <rect id="Rectángulo_455854" data-name="Rectángulo 455854" width="2.616" height="2.616" transform="translate(70.164 37.823)" fill="#302c9e"/>
            <rect id="Rectángulo_455855" data-name="Rectángulo 455855" width="2.616" height="2.616" transform="translate(37.853 70.134)" fill="#302c9e"/>
            <path id="Trazado_1259892" data-name="Trazado 1259892" d="M254.288,255.383a1.649,1.649,0,0,0,1.186-1.186l.32-.043,1.771,1.761-1.732,1.56c-.416-.413-1.9-1.485-1.545-2.091" transform="translate(-193.833 -193.772)" fill="#302c9e"/>
          </g>
        </g>
      </g>
    </g>
  </g>
</svg>
