<svg xmlns="http://www.w3.org/2000/svg" xmlns:xlink="http://www.w3.org/1999/xlink" width="96" height="96" viewBox="0 0 96 96">
  <defs>
    <clipPath id="clip-path">
      <rect id="Rect치ngulo_454682" data-name="Rect치ngulo 454682" width="96" height="96" fill="#feea89"/>
    </clipPath>
    <clipPath id="clip-path-2">
      <rect id="Rect치ngulo_455650" data-name="Rect치ngulo 455650" width="51.333" height="52.976" fill="#fff"/>
    </clipPath>
  </defs>
  <g id="Grupo_1204611" data-name="Grupo 1204611" transform="translate(-731.746 -8618)">
    <g id="Grupo_1203592" data-name="Grupo 1203592" transform="translate(731.746 8618)">
      <g id="Grupo_1203487" data-name="Grupo 1203487">
        <g id="Grupo_1203486" data-name="Grupo 1203486" clip-path="url(#clip-path)">
          <path id="Trazado_1256437" data-name="Trazado 1256437" d="M2.058,84.327a47.583,47.583,0,0,0,1.836,6.227L23,71.45a25.883,25.883,0,0,1,4.958-13.021Z" transform="translate(-0.911 -25.866)" fill="#feea89"/>
          <path id="Trazado_1256438" data-name="Trazado 1256438" d="M90.555,3.894a47.583,47.583,0,0,0-6.227-1.836l-25.9,25.9A25.886,25.886,0,0,1,71.451,23Z" transform="translate(-25.866 -0.911)" fill="#feea89"/>
          <path id="Trazado_1256439" data-name="Trazado 1256439" d="M117.575,12.855a48.029,48.029,0,0,0-5.022-3.041L95.523,26.843a25.831,25.831,0,0,1,6.031,2.032Z" transform="translate(-42.287 -4.345)" fill="#feea89"/>
          <path id="Trazado_1256440" data-name="Trazado 1256440" d="M9.814,112.552a47.933,47.933,0,0,0,3.041,5.022l16.021-16.021a25.831,25.831,0,0,1-2.032-6.031Z" transform="translate(-4.345 -42.287)" fill="#feea89"/>
          <path id="Trazado_1256441" data-name="Trazado 1256441" d="M4.273,34.929,34.929,4.273A48.116,48.116,0,0,0,4.273,34.929" transform="translate(-1.892 -1.892)" fill="#feea89"/>
          <path id="Trazado_1256442" data-name="Trazado 1256442" d="M48,0q-2.406,0-4.752.234L.234,43.248Q0,45.593,0,48q0,1.726.123,3.422l51.3-51.3C50.292.043,49.151,0,48,0" transform="translate(0 0)" fill="#feea89"/>
          <path id="Trazado_1256443" data-name="Trazado 1256443" d="M143.483,112.406l-31.076,31.076a48.112,48.112,0,0,0,31.076-31.076" transform="translate(-49.761 -49.761)" fill="#feea89"/>
          <path id="Trazado_1256444" data-name="Trazado 1256444" d="M131.113,79.625,79.625,131.113q1.795.134,3.624.135c1.524,0,3.03-.074,4.517-.213l43.27-43.27c.139-1.487.213-2.993.213-4.516q0-1.829-.135-3.624" transform="translate(-35.249 -35.249)" fill="#feea89"/>
          <path id="Trazado_1256445" data-name="Trazado 1256445" d="M119.266,41.241l15.585-15.585a48.285,48.285,0,0,0-4.038-4.025L115.222,37.222a26.166,26.166,0,0,1,4.044,4.019" transform="translate(-51.007 -9.575)" fill="#feea89"/>
          <path id="Trazado_1256446" data-name="Trazado 1256446" d="M37.222,115.222,21.63,130.814a48.369,48.369,0,0,0,4.025,4.038l15.585-15.585a26.166,26.166,0,0,1-4.019-4.044" transform="translate(-9.575 -51.007)" fill="#feea89"/>
          <path id="Trazado_1256447" data-name="Trazado 1256447" d="M74.932,129.121,55.9,148.149a47.687,47.687,0,0,0,6.207,1.857l25.333-25.333a25.88,25.88,0,0,1-12.512,4.448" transform="translate(-24.748 -55.191)" fill="#feea89"/>
          <path id="Trazado_1256448" data-name="Trazado 1256448" d="M150.006,62.11a47.591,47.591,0,0,0-1.857-6.206L129.121,74.931a25.87,25.87,0,0,1-4.448,12.512Z" transform="translate(-55.191 -24.748)" fill="#feea89"/>
          <path id="Trazado_1256449" data-name="Trazado 1256449" d="M147.17,41.946a48.074,48.074,0,0,0-3.054-5.009l-16,16a25.825,25.825,0,0,1,2.064,6Z" transform="translate(-56.713 -16.352)" fill="#feea89"/>
          <path id="Trazado_1256450" data-name="Trazado 1256450" d="M36.937,144.115a47.933,47.933,0,0,0,5.009,3.055l16.995-17a25.812,25.812,0,0,1-6-2.064Z" transform="translate(-16.352 -56.713)" fill="#feea89"/>
        </g>
      </g>
    </g>
    <g id="Grupo_154427" data-name="Grupo 154427" transform="translate(736.908 8623)">
      <path id="Elipse_5729" data-name="Elipse 5729" d="M43,0A43,43,0,1,1,0,43,43,43,0,0,1,43,0Z" transform="translate(-0.324 -0.311)" fill="#302c9e"/>
      <g id="Grupo_1119166" data-name="Grupo 1119166" transform="translate(10.838)">
        <g id="Grupo_1204613" data-name="Grupo 1204613" transform="translate(6.171 16.202)">
          <g id="Grupo_1204612" data-name="Grupo 1204612" clip-path="url(#clip-path-2)">
            <path id="Trazado_1259271" data-name="Trazado 1259271" d="M80.232,114.283c-.357.286-.511,1.939-1.134,2.218a25.135,25.135,0,0,1-3.98.088.9.9,0,0,1-.383-.085c-.5-.239-.651-1.726-1.014-2.1-.4-.419-2.047-.628-2.558-1.178-.676.091-1.837,1-2.46.753a29.29,29.29,0,0,1-2.979-2.961c-.237-.786.592-1.658.715-2.435l-1.07-2.506c-.593-.581-2.087-.534-2.291-1.45a18.75,18.75,0,0,1,.08-4.062c.226-.469,1.675-.776,2.187-1.007l1.094-2.717c-.181-.824-1.1-1.77-.6-2.633a32.612,32.612,0,0,1,2.769-2.689c.769-.232,1.7.546,2.436.716l2.715-1.1c.338-.676.4-2.074,1.241-2.267a20.1,20.1,0,0,1,3.949.037c.9.278.784,1.744,1.241,2.189.1.1,2.453,1.117,2.594,1.13.674.062,1.459-.883,2.307-.741A18.757,18.757,0,0,1,88.237,94.6c.182.588-.74,1.591-.731,2.266,0,.138.949,2.453,1.032,2.564.39.518,2.09.486,2.251,1.334a28.945,28.945,0,0,1-.029,4.017c-.2.679-1.694.837-2.225,1.2-.1.887-1.14,2.216-.987,3s1.112,1.357.509,2.291a24.561,24.561,0,0,1-2.872,2.752c-.754.213-1.566-.726-2.264-.726-.143,0-2.576.895-2.688.984M78.145,90.57l-2.32.054c-.423.494-.474,1.6-1,1.959a15.4,15.4,0,0,1-1.641.541c-.633.282-1.7,1.04-2.3.91-.629-.135-1.278-.867-1.947-.523A10.447,10.447,0,0,0,67.6,95.02c.066.566.724,1.4.665,1.94a11.2,11.2,0,0,1-.932,2.009c-.2.466-.279,1.181-.481,1.545-.412.744-1.966.647-2.094,1.336a14.511,14.511,0,0,0,.021,2.083c.467.232,1.6.444,1.924.8a21.894,21.894,0,0,1,.988,2.6c.311.773.756.8.456,1.793-.116.387-.519.889-.561,1.177-.073.506,1.251,1.464,1.613,1.868,1.864-1.2,2.172-.567,3.824.117.5.205,1.378.352,1.76.578.537.318.819,1.962.983,2.006l2.373-.036c.53-2.137,1.2-1.939,2.909-2.624.421-.169,1.119-.685,1.44-.753.809-.17,1.993.785,2.227.68.4-.575,1.674-1.27,1.532-1.992-.1-.491-.724-1.111-.6-1.739.673-.923.914-2.567,1.419-3.426.374-.636,1.953-.881,2.014-1.136l-.024-2.371-1.925-.8c-.3-.589-.38-1.252-.631-1.863-.287-.7-.951-1.475-.824-2.223.059-.35.758-1.5.677-1.68l-1.6-1.535c-.4-.1-1.465.738-1.967.72a10.057,10.057,0,0,1-1.669-.813,18.322,18.322,0,0,1-2.081-.725c-.45-.318-.649-1.468-.9-1.987" transform="translate(-53.185 -74.948)" fill="#fff"/>
            <path id="Trazado_1259272" data-name="Trazado 1259272" d="M125.265.52a1.393,1.393,0,0,1,.2.811,51.375,51.375,0,0,1,0,7.341.886.886,0,0,1-.857.857c-3.3-.26-7.057.317-10.305,0-.581-.057-.773-.071-.855-.7a54.584,54.584,0,0,1,0-7.809c.093-.692.529-.8,1.169-.857a70.591,70.591,0,0,1,9.524,0,2.22,2.22,0,0,1,1.12.36m-1.518,1.363h-8.5l-.234.234v5.69h8.729Z" transform="translate(-95.648 0)" fill="#fff"/>
            <path id="Trazado_1259273" data-name="Trazado 1259273" d="M248.491,201.934c.885-.272,1.175.413,1.576,1.015,1.99,2.99,3.528,6.572,5.522,9.6.394.946-.171,1.291-1.042,1.369a83.378,83.378,0,0,1-11.239,0c-.991-.09-1.431-.508-1.04-1.524,2.17-3.007,3.684-7.141,5.825-10.073.117-.16.183-.319.4-.385m4.88,10.259L249,204.4l-4.519,7.794Z" transform="translate(-204.383 -170.404)" fill="#fff"/>
            <path id="Trazado_1259274" data-name="Trazado 1259274" d="M26.686,252.351c7.019-.141,8.457,10.2,1.6,11.887-8.717,2.143-10.306-11.712-1.6-11.887m0,1.715c-5.638.15-5.419,8.7.113,8.7,5.684,0,5.663-8.852-.113-8.7" transform="translate(-17.639 -213.013)" fill="#fff"/>
            <path id="Trazado_1259275" data-name="Trazado 1259275" d="M109.836,307.139c.928.076,2.475-.128,2.469,1.135-.184,1.212-2.168.507-2.936.426-.125.126.661.8.166,1.492-.456.636-.99.265-1.412-.169a16.146,16.146,0,0,1-1.872-2.814.944.944,0,0,1,.407-.829,30.126,30.126,0,0,1,3.27-1.259.979.979,0,0,1,.685.23c.67.992-.141,1.222-.777,1.788" transform="translate(-89.687 -257.557)" fill="#fff"/>
            <path id="Trazado_1259276" data-name="Trazado 1259276" d="M284.888,162.333c.635-.843,2.089-.972,1.867.378a15.6,15.6,0,0,1-2.339,2.971.823.823,0,0,1-.773,0,24.036,24.036,0,0,1-2.163-2.669c-.707-1.4.971-1.981,1.691-.68-.526-3.385,2.244-3.385,1.718,0" transform="translate(-237.458 -134.885)" fill="#fff"/>
            <path id="Trazado_1259277" data-name="Trazado 1259277" d="M65.515,39.462c-.2-.193-1.876,1.555-2.416.468-.562-1.134.982-1.582,1.636-2.106-1.591-.373-1.763-1.844.082-1.8a14.384,14.384,0,0,1,3.122.624.925.925,0,0,1,.322.946,29.241,29.241,0,0,1-1.408,3.126c-.823.913-1.915-.263-1.337-1.257" transform="translate(-53.161 -30.407)" fill="#fff"/>
            <path id="Trazado_1259278" data-name="Trazado 1259278" d="M209.387,295.321c1.024-.243,3.017-2.028,3.809-2.2a.849.849,0,0,1,1.02,1.176,13.986,13.986,0,0,1-3.971,2.432c-.912.173-1.372-.661-.857-1.41" transform="translate(-176.566 -247.408)" fill="#fff"/>
            <path id="Trazado_1259279" data-name="Trazado 1259279" d="M209.381,40.349c.592-.593,2.21.439,2.815.773.7.385,2.469,1.23,2.059,2.146-.689,1.539-3.6-1.4-4.653-1.578-.512-.174-.535-1.026-.221-1.341" transform="translate(-176.568 -33.907)" fill="#fff"/>
            <path id="Trazado_1259280" data-name="Trazado 1259280" d="M1.754,165.307c-.138.494-1.188.611-1.524-.034a14.033,14.033,0,0,1-.088-4.54c.263-.8,1.071-.829,1.613-.258Z" transform="translate(0 -135.131)" fill="#fff"/>
            <path id="Trazado_1259281" data-name="Trazado 1259281" d="M5.518,211.1A.959.959,0,0,1,7,211.485c.524,1.027.706,2.818,1.4,3.888-1.18,3.05-2.928-2.311-3.048-3.345a1.209,1.209,0,0,1,.16-.931" transform="translate(-4.505 -178)" fill="#fff"/>
            <path id="Trazado_1259282" data-name="Trazado 1259282" d="M251.42,69.246c.824-.828,2.281,1.15,2.764,1.759s1.842,1.989.871,2.576c-1.1.665-1.81-1.027-2.43-1.8s-1.893-1.353-1.205-2.538" transform="translate(-212.06 -58.284)" fill="#fff"/>
            <path id="Trazado_1259283" data-name="Trazado 1259283" d="M7.286,110.971a.88.88,0,0,1,1.231.911l-1.51,4.112a.9.9,0,0,1-1.481-.216c-.17-.545.547-2.5.8-3.119.167-.415.584-1.572.964-1.688" transform="translate(-4.643 -93.626)" fill="#fff"/>
            <path id="Trazado_1259284" data-name="Trazado 1259284" d="M30.3,69.08c.648-.178,1.368.548,1.02,1.18-.787.549-2.151,2.959-2.758,3.328-.937.571-1.639-.19-1.218-1.218A18.392,18.392,0,0,1,30.3,69.08" transform="translate(-22.974 -58.288)" fill="#fff"/>
            <path id="Trazado_1259285" data-name="Trazado 1259285" d="M280.461,111.186a.935.935,0,0,1,1.481.392c.392.679,1.455,3.627,1.256,4.293s-1.194.589-1.559-.093c-.132-.246-1.3-3.418-1.342-3.657a1.21,1.21,0,0,1,.164-.936" transform="translate(-236.581 -93.677)" fill="#fff"/>
            <path id="Trazado_1259286" data-name="Trazado 1259286" d="M164.291,315.094c.6-.063,1.025-.172,1.325.472.346.859-.8,1.156-1.411,1.312a15.444,15.444,0,0,1-3.615.432,1.039,1.039,0,0,1-.448-1.221l.326-.3c1.23-.151,2.623-.57,3.824-.7" transform="translate(-135.136 -265.935)" fill="#fff"/>
            <path id="Trazado_1259287" data-name="Trazado 1259287" d="M114.65,133.3c9.09-.486,9.92,13.235,1.041,13.982-9.434.793-10.381-13.482-1.041-13.982m4.184,3.283c-4.624-4.7-12.078,1.764-7.975,6.962,4.636,5.873,13.054-1.8,7.975-6.962" transform="translate(-91.258 -112.513)" fill="#fff"/>
          </g>
        </g>
      </g>
    </g>
  </g>
</svg>
