<svg xmlns="http://www.w3.org/2000/svg" xmlns:xlink="http://www.w3.org/1999/xlink" width="132" height="132" viewBox="0 0 132 132">
  <defs>
    <clipPath id="clip-path">
      <rect id="Rectángulo_455712" data-name="Rectángulo 455712" width="122.748" height="108.721" fill="none"/>
    </clipPath>
    <clipPath id="clip-path-2">
      <rect id="Rectángulo_455711" data-name="Rectángulo 455711" width="122.746" height="108.721" fill="none"/>
    </clipPath>
    <clipPath id="clip-path-3">
      <rect id="Rectángulo_455689" data-name="Rectángulo 455689" width="16.816" height="6.099" fill="none"/>
    </clipPath>
    <clipPath id="clip-path-4">
      <rect id="Rectángulo_455690" data-name="Rectángulo 455690" width="6.472" height="4.071" fill="none"/>
    </clipPath>
    <clipPath id="clip-path-5">
      <rect id="Rectángulo_455691" data-name="Rectángulo 455691" width="8.221" height="4.25" fill="none"/>
    </clipPath>
    <clipPath id="clip-path-6">
      <rect id="Rectángulo_455692" data-name="Rectángulo 455692" width="8.216" height="4.25" fill="none"/>
    </clipPath>
    <clipPath id="clip-path-7">
      <rect id="Rectángulo_455693" data-name="Rectángulo 455693" width="8.221" height="4.255" fill="none"/>
    </clipPath>
    <clipPath id="clip-path-8">
      <rect id="Rectángulo_455694" data-name="Rectángulo 455694" width="8.216" height="4.255" fill="none"/>
    </clipPath>
    <clipPath id="clip-path-13">
      <rect id="Rectángulo_455699" data-name="Rectángulo 455699" width="13.992" height="7.237" fill="none"/>
    </clipPath>
    <clipPath id="clip-path-17">
      <rect id="Rectángulo_455703" data-name="Rectángulo 455703" width="16.617" height="1.809" fill="none"/>
    </clipPath>
    <clipPath id="clip-path-18">
      <rect id="Rectángulo_455706" data-name="Rectángulo 455706" width="4.409" height="6.427" fill="none"/>
    </clipPath>
  </defs>
  <g id="Grupo_154331" data-name="Grupo 154331" transform="translate(-32.092 4.588)">
    <g id="Grupo_154332" data-name="Grupo 154332" transform="translate(0.008 0)">
      <path id="Trazado_196464" data-name="Trazado 196464" d="M81.071.472,80.582,0h2.269c-.517.445-1.231.147-1.779.472" transform="translate(-19.87 0)" fill="#25e0ac"/>
      <path id="Trazado_196465" data-name="Trazado 196465" d="M89.452,0,89.22.46C88.823.228,88.277.4,87.94,0Z" transform="translate(-21.684 0)" fill="#25e0ac"/>
      <circle id="Elipse_13698" data-name="Elipse 13698" cx="66" cy="66" r="66" transform="translate(32.084 -4.587)" fill="#5dd2e4"/>
      <g id="Grupo_1204676" data-name="Grupo 1204676" transform="translate(37.084 7.413)">
        <g id="Grupo_1204675" data-name="Grupo 1204675" clip-path="url(#clip-path)">
          <rect id="Rectángulo_455677" data-name="Rectángulo 455677" width="20.527" height="13.402" transform="translate(64.554 49.193)" fill="#3999b3"/>
          <rect id="Rectángulo_455678" data-name="Rectángulo 455678" width="20.527" height="3.639" transform="translate(64.554 58.955)" fill="#2d788c"/>
          <rect id="Rectángulo_455679" data-name="Rectángulo 455679" width="18.68" height="7.953" transform="translate(65.478 50.124)" fill="#c8e4eb"/>
          <rect id="Rectángulo_455680" data-name="Rectángulo 455680" width="18.68" height="0.636" transform="translate(65.476 58.996)" fill="#c8e4eb"/>
          <rect id="Rectángulo_455681" data-name="Rectángulo 455681" width="18.68" height="0.634" transform="translate(65.476 60.245)" fill="#c8e4eb"/>
          <rect id="Rectángulo_455682" data-name="Rectángulo 455682" width="18.68" height="0.636" transform="translate(65.476 61.484)" fill="#c8e4eb"/>
          <g id="Grupo_1204674" data-name="Grupo 1204674" transform="translate(0 -0.001)">
            <g id="Grupo_1204673" data-name="Grupo 1204673" clip-path="url(#clip-path-2)">
              <g id="Grupo_1204627" data-name="Grupo 1204627" transform="translate(66.406 51.048)" opacity="0.5">
                <g id="Grupo_1204626" data-name="Grupo 1204626">
                  <g id="Grupo_1204625" data-name="Grupo 1204625" clip-path="url(#clip-path-3)">
                    <rect id="Rectángulo_455683" data-name="Rectángulo 455683" width="4.219" height="1.242" transform="translate(12.596 0)" fill="#3999b3"/>
                    <rect id="Rectángulo_455684" data-name="Rectángulo 455684" width="4.219" height="1.242" transform="translate(12.596 2.431)" fill="#3999b3"/>
                    <rect id="Rectángulo_455685" data-name="Rectángulo 455685" width="4.219" height="1.242" transform="translate(12.596 4.856)" fill="#3999b3"/>
                    <rect id="Rectángulo_455686" data-name="Rectángulo 455686" width="4.225" height="1.242" transform="translate(0.001 0)" fill="#3999b3"/>
                    <rect id="Rectángulo_455687" data-name="Rectángulo 455687" width="4.225" height="1.242" transform="translate(0.001 2.431)" fill="#3999b3"/>
                    <rect id="Rectángulo_455688" data-name="Rectángulo 455688" width="4.225" height="1.242" transform="translate(0.001 4.856)" fill="#3999b3"/>
                  </g>
                </g>
              </g>
              <path id="Trazado_1259456" data-name="Trazado 1259456" d="M32.266,23.191c0-1.82-.8-3.285-1.784-3.285S28.7,21.372,28.7,23.191s.8,3.28,1.784,3.28,1.784-1.471,1.784-3.28" transform="translate(44.336 30.754)" fill="#3999b3"/>
              <g id="Grupo_1204630" data-name="Grupo 1204630" transform="translate(71.581 51.908)" opacity="0.5">
                <g id="Grupo_1204629" data-name="Grupo 1204629">
                  <g id="Grupo_1204628" data-name="Grupo 1204628" clip-path="url(#clip-path-4)">
                    <path id="Trazado_1259457" data-name="Trazado 1259457" d="M34.6,22.434c0-1.122-1.446-2.038-3.235-2.038s-3.237.916-3.237,2.038,1.446,2.033,3.237,2.033,3.235-.911,3.235-2.033" transform="translate(-28.127 -20.397)" fill="#3999b3"/>
                  </g>
                </g>
              </g>
              <path id="Trazado_1259458" data-name="Trazado 1259458" d="M39.429,25.876c0-.835-1.84-1.517-4.11-1.517s-4.11.682-4.11,1.517v1.219c0,.835,1.837,1.514,4.11,1.514s4.11-.679,4.11-1.514Z" transform="translate(48.215 37.633)" fill="#f2c849"/>
              <g id="Grupo_1204633" data-name="Grupo 1204633" transform="translate(79.424 61.993)" style="mix-blend-mode: multiply;isolation: isolate">
                <g id="Grupo_1204632" data-name="Grupo 1204632">
                  <g id="Grupo_1204631" data-name="Grupo 1204631" clip-path="url(#clip-path-5)">
                    <path id="Trazado_1259459" data-name="Trazado 1259459" d="M39.429,25.876c0-.835-1.84-1.517-4.11-1.517s-4.11.682-4.11,1.517v1.219c0,.835,1.837,1.514,4.11,1.514s4.11-.679,4.11-1.514Z" transform="translate(-31.209 -24.36)" fill="#f2c849"/>
                  </g>
                </g>
              </g>
              <path id="Trazado_1259460" data-name="Trazado 1259460" d="M39.429,25.876c0-.835-1.84-1.517-4.11-1.517s-4.11.682-4.11,1.517,1.837,1.522,4.11,1.522,4.11-.682,4.11-1.522" transform="translate(48.215 37.633)" fill="#f2c849"/>
              <path id="Trazado_1259461" data-name="Trazado 1259461" d="M35.072,24.517c-2.395,0-3.7.735-3.7,1.115s1.308,1.112,3.7,1.112,3.708-.735,3.708-1.112-1.313-1.115-3.708-1.115m0,1.825a5.792,5.792,0,0,1-3.235-.71,5.8,5.8,0,0,1,3.235-.707,5.8,5.8,0,0,1,3.235.707,5.791,5.791,0,0,1-3.235.71" transform="translate(48.463 37.878)" fill="#ffed29"/>
              <path id="Trazado_1259462" data-name="Trazado 1259462" d="M39.587,25.2c0-.84-1.84-1.517-4.11-1.517s-4.107.677-4.107,1.517v1.214c0,.84,1.84,1.519,4.107,1.519s4.11-.679,4.11-1.519Z" transform="translate(48.463 36.589)" fill="#f2c849"/>
              <g id="Grupo_1204636" data-name="Grupo 1204636" transform="translate(79.832 60.274)" style="mix-blend-mode: multiply;isolation: isolate">
                <g id="Grupo_1204635" data-name="Grupo 1204635">
                  <g id="Grupo_1204634" data-name="Grupo 1204634" clip-path="url(#clip-path-6)">
                    <path id="Trazado_1259463" data-name="Trazado 1259463" d="M39.587,25.2c0-.84-1.84-1.517-4.11-1.517s-4.107.677-4.107,1.517v1.214c0,.84,1.84,1.519,4.107,1.519s4.11-.679,4.11-1.519Z" transform="translate(-31.369 -23.685)" fill="#f2c849"/>
                  </g>
                </g>
              </g>
              <path id="Trazado_1259464" data-name="Trazado 1259464" d="M39.587,25.2c0-.84-1.84-1.517-4.11-1.517s-4.107.677-4.107,1.517,1.84,1.522,4.107,1.522,4.11-.682,4.11-1.522" transform="translate(48.463 36.589)" fill="#f2c849"/>
              <path id="Trazado_1259465" data-name="Trazado 1259465" d="M35.23,23.842c-2.39,0-3.7.735-3.7,1.115s1.313,1.112,3.7,1.112,3.708-.735,3.708-1.112-1.308-1.115-3.708-1.115m0,1.825A5.8,5.8,0,0,1,32,24.957a5.811,5.811,0,0,1,3.232-.707,5.785,5.785,0,0,1,3.235.707,5.776,5.776,0,0,1-3.235.71" transform="translate(48.707 36.835)" fill="#ffed29"/>
              <path id="Trazado_1259466" data-name="Trazado 1259466" d="M39.748,24.528c0-.84-1.84-1.522-4.11-1.522s-4.11.682-4.11,1.522v1.214c0,.84,1.837,1.519,4.11,1.519s4.11-.679,4.11-1.519Z" transform="translate(48.708 35.543)" fill="#f2c849"/>
              <g id="Grupo_1204639" data-name="Grupo 1204639" transform="translate(80.234 58.549)" style="mix-blend-mode: multiply;isolation: isolate">
                <g id="Grupo_1204638" data-name="Grupo 1204638">
                  <g id="Grupo_1204637" data-name="Grupo 1204637" clip-path="url(#clip-path-7)">
                    <path id="Trazado_1259467" data-name="Trazado 1259467" d="M39.748,24.528c0-.84-1.84-1.522-4.11-1.522s-4.11.682-4.11,1.522v1.214c0,.84,1.837,1.519,4.11,1.519s4.11-.679,4.11-1.519Z" transform="translate(-31.526 -23.006)" fill="#f2c849"/>
                  </g>
                </g>
              </g>
              <path id="Trazado_1259468" data-name="Trazado 1259468" d="M39.748,24.528c0-.84-1.84-1.522-4.11-1.522s-4.11.682-4.11,1.522,1.837,1.517,4.11,1.517,4.11-.677,4.11-1.517" transform="translate(48.708 35.543)" fill="#f2c849"/>
              <path id="Trazado_1259469" data-name="Trazado 1259469" d="M35.391,23.166c-2.395,0-3.7.735-3.7,1.115s1.308,1.112,3.7,1.112,3.7-.735,3.7-1.112-1.308-1.115-3.7-1.115m0,1.82a5.852,5.852,0,0,1-3.237-.7,5.8,5.8,0,0,1,3.237-.713,5.783,5.783,0,0,1,3.235.713,5.832,5.832,0,0,1-3.235.7" transform="translate(48.955 35.79)" fill="#ffed29"/>
              <path id="Trazado_1259470" data-name="Trazado 1259470" d="M39.587,23.852c0-.84-1.84-1.522-4.11-1.522s-4.107.682-4.107,1.522v1.214c0,.84,1.84,1.519,4.107,1.519s4.11-.679,4.11-1.519Z" transform="translate(48.463 34.499)" fill="#f2c849"/>
              <g id="Grupo_1204642" data-name="Grupo 1204642" transform="translate(79.832 56.829)" style="mix-blend-mode: multiply;isolation: isolate">
                <g id="Grupo_1204641" data-name="Grupo 1204641">
                  <g id="Grupo_1204640" data-name="Grupo 1204640" clip-path="url(#clip-path-8)">
                    <path id="Trazado_1259471" data-name="Trazado 1259471" d="M39.587,23.852c0-.84-1.84-1.522-4.11-1.522s-4.107.682-4.107,1.522v1.214c0,.84,1.84,1.519,4.107,1.519s4.11-.679,4.11-1.519Z" transform="translate(-31.369 -22.33)" fill="#f2c849"/>
                  </g>
                </g>
              </g>
              <path id="Trazado_1259472" data-name="Trazado 1259472" d="M39.587,23.852c0-.84-1.84-1.522-4.11-1.522s-4.107.682-4.107,1.522,1.84,1.517,4.107,1.517,4.11-.682,4.11-1.517" transform="translate(48.463 34.499)" fill="#f2c849"/>
              <path id="Trazado_1259473" data-name="Trazado 1259473" d="M35.23,22.49c-2.39,0-3.7.735-3.7,1.115s1.313,1.112,3.7,1.112,3.708-.735,3.708-1.112S37.63,22.49,35.23,22.49m0,1.82A5.844,5.844,0,0,1,32,23.6a5.794,5.794,0,0,1,3.232-.713,5.768,5.768,0,0,1,3.235.713,5.817,5.817,0,0,1-3.235.7" transform="translate(48.707 34.746)" fill="#ffed29"/>
              <path id="Trazado_1259474" data-name="Trazado 1259474" d="M39.111,23.176c0-.84-1.84-1.522-4.11-1.522s-4.11.682-4.11,1.522V24.39c0,.84,1.843,1.514,4.11,1.514s4.11-.674,4.11-1.514Z" transform="translate(47.724 33.454)" fill="#f2c849"/>
              <g id="Grupo_1204645" data-name="Grupo 1204645" transform="translate(78.614 55.109)" style="mix-blend-mode: multiply;isolation: isolate">
                <g id="Grupo_1204644" data-name="Grupo 1204644">
                  <g id="Grupo_1204643" data-name="Grupo 1204643" clip-path="url(#clip-path-5)">
                    <path id="Trazado_1259475" data-name="Trazado 1259475" d="M39.111,23.176c0-.84-1.84-1.522-4.11-1.522s-4.11.682-4.11,1.522V24.39c0,.84,1.843,1.514,4.11,1.514s4.11-.674,4.11-1.514Z" transform="translate(-30.89 -21.655)" fill="#f2c849"/>
                  </g>
                </g>
              </g>
              <path id="Trazado_1259476" data-name="Trazado 1259476" d="M39.111,23.176c0-.84-1.84-1.522-4.11-1.522s-4.11.682-4.11,1.522,1.843,1.517,4.11,1.517,4.11-.682,4.11-1.517" transform="translate(47.724 33.454)" fill="#f2c849"/>
              <path id="Trazado_1259477" data-name="Trazado 1259477" d="M34.754,21.814c-2.395,0-3.7.73-3.7,1.115s1.308,1.112,3.7,1.112,3.708-.735,3.708-1.112-1.308-1.115-3.708-1.115m0,1.82a5.828,5.828,0,0,1-3.232-.7,5.732,5.732,0,0,1,3.232-.713,5.737,5.737,0,0,1,3.235.713,5.832,5.832,0,0,1-3.235.7" transform="translate(47.971 33.702)" fill="#ffed29"/>
              <path id="Trazado_1259478" data-name="Trazado 1259478" d="M39.748,22.495c0-.835-1.84-1.517-4.11-1.517s-4.11.682-4.11,1.517v1.219c0,.835,1.837,1.514,4.11,1.514s4.11-.679,4.11-1.514Z" transform="translate(48.708 32.41)" fill="#f2c849"/>
              <g id="Grupo_1204648" data-name="Grupo 1204648" transform="translate(80.234 53.389)" style="mix-blend-mode: multiply;isolation: isolate">
                <g id="Grupo_1204647" data-name="Grupo 1204647">
                  <g id="Grupo_1204646" data-name="Grupo 1204646" clip-path="url(#clip-path-5)">
                    <path id="Trazado_1259479" data-name="Trazado 1259479" d="M39.748,22.495c0-.835-1.84-1.517-4.11-1.517s-4.11.682-4.11,1.517v1.219c0,.835,1.837,1.514,4.11,1.514s4.11-.679,4.11-1.514Z" transform="translate(-31.526 -20.979)" fill="#f2c849"/>
                  </g>
                </g>
              </g>
              <path id="Trazado_1259480" data-name="Trazado 1259480" d="M39.748,22.495c0-.835-1.84-1.517-4.11-1.517s-4.11.682-4.11,1.517,1.837,1.522,4.11,1.522,4.11-.682,4.11-1.522" transform="translate(48.708 32.41)" fill="#f2c849"/>
              <path id="Trazado_1259481" data-name="Trazado 1259481" d="M35.391,21.137c-2.395,0-3.7.735-3.7,1.115s1.308,1.112,3.7,1.112,3.7-.735,3.7-1.112-1.308-1.115-3.7-1.115m0,1.825a5.788,5.788,0,0,1-3.237-.71,5.82,5.82,0,0,1,3.237-.707,5.8,5.8,0,0,1,3.235.707,5.768,5.768,0,0,1-3.235.71" transform="translate(48.955 32.656)" fill="#ffed29"/>
              <path id="Trazado_1259482" data-name="Trazado 1259482" d="M35.243,25.737c0-.84-1.84-1.517-4.11-1.517s-4.108.677-4.108,1.517v1.214c0,.84,1.84,1.519,4.108,1.519s4.11-.679,4.11-1.519Z" transform="translate(41.751 37.419)" fill="#f2c849"/>
              <g id="Grupo_1204651" data-name="Grupo 1204651" transform="translate(68.777 61.64)" style="mix-blend-mode: multiply;isolation: isolate">
                <g id="Grupo_1204650" data-name="Grupo 1204650">
                  <g id="Grupo_1204649" data-name="Grupo 1204649" clip-path="url(#clip-path-6)">
                    <path id="Trazado_1259483" data-name="Trazado 1259483" d="M35.243,25.737c0-.84-1.84-1.517-4.11-1.517s-4.108.677-4.108,1.517v1.214c0,.84,1.84,1.519,4.108,1.519s4.11-.679,4.11-1.519Z" transform="translate(-27.026 -24.222)" fill="#f2c849"/>
                  </g>
                </g>
              </g>
              <path id="Trazado_1259484" data-name="Trazado 1259484" d="M35.243,25.737c0-.84-1.84-1.517-4.11-1.517s-4.108.677-4.108,1.517,1.84,1.517,4.108,1.517,4.11-.677,4.11-1.517" transform="translate(41.751 37.419)" fill="#f2c849"/>
              <path id="Trazado_1259485" data-name="Trazado 1259485" d="M30.887,24.379c-2.395,0-3.7.735-3.7,1.115s1.308,1.112,3.7,1.112,3.708-.735,3.708-1.112-1.308-1.115-3.708-1.115m0,1.825a5.8,5.8,0,0,1-3.232-.71,5.811,5.811,0,0,1,3.232-.707,5.8,5.8,0,0,1,3.235.707,5.792,5.792,0,0,1-3.235.71" transform="translate(41.997 37.664)" fill="#ffed29"/>
              <path id="Trazado_1259486" data-name="Trazado 1259486" d="M35.881,25.065c0-.84-1.84-1.522-4.11-1.522s-4.11.682-4.11,1.522v1.214c0,.84,1.843,1.519,4.11,1.519s4.11-.679,4.11-1.519Z" transform="translate(42.734 36.373)" fill="#f2c849"/>
              <g id="Grupo_1204654" data-name="Grupo 1204654" transform="translate(70.393 59.916)" style="mix-blend-mode: multiply;isolation: isolate">
                <g id="Grupo_1204653" data-name="Grupo 1204653">
                  <g id="Grupo_1204652" data-name="Grupo 1204652" clip-path="url(#clip-path-7)">
                    <path id="Trazado_1259487" data-name="Trazado 1259487" d="M35.881,25.065c0-.84-1.84-1.522-4.11-1.522s-4.11.682-4.11,1.522v1.214c0,.84,1.843,1.519,4.11,1.519s4.11-.679,4.11-1.519Z" transform="translate(-27.659 -23.543)" fill="#f2c849"/>
                  </g>
                </g>
              </g>
              <path id="Trazado_1259488" data-name="Trazado 1259488" d="M35.881,25.065c0-.84-1.84-1.522-4.11-1.522s-4.11.682-4.11,1.522,1.843,1.517,4.11,1.517,4.11-.677,4.11-1.517" transform="translate(42.734 36.373)" fill="#f2c849"/>
              <path id="Trazado_1259489" data-name="Trazado 1259489" d="M31.523,23.7c-2.395,0-3.7.735-3.7,1.115s1.308,1.112,3.7,1.112,3.708-.735,3.708-1.112S33.923,23.7,31.523,23.7m0,1.82a5.828,5.828,0,0,1-3.232-.7,5.732,5.732,0,0,1,3.232-.713,5.722,5.722,0,0,1,3.235.713,5.817,5.817,0,0,1-3.235.7" transform="translate(42.98 36.62)" fill="#ffed29"/>
              <path id="Trazado_1259490" data-name="Trazado 1259490" d="M1.242,35.31c0-1.428,3.13-2.586,7-2.586s6.993,1.158,6.993,2.586v2.066c0,1.428-3.13,2.586-6.993,2.586s-7-1.158-7-2.586Z" transform="translate(1.919 50.557)" fill="#f2c849"/>
              <g id="Grupo_1204657" data-name="Grupo 1204657" transform="translate(3.161 83.282)" style="mix-blend-mode: multiply;isolation: isolate">
                <g id="Grupo_1204656" data-name="Grupo 1204656">
                  <g id="Grupo_1204655" data-name="Grupo 1204655" clip-path="url(#clip-path-13)">
                    <path id="Trazado_1259491" data-name="Trazado 1259491" d="M1.242,35.31c0-1.428,3.13-2.586,7-2.586s6.993,1.158,6.993,2.586v2.066c0,1.428-3.13,2.586-6.993,2.586s-7-1.158-7-2.586Z" transform="translate(-1.243 -32.726)" fill="#f2c849"/>
                  </g>
                </g>
              </g>
              <path id="Trazado_1259492" data-name="Trazado 1259492" d="M1.242,35.31c0-1.428,3.13-2.586,7-2.586s6.993,1.158,6.993,2.586S12.1,37.9,8.241,37.9s-7-1.158-7-2.586" transform="translate(1.919 50.557)" fill="#f2c849"/>
              <path id="Trazado_1259493" data-name="Trazado 1259493" d="M1.514,34.889c0,.641,2.227,1.893,6.306,1.893s6.309-1.252,6.309-1.893S11.9,33,7.82,33s-6.306,1.252-6.306,1.893m.8,0c.512-.4,2.28-1.209,5.507-1.209s5,.812,5.5,1.209c-.506.4-2.28,1.209-5.5,1.209s-5-.807-5.507-1.209" transform="translate(2.339 50.977)" fill="#ffed29"/>
              <path id="Trazado_1259494" data-name="Trazado 1259494" d="M14.143,32.394c0-1.428,3.13-2.586,6.993-2.586s7,1.158,7,2.586V34.46c0,1.428-3.13,2.586-7,2.586s-6.993-1.158-6.993-2.586Z" transform="translate(21.85 46.052)" fill="#f2c849"/>
              <g id="Grupo_1204660" data-name="Grupo 1204660" transform="translate(35.992 75.861)" style="mix-blend-mode: multiply;isolation: isolate">
                <g id="Grupo_1204659" data-name="Grupo 1204659">
                  <g id="Grupo_1204658" data-name="Grupo 1204658" clip-path="url(#clip-path-13)">
                    <path id="Trazado_1259495" data-name="Trazado 1259495" d="M14.143,32.394c0-1.428,3.13-2.586,6.993-2.586s7,1.158,7,2.586V34.46c0,1.428-3.13,2.586-7,2.586s-6.993-1.158-6.993-2.586Z" transform="translate(-14.142 -29.81)" fill="#f2c849"/>
                  </g>
                </g>
              </g>
              <path id="Trazado_1259496" data-name="Trazado 1259496" d="M14.143,32.394c0-1.428,3.13-2.586,6.993-2.586s7,1.158,7,2.586-3.13,2.586-7,2.586-6.993-1.158-6.993-2.586" transform="translate(21.85 46.052)" fill="#f2c849"/>
              <path id="Trazado_1259497" data-name="Trazado 1259497" d="M14.415,31.973c0,.646,2.222,1.893,6.3,1.893s6.309-1.247,6.309-1.893S24.8,30.08,20.714,30.08s-6.3,1.252-6.3,1.893m.8,0c.5-.4,2.28-1.2,5.5-1.2s5,.807,5.51,1.2c-.509.4-2.283,1.209-5.51,1.209s-5-.807-5.5-1.209" transform="translate(22.27 46.472)" fill="#ffed29"/>
              <path id="Trazado_1259498" data-name="Trazado 1259498" d="M14.955,31.244c0-1.428,3.13-2.586,6.993-2.586s7,1.158,7,2.586V33.31c0,1.428-3.13,2.586-7,2.586s-6.993-1.158-6.993-2.586Z" transform="translate(23.104 44.275)" fill="#f2c849"/>
              <g id="Grupo_1204663" data-name="Grupo 1204663" transform="translate(38.06 72.934)" style="mix-blend-mode: multiply;isolation: isolate">
                <g id="Grupo_1204662" data-name="Grupo 1204662">
                  <g id="Grupo_1204661" data-name="Grupo 1204661" clip-path="url(#clip-path-13)">
                    <path id="Trazado_1259499" data-name="Trazado 1259499" d="M14.955,31.244c0-1.428,3.13-2.586,6.993-2.586s7,1.158,7,2.586V33.31c0,1.428-3.13,2.586-7,2.586s-6.993-1.158-6.993-2.586Z" transform="translate(-14.955 -28.659)" fill="#f2c849"/>
                  </g>
                </g>
              </g>
              <path id="Trazado_1259500" data-name="Trazado 1259500" d="M14.955,31.244c0-1.428,3.13-2.586,6.993-2.586s7,1.158,7,2.586-3.13,2.586-7,2.586-6.993-1.158-6.993-2.586" transform="translate(23.104 44.275)" fill="#f2c849"/>
              <path id="Trazado_1259501" data-name="Trazado 1259501" d="M15.227,30.823c0,.641,2.222,1.893,6.3,1.893s6.309-1.252,6.309-1.893S25.61,28.93,21.528,28.93s-6.3,1.252-6.3,1.893m.8,0c.506-.4,2.28-1.209,5.5-1.209s5,.812,5.507,1.209c-.506.4-2.28,1.209-5.507,1.209s-5-.807-5.5-1.209" transform="translate(23.524 44.695)" fill="#ffed29"/>
              <path id="Trazado_1259502" data-name="Trazado 1259502" d="M13.871,30.093c0-1.428,3.135-2.586,7-2.586s6.993,1.158,6.993,2.586v2.066c0,1.428-3.13,2.586-6.993,2.586s-7-1.158-7-2.586Z" transform="translate(21.43 42.497)" fill="#f2c849"/>
              <g id="Grupo_1204666" data-name="Grupo 1204666" transform="translate(35.301 70.006)" style="mix-blend-mode: multiply;isolation: isolate">
                <g id="Grupo_1204665" data-name="Grupo 1204665">
                  <g id="Grupo_1204664" data-name="Grupo 1204664" clip-path="url(#clip-path-13)">
                    <path id="Trazado_1259503" data-name="Trazado 1259503" d="M13.871,30.093c0-1.428,3.135-2.586,7-2.586s6.993,1.158,6.993,2.586v2.066c0,1.428-3.13,2.586-6.993,2.586s-7-1.158-7-2.586Z" transform="translate(-13.871 -27.509)" fill="#f2c849"/>
                  </g>
                </g>
              </g>
              <path id="Trazado_1259504" data-name="Trazado 1259504" d="M13.871,30.093c0-1.428,3.135-2.586,7-2.586s6.993,1.158,6.993,2.586-3.13,2.586-6.993,2.586-7-1.158-7-2.586" transform="translate(21.43 42.497)" fill="#f2c849"/>
              <path id="Trazado_1259505" data-name="Trazado 1259505" d="M14.143,29.672c0,.641,2.227,1.893,6.306,1.893s6.3-1.252,6.3-1.893-2.227-1.893-6.3-1.893-6.306,1.247-6.306,1.893m.8,0c.512-.4,2.285-1.209,5.507-1.209s5,.812,5.507,1.209c-.512.4-2.285,1.209-5.507,1.209s-5-.812-5.507-1.209" transform="translate(21.85 42.917)" fill="#ffed29"/>
              <path id="Trazado_1259506" data-name="Trazado 1259506" d="M51.1,1.109C43.693,1.109,37.69,2.6,37.69,6.14s6,7.818,13.414,7.818S64.519,9.688,64.519,6.14,58.51,1.109,51.1,1.109m0,11.457c-6.482,0-11.358-3.9-11.358-6.426C39.746,3.967,44.309,2.5,51.1,2.5S62.462,3.967,62.462,6.14c0,2.53-4.876,6.426-11.358,6.426" transform="translate(58.228 1.714)" fill="#f2c849"/>
              <path id="Trazado_1259507" data-name="Trazado 1259507" d="M42.991,6.723h4.616a21.238,21.238,0,0,0,1.552,8.042H41.446a21.287,21.287,0,0,0,1.545-8.042" transform="translate(64.031 10.387)" fill="#f2c849"/>
              <path id="Trazado_1259508" data-name="Trazado 1259508" d="M43.679,6.723h2.873a21.287,21.287,0,0,0,1.55,8.042H42.129a21.287,21.287,0,0,0,1.55-8.042" transform="translate(65.086 10.387)" fill="#ffed29"/>
              <path id="Trazado_1259509" data-name="Trazado 1259509" d="M57.476,1.331H57.45C57.183.59,53.261,0,48.444,0S39.7.59,39.437,1.331h-.025V1.41c0,10.055,4.041,18.2,9.032,18.2s9.032-8.149,9.032-18.2Z" transform="translate(60.888 0.001)" fill="#f2c849"/>
              <path id="Trazado_1259510" data-name="Trazado 1259510" d="M55.7,1.25h-.025C55.451.624,52.166.133,48.13.133S40.8.624,40.586,1.25h-.025v.064c0,8.426,3.39,15.257,7.569,15.257S55.7,9.74,55.7,1.314Z" transform="translate(62.663 0.206)" fill="#ffed29"/>
              <path id="Trazado_1259511" data-name="Trazado 1259511" d="M57.476,1.412C57.476.631,53.429,0,48.444,0s-9.032.631-9.032,1.412,4.041,1.412,9.032,1.412,9.032-.631,9.032-1.412" transform="translate(60.888 0.001)" fill="#ffed29"/>
              <path id="Trazado_1259512" data-name="Trazado 1259512" d="M48.007,2.008c-4.736,0-7.556-.542-8.312-.9C40.451.741,43.271.2,48.007.2s7.551.542,8.307.906c-.756.361-3.576.9-8.307.9" transform="translate(61.326 0.308)" fill="#f2c849"/>
              <g id="Grupo_1204669" data-name="Grupo 1204669" transform="translate(101.021 0.508)" style="mix-blend-mode: multiply;isolation: isolate">
                <g id="Grupo_1204668" data-name="Grupo 1204668">
                  <g id="Grupo_1204667" data-name="Grupo 1204667" clip-path="url(#clip-path-17)">
                    <path id="Trazado_1259513" data-name="Trazado 1259513" d="M48.007,2.008c-4.736,0-7.556-.542-8.312-.9C40.451.741,43.271.2,48.007.2s7.551.542,8.307.906c-.756.361-3.576.9-8.307.9" transform="translate(-39.696 -0.2)" fill="#f2c849"/>
                  </g>
                </g>
              </g>
              <path id="Trazado_1259514" data-name="Trazado 1259514" d="M47.186,4.484c.2-1.55-.206-2.868-.893-2.932s-1.4,1.143-1.6,2.693.206,2.868.891,2.934,1.4-1.14,1.6-2.7" transform="translate(68.977 2.395)" fill="#fff"/>
              <rect id="Rectángulo_455704" data-name="Rectángulo 455704" width="12.6" height="10.309" transform="translate(103.031 24.51)" fill="#f2c849"/>
              <rect id="Rectángulo_455705" data-name="Rectángulo 455705" width="10.279" height="7.983" transform="translate(104.192 25.673)" fill="#ffed29"/>
              <path id="Trazado_1259515" data-name="Trazado 1259515" d="M42.094,11.444c.84-.074,1.122-.344,1.194-1.049H45.4v5.131h1.1v1.3H42.153v-1.3h1.115V12.607H42.094Z" transform="translate(65.032 16.06)" fill="#d85354"/>
              <g id="Grupo_1204672" data-name="Grupo 1204672" transform="translate(107.125 26.454)" style="mix-blend-mode: multiply;isolation: isolate">
                <g id="Grupo_1204671" data-name="Grupo 1204671">
                  <g id="Grupo_1204670" data-name="Grupo 1204670" clip-path="url(#clip-path-18)">
                    <path id="Trazado_1259516" data-name="Trazado 1259516" d="M42.094,11.444c.84-.074,1.122-.344,1.194-1.049H45.4v5.131h1.1v1.3H42.153v-1.3h1.115V12.607H42.094Z" transform="translate(-42.093 -10.394)" fill="#d85354"/>
                  </g>
                </g>
              </g>
              <rect id="Rectángulo_455707" data-name="Rectángulo 455707" width="21.69" height="17.048" transform="translate(0 91.673)" fill="#d85354"/>
              <rect id="Rectángulo_455708" data-name="Rectángulo 455708" width="21.69" height="24.574" transform="translate(32.832 84.148)" fill="#d85354"/>
              <rect id="Rectángulo_455709" data-name="Rectángulo 455709" width="21.69" height="41.698" transform="translate(65.656 67.023)" fill="#d85354"/>
              <rect id="Rectángulo_455710" data-name="Rectángulo 455710" width="21.69" height="71.525" transform="translate(98.488 37.197)" fill="#d85354"/>
              <path id="Trazado_1259517" data-name="Trazado 1259517" d="M26.189,67.627A143.337,143.337,0,0,1,5.178,66.1a1.986,1.986,0,0,1,.145-3.945c38.3-2.8,63.89-11.2,82.56-27.154l-2.26-2.456a1.987,1.987,0,0,1,.957-3.265L108.962,23.4a1.938,1.938,0,0,1,.509-.064,1.983,1.983,0,0,1,1.868,2.649l-7.744,21.8a1.976,1.976,0,0,1-1.476,1.278,1.8,1.8,0,0,1-.4.041,1.987,1.987,0,0,1-1.463-.641l-2.336-2.54c-16.427,13.613-43.045,21.7-71.734,21.7" transform="translate(5.378 36.059)" fill="#fff"/>
              <path id="Trazado_1259518" data-name="Trazado 1259518" d="M4.262,62.934c41.836-3.062,66.949-12.6,85.26-28.984L85.883,30l22.383-5.876-7.749,21.8-3.632-3.95c-21.3,18.807-59.793,25.841-92.622,20.96" transform="translate(6.584 37.263)" fill="#ffed29"/>
              <path id="Trazado_1259519" data-name="Trazado 1259519" d="M13.07,60.7c28.238-4.38,48.511-13,64.165-27.009l1.5-1.344-2.769-3.011,15.557-4.087-5.388,15.16-2.718-2.957-1.458,1.293C66.7,52.224,41.039,60.381,13.07,60.7" transform="translate(20.192 39.007)" fill="#fea929"/>
            </g>
          </g>
        </g>
      </g>
    </g>
  </g>
</svg>
