<svg xmlns="http://www.w3.org/2000/svg" xmlns:xlink="http://www.w3.org/1999/xlink" width="96" height="96" viewBox="0 0 96 96">
  <defs>
    <clipPath id="clip-path">
      <rect id="Rectángulo_454682" data-name="Rectángulo 454682" width="96" height="96" fill="#feea89"/>
    </clipPath>
    <clipPath id="clip-path-2">
      <rect id="Rectángulo_455279" data-name="Rectángulo 455279" width="58" height="58" transform="translate(4.711 14.267)" fill="#fff" stroke="#707070" stroke-width="1"/>
    </clipPath>
    <clipPath id="clip-path-3">
      <rect id="Rectángulo_455837" data-name="Rectángulo 455837" width="51.234" height="51.294" fill="#fff"/>
    </clipPath>
  </defs>
  <g id="Grupo_1204769" data-name="Grupo 1204769" transform="translate(-731.746 -8618)">
    <g id="Grupo_1203592" data-name="Grupo 1203592" transform="translate(731.746 8618)">
      <g id="Grupo_1203487" data-name="Grupo 1203487">
        <g id="Grupo_1203486" data-name="Grupo 1203486" clip-path="url(#clip-path)">
          <path id="Trazado_1256437" data-name="Trazado 1256437" d="M2.058,84.327a47.583,47.583,0,0,0,1.836,6.227L23,71.45a25.883,25.883,0,0,1,4.958-13.021Z" transform="translate(-0.911 -25.866)" fill="#feea89"/>
          <path id="Trazado_1256438" data-name="Trazado 1256438" d="M90.555,3.894a47.583,47.583,0,0,0-6.227-1.836l-25.9,25.9A25.886,25.886,0,0,1,71.451,23Z" transform="translate(-25.866 -0.911)" fill="#feea89"/>
          <path id="Trazado_1256439" data-name="Trazado 1256439" d="M117.575,12.855a48.029,48.029,0,0,0-5.022-3.041L95.523,26.843a25.831,25.831,0,0,1,6.031,2.032Z" transform="translate(-42.287 -4.345)" fill="#feea89"/>
          <path id="Trazado_1256440" data-name="Trazado 1256440" d="M9.814,112.552a47.933,47.933,0,0,0,3.041,5.022l16.021-16.021a25.831,25.831,0,0,1-2.032-6.031Z" transform="translate(-4.345 -42.287)" fill="#feea89"/>
          <path id="Trazado_1256441" data-name="Trazado 1256441" d="M4.273,34.929,34.929,4.273A48.116,48.116,0,0,0,4.273,34.929" transform="translate(-1.892 -1.892)" fill="#feea89"/>
          <path id="Trazado_1256442" data-name="Trazado 1256442" d="M48,0q-2.406,0-4.752.234L.234,43.248Q0,45.593,0,48q0,1.726.123,3.422l51.3-51.3C50.292.043,49.151,0,48,0" transform="translate(0 0)" fill="#feea89"/>
          <path id="Trazado_1256443" data-name="Trazado 1256443" d="M143.483,112.406l-31.076,31.076a48.112,48.112,0,0,0,31.076-31.076" transform="translate(-49.761 -49.761)" fill="#feea89"/>
          <path id="Trazado_1256444" data-name="Trazado 1256444" d="M131.113,79.625,79.625,131.113q1.795.134,3.624.135c1.524,0,3.03-.074,4.517-.213l43.27-43.27c.139-1.487.213-2.993.213-4.516q0-1.829-.135-3.624" transform="translate(-35.249 -35.249)" fill="#feea89"/>
          <path id="Trazado_1256445" data-name="Trazado 1256445" d="M119.266,41.241l15.585-15.585a48.285,48.285,0,0,0-4.038-4.025L115.222,37.222a26.166,26.166,0,0,1,4.044,4.019" transform="translate(-51.007 -9.575)" fill="#feea89"/>
          <path id="Trazado_1256446" data-name="Trazado 1256446" d="M37.222,115.222,21.63,130.814a48.369,48.369,0,0,0,4.025,4.038l15.585-15.585a26.166,26.166,0,0,1-4.019-4.044" transform="translate(-9.575 -51.007)" fill="#feea89"/>
          <path id="Trazado_1256447" data-name="Trazado 1256447" d="M74.932,129.121,55.9,148.149a47.687,47.687,0,0,0,6.207,1.857l25.333-25.333a25.88,25.88,0,0,1-12.512,4.448" transform="translate(-24.748 -55.191)" fill="#feea89"/>
          <path id="Trazado_1256448" data-name="Trazado 1256448" d="M150.006,62.11a47.591,47.591,0,0,0-1.857-6.206L129.121,74.931a25.87,25.87,0,0,1-4.448,12.512Z" transform="translate(-55.191 -24.748)" fill="#feea89"/>
          <path id="Trazado_1256449" data-name="Trazado 1256449" d="M147.17,41.946a48.074,48.074,0,0,0-3.054-5.009l-16,16a25.825,25.825,0,0,1,2.064,6Z" transform="translate(-56.713 -16.352)" fill="#feea89"/>
          <path id="Trazado_1256450" data-name="Trazado 1256450" d="M36.937,144.115a47.933,47.933,0,0,0,5.009,3.055l16.995-17a25.812,25.812,0,0,1-6-2.064Z" transform="translate(-16.352 -56.713)" fill="#feea89"/>
        </g>
      </g>
    </g>
    <g id="Grupo_154427" data-name="Grupo 154427" transform="translate(736.746 8623)">
      <path id="Elipse_5729" data-name="Elipse 5729" d="M43,0A43,43,0,1,1,0,43,43,43,0,0,1,43,0Z" transform="translate(-0.162 0)" fill="#302c9e"/>
      <g id="Enmascarar_grupo_1119166" data-name="Enmascarar grupo 1119166" transform="translate(10)" clip-path="url(#clip-path-2)">
        <g id="Grupo_1204771" data-name="Grupo 1204771" transform="translate(7.711 17.266)">
          <g id="Grupo_1204770" data-name="Grupo 1204770" clip-path="url(#clip-path-3)">
            <path id="Trazado_1259839" data-name="Trazado 1259839" d="M35.86,5.151h3.159c.7,0,1.9,1.251,1.974,1.993l.028,18.633c.024.136.127.158.229.211.43.225,1.683.456,2.349.737,12.171,5.144,9.053,23.552-4.142,24.562l-32.031,0A2.9,2.9,0,0,1,5.15,49.306V46.146H1.991A2.9,2.9,0,0,1,.006,43.869L0,9.625l.234-.795L8.673.372,9.222.039,33.583.007c.744-.124,2.277,1.224,2.277,1.837ZM27.044,44.383a12.987,12.987,0,0,1,5.434-17.268c.472-.256,1.678-.544,1.767-1.025L34.107,2.275c-.037-.133-.293-.5-.378-.5H10.293V8.163a3.108,3.108,0,0,1-2.131,2.131H1.77V44.016a2.453,2.453,0,0,0,.367.367ZM3.093,8.53H8.015a3.445,3.445,0,0,0,.514-.514V3.093ZM35.86,25.869c.978-.283,2.261.017,3.159-.147a.475.475,0,0,0,.367-.22V7.722a1.324,1.324,0,0,0-.955-.955H36.08l-.22.22Zm1.734,1.513a11.132,11.132,0,1,0,9.429,18.245,11.122,11.122,0,0,0-9.429-18.245M28.146,46.146H6.986l-.22.22v2.351c0,.117.4.808.514.808H31.893l-2.059-1.541Z" transform="translate(0 0.001)" fill="#fff"/>
            <path id="Trazado_1259840" data-name="Trazado 1259840" d="M60.357,99.194c.262.263.3,1.163-.111,1.362l-24.621.081c-.983-.115-.831-1.58.148-1.632l23.818,0c.228.019.605.025.767.188" transform="translate(-29.822 -84.457)" fill="#fff"/>
            <path id="Trazado_1259841" data-name="Trazado 1259841" d="M35.57,215.072l17.163-.034a.887.887,0,1,1,0,1.769h-16.9a.878.878,0,0,1-.259-1.735" transform="translate(-29.728 -183.441)" fill="#fff"/>
            <path id="Trazado_1259842" data-name="Trazado 1259842" d="M35.393,128.269l16.055.046a.9.9,0,0,1-.508,1.69c-4.785-.371-10.292.485-14.991,0-1.166-.121-1.575-1.059-.557-1.732" transform="translate(-29.698 -109.421)" fill="#fff"/>
            <path id="Trazado_1259843" data-name="Trazado 1259843" d="M93.6,157.271l15.908.045a.9.9,0,0,1-.508,1.69c-4.786-.37-10.292.484-14.991,0-1.26-.131-1.555-1.2-.41-1.731" transform="translate(-79.239 -134.162)" fill="#fff"/>
            <path id="Trazado_1259844" data-name="Trazado 1259844" d="M81.739,185.542a1.317,1.317,0,0,1,.764-.191c4.27-.366,9.055.289,13.381,0,1.328.084,1.252,1.665,0,1.769l-13.528,0a.941.941,0,0,1-.616-1.586" transform="translate(-69.498 -158.018)" fill="#fff"/>
            <path id="Trazado_1259845" data-name="Trazado 1259845" d="M35.714,243.646a35.856,35.856,0,0,1,5.25-.023.887.887,0,0,1,.152,1.751,41.572,41.572,0,0,1-5.429,0,.888.888,0,0,1,.028-1.728" transform="translate(-29.871 -207.753)" fill="#fff"/>
            <path id="Trazado_1259846" data-name="Trazado 1259846" d="M40.629,156.762a.924.924,0,0,1-.632,1.57,24.483,24.483,0,0,1-4.091-.005c-1.294-.185-1.234-1.572-.3-1.745a28.25,28.25,0,0,1,4.264-.01,1.317,1.317,0,0,1,.764.191" transform="translate(-29.786 -133.5)" fill="#fff"/>
            <path id="Trazado_1259847" data-name="Trazado 1259847" d="M169.467,127.763a37.23,37.23,0,0,1,4.667-.027.887.887,0,0,1-.152,1.751,27.256,27.256,0,0,1-4.368-.023.889.889,0,0,1-.147-1.7" transform="translate(-144.082 -108.915)" fill="#fff"/>
            <path id="Trazado_1259848" data-name="Trazado 1259848" d="M35.562,185.763c.614-.135,3.062-.178,3.406.351,1.093,1.685-2.585,1.529-3.406,1.349a.861.861,0,0,1,0-1.7" transform="translate(-29.719 -158.392)" fill="#fff"/>
            <path id="Trazado_1259849" data-name="Trazado 1259849" d="M99.709,243.844c2.363-.557,2.565,2.217-.027,1.727a.887.887,0,0,1,.027-1.727" transform="translate(-84.463 -207.951)" fill="#fff"/>
            <path id="Trazado_1259850" data-name="Trazado 1259850" d="M259.071,201.717a7.624,7.624,0,0,1,4.875,10.24c-.32.8-2.278,4.156-3.27,2.776-.625-.869.923-1.967,1.358-2.778a6.017,6.017,0,0,0-1.123-7.3,7.047,7.047,0,0,0-1.77-1.17c-.417-.132,0,.576-.094.919a.964.964,0,0,1-1.3.476,16.031,16.031,0,0,1-1.762-2.51,1.008,1.008,0,0,1,.23-.788,17.214,17.214,0,0,1,2.353-1.622c1.191-.2,1.349,1.112.5,1.759" transform="translate(-218.361 -170.559)" fill="#fff"/>
            <path id="Trazado_1259851" data-name="Trazado 1259851" d="M213.143,222.573a11.056,11.056,0,0,0-1.237,1.48,5.874,5.874,0,0,0,3.056,8.42c-.363-.822.4-1.792,1.231-1.305a11.25,11.25,0,0,1,1.706,2.421,1.183,1.183,0,0,1-.226.935,20.119,20.119,0,0,1-2.376,1.6.878.878,0,0,1-.894-1.2c.082-.271.476-.35.412-.69-5.227-1.393-7.13-8.194-3.522-12.266.474-.535,1.288-1.447,1.973-.66.411.473.206.838-.124,1.261" transform="translate(-178.663 -188.53)" fill="#fff"/>
          </g>
        </g>
      </g>
    </g>
  </g>
</svg>
