<svg xmlns="http://www.w3.org/2000/svg" xmlns:xlink="http://www.w3.org/1999/xlink" width="133" height="133" viewBox="0 0 133 133">
  <defs>
    <clipPath id="clip-path">
      <rect id="Rectángulo_455842" data-name="Rectángulo 455842" width="84" height="84" transform="translate(262.711 6257)" fill="#fff" stroke="#707070" stroke-width="1"/>
    </clipPath>
    <clipPath id="clip-path-2">
      <rect id="Rectángulo_455847" data-name="Rectángulo 455847" width="75.289" height="75.177" fill="#302c9e"/>
    </clipPath>
  </defs>
  <g id="Grupo_1204970" data-name="Grupo 1204970" transform="translate(-581.711 -6233)">
    <g id="Grupo_1204782" data-name="Grupo 1204782">
      <path id="Trazado_1259877" data-name="Trazado 1259877" d="M66.5,0A66.5,66.5,0,1,1,0,66.5,66.5,66.5,0,0,1,66.5,0Z" transform="translate(581.711 6233)" fill="#302c9e"/>
      <path id="Elipse_5729" data-name="Elipse 5729" d="M60.058,0A60.058,60.058,0,1,1,0,60.058,60.058,60.058,0,0,1,60.058,0Z" transform="translate(587.711 6239)" fill="#feea89"/>
      <g id="Enmascarar_grupo_1119208" data-name="Enmascarar grupo 1119208" transform="translate(344)" clip-path="url(#clip-path)">
        <g id="Grupo_1204778" data-name="Grupo 1204778" transform="translate(266.711 6261.412)">
          <g id="Grupo_1204777" data-name="Grupo 1204777" clip-path="url(#clip-path-2)">
            <path id="Trazado_1259878" data-name="Trazado 1259878" d="M75.289,38.808H23.4a7.071,7.071,0,0,0-.233,1.209c-.767,9.747.851,20.692.019,30.4a4.873,4.873,0,0,1-8.546,2.994,4.766,4.766,0,0,1-7.174.069,16.323,16.323,0,0,1-1.142-1.962v-18.3c-2.552.284-4.828-.432-5.776-2.983C-.393,47.718.005,38.79.791,36.05c1.066-3.72,4.759-7.742,8.636-8.553.144-.586-.432-.462-.786-.871-5.9-6.826.007-16.051,8.547-14.206V0H74.956l.333.333ZM72.85,36.369V2.772l-.333-.333H19.627v11.2a8.621,8.621,0,0,1,1.109,12.971c4.151.142,7.4-3.77,11.061-5.356-1.734-13,13.781-21.534,23.86-12.82C66.367,17.693,58.782,35.2,44.6,33.9c-3.682-.337-6.648-2.27-9.339-4.631l-10.537,7.1ZM44.908,7.54c-6.121.256-11.171,6.167-10.757,12.2,1.382-.562,3.274-2.422,4.671-2.645a4.317,4.317,0,0,1,3.535,7.525c-.673.62-4.91,2.867-4.767,3.435,4.39,4.175,11.572,4.823,16.184.668l-8.866-8.87ZM58.213,18.184C57.606,12.7,52.986,7.764,47.347,7.54V18.184Zm-44.406-3.49c-7.664,1-6.4,13.337,2.33,11.864,6.836-1.153,5.858-12.931-2.33-11.864m9.036,14.356c-1.537.24-3.609-.176-5.211,0l.66,10.085-3.463,3.648-3.8-3.669.833-9.842A10.982,10.982,0,0,0,3.155,36.64c-.775,2.425-.933,9.226-.584,11.8.3,2.17,1.779,2.577,3.75,2.348V37.478l2.076.031.364.523.047,33a2.4,2.4,0,0,0,3.714,1.147,3.547,3.547,0,0,0,.9-1.1V48.566h2.439V70.631a6.535,6.535,0,0,0,.876,1.342,2.334,2.334,0,0,0,3.988-1.356c.617-9.935-.772-20.767.006-30.6.262-3.308,1.676-5.164,4.242-7.068,4.867-3.611,10.8-6.57,15.783-10.1,1.288-1.448.432-3.85-1.668-3.281-4.491,2.45-8.827,5.824-13.322,8.188a15.487,15.487,0,0,1-2.921,1.293m35.371-8.427H49.121l6.32,6.427c1.72-1.662,2.4-4.12,2.772-6.427M15.191,29.05h-.885c0,2.592-.578,5.3-.674,7.863-.045,1.214-.055,2.048,1.226,2.566l1.013-1.217Z" transform="translate(0)" fill="#302c9e"/>
            <path id="Trazado_1259879" data-name="Trazado 1259879" d="M110.135,211.046c.5-3.93,4.45-8.622,8.2-9.871-3.393-3.153-4.712-7.418-2.173-11.6a8.5,8.5,0,0,1,15.141,1.625c1.365,3.916-.147,7.27-2.988,9.971a12.941,12.941,0,0,1,6.856,6.294l.458.138a12.7,12.7,0,0,1,6.878-6.433c.263-.287-.843-.9-1.114-1.211-6.75-7.686,2.265-18.005,10.5-13.161,5.376,3.162,5.233,10.605.593,14.373a13.249,13.249,0,0,1,7.641,8,18.537,18.537,0,0,1,.785,3.65v6.431l-.333.333H110.135c.246-2.681-.332-5.929,0-8.538m17.44-12.608c5.32-5.048-1.778-13.647-7.793-9.235-6.948,5.1,1.642,15.071,7.793,9.235m24.172-8.713c-6.153-5.837-14.684,4.181-7.793,9.235,6.071,4.453,13.1-4.2,7.793-9.235m-21.21,27.42h3.437c.53-.919.413-2.774.33-3.878a10.979,10.979,0,0,0-21.949,0c-.083,1.1-.2,2.959.33,3.878h3.437v-9.757h2.439v9.757H128.1v-9.757h2.439Zm24.172,0h3.437c.538-1.03.418-3.063.3-4.3-.827-8.969-10.988-13.6-18.038-7.673-3.037,2.553-4.351,7.333-3.9,11.2.038.323.028.57.344.765h3.437v-9.757h2.439v9.757h9.536v-9.757h2.439Z" transform="translate(-85.63 -144.407)" fill="#302c9e"/>
            <path id="Trazado_1259880" data-name="Trazado 1259880" d="M273.506,120h6.32a5.9,5.9,0,0,1,2.111.994,3.62,3.62,0,0,1-1.686,6.3c-1.668.236-4.548.252-5.756-1.08a7.522,7.522,0,0,1-.988-1.895Zm2.439,2.439c-.437,2.673,1.311,2.661,3.451,2.453a1.247,1.247,0,0,0,.43-2.453Z" transform="translate(-212.853 -93.389)" fill="#302c9e"/>
            <path id="Trazado_1259881" data-name="Trazado 1259881" d="M108.8,29.017h-6.764c-.915,0-2.534-1.693-2.721-2.6-.865-4.2,3.125-5.219,6.438-4.665,1.092.183,3.047,1.573,3.047,2.719Zm-2.439-2.439c.564-2.6-1.626-2.811-3.653-2.434-1.417.264-1.229,2.434-.228,2.434Z" transform="translate(-77.198 -16.82)" fill="#302c9e"/>
            <rect id="Rectángulo_455843" data-name="Rectángulo 455843" width="7.318" height="2.439" transform="translate(63.092 4.879)" fill="#302c9e"/>
            <rect id="Rectángulo_455844" data-name="Rectángulo 455844" width="7.318" height="2.439" transform="translate(63.092 9.757)" fill="#302c9e"/>
            <rect id="Rectángulo_455845" data-name="Rectángulo 455845" width="7.318" height="2.439" transform="translate(63.092 14.636)" fill="#302c9e"/>
            <rect id="Rectángulo_455846" data-name="Rectángulo 455846" width="7.318" height="2.439" transform="translate(63.092 19.515)" fill="#302c9e"/>
          </g>
        </g>
      </g>
    </g>
  </g>
</svg>
