<svg xmlns="http://www.w3.org/2000/svg" xmlns:xlink="http://www.w3.org/1999/xlink" width="96" height="96" viewBox="0 0 96 96">
  <defs>
    <clipPath id="clip-path">
      <rect id="Rectángulo_454682" data-name="Rectángulo 454682" width="96" height="96" fill="#feea89"/>
    </clipPath>
    <clipPath id="clip-path-2">
      <rect id="Rectángulo_455279" data-name="Rectángulo 455279" width="58" height="58" transform="translate(2.965 14.267)" fill="#fff" stroke="#707070" stroke-width="1"/>
    </clipPath>
    <clipPath id="clip-path-3">
      <rect id="Rectángulo_455834" data-name="Rectángulo 455834" width="52" height="52" transform="translate(0.5)" fill="#fff"/>
    </clipPath>
  </defs>
  <g id="Grupo_1204760" data-name="Grupo 1204760" transform="translate(-731.746 -8618)">
    <g id="Grupo_1203592" data-name="Grupo 1203592" transform="translate(731.746 8618)">
      <g id="Grupo_1203487" data-name="Grupo 1203487">
        <g id="Grupo_1203486" data-name="Grupo 1203486" clip-path="url(#clip-path)">
          <path id="Trazado_1256437" data-name="Trazado 1256437" d="M2.058,84.327a47.583,47.583,0,0,0,1.836,6.227L23,71.45a25.883,25.883,0,0,1,4.958-13.021Z" transform="translate(-0.911 -25.866)" fill="#feea89"/>
          <path id="Trazado_1256438" data-name="Trazado 1256438" d="M90.555,3.894a47.583,47.583,0,0,0-6.227-1.836l-25.9,25.9A25.886,25.886,0,0,1,71.451,23Z" transform="translate(-25.866 -0.911)" fill="#feea89"/>
          <path id="Trazado_1256439" data-name="Trazado 1256439" d="M117.575,12.855a48.029,48.029,0,0,0-5.022-3.041L95.523,26.843a25.831,25.831,0,0,1,6.031,2.032Z" transform="translate(-42.287 -4.345)" fill="#feea89"/>
          <path id="Trazado_1256440" data-name="Trazado 1256440" d="M9.814,112.552a47.933,47.933,0,0,0,3.041,5.022l16.021-16.021a25.831,25.831,0,0,1-2.032-6.031Z" transform="translate(-4.345 -42.287)" fill="#feea89"/>
          <path id="Trazado_1256441" data-name="Trazado 1256441" d="M4.273,34.929,34.929,4.273A48.116,48.116,0,0,0,4.273,34.929" transform="translate(-1.892 -1.892)" fill="#feea89"/>
          <path id="Trazado_1256442" data-name="Trazado 1256442" d="M48,0q-2.406,0-4.752.234L.234,43.248Q0,45.593,0,48q0,1.726.123,3.422l51.3-51.3C50.292.043,49.151,0,48,0" transform="translate(0 0)" fill="#feea89"/>
          <path id="Trazado_1256443" data-name="Trazado 1256443" d="M143.483,112.406l-31.076,31.076a48.112,48.112,0,0,0,31.076-31.076" transform="translate(-49.761 -49.761)" fill="#feea89"/>
          <path id="Trazado_1256444" data-name="Trazado 1256444" d="M131.113,79.625,79.625,131.113q1.795.134,3.624.135c1.524,0,3.03-.074,4.517-.213l43.27-43.27c.139-1.487.213-2.993.213-4.516q0-1.829-.135-3.624" transform="translate(-35.249 -35.249)" fill="#feea89"/>
          <path id="Trazado_1256445" data-name="Trazado 1256445" d="M119.266,41.241l15.585-15.585a48.285,48.285,0,0,0-4.038-4.025L115.222,37.222a26.166,26.166,0,0,1,4.044,4.019" transform="translate(-51.007 -9.575)" fill="#feea89"/>
          <path id="Trazado_1256446" data-name="Trazado 1256446" d="M37.222,115.222,21.63,130.814a48.369,48.369,0,0,0,4.025,4.038l15.585-15.585a26.166,26.166,0,0,1-4.019-4.044" transform="translate(-9.575 -51.007)" fill="#feea89"/>
          <path id="Trazado_1256447" data-name="Trazado 1256447" d="M74.932,129.121,55.9,148.149a47.687,47.687,0,0,0,6.207,1.857l25.333-25.333a25.88,25.88,0,0,1-12.512,4.448" transform="translate(-24.748 -55.191)" fill="#feea89"/>
          <path id="Trazado_1256448" data-name="Trazado 1256448" d="M150.006,62.11a47.591,47.591,0,0,0-1.857-6.206L129.121,74.931a25.87,25.87,0,0,1-4.448,12.512Z" transform="translate(-55.191 -24.748)" fill="#feea89"/>
          <path id="Trazado_1256449" data-name="Trazado 1256449" d="M147.17,41.946a48.074,48.074,0,0,0-3.054-5.009l-16,16a25.825,25.825,0,0,1,2.064,6Z" transform="translate(-56.713 -16.352)" fill="#feea89"/>
          <path id="Trazado_1256450" data-name="Trazado 1256450" d="M36.937,144.115a47.933,47.933,0,0,0,5.009,3.055l16.995-17a25.812,25.812,0,0,1-6-2.064Z" transform="translate(-16.352 -56.713)" fill="#feea89"/>
        </g>
      </g>
    </g>
    <g id="Grupo_154427" data-name="Grupo 154427" transform="translate(736.746 8623)">
      <path id="Elipse_5729" data-name="Elipse 5729" d="M43,0A43,43,0,1,1,0,43,43,43,0,0,1,43,0Z" transform="translate(-0.162 0)" fill="#302c9e"/>
      <g id="Enmascarar_grupo_1119166" data-name="Enmascarar grupo 1119166" transform="translate(10)" clip-path="url(#clip-path-2)">
        <g id="Grupo_1204763" data-name="Grupo 1204763" transform="translate(5.465 17.267)">
          <g id="Grupo_1204762" data-name="Grupo 1204762" clip-path="url(#clip-path-3)">
            <path id="Trazado_1259810" data-name="Trazado 1259810" d="M35.926,195.763c.467.132.521,1.2.041,1.4l-34.241.105c-1.632-.153-1.768-1.05-1.717-2.479.358-10.1,7.883-19.6,17.253-22.94,15.745-5.607,33.048,4.809,34.935,21.442.139,1.225.588,3.284-.811,3.833H38.65c-.429-.271-.234-1.362.125-1.362h6.974a19.944,19.944,0,0,0-7.514-14.607A19.55,19.55,0,0,0,10.3,185.131,20.76,20.76,0,0,0,6.6,195.763H21.528a15.681,15.681,0,0,0,.61-1.49A5.347,5.347,0,0,1,27,191.787l8.027-7.121a2.113,2.113,0,0,1,3.334,2.435L30.9,195.763ZM25.352,171.917a24.438,24.438,0,0,0-15.895,6.374l2.622,2.622a20.068,20.068,0,0,1,13.273-5.4Zm1.65,3.6a20.084,20.084,0,0,1,13.273,5.4l2.622-2.622A24.4,24.4,0,0,0,27,171.917Zm-21.9,20.247a21.619,21.619,0,0,1,4.8-12.669c.353-.443,1.143-.783.754-1.361-.495-.737-1.761-1.552-2.334-2.314a25.011,25.011,0,0,0-6.824,16.344Zm45.743,0a25.033,25.033,0,0,0-6.824-16.344c-.572.762-1.839,1.578-2.333,2.314-.1.151-.18.218-.125.427.039.15,1.661,1.954,1.967,2.4a21.67,21.67,0,0,1,3.716,11.206ZM30,194.113l6.976-7.651.075-.221c-.146-.62-.744-.661-1.2-.293L28.5,192.54a3.808,3.808,0,0,1,1.5,1.573m-.9,1.651a3.009,3.009,0,0,0-5.849,0Z" transform="translate(0 -144.776)" fill="#fff"/>
            <path id="Trazado_1259811" data-name="Trazado 1259811" d="M48.066,7.644,42.209,13.41a.791.791,0,1,1-1.041-1.192c2.088-1.809,3.969-4.345,6.07-6.078.552-.455.915-.819,1.691-.483,1.389.6.008,4.626,1.037,4.964h.551c.245-.081.354-.43.389-.664a51.354,51.354,0,0,0,.018-7.5.852.852,0,0,0-.825-.825l-7.882.082a.675.675,0,0,0,0,1.2c1.2.583,5.344-1.046,4.686,1.685L33.971,17.621a1.692,1.692,0,0,1-1.779.421L23.609,9.679a2.415,2.415,0,0,0-2.2-.268c-6.78,6.228-13.084,13.024-19.7,19.45a.654.654,0,0,0,.994.838L21.625,10.974a2.083,2.083,0,0,1,1.838.354c2.7,2.115,5.275,5.966,7.951,7.943a2.051,2.051,0,0,0,2.547.139l4.849-4.757c1.262-.229,1.3.7.635,1.544a53.79,53.79,0,0,1-4.738,4.56,3.775,3.775,0,0,1-4.491-.438l-8-7.865C16.457,17.831,11.165,23.9,5.4,29.245A11.19,11.19,0,0,1,2.812,31.3,2.187,2.187,0,0,1,.676,27.67l19.9-19.549a3.592,3.592,0,0,1,3.846.3l8.275,8.22L44.916,4.494H41.991A3.389,3.389,0,0,1,40.8,3.735a2.184,2.184,0,0,1,1.635-3.6,55.972,55.972,0,0,1,7.955.005,2.149,2.149,0,0,1,2.025,2.025,55.447,55.447,0,0,1,.006,7.805c-.2,2.227-2.743,3.089-3.971,1.259a7.122,7.122,0,0,1-.385-.665Z" transform="translate(-0.066 0)" fill="#fff"/>
          </g>
        </g>
      </g>
    </g>
  </g>
</svg>
