<svg xmlns="http://www.w3.org/2000/svg" xmlns:xlink="http://www.w3.org/1999/xlink" width="188" height="175" viewBox="0 0 188 175">
  <defs>
    <clipPath id="clip-path">
      <rect id="Rectángulo_455864" data-name="Rectángulo 455864" width="132.75" height="124" fill="none"/>
    </clipPath>
  </defs>
  <g id="Grupo_1204854" data-name="Grupo 1204854" transform="translate(-289.855 -10038)">
    <g id="Grupo_1204526" data-name="Grupo 1204526" transform="translate(289.855 10038)">
      <rect id="Rectángulo_455283" data-name="Rectángulo 455283" width="188" height="175" rx="19" fill="#c1fbff"/>
    </g>
    <g id="Grupo_1204791" data-name="Grupo 1204791" transform="translate(317.48 10063.5)">
      <rect id="Rectángulo_455858" data-name="Rectángulo 455858" width="39.364" height="15.949" transform="translate(1.414 1.216)" fill="#fff7d9"/>
      <rect id="Rectángulo_455859" data-name="Rectángulo 455859" width="39.364" height="15.949" transform="translate(1.414 36.508)" fill="#fff7d9"/>
      <rect id="Rectángulo_455860" data-name="Rectángulo 455860" width="39.364" height="15.949" transform="translate(1.414 71.121)" fill="#fff7d9"/>
      <rect id="Rectángulo_455861" data-name="Rectángulo 455861" width="39.364" height="15.949" transform="translate(1.414 106.753)" fill="#fff7d9"/>
      <g id="Grupo_1204790" data-name="Grupo 1204790">
        <g id="Grupo_1204789" data-name="Grupo 1204789" clip-path="url(#clip-path)">
          <path id="Trazado_1259903" data-name="Trazado 1259903" d="M240.643,145.883h-46.83a6.108,6.108,0,0,1-6.108-6.108V87.515a6.109,6.109,0,0,1,6.108-6.108h46.83a6.108,6.108,0,0,1,6.108,6.108v52.259a6.108,6.108,0,0,1-6.108,6.108" transform="translate(-116.046 -50.329)" fill="#fff7d9"/>
          <path id="Trazado_1259904" data-name="Trazado 1259904" d="M256.856,152.556c0,9.839-7.52,17.816-16.8,17.816s-16.8-7.977-16.8-17.816,7.52-17.816,16.8-17.816,16.8,7.977,16.8,17.816" transform="translate(-138.028 -83.301)" fill="#feea89"/>
          <path id="Trazado_1259905" data-name="Trazado 1259905" d="M137.6,19.8l.136,22.878a6.5,6.5,0,0,1-.2,12.437l.023,22.1.377.768c5.118,2.34,5.837,7.733,1.511,11.425-.622.531-1.821.5-1.888,1.548l-.023,22.1c8.585,2.57,4.285,15.649-4.06,12.141-5.857-2.462-5.083-10.47.852-12.278l.116-22.476a6.556,6.556,0,0,1-2.214-11.69c.831-.6,2.156-.4,2.281-1.537l-.179-21.973a6.528,6.528,0,0,1,.112-12.642L134.5,20.71c-.236-1.182-1.728-1.263-2.649-1.932-5.565-4.046-.767-14.082,6.731-10.93,5.254,2.209,4.753,10.841-.987,11.95m.611-8.708c-4.672-3.934-8.813,5.732-2.364,6.022,3.337.15,4.332-4.365,2.364-6.022M134.774,45.8c-2.873.664-2.968,5.382-.292,6.234,5.962,1.9,6.5-7.667.292-6.234m0,35.119c-2.866.646-2.977,5.383-.294,6.237,5.992,1.907,6.445-7.624.294-6.237m3.424,41.028c1.885-1.723,1.022-5.873-1.985-6.01-6.961-.316-2.62,10.218,1.985,6.01" transform="translate(-80.023 -4.479)"/>
          <path id="Trazado_1259906" data-name="Trazado 1259906" d="M42.322,93.059a3.286,3.286,0,0,1,.512,1.973,90.426,90.426,0,0,1-.007,13,2.943,2.943,0,0,1-1.9,2.684L3.3,110.9a2.727,2.727,0,0,1-2.4-1.419l.279-16.37,1.155-.754,38.673-.07a4.553,4.553,0,0,1,1.316.771m-2.557,2.18H4.07l-.573.573v11.453l.573.573h35.7Z" transform="translate(-0.556 -57.056)"/>
          <path id="Trazado_1259907" data-name="Trazado 1259907" d="M2.277,184.233l38.306.089a2.933,2.933,0,0,1,1.866,2.333c.275,1.758.28,12.908-.148,14.314a2.791,2.791,0,0,1-2.291,1.908l-38.023-.192-1.5-1.553c.469-2.781-.8-14.441.345-16.054a3.054,3.054,0,0,1,1.446-.844m37.14,2.972H3.722l-.573.573v11.453l.573.573h35.7Z" transform="translate(-0.208 -113.899)"/>
          <path id="Trazado_1259908" data-name="Trazado 1259908" d="M2.581,275.528c11.607.651,24.767-1.168,36.195-.1,2.079.194,3.355.58,3.62,2.87.21,1.8.194,13.556-.291,14.615a2.028,2.028,0,0,1-.954.954l-39.341.2L.4,292.418c.411-4.684-.581-10.347-.032-14.9.174-1.443,1.012-1.478,2.21-1.99m36.753,2.966H3.639l-.573.573v12.026H39.334Z" transform="translate(-0.125 -170.065)"/>
          <path id="Trazado_1259909" data-name="Trazado 1259909" d="M.741,17.861C.319,17.438.3,16.46.253,15.867a95.4,95.4,0,0,1,0-13.779,2.282,2.282,0,0,1,1.437-2L39.789,0a2.343,2.343,0,0,1,2.306,1.512c.417,1.288.41,12.99.146,14.7-.3,1.9-1.834,2.467-3.589,2.519-11.261-.738-23.648.931-34.771,0a7.733,7.733,0,0,1-3.139-.869m38.468-14.8H2.941V15.087l.573.573h35.7Z" transform="translate(0)"/>
          <path id="Trazado_1259910" data-name="Trazado 1259910" d="M249.12,138.516c17.588,17.945-10.954,44.145-27.167,24.685-15.047-18.061,11.427-40.745,27.167-24.685m-13.037-2.207c-20.668.013-20.23,32.313,1.9,30.317,18.3-1.651,17.335-30.328-1.9-30.317" transform="translate(-134.455 -82.255)"/>
          <path id="Trazado_1259911" data-name="Trazado 1259911" d="M44.438,22.239H20.344a1.527,1.527,0,0,1,0-3.054H44.438a1.527,1.527,0,1,1,0,3.054" transform="translate(-11.633 -11.861)"/>
          <path id="Trazado_1259912" data-name="Trazado 1259912" d="M44.438,114.684H20.344a1.527,1.527,0,0,1,0-3.054H44.438a1.527,1.527,0,1,1,0,3.054" transform="translate(-11.633 -69.014)"/>
          <path id="Trazado_1259913" data-name="Trazado 1259913" d="M44.438,207.128H20.344a1.527,1.527,0,1,1,0-3.054H44.438a1.527,1.527,0,1,1,0,3.054" transform="translate(-11.633 -126.166)"/>
          <path id="Trazado_1259914" data-name="Trazado 1259914" d="M44.438,299.573H20.344a1.527,1.527,0,1,1,0-3.054H44.438a1.527,1.527,0,1,1,0,3.054" transform="translate(-11.633 -183.318)"/>
          <path id="Trazado_1259915" data-name="Trazado 1259915" d="M244.389,76.3c-1.9-5-5.363-5.087-10.893-5.331.418-4.215-3.145-4.108-3.268.01l-15.82-.01c.555-4.153-3.46-4.141-3.053,0l-15.41-.05-.971-2.465c-2-1.463-2.975.6-2.709,2.514-6.371-.71-10.879,1.456-11.085,8.193-.634,20.674-.068,35.718,0,53.1.184,4.246,3.232,7.813,7.456,7.815,27.3.013,17.938.412,27.3.013h21.2a8.133,8.133,0,0,0,7.438-6.306ZM241.9,132.244a10.439,10.439,0,0,1-1.656,3.5,5.748,5.748,0,0,1-3.366,1.276H209.511c-6.972-.264,0,0-20.49,0-1.6.249-4.771-2.209-4.771-3.628V85.478H241.9Zm0-49.82H184.251c-.764-6.23,1.519-9.333,8.019-8.4-.042,1.15-.117,2.391.755,3.253a1.722,1.722,0,0,0,.958.223c.582,0,1.109-.073,1.285-.664l.053-2.811h16.038c-.042,1.149-.118,2.39.755,3.252a1.722,1.722,0,0,0,.958.223c.582,0,1.109-.073,1.285-.664l.053-2.811h16.038c-.505,2.348.834,4.728,3,2.811l.053-2.811c6.7-.989,8.983,1.934,8.4,8.4" transform="translate(-111.828 -41.949)"/>
          <rect id="Rectángulo_455862" data-name="Rectángulo 455862" width="2.828" height="14.026" transform="translate(100.391 57.208)"/>
          <rect id="Rectángulo_455863" data-name="Rectángulo 455863" width="14.026" height="2.828" transform="translate(100.334 68.463)"/>
          <path id="Trazado_1259916" data-name="Trazado 1259916" d="M142.981,16.212a5.027,5.027,0,1,1-5.027-5.027,5.027,5.027,0,0,1,5.027,5.027" transform="translate(-82.181 -6.915)" fill="#ebcc30"/>
          <path id="Trazado_1259917" data-name="Trazado 1259917" d="M142.981,108.656a5.027,5.027,0,1,1-5.027-5.027,5.027,5.027,0,0,1,5.027,5.027" transform="translate(-82.181 -64.067)" fill="#ebcc30"/>
          <path id="Trazado_1259918" data-name="Trazado 1259918" d="M142.981,200.212a5.027,5.027,0,1,1-5.027-5.027,5.027,5.027,0,0,1,5.027,5.027" transform="translate(-82.181 -120.67)" fill="#ebcc30"/>
          <path id="Trazado_1259919" data-name="Trazado 1259919" d="M142.981,291.767a5.027,5.027,0,1,1-5.027-5.027,5.027,5.027,0,0,1,5.027,5.027" transform="translate(-82.181 -177.273)" fill="#ebcc30"/>
        </g>
      </g>
    </g>
  </g>
</svg>
